<?xml version="1.0" encoding="UTF-8" standalone="no"?><svg xmlns="http://www.w3.org/2000/svg" xmlns:xlink="http://www.w3.org/1999/xlink" contentStyleType="text/css" height="894px" preserveAspectRatio="none" style="width:1512px;height:894px;background:#FFFFFF;" version="1.1" viewBox="0 0 1512 894" width="1512px" zoomAndPan="magnify"><defs/><g><!--MD5=[d5ac3844f66b12d9e08170e47495e096]
cluster app--><g id="cluster_app"><path d="M8.5,544 L35.5,544 A3.75,3.75 0 0 1 38,546.5 L45,567.6094 L1502.5,567.6094 A2.5,2.5 0 0 1 1505,570.1094 L1505,884.5 A2.5,2.5 0 0 1 1502.5,887 L8.5,887 A2.5,2.5 0 0 1 6,884.5 L6,546.5 A2.5,2.5 0 0 1 8.5,544 " style="stroke:#000000;stroke-width:1.5;fill:none;"/><line style="stroke:#000000;stroke-width:1.5;fill:none;" x1="6" x2="45" y1="567.6094" y2="567.6094"/><text fill="#000000" font-family="sans-serif" font-size="14" font-weight="bold" lengthAdjust="spacing" textLength="26" x="10" y="560.5332">app</text></g><!--MD5=[27f772719433d509ddbc20ff768eba08]
cluster domain--><g id="cluster_domain"><path d="M152.5,6 L204.5,6 A3.75,3.75 0 0 1 207,8.5 L214,29.6094 L679.5,29.6094 A2.5,2.5 0 0 1 682,32.1094 L682,409.5 A2.5,2.5 0 0 1 679.5,412 L152.5,412 A2.5,2.5 0 0 1 150,409.5 L150,8.5 A2.5,2.5 0 0 1 152.5,6 " style="stroke:#000000;stroke-width:1.5;fill:none;"/><line style="stroke:#000000;stroke-width:1.5;fill:none;" x1="150" x2="214" y1="29.6094" y2="29.6094"/><text fill="#000000" font-family="sans-serif" font-size="14" font-weight="bold" lengthAdjust="spacing" textLength="51" x="154" y="22.5332">domain</text></g><!--MD5=[77349be1bd27b81b697a0f9b3aded3c8]
cluster infrastructure--><g id="cluster_infrastructure"><path d="M798.5,62 L896.5,62 A3.75,3.75 0 0 1 899,64.5 L906,85.6094 L1076.5,85.6094 A2.5,2.5 0 0 1 1079,88.1094 L1079,517.5 A2.5,2.5 0 0 1 1076.5,520 L798.5,520 A2.5,2.5 0 0 1 796,517.5 L796,64.5 A2.5,2.5 0 0 1 798.5,62 " style="stroke:#000000;stroke-width:1.5;fill:none;"/><line style="stroke:#000000;stroke-width:1.5;fill:none;" x1="796" x2="906" y1="85.6094" y2="85.6094"/><text fill="#000000" font-family="sans-serif" font-size="14" font-weight="bold" lengthAdjust="spacing" textLength="97" x="800" y="78.5332">infrastructure</text></g><!--MD5=[2a39a5be1cc24ddddd6e6286e4ece992]
class IEntityModel--><g id="elem_IEntityModel"><rect codeLine="3" fill="#F1F1F1" height="65.6094" id="IEntityModel" rx="2.5" ry="2.5" style="stroke:#181818;stroke-width:0.5;" width="138" x="22" y="692.5"/><ellipse cx="49.6" cy="708.5" fill="#B4A7E5" rx="11" ry="11" style="stroke:#181818;stroke-width:1.0;"/><path d="M50.5531,705.1406 L50.5531,711.7969 L52.2719,711.7969 Q52.8813,711.7969 53.1469,712.0313 Q53.4125,712.2656 53.4125,712.6563 Q53.4125,713.0313 53.1469,713.2656 Q52.8813,713.5 52.2719,713.5 L47.1313,713.5 Q46.5219,713.5 46.2563,713.2656 Q45.9906,713.0313 45.9906,712.6406 Q45.9906,712.2656 46.2563,712.0313 Q46.5219,711.7969 47.1313,711.7969 L48.85,711.7969 L48.85,705.1406 L47.1313,705.1406 Q46.5219,705.1406 46.2563,704.9063 Q45.9906,704.6719 45.9906,704.2813 Q45.9906,703.9063 46.2563,703.6719 Q46.5219,703.4375 47.1313,703.4375 L52.2719,703.4375 Q52.8813,703.4375 53.1469,703.6719 Q53.4125,703.9063 53.4125,704.2813 Q53.4125,704.6719 53.1469,704.9063 Q52.8813,705.1406 52.2719,705.1406 L50.5531,705.1406 Z " fill="#000000"/><text fill="#000000" font-family="sans-serif" font-size="14" font-style="italic" lengthAdjust="spacing" textLength="78" x="66.4" y="714.2285">IEntityModel</text><line style="stroke:#181818;stroke-width:0.5;" x1="23" x2="159" y1="724.5" y2="724.5"/><line style="stroke:#181818;stroke-width:0.5;" x1="23" x2="159" y1="732.5" y2="732.5"/><ellipse cx="33" cy="743.5" fill="#84BE84" rx="3" ry="3" style="stroke:#038048;stroke-width:1.0;"/><text fill="#000000" font-family="sans-serif" font-size="14" lengthAdjust="spacing" textLength="112" x="42" y="751.0332">GetID() uuid.UUID</text></g><!--MD5=[b3e0f8dcddb1b27f071a0303a68762bf]
class IGenericRepository--><g id="elem_IGenericRepository"><rect codeLine="3" fill="#F1F1F1" height="236.875" id="IGenericRepository" rx="2.5" ry="2.5" style="stroke:#181818;stroke-width:0.5;" width="915" x="573.5" y="607"/><ellipse cx="935.25" cy="623" fill="#B4A7E5" rx="11" ry="11" style="stroke:#181818;stroke-width:1.0;"/><path d="M936.2031,619.6406 L936.2031,626.2969 L937.9219,626.2969 Q938.5313,626.2969 938.7969,626.5313 Q939.0625,626.7656 939.0625,627.1563 Q939.0625,627.5313 938.7969,627.7656 Q938.5313,628 937.9219,628 L932.7813,628 Q932.1719,628 931.9063,627.7656 Q931.6406,627.5313 931.6406,627.1406 Q931.6406,626.7656 931.9063,626.5313 Q932.1719,626.2969 932.7813,626.2969 L934.5,626.2969 L934.5,619.6406 L932.7813,619.6406 Q932.1719,619.6406 931.9063,619.4063 Q931.6406,619.1719 931.6406,618.7813 Q931.6406,618.4063 931.9063,618.1719 Q932.1719,617.9375 932.7813,617.9375 L937.9219,617.9375 Q938.5313,617.9375 938.7969,618.1719 Q939.0625,618.4063 939.0625,618.7813 Q939.0625,619.1719 938.7969,619.4063 Q938.5313,619.6406 937.9219,619.6406 L936.2031,619.6406 Z " fill="#000000"/><text fill="#000000" font-family="sans-serif" font-size="14" font-style="italic" lengthAdjust="spacing" textLength="122" x="955.75" y="628.7285">IGenericRepository</text><rect fill="#FFFFFF" height="17.0938" style="stroke:#000000;stroke-width:1.0;stroke-dasharray:2.0,2.0;" width="59" x="1432.5" y="604"/><text fill="#000000" font-family="sans-serif" font-size="12" font-style="italic" lengthAdjust="spacing" textLength="57" x="1433.5" y="617.457">EntityType</text><line style="stroke:#181818;stroke-width:0.5;" x1="574.5" x2="1487.5" y1="639" y2="639"/><ellipse cx="584.5" cy="650" fill="#84BE84" rx="3" ry="3" style="stroke:#038048;stroke-width:1.0;"/><text fill="#000000" font-family="sans-serif" font-size="14" lengthAdjust="spacing" textLength="889" x="593.5" y="657.5332">GetList(ctx context.Context, orderBy string, orderDirection string, page int, size int, queryBuilder interfaces.IQueryBuilder) ([]EntityType, error)</text><line style="stroke:#181818;stroke-width:1.0;" x1="574.5" x2="1487.5" y1="664.6094" y2="664.6094"/><ellipse cx="584.5" cy="675.6094" fill="#84BE84" rx="3" ry="3" style="stroke:#038048;stroke-width:1.0;"/><text fill="#000000" font-family="sans-serif" font-size="14" lengthAdjust="spacing" textLength="494" x="593.5" y="683.1426">Count(ctx context.Context, queryBuilder interfaces.IQueryBuilder) (int64, error)</text><line style="stroke:#181818;stroke-width:1.0;" x1="574.5" x2="1487.5" y1="690.2188" y2="690.2188"/><ellipse cx="584.5" cy="701.2188" fill="#84BE84" rx="3" ry="3" style="stroke:#038048;stroke-width:1.0;"/><text fill="#000000" font-family="sans-serif" font-size="14" lengthAdjust="spacing" textLength="393" x="593.5" y="708.752">NewQueryBuilder(ctx context.Context) interfaces.IQueryBuilder</text><line style="stroke:#181818;stroke-width:1.0;" x1="574.5" x2="1487.5" y1="715.8281" y2="715.8281"/><ellipse cx="584.5" cy="726.8281" fill="#84BE84" rx="3" ry="3" style="stroke:#038048;stroke-width:1.0;"/><text fill="#000000" font-family="sans-serif" font-size="14" lengthAdjust="spacing" textLength="383" x="593.5" y="734.3613">GetById(ctx context.Context, id uuid.UUID) (EntityType, error)</text><line style="stroke:#181818;stroke-width:1.0;" x1="574.5" x2="1487.5" y1="741.4375" y2="741.4375"/><ellipse cx="584.5" cy="752.4375" fill="#84BE84" rx="3" ry="3" style="stroke:#038048;stroke-width:1.0;"/><text fill="#000000" font-family="sans-serif" font-size="14" lengthAdjust="spacing" textLength="406" x="593.5" y="759.9707">Update(ctx context.Context, entity EntityType) (EntityType, error)</text><line style="stroke:#181818;stroke-width:1.0;" x1="574.5" x2="1487.5" y1="767.0469" y2="767.0469"/><ellipse cx="584.5" cy="778.0469" fill="#84BE84" rx="3" ry="3" style="stroke:#038048;stroke-width:1.0;"/><text fill="#000000" font-family="sans-serif" font-size="14" lengthAdjust="spacing" textLength="396" x="593.5" y="785.5801">Insert(ctx context.Context, entity EntityType) (EntityType, error)</text><line style="stroke:#181818;stroke-width:1.0;" x1="574.5" x2="1487.5" y1="792.6563" y2="792.6563"/><ellipse cx="584.5" cy="803.6563" fill="#84BE84" rx="3" ry="3" style="stroke:#038048;stroke-width:1.0;"/><text fill="#000000" font-family="sans-serif" font-size="14" lengthAdjust="spacing" textLength="289" x="593.5" y="811.1895">Delete(ctx context.Context, id uuid.UUID) error</text><line style="stroke:#181818;stroke-width:1.0;" x1="574.5" x2="1487.5" y1="818.2656" y2="818.2656"/><ellipse cx="584.5" cy="829.2656" fill="#84BE84" rx="3" ry="3" style="stroke:#038048;stroke-width:1.0;"/><text fill="#000000" font-family="sans-serif" font-size="14" lengthAdjust="spacing" textLength="99" x="593.5" y="836.7988">CloseDb() error</text></g><path d="M195.5,580 L195.5,606.3516 A0,0 0 0 0 195.5,606.3516 L489.5,606.3516 A0,0 0 0 0 489.5,606.3516 L489.5,598 L577.5,651.8047 L489.5,590 L489.5,590 L479.5,580 L195.5,580 A0,0 0 0 0 195.5,580 " fill="#FEFFDD" style="stroke:#181818;stroke-width:0.5;"/><path d="M479.5,580 L479.5,590 L489.5,590 L479.5,580 " fill="#FEFFDD" style="stroke:#181818;stroke-width:0.5;"/><text fill="#000000" font-family="sans-serif" font-size="13" lengthAdjust="spacing" textLength="273" x="201.5" y="598.4951">Get list of elements with filtering and pagination</text><path d="M195.5,616.3516 L195.5,642.7031 A0,0 0 0 0 195.5,642.7031 L405.5,642.7031 A0,0 0 0 0 405.5,642.7031 L405.5,634.3516 L577.5,677.4141 L405.5,626.3516 L405.5,626.3516 L395.5,616.3516 L195.5,616.3516 A0,0 0 0 0 195.5,616.3516 " fill="#FEFFDD" style="stroke:#181818;stroke-width:0.5;"/><path d="M395.5,616.3516 L395.5,626.3516 L405.5,626.3516 L395.5,616.3516 " fill="#FEFFDD" style="stroke:#181818;stroke-width:0.5;"/><text fill="#000000" font-family="sans-serif" font-size="13" lengthAdjust="spacing" textLength="189" x="201.5" y="634.8467">Get count of entities with filtering</text><path d="M195.5,652.7031 L195.5,679.0547 A0,0 0 0 0 195.5,679.0547 L431.5,679.0547 A0,0 0 0 0 431.5,679.0547 L431.5,670.7031 L577.5,703.0234 L431.5,662.7031 L431.5,662.7031 L421.5,652.7031 L195.5,652.7031 A0,0 0 0 0 195.5,652.7031 " fill="#FEFFDD" style="stroke:#181818;stroke-width:0.5;"/><path d="M421.5,652.7031 L421.5,662.7031 L431.5,662.7031 L421.5,652.7031 " fill="#FEFFDD" style="stroke:#181818;stroke-width:0.5;"/><text fill="#000000" font-family="sans-serif" font-size="13" lengthAdjust="spacing" textLength="215" x="201.5" y="671.1982">Get new instance of the query builder</text><path d="M195.5,689.0547 L195.5,715.4063 A0,0 0 0 0 195.5,715.4063 L397.5,715.4063 A0,0 0 0 0 397.5,715.4063 L397.5,707.0547 L577.5,728.6328 L397.5,699.0547 L397.5,699.0547 L387.5,689.0547 L195.5,689.0547 A0,0 0 0 0 195.5,689.0547 " fill="#FEFFDD" style="stroke:#181818;stroke-width:0.5;"/><path d="M387.5,689.0547 L387.5,699.0547 L397.5,699.0547 L387.5,689.0547 " fill="#FEFFDD" style="stroke:#181818;stroke-width:0.5;"/><text fill="#000000" font-family="sans-serif" font-size="13" lengthAdjust="spacing" textLength="181" x="201.5" y="707.5498">Get entity by ID from repository</text><path d="M195.5,725.4063 L195.5,751.7578 A0,0 0 0 0 195.5,751.7578 L538.5,751.7578 A0,0 0 0 0 538.5,751.7578 L538.5,743.4063 L577.5,754.2422 L538.5,735.4063 L538.5,735.4063 L528.5,725.4063 L195.5,725.4063 A0,0 0 0 0 195.5,725.4063 " fill="#FEFFDD" style="stroke:#181818;stroke-width:0.5;"/><path d="M528.5,725.4063 L528.5,735.4063 L538.5,735.4063 L528.5,725.4063 " fill="#FEFFDD" style="stroke:#181818;stroke-width:0.5;"/><text fill="#000000" font-family="sans-serif" font-size="13" lengthAdjust="spacing" textLength="322" x="201.5" y="743.9014">Save the changes to the existing entity in the repository</text><path d="M195.5,761.7578 L195.5,788.1094 A0,0 0 0 0 195.5,788.1094 L373.5,788.1094 A0,0 0 0 0 373.5,788.1094 L373.5,779.7578 L577.5,779.8516 L373.5,771.7578 L373.5,771.7578 L363.5,761.7578 L195.5,761.7578 A0,0 0 0 0 195.5,761.7578 " fill="#FEFFDD" style="stroke:#181818;stroke-width:0.5;"/><path d="M363.5,761.7578 L363.5,771.7578 L373.5,771.7578 L363.5,761.7578 " fill="#FEFFDD" style="stroke:#181818;stroke-width:0.5;"/><text fill="#000000" font-family="sans-serif" font-size="13" lengthAdjust="spacing" textLength="157" x="201.5" y="780.2529">Add entity to the repository</text><path d="M195.5,798.1094 L195.5,824.4609 A0,0 0 0 0 195.5,824.4609 L397.5,824.4609 A0,0 0 0 0 397.5,824.4609 L397.5,816.1094 L577.5,805.4609 L397.5,808.1094 L397.5,808.1094 L387.5,798.1094 L195.5,798.1094 A0,0 0 0 0 195.5,798.1094 " fill="#FEFFDD" style="stroke:#181818;stroke-width:0.5;"/><path d="M387.5,798.1094 L387.5,808.1094 L397.5,808.1094 L387.5,798.1094 " fill="#FEFFDD" style="stroke:#181818;stroke-width:0.5;"/><text fill="#000000" font-family="sans-serif" font-size="13" lengthAdjust="spacing" textLength="181" x="201.5" y="816.6045">Delete entity from the database</text><path d="M195.5,834.4609 L195.5,860.8125 A0,0 0 0 0 195.5,860.8125 L424.5,860.8125 A0,0 0 0 0 424.5,860.8125 L424.5,852.4609 L577.5,831.0703 L424.5,844.4609 L424.5,844.4609 L414.5,834.4609 L195.5,834.4609 A0,0 0 0 0 195.5,834.4609 " fill="#FEFFDD" style="stroke:#181818;stroke-width:0.5;"/><path d="M414.5,834.4609 L414.5,844.4609 L424.5,844.4609 L414.5,834.4609 " fill="#FEFFDD" style="stroke:#181818;stroke-width:0.5;"/><text fill="#000000" font-family="sans-serif" font-size="13" lengthAdjust="spacing" textLength="208" x="201.5" y="852.9561">Closes current database connection</text><!--MD5=[be996cdb8e6bf2fc7cb89c555f2cd144]
class Entity--><g id="elem_Entity"><rect codeLine="5" fill="#F1F1F1" height="134.4375" id="Entity" rx="2.5" ry="2.5" style="stroke:#181818;stroke-width:0.5;" width="283" x="274.5" y="262"/><ellipse cx="394.25" cy="278" fill="#ADD1B2" rx="11" ry="11" style="stroke:#181818;stroke-width:1.0;"/><path d="M397.0156,273.875 Q397.1719,273.6563 397.3594,273.5469 Q397.5469,273.4375 397.7656,273.4375 Q398.1406,273.4375 398.375,273.7031 Q398.6094,273.9531 398.6094,274.5625 L398.6094,276.0156 Q398.6094,276.625 398.375,276.8906 Q398.1406,277.1563 397.7656,277.1563 Q397.4219,277.1563 397.2188,276.9531 Q397.0156,276.7656 396.9063,276.25 Q396.8594,275.8906 396.6719,275.7031 Q396.3438,275.3281 395.7344,275.1094 Q395.125,274.8906 394.5,274.8906 Q393.7344,274.8906 393.0938,275.2188 Q392.4688,275.5469 391.9688,276.2969 Q391.4844,277.0469 391.4844,278.0781 L391.4844,279.1719 Q391.4844,280.4063 392.375,281.2344 Q393.2656,282.0469 394.8594,282.0469 Q395.7969,282.0469 396.4531,281.7969 Q396.8438,281.6406 397.2656,281.2031 Q397.5313,280.9375 397.6719,280.8594 Q397.8281,280.7813 398.0313,280.7813 Q398.3594,280.7813 398.6094,281.0469 Q398.875,281.2969 398.875,281.6406 Q398.875,281.9844 398.5313,282.3906 Q398.0313,282.9688 397.2344,283.2969 Q396.1563,283.75 394.8594,283.75 Q393.3438,283.75 392.1406,283.125 Q391.1563,282.625 390.4688,281.5625 Q389.7813,280.4844 389.7813,279.2031 L389.7813,278.0469 Q389.7813,276.7188 390.3906,275.5781 Q391.0156,274.4219 392.1094,273.8125 Q393.2031,273.1875 394.4375,273.1875 Q395.1719,273.1875 395.8125,273.3594 Q396.4688,273.5156 397.0156,273.875 Z " fill="#000000"/><text fill="#000000" font-family="sans-serif" font-size="14" lengthAdjust="spacing" textLength="35" x="414.75" y="283.7285">Entity</text><line style="stroke:#181818;stroke-width:0.5;" x1="275.5" x2="556.5" y1="294" y2="294"/><ellipse cx="285.5" cy="305" fill="none" rx="3" ry="3" style="stroke:#038048;stroke-width:1.0;"/><text fill="#000000" font-family="sans-serif" font-size="14" lengthAdjust="spacing" textLength="208" x="294.5" y="312.5332">ID uuid.UUID `gorm:"primarykey"`</text><line style="stroke:#181818;stroke-width:1.0;" x1="275.5" x2="556.5" y1="319.6094" y2="319.6094"/><ellipse cx="285.5" cy="330.6094" fill="none" rx="3" ry="3" style="stroke:#038048;stroke-width:1.0;"/><text fill="#000000" font-family="sans-serif" font-size="14" lengthAdjust="spacing" textLength="222" x="294.5" y="338.1426">CreatedAt time.Time `gorm:"index"`</text><line style="stroke:#181818;stroke-width:1.0;" x1="275.5" x2="556.5" y1="345.2188" y2="345.2188"/><ellipse cx="285.5" cy="356.2188" fill="none" rx="3" ry="3" style="stroke:#038048;stroke-width:1.0;"/><text fill="#000000" font-family="sans-serif" font-size="14" lengthAdjust="spacing" textLength="224" x="294.5" y="363.752">UpdatedAt time.Time `gorm:"index"`</text><line style="stroke:#181818;stroke-width:1.0;" x1="275.5" x2="556.5" y1="370.8281" y2="370.8281"/><ellipse cx="285.5" cy="381.8281" fill="none" rx="3" ry="3" style="stroke:#038048;stroke-width:1.0;"/><text fill="#000000" font-family="sans-serif" font-size="14" lengthAdjust="spacing" textLength="257" x="294.5" y="389.3613">DeletedAt gorm.DeletedAt `gorm:"index"`</text></g><!--MD5=[a0c76383944e982ee35488825d35b1c9]
class EthernetSwitchPort--><g id="elem_EthernetSwitchPort"><rect codeLine="5" fill="#F1F1F1" height="160.0469" id="EthernetSwitchPort" rx="2.5" ry="2.5" style="stroke:#181818;stroke-width:0.5;" width="197" x="468.5" y="42"/><ellipse cx="503.75" cy="58" fill="#ADD1B2" rx="11" ry="11" style="stroke:#181818;stroke-width:1.0;"/><path d="M506.5156,53.875 Q506.6719,53.6563 506.8594,53.5469 Q507.0469,53.4375 507.2656,53.4375 Q507.6406,53.4375 507.875,53.7031 Q508.1094,53.9531 508.1094,54.5625 L508.1094,56.0156 Q508.1094,56.625 507.875,56.8906 Q507.6406,57.1563 507.2656,57.1563 Q506.9219,57.1563 506.7188,56.9531 Q506.5156,56.7656 506.4063,56.25 Q506.3594,55.8906 506.1719,55.7031 Q505.8438,55.3281 505.2344,55.1094 Q504.625,54.8906 504,54.8906 Q503.2344,54.8906 502.5938,55.2188 Q501.9688,55.5469 501.4688,56.2969 Q500.9844,57.0469 500.9844,58.0781 L500.9844,59.1719 Q500.9844,60.4063 501.875,61.2344 Q502.7656,62.0469 504.3594,62.0469 Q505.2969,62.0469 505.9531,61.7969 Q506.3438,61.6406 506.7656,61.2031 Q507.0313,60.9375 507.1719,60.8594 Q507.3281,60.7813 507.5313,60.7813 Q507.8594,60.7813 508.1094,61.0469 Q508.375,61.2969 508.375,61.6406 Q508.375,61.9844 508.0313,62.3906 Q507.5313,62.9688 506.7344,63.2969 Q505.6563,63.75 504.3594,63.75 Q502.8438,63.75 501.6406,63.125 Q500.6563,62.625 499.9688,61.5625 Q499.2813,60.4844 499.2813,59.2031 L499.2813,58.0469 Q499.2813,56.7188 499.8906,55.5781 Q500.5156,54.4219 501.6094,53.8125 Q502.7031,53.1875 503.9375,53.1875 Q504.6719,53.1875 505.3125,53.3594 Q505.9688,53.5156 506.5156,53.875 Z " fill="#000000"/><text fill="#000000" font-family="sans-serif" font-size="14" lengthAdjust="spacing" textLength="120" x="522.25" y="63.7285">EthernetSwitchPort</text><line style="stroke:#181818;stroke-width:0.5;" x1="469.5" x2="664.5" y1="74" y2="74"/><ellipse cx="479.5" cy="85" fill="none" rx="3" ry="3" style="stroke:#038048;stroke-width:1.0;"/><text fill="#000000" font-family="sans-serif" font-size="14" lengthAdjust="spacing" textLength="171" x="488.5" y="92.5332">EthernetSwitchId uuid.UUID</text><line style="stroke:#181818;stroke-width:1.0;" x1="469.5" x2="664.5" y1="99.6094" y2="99.6094"/><ellipse cx="479.5" cy="110.6094" fill="none" rx="3" ry="3" style="stroke:#038048;stroke-width:1.0;"/><text fill="#000000" font-family="sans-serif" font-size="14" lengthAdjust="spacing" textLength="100" x="488.5" y="118.1426">POEType string</text><line style="stroke:#181818;stroke-width:1.0;" x1="469.5" x2="664.5" y1="125.2188" y2="125.2188"/><ellipse cx="479.5" cy="136.2188" fill="none" rx="3" ry="3" style="stroke:#038048;stroke-width:1.0;"/><text fill="#000000" font-family="sans-serif" font-size="14" lengthAdjust="spacing" textLength="75" x="488.5" y="143.752">Name string</text><line style="stroke:#181818;stroke-width:1.0;" x1="469.5" x2="664.5" y1="150.8281" y2="150.8281"/><ellipse cx="479.5" cy="161.8281" fill="none" rx="3" ry="3" style="stroke:#038048;stroke-width:1.0;"/><text fill="#000000" font-family="sans-serif" font-size="14" lengthAdjust="spacing" textLength="112" x="488.5" y="169.3613">POEEnabled bool</text><line style="stroke:#181818;stroke-width:1.0;" x1="469.5" x2="664.5" y1="176.4375" y2="176.4375"/><ellipse cx="479.5" cy="187.4375" fill="none" rx="3" ry="3" style="stroke:#038048;stroke-width:1.0;"/><text fill="#000000" font-family="sans-serif" font-size="14" lengthAdjust="spacing" textLength="50" x="488.5" y="194.9707">PVID int</text></g><path d="M166.5,77.5 L166.5,120.2031 A0,0 0 0 0 166.5,120.2031 L433.5,120.2031 A0,0 0 0 0 433.5,120.2031 L433.5,102.8516 L472.5,112.4141 L433.5,94.8516 L433.5,87.5 L423.5,77.5 L166.5,77.5 A0,0 0 0 0 166.5,77.5 " fill="#FEFFDD" style="stroke:#181818;stroke-width:0.5;"/><path d="M423.5,77.5 L423.5,87.5 L433.5,87.5 L423.5,77.5 " fill="#FEFFDD" style="stroke:#181818;stroke-width:0.5;"/><text fill="#000000" font-family="sans-serif" font-size="13" lengthAdjust="spacing" textLength="83" x="172.5" y="95.9951">POE port type</text><text fill="#000000" font-family="sans-serif" font-size="13" lengthAdjust="spacing" textLength="246" x="172.5" y="112.3467">can be: "poe", "poe+", "passive24", "none"</text><path d="M166.5,130.2031 L166.5,156.5547 A0,0 0 0 0 166.5,156.5547 L316.5,156.5547 A0,0 0 0 0 316.5,156.5547 L316.5,148.2031 L472.5,138.0234 L316.5,140.2031 L316.5,140.2031 L306.5,130.2031 L166.5,130.2031 A0,0 0 0 0 166.5,130.2031 " fill="#FEFFDD" style="stroke:#181818;stroke-width:0.5;"/><path d="M306.5,130.2031 L306.5,140.2031 L316.5,140.2031 L306.5,130.2031 " fill="#FEFFDD" style="stroke:#181818;stroke-width:0.5;"/><text fill="#000000" font-family="sans-serif" font-size="13" lengthAdjust="spacing" textLength="129" x="172.5" y="148.6982">Unique within 1 switch</text><!--MD5=[27abfb56f32eefa7f07c83348fb1ee32]
class GormGenericRepository--><g id="elem_GormGenericRepository"><rect codeLine="5" fill="#F1F1F1" height="48" id="GormGenericRepository" rx="2.5" ry="2.5" style="stroke:#181818;stroke-width:0.5;" width="246" x="817" y="456"/><ellipse cx="832" cy="472" fill="#ADD1B2" rx="11" ry="11" style="stroke:#181818;stroke-width:1.0;"/><path d="M834.7656,467.875 Q834.9219,467.6563 835.1094,467.5469 Q835.2969,467.4375 835.5156,467.4375 Q835.8906,467.4375 836.125,467.7031 Q836.3594,467.9531 836.3594,468.5625 L836.3594,470.0156 Q836.3594,470.625 836.125,470.8906 Q835.8906,471.1563 835.5156,471.1563 Q835.1719,471.1563 834.9688,470.9531 Q834.7656,470.7656 834.6563,470.25 Q834.6094,469.8906 834.4219,469.7031 Q834.0938,469.3281 833.4844,469.1094 Q832.875,468.8906 832.25,468.8906 Q831.4844,468.8906 830.8438,469.2188 Q830.2188,469.5469 829.7188,470.2969 Q829.2344,471.0469 829.2344,472.0781 L829.2344,473.1719 Q829.2344,474.4063 830.125,475.2344 Q831.0156,476.0469 832.6094,476.0469 Q833.5469,476.0469 834.2031,475.7969 Q834.5938,475.6406 835.0156,475.2031 Q835.2813,474.9375 835.4219,474.8594 Q835.5781,474.7813 835.7813,474.7813 Q836.1094,474.7813 836.3594,475.0469 Q836.625,475.2969 836.625,475.6406 Q836.625,475.9844 836.2813,476.3906 Q835.7813,476.9688 834.9844,477.2969 Q833.9063,477.75 832.6094,477.75 Q831.0938,477.75 829.8906,477.125 Q828.9063,476.625 828.2188,475.5625 Q827.5313,474.4844 827.5313,473.2031 L827.5313,472.0469 Q827.5313,470.7188 828.1406,469.5781 Q828.7656,468.4219 829.8594,467.8125 Q830.9531,467.1875 832.1875,467.1875 Q832.9219,467.1875 833.5625,467.3594 Q834.2188,467.5156 834.7656,467.875 Z " fill="#000000"/><text fill="#000000" font-family="sans-serif" font-size="14" lengthAdjust="spacing" textLength="153" x="846" y="477.7285">GormGenericRepository</text><rect fill="#FFFFFF" height="17.0938" style="stroke:#000000;stroke-width:1.0;stroke-dasharray:2.0,2.0;" width="59" x="1007" y="453"/><text fill="#000000" font-family="sans-serif" font-size="12" font-style="italic" lengthAdjust="spacing" textLength="57" x="1008" y="466.457">EntityType</text><line style="stroke:#181818;stroke-width:0.5;" x1="818" x2="1062" y1="488" y2="488"/><line style="stroke:#181818;stroke-width:0.5;" x1="818" x2="1062" y1="496" y2="496"/></g><!--MD5=[08ca7a30bf9989fb15c0f21009c8ae57]
class EthernetSwitchPortRepository--><g id="elem_EthernetSwitchPortRepository"><rect codeLine="6" fill="#F1F1F1" height="48" id="EthernetSwitchPortRepository" rx="2.5" ry="2.5" style="stroke:#181818;stroke-width:0.5;" width="220" x="827" y="98"/><ellipse cx="842" cy="114" fill="#ADD1B2" rx="11" ry="11" style="stroke:#181818;stroke-width:1.0;"/><path d="M844.7656,109.875 Q844.9219,109.6563 845.1094,109.5469 Q845.2969,109.4375 845.5156,109.4375 Q845.8906,109.4375 846.125,109.7031 Q846.3594,109.9531 846.3594,110.5625 L846.3594,112.0156 Q846.3594,112.625 846.125,112.8906 Q845.8906,113.1563 845.5156,113.1563 Q845.1719,113.1563 844.9688,112.9531 Q844.7656,112.7656 844.6563,112.25 Q844.6094,111.8906 844.4219,111.7031 Q844.0938,111.3281 843.4844,111.1094 Q842.875,110.8906 842.25,110.8906 Q841.4844,110.8906 840.8438,111.2188 Q840.2188,111.5469 839.7188,112.2969 Q839.2344,113.0469 839.2344,114.0781 L839.2344,115.1719 Q839.2344,116.4063 840.125,117.2344 Q841.0156,118.0469 842.6094,118.0469 Q843.5469,118.0469 844.2031,117.7969 Q844.5938,117.6406 845.0156,117.2031 Q845.2813,116.9375 845.4219,116.8594 Q845.5781,116.7813 845.7813,116.7813 Q846.1094,116.7813 846.3594,117.0469 Q846.625,117.2969 846.625,117.6406 Q846.625,117.9844 846.2813,118.3906 Q845.7813,118.9688 844.9844,119.2969 Q843.9063,119.75 842.6094,119.75 Q841.0938,119.75 839.8906,119.125 Q838.9063,118.625 838.2188,117.5625 Q837.5313,116.4844 837.5313,115.2031 L837.5313,114.0469 Q837.5313,112.7188 838.1406,111.5781 Q838.7656,110.4219 839.8594,109.8125 Q840.9531,109.1875 842.1875,109.1875 Q842.9219,109.1875 843.5625,109.3594 Q844.2188,109.5156 844.7656,109.875 Z " fill="#000000"/><text fill="#000000" font-family="sans-serif" font-size="14" lengthAdjust="spacing" textLength="188" x="856" y="119.7285">EthernetSwitchPortRepository</text><line style="stroke:#181818;stroke-width:0.5;" x1="828" x2="1046" y1="130" y2="130"/><line style="stroke:#181818;stroke-width:0.5;" x1="828" x2="1046" y1="138" y2="138"/></g><g id="elem_EthernetSwitchPortTypeNote"><path d="M812.5,316 L812.5,342.3516 L1025.5,342.3516 L1025.5,326 L1015.5,316 L812.5,316 " fill="#FEFFDD" style="stroke:#181818;stroke-width:0.5;"/><path d="M1015.5,316 L1015.5,326 L1025.5,326 L1015.5,316 " fill="#FEFFDD" style="stroke:#181818;stroke-width:1.0;"/><text fill="#000000" font-family="sans-serif" font-size="13" lengthAdjust="spacing" textLength="192" x="818.5" y="334.4951">EntityType is EthernetSwitchPort</text></g><!--MD5=[a6c7a0eda5b041e127f539f1664bb96a]
link Entity to IEntityModel--><g id="link_Entity_IEntityModel"><path codeLine="14" d="M321.87,396.21 C274.24,433.23 218.16,482.61 178,536 C146.38,578.04 122.54,633.41 107.88,673.25 " fill="none" id="Entity-to-IEntityModel" style="stroke:#181818;stroke-width:1.0;stroke-dasharray:7.0,7.0;"/><polygon fill="none" points="114.43,675.73,101.15,692.25,101.23,671.06,114.43,675.73" style="stroke:#181818;stroke-width:1.0;"/></g><!--MD5=[afd672b6d7a853cadad0fa5e76e30a74]
link EthernetSwitchPort to Entity--><g id="link_EthernetSwitchPort_Entity"><path codeLine="17" d="M508.62,202.26 C496.82,218.28 484.43,235.1 472.69,251.04 " fill="none" id="EthernetSwitchPort-to-Entity" style="stroke:#181818;stroke-width:1.0;"/><polygon fill="#181818" points="464.68,261.91,471.4586,259.4502,471.7952,252.247,465.0166,254.7068,464.68,261.91" style="stroke:#181818;stroke-width:1.0;"/></g><!--MD5=[1b84833638557571905b03f54e842c8c]
link GormGenericRepository to IGenericRepository--><g id="link_GormGenericRepository_IGenericRepository"><path codeLine="7" d="M948.73,504.35 C956.26,524.5 967.8,555.39 979.88,587.72 " fill="none" id="GormGenericRepository-to-IGenericRepository" style="stroke:#181818;stroke-width:1.0;stroke-dasharray:7.0,7.0;"/><polygon fill="none" points="986.59,585.66,987.03,606.84,973.47,590.56,986.59,585.66" style="stroke:#181818;stroke-width:1.0;"/></g><!--MD5=[1762f5c7af981631210025ef4f9c269e]
link EthernetSwitchPortRepository to GormGenericRepository--><g id="link_EthernetSwitchPortRepository_GormGenericRepository"><path codeLine="8" d="M962.54,146.15 C988.52,171.6 1027.17,215.13 1043,262 C1065.47,328.53 1078.21,359.25 1043,420 C1036.23,431.69 1026.17,441.26 1014.95,449.03 " fill="none" id="EthernetSwitchPortRepository-to-GormGenericRepository" style="stroke:#181818;stroke-width:1.0;"/><polygon fill="#181818" points="1003.91,455.94,1011.1181,456.1486,1014.083,449.5753,1006.8749,449.3666,1003.91,455.94" style="stroke:#181818;stroke-width:1.0;"/></g><!--MD5=[fe4788a4e689d7fb18894f4eb70a548f]
link EthernetSwitchPortRepository to EthernetSwitchPortTypeNote--><g id="link_EthernetSwitchPortRepository_EthernetSwitchPortTypeNote"><path codeLine="13" d="M934.97,146.12 C931.15,189.68 922.99,282.52 920.07,315.81 " fill="none" id="EthernetSwitchPortRepository-EthernetSwitchPortTypeNote" style="stroke:#181818;stroke-width:1.0;stroke-dasharray:7.0,7.0;"/></g><!--MD5=[db6d18f36f875cfdbc509bcef396f1a5]
link EthernetSwitchPortTypeNote to GormGenericRepository--><g id="link_EthernetSwitchPortTypeNote_GormGenericRepository"><path codeLine="14" d="M920.72,342.19 C924.04,365.75 931.41,418.05 936.02,450.73 " fill="none" id="EthernetSwitchPortTypeNote-to-GormGenericRepository" style="stroke:#181818;stroke-width:1.0;stroke-dasharray:7.0,7.0;"/><polygon fill="#181818" points="936.73,455.8,939.4323,446.3291,936.0309,450.8491,931.5109,447.4477,936.73,455.8" style="stroke:#181818;stroke-width:1.0;"/></g><!--MD5=[9c0460ae0ce9578d5fd891f7c11771f8]
link EthernetSwitchPort to EthernetSwitchPortTypeNote--><g id="link_EthernetSwitchPort_EthernetSwitchPortTypeNote"><path codeLine="15" d="M665.52,180.38 C746.06,227.28 853.65,289.94 898.26,315.92 " fill="none" id="EthernetSwitchPort-EthernetSwitchPortTypeNote" style="stroke:#181818;stroke-width:1.0;stroke-dasharray:7.0,7.0;"/></g><!--MD5=[3aefd48b0006048287b54ef82167ec9d]
@startuml

!include ../entities/EthernetSwitchPort.puml
!include GormGenericRepository.puml

package infrastructure {
    class EthernetSwitchPortRepository

    EthernetSwitchPortRepository -down-* GormGenericRepository


    note "EntityType is EthernetSwitchPort" as EthernetSwitchPortTypeNote

    EthernetSwitchPortRepository .down. EthernetSwitchPortTypeNote
    GormGenericRepository <.up. EthernetSwitchPortTypeNote
    EthernetSwitchPort .. EthernetSwitchPortTypeNote
}


@enduml

@startuml




package app {
    interface IEntityModel {
        +GetID() uuid.UUID
    }
}


package domain {
    class Entity {
        +ID uuid.UUID `gorm:"primarykey"`
        - -
        +CreatedAt time.Time `gorm:"index"`
        - -
        +UpdatedAt time.Time `gorm:"index"`
        - -
        +DeletedAt gorm.DeletedAt `gorm:"index"`
    }
    Entity .down.|> IEntityModel
}


package domain {
    class EthernetSwitchPort {
        +EthernetSwitchId uuid.UUID
        - -
        +POEType string
        - -
        +Name string
        - -
        +POEEnabled bool
        - -
        +PVID int
    }

    EthernetSwitchPort -down-* Entity

    note left of EthernetSwitchPort::POEType
      POE port type
      can be: "poe", "poe+", "passive24", "none"
    end note

    note left of EthernetSwitchPort::Name
      Unique within 1 switch
    end note
}



package app {
    interface IGenericRepository<EntityType> {
        +GetList(ctx context.Context, orderBy string, orderDirection string, page int, size int, queryBuilder interfaces.IQueryBuilder) ([]EntityType, error)
        - -
        +Count(ctx context.Context, queryBuilder interfaces.IQueryBuilder) (int64, error)
        - -
        +NewQueryBuilder(ctx context.Context) interfaces.IQueryBuilder
        - -
        +GetById(ctx context.Context, id uuid.UUID) (EntityType, error)
        - -
        +Update(ctx context.Context, entity EntityType) (EntityType, error)
        - -
        +Insert(ctx context.Context, entity EntityType) (EntityType, error)
        - -
        +Delete(ctx context.Context, id uuid.UUID) error
        - -
        +CloseDb() error
    }
    note left of IGenericRepository::GetList
      Get list of elements with filtering and pagination
    end note

    note left of IGenericRepository::Count
      Get count of entities with filtering
    end note

    note left of IGenericRepository::NewQueryBuilder
      Get new instance of the query builder
    end note

    note left of IGenericRepository::GetById
      Get entity by ID from repository
    end note

    note left of IGenericRepository::Update
      Save the changes to the existing entity in the repository
    end note

    note left of IGenericRepository::Insert
      Add entity to the repository
    end note

    note left of IGenericRepository::Delete
      Delete entity from the database
    end note

    note left of IGenericRepository::CloseDb
      Closes current database connection
    end note
}


package infrastructure {
    class GormGenericRepository<EntityType>

    GormGenericRepository .down.|> IGenericRepository
}


package infrastructure {
    class EthernetSwitchPortRepository

    EthernetSwitchPortRepository -down-* GormGenericRepository


    note "EntityType is EthernetSwitchPort" as EthernetSwitchPortTypeNote

    EthernetSwitchPortRepository .down. EthernetSwitchPortTypeNote
    GormGenericRepository <.up. EthernetSwitchPortTypeNote
    EthernetSwitchPort .. EthernetSwitchPortTypeNote
}


@enduml

PlantUML version 1.2022.6(Tue Jun 21 20:34:49 MSK 2022)
(GPL source distribution)
Java Runtime: OpenJDK Runtime Environment
JVM: OpenJDK 64-Bit Server VM
Default Encoding: Cp1251
Language: ru
Country: RU
--></g></svg>