<?xml version="1.0" encoding="UTF-8" standalone="no"?><svg xmlns="http://www.w3.org/2000/svg" xmlns:xlink="http://www.w3.org/1999/xlink" contentStyleType="text/css" height="920px" preserveAspectRatio="none" style="width:1512px;height:920px;background:#FFFFFF;" version="1.1" viewBox="0 0 1512 920" width="1512px" zoomAndPan="magnify"><defs/><g><!--MD5=[d5ac3844f66b12d9e08170e47495e096]
cluster app--><g id="cluster_app"><path d="M8.5,570 L35.5,570 A3.75,3.75 0 0 1 38,572.5 L45,593.6094 L1502.5,593.6094 A2.5,2.5 0 0 1 1505,596.1094 L1505,910.5 A2.5,2.5 0 0 1 1502.5,913 L8.5,913 A2.5,2.5 0 0 1 6,910.5 L6,572.5 A2.5,2.5 0 0 1 8.5,570 " style="stroke:#000000;stroke-width:1.5;fill:none;"/><line style="stroke:#000000;stroke-width:1.5;fill:none;" x1="6" x2="45" y1="593.6094" y2="593.6094"/><text fill="#000000" font-family="sans-serif" font-size="14" font-weight="bold" lengthAdjust="spacing" textLength="26" x="10" y="586.5332">app</text></g><!--MD5=[27f772719433d509ddbc20ff768eba08]
cluster domain--><g id="cluster_domain"><path d="M236.5,6 L288.5,6 A3.75,3.75 0 0 1 291,8.5 L298,29.6094 L600.5,29.6094 A2.5,2.5 0 0 1 603,32.1094 L603,435.5 A2.5,2.5 0 0 1 600.5,438 L236.5,438 A2.5,2.5 0 0 1 234,435.5 L234,8.5 A2.5,2.5 0 0 1 236.5,6 " style="stroke:#000000;stroke-width:1.5;fill:none;"/><line style="stroke:#000000;stroke-width:1.5;fill:none;" x1="234" x2="298" y1="29.6094" y2="29.6094"/><text fill="#000000" font-family="sans-serif" font-size="14" font-weight="bold" lengthAdjust="spacing" textLength="51" x="238" y="22.5332">domain</text></g><!--MD5=[77349be1bd27b81b697a0f9b3aded3c8]
cluster infrastructure--><g id="cluster_infrastructure"><path d="M761.5,75 L859.5,75 A3.75,3.75 0 0 1 862,77.5 L869,98.6094 L1034.5,98.6094 A2.5,2.5 0 0 1 1037,101.1094 L1037,543.5 A2.5,2.5 0 0 1 1034.5,546 L761.5,546 A2.5,2.5 0 0 1 759,543.5 L759,77.5 A2.5,2.5 0 0 1 761.5,75 " style="stroke:#000000;stroke-width:1.5;fill:none;"/><line style="stroke:#000000;stroke-width:1.5;fill:none;" x1="759" x2="869" y1="98.6094" y2="98.6094"/><text fill="#000000" font-family="sans-serif" font-size="14" font-weight="bold" lengthAdjust="spacing" textLength="97" x="763" y="91.5332">infrastructure</text></g><!--MD5=[2a39a5be1cc24ddddd6e6286e4ece992]
class IEntityModel--><g id="elem_IEntityModel"><rect codeLine="3" fill="#F1F1F1" height="65.6094" id="IEntityModel" rx="2.5" ry="2.5" style="stroke:#181818;stroke-width:0.5;" width="138" x="22" y="718.5"/><ellipse cx="49.6" cy="734.5" fill="#B4A7E5" rx="11" ry="11" style="stroke:#181818;stroke-width:1.0;"/><path d="M50.5531,731.1406 L50.5531,737.7969 L52.2719,737.7969 Q52.8813,737.7969 53.1469,738.0313 Q53.4125,738.2656 53.4125,738.6563 Q53.4125,739.0313 53.1469,739.2656 Q52.8813,739.5 52.2719,739.5 L47.1313,739.5 Q46.5219,739.5 46.2563,739.2656 Q45.9906,739.0313 45.9906,738.6406 Q45.9906,738.2656 46.2563,738.0313 Q46.5219,737.7969 47.1313,737.7969 L48.85,737.7969 L48.85,731.1406 L47.1313,731.1406 Q46.5219,731.1406 46.2563,730.9063 Q45.9906,730.6719 45.9906,730.2813 Q45.9906,729.9063 46.2563,729.6719 Q46.5219,729.4375 47.1313,729.4375 L52.2719,729.4375 Q52.8813,729.4375 53.1469,729.6719 Q53.4125,729.9063 53.4125,730.2813 Q53.4125,730.6719 53.1469,730.9063 Q52.8813,731.1406 52.2719,731.1406 L50.5531,731.1406 Z " fill="#000000"/><text fill="#000000" font-family="sans-serif" font-size="14" font-style="italic" lengthAdjust="spacing" textLength="78" x="66.4" y="740.2285">IEntityModel</text><line style="stroke:#181818;stroke-width:0.5;" x1="23" x2="159" y1="750.5" y2="750.5"/><line style="stroke:#181818;stroke-width:0.5;" x1="23" x2="159" y1="758.5" y2="758.5"/><ellipse cx="33" cy="769.5" fill="#84BE84" rx="3" ry="3" style="stroke:#038048;stroke-width:1.0;"/><text fill="#000000" font-family="sans-serif" font-size="14" lengthAdjust="spacing" textLength="112" x="42" y="777.0332">GetID() uuid.UUID</text></g><!--MD5=[b3e0f8dcddb1b27f071a0303a68762bf]
class IGenericRepository--><g id="elem_IGenericRepository"><rect codeLine="3" fill="#F1F1F1" height="236.875" id="IGenericRepository" rx="2.5" ry="2.5" style="stroke:#181818;stroke-width:0.5;" width="915" x="573.5" y="633"/><ellipse cx="935.25" cy="649" fill="#B4A7E5" rx="11" ry="11" style="stroke:#181818;stroke-width:1.0;"/><path d="M936.2031,645.6406 L936.2031,652.2969 L937.9219,652.2969 Q938.5313,652.2969 938.7969,652.5313 Q939.0625,652.7656 939.0625,653.1563 Q939.0625,653.5313 938.7969,653.7656 Q938.5313,654 937.9219,654 L932.7813,654 Q932.1719,654 931.9063,653.7656 Q931.6406,653.5313 931.6406,653.1406 Q931.6406,652.7656 931.9063,652.5313 Q932.1719,652.2969 932.7813,652.2969 L934.5,652.2969 L934.5,645.6406 L932.7813,645.6406 Q932.1719,645.6406 931.9063,645.4063 Q931.6406,645.1719 931.6406,644.7813 Q931.6406,644.4063 931.9063,644.1719 Q932.1719,643.9375 932.7813,643.9375 L937.9219,643.9375 Q938.5313,643.9375 938.7969,644.1719 Q939.0625,644.4063 939.0625,644.7813 Q939.0625,645.1719 938.7969,645.4063 Q938.5313,645.6406 937.9219,645.6406 L936.2031,645.6406 Z " fill="#000000"/><text fill="#000000" font-family="sans-serif" font-size="14" font-style="italic" lengthAdjust="spacing" textLength="122" x="955.75" y="654.7285">IGenericRepository</text><rect fill="#FFFFFF" height="17.0938" style="stroke:#000000;stroke-width:1.0;stroke-dasharray:2.0,2.0;" width="59" x="1432.5" y="630"/><text fill="#000000" font-family="sans-serif" font-size="12" font-style="italic" lengthAdjust="spacing" textLength="57" x="1433.5" y="643.457">EntityType</text><line style="stroke:#181818;stroke-width:0.5;" x1="574.5" x2="1487.5" y1="665" y2="665"/><ellipse cx="584.5" cy="676" fill="#84BE84" rx="3" ry="3" style="stroke:#038048;stroke-width:1.0;"/><text fill="#000000" font-family="sans-serif" font-size="14" lengthAdjust="spacing" textLength="889" x="593.5" y="683.5332">GetList(ctx context.Context, orderBy string, orderDirection string, page int, size int, queryBuilder interfaces.IQueryBuilder) ([]EntityType, error)</text><line style="stroke:#181818;stroke-width:1.0;" x1="574.5" x2="1487.5" y1="690.6094" y2="690.6094"/><ellipse cx="584.5" cy="701.6094" fill="#84BE84" rx="3" ry="3" style="stroke:#038048;stroke-width:1.0;"/><text fill="#000000" font-family="sans-serif" font-size="14" lengthAdjust="spacing" textLength="494" x="593.5" y="709.1426">Count(ctx context.Context, queryBuilder interfaces.IQueryBuilder) (int64, error)</text><line style="stroke:#181818;stroke-width:1.0;" x1="574.5" x2="1487.5" y1="716.2188" y2="716.2188"/><ellipse cx="584.5" cy="727.2188" fill="#84BE84" rx="3" ry="3" style="stroke:#038048;stroke-width:1.0;"/><text fill="#000000" font-family="sans-serif" font-size="14" lengthAdjust="spacing" textLength="393" x="593.5" y="734.752">NewQueryBuilder(ctx context.Context) interfaces.IQueryBuilder</text><line style="stroke:#181818;stroke-width:1.0;" x1="574.5" x2="1487.5" y1="741.8281" y2="741.8281"/><ellipse cx="584.5" cy="752.8281" fill="#84BE84" rx="3" ry="3" style="stroke:#038048;stroke-width:1.0;"/><text fill="#000000" font-family="sans-serif" font-size="14" lengthAdjust="spacing" textLength="383" x="593.5" y="760.3613">GetById(ctx context.Context, id uuid.UUID) (EntityType, error)</text><line style="stroke:#181818;stroke-width:1.0;" x1="574.5" x2="1487.5" y1="767.4375" y2="767.4375"/><ellipse cx="584.5" cy="778.4375" fill="#84BE84" rx="3" ry="3" style="stroke:#038048;stroke-width:1.0;"/><text fill="#000000" font-family="sans-serif" font-size="14" lengthAdjust="spacing" textLength="406" x="593.5" y="785.9707">Update(ctx context.Context, entity EntityType) (EntityType, error)</text><line style="stroke:#181818;stroke-width:1.0;" x1="574.5" x2="1487.5" y1="793.0469" y2="793.0469"/><ellipse cx="584.5" cy="804.0469" fill="#84BE84" rx="3" ry="3" style="stroke:#038048;stroke-width:1.0;"/><text fill="#000000" font-family="sans-serif" font-size="14" lengthAdjust="spacing" textLength="396" x="593.5" y="811.5801">Insert(ctx context.Context, entity EntityType) (EntityType, error)</text><line style="stroke:#181818;stroke-width:1.0;" x1="574.5" x2="1487.5" y1="818.6563" y2="818.6563"/><ellipse cx="584.5" cy="829.6563" fill="#84BE84" rx="3" ry="3" style="stroke:#038048;stroke-width:1.0;"/><text fill="#000000" font-family="sans-serif" font-size="14" lengthAdjust="spacing" textLength="289" x="593.5" y="837.1895">Delete(ctx context.Context, id uuid.UUID) error</text><line style="stroke:#181818;stroke-width:1.0;" x1="574.5" x2="1487.5" y1="844.2656" y2="844.2656"/><ellipse cx="584.5" cy="855.2656" fill="#84BE84" rx="3" ry="3" style="stroke:#038048;stroke-width:1.0;"/><text fill="#000000" font-family="sans-serif" font-size="14" lengthAdjust="spacing" textLength="99" x="593.5" y="862.7988">CloseDb() error</text></g><path d="M195.5,606 L195.5,632.3516 A0,0 0 0 0 195.5,632.3516 L489.5,632.3516 A0,0 0 0 0 489.5,632.3516 L489.5,624 L577.5,677.8047 L489.5,616 L489.5,616 L479.5,606 L195.5,606 A0,0 0 0 0 195.5,606 " fill="#FEFFDD" style="stroke:#181818;stroke-width:0.5;"/><path d="M479.5,606 L479.5,616 L489.5,616 L479.5,606 " fill="#FEFFDD" style="stroke:#181818;stroke-width:0.5;"/><text fill="#000000" font-family="sans-serif" font-size="13" lengthAdjust="spacing" textLength="273" x="201.5" y="624.4951">Get list of elements with filtering and pagination</text><path d="M195.5,642.3516 L195.5,668.7031 A0,0 0 0 0 195.5,668.7031 L405.5,668.7031 A0,0 0 0 0 405.5,668.7031 L405.5,660.3516 L577.5,703.4141 L405.5,652.3516 L405.5,652.3516 L395.5,642.3516 L195.5,642.3516 A0,0 0 0 0 195.5,642.3516 " fill="#FEFFDD" style="stroke:#181818;stroke-width:0.5;"/><path d="M395.5,642.3516 L395.5,652.3516 L405.5,652.3516 L395.5,642.3516 " fill="#FEFFDD" style="stroke:#181818;stroke-width:0.5;"/><text fill="#000000" font-family="sans-serif" font-size="13" lengthAdjust="spacing" textLength="189" x="201.5" y="660.8467">Get count of entities with filtering</text><path d="M195.5,678.7031 L195.5,705.0547 A0,0 0 0 0 195.5,705.0547 L431.5,705.0547 A0,0 0 0 0 431.5,705.0547 L431.5,696.7031 L577.5,729.0234 L431.5,688.7031 L431.5,688.7031 L421.5,678.7031 L195.5,678.7031 A0,0 0 0 0 195.5,678.7031 " fill="#FEFFDD" style="stroke:#181818;stroke-width:0.5;"/><path d="M421.5,678.7031 L421.5,688.7031 L431.5,688.7031 L421.5,678.7031 " fill="#FEFFDD" style="stroke:#181818;stroke-width:0.5;"/><text fill="#000000" font-family="sans-serif" font-size="13" lengthAdjust="spacing" textLength="215" x="201.5" y="697.1982">Get new instance of the query builder</text><path d="M195.5,715.0547 L195.5,741.4063 A0,0 0 0 0 195.5,741.4063 L397.5,741.4063 A0,0 0 0 0 397.5,741.4063 L397.5,733.0547 L577.5,754.6328 L397.5,725.0547 L397.5,725.0547 L387.5,715.0547 L195.5,715.0547 A0,0 0 0 0 195.5,715.0547 " fill="#FEFFDD" style="stroke:#181818;stroke-width:0.5;"/><path d="M387.5,715.0547 L387.5,725.0547 L397.5,725.0547 L387.5,715.0547 " fill="#FEFFDD" style="stroke:#181818;stroke-width:0.5;"/><text fill="#000000" font-family="sans-serif" font-size="13" lengthAdjust="spacing" textLength="181" x="201.5" y="733.5498">Get entity by ID from repository</text><path d="M195.5,751.4063 L195.5,777.7578 A0,0 0 0 0 195.5,777.7578 L538.5,777.7578 A0,0 0 0 0 538.5,777.7578 L538.5,769.4063 L577.5,780.2422 L538.5,761.4063 L538.5,761.4063 L528.5,751.4063 L195.5,751.4063 A0,0 0 0 0 195.5,751.4063 " fill="#FEFFDD" style="stroke:#181818;stroke-width:0.5;"/><path d="M528.5,751.4063 L528.5,761.4063 L538.5,761.4063 L528.5,751.4063 " fill="#FEFFDD" style="stroke:#181818;stroke-width:0.5;"/><text fill="#000000" font-family="sans-serif" font-size="13" lengthAdjust="spacing" textLength="322" x="201.5" y="769.9014">Save the changes to the existing entity in the repository</text><path d="M195.5,787.7578 L195.5,814.1094 A0,0 0 0 0 195.5,814.1094 L373.5,814.1094 A0,0 0 0 0 373.5,814.1094 L373.5,805.7578 L577.5,805.8516 L373.5,797.7578 L373.5,797.7578 L363.5,787.7578 L195.5,787.7578 A0,0 0 0 0 195.5,787.7578 " fill="#FEFFDD" style="stroke:#181818;stroke-width:0.5;"/><path d="M363.5,787.7578 L363.5,797.7578 L373.5,797.7578 L363.5,787.7578 " fill="#FEFFDD" style="stroke:#181818;stroke-width:0.5;"/><text fill="#000000" font-family="sans-serif" font-size="13" lengthAdjust="spacing" textLength="157" x="201.5" y="806.2529">Add entity to the repository</text><path d="M195.5,824.1094 L195.5,850.4609 A0,0 0 0 0 195.5,850.4609 L397.5,850.4609 A0,0 0 0 0 397.5,850.4609 L397.5,842.1094 L577.5,831.4609 L397.5,834.1094 L397.5,834.1094 L387.5,824.1094 L195.5,824.1094 A0,0 0 0 0 195.5,824.1094 " fill="#FEFFDD" style="stroke:#181818;stroke-width:0.5;"/><path d="M387.5,824.1094 L387.5,834.1094 L397.5,834.1094 L387.5,824.1094 " fill="#FEFFDD" style="stroke:#181818;stroke-width:0.5;"/><text fill="#000000" font-family="sans-serif" font-size="13" lengthAdjust="spacing" textLength="181" x="201.5" y="842.6045">Delete entity from the database</text><path d="M195.5,860.4609 L195.5,886.8125 A0,0 0 0 0 195.5,886.8125 L424.5,886.8125 A0,0 0 0 0 424.5,886.8125 L424.5,878.4609 L577.5,857.0703 L424.5,870.4609 L424.5,870.4609 L414.5,860.4609 L195.5,860.4609 A0,0 0 0 0 195.5,860.4609 " fill="#FEFFDD" style="stroke:#181818;stroke-width:0.5;"/><path d="M414.5,860.4609 L414.5,870.4609 L424.5,870.4609 L414.5,860.4609 " fill="#FEFFDD" style="stroke:#181818;stroke-width:0.5;"/><text fill="#000000" font-family="sans-serif" font-size="13" lengthAdjust="spacing" textLength="208" x="201.5" y="878.9561">Closes current database connection</text><!--MD5=[be996cdb8e6bf2fc7cb89c555f2cd144]
class Entity--><g id="elem_Entity"><rect codeLine="5" fill="#F1F1F1" height="134.4375" id="Entity" rx="2.5" ry="2.5" style="stroke:#181818;stroke-width:0.5;" width="283" x="276.5" y="288"/><ellipse cx="396.25" cy="304" fill="#ADD1B2" rx="11" ry="11" style="stroke:#181818;stroke-width:1.0;"/><path d="M399.0156,299.875 Q399.1719,299.6563 399.3594,299.5469 Q399.5469,299.4375 399.7656,299.4375 Q400.1406,299.4375 400.375,299.7031 Q400.6094,299.9531 400.6094,300.5625 L400.6094,302.0156 Q400.6094,302.625 400.375,302.8906 Q400.1406,303.1563 399.7656,303.1563 Q399.4219,303.1563 399.2188,302.9531 Q399.0156,302.7656 398.9063,302.25 Q398.8594,301.8906 398.6719,301.7031 Q398.3438,301.3281 397.7344,301.1094 Q397.125,300.8906 396.5,300.8906 Q395.7344,300.8906 395.0938,301.2188 Q394.4688,301.5469 393.9688,302.2969 Q393.4844,303.0469 393.4844,304.0781 L393.4844,305.1719 Q393.4844,306.4063 394.375,307.2344 Q395.2656,308.0469 396.8594,308.0469 Q397.7969,308.0469 398.4531,307.7969 Q398.8438,307.6406 399.2656,307.2031 Q399.5313,306.9375 399.6719,306.8594 Q399.8281,306.7813 400.0313,306.7813 Q400.3594,306.7813 400.6094,307.0469 Q400.875,307.2969 400.875,307.6406 Q400.875,307.9844 400.5313,308.3906 Q400.0313,308.9688 399.2344,309.2969 Q398.1563,309.75 396.8594,309.75 Q395.3438,309.75 394.1406,309.125 Q393.1563,308.625 392.4688,307.5625 Q391.7813,306.4844 391.7813,305.2031 L391.7813,304.0469 Q391.7813,302.7188 392.3906,301.5781 Q393.0156,300.4219 394.1094,299.8125 Q395.2031,299.1875 396.4375,299.1875 Q397.1719,299.1875 397.8125,299.3594 Q398.4688,299.5156 399.0156,299.875 Z " fill="#000000"/><text fill="#000000" font-family="sans-serif" font-size="14" lengthAdjust="spacing" textLength="35" x="416.75" y="309.7285">Entity</text><line style="stroke:#181818;stroke-width:0.5;" x1="277.5" x2="558.5" y1="320" y2="320"/><ellipse cx="287.5" cy="331" fill="none" rx="3" ry="3" style="stroke:#038048;stroke-width:1.0;"/><text fill="#000000" font-family="sans-serif" font-size="14" lengthAdjust="spacing" textLength="208" x="296.5" y="338.5332">ID uuid.UUID `gorm:"primarykey"`</text><line style="stroke:#181818;stroke-width:1.0;" x1="277.5" x2="558.5" y1="345.6094" y2="345.6094"/><ellipse cx="287.5" cy="356.6094" fill="none" rx="3" ry="3" style="stroke:#038048;stroke-width:1.0;"/><text fill="#000000" font-family="sans-serif" font-size="14" lengthAdjust="spacing" textLength="222" x="296.5" y="364.1426">CreatedAt time.Time `gorm:"index"`</text><line style="stroke:#181818;stroke-width:1.0;" x1="277.5" x2="558.5" y1="371.2188" y2="371.2188"/><ellipse cx="287.5" cy="382.2188" fill="none" rx="3" ry="3" style="stroke:#038048;stroke-width:1.0;"/><text fill="#000000" font-family="sans-serif" font-size="14" lengthAdjust="spacing" textLength="224" x="296.5" y="389.752">UpdatedAt time.Time `gorm:"index"`</text><line style="stroke:#181818;stroke-width:1.0;" x1="277.5" x2="558.5" y1="396.8281" y2="396.8281"/><ellipse cx="287.5" cy="407.8281" fill="none" rx="3" ry="3" style="stroke:#038048;stroke-width:1.0;"/><text fill="#000000" font-family="sans-serif" font-size="14" lengthAdjust="spacing" textLength="257" x="296.5" y="415.3613">DeletedAt gorm.DeletedAt `gorm:"index"`</text></g><!--MD5=[0e6027363d26940633b9df7c844e683a]
class EthernetSwitch--><g id="elem_EthernetSwitch"><rect codeLine="5" fill="#F1F1F1" height="185.6563" id="EthernetSwitch" rx="2.5" ry="2.5" style="stroke:#181818;stroke-width:0.5;" width="143" x="443.5" y="42"/><ellipse cx="466.15" cy="58" fill="#ADD1B2" rx="11" ry="11" style="stroke:#181818;stroke-width:1.0;"/><path d="M468.9156,53.875 Q469.0719,53.6563 469.2594,53.5469 Q469.4469,53.4375 469.6656,53.4375 Q470.0406,53.4375 470.275,53.7031 Q470.5094,53.9531 470.5094,54.5625 L470.5094,56.0156 Q470.5094,56.625 470.275,56.8906 Q470.0406,57.1563 469.6656,57.1563 Q469.3219,57.1563 469.1188,56.9531 Q468.9156,56.7656 468.8063,56.25 Q468.7594,55.8906 468.5719,55.7031 Q468.2438,55.3281 467.6344,55.1094 Q467.025,54.8906 466.4,54.8906 Q465.6344,54.8906 464.9938,55.2188 Q464.3688,55.5469 463.8688,56.2969 Q463.3844,57.0469 463.3844,58.0781 L463.3844,59.1719 Q463.3844,60.4063 464.275,61.2344 Q465.1656,62.0469 466.7594,62.0469 Q467.6969,62.0469 468.3531,61.7969 Q468.7438,61.6406 469.1656,61.2031 Q469.4313,60.9375 469.5719,60.8594 Q469.7281,60.7813 469.9313,60.7813 Q470.2594,60.7813 470.5094,61.0469 Q470.775,61.2969 470.775,61.6406 Q470.775,61.9844 470.4313,62.3906 Q469.9313,62.9688 469.1344,63.2969 Q468.0563,63.75 466.7594,63.75 Q465.2438,63.75 464.0406,63.125 Q463.0563,62.625 462.3688,61.5625 Q461.6813,60.4844 461.6813,59.2031 L461.6813,58.0469 Q461.6813,56.7188 462.2906,55.5781 Q462.9156,54.4219 464.0094,53.8125 Q465.1031,53.1875 466.3375,53.1875 Q467.0719,53.1875 467.7125,53.3594 Q468.3688,53.5156 468.9156,53.875 Z " fill="#000000"/><text fill="#000000" font-family="sans-serif" font-size="14" lengthAdjust="spacing" textLength="94" x="481.85" y="63.7285">EthernetSwitch</text><line style="stroke:#181818;stroke-width:0.5;" x1="444.5" x2="585.5" y1="74" y2="74"/><ellipse cx="454.5" cy="85" fill="none" rx="3" ry="3" style="stroke:#038048;stroke-width:1.0;"/><text fill="#000000" font-family="sans-serif" font-size="14" lengthAdjust="spacing" textLength="75" x="463.5" y="92.5332">Name string</text><line style="stroke:#181818;stroke-width:1.0;" x1="444.5" x2="585.5" y1="99.6094" y2="99.6094"/><ellipse cx="454.5" cy="110.6094" fill="none" rx="3" ry="3" style="stroke:#038048;stroke-width:1.0;"/><text fill="#000000" font-family="sans-serif" font-size="14" lengthAdjust="spacing" textLength="75" x="463.5" y="118.1426">Serial string</text><line style="stroke:#181818;stroke-width:1.0;" x1="444.5" x2="585.5" y1="125.2188" y2="125.2188"/><ellipse cx="454.5" cy="136.2188" fill="none" rx="3" ry="3" style="stroke:#038048;stroke-width:1.0;"/><text fill="#000000" font-family="sans-serif" font-size="14" lengthAdjust="spacing" textLength="117" x="463.5" y="143.752">SwitchModel string</text><line style="stroke:#181818;stroke-width:1.0;" x1="444.5" x2="585.5" y1="150.8281" y2="150.8281"/><ellipse cx="454.5" cy="161.8281" fill="none" rx="3" ry="3" style="stroke:#038048;stroke-width:1.0;"/><text fill="#000000" font-family="sans-serif" font-size="14" lengthAdjust="spacing" textLength="91" x="463.5" y="169.3613">Address string</text><line style="stroke:#181818;stroke-width:1.0;" x1="444.5" x2="585.5" y1="176.4375" y2="176.4375"/><ellipse cx="454.5" cy="187.4375" fill="none" rx="3" ry="3" style="stroke:#038048;stroke-width:1.0;"/><text fill="#000000" font-family="sans-serif" font-size="14" lengthAdjust="spacing" textLength="103" x="463.5" y="194.9707">Username string</text><line style="stroke:#181818;stroke-width:1.0;" x1="444.5" x2="585.5" y1="202.0469" y2="202.0469"/><ellipse cx="454.5" cy="213.0469" fill="none" rx="3" ry="3" style="stroke:#038048;stroke-width:1.0;"/><text fill="#000000" font-family="sans-serif" font-size="14" lengthAdjust="spacing" textLength="100" x="463.5" y="220.5801">Password string</text></g><path d="M250,90.5 L250,116.8516 A0,0 0 0 0 250,116.8516 L311,116.8516 A0,0 0 0 0 311,116.8516 L311,108.5 L447.5,112.4141 L311,100.5 L311,100.5 L301,90.5 L250,90.5 A0,0 0 0 0 250,90.5 " fill="#FEFFDD" style="stroke:#181818;stroke-width:0.5;"/><path d="M301,90.5 L301,100.5 L311,100.5 L301,90.5 " fill="#FEFFDD" style="stroke:#181818;stroke-width:0.5;"/><text fill="#000000" font-family="sans-serif" font-size="13" lengthAdjust="spacing" textLength="40" x="256" y="108.9951">Unique</text><path d="M250,126.8516 L250,169.5547 A0,0 0 0 0 250,169.5547 L408,169.5547 A0,0 0 0 0 408,169.5547 L408,152.2031 L447.5,163.6328 L408,144.2031 L408,136.8516 L398,126.8516 L250,126.8516 A0,0 0 0 0 250,126.8516 " fill="#FEFFDD" style="stroke:#181818;stroke-width:0.5;"/><path d="M398,126.8516 L398,136.8516 L408,136.8516 L398,126.8516 " fill="#FEFFDD" style="stroke:#181818;stroke-width:0.5;"/><text fill="#000000" font-family="sans-serif" font-size="13" lengthAdjust="spacing" textLength="40" x="256" y="145.3467">Unique</text><text fill="#000000" font-family="sans-serif" font-size="13" lengthAdjust="spacing" textLength="137" x="256" y="161.6982">Ip address of the switch</text><!--MD5=[27abfb56f32eefa7f07c83348fb1ee32]
class GormGenericRepository--><g id="elem_GormGenericRepository"><rect codeLine="5" fill="#F1F1F1" height="48" id="GormGenericRepository" rx="2.5" ry="2.5" style="stroke:#181818;stroke-width:0.5;" width="246" x="775" y="482"/><ellipse cx="790" cy="498" fill="#ADD1B2" rx="11" ry="11" style="stroke:#181818;stroke-width:1.0;"/><path d="M792.7656,493.875 Q792.9219,493.6563 793.1094,493.5469 Q793.2969,493.4375 793.5156,493.4375 Q793.8906,493.4375 794.125,493.7031 Q794.3594,493.9531 794.3594,494.5625 L794.3594,496.0156 Q794.3594,496.625 794.125,496.8906 Q793.8906,497.1563 793.5156,497.1563 Q793.1719,497.1563 792.9688,496.9531 Q792.7656,496.7656 792.6563,496.25 Q792.6094,495.8906 792.4219,495.7031 Q792.0938,495.3281 791.4844,495.1094 Q790.875,494.8906 790.25,494.8906 Q789.4844,494.8906 788.8438,495.2188 Q788.2188,495.5469 787.7188,496.2969 Q787.2344,497.0469 787.2344,498.0781 L787.2344,499.1719 Q787.2344,500.4063 788.125,501.2344 Q789.0156,502.0469 790.6094,502.0469 Q791.5469,502.0469 792.2031,501.7969 Q792.5938,501.6406 793.0156,501.2031 Q793.2813,500.9375 793.4219,500.8594 Q793.5781,500.7813 793.7813,500.7813 Q794.1094,500.7813 794.3594,501.0469 Q794.625,501.2969 794.625,501.6406 Q794.625,501.9844 794.2813,502.3906 Q793.7813,502.9688 792.9844,503.2969 Q791.9063,503.75 790.6094,503.75 Q789.0938,503.75 787.8906,503.125 Q786.9063,502.625 786.2188,501.5625 Q785.5313,500.4844 785.5313,499.2031 L785.5313,498.0469 Q785.5313,496.7188 786.1406,495.5781 Q786.7656,494.4219 787.8594,493.8125 Q788.9531,493.1875 790.1875,493.1875 Q790.9219,493.1875 791.5625,493.3594 Q792.2188,493.5156 792.7656,493.875 Z " fill="#000000"/><text fill="#000000" font-family="sans-serif" font-size="14" lengthAdjust="spacing" textLength="153" x="804" y="503.7285">GormGenericRepository</text><rect fill="#FFFFFF" height="17.0938" style="stroke:#000000;stroke-width:1.0;stroke-dasharray:2.0,2.0;" width="59" x="965" y="479"/><text fill="#000000" font-family="sans-serif" font-size="12" font-style="italic" lengthAdjust="spacing" textLength="57" x="966" y="492.457">EntityType</text><line style="stroke:#181818;stroke-width:0.5;" x1="776" x2="1020" y1="514" y2="514"/><line style="stroke:#181818;stroke-width:0.5;" x1="776" x2="1020" y1="522" y2="522"/></g><!--MD5=[44d95913ec2b3ba897526465ba0cec4b]
class EthernetSwitchRepository--><g id="elem_EthernetSwitchRepository"><rect codeLine="6" fill="#F1F1F1" height="48" id="EthernetSwitchRepository" rx="2.5" ry="2.5" style="stroke:#181818;stroke-width:0.5;" width="194" x="801" y="111"/><ellipse cx="816" cy="127" fill="#ADD1B2" rx="11" ry="11" style="stroke:#181818;stroke-width:1.0;"/><path d="M818.7656,122.875 Q818.9219,122.6563 819.1094,122.5469 Q819.2969,122.4375 819.5156,122.4375 Q819.8906,122.4375 820.125,122.7031 Q820.3594,122.9531 820.3594,123.5625 L820.3594,125.0156 Q820.3594,125.625 820.125,125.8906 Q819.8906,126.1563 819.5156,126.1563 Q819.1719,126.1563 818.9688,125.9531 Q818.7656,125.7656 818.6563,125.25 Q818.6094,124.8906 818.4219,124.7031 Q818.0938,124.3281 817.4844,124.1094 Q816.875,123.8906 816.25,123.8906 Q815.4844,123.8906 814.8438,124.2188 Q814.2188,124.5469 813.7188,125.2969 Q813.2344,126.0469 813.2344,127.0781 L813.2344,128.1719 Q813.2344,129.4063 814.125,130.2344 Q815.0156,131.0469 816.6094,131.0469 Q817.5469,131.0469 818.2031,130.7969 Q818.5938,130.6406 819.0156,130.2031 Q819.2813,129.9375 819.4219,129.8594 Q819.5781,129.7813 819.7813,129.7813 Q820.1094,129.7813 820.3594,130.0469 Q820.625,130.2969 820.625,130.6406 Q820.625,130.9844 820.2813,131.3906 Q819.7813,131.9688 818.9844,132.2969 Q817.9063,132.75 816.6094,132.75 Q815.0938,132.75 813.8906,132.125 Q812.9063,131.625 812.2188,130.5625 Q811.5313,129.4844 811.5313,128.2031 L811.5313,127.0469 Q811.5313,125.7188 812.1406,124.5781 Q812.7656,123.4219 813.8594,122.8125 Q814.9531,122.1875 816.1875,122.1875 Q816.9219,122.1875 817.5625,122.3594 Q818.2188,122.5156 818.7656,122.875 Z " fill="#000000"/><text fill="#000000" font-family="sans-serif" font-size="14" lengthAdjust="spacing" textLength="162" x="830" y="132.7285">EthernetSwitchRepository</text><line style="stroke:#181818;stroke-width:0.5;" x1="802" x2="994" y1="143" y2="143"/><line style="stroke:#181818;stroke-width:0.5;" x1="802" x2="994" y1="151" y2="151"/></g><g id="elem_EthernetSwitchTypeNote"><path d="M775.5,342 L775.5,368.3516 L964.5,368.3516 L964.5,352 L954.5,342 L775.5,342 " fill="#FEFFDD" style="stroke:#181818;stroke-width:0.5;"/><path d="M954.5,342 L954.5,352 L964.5,352 L954.5,342 " fill="#FEFFDD" style="stroke:#181818;stroke-width:1.0;"/><text fill="#000000" font-family="sans-serif" font-size="13" lengthAdjust="spacing" textLength="168" x="781.5" y="360.4951">EntityType is EthernetSwitch</text></g><!--MD5=[a6c7a0eda5b041e127f539f1664bb96a]
link Entity to IEntityModel--><g id="link_Entity_IEntityModel"><path codeLine="14" d="M323.05,422.07 C275.01,459.05 218.46,508.44 178,562 C146.29,603.98 122.46,659.36 107.83,699.22 " fill="none" id="Entity-to-IEntityModel" style="stroke:#181818;stroke-width:1.0;stroke-dasharray:7.0,7.0;"/><polygon fill="none" points="114.38,701.7,101.12,718.22,101.18,697.03,114.38,701.7" style="stroke:#181818;stroke-width:1.0;"/></g><!--MD5=[28ddc57433616ceaae86c7f76015305a]
link EthernetSwitch to Entity--><g id="link_EthernetSwitch_Entity"><path codeLine="27" d="M474,228.14 C466.95,244 459.67,260.35 452.79,275.8 " fill="none" id="EthernetSwitch-to-Entity" style="stroke:#181818;stroke-width:1.0;"/><polygon fill="#181818" points="447.38,287.97,453.4747,284.1158,452.261,277.0075,446.1663,280.8618,447.38,287.97" style="stroke:#181818;stroke-width:1.0;"/></g><!--MD5=[1b84833638557571905b03f54e842c8c]
link GormGenericRepository to IGenericRepository--><g id="link_GormGenericRepository_IGenericRepository"><path codeLine="7" d="M910.75,530.35 C921.91,550.78 939.11,582.26 957.03,615.08 " fill="none" id="GormGenericRepository-to-IGenericRepository" style="stroke:#181818;stroke-width:1.0;stroke-dasharray:7.0,7.0;"/><polygon fill="none" points="963.29,611.94,966.74,632.84,951.01,618.65,963.29,611.94" style="stroke:#181818;stroke-width:1.0;"/></g><!--MD5=[bbe412936ca4b95a00b9eb94a916dd4a]
link EthernetSwitchRepository to GormGenericRepository--><g id="link_EthernetSwitchRepository_GormGenericRepository"><path codeLine="8" d="M915.74,159.13 C936.36,187.63 969.2,238.37 982,288 C999.54,356 1014.38,383.69 982,446 C976.33,456.92 967.61,466.24 957.89,474.02 " fill="none" id="EthernetSwitchRepository-to-GormGenericRepository" style="stroke:#181818;stroke-width:1.0;"/><polygon fill="#181818" points="947.06,481.88,954.2654,481.5923,956.7711,474.8306,949.5657,475.1182,947.06,481.88" style="stroke:#181818;stroke-width:1.0;"/></g><!--MD5=[97e973a2e17e2fdf95a657100781ecd2]
link EthernetSwitchRepository to EthernetSwitchTypeNote--><g id="link_EthernetSwitchRepository_EthernetSwitchTypeNote"><path codeLine="13" d="M895,159.33 C889.08,205.46 876.05,306.9 871.56,341.87 " fill="none" id="EthernetSwitchRepository-EthernetSwitchTypeNote" style="stroke:#181818;stroke-width:1.0;stroke-dasharray:7.0,7.0;"/></g><!--MD5=[9f5125094d565c097065cae25f7e2c84]
link EthernetSwitchTypeNote to GormGenericRepository--><g id="link_EthernetSwitchTypeNote_GormGenericRepository"><path codeLine="14" d="M872.29,368.19 C876.72,391.75 886.55,444.05 892.69,476.73 " fill="none" id="EthernetSwitchTypeNote-to-GormGenericRepository" style="stroke:#181818;stroke-width:1.0;stroke-dasharray:7.0,7.0;"/><polygon fill="#181818" points="893.64,481.8,895.8994,472.2138,892.7117,476.8869,888.0385,473.6992,893.64,481.8" style="stroke:#181818;stroke-width:1.0;"/></g><!--MD5=[e4dc094716afb2924cadfdc3ab207821]
link EthernetSwitch to EthernetSwitchTypeNote--><g id="link_EthernetSwitch_EthernetSwitchTypeNote"><path codeLine="15" d="M586.84,180.12 C669.7,231 800.87,311.55 850.29,341.9 " fill="none" id="EthernetSwitch-EthernetSwitchTypeNote" style="stroke:#181818;stroke-width:1.0;stroke-dasharray:7.0,7.0;"/></g><!--MD5=[763a09c1403e4c2db979671bf4e54ae6]
@startuml

!include ../entities/EthernetSwitch.puml
!include GormGenericRepository.puml

package infrastructure {
    class EthernetSwitchRepository

    EthernetSwitchRepository -down-* GormGenericRepository


    note "EntityType is EthernetSwitch" as EthernetSwitchTypeNote

    EthernetSwitchRepository .down. EthernetSwitchTypeNote
    GormGenericRepository <.up. EthernetSwitchTypeNote
    EthernetSwitch .. EthernetSwitchTypeNote
}

@enduml

@startuml




package app {
    interface IEntityModel {
        +GetID() uuid.UUID
    }
}


package domain {
    class Entity {
        +ID uuid.UUID `gorm:"primarykey"`
        - -
        +CreatedAt time.Time `gorm:"index"`
        - -
        +UpdatedAt time.Time `gorm:"index"`
        - -
        +DeletedAt gorm.DeletedAt `gorm:"index"`
    }
    Entity .down.|> IEntityModel
}


package domain {
    class EthernetSwitch {
        +Name string
        - -
        +Serial string
        - -
        +SwitchModel string
        - -
        +Address string
        - -
        +Username string
        - -
        +Password string
    }
    note left of EthernetSwitch::Serial
    Unique
    end note

    note left of EthernetSwitch::Address
    Unique
    Ip address of the switch
    end note

    EthernetSwitch -down-* Entity
}



package app {
    interface IGenericRepository<EntityType> {
        +GetList(ctx context.Context, orderBy string, orderDirection string, page int, size int, queryBuilder interfaces.IQueryBuilder) ([]EntityType, error)
        - -
        +Count(ctx context.Context, queryBuilder interfaces.IQueryBuilder) (int64, error)
        - -
        +NewQueryBuilder(ctx context.Context) interfaces.IQueryBuilder
        - -
        +GetById(ctx context.Context, id uuid.UUID) (EntityType, error)
        - -
        +Update(ctx context.Context, entity EntityType) (EntityType, error)
        - -
        +Insert(ctx context.Context, entity EntityType) (EntityType, error)
        - -
        +Delete(ctx context.Context, id uuid.UUID) error
        - -
        +CloseDb() error
    }
    note left of IGenericRepository::GetList
      Get list of elements with filtering and pagination
    end note

    note left of IGenericRepository::Count
      Get count of entities with filtering
    end note

    note left of IGenericRepository::NewQueryBuilder
      Get new instance of the query builder
    end note

    note left of IGenericRepository::GetById
      Get entity by ID from repository
    end note

    note left of IGenericRepository::Update
      Save the changes to the existing entity in the repository
    end note

    note left of IGenericRepository::Insert
      Add entity to the repository
    end note

    note left of IGenericRepository::Delete
      Delete entity from the database
    end note

    note left of IGenericRepository::CloseDb
      Closes current database connection
    end note
}


package infrastructure {
    class GormGenericRepository<EntityType>

    GormGenericRepository .down.|> IGenericRepository
}


package infrastructure {
    class EthernetSwitchRepository

    EthernetSwitchRepository -down-* GormGenericRepository


    note "EntityType is EthernetSwitch" as EthernetSwitchTypeNote

    EthernetSwitchRepository .down. EthernetSwitchTypeNote
    GormGenericRepository <.up. EthernetSwitchTypeNote
    EthernetSwitch .. EthernetSwitchTypeNote
}

@enduml

PlantUML version 1.2022.6(Tue Jun 21 20:34:49 MSK 2022)
(GPL source distribution)
Java Runtime: OpenJDK Runtime Environment
JVM: OpenJDK 64-Bit Server VM
Default Encoding: Cp1251
Language: ru
Country: RU
--></g></svg>