<?xml version="1.0" encoding="UTF-8" standalone="no"?><svg xmlns="http://www.w3.org/2000/svg" xmlns:xlink="http://www.w3.org/1999/xlink" contentStyleType="text/css" height="946px" preserveAspectRatio="none" style="width:1724px;height:946px;background:#FFFFFF;" version="1.1" viewBox="0 0 1724 946" width="1724px" zoomAndPan="magnify"><defs/><g><!--MD5=[d5ac3844f66b12d9e08170e47495e096]
cluster app--><g id="cluster_app"><path d="M8.5,493 L35.5,493 A3.75,3.75 0 0 1 38,495.5 L45,516.6094 L1714.5,516.6094 A2.5,2.5 0 0 1 1717,519.1094 L1717,936.5 A2.5,2.5 0 0 1 1714.5,939 L8.5,939 A2.5,2.5 0 0 1 6,936.5 L6,495.5 A2.5,2.5 0 0 1 8.5,493 " style="stroke:#000000;stroke-width:1.5;fill:none;"/><line style="stroke:#000000;stroke-width:1.5;fill:none;" x1="6" x2="45" y1="516.6094" y2="516.6094"/><text fill="#000000" font-family="sans-serif" font-size="14" font-weight="bold" lengthAdjust="spacing" textLength="26" x="10" y="509.5332">app</text></g><!--MD5=[27f772719433d509ddbc20ff768eba08]
cluster domain--><g id="cluster_domain"><path d="M84.5,6 L136.5,6 A3.75,3.75 0 0 1 139,8.5 L146,29.6094 L611.5,29.6094 A2.5,2.5 0 0 1 614,32.1094 L614,358.5 A2.5,2.5 0 0 1 611.5,361 L84.5,361 A2.5,2.5 0 0 1 82,358.5 L82,8.5 A2.5,2.5 0 0 1 84.5,6 " style="stroke:#000000;stroke-width:1.5;fill:none;"/><line style="stroke:#000000;stroke-width:1.5;fill:none;" x1="82" x2="146" y1="29.6094" y2="29.6094"/><text fill="#000000" font-family="sans-serif" font-size="14" font-weight="bold" lengthAdjust="spacing" textLength="51" x="86" y="22.5332">domain</text></g><!--MD5=[77349be1bd27b81b697a0f9b3aded3c8]
cluster infrastructure--><g id="cluster_infrastructure"><path d="M832.5,36.5 L930.5,36.5 A3.75,3.75 0 0 1 933,39 L940,60.1094 L1110.5,60.1094 A2.5,2.5 0 0 1 1113,62.6094 L1113,466.5 A2.5,2.5 0 0 1 1110.5,469 L832.5,469 A2.5,2.5 0 0 1 830,466.5 L830,39 A2.5,2.5 0 0 1 832.5,36.5 " style="stroke:#000000;stroke-width:1.5;fill:none;"/><line style="stroke:#000000;stroke-width:1.5;fill:none;" x1="830" x2="940" y1="60.1094" y2="60.1094"/><text fill="#000000" font-family="sans-serif" font-size="14" font-weight="bold" lengthAdjust="spacing" textLength="97" x="834" y="53.0332">infrastructure</text></g><!--MD5=[2a39a5be1cc24ddddd6e6286e4ece992]
class IEntityModel--><g id="elem_IEntityModel"><rect codeLine="3" fill="#F1F1F1" height="65.6094" id="IEntityModel" rx="2.5" ry="2.5" style="stroke:#181818;stroke-width:0.5;" width="138" x="229" y="641.5"/><ellipse cx="256.6" cy="657.5" fill="#B4A7E5" rx="11" ry="11" style="stroke:#181818;stroke-width:1.0;"/><path d="M257.5531,654.1406 L257.5531,660.7969 L259.2719,660.7969 Q259.8813,660.7969 260.1469,661.0313 Q260.4125,661.2656 260.4125,661.6563 Q260.4125,662.0313 260.1469,662.2656 Q259.8813,662.5 259.2719,662.5 L254.1313,662.5 Q253.5219,662.5 253.2563,662.2656 Q252.9906,662.0313 252.9906,661.6406 Q252.9906,661.2656 253.2563,661.0313 Q253.5219,660.7969 254.1313,660.7969 L255.85,660.7969 L255.85,654.1406 L254.1313,654.1406 Q253.5219,654.1406 253.2563,653.9063 Q252.9906,653.6719 252.9906,653.2813 Q252.9906,652.9063 253.2563,652.6719 Q253.5219,652.4375 254.1313,652.4375 L259.2719,652.4375 Q259.8813,652.4375 260.1469,652.6719 Q260.4125,652.9063 260.4125,653.2813 Q260.4125,653.6719 260.1469,653.9063 Q259.8813,654.1406 259.2719,654.1406 L257.5531,654.1406 Z " fill="#000000"/><text fill="#000000" font-family="sans-serif" font-size="14" font-style="italic" lengthAdjust="spacing" textLength="78" x="273.4" y="663.2285">IEntityModel</text><line style="stroke:#181818;stroke-width:0.5;" x1="230" x2="366" y1="673.5" y2="673.5"/><line style="stroke:#181818;stroke-width:0.5;" x1="230" x2="366" y1="681.5" y2="681.5"/><ellipse cx="240" cy="692.5" fill="#84BE84" rx="3" ry="3" style="stroke:#038048;stroke-width:1.0;"/><text fill="#000000" font-family="sans-serif" font-size="14" lengthAdjust="spacing" textLength="112" x="249" y="700.0332">GetID() uuid.UUID</text></g><!--MD5=[01906ac0e62f22b4e38e996248db568e]
class IEntityModelDeletedAt--><g id="elem_IEntityModelDeletedAt"><rect codeLine="3" fill="#F1F1F1" height="65.6094" id="IEntityModelDeletedAt" rx="2.5" ry="2.5" style="stroke:#181818;stroke-width:0.5;" width="172" x="22" y="641.5"/><ellipse cx="37" cy="657.5" fill="#B4A7E5" rx="11" ry="11" style="stroke:#181818;stroke-width:1.0;"/><path d="M37.9531,654.1406 L37.9531,660.7969 L39.6719,660.7969 Q40.2813,660.7969 40.5469,661.0313 Q40.8125,661.2656 40.8125,661.6563 Q40.8125,662.0313 40.5469,662.2656 Q40.2813,662.5 39.6719,662.5 L34.5313,662.5 Q33.9219,662.5 33.6563,662.2656 Q33.3906,662.0313 33.3906,661.6406 Q33.3906,661.2656 33.6563,661.0313 Q33.9219,660.7969 34.5313,660.7969 L36.25,660.7969 L36.25,654.1406 L34.5313,654.1406 Q33.9219,654.1406 33.6563,653.9063 Q33.3906,653.6719 33.3906,653.2813 Q33.3906,652.9063 33.6563,652.6719 Q33.9219,652.4375 34.5313,652.4375 L39.6719,652.4375 Q40.2813,652.4375 40.5469,652.6719 Q40.8125,652.9063 40.8125,653.2813 Q40.8125,653.6719 40.5469,653.9063 Q40.2813,654.1406 39.6719,654.1406 L37.9531,654.1406 Z " fill="#000000"/><text fill="#000000" font-family="sans-serif" font-size="14" font-style="italic" lengthAdjust="spacing" textLength="140" x="51" y="663.2285">IEntityModelDeletedAt</text><line style="stroke:#181818;stroke-width:0.5;" x1="23" x2="193" y1="673.5" y2="673.5"/><line style="stroke:#181818;stroke-width:0.5;" x1="23" x2="193" y1="681.5" y2="681.5"/><ellipse cx="33" cy="692.5" fill="#84BE84" rx="3" ry="3" style="stroke:#038048;stroke-width:1.0;"/><text fill="#000000" font-family="sans-serif" font-size="14" lengthAdjust="spacing" textLength="80" x="42" y="700.0332">SetDeleted()</text></g><g id="elem_GMN360"><path d="M22.5,880 L22.5,922.7031 A0,0 0 0 0 22.5,922.7031 L341.5,922.7031 A0,0 0 0 0 341.5,922.7031 L341.5,890 L331.5,880 L179.17,880 L118.6,707.74 L171.17,880 L22.5,880 A0,0 0 0 0 22.5,880 " fill="#FEFFDD" style="stroke:#181818;stroke-width:0.5;"/><path d="M331.5,880 L331.5,890 L341.5,890 L331.5,880 " fill="#FEFFDD" style="stroke:#181818;stroke-width:0.5;"/><text fill="#000000" font-family="sans-serif" font-size="13" lengthAdjust="spacing" textLength="98" x="28.5" y="898.4951">Set deletion time</text><text fill="#000000" font-family="sans-serif" font-size="13" lengthAdjust="spacing" textLength="298" x="28.5" y="914.8467">This method marks that the entity has been deleted</text></g><!--MD5=[b3e0f8dcddb1b27f071a0303a68762bf]
class IGenericRepository--><g id="elem_IGenericRepository"><rect codeLine="3" fill="#F1F1F1" height="236.875" id="IGenericRepository" rx="2.5" ry="2.5" style="stroke:#181818;stroke-width:0.5;" width="920" x="781" y="556"/><ellipse cx="1145.25" cy="572" fill="#B4A7E5" rx="11" ry="11" style="stroke:#181818;stroke-width:1.0;"/><path d="M1146.2031,568.6406 L1146.2031,575.2969 L1147.9219,575.2969 Q1148.5313,575.2969 1148.7969,575.5313 Q1149.0625,575.7656 1149.0625,576.1563 Q1149.0625,576.5313 1148.7969,576.7656 Q1148.5313,577 1147.9219,577 L1142.7813,577 Q1142.1719,577 1141.9063,576.7656 Q1141.6406,576.5313 1141.6406,576.1406 Q1141.6406,575.7656 1141.9063,575.5313 Q1142.1719,575.2969 1142.7813,575.2969 L1144.5,575.2969 L1144.5,568.6406 L1142.7813,568.6406 Q1142.1719,568.6406 1141.9063,568.4063 Q1141.6406,568.1719 1141.6406,567.7813 Q1141.6406,567.4063 1141.9063,567.1719 Q1142.1719,566.9375 1142.7813,566.9375 L1147.9219,566.9375 Q1148.5313,566.9375 1148.7969,567.1719 Q1149.0625,567.4063 1149.0625,567.7813 Q1149.0625,568.1719 1148.7969,568.4063 Q1148.5313,568.6406 1147.9219,568.6406 L1146.2031,568.6406 Z " fill="#000000"/><text fill="#000000" font-family="sans-serif" font-size="14" font-style="italic" lengthAdjust="spacing" textLength="122" x="1165.75" y="577.7285">IGenericRepository</text><rect fill="#FFFFFF" height="17.0938" style="stroke:#000000;stroke-width:1.0;stroke-dasharray:2.0,2.0;" width="59" x="1645" y="553"/><text fill="#000000" font-family="sans-serif" font-size="12" font-style="italic" lengthAdjust="spacing" textLength="57" x="1646" y="566.457">EntityType</text><line style="stroke:#181818;stroke-width:0.5;" x1="782" x2="1700" y1="588" y2="588"/><ellipse cx="792" cy="599" fill="#84BE84" rx="3" ry="3" style="stroke:#038048;stroke-width:1.0;"/><text fill="#000000" font-family="sans-serif" font-size="14" lengthAdjust="spacing" textLength="894" x="801" y="606.5332">GetList(ctx context.Context, orderBy string, orderDirection string, page int, size int, queryBuilder interfaces.IQueryBuilder) (*[]EntityType, error)</text><line style="stroke:#181818;stroke-width:1.0;" x1="782" x2="1700" y1="613.6094" y2="613.6094"/><ellipse cx="792" cy="624.6094" fill="#84BE84" rx="3" ry="3" style="stroke:#038048;stroke-width:1.0;"/><text fill="#000000" font-family="sans-serif" font-size="14" lengthAdjust="spacing" textLength="494" x="801" y="632.1426">Count(ctx context.Context, queryBuilder interfaces.IQueryBuilder) (int64, error)</text><line style="stroke:#181818;stroke-width:1.0;" x1="782" x2="1700" y1="639.2188" y2="639.2188"/><ellipse cx="792" cy="650.2188" fill="#84BE84" rx="3" ry="3" style="stroke:#038048;stroke-width:1.0;"/><text fill="#000000" font-family="sans-serif" font-size="14" lengthAdjust="spacing" textLength="393" x="801" y="657.752">NewQueryBuilder(ctx context.Context) interfaces.IQueryBuilder</text><line style="stroke:#181818;stroke-width:1.0;" x1="782" x2="1700" y1="664.8281" y2="664.8281"/><ellipse cx="792" cy="675.8281" fill="#84BE84" rx="3" ry="3" style="stroke:#038048;stroke-width:1.0;"/><text fill="#000000" font-family="sans-serif" font-size="14" lengthAdjust="spacing" textLength="388" x="801" y="683.3613">GetById(ctx context.Context, id uuid.UUID) (*EntityType, error)</text><line style="stroke:#181818;stroke-width:1.0;" x1="782" x2="1700" y1="690.4375" y2="690.4375"/><ellipse cx="792" cy="701.4375" fill="#84BE84" rx="3" ry="3" style="stroke:#038048;stroke-width:1.0;"/><text fill="#000000" font-family="sans-serif" font-size="14" lengthAdjust="spacing" textLength="326" x="801" y="708.9707">Update(ctx context.Context, entity *EntityType) error</text><line style="stroke:#181818;stroke-width:1.0;" x1="782" x2="1700" y1="716.0469" y2="716.0469"/><ellipse cx="792" cy="727.0469" fill="#84BE84" rx="3" ry="3" style="stroke:#038048;stroke-width:1.0;"/><text fill="#000000" font-family="sans-serif" font-size="14" lengthAdjust="spacing" textLength="391" x="801" y="734.5801">Insert(ctx context.Context, entity EntityType) (uuid.UUID, error)</text><line style="stroke:#181818;stroke-width:1.0;" x1="782" x2="1700" y1="741.6563" y2="741.6563"/><ellipse cx="792" cy="752.6563" fill="#84BE84" rx="3" ry="3" style="stroke:#038048;stroke-width:1.0;"/><text fill="#000000" font-family="sans-serif" font-size="14" lengthAdjust="spacing" textLength="289" x="801" y="760.1895">Delete(ctx context.Context, id uuid.UUID) error</text><line style="stroke:#181818;stroke-width:1.0;" x1="782" x2="1700" y1="767.2656" y2="767.2656"/><ellipse cx="792" cy="778.2656" fill="#84BE84" rx="3" ry="3" style="stroke:#038048;stroke-width:1.0;"/><text fill="#000000" font-family="sans-serif" font-size="14" lengthAdjust="spacing" textLength="99" x="801" y="785.7988">CloseDb() error</text></g><path d="M402.5,529 L402.5,555.3516 A0,0 0 0 0 402.5,555.3516 L696.5,555.3516 A0,0 0 0 0 696.5,555.3516 L696.5,547 L785,600.8047 L696.5,539 L696.5,539 L686.5,529 L402.5,529 A0,0 0 0 0 402.5,529 " fill="#FEFFDD" style="stroke:#181818;stroke-width:0.5;"/><path d="M686.5,529 L686.5,539 L696.5,539 L686.5,529 " fill="#FEFFDD" style="stroke:#181818;stroke-width:0.5;"/><text fill="#000000" font-family="sans-serif" font-size="13" lengthAdjust="spacing" textLength="273" x="408.5" y="547.4951">Get list of elements with filtering and pagination</text><path d="M402.5,565.3516 L402.5,591.7031 A0,0 0 0 0 402.5,591.7031 L612.5,591.7031 A0,0 0 0 0 612.5,591.7031 L612.5,583.3516 L785,626.4141 L612.5,575.3516 L612.5,575.3516 L602.5,565.3516 L402.5,565.3516 A0,0 0 0 0 402.5,565.3516 " fill="#FEFFDD" style="stroke:#181818;stroke-width:0.5;"/><path d="M602.5,565.3516 L602.5,575.3516 L612.5,575.3516 L602.5,565.3516 " fill="#FEFFDD" style="stroke:#181818;stroke-width:0.5;"/><text fill="#000000" font-family="sans-serif" font-size="13" lengthAdjust="spacing" textLength="189" x="408.5" y="583.8467">Get count of entities with filtering</text><path d="M402.5,601.7031 L402.5,628.0547 A0,0 0 0 0 402.5,628.0547 L638.5,628.0547 A0,0 0 0 0 638.5,628.0547 L638.5,619.7031 L785,652.0234 L638.5,611.7031 L638.5,611.7031 L628.5,601.7031 L402.5,601.7031 A0,0 0 0 0 402.5,601.7031 " fill="#FEFFDD" style="stroke:#181818;stroke-width:0.5;"/><path d="M628.5,601.7031 L628.5,611.7031 L638.5,611.7031 L628.5,601.7031 " fill="#FEFFDD" style="stroke:#181818;stroke-width:0.5;"/><text fill="#000000" font-family="sans-serif" font-size="13" lengthAdjust="spacing" textLength="215" x="408.5" y="620.1982">Get new instance of the query builder</text><path d="M402.5,638.0547 L402.5,664.4063 A0,0 0 0 0 402.5,664.4063 L604.5,664.4063 A0,0 0 0 0 604.5,664.4063 L604.5,656.0547 L785,677.6328 L604.5,648.0547 L604.5,648.0547 L594.5,638.0547 L402.5,638.0547 A0,0 0 0 0 402.5,638.0547 " fill="#FEFFDD" style="stroke:#181818;stroke-width:0.5;"/><path d="M594.5,638.0547 L594.5,648.0547 L604.5,648.0547 L594.5,638.0547 " fill="#FEFFDD" style="stroke:#181818;stroke-width:0.5;"/><text fill="#000000" font-family="sans-serif" font-size="13" lengthAdjust="spacing" textLength="181" x="408.5" y="656.5498">Get entity by ID from repository</text><path d="M402.5,674.4063 L402.5,700.7578 A0,0 0 0 0 402.5,700.7578 L745.5,700.7578 A0,0 0 0 0 745.5,700.7578 L745.5,692.4063 L785,703.2422 L745.5,684.4063 L745.5,684.4063 L735.5,674.4063 L402.5,674.4063 A0,0 0 0 0 402.5,674.4063 " fill="#FEFFDD" style="stroke:#181818;stroke-width:0.5;"/><path d="M735.5,674.4063 L735.5,684.4063 L745.5,684.4063 L735.5,674.4063 " fill="#FEFFDD" style="stroke:#181818;stroke-width:0.5;"/><text fill="#000000" font-family="sans-serif" font-size="13" lengthAdjust="spacing" textLength="322" x="408.5" y="692.9014">Save the changes to the existing entity in the repository</text><path d="M402.5,710.7578 L402.5,737.1094 A0,0 0 0 0 402.5,737.1094 L580.5,737.1094 A0,0 0 0 0 580.5,737.1094 L580.5,728.7578 L785,728.8516 L580.5,720.7578 L580.5,720.7578 L570.5,710.7578 L402.5,710.7578 A0,0 0 0 0 402.5,710.7578 " fill="#FEFFDD" style="stroke:#181818;stroke-width:0.5;"/><path d="M570.5,710.7578 L570.5,720.7578 L580.5,720.7578 L570.5,710.7578 " fill="#FEFFDD" style="stroke:#181818;stroke-width:0.5;"/><text fill="#000000" font-family="sans-serif" font-size="13" lengthAdjust="spacing" textLength="157" x="408.5" y="729.2529">Add entity to the repository</text><path d="M402.5,747.1094 L402.5,773.4609 A0,0 0 0 0 402.5,773.4609 L604.5,773.4609 A0,0 0 0 0 604.5,773.4609 L604.5,765.1094 L785,754.4609 L604.5,757.1094 L604.5,757.1094 L594.5,747.1094 L402.5,747.1094 A0,0 0 0 0 402.5,747.1094 " fill="#FEFFDD" style="stroke:#181818;stroke-width:0.5;"/><path d="M594.5,747.1094 L594.5,757.1094 L604.5,757.1094 L594.5,747.1094 " fill="#FEFFDD" style="stroke:#181818;stroke-width:0.5;"/><text fill="#000000" font-family="sans-serif" font-size="13" lengthAdjust="spacing" textLength="181" x="408.5" y="765.6045">Delete entity from the database</text><path d="M402.5,783.4609 L402.5,809.8125 A0,0 0 0 0 402.5,809.8125 L631.5,809.8125 A0,0 0 0 0 631.5,809.8125 L631.5,801.4609 L785,780.0703 L631.5,793.4609 L631.5,793.4609 L621.5,783.4609 L402.5,783.4609 A0,0 0 0 0 402.5,783.4609 " fill="#FEFFDD" style="stroke:#181818;stroke-width:0.5;"/><path d="M621.5,783.4609 L621.5,793.4609 L631.5,793.4609 L621.5,783.4609 " fill="#FEFFDD" style="stroke:#181818;stroke-width:0.5;"/><text fill="#000000" font-family="sans-serif" font-size="13" lengthAdjust="spacing" textLength="208" x="408.5" y="801.9561">Closes current database connection</text><!--MD5=[be996cdb8e6bf2fc7cb89c555f2cd144]
class Entity--><g id="elem_Entity"><rect codeLine="6" fill="#F1F1F1" height="134.4375" id="Entity" rx="2.5" ry="2.5" style="stroke:#181818;stroke-width:0.5;" width="250" x="173" y="211"/><ellipse cx="276.25" cy="227" fill="#ADD1B2" rx="11" ry="11" style="stroke:#181818;stroke-width:1.0;"/><path d="M279.0156,222.875 Q279.1719,222.6563 279.3594,222.5469 Q279.5469,222.4375 279.7656,222.4375 Q280.1406,222.4375 280.375,222.7031 Q280.6094,222.9531 280.6094,223.5625 L280.6094,225.0156 Q280.6094,225.625 280.375,225.8906 Q280.1406,226.1563 279.7656,226.1563 Q279.4219,226.1563 279.2188,225.9531 Q279.0156,225.7656 278.9063,225.25 Q278.8594,224.8906 278.6719,224.7031 Q278.3438,224.3281 277.7344,224.1094 Q277.125,223.8906 276.5,223.8906 Q275.7344,223.8906 275.0938,224.2188 Q274.4688,224.5469 273.9688,225.2969 Q273.4844,226.0469 273.4844,227.0781 L273.4844,228.1719 Q273.4844,229.4063 274.375,230.2344 Q275.2656,231.0469 276.8594,231.0469 Q277.7969,231.0469 278.4531,230.7969 Q278.8438,230.6406 279.2656,230.2031 Q279.5313,229.9375 279.6719,229.8594 Q279.8281,229.7813 280.0313,229.7813 Q280.3594,229.7813 280.6094,230.0469 Q280.875,230.2969 280.875,230.6406 Q280.875,230.9844 280.5313,231.3906 Q280.0313,231.9688 279.2344,232.2969 Q278.1563,232.75 276.8594,232.75 Q275.3438,232.75 274.1406,232.125 Q273.1563,231.625 272.4688,230.5625 Q271.7813,229.4844 271.7813,228.2031 L271.7813,227.0469 Q271.7813,225.7188 272.3906,224.5781 Q273.0156,223.4219 274.1094,222.8125 Q275.2031,222.1875 276.4375,222.1875 Q277.1719,222.1875 277.8125,222.3594 Q278.4688,222.5156 279.0156,222.875 Z " fill="#000000"/><text fill="#000000" font-family="sans-serif" font-size="14" lengthAdjust="spacing" textLength="35" x="296.75" y="232.7285">Entity</text><line style="stroke:#181818;stroke-width:0.5;" x1="174" x2="422" y1="243" y2="243"/><ellipse cx="184" cy="254" fill="none" rx="3" ry="3" style="stroke:#038048;stroke-width:1.0;"/><text fill="#000000" font-family="sans-serif" font-size="14" lengthAdjust="spacing" textLength="208" x="193" y="261.5332">ID uuid.UUID `gorm:"primarykey"`</text><line style="stroke:#181818;stroke-width:1.0;" x1="174" x2="422" y1="268.6094" y2="268.6094"/><ellipse cx="184" cy="279.6094" fill="none" rx="3" ry="3" style="stroke:#038048;stroke-width:1.0;"/><text fill="#000000" font-family="sans-serif" font-size="14" lengthAdjust="spacing" textLength="222" x="193" y="287.1426">CreatedAt time.Time `gorm:"index"`</text><line style="stroke:#181818;stroke-width:1.0;" x1="174" x2="422" y1="294.2188" y2="294.2188"/><ellipse cx="184" cy="305.2188" fill="none" rx="3" ry="3" style="stroke:#038048;stroke-width:1.0;"/><text fill="#000000" font-family="sans-serif" font-size="14" lengthAdjust="spacing" textLength="224" x="193" y="312.752">UpdatedAt time.Time `gorm:"index"`</text><line style="stroke:#181818;stroke-width:1.0;" x1="174" x2="422" y1="319.8281" y2="319.8281"/><ellipse cx="184" cy="330.8281" fill="none" rx="3" ry="3" style="stroke:#038048;stroke-width:1.0;"/><text fill="#000000" font-family="sans-serif" font-size="14" lengthAdjust="spacing" textLength="220" x="193" y="338.3613">DeletedAt time.Time `gorm:"index"`</text></g><!--MD5=[a0c76383944e982ee35488825d35b1c9]
class EthernetSwitchPort--><g id="elem_EthernetSwitchPort"><rect codeLine="5" fill="#F1F1F1" height="108.8281" id="EthernetSwitchPort" rx="2.5" ry="2.5" style="stroke:#181818;stroke-width:0.5;" width="197" x="400.5" y="42"/><ellipse cx="435.75" cy="58" fill="#ADD1B2" rx="11" ry="11" style="stroke:#181818;stroke-width:1.0;"/><path d="M438.5156,53.875 Q438.6719,53.6563 438.8594,53.5469 Q439.0469,53.4375 439.2656,53.4375 Q439.6406,53.4375 439.875,53.7031 Q440.1094,53.9531 440.1094,54.5625 L440.1094,56.0156 Q440.1094,56.625 439.875,56.8906 Q439.6406,57.1563 439.2656,57.1563 Q438.9219,57.1563 438.7188,56.9531 Q438.5156,56.7656 438.4063,56.25 Q438.3594,55.8906 438.1719,55.7031 Q437.8438,55.3281 437.2344,55.1094 Q436.625,54.8906 436,54.8906 Q435.2344,54.8906 434.5938,55.2188 Q433.9688,55.5469 433.4688,56.2969 Q432.9844,57.0469 432.9844,58.0781 L432.9844,59.1719 Q432.9844,60.4063 433.875,61.2344 Q434.7656,62.0469 436.3594,62.0469 Q437.2969,62.0469 437.9531,61.7969 Q438.3438,61.6406 438.7656,61.2031 Q439.0313,60.9375 439.1719,60.8594 Q439.3281,60.7813 439.5313,60.7813 Q439.8594,60.7813 440.1094,61.0469 Q440.375,61.2969 440.375,61.6406 Q440.375,61.9844 440.0313,62.3906 Q439.5313,62.9688 438.7344,63.2969 Q437.6563,63.75 436.3594,63.75 Q434.8438,63.75 433.6406,63.125 Q432.6563,62.625 431.9688,61.5625 Q431.2813,60.4844 431.2813,59.2031 L431.2813,58.0469 Q431.2813,56.7188 431.8906,55.5781 Q432.5156,54.4219 433.6094,53.8125 Q434.7031,53.1875 435.9375,53.1875 Q436.6719,53.1875 437.3125,53.3594 Q437.9688,53.5156 438.5156,53.875 Z " fill="#000000"/><text fill="#000000" font-family="sans-serif" font-size="14" lengthAdjust="spacing" textLength="120" x="454.25" y="63.7285">EthernetSwitchPort</text><line style="stroke:#181818;stroke-width:0.5;" x1="401.5" x2="596.5" y1="74" y2="74"/><ellipse cx="411.5" cy="85" fill="none" rx="3" ry="3" style="stroke:#038048;stroke-width:1.0;"/><text fill="#000000" font-family="sans-serif" font-size="14" lengthAdjust="spacing" textLength="171" x="420.5" y="92.5332">EthernetSwitchId uuid.UUID</text><line style="stroke:#181818;stroke-width:1.0;" x1="401.5" x2="596.5" y1="99.6094" y2="99.6094"/><ellipse cx="411.5" cy="110.6094" fill="none" rx="3" ry="3" style="stroke:#038048;stroke-width:1.0;"/><text fill="#000000" font-family="sans-serif" font-size="14" lengthAdjust="spacing" textLength="100" x="420.5" y="118.1426">POEType string</text><line style="stroke:#181818;stroke-width:1.0;" x1="401.5" x2="596.5" y1="125.2188" y2="125.2188"/><ellipse cx="411.5" cy="136.2188" fill="none" rx="3" ry="3" style="stroke:#038048;stroke-width:1.0;"/><text fill="#000000" font-family="sans-serif" font-size="14" lengthAdjust="spacing" textLength="75" x="420.5" y="143.752">Name string</text></g><path d="M98.5,52 L98.5,94.7031 A0,0 0 0 0 98.5,94.7031 L365.5,94.7031 A0,0 0 0 0 365.5,94.7031 L365.5,77.3516 L404.5,112.4141 L365.5,69.3516 L365.5,62 L355.5,52 L98.5,52 A0,0 0 0 0 98.5,52 " fill="#FEFFDD" style="stroke:#181818;stroke-width:0.5;"/><path d="M355.5,52 L355.5,62 L365.5,62 L355.5,52 " fill="#FEFFDD" style="stroke:#181818;stroke-width:0.5;"/><text fill="#000000" font-family="sans-serif" font-size="13" lengthAdjust="spacing" textLength="83" x="104.5" y="70.4951">POE port type</text><text fill="#000000" font-family="sans-serif" font-size="13" lengthAdjust="spacing" textLength="246" x="104.5" y="86.8467">can be: "poe", "poe+", "passive24", "none"</text><path d="M98.5,104.7031 L98.5,131.0547 A0,0 0 0 0 98.5,131.0547 L248.5,131.0547 A0,0 0 0 0 248.5,131.0547 L248.5,122.7031 L404.5,138.0234 L248.5,114.7031 L248.5,114.7031 L238.5,104.7031 L98.5,104.7031 A0,0 0 0 0 98.5,104.7031 " fill="#FEFFDD" style="stroke:#181818;stroke-width:0.5;"/><path d="M238.5,104.7031 L238.5,114.7031 L248.5,114.7031 L238.5,104.7031 " fill="#FEFFDD" style="stroke:#181818;stroke-width:0.5;"/><text fill="#000000" font-family="sans-serif" font-size="13" lengthAdjust="spacing" textLength="129" x="104.5" y="123.1982">Unique within 1 switch</text><!--MD5=[27abfb56f32eefa7f07c83348fb1ee32]
class GormGenericRepository--><g id="elem_GormGenericRepository"><rect codeLine="5" fill="#F1F1F1" height="48" id="GormGenericRepository" rx="2.5" ry="2.5" style="stroke:#181818;stroke-width:0.5;" width="246" x="851" y="405"/><ellipse cx="866" cy="421" fill="#ADD1B2" rx="11" ry="11" style="stroke:#181818;stroke-width:1.0;"/><path d="M868.7656,416.875 Q868.9219,416.6563 869.1094,416.5469 Q869.2969,416.4375 869.5156,416.4375 Q869.8906,416.4375 870.125,416.7031 Q870.3594,416.9531 870.3594,417.5625 L870.3594,419.0156 Q870.3594,419.625 870.125,419.8906 Q869.8906,420.1563 869.5156,420.1563 Q869.1719,420.1563 868.9688,419.9531 Q868.7656,419.7656 868.6563,419.25 Q868.6094,418.8906 868.4219,418.7031 Q868.0938,418.3281 867.4844,418.1094 Q866.875,417.8906 866.25,417.8906 Q865.4844,417.8906 864.8438,418.2188 Q864.2188,418.5469 863.7188,419.2969 Q863.2344,420.0469 863.2344,421.0781 L863.2344,422.1719 Q863.2344,423.4063 864.125,424.2344 Q865.0156,425.0469 866.6094,425.0469 Q867.5469,425.0469 868.2031,424.7969 Q868.5938,424.6406 869.0156,424.2031 Q869.2813,423.9375 869.4219,423.8594 Q869.5781,423.7813 869.7813,423.7813 Q870.1094,423.7813 870.3594,424.0469 Q870.625,424.2969 870.625,424.6406 Q870.625,424.9844 870.2813,425.3906 Q869.7813,425.9688 868.9844,426.2969 Q867.9063,426.75 866.6094,426.75 Q865.0938,426.75 863.8906,426.125 Q862.9063,425.625 862.2188,424.5625 Q861.5313,423.4844 861.5313,422.2031 L861.5313,421.0469 Q861.5313,419.7188 862.1406,418.5781 Q862.7656,417.4219 863.8594,416.8125 Q864.9531,416.1875 866.1875,416.1875 Q866.9219,416.1875 867.5625,416.3594 Q868.2188,416.5156 868.7656,416.875 Z " fill="#000000"/><text fill="#000000" font-family="sans-serif" font-size="14" lengthAdjust="spacing" textLength="153" x="880" y="426.7285">GormGenericRepository</text><rect fill="#FFFFFF" height="17.0938" style="stroke:#000000;stroke-width:1.0;stroke-dasharray:2.0,2.0;" width="59" x="1041" y="402"/><text fill="#000000" font-family="sans-serif" font-size="12" font-style="italic" lengthAdjust="spacing" textLength="57" x="1042" y="415.457">EntityType</text><line style="stroke:#181818;stroke-width:0.5;" x1="852" x2="1096" y1="437" y2="437"/><line style="stroke:#181818;stroke-width:0.5;" x1="852" x2="1096" y1="445" y2="445"/></g><!--MD5=[08ca7a30bf9989fb15c0f21009c8ae57]
class EthernetSwitchPortRepository--><g id="elem_EthernetSwitchPortRepository"><rect codeLine="6" fill="#F1F1F1" height="48" id="EthernetSwitchPortRepository" rx="2.5" ry="2.5" style="stroke:#181818;stroke-width:0.5;" width="220" x="861" y="72.5"/><ellipse cx="876" cy="88.5" fill="#ADD1B2" rx="11" ry="11" style="stroke:#181818;stroke-width:1.0;"/><path d="M878.7656,84.375 Q878.9219,84.1563 879.1094,84.0469 Q879.2969,83.9375 879.5156,83.9375 Q879.8906,83.9375 880.125,84.2031 Q880.3594,84.4531 880.3594,85.0625 L880.3594,86.5156 Q880.3594,87.125 880.125,87.3906 Q879.8906,87.6563 879.5156,87.6563 Q879.1719,87.6563 878.9688,87.4531 Q878.7656,87.2656 878.6563,86.75 Q878.6094,86.3906 878.4219,86.2031 Q878.0938,85.8281 877.4844,85.6094 Q876.875,85.3906 876.25,85.3906 Q875.4844,85.3906 874.8438,85.7188 Q874.2188,86.0469 873.7188,86.7969 Q873.2344,87.5469 873.2344,88.5781 L873.2344,89.6719 Q873.2344,90.9063 874.125,91.7344 Q875.0156,92.5469 876.6094,92.5469 Q877.5469,92.5469 878.2031,92.2969 Q878.5938,92.1406 879.0156,91.7031 Q879.2813,91.4375 879.4219,91.3594 Q879.5781,91.2813 879.7813,91.2813 Q880.1094,91.2813 880.3594,91.5469 Q880.625,91.7969 880.625,92.1406 Q880.625,92.4844 880.2813,92.8906 Q879.7813,93.4688 878.9844,93.7969 Q877.9063,94.25 876.6094,94.25 Q875.0938,94.25 873.8906,93.625 Q872.9063,93.125 872.2188,92.0625 Q871.5313,90.9844 871.5313,89.7031 L871.5313,88.5469 Q871.5313,87.2188 872.1406,86.0781 Q872.7656,84.9219 873.8594,84.3125 Q874.9531,83.6875 876.1875,83.6875 Q876.9219,83.6875 877.5625,83.8594 Q878.2188,84.0156 878.7656,84.375 Z " fill="#000000"/><text fill="#000000" font-family="sans-serif" font-size="14" lengthAdjust="spacing" textLength="188" x="890" y="94.2285">EthernetSwitchPortRepository</text><line style="stroke:#181818;stroke-width:0.5;" x1="862" x2="1080" y1="104.5" y2="104.5"/><line style="stroke:#181818;stroke-width:0.5;" x1="862" x2="1080" y1="112.5" y2="112.5"/></g><g id="elem_EthernetSwitchPortTypeNote"><path d="M846.5,265 L846.5,291.3516 L1059.5,291.3516 L1059.5,275 L1049.5,265 L846.5,265 " fill="#FEFFDD" style="stroke:#181818;stroke-width:0.5;"/><path d="M1049.5,265 L1049.5,275 L1059.5,275 L1049.5,265 " fill="#FEFFDD" style="stroke:#181818;stroke-width:1.0;"/><text fill="#000000" font-family="sans-serif" font-size="13" lengthAdjust="spacing" textLength="192" x="852.5" y="283.4951">EntityType is EthernetSwitchPort</text></g><!--MD5=[2557b70de049790e1c1a4cc262bbdad6]
link Entity to IEntityModelDeletedAt--><g id="link_Entity_IEntityModelDeletedAt"><path codeLine="15" d="M266.2,345.03 C228.54,423.22 166.63,551.77 132.5,622.64 " fill="none" id="Entity-to-IEntityModelDeletedAt" style="stroke:#181818;stroke-width:1.0;stroke-dasharray:7.0,7.0;"/><polygon fill="none" points="138.63,626.03,123.65,641.01,126.02,619.95,138.63,626.03" style="stroke:#181818;stroke-width:1.0;"/></g><!--MD5=[a6c7a0eda5b041e127f539f1664bb96a]
link Entity to IEntityModel--><g id="link_Entity_IEntityModel"><path codeLine="16" d="M298,345.03 C298,422.56 298,549.57 298,620.81 " fill="none" id="Entity-to-IEntityModel" style="stroke:#181818;stroke-width:1.0;stroke-dasharray:7.0,7.0;"/><polygon fill="none" points="305,621.01,298,641.01,291,621.01,305,621.01" style="stroke:#181818;stroke-width:1.0;"/></g><!--MD5=[9772157d24c033f2fd4659808d74f7d7]
link IEntityModelDeletedAt to IEntityModel--><!--MD5=[afd672b6d7a853cadad0fa5e76e30a74]
link EthernetSwitchPort to Entity--><g id="link_EthernetSwitchPort_Entity"><path codeLine="13" d="M438.97,151.11 C421.04,167.12 401.05,184.98 381.88,202.09 " fill="none" id="EthernetSwitchPort-to-Entity" style="stroke:#181818;stroke-width:1.0;"/><polygon fill="#181818" points="371.95,210.96,379.0899,209.9491,380.9029,202.9696,373.763,203.9805,371.95,210.96" style="stroke:#181818;stroke-width:1.0;"/></g><!--MD5=[1b84833638557571905b03f54e842c8c]
link GormGenericRepository to IGenericRepository--><g id="link_GormGenericRepository_IGenericRepository"><path codeLine="7" d="M999.6,453.35 C1022.93,474.63 1059.4,507.89 1096.99,542.17 " fill="none" id="GormGenericRepository-to-IGenericRepository" style="stroke:#181818;stroke-width:1.0;stroke-dasharray:7.0,7.0;"/><polygon fill="none" points="1101.93,537.2,1111.99,555.84,1092.49,547.54,1101.93,537.2" style="stroke:#181818;stroke-width:1.0;"/></g><!--MD5=[1762f5c7af981631210025ef4f9c269e]
link EthernetSwitchPortRepository to GormGenericRepository--><g id="link_EthernetSwitchPortRepository_GormGenericRepository"><path codeLine="8" d="M1003.09,120.62 C1028.55,141.09 1062.21,173.5 1077,211 C1102.76,276.33 1112.21,308.25 1077,369 C1070.23,380.69 1060.17,390.26 1048.95,398.03 " fill="none" id="EthernetSwitchPortRepository-to-GormGenericRepository" style="stroke:#181818;stroke-width:1.0;"/><polygon fill="#181818" points="1037.91,404.94,1045.1181,405.1486,1048.083,398.5753,1040.8749,398.3666,1037.91,404.94" style="stroke:#181818;stroke-width:1.0;"/></g><!--MD5=[fe4788a4e689d7fb18894f4eb70a548f]
link EthernetSwitchPortRepository to EthernetSwitchPortTypeNote--><g id="link_EthernetSwitchPortRepository_EthernetSwitchPortTypeNote"><path codeLine="13" d="M968.68,120.6 C964.83,159.04 957.23,234.86 954.24,264.61 " fill="none" id="EthernetSwitchPortRepository-EthernetSwitchPortTypeNote" style="stroke:#181818;stroke-width:1.0;stroke-dasharray:7.0,7.0;"/></g><!--MD5=[db6d18f36f875cfdbc509bcef396f1a5]
link EthernetSwitchPortTypeNote to GormGenericRepository--><g id="link_EthernetSwitchPortTypeNote_GormGenericRepository"><path codeLine="14" d="M954.72,291.19 C958.04,314.75 965.41,367.05 970.02,399.73 " fill="none" id="EthernetSwitchPortTypeNote-to-GormGenericRepository" style="stroke:#181818;stroke-width:1.0;stroke-dasharray:7.0,7.0;"/><polygon fill="#181818" points="970.73,404.8,973.4323,395.3291,970.0309,399.8491,965.5109,396.4477,970.73,404.8" style="stroke:#181818;stroke-width:1.0;"/></g><!--MD5=[9c0460ae0ce9578d5fd891f7c11771f8]
link EthernetSwitchPort to EthernetSwitchPortTypeNote--><g id="link_EthernetSwitchPort_EthernetSwitchPortTypeNote"><path codeLine="15" d="M597.51,136.45 C700.78,177.28 856.96,239.03 922.43,264.91 " fill="none" id="EthernetSwitchPort-EthernetSwitchPortTypeNote" style="stroke:#181818;stroke-width:1.0;stroke-dasharray:7.0,7.0;"/></g><!--MD5=[5b775f2d8baf0abc4d90469c9e32e3e5]
@startuml

!include ../entities/EthernetSwitchPort.puml
!include GormGenericRepository.puml

package infrastructure {
    class EthernetSwitchPortRepository

    EthernetSwitchPortRepository -down-* GormGenericRepository


    note "EntityType is EthernetSwitchPort" as EthernetSwitchPortTypeNote

    EthernetSwitchPortRepository .down. EthernetSwitchPortTypeNote
    GormGenericRepository <.up. EthernetSwitchPortTypeNote
    EthernetSwitchPort .. EthernetSwitchPortTypeNote
}


@enduml

@startuml




package app {
    interface IEntityModel {
        +GetID() uuid.UUID
    }
}


package app {
    interface IEntityModelDeletedAt {
        +SetDeleted()
    }
    note bottom of IEntityModelDeletedAt
        Set deletion time
        This method marks that the entity has been deleted
    end note
}


package domain {
    class Entity {
        +ID uuid.UUID `gorm:"primarykey"`
        - -
        +CreatedAt time.Time `gorm:"index"`
        - -
        +UpdatedAt time.Time `gorm:"index"`
        - -
        +DeletedAt time.Time `gorm:"index"`
    }
    Entity .down.|> IEntityModelDeletedAt
    Entity .down.|> IEntityModel

    IEntityModel .left[hidden]. IEntityModelDeletedAt
}


package domain {
    class EthernetSwitchPort {
        +EthernetSwitchId uuid.UUID
        - -
        +POEType string
        - -
        +Name string
    }

    EthernetSwitchPort -down-* Entity

    note left of EthernetSwitchPort::POEType
      POE port type
      can be: "poe", "poe+", "passive24", "none"
    end note

    note left of EthernetSwitchPort::Name
      Unique within 1 switch
    end note
}



package app {
    interface IGenericRepository<EntityType> {
        +GetList(ctx context.Context, orderBy string, orderDirection string, page int, size int, queryBuilder interfaces.IQueryBuilder) (*[]EntityType, error)
        - -
        +Count(ctx context.Context, queryBuilder interfaces.IQueryBuilder) (int64, error)
        - -
        +NewQueryBuilder(ctx context.Context) interfaces.IQueryBuilder
        - -
        +GetById(ctx context.Context, id uuid.UUID) (*EntityType, error)
        - -
        +Update(ctx context.Context, entity *EntityType) error
        - -
        +Insert(ctx context.Context, entity EntityType) (uuid.UUID, error)
        - -
        +Delete(ctx context.Context, id uuid.UUID) error
        - -
        +CloseDb() error
    }
    note left of IGenericRepository::GetList
      Get list of elements with filtering and pagination
    end note

    note left of IGenericRepository::Count
      Get count of entities with filtering
    end note

    note left of IGenericRepository::NewQueryBuilder
      Get new instance of the query builder
    end note

    note left of IGenericRepository::GetById
      Get entity by ID from repository
    end note

    note left of IGenericRepository::Update
      Save the changes to the existing entity in the repository
    end note

    note left of IGenericRepository::Insert
      Add entity to the repository
    end note

    note left of IGenericRepository::Delete
      Delete entity from the database
    end note

    note left of IGenericRepository::CloseDb
      Closes current database connection
    end note
}


package infrastructure {
    class GormGenericRepository<EntityType>

    GormGenericRepository .down.|> IGenericRepository
}


package infrastructure {
    class EthernetSwitchPortRepository

    EthernetSwitchPortRepository -down-* GormGenericRepository


    note "EntityType is EthernetSwitchPort" as EthernetSwitchPortTypeNote

    EthernetSwitchPortRepository .down. EthernetSwitchPortTypeNote
    GormGenericRepository <.up. EthernetSwitchPortTypeNote
    EthernetSwitchPort .. EthernetSwitchPortTypeNote
}


@enduml

PlantUML version 1.2022.6(Tue Jun 21 20:34:49 MSK 2022)
(GPL source distribution)
Java Runtime: OpenJDK Runtime Environment
JVM: OpenJDK 64-Bit Server VM
Default Encoding: Cp1251
Language: ru
Country: RU
--></g></svg>