<?xml version="1.0" encoding="UTF-8" standalone="no"?><svg xmlns="http://www.w3.org/2000/svg" xmlns:xlink="http://www.w3.org/1999/xlink" contentStyleType="text/css" height="396px" preserveAspectRatio="none" style="width:1418px;height:396px;background:#FFFFFF;" version="1.1" viewBox="0 0 1418 396" width="1418px" zoomAndPan="magnify"><defs/><g><!--MD5=[b3e0f8dcddb1b27f071a0303a68762bf]
class IGenericRepository--><g id="elem_IGenericRepository"><rect codeLine="1" fill="#F1F1F1" height="226.375" id="IGenericRepository" rx="2.5" ry="2.5" style="stroke:#181818;stroke-width:0.5;" width="987" x="420" y="145.5"/><ellipse cx="808.25" cy="161.5" fill="#B4A7E5" rx="11" ry="11" style="stroke:#181818;stroke-width:1.0;"/><path d="M804.1719,157.2656 L804.1719,155.1094 L811.5625,155.1094 L811.5625,157.2656 L809.0938,157.2656 L809.0938,165.3438 L811.5625,165.3438 L811.5625,167.5 L804.1719,167.5 L804.1719,165.3438 L806.6406,165.3438 L806.6406,157.2656 L804.1719,157.2656 Z " fill="#000000"/><text fill="#000000" font-family="sans-serif" font-size="14" font-style="italic" lengthAdjust="spacing" textLength="132" x="828.75" y="166.3467">IGenericRepository</text><rect fill="#FFFFFF" height="15.9688" style="stroke:#000000;stroke-width:1.0;stroke-dasharray:2.0,2.0;" width="68" x="1342" y="142.5"/><text fill="#000000" font-family="sans-serif" font-size="12" font-style="italic" lengthAdjust="spacing" textLength="66" x="1343" y="154.6387">EntityType</text><line style="stroke:#181818;stroke-width:0.5;" x1="421" x2="1406" y1="177.5" y2="177.5"/><text fill="#000000" font-family="sans-serif" font-size="14" lengthAdjust="spacing" textLength="975" x="426" y="194.4951">GetList(ctx context.Context, orderBy string, orderDirection string, page int, size int, queryBuilder interfaces.IQueryBuilder) (*[]EntityType, error)</text><line style="stroke:#181818;stroke-width:1.0;" x1="421" x2="1406" y1="201.7969" y2="201.7969"/><text fill="#000000" font-family="sans-serif" font-size="14" lengthAdjust="spacing" textLength="539" x="426" y="218.792">Count(ctx context.Context, queryBuilder interfaces.IQueryBuilder) (int64, error)</text><line style="stroke:#181818;stroke-width:1.0;" x1="421" x2="1406" y1="226.0938" y2="226.0938"/><text fill="#000000" font-family="sans-serif" font-size="14" lengthAdjust="spacing" textLength="431" x="426" y="243.0889">NewQueryBuilder(ctx context.Context) interfaces.IQueryBuilder</text><line style="stroke:#181818;stroke-width:1.0;" x1="421" x2="1406" y1="250.3906" y2="250.3906"/><text fill="#000000" font-family="sans-serif" font-size="14" lengthAdjust="spacing" textLength="424" x="426" y="267.3857">GetById(ctx context.Context, id uuid.UUID) (*EntityType, error)</text><line style="stroke:#181818;stroke-width:1.0;" x1="421" x2="1406" y1="274.6875" y2="274.6875"/><text fill="#000000" font-family="sans-serif" font-size="14" lengthAdjust="spacing" textLength="360" x="426" y="291.6826">Update(ctx context.Context, entity *EntityType) error</text><line style="stroke:#181818;stroke-width:1.0;" x1="421" x2="1406" y1="298.9844" y2="298.9844"/><text fill="#000000" font-family="sans-serif" font-size="14" lengthAdjust="spacing" textLength="428" x="426" y="315.9795">Insert(ctx context.Context, entity EntityType) (uuid.UUID, error)</text><line style="stroke:#181818;stroke-width:1.0;" x1="421" x2="1406" y1="323.2813" y2="323.2813"/><text fill="#000000" font-family="sans-serif" font-size="14" lengthAdjust="spacing" textLength="319" x="426" y="340.2764">Delete(ctx context.Context, id uuid.UUID) error</text><line style="stroke:#181818;stroke-width:1.0;" x1="421" x2="1406" y1="347.5781" y2="347.5781"/><text fill="#000000" font-family="sans-serif" font-size="14" lengthAdjust="spacing" textLength="106" x="426" y="364.5732">CloseDb() error</text></g><path d="M6,118 L6,143.1328 A0,0 0 0 0 6,143.1328 L331,143.1328 A0,0 0 0 0 331,143.1328 L331,136 L424,189.6484 L331,128 L331,128 L321,118 L6,118 A0,0 0 0 0 6,118 " fill="#FEFFDD" style="stroke:#181818;stroke-width:0.5;"/><path d="M321,118 L321,128 L331,128 L321,118 " fill="#FEFFDD" style="stroke:#181818;stroke-width:0.5;"/><text fill="#000000" font-family="sans-serif" font-size="13" lengthAdjust="spacing" textLength="304" x="12" y="135.0669">Get list of elements with filtering and pagination</text><path d="M6,153.1328 L6,178.2656 A0,0 0 0 0 6,178.2656 L237,178.2656 A0,0 0 0 0 237,178.2656 L237,171.1328 L424,213.9453 L237,163.1328 L237,163.1328 L227,153.1328 L6,153.1328 A0,0 0 0 0 6,153.1328 " fill="#FEFFDD" style="stroke:#181818;stroke-width:0.5;"/><path d="M227,153.1328 L227,163.1328 L237,163.1328 L227,153.1328 " fill="#FEFFDD" style="stroke:#181818;stroke-width:0.5;"/><text fill="#000000" font-family="sans-serif" font-size="13" lengthAdjust="spacing" textLength="210" x="12" y="170.1997">Get count of entities with filtering</text><path d="M6,188.2656 L6,213.3984 A0,0 0 0 0 6,213.3984 L265,213.3984 A0,0 0 0 0 265,213.3984 L265,206.2656 L424,238.2422 L265,198.2656 L265,198.2656 L255,188.2656 L6,188.2656 A0,0 0 0 0 6,188.2656 " fill="#FEFFDD" style="stroke:#181818;stroke-width:0.5;"/><path d="M255,188.2656 L255,198.2656 L265,198.2656 L255,188.2656 " fill="#FEFFDD" style="stroke:#181818;stroke-width:0.5;"/><text fill="#000000" font-family="sans-serif" font-size="13" lengthAdjust="spacing" textLength="238" x="12" y="205.3325">Get new instance of the query builder</text><path d="M6,223.3984 L6,248.5313 A0,0 0 0 0 6,248.5313 L228,248.5313 A0,0 0 0 0 228,248.5313 L228,241.3984 L424,262.5391 L228,233.3984 L228,233.3984 L218,223.3984 L6,223.3984 A0,0 0 0 0 6,223.3984 " fill="#FEFFDD" style="stroke:#181818;stroke-width:0.5;"/><path d="M218,223.3984 L218,233.3984 L228,233.3984 L218,223.3984 " fill="#FEFFDD" style="stroke:#181818;stroke-width:0.5;"/><text fill="#000000" font-family="sans-serif" font-size="13" lengthAdjust="spacing" textLength="201" x="12" y="240.4653">Get entity by ID from repository</text><path d="M6,258.5313 L6,283.6641 A0,0 0 0 0 6,283.6641 L385,283.6641 A0,0 0 0 0 385,283.6641 L385,276.5313 L424,286.8359 L385,268.5313 L385,268.5313 L375,258.5313 L6,258.5313 A0,0 0 0 0 6,258.5313 " fill="#FEFFDD" style="stroke:#181818;stroke-width:0.5;"/><path d="M375,258.5313 L375,268.5313 L385,268.5313 L375,258.5313 " fill="#FEFFDD" style="stroke:#181818;stroke-width:0.5;"/><text fill="#000000" font-family="sans-serif" font-size="13" lengthAdjust="spacing" textLength="358" x="12" y="275.5981">Save the changes to the existing entity in the repository</text><path d="M6,293.6641 L6,318.7969 A0,0 0 0 0 6,318.7969 L202,318.7969 A0,0 0 0 0 202,318.7969 L202,311.6641 L424,311.1328 L202,303.6641 L202,303.6641 L192,293.6641 L6,293.6641 A0,0 0 0 0 6,293.6641 " fill="#FEFFDD" style="stroke:#181818;stroke-width:0.5;"/><path d="M192,293.6641 L192,303.6641 L202,303.6641 L192,293.6641 " fill="#FEFFDD" style="stroke:#181818;stroke-width:0.5;"/><text fill="#000000" font-family="sans-serif" font-size="13" lengthAdjust="spacing" textLength="175" x="12" y="310.731">Add entity to the repository</text><path d="M6,328.7969 L6,353.9297 A0,0 0 0 0 6,353.9297 L232,353.9297 A0,0 0 0 0 232,353.9297 L232,346.7969 L424,335.4297 L232,338.7969 L232,338.7969 L222,328.7969 L6,328.7969 A0,0 0 0 0 6,328.7969 " fill="#FEFFDD" style="stroke:#181818;stroke-width:0.5;"/><path d="M222,328.7969 L222,338.7969 L232,338.7969 L222,328.7969 " fill="#FEFFDD" style="stroke:#181818;stroke-width:0.5;"/><text fill="#000000" font-family="sans-serif" font-size="13" lengthAdjust="spacing" textLength="205" x="12" y="345.8638">Delete entity from the database</text><path d="M6,363.9297 L6,389.0625 A0,0 0 0 0 6,389.0625 L257,389.0625 A0,0 0 0 0 257,389.0625 L257,381.9297 L424,359.7266 L257,373.9297 L257,373.9297 L247,363.9297 L6,363.9297 A0,0 0 0 0 6,363.9297 " fill="#FEFFDD" style="stroke:#181818;stroke-width:0.5;"/><path d="M247,363.9297 L247,373.9297 L257,373.9297 L247,363.9297 " fill="#FEFFDD" style="stroke:#181818;stroke-width:0.5;"/><text fill="#000000" font-family="sans-serif" font-size="13" lengthAdjust="spacing" textLength="230" x="12" y="380.9966">Closes current database connection</text><!--MD5=[c98ca7bcab12eeeb1adda7a3ab9c79a8]
class GenericRepository--><g id="elem_GenericRepository"><rect codeLine="4" fill="#F1F1F1" height="48" id="GenericRepository" rx="2.5" ry="2.5" style="stroke:#181818;stroke-width:0.5;" width="230" x="798.5" y="10"/><ellipse cx="813.5" cy="26" fill="#ADD1B2" rx="11" ry="11" style="stroke:#181818;stroke-width:1.0;"/><path d="M816.4688,31.6406 Q815.8906,31.9375 815.25,32.0781 Q814.6094,32.2344 813.9063,32.2344 Q811.4063,32.2344 810.0781,30.5938 Q808.7656,28.9375 808.7656,25.8125 Q808.7656,22.6875 810.0781,21.0313 Q811.4063,19.375 813.9063,19.375 Q814.6094,19.375 815.25,19.5313 Q815.9063,19.6875 816.4688,19.9844 L816.4688,22.7031 Q815.8438,22.125 815.25,21.8594 Q814.6563,21.5781 814.0313,21.5781 Q812.6875,21.5781 812,22.6563 Q811.3125,23.7188 811.3125,25.8125 Q811.3125,27.9063 812,28.9844 Q812.6875,30.0469 814.0313,30.0469 Q814.6563,30.0469 815.25,29.7813 Q815.8438,29.5 816.4688,28.9219 L816.4688,31.6406 Z " fill="#000000"/><text fill="#000000" font-family="sans-serif" font-size="14" lengthAdjust="spacing" textLength="128" x="827.5" y="30.8467">GenericRepository</text><rect fill="#FFFFFF" height="15.9688" style="stroke:#000000;stroke-width:1.0;stroke-dasharray:2.0,2.0;" width="68" x="963.5" y="7"/><text fill="#000000" font-family="sans-serif" font-size="12" font-style="italic" lengthAdjust="spacing" textLength="66" x="964.5" y="19.1387">EntityType</text><line style="stroke:#181818;stroke-width:0.5;" x1="799.5" x2="1027.5" y1="42" y2="42"/><line style="stroke:#181818;stroke-width:0.5;" x1="799.5" x2="1027.5" y1="50" y2="50"/></g><!--MD5=[475d1973c91e7aa31a9a83f9c94900da]
reverse link GenericRepository to IGenericRepository--><g id="link_GenericRepository_IGenericRepository"><path codeLine="8" d="M913.5,78.48 C913.5,97.84 913.5,121.62 913.5,145.45 " fill="none" id="GenericRepository-backto-IGenericRepository" style="stroke:#181818;stroke-width:1.0;stroke-dasharray:7.0,7.0;"/><polygon fill="none" points="906.5,78.39,913.5,58.39,920.5,78.39,906.5,78.39" style="stroke:#181818;stroke-width:1.0;"/></g><!--MD5=[fe21e2fb82afe0ff7cece59461e1bd15]
@startuml
!include ../interfaces/generic/IGenericRepository.puml


class GenericRepository<EntityType> {

}

GenericRepository <|.. IGenericRepository

@enduml

@startuml
interface IGenericRepository<EntityType> {
    GetList(ctx context.Context, orderBy string, orderDirection string, page int, size int, queryBuilder interfaces.IQueryBuilder) (*[]EntityType, error)
    - -
    Count(ctx context.Context, queryBuilder interfaces.IQueryBuilder) (int64, error)
    - -
    NewQueryBuilder(ctx context.Context) interfaces.IQueryBuilder
    - -
    GetById(ctx context.Context, id uuid.UUID) (*EntityType, error)
    - -
    Update(ctx context.Context, entity *EntityType) error
    - -
    Insert(ctx context.Context, entity EntityType) (uuid.UUID, error)
    - -
    Delete(ctx context.Context, id uuid.UUID) error
    - -
    CloseDb() error
}
note left of IGenericRepository::GetList
  Get list of elements with filtering and pagination
end note
note left of IGenericRepository::Count
  Get count of entities with filtering
end note
note left of IGenericRepository::NewQueryBuilder
  Get new instance of the query builder
end note
note left of IGenericRepository::GetById
  Get entity by ID from repository
end note
note left of IGenericRepository::Update
  Save the changes to the existing entity in the repository
end note
note left of IGenericRepository::Insert
  Add entity to the repository
end note
note left of IGenericRepository::Delete
  Delete entity from the database
end note
note left of IGenericRepository::CloseDb
  Closes current database connection
end note


class GenericRepository<EntityType> {

}

GenericRepository <|.. IGenericRepository

@enduml

PlantUML version 1.2022.4(Sat Apr 09 13:29:17 UTC 2022)
(GPL source distribution)
Java Runtime: OpenJDK Runtime Environment
JVM: OpenJDK 64-Bit Server VM
Default Encoding: UTF-8
Language: en
Country: null
--></g></svg>