<?xml version="1.0" encoding="UTF-8" standalone="no"?><svg xmlns="http://www.w3.org/2000/svg" xmlns:xlink="http://www.w3.org/1999/xlink" contentStyleType="text/css" height="1065px" preserveAspectRatio="none" style="width:1716px;height:1065px;background:#FFFFFF;" version="1.1" viewBox="0 0 1716 1065" width="1716px" zoomAndPan="magnify"><defs/><g><!--MD5=[d5ac3844f66b12d9e08170e47495e096]
cluster app--><g id="cluster_app"><path d="M23.5,656 L53.5,656 A3.75,3.75 0 0 1 56,658.5 L63,678.2969 L1706.5,678.2969 A2.5,2.5 0 0 1 1709,680.7969 L1709,1055.5 A2.5,2.5 0 0 1 1706.5,1058 L23.5,1058 A2.5,2.5 0 0 1 21,1055.5 L21,658.5 A2.5,2.5 0 0 1 23.5,656 " style="stroke:#000000;stroke-width:1.5;fill:none;"/><line style="stroke:#000000;stroke-width:1.5;fill:none;" x1="21" x2="63" y1="678.2969" y2="678.2969"/><text fill="#000000" font-family="sans-serif" font-size="14" font-weight="bold" lengthAdjust="spacing" textLength="29" x="25" y="670.9951">app</text></g><!--MD5=[27f772719433d509ddbc20ff768eba08]
cluster domain--><g id="cluster_domain"><path d="M8.5,6 L66.5,6 A3.75,3.75 0 0 1 69,8.5 L76,28.2969 L494.5,28.2969 A2.5,2.5 0 0 1 497,30.7969 L497,620.5 A2.5,2.5 0 0 1 494.5,623 L8.5,623 A2.5,2.5 0 0 1 6,620.5 L6,8.5 A2.5,2.5 0 0 1 8.5,6 " style="stroke:#000000;stroke-width:1.5;fill:none;"/><line style="stroke:#000000;stroke-width:1.5;fill:none;" x1="6" x2="76" y1="28.2969" y2="28.2969"/><text fill="#000000" font-family="sans-serif" font-size="14" font-weight="bold" lengthAdjust="spacing" textLength="57" x="10" y="20.9951">domain</text></g><!--MD5=[77349be1bd27b81b697a0f9b3aded3c8]
cluster infrastructure--><g id="cluster_infrastructure"><path d="M821.5,107.5 L932.5,107.5 A3.75,3.75 0 0 1 935,110 L942,129.7969 L1168.5,129.7969 A2.5,2.5 0 0 1 1171,132.2969 L1171,580 A2.5,2.5 0 0 1 1168.5,582.5 L821.5,582.5 A2.5,2.5 0 0 1 819,580 L819,110 A2.5,2.5 0 0 1 821.5,107.5 " style="stroke:#000000;stroke-width:1.5;fill:none;"/><line style="stroke:#000000;stroke-width:1.5;fill:none;" x1="819" x2="942" y1="129.7969" y2="129.7969"/><text fill="#000000" font-family="sans-serif" font-size="14" font-weight="bold" lengthAdjust="spacing" textLength="110" x="823" y="122.4951">infrastructure</text></g><!--MD5=[2a39a5be1cc24ddddd6e6286e4ece992]
class IEntityModel--><g id="elem_IEntityModel"><rect codeLine="3" fill="#F1F1F1" height="129.1875" id="IEntityModel" rx="2.5" ry="2.5" style="stroke:#181818;stroke-width:0.5;" width="213" x="36.5" y="802"/><ellipse cx="73.55" cy="818" fill="#B4A7E5" rx="11" ry="11" style="stroke:#181818;stroke-width:1.0;"/><path d="M69.4719,813.7656 L69.4719,811.6094 L76.8625,811.6094 L76.8625,813.7656 L74.3938,813.7656 L74.3938,821.8438 L76.8625,821.8438 L76.8625,824 L69.4719,824 L69.4719,821.8438 L71.9406,821.8438 L71.9406,813.7656 L69.4719,813.7656 Z " fill="#000000"/><text fill="#000000" font-family="sans-serif" font-size="14" font-style="italic" lengthAdjust="spacing" textLength="85" x="92.45" y="822.8467">IEntityModel</text><rect fill="#FFFFFF" height="15.9688" style="stroke:#000000;stroke-width:1.0;stroke-dasharray:2.0,2.0;" width="45" x="207.5" y="799"/><text fill="#000000" font-family="sans-serif" font-size="12" font-style="italic" lengthAdjust="spacing" textLength="43" x="208.5" y="811.1387">IDType</text><line style="stroke:#181818;stroke-width:0.5;" x1="37.5" x2="248.5" y1="834" y2="834"/><ellipse cx="47.5" cy="845" fill="#84BE84" rx="3" ry="3" style="stroke:#038048;stroke-width:1.0;"/><text fill="#000000" font-family="sans-serif" font-size="14" lengthAdjust="spacing" textLength="101" x="56.5" y="850.9951">GetID() IDType</text><line style="stroke:#181818;stroke-width:1.0;" x1="37.5" x2="248.5" y1="858.2969" y2="858.2969"/><ellipse cx="47.5" cy="869.2969" fill="#84BE84" rx="3" ry="3" style="stroke:#038048;stroke-width:1.0;"/><text fill="#000000" font-family="sans-serif" font-size="14" lengthAdjust="spacing" textLength="176" x="56.5" y="875.292">GetCreatedAt() time.Time</text><line style="stroke:#181818;stroke-width:1.0;" x1="37.5" x2="248.5" y1="882.5938" y2="882.5938"/><ellipse cx="47.5" cy="893.5938" fill="#84BE84" rx="3" ry="3" style="stroke:#038048;stroke-width:1.0;"/><text fill="#000000" font-family="sans-serif" font-size="14" lengthAdjust="spacing" textLength="187" x="56.5" y="899.5889">GetUpdatedAt() *time.Time</text><line style="stroke:#181818;stroke-width:1.0;" x1="37.5" x2="248.5" y1="906.8906" y2="906.8906"/><ellipse cx="47.5" cy="917.8906" fill="#84BE84" rx="3" ry="3" style="stroke:#038048;stroke-width:1.0;"/><text fill="#000000" font-family="sans-serif" font-size="14" lengthAdjust="spacing" textLength="183" x="56.5" y="923.8857">GetDeletedAt() *time.Time</text></g><!--MD5=[b3e0f8dcddb1b27f071a0303a68762bf]
class IGenericRepository--><g id="elem_IGenericRepository"><rect codeLine="3" fill="#F1F1F1" height="274.9688" id="IGenericRepository" rx="2.5" ry="2.5" style="stroke:#181818;stroke-width:0.5;" width="994" x="699" y="729"/><ellipse cx="1000.25" cy="745" fill="#B4A7E5" rx="11" ry="11" style="stroke:#181818;stroke-width:1.0;"/><path d="M996.1719,740.7656 L996.1719,738.6094 L1003.5625,738.6094 L1003.5625,740.7656 L1001.0938,740.7656 L1001.0938,748.8438 L1003.5625,748.8438 L1003.5625,751 L996.1719,751 L996.1719,748.8438 L998.6406,748.8438 L998.6406,740.7656 L996.1719,740.7656 Z " fill="#000000"/><text fill="#000000" font-family="sans-serif" font-size="14" font-style="italic" lengthAdjust="spacing" textLength="132" x="1020.75" y="749.8467">IGenericRepository</text><rect fill="#FFFFFF" height="15.9688" style="stroke:#000000;stroke-width:1.0;stroke-dasharray:2.0,2.0;" width="249" x="1447" y="726"/><text fill="#000000" font-family="sans-serif" font-size="12" font-style="italic" lengthAdjust="spacing" textLength="247" x="1448" y="738.1387">IDType, interfaces.IEntityModel[IDType]</text><line style="stroke:#181818;stroke-width:0.5;" x1="700" x2="1692" y1="761" y2="761"/><ellipse cx="710" cy="772" fill="#84BE84" rx="3" ry="3" style="stroke:#038048;stroke-width:1.0;"/><text fill="#000000" font-family="sans-serif" font-size="14" lengthAdjust="spacing" textLength="968" x="719" y="777.9951">GetList(ctx context.Context, orderBy string, orderDirection string, page int, size int, queryBuilder interfaces.IQueryBuilder) ([]EntityType, error)</text><line style="stroke:#181818;stroke-width:1.0;" x1="700" x2="1692" y1="785.2969" y2="785.2969"/><ellipse cx="710" cy="796.2969" fill="#84BE84" rx="3" ry="3" style="stroke:#038048;stroke-width:1.0;"/><text fill="#000000" font-family="sans-serif" font-size="14" lengthAdjust="spacing" textLength="521" x="719" y="802.292">Count(ctx context.Context, queryBuilder interfaces.IQueryBuilder) (int, error)</text><line style="stroke:#181818;stroke-width:1.0;" x1="700" x2="1692" y1="809.5938" y2="809.5938"/><ellipse cx="710" cy="820.5938" fill="#84BE84" rx="3" ry="3" style="stroke:#038048;stroke-width:1.0;"/><text fill="#000000" font-family="sans-serif" font-size="14" lengthAdjust="spacing" textLength="607" x="719" y="826.5889">IsExist(ctx context.Context, id IDType, queryBuilder interfaces.IQueryBuilder) (bool, error)</text><line style="stroke:#181818;stroke-width:1.0;" x1="700" x2="1692" y1="833.8906" y2="833.8906"/><ellipse cx="710" cy="844.8906" fill="#84BE84" rx="3" ry="3" style="stroke:#038048;stroke-width:1.0;"/><text fill="#000000" font-family="sans-serif" font-size="14" lengthAdjust="spacing" textLength="431" x="719" y="850.8857">NewQueryBuilder(ctx context.Context) interfaces.IQueryBuilder</text><line style="stroke:#181818;stroke-width:1.0;" x1="700" x2="1692" y1="858.1875" y2="858.1875"/><ellipse cx="710" cy="869.1875" fill="#84BE84" rx="3" ry="3" style="stroke:#038048;stroke-width:1.0;"/><text fill="#000000" font-family="sans-serif" font-size="14" lengthAdjust="spacing" textLength="397" x="719" y="875.1826">GetById(ctx context.Context, id IDType) (EntityType, error)</text><line style="stroke:#181818;stroke-width:1.0;" x1="700" x2="1692" y1="882.4844" y2="882.4844"/><ellipse cx="710" cy="893.4844" fill="#84BE84" rx="3" ry="3" style="stroke:#038048;stroke-width:1.0;"/><text fill="#000000" font-family="sans-serif" font-size="14" lengthAdjust="spacing" textLength="443" x="719" y="899.4795">Update(ctx context.Context, entity EntityType) (EntityType, error)</text><line style="stroke:#181818;stroke-width:1.0;" x1="700" x2="1692" y1="906.7813" y2="906.7813"/><ellipse cx="710" cy="917.7813" fill="#84BE84" rx="3" ry="3" style="stroke:#038048;stroke-width:1.0;"/><text fill="#000000" font-family="sans-serif" font-size="14" lengthAdjust="spacing" textLength="432" x="719" y="923.7764">Insert(ctx context.Context, entity EntityType) (EntityType, error)</text><line style="stroke:#181818;stroke-width:1.0;" x1="700" x2="1692" y1="931.0781" y2="931.0781"/><ellipse cx="710" cy="942.0781" fill="#84BE84" rx="3" ry="3" style="stroke:#038048;stroke-width:1.0;"/><text fill="#000000" font-family="sans-serif" font-size="14" lengthAdjust="spacing" textLength="299" x="719" y="948.0732">Delete(ctx context.Context, id IDType) error</text><line style="stroke:#181818;stroke-width:1.0;" x1="700" x2="1692" y1="955.375" y2="955.375"/><ellipse cx="710" cy="966.375" fill="#84BE84" rx="3" ry="3" style="stroke:#038048;stroke-width:1.0;"/><text fill="#000000" font-family="sans-serif" font-size="14" lengthAdjust="spacing" textLength="505" x="719" y="972.3701">DeleteAll(ctx context.Context, queryBuilder interfaces.IQueryBuilder) error</text><line style="stroke:#181818;stroke-width:1.0;" x1="700" x2="1692" y1="979.6719" y2="979.6719"/><ellipse cx="710" cy="990.6719" fill="#84BE84" rx="3" ry="3" style="stroke:#038048;stroke-width:1.0;"/><text fill="#000000" font-family="sans-serif" font-size="14" lengthAdjust="spacing" textLength="104" x="719" y="996.667">Dispose() error</text></g><path d="M284.5,691 L284.5,716.1328 A0,0 0 0 0 284.5,716.1328 L609.5,716.1328 A0,0 0 0 0 609.5,716.1328 L609.5,709 L703,773.1484 L609.5,701 L609.5,701 L599.5,691 L284.5,691 A0,0 0 0 0 284.5,691 " fill="#FEFFDD" style="stroke:#181818;stroke-width:0.5;"/><path d="M599.5,691 L599.5,701 L609.5,701 L599.5,691 " fill="#FEFFDD" style="stroke:#181818;stroke-width:0.5;"/><text fill="#000000" font-family="sans-serif" font-size="13" lengthAdjust="spacing" textLength="304" x="290.5" y="708.0669">Get list of elements with filtering and pagination</text><path d="M284.5,726.1328 L284.5,751.2656 A0,0 0 0 0 284.5,751.2656 L515.5,751.2656 A0,0 0 0 0 515.5,751.2656 L515.5,744.1328 L703,797.4453 L515.5,736.1328 L515.5,736.1328 L505.5,726.1328 L284.5,726.1328 A0,0 0 0 0 284.5,726.1328 " fill="#FEFFDD" style="stroke:#181818;stroke-width:0.5;"/><path d="M505.5,726.1328 L505.5,736.1328 L515.5,736.1328 L505.5,726.1328 " fill="#FEFFDD" style="stroke:#181818;stroke-width:0.5;"/><text fill="#000000" font-family="sans-serif" font-size="13" lengthAdjust="spacing" textLength="210" x="290.5" y="743.1997">Get count of entities with filtering</text><path d="M284.5,761.2656 L284.5,786.3984 A0,0 0 0 0 284.5,786.3984 L641.5,786.3984 A0,0 0 0 0 641.5,786.3984 L641.5,779.2656 L703,821.7422 L641.5,771.2656 L641.5,771.2656 L631.5,761.2656 L284.5,761.2656 A0,0 0 0 0 284.5,761.2656 " fill="#FEFFDD" style="stroke:#181818;stroke-width:0.5;"/><path d="M631.5,761.2656 L631.5,771.2656 L641.5,771.2656 L631.5,761.2656 " fill="#FEFFDD" style="stroke:#181818;stroke-width:0.5;"/><text fill="#000000" font-family="sans-serif" font-size="13" lengthAdjust="spacing" textLength="336" x="290.5" y="778.3325">Checks that entity with selected conditions is existed</text><path d="M284.5,796.3984 L284.5,821.5313 A0,0 0 0 0 284.5,821.5313 L543.5,821.5313 A0,0 0 0 0 543.5,821.5313 L543.5,814.3984 L703,846.0391 L543.5,806.3984 L543.5,806.3984 L533.5,796.3984 L284.5,796.3984 A0,0 0 0 0 284.5,796.3984 " fill="#FEFFDD" style="stroke:#181818;stroke-width:0.5;"/><path d="M533.5,796.3984 L533.5,806.3984 L543.5,806.3984 L533.5,796.3984 " fill="#FEFFDD" style="stroke:#181818;stroke-width:0.5;"/><text fill="#000000" font-family="sans-serif" font-size="13" lengthAdjust="spacing" textLength="238" x="290.5" y="813.4653">Get new instance of the query builder</text><path d="M284.5,831.5313 L284.5,856.6641 A0,0 0 0 0 284.5,856.6641 L506.5,856.6641 A0,0 0 0 0 506.5,856.6641 L506.5,849.5313 L703,870.3359 L506.5,841.5313 L506.5,841.5313 L496.5,831.5313 L284.5,831.5313 A0,0 0 0 0 284.5,831.5313 " fill="#FEFFDD" style="stroke:#181818;stroke-width:0.5;"/><path d="M496.5,831.5313 L496.5,841.5313 L506.5,841.5313 L496.5,831.5313 " fill="#FEFFDD" style="stroke:#181818;stroke-width:0.5;"/><text fill="#000000" font-family="sans-serif" font-size="13" lengthAdjust="spacing" textLength="201" x="290.5" y="848.5981">Get entity by ID from repository</text><path d="M284.5,866.6641 L284.5,891.7969 A0,0 0 0 0 284.5,891.7969 L663.5,891.7969 A0,0 0 0 0 663.5,891.7969 L663.5,884.6641 L703,894.6328 L663.5,876.6641 L663.5,876.6641 L653.5,866.6641 L284.5,866.6641 A0,0 0 0 0 284.5,866.6641 " fill="#FEFFDD" style="stroke:#181818;stroke-width:0.5;"/><path d="M653.5,866.6641 L653.5,876.6641 L663.5,876.6641 L653.5,866.6641 " fill="#FEFFDD" style="stroke:#181818;stroke-width:0.5;"/><text fill="#000000" font-family="sans-serif" font-size="13" lengthAdjust="spacing" textLength="358" x="290.5" y="883.731">Save the changes to the existing entity in the repository</text><path d="M284.5,901.7969 L284.5,926.9297 A0,0 0 0 0 284.5,926.9297 L480.5,926.9297 A0,0 0 0 0 480.5,926.9297 L480.5,919.7969 L703,918.9297 L480.5,911.7969 L480.5,911.7969 L470.5,901.7969 L284.5,901.7969 A0,0 0 0 0 284.5,901.7969 " fill="#FEFFDD" style="stroke:#181818;stroke-width:0.5;"/><path d="M470.5,901.7969 L470.5,911.7969 L480.5,911.7969 L470.5,901.7969 " fill="#FEFFDD" style="stroke:#181818;stroke-width:0.5;"/><text fill="#000000" font-family="sans-serif" font-size="13" lengthAdjust="spacing" textLength="175" x="290.5" y="918.8638">Add entity to the repository</text><path d="M284.5,936.9297 L284.5,962.0625 A0,0 0 0 0 284.5,962.0625 L489.5,962.0625 A0,0 0 0 0 489.5,962.0625 L489.5,954.9297 L703,943.2266 L489.5,946.9297 L489.5,946.9297 L479.5,936.9297 L284.5,936.9297 A0,0 0 0 0 284.5,936.9297 " fill="#FEFFDD" style="stroke:#181818;stroke-width:0.5;"/><path d="M479.5,936.9297 L479.5,946.9297 L489.5,946.9297 L479.5,936.9297 " fill="#FEFFDD" style="stroke:#181818;stroke-width:0.5;"/><text fill="#000000" font-family="sans-serif" font-size="13" lengthAdjust="spacing" textLength="184" x="290.5" y="953.9966">Delete entity from repository</text><path d="M284.5,972.0625 L284.5,997.1953 A0,0 0 0 0 284.5,997.1953 L554.5,997.1953 A0,0 0 0 0 554.5,997.1953 L554.5,990.0625 L703,967.5234 L554.5,982.0625 L554.5,982.0625 L544.5,972.0625 L284.5,972.0625 A0,0 0 0 0 284.5,972.0625 " fill="#FEFFDD" style="stroke:#181818;stroke-width:0.5;"/><path d="M544.5,972.0625 L544.5,982.0625 L554.5,982.0625 L544.5,972.0625 " fill="#FEFFDD" style="stroke:#181818;stroke-width:0.5;"/><text fill="#000000" font-family="sans-serif" font-size="13" lengthAdjust="spacing" textLength="249" x="290.5" y="989.1294">Delete entities with selected conditions</text><path d="M284.5,1007.1953 L284.5,1032.3281 A0,0 0 0 0 284.5,1032.3281 L469.5,1032.3281 A0,0 0 0 0 469.5,1032.3281 L469.5,1025.1953 L703,991.8203 L469.5,1017.1953 L469.5,1017.1953 L459.5,1007.1953 L284.5,1007.1953 A0,0 0 0 0 284.5,1007.1953 " fill="#FEFFDD" style="stroke:#181818;stroke-width:0.5;"/><path d="M459.5,1007.1953 L459.5,1017.1953 L469.5,1017.1953 L459.5,1007.1953 " fill="#FEFFDD" style="stroke:#181818;stroke-width:0.5;"/><text fill="#000000" font-family="sans-serif" font-size="13" lengthAdjust="spacing" textLength="164" x="290.5" y="1024.2622">Dispose all allocated data</text><!--MD5=[1045d07ae824aea072cabb0fb8284887]
class EntityUUID--><g id="elem_EntityUUID"><rect codeLine="5" fill="#F1F1F1" height="48" id="EntityUUID" rx="2.5" ry="2.5" style="stroke:#181818;stroke-width:0.5;" width="104" x="261" y="353"/><ellipse cx="276" cy="369" fill="#ADD1B2" rx="11" ry="11" style="stroke:#181818;stroke-width:1.0;"/><path d="M278.9688,374.6406 Q278.3906,374.9375 277.75,375.0781 Q277.1094,375.2344 276.4063,375.2344 Q273.9063,375.2344 272.5781,373.5938 Q271.2656,371.9375 271.2656,368.8125 Q271.2656,365.6875 272.5781,364.0313 Q273.9063,362.375 276.4063,362.375 Q277.1094,362.375 277.75,362.5313 Q278.4063,362.6875 278.9688,362.9844 L278.9688,365.7031 Q278.3438,365.125 277.75,364.8594 Q277.1563,364.5781 276.5313,364.5781 Q275.1875,364.5781 274.5,365.6563 Q273.8125,366.7188 273.8125,368.8125 Q273.8125,370.9063 274.5,371.9844 Q275.1875,373.0469 276.5313,373.0469 Q277.1563,373.0469 277.75,372.7813 Q278.3438,372.5 278.9688,371.9219 L278.9688,374.6406 Z " fill="#000000"/><text fill="#000000" font-family="sans-serif" font-size="14" lengthAdjust="spacing" textLength="72" x="290" y="373.8467">EntityUUID</text><line style="stroke:#181818;stroke-width:0.5;" x1="262" x2="364" y1="385" y2="385"/><line style="stroke:#181818;stroke-width:0.5;" x1="262" x2="364" y1="393" y2="393"/></g><!--MD5=[be996cdb8e6bf2fc7cb89c555f2cd144]
class Entity--><g id="elem_Entity"><rect codeLine="8" fill="#F1F1F1" height="129.1875" id="Entity" rx="2.5" ry="2.5" style="stroke:#181818;stroke-width:0.5;" width="208" x="109" y="478"/><ellipse cx="166.25" cy="494" fill="#ADD1B2" rx="11" ry="11" style="stroke:#181818;stroke-width:1.0;"/><path d="M169.2188,499.6406 Q168.6406,499.9375 168,500.0781 Q167.3594,500.2344 166.6563,500.2344 Q164.1563,500.2344 162.8281,498.5938 Q161.5156,496.9375 161.5156,493.8125 Q161.5156,490.6875 162.8281,489.0313 Q164.1563,487.375 166.6563,487.375 Q167.3594,487.375 168,487.5313 Q168.6563,487.6875 169.2188,487.9844 L169.2188,490.7031 Q168.5938,490.125 168,489.8594 Q167.4063,489.5781 166.7813,489.5781 Q165.4375,489.5781 164.75,490.6563 Q164.0625,491.7188 164.0625,493.8125 Q164.0625,495.9063 164.75,496.9844 Q165.4375,498.0469 166.7813,498.0469 Q167.4063,498.0469 168,497.7813 Q168.5938,497.5 169.2188,496.9219 L169.2188,499.6406 Z " fill="#000000"/><text fill="#000000" font-family="sans-serif" font-size="14" lengthAdjust="spacing" textLength="38" x="186.75" y="498.8467">Entity</text><rect fill="#FFFFFF" height="15.9688" style="stroke:#000000;stroke-width:1.0;stroke-dasharray:2.0,2.0;" width="45" x="275" y="475"/><text fill="#000000" font-family="sans-serif" font-size="12" font-style="italic" lengthAdjust="spacing" textLength="43" x="276" y="487.1387">IDType</text><line style="stroke:#181818;stroke-width:0.5;" x1="110" x2="316" y1="510" y2="510"/><ellipse cx="120" cy="521" fill="none" rx="3" ry="3" style="stroke:#038048;stroke-width:1.0;"/><text fill="#000000" font-family="sans-serif" font-size="14" lengthAdjust="spacing" textLength="66" x="129" y="526.9951">ID IDType</text><line style="stroke:#181818;stroke-width:1.0;" x1="110" x2="316" y1="534.2969" y2="534.2969"/><ellipse cx="120" cy="545.2969" fill="none" rx="3" ry="3" style="stroke:#038048;stroke-width:1.0;"/><text fill="#000000" font-family="sans-serif" font-size="14" lengthAdjust="spacing" textLength="141" x="129" y="551.292">CreatedAt time.Time</text><line style="stroke:#181818;stroke-width:1.0;" x1="110" x2="316" y1="558.5938" y2="558.5938"/><ellipse cx="120" cy="569.5938" fill="none" rx="3" ry="3" style="stroke:#038048;stroke-width:1.0;"/><text fill="#000000" font-family="sans-serif" font-size="14" lengthAdjust="spacing" textLength="152" x="129" y="575.5889">UpdatedAt *time.Time</text><line style="stroke:#181818;stroke-width:1.0;" x1="110" x2="316" y1="582.8906" y2="582.8906"/><ellipse cx="120" cy="593.8906" fill="none" rx="3" ry="3" style="stroke:#038048;stroke-width:1.0;"/><text fill="#000000" font-family="sans-serif" font-size="14" lengthAdjust="spacing" textLength="182" x="129" y="599.8857">DeletedAt gorm.DeletedAt</text></g><!--MD5=[c74155cdcf25e342cd0e6bb99a4980a2]
class DHCP4Config--><g id="elem_DHCP4Config"><rect codeLine="5" fill="#F1F1F1" height="250.6719" id="DHCP4Config" rx="2.5" ry="2.5" style="stroke:#181818;stroke-width:0.5;" width="144" x="337" y="41"/><ellipse cx="360.55" cy="57" fill="#ADD1B2" rx="11" ry="11" style="stroke:#181818;stroke-width:1.0;"/><path d="M363.5188,62.6406 Q362.9406,62.9375 362.3,63.0781 Q361.6594,63.2344 360.9563,63.2344 Q358.4563,63.2344 357.1281,61.5938 Q355.8156,59.9375 355.8156,56.8125 Q355.8156,53.6875 357.1281,52.0313 Q358.4563,50.375 360.9563,50.375 Q361.6594,50.375 362.3,50.5313 Q362.9563,50.6875 363.5188,50.9844 L363.5188,53.7031 Q362.8938,53.125 362.3,52.8594 Q361.7063,52.5781 361.0813,52.5781 Q359.7375,52.5781 359.05,53.6563 Q358.3625,54.7188 358.3625,56.8125 Q358.3625,58.9063 359.05,59.9844 Q359.7375,61.0469 361.0813,61.0469 Q361.7063,61.0469 362.3,60.7813 Q362.8938,60.5 363.5188,59.9219 L363.5188,62.6406 Z " fill="#000000"/><text fill="#000000" font-family="sans-serif" font-size="14" lengthAdjust="spacing" textLength="93" x="376.45" y="61.8467">DHCP4Config</text><line style="stroke:#181818;stroke-width:0.5;" x1="338" x2="480" y1="73" y2="73"/><ellipse cx="348" cy="84" fill="none" rx="3" ry="3" style="stroke:#038048;stroke-width:1.0;"/><text fill="#000000" font-family="sans-serif" font-size="14" lengthAdjust="spacing" textLength="83" x="357" y="89.9951">Name string</text><line style="stroke:#181818;stroke-width:1.0;" x1="338" x2="480" y1="97.2969" y2="97.2969"/><ellipse cx="348" cy="108.2969" fill="none" rx="3" ry="3" style="stroke:#038048;stroke-width:1.0;"/><text fill="#000000" font-family="sans-serif" font-size="14" lengthAdjust="spacing" textLength="88" x="357" y="114.292">Range string</text><line style="stroke:#181818;stroke-width:1.0;" x1="338" x2="480" y1="121.5938" y2="121.5938"/><ellipse cx="348" cy="132.5938" fill="none" rx="3" ry="3" style="stroke:#038048;stroke-width:1.0;"/><text fill="#000000" font-family="sans-serif" font-size="14" lengthAdjust="spacing" textLength="79" x="357" y="138.5889">Mask string</text><line style="stroke:#181818;stroke-width:1.0;" x1="338" x2="480" y1="145.8906" y2="145.8906"/><ellipse cx="348" cy="156.8906" fill="none" rx="3" ry="3" style="stroke:#038048;stroke-width:1.0;"/><text fill="#000000" font-family="sans-serif" font-size="14" lengthAdjust="spacing" textLength="118" x="357" y="162.8857">NextServer string</text><line style="stroke:#181818;stroke-width:1.0;" x1="338" x2="480" y1="170.1875" y2="170.1875"/><ellipse cx="348" cy="181.1875" fill="none" rx="3" ry="3" style="stroke:#038048;stroke-width:1.0;"/><text fill="#000000" font-family="sans-serif" font-size="14" lengthAdjust="spacing" textLength="101" x="357" y="187.1826">ServerID string</text><line style="stroke:#181818;stroke-width:1.0;" x1="338" x2="480" y1="194.4844" y2="194.4844"/><ellipse cx="348" cy="205.4844" fill="none" rx="3" ry="3" style="stroke:#038048;stroke-width:1.0;"/><text fill="#000000" font-family="sans-serif" font-size="14" lengthAdjust="spacing" textLength="103" x="357" y="211.4795">Interface string</text><line style="stroke:#181818;stroke-width:1.0;" x1="338" x2="480" y1="218.7813" y2="218.7813"/><ellipse cx="348" cy="229.7813" fill="none" rx="3" ry="3" style="stroke:#038048;stroke-width:1.0;"/><text fill="#000000" font-family="sans-serif" font-size="14" lengthAdjust="spacing" textLength="102" x="357" y="235.7764">Gateway string</text><line style="stroke:#181818;stroke-width:1.0;" x1="338" x2="480" y1="243.0781" y2="243.0781"/><ellipse cx="348" cy="254.0781" fill="none" rx="3" ry="3" style="stroke:#038048;stroke-width:1.0;"/><text fill="#000000" font-family="sans-serif" font-size="14" lengthAdjust="spacing" textLength="73" x="357" y="260.0732">DNS string</text><line style="stroke:#181818;stroke-width:1.0;" x1="338" x2="480" y1="267.375" y2="267.375"/><ellipse cx="348" cy="278.375" fill="none" rx="3" ry="3" style="stroke:#038048;stroke-width:1.0;"/><text fill="#000000" font-family="sans-serif" font-size="14" lengthAdjust="spacing" textLength="71" x="357" y="284.3701">NTP string</text></g><path d="M22,131.5 L22,156.6328 A0,0 0 0 0 22,156.6328 L302,156.6328 A0,0 0 0 0 302,156.6328 L302,149.5 L341,109.4453 L302,141.5 L302,141.5 L292,131.5 L22,131.5 A0,0 0 0 0 22,131.5 " fill="#FEFFDD" style="stroke:#181818;stroke-width:0.5;"/><path d="M292,131.5 L292,141.5 L302,141.5 L292,131.5 " fill="#FEFFDD" style="stroke:#181818;stroke-width:0.5;"/><text fill="#000000" font-family="sans-serif" font-size="13" lengthAdjust="spacing" textLength="259" x="28" y="148.5669">Start IP and End IP, that separated by "-"</text><path d="M22,166.6328 L22,191.7656 A0,0 0 0 0 22,191.7656 L250,191.7656 A0,0 0 0 0 250,191.7656 L250,184.6328 L341,182.3359 L250,176.6328 L250,176.6328 L240,166.6328 L22,166.6328 A0,0 0 0 0 22,166.6328 " fill="#FEFFDD" style="stroke:#181818;stroke-width:0.5;"/><path d="M240,166.6328 L240,176.6328 L250,176.6328 L240,166.6328 " fill="#FEFFDD" style="stroke:#181818;stroke-width:0.5;"/><text fill="#000000" font-family="sans-serif" font-size="13" lengthAdjust="spacing" textLength="207" x="28" y="183.6997">Server ID DHCP option, IP string.</text><!--MD5=[27abfb56f32eefa7f07c83348fb1ee32]
class GormGenericRepository--><g id="elem_GormGenericRepository"><rect codeLine="5" fill="#F1F1F1" height="48" id="GormGenericRepository" rx="2.5" ry="2.5" style="stroke:#181818;stroke-width:0.5;" width="319" x="835.5" y="518.5"/><ellipse cx="850.5" cy="534.5" fill="#ADD1B2" rx="11" ry="11" style="stroke:#181818;stroke-width:1.0;"/><path d="M853.4688,540.1406 Q852.8906,540.4375 852.25,540.5781 Q851.6094,540.7344 850.9063,540.7344 Q848.4063,540.7344 847.0781,539.0938 Q845.7656,537.4375 845.7656,534.3125 Q845.7656,531.1875 847.0781,529.5313 Q848.4063,527.875 850.9063,527.875 Q851.6094,527.875 852.25,528.0313 Q852.9063,528.1875 853.4688,528.4844 L853.4688,531.2031 Q852.8438,530.625 852.25,530.3594 Q851.6563,530.0781 851.0313,530.0781 Q849.6875,530.0781 849,531.1563 Q848.3125,532.2188 848.3125,534.3125 Q848.3125,536.4063 849,537.4844 Q849.6875,538.5469 851.0313,538.5469 Q851.6563,538.5469 852.25,538.2813 Q852.8438,538 853.4688,537.4219 L853.4688,540.1406 Z " fill="#000000"/><text fill="#000000" font-family="sans-serif" font-size="14" lengthAdjust="spacing" textLength="166" x="864.5" y="539.3467">GormGenericRepository</text><rect fill="#FFFFFF" height="15.9688" style="stroke:#000000;stroke-width:1.0;stroke-dasharray:2.0,2.0;" width="119" x="1038.5" y="515.5"/><text fill="#000000" font-family="sans-serif" font-size="12" font-style="italic" lengthAdjust="spacing" textLength="117" x="1039.5" y="527.6387">IDType, EntityType</text><line style="stroke:#181818;stroke-width:0.5;" x1="836.5" x2="1153.5" y1="550.5" y2="550.5"/><line style="stroke:#181818;stroke-width:0.5;" x1="836.5" x2="1153.5" y1="558.5" y2="558.5"/></g><!--MD5=[10411bf3d928df14173f2f2d27f31b62]
class GormDHCP4ConfigRepository--><g id="elem_GormDHCP4ConfigRepository"><rect codeLine="5" fill="#F1F1F1" height="48" id="GormDHCP4ConfigRepository" rx="2.5" ry="2.5" style="stroke:#181818;stroke-width:0.5;" width="237" x="876.5" y="142.5"/><ellipse cx="891.5" cy="158.5" fill="#ADD1B2" rx="11" ry="11" style="stroke:#181818;stroke-width:1.0;"/><path d="M894.4688,164.1406 Q893.8906,164.4375 893.25,164.5781 Q892.6094,164.7344 891.9063,164.7344 Q889.4063,164.7344 888.0781,163.0938 Q886.7656,161.4375 886.7656,158.3125 Q886.7656,155.1875 888.0781,153.5313 Q889.4063,151.875 891.9063,151.875 Q892.6094,151.875 893.25,152.0313 Q893.9063,152.1875 894.4688,152.4844 L894.4688,155.2031 Q893.8438,154.625 893.25,154.3594 Q892.6563,154.0781 892.0313,154.0781 Q890.6875,154.0781 890,155.1563 Q889.3125,156.2188 889.3125,158.3125 Q889.3125,160.4063 890,161.4844 Q890.6875,162.5469 892.0313,162.5469 Q892.6563,162.5469 893.25,162.2813 Q893.8438,162 894.4688,161.4219 L894.4688,164.1406 Z " fill="#000000"/><text fill="#000000" font-family="sans-serif" font-size="14" lengthAdjust="spacing" textLength="205" x="905.5" y="163.3467">GormDHCP4ConfigRepository</text><line style="stroke:#181818;stroke-width:0.5;" x1="877.5" x2="1112.5" y1="174.5" y2="174.5"/><line style="stroke:#181818;stroke-width:0.5;" x1="877.5" x2="1112.5" y1="182.5" y2="182.5"/></g><g id="elem_DHCP4ConfigTypeNote"><path d="M835,357 L835,397.2656 L1029,397.2656 L1029,367 L1019,357 L835,357 " fill="#FEFFDD" style="stroke:#181818;stroke-width:0.5;"/><path d="M1019,357 L1019,367 L1029,367 L1019,357 " fill="#FEFFDD" style="stroke:#181818;stroke-width:1.0;"/><text fill="#000000" font-family="sans-serif" font-size="13" lengthAdjust="spacing" textLength="169" x="841" y="374.0669">EntityType is DHCP4Config</text><text fill="#000000" font-family="sans-serif" font-size="13" lengthAdjust="spacing" textLength="125" x="841" y="389.1997">IDType is uuid.UUID</text></g><!--MD5=[4afd32b9c3a651e50eee9a88aa9ac7c6]
link EntityUUID to Entity--><g id="link_EntityUUID_Entity"><path codeLine="7" d="M298.88,401.08 C288.33,418.33 273.28,442.94 258.71,466.76 " fill="none" id="EntityUUID-to-Entity" style="stroke:#181818;stroke-width:1.0;"/><polygon fill="#181818" points="251.85,477.98,258.394,474.9509,258.1149,467.7452,251.5708,470.7743,251.85,477.98" style="stroke:#181818;stroke-width:1.0;"/><text fill="#000000" font-family="sans-serif" font-size="13" lengthAdjust="spacing" textLength="125" x="278" y="444.0669">IDType is uuid.UUID</text></g><!--MD5=[a6c7a0eda5b041e127f539f1664bb96a]
link Entity to IEntityModel--><g id="link_Entity_IEntityModel"><path codeLine="17" d="M199.17,607.12 C188.28,657.2 173.02,727.43 161.15,782.03 " fill="none" id="Entity-to-IEntityModel" style="stroke:#181818;stroke-width:1.0;stroke-dasharray:7.0,7.0;"/><polygon fill="none" points="167.95,783.68,156.86,801.74,154.27,780.71,167.95,783.68" style="stroke:#181818;stroke-width:1.0;"/></g><!--MD5=[9af82204c8de28ffc29c451def9da12f]
link DHCP4Config to EntityUUID--><g id="link_DHCP4Config_EntityUUID"><path codeLine="24" d="M351.63,292.1 C343.42,309.94 335.58,326.96 329.14,340.95 " fill="none" id="DHCP4Config-to-EntityUUID" style="stroke:#181818;stroke-width:1.0;"/><polygon fill="#181818" points="323.65,352.88,329.7936,349.1042,328.6712,341.981,322.5276,345.7568,323.65,352.88" style="stroke:#181818;stroke-width:1.0;"/></g><!--MD5=[1b84833638557571905b03f54e842c8c]
link GormGenericRepository to IGenericRepository--><g id="link_GormGenericRepository_IGenericRepository"><path codeLine="7" d="M1009.46,566.66 C1028.79,597.63 1064.73,655.21 1099.95,711.62 " fill="none" id="GormGenericRepository-to-IGenericRepository" style="stroke:#181818;stroke-width:1.0;stroke-dasharray:7.0,7.0;"/><polygon fill="none" points="1105.93,707.99,1110.58,728.66,1094.05,715.4,1105.93,707.99" style="stroke:#181818;stroke-width:1.0;"/></g><!--MD5=[c2f9e68f436d293b982017fa12ba60de]
link GormDHCP4ConfigRepository to GormGenericRepository--><g id="link_GormDHCP4ConfigRepository_GormGenericRepository"><path codeLine="7" d="M1006.36,190.57 C1025.53,232.33 1060.91,323.33 1047,401 C1040.32,438.3 1024.4,478.65 1011.92,506.5 " fill="none" id="GormDHCP4ConfigRepository-to-GormGenericRepository" style="stroke:#181818;stroke-width:1.0;"/><polygon fill="#181818" points="1006.48,518.35,1012.6198,514.5681,1011.4903,507.446,1005.3505,511.2279,1006.48,518.35" style="stroke:#181818;stroke-width:1.0;"/></g><!--MD5=[5427e5d46815a426a2ef53518fbe3f1f]
link GormDHCP4ConfigRepository to DHCP4ConfigTypeNote--><g id="link_GormDHCP4ConfigRepository_DHCP4ConfigTypeNote"><path codeLine="11" d="M988.02,190.61 C975.49,232.07 949.43,318.32 937.81,356.78 " fill="none" id="GormDHCP4ConfigRepository-DHCP4ConfigTypeNote" style="stroke:#181818;stroke-width:1.0;stroke-dasharray:7.0,7.0;"/></g><!--MD5=[068e9b8e523c14a182eea69a7169be69]
link DHCP4ConfigTypeNote to GormGenericRepository--><g id="link_DHCP4ConfigTypeNote_GormGenericRepository"><path codeLine="12" d="M939.35,397.08 C950.43,425.82 971.46,480.4 984.25,513.61 " fill="none" id="DHCP4ConfigTypeNote-to-GormGenericRepository" style="stroke:#181818;stroke-width:1.0;stroke-dasharray:7.0,7.0;"/><polygon fill="#181818" points="986.08,518.35,986.5664,508.5132,984.2774,513.6862,979.1044,511.3973,986.08,518.35" style="stroke:#181818;stroke-width:1.0;"/></g><!--MD5=[e3b850d42eed3be42ea4b5f83b5fd9e8]
link DHCP4Config to DHCP4ConfigTypeNote--><g id="link_DHCP4Config_DHCP4ConfigTypeNote"><path codeLine="13" d="M481.17,196.27 C589.76,239.56 792.21,320.27 884.25,356.97 " fill="none" id="DHCP4Config-DHCP4ConfigTypeNote" style="stroke:#181818;stroke-width:1.0;stroke-dasharray:7.0,7.0;"/></g><!--MD5=[9d5cab1d4075885edcb0740aad0f6f01]
@startuml
!include ../entities/DHCP4Config.puml
!include GormGenericRepository.puml

package infrastructure {
    class GormDHCP4ConfigRepository

    GormDHCP4ConfigRepository -down-* GormGenericRepository

    note "EntityType is DHCP4Config \nIDType is uuid.UUID" as DHCP4ConfigTypeNote

    GormDHCP4ConfigRepository .down. DHCP4ConfigTypeNote
    GormGenericRepository <.up. DHCP4ConfigTypeNote
    DHCP4Config .. DHCP4ConfigTypeNote
}

@enduml

@startuml



package app {
    interface IEntityModel<IDType> {
        +GetID() IDType
        - -
        +GetCreatedAt() time.Time
        - -
        +GetUpdatedAt() *time.Time
        - -
        +GetDeletedAt() *time.Time
    }
}


package domain {
    class EntityUUID {
    }
    EntityUUID - -* Entity : IDType is uuid.UUID
    class Entity<IDType> {
        +ID IDType
        - -
        +CreatedAt time.Time
        - -
        +UpdatedAt *time.Time
        - -
        +DeletedAt gorm.DeletedAt
    }
    Entity .down.|> IEntityModel
}


package domain {
    class DHCP4Config {
        +Name string
        - -
        +Range string
        - -
        +Mask string
        - -
        +NextServer string
        - -
        +ServerID string
        - -
        +Interface string
        - -
        +Gateway string
        - -
        +DNS string
        - -
        +NTP string
    }
    DHCP4Config -down-* EntityUUID

    note left of DHCP4Config::Range
    Start IP and End IP, that separated by "-"
    end note

    note left of DHCP4Config::ServerID
    Server ID DHCP option, IP string.
    end note
}



package app {
    interface IGenericRepository<IDType, interfaces.IEntityModel[IDType]> {
        +GetList(ctx context.Context, orderBy string, orderDirection string, page int, size int, queryBuilder interfaces.IQueryBuilder) ([]EntityType, error)
        - -
        +Count(ctx context.Context, queryBuilder interfaces.IQueryBuilder) (int, error)
        - -
        +IsExist(ctx context.Context, id IDType, queryBuilder interfaces.IQueryBuilder) (bool, error)
        - -
        +NewQueryBuilder(ctx context.Context) interfaces.IQueryBuilder
        - -
        +GetById(ctx context.Context, id IDType) (EntityType, error)
        - -
        +Update(ctx context.Context, entity EntityType) (EntityType, error)
        - -
        +Insert(ctx context.Context, entity EntityType) (EntityType, error)
        - -
        +Delete(ctx context.Context, id IDType) error
        - -
        +DeleteAll(ctx context.Context, queryBuilder interfaces.IQueryBuilder) error
        - -
        +Dispose() error
    }
    note left of IGenericRepository::GetList
      Get list of elements with filtering and pagination
    end note

    note left of IGenericRepository::Count
      Get count of entities with filtering
    end note

    note left of IGenericRepository::IsExist
      Checks that entity with selected conditions is existed
    end note

    note left of IGenericRepository::NewQueryBuilder
      Get new instance of the query builder
    end note

    note left of IGenericRepository::GetById
      Get entity by ID from repository
    end note

    note left of IGenericRepository::Update
      Save the changes to the existing entity in the repository
    end note

    note left of IGenericRepository::Insert
      Add entity to the repository
    end note

    note left of IGenericRepository::Delete
      Delete entity from repository
    end note

    note left of IGenericRepository::DeleteAll
      Delete entities with selected conditions
    end note

    note left of IGenericRepository::Dispose
      Dispose all allocated data
    end note
}


package infrastructure {
    class GormGenericRepository<IDType, EntityType>

    GormGenericRepository .down.|> IGenericRepository
}


package infrastructure {
    class GormDHCP4ConfigRepository

    GormDHCP4ConfigRepository -down-* GormGenericRepository

    note "EntityType is DHCP4Config \nIDType is uuid.UUID" as DHCP4ConfigTypeNote

    GormDHCP4ConfigRepository .down. DHCP4ConfigTypeNote
    GormGenericRepository <.up. DHCP4ConfigTypeNote
    DHCP4Config .. DHCP4ConfigTypeNote
}

@enduml

PlantUML version 1.2022.6(Tue Jun 21 17:34:49 EGST 2022)
(GPL source distribution)
Java Runtime: OpenJDK Runtime Environment
JVM: OpenJDK 64-Bit Server VM
Default Encoding: UTF-8
Language: en
Country: US
--></g></svg>