<?xml version="1.0" encoding="UTF-8" standalone="no"?><svg xmlns="http://www.w3.org/2000/svg" xmlns:xlink="http://www.w3.org/1999/xlink" contentStyleType="text/css" height="1162px" preserveAspectRatio="none" style="width:1715px;height:1162px;background:#FFFFFF;" version="1.1" viewBox="0 0 1715 1162" width="1715px" zoomAndPan="magnify"><defs/><g><!--MD5=[d5ac3844f66b12d9e08170e47495e096]
cluster app--><g id="cluster_app"><path d="M22.5,753 L52.5,753 A3.75,3.75 0 0 1 55,755.5 L62,775.2969 L1705.5,775.2969 A2.5,2.5 0 0 1 1708,777.7969 L1708,1152.5 A2.5,2.5 0 0 1 1705.5,1155 L22.5,1155 A2.5,2.5 0 0 1 20,1152.5 L20,755.5 A2.5,2.5 0 0 1 22.5,753 " style="stroke:#000000;stroke-width:1.5;fill:none;"/><line style="stroke:#000000;stroke-width:1.5;fill:none;" x1="20" x2="62" y1="775.2969" y2="775.2969"/><text fill="#000000" font-family="sans-serif" font-size="14" font-weight="bold" lengthAdjust="spacing" textLength="29" x="24" y="767.9951">app</text></g><!--MD5=[27f772719433d509ddbc20ff768eba08]
cluster domain--><g id="cluster_domain"><path d="M8.5,6 L66.5,6 A3.75,3.75 0 0 1 69,8.5 L76,28.2969 L403.5,28.2969 A2.5,2.5 0 0 1 406,30.7969 L406,717.5 A2.5,2.5 0 0 1 403.5,720 L8.5,720 A2.5,2.5 0 0 1 6,717.5 L6,8.5 A2.5,2.5 0 0 1 8.5,6 " style="stroke:#000000;stroke-width:1.5;fill:none;"/><line style="stroke:#000000;stroke-width:1.5;fill:none;" x1="6" x2="76" y1="28.2969" y2="28.2969"/><text fill="#000000" font-family="sans-serif" font-size="14" font-weight="bold" lengthAdjust="spacing" textLength="57" x="10" y="20.9951">domain</text></g><!--MD5=[77349be1bd27b81b697a0f9b3aded3c8]
cluster infrastructure--><g id="cluster_infrastructure"><path d="M733.5,156 L844.5,156 A3.75,3.75 0 0 1 847,158.5 L854,178.2969 L1080.5,178.2969 A2.5,2.5 0 0 1 1083,180.7969 L1083,677 A2.5,2.5 0 0 1 1080.5,679.5 L733.5,679.5 A2.5,2.5 0 0 1 731,677 L731,158.5 A2.5,2.5 0 0 1 733.5,156 " style="stroke:#000000;stroke-width:1.5;fill:none;"/><line style="stroke:#000000;stroke-width:1.5;fill:none;" x1="731" x2="854" y1="178.2969" y2="178.2969"/><text fill="#000000" font-family="sans-serif" font-size="14" font-weight="bold" lengthAdjust="spacing" textLength="110" x="735" y="170.9951">infrastructure</text></g><!--MD5=[2a39a5be1cc24ddddd6e6286e4ece992]
class IEntityModel--><g id="elem_IEntityModel"><rect codeLine="3" fill="#F1F1F1" height="129.1875" id="IEntityModel" rx="2.5" ry="2.5" style="stroke:#181818;stroke-width:0.5;" width="213" x="35.5" y="899"/><ellipse cx="72.55" cy="915" fill="#B4A7E5" rx="11" ry="11" style="stroke:#181818;stroke-width:1.0;"/><path d="M68.4719,910.7656 L68.4719,908.6094 L75.8625,908.6094 L75.8625,910.7656 L73.3938,910.7656 L73.3938,918.8438 L75.8625,918.8438 L75.8625,921 L68.4719,921 L68.4719,918.8438 L70.9406,918.8438 L70.9406,910.7656 L68.4719,910.7656 Z " fill="#000000"/><text fill="#000000" font-family="sans-serif" font-size="14" font-style="italic" lengthAdjust="spacing" textLength="85" x="91.45" y="919.8467">IEntityModel</text><rect fill="#FFFFFF" height="15.9688" style="stroke:#000000;stroke-width:1.0;stroke-dasharray:2.0,2.0;" width="45" x="206.5" y="896"/><text fill="#000000" font-family="sans-serif" font-size="12" font-style="italic" lengthAdjust="spacing" textLength="43" x="207.5" y="908.1387">IDType</text><line style="stroke:#181818;stroke-width:0.5;" x1="36.5" x2="247.5" y1="931" y2="931"/><ellipse cx="46.5" cy="942" fill="#84BE84" rx="3" ry="3" style="stroke:#038048;stroke-width:1.0;"/><text fill="#000000" font-family="sans-serif" font-size="14" lengthAdjust="spacing" textLength="101" x="55.5" y="947.9951">GetID() IDType</text><line style="stroke:#181818;stroke-width:1.0;" x1="36.5" x2="247.5" y1="955.2969" y2="955.2969"/><ellipse cx="46.5" cy="966.2969" fill="#84BE84" rx="3" ry="3" style="stroke:#038048;stroke-width:1.0;"/><text fill="#000000" font-family="sans-serif" font-size="14" lengthAdjust="spacing" textLength="176" x="55.5" y="972.292">GetCreatedAt() time.Time</text><line style="stroke:#181818;stroke-width:1.0;" x1="36.5" x2="247.5" y1="979.5938" y2="979.5938"/><ellipse cx="46.5" cy="990.5938" fill="#84BE84" rx="3" ry="3" style="stroke:#038048;stroke-width:1.0;"/><text fill="#000000" font-family="sans-serif" font-size="14" lengthAdjust="spacing" textLength="187" x="55.5" y="996.5889">GetUpdatedAt() *time.Time</text><line style="stroke:#181818;stroke-width:1.0;" x1="36.5" x2="247.5" y1="1003.8906" y2="1003.8906"/><ellipse cx="46.5" cy="1014.8906" fill="#84BE84" rx="3" ry="3" style="stroke:#038048;stroke-width:1.0;"/><text fill="#000000" font-family="sans-serif" font-size="14" lengthAdjust="spacing" textLength="183" x="55.5" y="1020.8857">GetDeletedAt() *time.Time</text></g><!--MD5=[b3e0f8dcddb1b27f071a0303a68762bf]
class IGenericRepository--><g id="elem_IGenericRepository"><rect codeLine="3" fill="#F1F1F1" height="274.9688" id="IGenericRepository" rx="2.5" ry="2.5" style="stroke:#181818;stroke-width:0.5;" width="994" x="698" y="826"/><ellipse cx="999.25" cy="842" fill="#B4A7E5" rx="11" ry="11" style="stroke:#181818;stroke-width:1.0;"/><path d="M995.1719,837.7656 L995.1719,835.6094 L1002.5625,835.6094 L1002.5625,837.7656 L1000.0938,837.7656 L1000.0938,845.8438 L1002.5625,845.8438 L1002.5625,848 L995.1719,848 L995.1719,845.8438 L997.6406,845.8438 L997.6406,837.7656 L995.1719,837.7656 Z " fill="#000000"/><text fill="#000000" font-family="sans-serif" font-size="14" font-style="italic" lengthAdjust="spacing" textLength="132" x="1019.75" y="846.8467">IGenericRepository</text><rect fill="#FFFFFF" height="15.9688" style="stroke:#000000;stroke-width:1.0;stroke-dasharray:2.0,2.0;" width="249" x="1446" y="823"/><text fill="#000000" font-family="sans-serif" font-size="12" font-style="italic" lengthAdjust="spacing" textLength="247" x="1447" y="835.1387">IDType, interfaces.IEntityModel[IDType]</text><line style="stroke:#181818;stroke-width:0.5;" x1="699" x2="1691" y1="858" y2="858"/><ellipse cx="709" cy="869" fill="#84BE84" rx="3" ry="3" style="stroke:#038048;stroke-width:1.0;"/><text fill="#000000" font-family="sans-serif" font-size="14" lengthAdjust="spacing" textLength="968" x="718" y="874.9951">GetList(ctx context.Context, orderBy string, orderDirection string, page int, size int, queryBuilder interfaces.IQueryBuilder) ([]EntityType, error)</text><line style="stroke:#181818;stroke-width:1.0;" x1="699" x2="1691" y1="882.2969" y2="882.2969"/><ellipse cx="709" cy="893.2969" fill="#84BE84" rx="3" ry="3" style="stroke:#038048;stroke-width:1.0;"/><text fill="#000000" font-family="sans-serif" font-size="14" lengthAdjust="spacing" textLength="521" x="718" y="899.292">Count(ctx context.Context, queryBuilder interfaces.IQueryBuilder) (int, error)</text><line style="stroke:#181818;stroke-width:1.0;" x1="699" x2="1691" y1="906.5938" y2="906.5938"/><ellipse cx="709" cy="917.5938" fill="#84BE84" rx="3" ry="3" style="stroke:#038048;stroke-width:1.0;"/><text fill="#000000" font-family="sans-serif" font-size="14" lengthAdjust="spacing" textLength="607" x="718" y="923.5889">IsExist(ctx context.Context, id IDType, queryBuilder interfaces.IQueryBuilder) (bool, error)</text><line style="stroke:#181818;stroke-width:1.0;" x1="699" x2="1691" y1="930.8906" y2="930.8906"/><ellipse cx="709" cy="941.8906" fill="#84BE84" rx="3" ry="3" style="stroke:#038048;stroke-width:1.0;"/><text fill="#000000" font-family="sans-serif" font-size="14" lengthAdjust="spacing" textLength="431" x="718" y="947.8857">NewQueryBuilder(ctx context.Context) interfaces.IQueryBuilder</text><line style="stroke:#181818;stroke-width:1.0;" x1="699" x2="1691" y1="955.1875" y2="955.1875"/><ellipse cx="709" cy="966.1875" fill="#84BE84" rx="3" ry="3" style="stroke:#038048;stroke-width:1.0;"/><text fill="#000000" font-family="sans-serif" font-size="14" lengthAdjust="spacing" textLength="397" x="718" y="972.1826">GetById(ctx context.Context, id IDType) (EntityType, error)</text><line style="stroke:#181818;stroke-width:1.0;" x1="699" x2="1691" y1="979.4844" y2="979.4844"/><ellipse cx="709" cy="990.4844" fill="#84BE84" rx="3" ry="3" style="stroke:#038048;stroke-width:1.0;"/><text fill="#000000" font-family="sans-serif" font-size="14" lengthAdjust="spacing" textLength="443" x="718" y="996.4795">Update(ctx context.Context, entity EntityType) (EntityType, error)</text><line style="stroke:#181818;stroke-width:1.0;" x1="699" x2="1691" y1="1003.7813" y2="1003.7813"/><ellipse cx="709" cy="1014.7813" fill="#84BE84" rx="3" ry="3" style="stroke:#038048;stroke-width:1.0;"/><text fill="#000000" font-family="sans-serif" font-size="14" lengthAdjust="spacing" textLength="432" x="718" y="1020.7764">Insert(ctx context.Context, entity EntityType) (EntityType, error)</text><line style="stroke:#181818;stroke-width:1.0;" x1="699" x2="1691" y1="1028.0781" y2="1028.0781"/><ellipse cx="709" cy="1039.0781" fill="#84BE84" rx="3" ry="3" style="stroke:#038048;stroke-width:1.0;"/><text fill="#000000" font-family="sans-serif" font-size="14" lengthAdjust="spacing" textLength="299" x="718" y="1045.0732">Delete(ctx context.Context, id IDType) error</text><line style="stroke:#181818;stroke-width:1.0;" x1="699" x2="1691" y1="1052.375" y2="1052.375"/><ellipse cx="709" cy="1063.375" fill="#84BE84" rx="3" ry="3" style="stroke:#038048;stroke-width:1.0;"/><text fill="#000000" font-family="sans-serif" font-size="14" lengthAdjust="spacing" textLength="505" x="718" y="1069.3701">DeleteAll(ctx context.Context, queryBuilder interfaces.IQueryBuilder) error</text><line style="stroke:#181818;stroke-width:1.0;" x1="699" x2="1691" y1="1076.6719" y2="1076.6719"/><ellipse cx="709" cy="1087.6719" fill="#84BE84" rx="3" ry="3" style="stroke:#038048;stroke-width:1.0;"/><text fill="#000000" font-family="sans-serif" font-size="14" lengthAdjust="spacing" textLength="104" x="718" y="1093.667">Dispose() error</text></g><path d="M283.5,788 L283.5,813.1328 A0,0 0 0 0 283.5,813.1328 L608.5,813.1328 A0,0 0 0 0 608.5,813.1328 L608.5,806 L702,870.1484 L608.5,798 L608.5,798 L598.5,788 L283.5,788 A0,0 0 0 0 283.5,788 " fill="#FEFFDD" style="stroke:#181818;stroke-width:0.5;"/><path d="M598.5,788 L598.5,798 L608.5,798 L598.5,788 " fill="#FEFFDD" style="stroke:#181818;stroke-width:0.5;"/><text fill="#000000" font-family="sans-serif" font-size="13" lengthAdjust="spacing" textLength="304" x="289.5" y="805.0669">Get list of elements with filtering and pagination</text><path d="M283.5,823.1328 L283.5,848.2656 A0,0 0 0 0 283.5,848.2656 L514.5,848.2656 A0,0 0 0 0 514.5,848.2656 L514.5,841.1328 L702,894.4453 L514.5,833.1328 L514.5,833.1328 L504.5,823.1328 L283.5,823.1328 A0,0 0 0 0 283.5,823.1328 " fill="#FEFFDD" style="stroke:#181818;stroke-width:0.5;"/><path d="M504.5,823.1328 L504.5,833.1328 L514.5,833.1328 L504.5,823.1328 " fill="#FEFFDD" style="stroke:#181818;stroke-width:0.5;"/><text fill="#000000" font-family="sans-serif" font-size="13" lengthAdjust="spacing" textLength="210" x="289.5" y="840.1997">Get count of entities with filtering</text><path d="M283.5,858.2656 L283.5,883.3984 A0,0 0 0 0 283.5,883.3984 L640.5,883.3984 A0,0 0 0 0 640.5,883.3984 L640.5,876.2656 L702,918.7422 L640.5,868.2656 L640.5,868.2656 L630.5,858.2656 L283.5,858.2656 A0,0 0 0 0 283.5,858.2656 " fill="#FEFFDD" style="stroke:#181818;stroke-width:0.5;"/><path d="M630.5,858.2656 L630.5,868.2656 L640.5,868.2656 L630.5,858.2656 " fill="#FEFFDD" style="stroke:#181818;stroke-width:0.5;"/><text fill="#000000" font-family="sans-serif" font-size="13" lengthAdjust="spacing" textLength="336" x="289.5" y="875.3325">Checks that entity with selected conditions is existed</text><path d="M283.5,893.3984 L283.5,918.5313 A0,0 0 0 0 283.5,918.5313 L542.5,918.5313 A0,0 0 0 0 542.5,918.5313 L542.5,911.3984 L702,943.0391 L542.5,903.3984 L542.5,903.3984 L532.5,893.3984 L283.5,893.3984 A0,0 0 0 0 283.5,893.3984 " fill="#FEFFDD" style="stroke:#181818;stroke-width:0.5;"/><path d="M532.5,893.3984 L532.5,903.3984 L542.5,903.3984 L532.5,893.3984 " fill="#FEFFDD" style="stroke:#181818;stroke-width:0.5;"/><text fill="#000000" font-family="sans-serif" font-size="13" lengthAdjust="spacing" textLength="238" x="289.5" y="910.4653">Get new instance of the query builder</text><path d="M283.5,928.5313 L283.5,953.6641 A0,0 0 0 0 283.5,953.6641 L505.5,953.6641 A0,0 0 0 0 505.5,953.6641 L505.5,946.5313 L702,967.3359 L505.5,938.5313 L505.5,938.5313 L495.5,928.5313 L283.5,928.5313 A0,0 0 0 0 283.5,928.5313 " fill="#FEFFDD" style="stroke:#181818;stroke-width:0.5;"/><path d="M495.5,928.5313 L495.5,938.5313 L505.5,938.5313 L495.5,928.5313 " fill="#FEFFDD" style="stroke:#181818;stroke-width:0.5;"/><text fill="#000000" font-family="sans-serif" font-size="13" lengthAdjust="spacing" textLength="201" x="289.5" y="945.5981">Get entity by ID from repository</text><path d="M283.5,963.6641 L283.5,988.7969 A0,0 0 0 0 283.5,988.7969 L662.5,988.7969 A0,0 0 0 0 662.5,988.7969 L662.5,981.6641 L702,991.6328 L662.5,973.6641 L662.5,973.6641 L652.5,963.6641 L283.5,963.6641 A0,0 0 0 0 283.5,963.6641 " fill="#FEFFDD" style="stroke:#181818;stroke-width:0.5;"/><path d="M652.5,963.6641 L652.5,973.6641 L662.5,973.6641 L652.5,963.6641 " fill="#FEFFDD" style="stroke:#181818;stroke-width:0.5;"/><text fill="#000000" font-family="sans-serif" font-size="13" lengthAdjust="spacing" textLength="358" x="289.5" y="980.731">Save the changes to the existing entity in the repository</text><path d="M283.5,998.7969 L283.5,1023.9297 A0,0 0 0 0 283.5,1023.9297 L479.5,1023.9297 A0,0 0 0 0 479.5,1023.9297 L479.5,1016.7969 L702,1015.9297 L479.5,1008.7969 L479.5,1008.7969 L469.5,998.7969 L283.5,998.7969 A0,0 0 0 0 283.5,998.7969 " fill="#FEFFDD" style="stroke:#181818;stroke-width:0.5;"/><path d="M469.5,998.7969 L469.5,1008.7969 L479.5,1008.7969 L469.5,998.7969 " fill="#FEFFDD" style="stroke:#181818;stroke-width:0.5;"/><text fill="#000000" font-family="sans-serif" font-size="13" lengthAdjust="spacing" textLength="175" x="289.5" y="1015.8638">Add entity to the repository</text><path d="M283.5,1033.9297 L283.5,1059.0625 A0,0 0 0 0 283.5,1059.0625 L488.5,1059.0625 A0,0 0 0 0 488.5,1059.0625 L488.5,1051.9297 L702,1040.2266 L488.5,1043.9297 L488.5,1043.9297 L478.5,1033.9297 L283.5,1033.9297 A0,0 0 0 0 283.5,1033.9297 " fill="#FEFFDD" style="stroke:#181818;stroke-width:0.5;"/><path d="M478.5,1033.9297 L478.5,1043.9297 L488.5,1043.9297 L478.5,1033.9297 " fill="#FEFFDD" style="stroke:#181818;stroke-width:0.5;"/><text fill="#000000" font-family="sans-serif" font-size="13" lengthAdjust="spacing" textLength="184" x="289.5" y="1050.9966">Delete entity from repository</text><path d="M283.5,1069.0625 L283.5,1094.1953 A0,0 0 0 0 283.5,1094.1953 L553.5,1094.1953 A0,0 0 0 0 553.5,1094.1953 L553.5,1087.0625 L702,1064.5234 L553.5,1079.0625 L553.5,1079.0625 L543.5,1069.0625 L283.5,1069.0625 A0,0 0 0 0 283.5,1069.0625 " fill="#FEFFDD" style="stroke:#181818;stroke-width:0.5;"/><path d="M543.5,1069.0625 L543.5,1079.0625 L553.5,1079.0625 L543.5,1069.0625 " fill="#FEFFDD" style="stroke:#181818;stroke-width:0.5;"/><text fill="#000000" font-family="sans-serif" font-size="13" lengthAdjust="spacing" textLength="249" x="289.5" y="1086.1294">Delete entities with selected conditions</text><path d="M283.5,1104.1953 L283.5,1129.3281 A0,0 0 0 0 283.5,1129.3281 L468.5,1129.3281 A0,0 0 0 0 468.5,1129.3281 L468.5,1122.1953 L702,1088.8203 L468.5,1114.1953 L468.5,1114.1953 L458.5,1104.1953 L283.5,1104.1953 A0,0 0 0 0 283.5,1104.1953 " fill="#FEFFDD" style="stroke:#181818;stroke-width:0.5;"/><path d="M458.5,1104.1953 L458.5,1114.1953 L468.5,1114.1953 L458.5,1104.1953 " fill="#FEFFDD" style="stroke:#181818;stroke-width:0.5;"/><text fill="#000000" font-family="sans-serif" font-size="13" lengthAdjust="spacing" textLength="164" x="289.5" y="1121.2622">Dispose all allocated data</text><!--MD5=[1045d07ae824aea072cabb0fb8284887]
class EntityUUID--><g id="elem_EntityUUID"><rect codeLine="5" fill="#F1F1F1" height="48" id="EntityUUID" rx="2.5" ry="2.5" style="stroke:#181818;stroke-width:0.5;" width="104" x="125" y="450"/><ellipse cx="140" cy="466" fill="#ADD1B2" rx="11" ry="11" style="stroke:#181818;stroke-width:1.0;"/><path d="M142.9688,471.6406 Q142.3906,471.9375 141.75,472.0781 Q141.1094,472.2344 140.4063,472.2344 Q137.9063,472.2344 136.5781,470.5938 Q135.2656,468.9375 135.2656,465.8125 Q135.2656,462.6875 136.5781,461.0313 Q137.9063,459.375 140.4063,459.375 Q141.1094,459.375 141.75,459.5313 Q142.4063,459.6875 142.9688,459.9844 L142.9688,462.7031 Q142.3438,462.125 141.75,461.8594 Q141.1563,461.5781 140.5313,461.5781 Q139.1875,461.5781 138.5,462.6563 Q137.8125,463.7188 137.8125,465.8125 Q137.8125,467.9063 138.5,468.9844 Q139.1875,470.0469 140.5313,470.0469 Q141.1563,470.0469 141.75,469.7813 Q142.3438,469.5 142.9688,468.9219 L142.9688,471.6406 Z " fill="#000000"/><text fill="#000000" font-family="sans-serif" font-size="14" lengthAdjust="spacing" textLength="72" x="154" y="470.8467">EntityUUID</text><line style="stroke:#181818;stroke-width:0.5;" x1="126" x2="228" y1="482" y2="482"/><line style="stroke:#181818;stroke-width:0.5;" x1="126" x2="228" y1="490" y2="490"/></g><!--MD5=[be996cdb8e6bf2fc7cb89c555f2cd144]
class Entity--><g id="elem_Entity"><rect codeLine="8" fill="#F1F1F1" height="129.1875" id="Entity" rx="2.5" ry="2.5" style="stroke:#181818;stroke-width:0.5;" width="208" x="58" y="575"/><ellipse cx="115.25" cy="591" fill="#ADD1B2" rx="11" ry="11" style="stroke:#181818;stroke-width:1.0;"/><path d="M118.2188,596.6406 Q117.6406,596.9375 117,597.0781 Q116.3594,597.2344 115.6563,597.2344 Q113.1563,597.2344 111.8281,595.5938 Q110.5156,593.9375 110.5156,590.8125 Q110.5156,587.6875 111.8281,586.0313 Q113.1563,584.375 115.6563,584.375 Q116.3594,584.375 117,584.5313 Q117.6563,584.6875 118.2188,584.9844 L118.2188,587.7031 Q117.5938,587.125 117,586.8594 Q116.4063,586.5781 115.7813,586.5781 Q114.4375,586.5781 113.75,587.6563 Q113.0625,588.7188 113.0625,590.8125 Q113.0625,592.9063 113.75,593.9844 Q114.4375,595.0469 115.7813,595.0469 Q116.4063,595.0469 117,594.7813 Q117.5938,594.5 118.2188,593.9219 L118.2188,596.6406 Z " fill="#000000"/><text fill="#000000" font-family="sans-serif" font-size="14" lengthAdjust="spacing" textLength="38" x="135.75" y="595.8467">Entity</text><rect fill="#FFFFFF" height="15.9688" style="stroke:#000000;stroke-width:1.0;stroke-dasharray:2.0,2.0;" width="45" x="224" y="572"/><text fill="#000000" font-family="sans-serif" font-size="12" font-style="italic" lengthAdjust="spacing" textLength="43" x="225" y="584.1387">IDType</text><line style="stroke:#181818;stroke-width:0.5;" x1="59" x2="265" y1="607" y2="607"/><ellipse cx="69" cy="618" fill="none" rx="3" ry="3" style="stroke:#038048;stroke-width:1.0;"/><text fill="#000000" font-family="sans-serif" font-size="14" lengthAdjust="spacing" textLength="66" x="78" y="623.9951">ID IDType</text><line style="stroke:#181818;stroke-width:1.0;" x1="59" x2="265" y1="631.2969" y2="631.2969"/><ellipse cx="69" cy="642.2969" fill="none" rx="3" ry="3" style="stroke:#038048;stroke-width:1.0;"/><text fill="#000000" font-family="sans-serif" font-size="14" lengthAdjust="spacing" textLength="141" x="78" y="648.292">CreatedAt time.Time</text><line style="stroke:#181818;stroke-width:1.0;" x1="59" x2="265" y1="655.5938" y2="655.5938"/><ellipse cx="69" cy="666.5938" fill="none" rx="3" ry="3" style="stroke:#038048;stroke-width:1.0;"/><text fill="#000000" font-family="sans-serif" font-size="14" lengthAdjust="spacing" textLength="152" x="78" y="672.5889">UpdatedAt *time.Time</text><line style="stroke:#181818;stroke-width:1.0;" x1="59" x2="265" y1="679.8906" y2="679.8906"/><ellipse cx="69" cy="690.8906" fill="none" rx="3" ry="3" style="stroke:#038048;stroke-width:1.0;"/><text fill="#000000" font-family="sans-serif" font-size="14" lengthAdjust="spacing" textLength="182" x="78" y="696.8857">DeletedAt gorm.DeletedAt</text></g><!--MD5=[73025a93428e560011f09646c3da1997]
class HTTPLog--><g id="elem_HTTPLog"><rect codeLine="5" fill="#F1F1F1" height="347.8594" id="HTTPLog" rx="2.5" ry="2.5" style="stroke:#181818;stroke-width:0.5;" width="367" x="22.5" y="41"/><ellipse cx="170.75" cy="57" fill="#ADD1B2" rx="11" ry="11" style="stroke:#181818;stroke-width:1.0;"/><path d="M173.7188,62.6406 Q173.1406,62.9375 172.5,63.0781 Q171.8594,63.2344 171.1563,63.2344 Q168.6563,63.2344 167.3281,61.5938 Q166.0156,59.9375 166.0156,56.8125 Q166.0156,53.6875 167.3281,52.0313 Q168.6563,50.375 171.1563,50.375 Q171.8594,50.375 172.5,50.5313 Q173.1563,50.6875 173.7188,50.9844 L173.7188,53.7031 Q173.0938,53.125 172.5,52.8594 Q171.9063,52.5781 171.2813,52.5781 Q169.9375,52.5781 169.25,53.6563 Q168.5625,54.7188 168.5625,56.8125 Q168.5625,58.9063 169.25,59.9844 Q169.9375,61.0469 171.2813,61.0469 Q171.9063,61.0469 172.5,60.7813 Q173.0938,60.5 173.7188,59.9219 L173.7188,62.6406 Z " fill="#000000"/><text fill="#000000" font-family="sans-serif" font-size="14" lengthAdjust="spacing" textLength="62" x="191.25" y="61.8467">HTTPLog</text><line style="stroke:#181818;stroke-width:0.5;" x1="23.5" x2="388.5" y1="73" y2="73"/><ellipse cx="33.5" cy="84" fill="none" rx="3" ry="3" style="stroke:#038048;stroke-width:1.0;"/><text fill="#000000" font-family="sans-serif" font-size="14" lengthAdjust="spacing" textLength="133" x="42.5" y="89.9951">HTTPMethod string</text><line style="stroke:#181818;stroke-width:1.0;" x1="23.5" x2="388.5" y1="97.2969" y2="97.2969"/><ellipse cx="33.5" cy="108.2969" fill="none" rx="3" ry="3" style="stroke:#038048;stroke-width:1.0;"/><text fill="#000000" font-family="sans-serif" font-size="14" lengthAdjust="spacing" textLength="96" x="42.5" y="114.292">Domain string</text><line style="stroke:#181818;stroke-width:1.0;" x1="23.5" x2="388.5" y1="121.5938" y2="121.5938"/><ellipse cx="33.5" cy="132.5938" fill="none" rx="3" ry="3" style="stroke:#038048;stroke-width:1.0;"/><text fill="#000000" font-family="sans-serif" font-size="14" lengthAdjust="spacing" textLength="234" x="42.5" y="138.5889">RelativePath string `gorm:"index"`</text><line style="stroke:#181818;stroke-width:1.0;" x1="23.5" x2="388.5" y1="145.8906" y2="145.8906"/><ellipse cx="33.5" cy="156.8906" fill="none" rx="3" ry="3" style="stroke:#038048;stroke-width:1.0;"/><text fill="#000000" font-family="sans-serif" font-size="14" lengthAdjust="spacing" textLength="135" x="42.5" y="162.8857">QueryParams string</text><line style="stroke:#181818;stroke-width:1.0;" x1="23.5" x2="388.5" y1="170.1875" y2="170.1875"/><ellipse cx="33.5" cy="181.1875" fill="none" rx="3" ry="3" style="stroke:#038048;stroke-width:1.0;"/><text fill="#000000" font-family="sans-serif" font-size="14" lengthAdjust="spacing" textLength="262" x="42.5" y="187.1826">QueryParamsInd string `gorm:"index"`</text><line style="stroke:#181818;stroke-width:1.0;" x1="23.5" x2="388.5" y1="194.4844" y2="194.4844"/><ellipse cx="33.5" cy="205.4844" fill="none" rx="3" ry="3" style="stroke:#038048;stroke-width:1.0;"/><text fill="#000000" font-family="sans-serif" font-size="14" lengthAdjust="spacing" textLength="200" x="42.5" y="211.4795">ClientIP string `gorm:"index"`</text><line style="stroke:#181818;stroke-width:1.0;" x1="23.5" x2="388.5" y1="218.7813" y2="218.7813"/><ellipse cx="33.5" cy="229.7813" fill="none" rx="3" ry="3" style="stroke:#038048;stroke-width:1.0;"/><text fill="#000000" font-family="sans-serif" font-size="14" lengthAdjust="spacing" textLength="74" x="42.5" y="235.7764">Latency int</text><line style="stroke:#181818;stroke-width:1.0;" x1="23.5" x2="388.5" y1="243.0781" y2="243.0781"/><ellipse cx="33.5" cy="254.0781" fill="none" rx="3" ry="3" style="stroke:#038048;stroke-width:1.0;"/><text fill="#000000" font-family="sans-serif" font-size="14" lengthAdjust="spacing" textLength="137" x="42.5" y="260.0732">RequestBody string</text><line style="stroke:#181818;stroke-width:1.0;" x1="23.5" x2="388.5" y1="267.375" y2="267.375"/><ellipse cx="33.5" cy="278.375" fill="none" rx="3" ry="3" style="stroke:#038048;stroke-width:1.0;"/><text fill="#000000" font-family="sans-serif" font-size="14" lengthAdjust="spacing" textLength="149" x="42.5" y="284.3701">ResponseBody string</text><line style="stroke:#181818;stroke-width:1.0;" x1="23.5" x2="388.5" y1="291.6719" y2="291.6719"/><ellipse cx="33.5" cy="302.6719" fill="none" rx="3" ry="3" style="stroke:#038048;stroke-width:1.0;"/><text fill="#000000" font-family="sans-serif" font-size="14" lengthAdjust="spacing" textLength="160" x="42.5" y="308.667">RequestHeaders string</text><line style="stroke:#181818;stroke-width:1.0;" x1="23.5" x2="388.5" y1="315.9688" y2="315.9688"/><ellipse cx="33.5" cy="326.9688" fill="none" rx="3" ry="3" style="stroke:#038048;stroke-width:1.0;"/><text fill="#000000" font-family="sans-serif" font-size="14" lengthAdjust="spacing" textLength="172" x="42.5" y="332.9639">ResponseHeaders string</text><line style="stroke:#181818;stroke-width:1.0;" x1="23.5" x2="388.5" y1="340.2656" y2="340.2656"/><ellipse cx="33.5" cy="351.2656" fill="none" rx="3" ry="3" style="stroke:#038048;stroke-width:1.0;"/><text fill="#000000" font-family="sans-serif" font-size="14" lengthAdjust="spacing" textLength="214" x="42.5" y="357.2607">CustomRequestHeaders string</text><line style="stroke:#181818;stroke-width:1.0;" x1="23.5" x2="388.5" y1="364.5625" y2="364.5625"/><ellipse cx="33.5" cy="375.5625" fill="none" rx="3" ry="3" style="stroke:#038048;stroke-width:1.0;"/><text fill="#000000" font-family="sans-serif" font-size="14" lengthAdjust="spacing" textLength="341" x="42.5" y="381.5576">CustomRequestHeadersInd string `gorm:"index"`</text></g><!--MD5=[27abfb56f32eefa7f07c83348fb1ee32]
class GormGenericRepository--><g id="elem_GormGenericRepository"><rect codeLine="5" fill="#F1F1F1" height="48" id="GormGenericRepository" rx="2.5" ry="2.5" style="stroke:#181818;stroke-width:0.5;" width="319" x="747.5" y="615.5"/><ellipse cx="762.5" cy="631.5" fill="#ADD1B2" rx="11" ry="11" style="stroke:#181818;stroke-width:1.0;"/><path d="M765.4688,637.1406 Q764.8906,637.4375 764.25,637.5781 Q763.6094,637.7344 762.9063,637.7344 Q760.4063,637.7344 759.0781,636.0938 Q757.7656,634.4375 757.7656,631.3125 Q757.7656,628.1875 759.0781,626.5313 Q760.4063,624.875 762.9063,624.875 Q763.6094,624.875 764.25,625.0313 Q764.9063,625.1875 765.4688,625.4844 L765.4688,628.2031 Q764.8438,627.625 764.25,627.3594 Q763.6563,627.0781 763.0313,627.0781 Q761.6875,627.0781 761,628.1563 Q760.3125,629.2188 760.3125,631.3125 Q760.3125,633.4063 761,634.4844 Q761.6875,635.5469 763.0313,635.5469 Q763.6563,635.5469 764.25,635.2813 Q764.8438,635 765.4688,634.4219 L765.4688,637.1406 Z " fill="#000000"/><text fill="#000000" font-family="sans-serif" font-size="14" lengthAdjust="spacing" textLength="166" x="776.5" y="636.3467">GormGenericRepository</text><rect fill="#FFFFFF" height="15.9688" style="stroke:#000000;stroke-width:1.0;stroke-dasharray:2.0,2.0;" width="119" x="950.5" y="612.5"/><text fill="#000000" font-family="sans-serif" font-size="12" font-style="italic" lengthAdjust="spacing" textLength="117" x="951.5" y="624.6387">IDType, EntityType</text><line style="stroke:#181818;stroke-width:0.5;" x1="748.5" x2="1065.5" y1="647.5" y2="647.5"/><line style="stroke:#181818;stroke-width:0.5;" x1="748.5" x2="1065.5" y1="655.5" y2="655.5"/></g><!--MD5=[e940a354b4396e25a2d0458eb760a739]
class GormHTTPLogRepository--><g id="elem_GormHTTPLogRepository"><rect codeLine="6" fill="#F1F1F1" height="48" id="GormHTTPLogRepository" rx="2.5" ry="2.5" style="stroke:#181818;stroke-width:0.5;" width="206" x="813" y="191"/><ellipse cx="828" cy="207" fill="#ADD1B2" rx="11" ry="11" style="stroke:#181818;stroke-width:1.0;"/><path d="M830.9688,212.6406 Q830.3906,212.9375 829.75,213.0781 Q829.1094,213.2344 828.4063,213.2344 Q825.9063,213.2344 824.5781,211.5938 Q823.2656,209.9375 823.2656,206.8125 Q823.2656,203.6875 824.5781,202.0313 Q825.9063,200.375 828.4063,200.375 Q829.1094,200.375 829.75,200.5313 Q830.4063,200.6875 830.9688,200.9844 L830.9688,203.7031 Q830.3438,203.125 829.75,202.8594 Q829.1563,202.5781 828.5313,202.5781 Q827.1875,202.5781 826.5,203.6563 Q825.8125,204.7188 825.8125,206.8125 Q825.8125,208.9063 826.5,209.9844 Q827.1875,211.0469 828.5313,211.0469 Q829.1563,211.0469 829.75,210.7813 Q830.3438,210.5 830.9688,209.9219 L830.9688,212.6406 Z " fill="#000000"/><text fill="#000000" font-family="sans-serif" font-size="14" lengthAdjust="spacing" textLength="174" x="842" y="211.8467">GormHTTPLogRepository</text><line style="stroke:#181818;stroke-width:0.5;" x1="814" x2="1018" y1="223" y2="223"/><line style="stroke:#181818;stroke-width:0.5;" x1="814" x2="1018" y1="231" y2="231"/></g><g id="elem_HTTPLogTypeNote"><path d="M747,454 L747,494.2656 L911,494.2656 L911,464 L901,454 L747,454 " fill="#FEFFDD" style="stroke:#181818;stroke-width:0.5;"/><path d="M901,454 L901,464 L911,464 L901,454 " fill="#FEFFDD" style="stroke:#181818;stroke-width:1.0;"/><text fill="#000000" font-family="sans-serif" font-size="13" lengthAdjust="spacing" textLength="139" x="753" y="471.0669">EntityType is HTTPLog</text><text fill="#000000" font-family="sans-serif" font-size="13" lengthAdjust="spacing" textLength="125" x="753" y="486.1997">IDType is uuid.UUID</text></g><!--MD5=[4afd32b9c3a651e50eee9a88aa9ac7c6]
link EntityUUID to Entity--><g id="link_EntityUUID_Entity"><path codeLine="7" d="M174.88,498.08 C173.34,514.86 171.16,538.61 169.03,561.82 " fill="none" id="EntityUUID-to-Entity" style="stroke:#181818;stroke-width:1.0;"/><polygon fill="#181818" points="167.83,574.98,172.3601,569.3695,168.9236,563.0299,164.3934,568.6404,167.83,574.98" style="stroke:#181818;stroke-width:1.0;"/><text fill="#000000" font-family="sans-serif" font-size="13" lengthAdjust="spacing" textLength="125" x="173" y="541.0669">IDType is uuid.UUID</text></g><!--MD5=[a6c7a0eda5b041e127f539f1664bb96a]
link Entity to IEntityModel--><g id="link_Entity_IEntityModel"><path codeLine="17" d="M158.05,704.12 C154.94,754.09 150.6,824.12 147.21,878.67 " fill="none" id="Entity-to-IEntityModel" style="stroke:#181818;stroke-width:1.0;stroke-dasharray:7.0,7.0;"/><polygon fill="none" points="154.19,879.21,145.96,898.74,140.21,878.34,154.19,879.21" style="stroke:#181818;stroke-width:1.0;"/></g><!--MD5=[54e3c72be1b2c4e3042e9850598d7bdc]
link HTTPLog to EntityUUID--><g id="link_HTTPLog_EntityUUID"><path codeLine="32" d="M186.46,389.2 C184.46,406.93 182.6,423.36 181.07,436.89 " fill="none" id="HTTPLog-to-EntityUUID" style="stroke:#181818;stroke-width:1.0;"/><polygon fill="#181818" points="179.61,449.88,184.2575,444.3663,180.9554,437.9557,176.3079,443.4694,179.61,449.88" style="stroke:#181818;stroke-width:1.0;"/></g><!--MD5=[1b84833638557571905b03f54e842c8c]
link GormGenericRepository to IGenericRepository--><g id="link_GormGenericRepository_IGenericRepository"><path codeLine="7" d="M927.71,663.66 C955.71,694.96 1008.02,753.45 1059,810.44 " fill="none" id="GormGenericRepository-to-IGenericRepository" style="stroke:#181818;stroke-width:1.0;stroke-dasharray:7.0,7.0;"/><polygon fill="none" points="1064.5,806.09,1072.61,825.66,1054.06,815.42,1064.5,806.09" style="stroke:#181818;stroke-width:1.0;"/></g><!--MD5=[f46aec94c22548f9c4a0be8a032b7be5]
link GormHTTPLogRepository to GormGenericRepository--><g id="link_GormHTTPLogRepository_GormGenericRepository"><path codeLine="8" d="M918.99,239.06 C924.81,287.22 936.47,401.98 929,498 C926.22,533.75 919.51,574.16 914.23,602.43 " fill="none" id="GormHTTPLogRepository-to-GormGenericRepository" style="stroke:#181818;stroke-width:1.0;"/><polygon fill="#181818" points="911.77,615.26,916.826,610.1183,914.0244,603.4737,908.9684,608.6154,911.77,615.26" style="stroke:#181818;stroke-width:1.0;"/></g><!--MD5=[54ed7bb52c2ec5bd3e82edaf34272a98]
link GormHTTPLogRepository to HTTPLogTypeNote--><g id="link_GormHTTPLogRepository_HTTPLogTypeNote"><path codeLine="12" d="M908.13,239.26 C891.1,289.55 851.14,407.59 835.47,453.89 " fill="none" id="GormHTTPLogRepository-HTTPLogTypeNote" style="stroke:#181818;stroke-width:1.0;stroke-dasharray:7.0,7.0;"/></g><!--MD5=[cbac7c1086cbe92d9c74639284353031]
link HTTPLogTypeNote to GormGenericRepository--><g id="link_HTTPLogTypeNote_GormGenericRepository"><path codeLine="13" d="M838.1,494.08 C851.81,522.82 877.85,577.4 893.69,610.61 " fill="none" id="HTTPLogTypeNote-to-GormGenericRepository" style="stroke:#181818;stroke-width:1.0;stroke-dasharray:7.0,7.0;"/><polygon fill="#181818" points="895.95,615.35,895.6787,605.5049,893.7942,610.8386,888.4605,608.9541,895.95,615.35" style="stroke:#181818;stroke-width:1.0;"/></g><!--MD5=[f952aa9c5e7807a35bc66caa1c801143]
link HTTPLog to HTTPLogTypeNote--><g id="link_HTTPLog_HTTPLogTypeNote"><path codeLine="14" d="M389.55,291.72 C525.4,347.76 700.56,420.01 782.66,453.88 " fill="none" id="HTTPLog-HTTPLogTypeNote" style="stroke:#181818;stroke-width:1.0;stroke-dasharray:7.0,7.0;"/></g><!--MD5=[ab792a3396c9c3968b166cbf9a8f8e77]
@startuml

!include ../entities/HTTPLog.puml
!include GormGenericRepository.puml

package infrastructure {
    class GormHTTPLogRepository

    GormHTTPLogRepository -down-* GormGenericRepository

    note "EntityType is HTTPLog \nIDType is uuid.UUID" as HTTPLogTypeNote

    GormHTTPLogRepository .down. HTTPLogTypeNote
    GormGenericRepository <.up. HTTPLogTypeNote
    HTTPLog .. HTTPLogTypeNote
}

@enduml

@startuml




package app {
    interface IEntityModel<IDType> {
        +GetID() IDType
        - -
        +GetCreatedAt() time.Time
        - -
        +GetUpdatedAt() *time.Time
        - -
        +GetDeletedAt() *time.Time
    }
}


package domain {
    class EntityUUID {
    }
    EntityUUID - -* Entity : IDType is uuid.UUID
    class Entity<IDType> {
        +ID IDType
        - -
        +CreatedAt time.Time
        - -
        +UpdatedAt *time.Time
        - -
        +DeletedAt gorm.DeletedAt
    }
    Entity .down.|> IEntityModel
}


package domain {
    class HTTPLog {
        +HTTPMethod string
        - -
        +Domain string
        - -
        +RelativePath string `gorm:"index"`
        - -
        +QueryParams string
        - -
        +QueryParamsInd string `gorm:"index"`
        - -
        +ClientIP string `gorm:"index"`
        - -
        +Latency int
        - -
        +RequestBody string
        - -
        +ResponseBody string
        - -
        +RequestHeaders string
        - -
        +ResponseHeaders string
        - -
        +CustomRequestHeaders string
        - -
        +CustomRequestHeadersInd string `gorm:"index"`
    }
    HTTPLog -down-* EntityUUID
}



package app {
    interface IGenericRepository<IDType, interfaces.IEntityModel[IDType]> {
        +GetList(ctx context.Context, orderBy string, orderDirection string, page int, size int, queryBuilder interfaces.IQueryBuilder) ([]EntityType, error)
        - -
        +Count(ctx context.Context, queryBuilder interfaces.IQueryBuilder) (int, error)
        - -
        +IsExist(ctx context.Context, id IDType, queryBuilder interfaces.IQueryBuilder) (bool, error)
        - -
        +NewQueryBuilder(ctx context.Context) interfaces.IQueryBuilder
        - -
        +GetById(ctx context.Context, id IDType) (EntityType, error)
        - -
        +Update(ctx context.Context, entity EntityType) (EntityType, error)
        - -
        +Insert(ctx context.Context, entity EntityType) (EntityType, error)
        - -
        +Delete(ctx context.Context, id IDType) error
        - -
        +DeleteAll(ctx context.Context, queryBuilder interfaces.IQueryBuilder) error
        - -
        +Dispose() error
    }
    note left of IGenericRepository::GetList
      Get list of elements with filtering and pagination
    end note

    note left of IGenericRepository::Count
      Get count of entities with filtering
    end note

    note left of IGenericRepository::IsExist
      Checks that entity with selected conditions is existed
    end note

    note left of IGenericRepository::NewQueryBuilder
      Get new instance of the query builder
    end note

    note left of IGenericRepository::GetById
      Get entity by ID from repository
    end note

    note left of IGenericRepository::Update
      Save the changes to the existing entity in the repository
    end note

    note left of IGenericRepository::Insert
      Add entity to the repository
    end note

    note left of IGenericRepository::Delete
      Delete entity from repository
    end note

    note left of IGenericRepository::DeleteAll
      Delete entities with selected conditions
    end note

    note left of IGenericRepository::Dispose
      Dispose all allocated data
    end note
}


package infrastructure {
    class GormGenericRepository<IDType, EntityType>

    GormGenericRepository .down.|> IGenericRepository
}


package infrastructure {
    class GormHTTPLogRepository

    GormHTTPLogRepository -down-* GormGenericRepository

    note "EntityType is HTTPLog \nIDType is uuid.UUID" as HTTPLogTypeNote

    GormHTTPLogRepository .down. HTTPLogTypeNote
    GormGenericRepository <.up. HTTPLogTypeNote
    HTTPLog .. HTTPLogTypeNote
}

@enduml

PlantUML version 1.2022.6(Tue Jun 21 17:34:49 EGST 2022)
(GPL source distribution)
Java Runtime: OpenJDK Runtime Environment
JVM: OpenJDK 64-Bit Server VM
Default Encoding: UTF-8
Language: en
Country: US
--></g></svg>