<?xml version="1.0" encoding="UTF-8" standalone="no"?><svg xmlns="http://www.w3.org/2000/svg" xmlns:xlink="http://www.w3.org/1999/xlink" contentStyleType="text/css" height="992px" preserveAspectRatio="none" style="width:1710px;height:992px;background:#FFFFFF;" version="1.1" viewBox="0 0 1710 992" width="1710px" zoomAndPan="magnify"><defs/><g><!--MD5=[d5ac3844f66b12d9e08170e47495e096]
cluster app--><g id="cluster_app"><path d="M17.5,583 L47.5,583 A3.75,3.75 0 0 1 50,585.5 L57,605.2969 L1700.5,605.2969 A2.5,2.5 0 0 1 1703,607.7969 L1703,982.5 A2.5,2.5 0 0 1 1700.5,985 L17.5,985 A2.5,2.5 0 0 1 15,982.5 L15,585.5 A2.5,2.5 0 0 1 17.5,583 " style="stroke:#000000;stroke-width:1.5;fill:none;"/><line style="stroke:#000000;stroke-width:1.5;fill:none;" x1="15" x2="57" y1="605.2969" y2="605.2969"/><text fill="#000000" font-family="sans-serif" font-size="14" font-weight="bold" lengthAdjust="spacing" textLength="29" x="19" y="597.9951">app</text></g><!--MD5=[27f772719433d509ddbc20ff768eba08]
cluster domain--><g id="cluster_domain"><path d="M8.5,6 L66.5,6 A3.75,3.75 0 0 1 69,8.5 L76,28.2969 L398.5,28.2969 A2.5,2.5 0 0 1 401,30.7969 L401,547.5 A2.5,2.5 0 0 1 398.5,550 L8.5,550 A2.5,2.5 0 0 1 6,547.5 L6,8.5 A2.5,2.5 0 0 1 8.5,6 " style="stroke:#000000;stroke-width:1.5;fill:none;"/><line style="stroke:#000000;stroke-width:1.5;fill:none;" x1="6" x2="76" y1="28.2969" y2="28.2969"/><text fill="#000000" font-family="sans-serif" font-size="14" font-weight="bold" lengthAdjust="spacing" textLength="57" x="10" y="20.9951">domain</text></g><!--MD5=[77349be1bd27b81b697a0f9b3aded3c8]
cluster infrastructure--><g id="cluster_infrastructure"><path d="M749.5,71 L860.5,71 A3.75,3.75 0 0 1 863,73.5 L870,93.2969 L1096.5,93.2969 A2.5,2.5 0 0 1 1099,95.7969 L1099,507 A2.5,2.5 0 0 1 1096.5,509.5 L749.5,509.5 A2.5,2.5 0 0 1 747,507 L747,73.5 A2.5,2.5 0 0 1 749.5,71 " style="stroke:#000000;stroke-width:1.5;fill:none;"/><line style="stroke:#000000;stroke-width:1.5;fill:none;" x1="747" x2="870" y1="93.2969" y2="93.2969"/><text fill="#000000" font-family="sans-serif" font-size="14" font-weight="bold" lengthAdjust="spacing" textLength="110" x="751" y="85.9951">infrastructure</text></g><!--MD5=[2a39a5be1cc24ddddd6e6286e4ece992]
class IEntityModel--><g id="elem_IEntityModel"><rect codeLine="3" fill="#F1F1F1" height="129.1875" id="IEntityModel" rx="2.5" ry="2.5" style="stroke:#181818;stroke-width:0.5;" width="213" x="30.5" y="729"/><ellipse cx="67.55" cy="745" fill="#B4A7E5" rx="11" ry="11" style="stroke:#181818;stroke-width:1.0;"/><path d="M63.4719,740.7656 L63.4719,738.6094 L70.8625,738.6094 L70.8625,740.7656 L68.3938,740.7656 L68.3938,748.8438 L70.8625,748.8438 L70.8625,751 L63.4719,751 L63.4719,748.8438 L65.9406,748.8438 L65.9406,740.7656 L63.4719,740.7656 Z " fill="#000000"/><text fill="#000000" font-family="sans-serif" font-size="14" font-style="italic" lengthAdjust="spacing" textLength="85" x="86.45" y="749.8467">IEntityModel</text><rect fill="#FFFFFF" height="15.9688" style="stroke:#000000;stroke-width:1.0;stroke-dasharray:2.0,2.0;" width="45" x="201.5" y="726"/><text fill="#000000" font-family="sans-serif" font-size="12" font-style="italic" lengthAdjust="spacing" textLength="43" x="202.5" y="738.1387">IDType</text><line style="stroke:#181818;stroke-width:0.5;" x1="31.5" x2="242.5" y1="761" y2="761"/><ellipse cx="41.5" cy="772" fill="#84BE84" rx="3" ry="3" style="stroke:#038048;stroke-width:1.0;"/><text fill="#000000" font-family="sans-serif" font-size="14" lengthAdjust="spacing" textLength="101" x="50.5" y="777.9951">GetID() IDType</text><line style="stroke:#181818;stroke-width:1.0;" x1="31.5" x2="242.5" y1="785.2969" y2="785.2969"/><ellipse cx="41.5" cy="796.2969" fill="#84BE84" rx="3" ry="3" style="stroke:#038048;stroke-width:1.0;"/><text fill="#000000" font-family="sans-serif" font-size="14" lengthAdjust="spacing" textLength="176" x="50.5" y="802.292">GetCreatedAt() time.Time</text><line style="stroke:#181818;stroke-width:1.0;" x1="31.5" x2="242.5" y1="809.5938" y2="809.5938"/><ellipse cx="41.5" cy="820.5938" fill="#84BE84" rx="3" ry="3" style="stroke:#038048;stroke-width:1.0;"/><text fill="#000000" font-family="sans-serif" font-size="14" lengthAdjust="spacing" textLength="187" x="50.5" y="826.5889">GetUpdatedAt() *time.Time</text><line style="stroke:#181818;stroke-width:1.0;" x1="31.5" x2="242.5" y1="833.8906" y2="833.8906"/><ellipse cx="41.5" cy="844.8906" fill="#84BE84" rx="3" ry="3" style="stroke:#038048;stroke-width:1.0;"/><text fill="#000000" font-family="sans-serif" font-size="14" lengthAdjust="spacing" textLength="183" x="50.5" y="850.8857">GetDeletedAt() *time.Time</text></g><!--MD5=[b3e0f8dcddb1b27f071a0303a68762bf]
class IGenericRepository--><g id="elem_IGenericRepository"><rect codeLine="3" fill="#F1F1F1" height="274.9688" id="IGenericRepository" rx="2.5" ry="2.5" style="stroke:#181818;stroke-width:0.5;" width="994" x="693" y="656"/><ellipse cx="994.25" cy="672" fill="#B4A7E5" rx="11" ry="11" style="stroke:#181818;stroke-width:1.0;"/><path d="M990.1719,667.7656 L990.1719,665.6094 L997.5625,665.6094 L997.5625,667.7656 L995.0938,667.7656 L995.0938,675.8438 L997.5625,675.8438 L997.5625,678 L990.1719,678 L990.1719,675.8438 L992.6406,675.8438 L992.6406,667.7656 L990.1719,667.7656 Z " fill="#000000"/><text fill="#000000" font-family="sans-serif" font-size="14" font-style="italic" lengthAdjust="spacing" textLength="132" x="1014.75" y="676.8467">IGenericRepository</text><rect fill="#FFFFFF" height="15.9688" style="stroke:#000000;stroke-width:1.0;stroke-dasharray:2.0,2.0;" width="249" x="1441" y="653"/><text fill="#000000" font-family="sans-serif" font-size="12" font-style="italic" lengthAdjust="spacing" textLength="247" x="1442" y="665.1387">IDType, interfaces.IEntityModel[IDType]</text><line style="stroke:#181818;stroke-width:0.5;" x1="694" x2="1686" y1="688" y2="688"/><ellipse cx="704" cy="699" fill="#84BE84" rx="3" ry="3" style="stroke:#038048;stroke-width:1.0;"/><text fill="#000000" font-family="sans-serif" font-size="14" lengthAdjust="spacing" textLength="968" x="713" y="704.9951">GetList(ctx context.Context, orderBy string, orderDirection string, page int, size int, queryBuilder interfaces.IQueryBuilder) ([]EntityType, error)</text><line style="stroke:#181818;stroke-width:1.0;" x1="694" x2="1686" y1="712.2969" y2="712.2969"/><ellipse cx="704" cy="723.2969" fill="#84BE84" rx="3" ry="3" style="stroke:#038048;stroke-width:1.0;"/><text fill="#000000" font-family="sans-serif" font-size="14" lengthAdjust="spacing" textLength="521" x="713" y="729.292">Count(ctx context.Context, queryBuilder interfaces.IQueryBuilder) (int, error)</text><line style="stroke:#181818;stroke-width:1.0;" x1="694" x2="1686" y1="736.5938" y2="736.5938"/><ellipse cx="704" cy="747.5938" fill="#84BE84" rx="3" ry="3" style="stroke:#038048;stroke-width:1.0;"/><text fill="#000000" font-family="sans-serif" font-size="14" lengthAdjust="spacing" textLength="607" x="713" y="753.5889">IsExist(ctx context.Context, id IDType, queryBuilder interfaces.IQueryBuilder) (bool, error)</text><line style="stroke:#181818;stroke-width:1.0;" x1="694" x2="1686" y1="760.8906" y2="760.8906"/><ellipse cx="704" cy="771.8906" fill="#84BE84" rx="3" ry="3" style="stroke:#038048;stroke-width:1.0;"/><text fill="#000000" font-family="sans-serif" font-size="14" lengthAdjust="spacing" textLength="431" x="713" y="777.8857">NewQueryBuilder(ctx context.Context) interfaces.IQueryBuilder</text><line style="stroke:#181818;stroke-width:1.0;" x1="694" x2="1686" y1="785.1875" y2="785.1875"/><ellipse cx="704" cy="796.1875" fill="#84BE84" rx="3" ry="3" style="stroke:#038048;stroke-width:1.0;"/><text fill="#000000" font-family="sans-serif" font-size="14" lengthAdjust="spacing" textLength="397" x="713" y="802.1826">GetById(ctx context.Context, id IDType) (EntityType, error)</text><line style="stroke:#181818;stroke-width:1.0;" x1="694" x2="1686" y1="809.4844" y2="809.4844"/><ellipse cx="704" cy="820.4844" fill="#84BE84" rx="3" ry="3" style="stroke:#038048;stroke-width:1.0;"/><text fill="#000000" font-family="sans-serif" font-size="14" lengthAdjust="spacing" textLength="443" x="713" y="826.4795">Update(ctx context.Context, entity EntityType) (EntityType, error)</text><line style="stroke:#181818;stroke-width:1.0;" x1="694" x2="1686" y1="833.7813" y2="833.7813"/><ellipse cx="704" cy="844.7813" fill="#84BE84" rx="3" ry="3" style="stroke:#038048;stroke-width:1.0;"/><text fill="#000000" font-family="sans-serif" font-size="14" lengthAdjust="spacing" textLength="432" x="713" y="850.7764">Insert(ctx context.Context, entity EntityType) (EntityType, error)</text><line style="stroke:#181818;stroke-width:1.0;" x1="694" x2="1686" y1="858.0781" y2="858.0781"/><ellipse cx="704" cy="869.0781" fill="#84BE84" rx="3" ry="3" style="stroke:#038048;stroke-width:1.0;"/><text fill="#000000" font-family="sans-serif" font-size="14" lengthAdjust="spacing" textLength="299" x="713" y="875.0732">Delete(ctx context.Context, id IDType) error</text><line style="stroke:#181818;stroke-width:1.0;" x1="694" x2="1686" y1="882.375" y2="882.375"/><ellipse cx="704" cy="893.375" fill="#84BE84" rx="3" ry="3" style="stroke:#038048;stroke-width:1.0;"/><text fill="#000000" font-family="sans-serif" font-size="14" lengthAdjust="spacing" textLength="505" x="713" y="899.3701">DeleteAll(ctx context.Context, queryBuilder interfaces.IQueryBuilder) error</text><line style="stroke:#181818;stroke-width:1.0;" x1="694" x2="1686" y1="906.6719" y2="906.6719"/><ellipse cx="704" cy="917.6719" fill="#84BE84" rx="3" ry="3" style="stroke:#038048;stroke-width:1.0;"/><text fill="#000000" font-family="sans-serif" font-size="14" lengthAdjust="spacing" textLength="104" x="713" y="923.667">Dispose() error</text></g><path d="M278.5,618 L278.5,643.1328 A0,0 0 0 0 278.5,643.1328 L603.5,643.1328 A0,0 0 0 0 603.5,643.1328 L603.5,636 L697,700.1484 L603.5,628 L603.5,628 L593.5,618 L278.5,618 A0,0 0 0 0 278.5,618 " fill="#FEFFDD" style="stroke:#181818;stroke-width:0.5;"/><path d="M593.5,618 L593.5,628 L603.5,628 L593.5,618 " fill="#FEFFDD" style="stroke:#181818;stroke-width:0.5;"/><text fill="#000000" font-family="sans-serif" font-size="13" lengthAdjust="spacing" textLength="304" x="284.5" y="635.0669">Get list of elements with filtering and pagination</text><path d="M278.5,653.1328 L278.5,678.2656 A0,0 0 0 0 278.5,678.2656 L509.5,678.2656 A0,0 0 0 0 509.5,678.2656 L509.5,671.1328 L697,724.4453 L509.5,663.1328 L509.5,663.1328 L499.5,653.1328 L278.5,653.1328 A0,0 0 0 0 278.5,653.1328 " fill="#FEFFDD" style="stroke:#181818;stroke-width:0.5;"/><path d="M499.5,653.1328 L499.5,663.1328 L509.5,663.1328 L499.5,653.1328 " fill="#FEFFDD" style="stroke:#181818;stroke-width:0.5;"/><text fill="#000000" font-family="sans-serif" font-size="13" lengthAdjust="spacing" textLength="210" x="284.5" y="670.1997">Get count of entities with filtering</text><path d="M278.5,688.2656 L278.5,713.3984 A0,0 0 0 0 278.5,713.3984 L635.5,713.3984 A0,0 0 0 0 635.5,713.3984 L635.5,706.2656 L697,748.7422 L635.5,698.2656 L635.5,698.2656 L625.5,688.2656 L278.5,688.2656 A0,0 0 0 0 278.5,688.2656 " fill="#FEFFDD" style="stroke:#181818;stroke-width:0.5;"/><path d="M625.5,688.2656 L625.5,698.2656 L635.5,698.2656 L625.5,688.2656 " fill="#FEFFDD" style="stroke:#181818;stroke-width:0.5;"/><text fill="#000000" font-family="sans-serif" font-size="13" lengthAdjust="spacing" textLength="336" x="284.5" y="705.3325">Checks that entity with selected conditions is existed</text><path d="M278.5,723.3984 L278.5,748.5313 A0,0 0 0 0 278.5,748.5313 L537.5,748.5313 A0,0 0 0 0 537.5,748.5313 L537.5,741.3984 L697,773.0391 L537.5,733.3984 L537.5,733.3984 L527.5,723.3984 L278.5,723.3984 A0,0 0 0 0 278.5,723.3984 " fill="#FEFFDD" style="stroke:#181818;stroke-width:0.5;"/><path d="M527.5,723.3984 L527.5,733.3984 L537.5,733.3984 L527.5,723.3984 " fill="#FEFFDD" style="stroke:#181818;stroke-width:0.5;"/><text fill="#000000" font-family="sans-serif" font-size="13" lengthAdjust="spacing" textLength="238" x="284.5" y="740.4653">Get new instance of the query builder</text><path d="M278.5,758.5313 L278.5,783.6641 A0,0 0 0 0 278.5,783.6641 L500.5,783.6641 A0,0 0 0 0 500.5,783.6641 L500.5,776.5313 L697,797.3359 L500.5,768.5313 L500.5,768.5313 L490.5,758.5313 L278.5,758.5313 A0,0 0 0 0 278.5,758.5313 " fill="#FEFFDD" style="stroke:#181818;stroke-width:0.5;"/><path d="M490.5,758.5313 L490.5,768.5313 L500.5,768.5313 L490.5,758.5313 " fill="#FEFFDD" style="stroke:#181818;stroke-width:0.5;"/><text fill="#000000" font-family="sans-serif" font-size="13" lengthAdjust="spacing" textLength="201" x="284.5" y="775.5981">Get entity by ID from repository</text><path d="M278.5,793.6641 L278.5,818.7969 A0,0 0 0 0 278.5,818.7969 L657.5,818.7969 A0,0 0 0 0 657.5,818.7969 L657.5,811.6641 L697,821.6328 L657.5,803.6641 L657.5,803.6641 L647.5,793.6641 L278.5,793.6641 A0,0 0 0 0 278.5,793.6641 " fill="#FEFFDD" style="stroke:#181818;stroke-width:0.5;"/><path d="M647.5,793.6641 L647.5,803.6641 L657.5,803.6641 L647.5,793.6641 " fill="#FEFFDD" style="stroke:#181818;stroke-width:0.5;"/><text fill="#000000" font-family="sans-serif" font-size="13" lengthAdjust="spacing" textLength="358" x="284.5" y="810.731">Save the changes to the existing entity in the repository</text><path d="M278.5,828.7969 L278.5,853.9297 A0,0 0 0 0 278.5,853.9297 L474.5,853.9297 A0,0 0 0 0 474.5,853.9297 L474.5,846.7969 L697,845.9297 L474.5,838.7969 L474.5,838.7969 L464.5,828.7969 L278.5,828.7969 A0,0 0 0 0 278.5,828.7969 " fill="#FEFFDD" style="stroke:#181818;stroke-width:0.5;"/><path d="M464.5,828.7969 L464.5,838.7969 L474.5,838.7969 L464.5,828.7969 " fill="#FEFFDD" style="stroke:#181818;stroke-width:0.5;"/><text fill="#000000" font-family="sans-serif" font-size="13" lengthAdjust="spacing" textLength="175" x="284.5" y="845.8638">Add entity to the repository</text><path d="M278.5,863.9297 L278.5,889.0625 A0,0 0 0 0 278.5,889.0625 L483.5,889.0625 A0,0 0 0 0 483.5,889.0625 L483.5,881.9297 L697,870.2266 L483.5,873.9297 L483.5,873.9297 L473.5,863.9297 L278.5,863.9297 A0,0 0 0 0 278.5,863.9297 " fill="#FEFFDD" style="stroke:#181818;stroke-width:0.5;"/><path d="M473.5,863.9297 L473.5,873.9297 L483.5,873.9297 L473.5,863.9297 " fill="#FEFFDD" style="stroke:#181818;stroke-width:0.5;"/><text fill="#000000" font-family="sans-serif" font-size="13" lengthAdjust="spacing" textLength="184" x="284.5" y="880.9966">Delete entity from repository</text><path d="M278.5,899.0625 L278.5,924.1953 A0,0 0 0 0 278.5,924.1953 L548.5,924.1953 A0,0 0 0 0 548.5,924.1953 L548.5,917.0625 L697,894.5234 L548.5,909.0625 L548.5,909.0625 L538.5,899.0625 L278.5,899.0625 A0,0 0 0 0 278.5,899.0625 " fill="#FEFFDD" style="stroke:#181818;stroke-width:0.5;"/><path d="M538.5,899.0625 L538.5,909.0625 L548.5,909.0625 L538.5,899.0625 " fill="#FEFFDD" style="stroke:#181818;stroke-width:0.5;"/><text fill="#000000" font-family="sans-serif" font-size="13" lengthAdjust="spacing" textLength="249" x="284.5" y="916.1294">Delete entities with selected conditions</text><path d="M278.5,934.1953 L278.5,959.3281 A0,0 0 0 0 278.5,959.3281 L463.5,959.3281 A0,0 0 0 0 463.5,959.3281 L463.5,952.1953 L697,918.8203 L463.5,944.1953 L463.5,944.1953 L453.5,934.1953 L278.5,934.1953 A0,0 0 0 0 278.5,934.1953 " fill="#FEFFDD" style="stroke:#181818;stroke-width:0.5;"/><path d="M453.5,934.1953 L453.5,944.1953 L463.5,944.1953 L453.5,934.1953 " fill="#FEFFDD" style="stroke:#181818;stroke-width:0.5;"/><text fill="#000000" font-family="sans-serif" font-size="13" lengthAdjust="spacing" textLength="164" x="284.5" y="951.2622">Dispose all allocated data</text><!--MD5=[1045d07ae824aea072cabb0fb8284887]
class EntityUUID--><g id="elem_EntityUUID"><rect codeLine="5" fill="#F1F1F1" height="48" id="EntityUUID" rx="2.5" ry="2.5" style="stroke:#181818;stroke-width:0.5;" width="104" x="186" y="280"/><ellipse cx="201" cy="296" fill="#ADD1B2" rx="11" ry="11" style="stroke:#181818;stroke-width:1.0;"/><path d="M203.9688,301.6406 Q203.3906,301.9375 202.75,302.0781 Q202.1094,302.2344 201.4063,302.2344 Q198.9063,302.2344 197.5781,300.5938 Q196.2656,298.9375 196.2656,295.8125 Q196.2656,292.6875 197.5781,291.0313 Q198.9063,289.375 201.4063,289.375 Q202.1094,289.375 202.75,289.5313 Q203.4063,289.6875 203.9688,289.9844 L203.9688,292.7031 Q203.3438,292.125 202.75,291.8594 Q202.1563,291.5781 201.5313,291.5781 Q200.1875,291.5781 199.5,292.6563 Q198.8125,293.7188 198.8125,295.8125 Q198.8125,297.9063 199.5,298.9844 Q200.1875,300.0469 201.5313,300.0469 Q202.1563,300.0469 202.75,299.7813 Q203.3438,299.5 203.9688,298.9219 L203.9688,301.6406 Z " fill="#000000"/><text fill="#000000" font-family="sans-serif" font-size="14" lengthAdjust="spacing" textLength="72" x="215" y="300.8467">EntityUUID</text><line style="stroke:#181818;stroke-width:0.5;" x1="187" x2="289" y1="312" y2="312"/><line style="stroke:#181818;stroke-width:0.5;" x1="187" x2="289" y1="320" y2="320"/></g><!--MD5=[be996cdb8e6bf2fc7cb89c555f2cd144]
class Entity--><g id="elem_Entity"><rect codeLine="8" fill="#F1F1F1" height="129.1875" id="Entity" rx="2.5" ry="2.5" style="stroke:#181818;stroke-width:0.5;" width="208" x="73" y="405"/><ellipse cx="130.25" cy="421" fill="#ADD1B2" rx="11" ry="11" style="stroke:#181818;stroke-width:1.0;"/><path d="M133.2188,426.6406 Q132.6406,426.9375 132,427.0781 Q131.3594,427.2344 130.6563,427.2344 Q128.1563,427.2344 126.8281,425.5938 Q125.5156,423.9375 125.5156,420.8125 Q125.5156,417.6875 126.8281,416.0313 Q128.1563,414.375 130.6563,414.375 Q131.3594,414.375 132,414.5313 Q132.6563,414.6875 133.2188,414.9844 L133.2188,417.7031 Q132.5938,417.125 132,416.8594 Q131.4063,416.5781 130.7813,416.5781 Q129.4375,416.5781 128.75,417.6563 Q128.0625,418.7188 128.0625,420.8125 Q128.0625,422.9063 128.75,423.9844 Q129.4375,425.0469 130.7813,425.0469 Q131.4063,425.0469 132,424.7813 Q132.5938,424.5 133.2188,423.9219 L133.2188,426.6406 Z " fill="#000000"/><text fill="#000000" font-family="sans-serif" font-size="14" lengthAdjust="spacing" textLength="38" x="150.75" y="425.8467">Entity</text><rect fill="#FFFFFF" height="15.9688" style="stroke:#000000;stroke-width:1.0;stroke-dasharray:2.0,2.0;" width="45" x="239" y="402"/><text fill="#000000" font-family="sans-serif" font-size="12" font-style="italic" lengthAdjust="spacing" textLength="43" x="240" y="414.1387">IDType</text><line style="stroke:#181818;stroke-width:0.5;" x1="74" x2="280" y1="437" y2="437"/><ellipse cx="84" cy="448" fill="none" rx="3" ry="3" style="stroke:#038048;stroke-width:1.0;"/><text fill="#000000" font-family="sans-serif" font-size="14" lengthAdjust="spacing" textLength="66" x="93" y="453.9951">ID IDType</text><line style="stroke:#181818;stroke-width:1.0;" x1="74" x2="280" y1="461.2969" y2="461.2969"/><ellipse cx="84" cy="472.2969" fill="none" rx="3" ry="3" style="stroke:#038048;stroke-width:1.0;"/><text fill="#000000" font-family="sans-serif" font-size="14" lengthAdjust="spacing" textLength="141" x="93" y="478.292">CreatedAt time.Time</text><line style="stroke:#181818;stroke-width:1.0;" x1="74" x2="280" y1="485.5938" y2="485.5938"/><ellipse cx="84" cy="496.5938" fill="none" rx="3" ry="3" style="stroke:#038048;stroke-width:1.0;"/><text fill="#000000" font-family="sans-serif" font-size="14" lengthAdjust="spacing" textLength="152" x="93" y="502.5889">UpdatedAt *time.Time</text><line style="stroke:#181818;stroke-width:1.0;" x1="74" x2="280" y1="509.8906" y2="509.8906"/><ellipse cx="84" cy="520.8906" fill="none" rx="3" ry="3" style="stroke:#038048;stroke-width:1.0;"/><text fill="#000000" font-family="sans-serif" font-size="14" lengthAdjust="spacing" textLength="182" x="93" y="526.8857">DeletedAt gorm.DeletedAt</text></g><!--MD5=[0e6027363d26940633b9df7c844e683a]
class EthernetSwitch--><g id="elem_EthernetSwitch"><rect codeLine="5" fill="#F1F1F1" height="177.7813" id="EthernetSwitch" rx="2.5" ry="2.5" style="stroke:#181818;stroke-width:0.5;" width="156" x="229" y="41"/><ellipse cx="252.55" cy="57" fill="#ADD1B2" rx="11" ry="11" style="stroke:#181818;stroke-width:1.0;"/><path d="M255.5188,62.6406 Q254.9406,62.9375 254.3,63.0781 Q253.6594,63.2344 252.9563,63.2344 Q250.4563,63.2344 249.1281,61.5938 Q247.8156,59.9375 247.8156,56.8125 Q247.8156,53.6875 249.1281,52.0313 Q250.4563,50.375 252.9563,50.375 Q253.6594,50.375 254.3,50.5313 Q254.9563,50.6875 255.5188,50.9844 L255.5188,53.7031 Q254.8938,53.125 254.3,52.8594 Q253.7063,52.5781 253.0813,52.5781 Q251.7375,52.5781 251.05,53.6563 Q250.3625,54.7188 250.3625,56.8125 Q250.3625,58.9063 251.05,59.9844 Q251.7375,61.0469 253.0813,61.0469 Q253.7063,61.0469 254.3,60.7813 Q254.8938,60.5 255.5188,59.9219 L255.5188,62.6406 Z " fill="#000000"/><text fill="#000000" font-family="sans-serif" font-size="14" lengthAdjust="spacing" textLength="105" x="268.45" y="61.8467">EthernetSwitch</text><line style="stroke:#181818;stroke-width:0.5;" x1="230" x2="384" y1="73" y2="73"/><ellipse cx="240" cy="84" fill="none" rx="3" ry="3" style="stroke:#038048;stroke-width:1.0;"/><text fill="#000000" font-family="sans-serif" font-size="14" lengthAdjust="spacing" textLength="83" x="249" y="89.9951">Name string</text><line style="stroke:#181818;stroke-width:1.0;" x1="230" x2="384" y1="97.2969" y2="97.2969"/><ellipse cx="240" cy="108.2969" fill="none" rx="3" ry="3" style="stroke:#038048;stroke-width:1.0;"/><text fill="#000000" font-family="sans-serif" font-size="14" lengthAdjust="spacing" textLength="80" x="249" y="114.292">Serial string</text><line style="stroke:#181818;stroke-width:1.0;" x1="230" x2="384" y1="121.5938" y2="121.5938"/><ellipse cx="240" cy="132.5938" fill="none" rx="3" ry="3" style="stroke:#038048;stroke-width:1.0;"/><text fill="#000000" font-family="sans-serif" font-size="14" lengthAdjust="spacing" textLength="130" x="249" y="138.5889">SwitchModel string</text><line style="stroke:#181818;stroke-width:1.0;" x1="230" x2="384" y1="145.8906" y2="145.8906"/><ellipse cx="240" cy="156.8906" fill="none" rx="3" ry="3" style="stroke:#038048;stroke-width:1.0;"/><text fill="#000000" font-family="sans-serif" font-size="14" lengthAdjust="spacing" textLength="100" x="249" y="162.8857">Address string</text><line style="stroke:#181818;stroke-width:1.0;" x1="230" x2="384" y1="170.1875" y2="170.1875"/><ellipse cx="240" cy="181.1875" fill="none" rx="3" ry="3" style="stroke:#038048;stroke-width:1.0;"/><text fill="#000000" font-family="sans-serif" font-size="14" lengthAdjust="spacing" textLength="114" x="249" y="187.1826">Username string</text><line style="stroke:#181818;stroke-width:1.0;" x1="230" x2="384" y1="194.4844" y2="194.4844"/><ellipse cx="240" cy="205.4844" fill="none" rx="3" ry="3" style="stroke:#038048;stroke-width:1.0;"/><text fill="#000000" font-family="sans-serif" font-size="14" lengthAdjust="spacing" textLength="110" x="249" y="211.4795">Password string</text></g><path d="M22.5,87.5 L22.5,112.6328 A0,0 0 0 0 22.5,112.6328 L88.5,112.6328 A0,0 0 0 0 88.5,112.6328 L88.5,105.5 L233,109.4453 L88.5,97.5 L88.5,97.5 L78.5,87.5 L22.5,87.5 A0,0 0 0 0 22.5,87.5 " fill="#FEFFDD" style="stroke:#181818;stroke-width:0.5;"/><path d="M78.5,87.5 L78.5,97.5 L88.5,97.5 L78.5,87.5 " fill="#FEFFDD" style="stroke:#181818;stroke-width:0.5;"/><text fill="#000000" font-family="sans-serif" font-size="13" lengthAdjust="spacing" textLength="45" x="28.5" y="104.5669">Unique</text><path d="M22.5,122.6328 L22.5,162.8984 A0,0 0 0 0 22.5,162.8984 L193.5,162.8984 A0,0 0 0 0 193.5,162.8984 L193.5,146.7656 L233,158.0391 L193.5,138.7656 L193.5,132.6328 L183.5,122.6328 L22.5,122.6328 A0,0 0 0 0 22.5,122.6328 " fill="#FEFFDD" style="stroke:#181818;stroke-width:0.5;"/><path d="M183.5,122.6328 L183.5,132.6328 L193.5,132.6328 L183.5,122.6328 " fill="#FEFFDD" style="stroke:#181818;stroke-width:0.5;"/><text fill="#000000" font-family="sans-serif" font-size="13" lengthAdjust="spacing" textLength="45" x="28.5" y="139.6997">Unique</text><text fill="#000000" font-family="sans-serif" font-size="13" lengthAdjust="spacing" textLength="150" x="28.5" y="154.8325">Ip address of the switch</text><!--MD5=[27abfb56f32eefa7f07c83348fb1ee32]
class GormGenericRepository--><g id="elem_GormGenericRepository"><rect codeLine="5" fill="#F1F1F1" height="48" id="GormGenericRepository" rx="2.5" ry="2.5" style="stroke:#181818;stroke-width:0.5;" width="319" x="763.5" y="445.5"/><ellipse cx="778.5" cy="461.5" fill="#ADD1B2" rx="11" ry="11" style="stroke:#181818;stroke-width:1.0;"/><path d="M781.4688,467.1406 Q780.8906,467.4375 780.25,467.5781 Q779.6094,467.7344 778.9063,467.7344 Q776.4063,467.7344 775.0781,466.0938 Q773.7656,464.4375 773.7656,461.3125 Q773.7656,458.1875 775.0781,456.5313 Q776.4063,454.875 778.9063,454.875 Q779.6094,454.875 780.25,455.0313 Q780.9063,455.1875 781.4688,455.4844 L781.4688,458.2031 Q780.8438,457.625 780.25,457.3594 Q779.6563,457.0781 779.0313,457.0781 Q777.6875,457.0781 777,458.1563 Q776.3125,459.2188 776.3125,461.3125 Q776.3125,463.4063 777,464.4844 Q777.6875,465.5469 779.0313,465.5469 Q779.6563,465.5469 780.25,465.2813 Q780.8438,465 781.4688,464.4219 L781.4688,467.1406 Z " fill="#000000"/><text fill="#000000" font-family="sans-serif" font-size="14" lengthAdjust="spacing" textLength="166" x="792.5" y="466.3467">GormGenericRepository</text><rect fill="#FFFFFF" height="15.9688" style="stroke:#000000;stroke-width:1.0;stroke-dasharray:2.0,2.0;" width="119" x="966.5" y="442.5"/><text fill="#000000" font-family="sans-serif" font-size="12" font-style="italic" lengthAdjust="spacing" textLength="117" x="967.5" y="454.6387">IDType, EntityType</text><line style="stroke:#181818;stroke-width:0.5;" x1="764.5" x2="1081.5" y1="477.5" y2="477.5"/><line style="stroke:#181818;stroke-width:0.5;" x1="764.5" x2="1081.5" y1="485.5" y2="485.5"/></g><!--MD5=[fb9ccfe50c221b22156f713a7a2e7167]
class GormEthernetSwitchRepository--><g id="elem_GormEthernetSwitchRepository"><rect codeLine="6" fill="#F1F1F1" height="48" id="GormEthernetSwitchRepository" rx="2.5" ry="2.5" style="stroke:#181818;stroke-width:0.5;" width="249" x="798.5" y="106"/><ellipse cx="813.5" cy="122" fill="#ADD1B2" rx="11" ry="11" style="stroke:#181818;stroke-width:1.0;"/><path d="M816.4688,127.6406 Q815.8906,127.9375 815.25,128.0781 Q814.6094,128.2344 813.9063,128.2344 Q811.4063,128.2344 810.0781,126.5938 Q808.7656,124.9375 808.7656,121.8125 Q808.7656,118.6875 810.0781,117.0313 Q811.4063,115.375 813.9063,115.375 Q814.6094,115.375 815.25,115.5313 Q815.9063,115.6875 816.4688,115.9844 L816.4688,118.7031 Q815.8438,118.125 815.25,117.8594 Q814.6563,117.5781 814.0313,117.5781 Q812.6875,117.5781 812,118.6563 Q811.3125,119.7188 811.3125,121.8125 Q811.3125,123.9063 812,124.9844 Q812.6875,126.0469 814.0313,126.0469 Q814.6563,126.0469 815.25,125.7813 Q815.8438,125.5 816.4688,124.9219 L816.4688,127.6406 Z " fill="#000000"/><text fill="#000000" font-family="sans-serif" font-size="14" lengthAdjust="spacing" textLength="217" x="827.5" y="126.8467">GormEthernetSwitchRepository</text><line style="stroke:#181818;stroke-width:0.5;" x1="799.5" x2="1046.5" y1="138" y2="138"/><line style="stroke:#181818;stroke-width:0.5;" x1="799.5" x2="1046.5" y1="146" y2="146"/></g><g id="elem_EthernetSwitchTypeNote"><path d="M762.5,284 L762.5,324.2656 L967.5,324.2656 L967.5,294 L957.5,284 L762.5,284 " fill="#FEFFDD" style="stroke:#181818;stroke-width:0.5;"/><path d="M957.5,284 L957.5,294 L967.5,294 L957.5,284 " fill="#FEFFDD" style="stroke:#181818;stroke-width:1.0;"/><text fill="#000000" font-family="sans-serif" font-size="13" lengthAdjust="spacing" textLength="180" x="768.5" y="301.0669">EntityType is EthernetSwitch</text><text fill="#000000" font-family="sans-serif" font-size="13" lengthAdjust="spacing" textLength="125" x="768.5" y="316.1997">IDType is uuid.UUID</text></g><!--MD5=[4afd32b9c3a651e50eee9a88aa9ac7c6]
link EntityUUID to Entity--><g id="link_EntityUUID_Entity"><path codeLine="7" d="M229.39,328.08 C223.04,345.09 214.02,369.28 205.25,392.79 " fill="none" id="EntityUUID-to-Entity" style="stroke:#181818;stroke-width:1.0;"/><polygon fill="#181818" points="200.7,404.98,206.5455,400.7575,204.8961,393.7376,199.0506,397.9601,200.7,404.98" style="stroke:#181818;stroke-width:1.0;"/><text fill="#000000" font-family="sans-serif" font-size="13" lengthAdjust="spacing" textLength="125" x="217" y="371.0669">IDType is uuid.UUID</text></g><!--MD5=[a6c7a0eda5b041e127f539f1664bb96a]
link Entity to IEntityModel--><g id="link_Entity_IEntityModel"><path codeLine="17" d="M169.1,534.12 C162.89,584.09 154.19,654.12 147.41,708.67 " fill="none" id="Entity-to-IEntityModel" style="stroke:#181818;stroke-width:1.0;stroke-dasharray:7.0,7.0;"/><polygon fill="none" points="154.33,709.76,144.92,728.74,140.44,708.03,154.33,709.76" style="stroke:#181818;stroke-width:1.0;"/></g><!--MD5=[c6dbd016a10510a56ae9d0bd73774e32]
link EthernetSwitch to EntityUUID--><g id="link_EthernetSwitch_EntityUUID"><path codeLine="27" d="M271.69,219.02 C264.79,236.23 257.92,253.33 252.21,267.57 " fill="none" id="EthernetSwitch-to-EntityUUID" style="stroke:#181818;stroke-width:1.0;"/><polygon fill="#181818" points="247.32,279.76,253.2664,275.6808,251.788,268.6228,245.8416,272.7021,247.32,279.76" style="stroke:#181818;stroke-width:1.0;"/></g><!--MD5=[1b84833638557571905b03f54e842c8c]
link GormGenericRepository to IGenericRepository--><g id="link_GormGenericRepository_IGenericRepository"><path codeLine="7" d="M942.2,493.66 C968.11,524.9 1016.45,583.2 1063.61,640.08 " fill="none" id="GormGenericRepository-to-IGenericRepository" style="stroke:#181818;stroke-width:1.0;stroke-dasharray:7.0,7.0;"/><polygon fill="none" points="1069.16,635.8,1076.54,655.66,1058.38,644.73,1069.16,635.8" style="stroke:#181818;stroke-width:1.0;"/></g><!--MD5=[d8970687f85bb124823f7830c65710c8]
link GormEthernetSwitchRepository to GormGenericRepository--><g id="link_GormEthernetSwitchRepository_GormGenericRepository"><path codeLine="8" d="M938.55,154.26 C961.04,190.72 998.54,263.8 985,328 C977,365.95 958.07,406.14 943.22,433.77 " fill="none" id="GormEthernetSwitchRepository-to-GormGenericRepository" style="stroke:#181818;stroke-width:1.0;"/><polygon fill="#181818" points="936.94,445.16,943.3385,441.8344,942.7296,434.649,936.3311,437.9746,936.94,445.16" style="stroke:#181818;stroke-width:1.0;"/></g><!--MD5=[45a2a5fb0f7eafbb228015735db12100]
link GormEthernetSwitchRepository to EthernetSwitchTypeNote--><g id="link_GormEthernetSwitchRepository_EthernetSwitchTypeNote"><path codeLine="13" d="M915.18,154.2 C903.61,188.49 882.17,252.08 871.45,283.87 " fill="none" id="GormEthernetSwitchRepository-EthernetSwitchTypeNote" style="stroke:#181818;stroke-width:1.0;stroke-dasharray:7.0,7.0;"/></g><!--MD5=[9f5125094d565c097065cae25f7e2c84]
link EthernetSwitchTypeNote to GormGenericRepository--><g id="link_EthernetSwitchTypeNote_GormGenericRepository"><path codeLine="14" d="M871.77,324.08 C881.96,352.82 901.32,407.4 913.11,440.61 " fill="none" id="EthernetSwitchTypeNote-to-GormGenericRepository" style="stroke:#181818;stroke-width:1.0;stroke-dasharray:7.0,7.0;"/><polygon fill="#181818" points="914.79,445.35,915.5432,435.53,913.1147,440.639,908.0056,438.2105,914.79,445.35" style="stroke:#181818;stroke-width:1.0;"/></g><!--MD5=[e4dc094716afb2924cadfdc3ab207821]
link EthernetSwitch to EthernetSwitchTypeNote--><g id="link_EthernetSwitch_EthernetSwitchTypeNote"><path codeLine="15" d="M385.18,155.1 C497.2,189.63 701.13,252.49 803.26,283.97 " fill="none" id="EthernetSwitch-EthernetSwitchTypeNote" style="stroke:#181818;stroke-width:1.0;stroke-dasharray:7.0,7.0;"/></g><!--MD5=[c80c8f1ffea96d234a2d7737c3e97dfe]
@startuml

!include ../entities/EthernetSwitch.puml
!include GormGenericRepository.puml

package infrastructure {
    class GormEthernetSwitchRepository

    GormEthernetSwitchRepository -down-* GormGenericRepository


    note "EntityType is EthernetSwitch \nIDType is uuid.UUID" as EthernetSwitchTypeNote

    GormEthernetSwitchRepository .down. EthernetSwitchTypeNote
    GormGenericRepository <.up. EthernetSwitchTypeNote
    EthernetSwitch .. EthernetSwitchTypeNote
}

@enduml

@startuml




package app {
    interface IEntityModel<IDType> {
        +GetID() IDType
        - -
        +GetCreatedAt() time.Time
        - -
        +GetUpdatedAt() *time.Time
        - -
        +GetDeletedAt() *time.Time
    }
}


package domain {
    class EntityUUID {
    }
    EntityUUID - -* Entity : IDType is uuid.UUID
    class Entity<IDType> {
        +ID IDType
        - -
        +CreatedAt time.Time
        - -
        +UpdatedAt *time.Time
        - -
        +DeletedAt gorm.DeletedAt
    }
    Entity .down.|> IEntityModel
}


package domain {
    class EthernetSwitch {
        +Name string
        - -
        +Serial string
        - -
        +SwitchModel string
        - -
        +Address string
        - -
        +Username string
        - -
        +Password string
    }
    note left of EthernetSwitch::Serial
    Unique
    end note

    note left of EthernetSwitch::Address
    Unique
    Ip address of the switch
    end note

    EthernetSwitch -down-* EntityUUID
}



package app {
    interface IGenericRepository<IDType, interfaces.IEntityModel[IDType]> {
        +GetList(ctx context.Context, orderBy string, orderDirection string, page int, size int, queryBuilder interfaces.IQueryBuilder) ([]EntityType, error)
        - -
        +Count(ctx context.Context, queryBuilder interfaces.IQueryBuilder) (int, error)
        - -
        +IsExist(ctx context.Context, id IDType, queryBuilder interfaces.IQueryBuilder) (bool, error)
        - -
        +NewQueryBuilder(ctx context.Context) interfaces.IQueryBuilder
        - -
        +GetById(ctx context.Context, id IDType) (EntityType, error)
        - -
        +Update(ctx context.Context, entity EntityType) (EntityType, error)
        - -
        +Insert(ctx context.Context, entity EntityType) (EntityType, error)
        - -
        +Delete(ctx context.Context, id IDType) error
        - -
        +DeleteAll(ctx context.Context, queryBuilder interfaces.IQueryBuilder) error
        - -
        +Dispose() error
    }
    note left of IGenericRepository::GetList
      Get list of elements with filtering and pagination
    end note

    note left of IGenericRepository::Count
      Get count of entities with filtering
    end note

    note left of IGenericRepository::IsExist
      Checks that entity with selected conditions is existed
    end note

    note left of IGenericRepository::NewQueryBuilder
      Get new instance of the query builder
    end note

    note left of IGenericRepository::GetById
      Get entity by ID from repository
    end note

    note left of IGenericRepository::Update
      Save the changes to the existing entity in the repository
    end note

    note left of IGenericRepository::Insert
      Add entity to the repository
    end note

    note left of IGenericRepository::Delete
      Delete entity from repository
    end note

    note left of IGenericRepository::DeleteAll
      Delete entities with selected conditions
    end note

    note left of IGenericRepository::Dispose
      Dispose all allocated data
    end note
}


package infrastructure {
    class GormGenericRepository<IDType, EntityType>

    GormGenericRepository .down.|> IGenericRepository
}


package infrastructure {
    class GormEthernetSwitchRepository

    GormEthernetSwitchRepository -down-* GormGenericRepository


    note "EntityType is EthernetSwitch \nIDType is uuid.UUID" as EthernetSwitchTypeNote

    GormEthernetSwitchRepository .down. EthernetSwitchTypeNote
    GormGenericRepository <.up. EthernetSwitchTypeNote
    EthernetSwitch .. EthernetSwitchTypeNote
}

@enduml

PlantUML version 1.2022.6(Tue Jun 21 17:34:49 EGST 2022)
(GPL source distribution)
Java Runtime: OpenJDK Runtime Environment
JVM: OpenJDK 64-Bit Server VM
Default Encoding: UTF-8
Language: en
Country: US
--></g></svg>