<?xml version="1.0" encoding="UTF-8" standalone="no"?><svg xmlns="http://www.w3.org/2000/svg" xmlns:xlink="http://www.w3.org/1999/xlink" contentStyleType="text/css" height="943px" preserveAspectRatio="none" style="width:1701px;height:943px;background:#FFFFFF;" version="1.1" viewBox="0 0 1701 943" width="1701px" zoomAndPan="magnify"><defs/><g><!--MD5=[d5ac3844f66b12d9e08170e47495e096]
cluster app--><g id="cluster_app"><path d="M8.5,534 L38.5,534 A3.75,3.75 0 0 1 41,536.5 L48,556.2969 L1691.5,556.2969 A2.5,2.5 0 0 1 1694,558.7969 L1694,933.5 A2.5,2.5 0 0 1 1691.5,936 L8.5,936 A2.5,2.5 0 0 1 6,933.5 L6,536.5 A2.5,2.5 0 0 1 8.5,534 " style="stroke:#000000;stroke-width:1.5;fill:none;"/><line style="stroke:#000000;stroke-width:1.5;fill:none;" x1="6" x2="48" y1="556.2969" y2="556.2969"/><text fill="#000000" font-family="sans-serif" font-size="14" font-weight="bold" lengthAdjust="spacing" textLength="29" x="10" y="548.9951">app</text></g><!--MD5=[27f772719433d509ddbc20ff768eba08]
cluster domain--><g id="cluster_domain"><path d="M239.5,6 L297.5,6 A3.75,3.75 0 0 1 300,8.5 L307,28.2969 L474.5,28.2969 A2.5,2.5 0 0 1 477,30.7969 L477,498.5 A2.5,2.5 0 0 1 474.5,501 L239.5,501 A2.5,2.5 0 0 1 237,498.5 L237,8.5 A2.5,2.5 0 0 1 239.5,6 " style="stroke:#000000;stroke-width:1.5;fill:none;"/><line style="stroke:#000000;stroke-width:1.5;fill:none;" x1="237" x2="307" y1="28.2969" y2="28.2969"/><text fill="#000000" font-family="sans-serif" font-size="14" font-weight="bold" lengthAdjust="spacing" textLength="57" x="241" y="20.9951">domain</text></g><!--MD5=[77349be1bd27b81b697a0f9b3aded3c8]
cluster infrastructure--><g id="cluster_infrastructure"><path d="M869.5,46.5 L980.5,46.5 A3.75,3.75 0 0 1 983,49 L990,68.7969 L1216.5,68.7969 A2.5,2.5 0 0 1 1219,71.2969 L1219,458 A2.5,2.5 0 0 1 1216.5,460.5 L869.5,460.5 A2.5,2.5 0 0 1 867,458 L867,49 A2.5,2.5 0 0 1 869.5,46.5 " style="stroke:#000000;stroke-width:1.5;fill:none;"/><line style="stroke:#000000;stroke-width:1.5;fill:none;" x1="867" x2="990" y1="68.7969" y2="68.7969"/><text fill="#000000" font-family="sans-serif" font-size="14" font-weight="bold" lengthAdjust="spacing" textLength="110" x="871" y="61.4951">infrastructure</text></g><!--MD5=[2a39a5be1cc24ddddd6e6286e4ece992]
class IEntityModel--><g id="elem_IEntityModel"><rect codeLine="3" fill="#F1F1F1" height="129.1875" id="IEntityModel" rx="2.5" ry="2.5" style="stroke:#181818;stroke-width:0.5;" width="213" x="21.5" y="680"/><ellipse cx="58.55" cy="696" fill="#B4A7E5" rx="11" ry="11" style="stroke:#181818;stroke-width:1.0;"/><path d="M54.4719,691.7656 L54.4719,689.6094 L61.8625,689.6094 L61.8625,691.7656 L59.3938,691.7656 L59.3938,699.8438 L61.8625,699.8438 L61.8625,702 L54.4719,702 L54.4719,699.8438 L56.9406,699.8438 L56.9406,691.7656 L54.4719,691.7656 Z " fill="#000000"/><text fill="#000000" font-family="sans-serif" font-size="14" font-style="italic" lengthAdjust="spacing" textLength="85" x="77.45" y="700.8467">IEntityModel</text><rect fill="#FFFFFF" height="15.9688" style="stroke:#000000;stroke-width:1.0;stroke-dasharray:2.0,2.0;" width="45" x="192.5" y="677"/><text fill="#000000" font-family="sans-serif" font-size="12" font-style="italic" lengthAdjust="spacing" textLength="43" x="193.5" y="689.1387">IDType</text><line style="stroke:#181818;stroke-width:0.5;" x1="22.5" x2="233.5" y1="712" y2="712"/><ellipse cx="32.5" cy="723" fill="#84BE84" rx="3" ry="3" style="stroke:#038048;stroke-width:1.0;"/><text fill="#000000" font-family="sans-serif" font-size="14" lengthAdjust="spacing" textLength="101" x="41.5" y="728.9951">GetID() IDType</text><line style="stroke:#181818;stroke-width:1.0;" x1="22.5" x2="233.5" y1="736.2969" y2="736.2969"/><ellipse cx="32.5" cy="747.2969" fill="#84BE84" rx="3" ry="3" style="stroke:#038048;stroke-width:1.0;"/><text fill="#000000" font-family="sans-serif" font-size="14" lengthAdjust="spacing" textLength="176" x="41.5" y="753.292">GetCreatedAt() time.Time</text><line style="stroke:#181818;stroke-width:1.0;" x1="22.5" x2="233.5" y1="760.5938" y2="760.5938"/><ellipse cx="32.5" cy="771.5938" fill="#84BE84" rx="3" ry="3" style="stroke:#038048;stroke-width:1.0;"/><text fill="#000000" font-family="sans-serif" font-size="14" lengthAdjust="spacing" textLength="187" x="41.5" y="777.5889">GetUpdatedAt() *time.Time</text><line style="stroke:#181818;stroke-width:1.0;" x1="22.5" x2="233.5" y1="784.8906" y2="784.8906"/><ellipse cx="32.5" cy="795.8906" fill="#84BE84" rx="3" ry="3" style="stroke:#038048;stroke-width:1.0;"/><text fill="#000000" font-family="sans-serif" font-size="14" lengthAdjust="spacing" textLength="183" x="41.5" y="801.8857">GetDeletedAt() *time.Time</text></g><!--MD5=[b3e0f8dcddb1b27f071a0303a68762bf]
class IGenericRepository--><g id="elem_IGenericRepository"><rect codeLine="3" fill="#F1F1F1" height="274.9688" id="IGenericRepository" rx="2.5" ry="2.5" style="stroke:#181818;stroke-width:0.5;" width="994" x="684" y="607"/><ellipse cx="985.25" cy="623" fill="#B4A7E5" rx="11" ry="11" style="stroke:#181818;stroke-width:1.0;"/><path d="M981.1719,618.7656 L981.1719,616.6094 L988.5625,616.6094 L988.5625,618.7656 L986.0938,618.7656 L986.0938,626.8438 L988.5625,626.8438 L988.5625,629 L981.1719,629 L981.1719,626.8438 L983.6406,626.8438 L983.6406,618.7656 L981.1719,618.7656 Z " fill="#000000"/><text fill="#000000" font-family="sans-serif" font-size="14" font-style="italic" lengthAdjust="spacing" textLength="132" x="1005.75" y="627.8467">IGenericRepository</text><rect fill="#FFFFFF" height="15.9688" style="stroke:#000000;stroke-width:1.0;stroke-dasharray:2.0,2.0;" width="249" x="1432" y="604"/><text fill="#000000" font-family="sans-serif" font-size="12" font-style="italic" lengthAdjust="spacing" textLength="247" x="1433" y="616.1387">IDType, interfaces.IEntityModel[IDType]</text><line style="stroke:#181818;stroke-width:0.5;" x1="685" x2="1677" y1="639" y2="639"/><ellipse cx="695" cy="650" fill="#84BE84" rx="3" ry="3" style="stroke:#038048;stroke-width:1.0;"/><text fill="#000000" font-family="sans-serif" font-size="14" lengthAdjust="spacing" textLength="968" x="704" y="655.9951">GetList(ctx context.Context, orderBy string, orderDirection string, page int, size int, queryBuilder interfaces.IQueryBuilder) ([]EntityType, error)</text><line style="stroke:#181818;stroke-width:1.0;" x1="685" x2="1677" y1="663.2969" y2="663.2969"/><ellipse cx="695" cy="674.2969" fill="#84BE84" rx="3" ry="3" style="stroke:#038048;stroke-width:1.0;"/><text fill="#000000" font-family="sans-serif" font-size="14" lengthAdjust="spacing" textLength="521" x="704" y="680.292">Count(ctx context.Context, queryBuilder interfaces.IQueryBuilder) (int, error)</text><line style="stroke:#181818;stroke-width:1.0;" x1="685" x2="1677" y1="687.5938" y2="687.5938"/><ellipse cx="695" cy="698.5938" fill="#84BE84" rx="3" ry="3" style="stroke:#038048;stroke-width:1.0;"/><text fill="#000000" font-family="sans-serif" font-size="14" lengthAdjust="spacing" textLength="607" x="704" y="704.5889">IsExist(ctx context.Context, id IDType, queryBuilder interfaces.IQueryBuilder) (bool, error)</text><line style="stroke:#181818;stroke-width:1.0;" x1="685" x2="1677" y1="711.8906" y2="711.8906"/><ellipse cx="695" cy="722.8906" fill="#84BE84" rx="3" ry="3" style="stroke:#038048;stroke-width:1.0;"/><text fill="#000000" font-family="sans-serif" font-size="14" lengthAdjust="spacing" textLength="431" x="704" y="728.8857">NewQueryBuilder(ctx context.Context) interfaces.IQueryBuilder</text><line style="stroke:#181818;stroke-width:1.0;" x1="685" x2="1677" y1="736.1875" y2="736.1875"/><ellipse cx="695" cy="747.1875" fill="#84BE84" rx="3" ry="3" style="stroke:#038048;stroke-width:1.0;"/><text fill="#000000" font-family="sans-serif" font-size="14" lengthAdjust="spacing" textLength="397" x="704" y="753.1826">GetById(ctx context.Context, id IDType) (EntityType, error)</text><line style="stroke:#181818;stroke-width:1.0;" x1="685" x2="1677" y1="760.4844" y2="760.4844"/><ellipse cx="695" cy="771.4844" fill="#84BE84" rx="3" ry="3" style="stroke:#038048;stroke-width:1.0;"/><text fill="#000000" font-family="sans-serif" font-size="14" lengthAdjust="spacing" textLength="443" x="704" y="777.4795">Update(ctx context.Context, entity EntityType) (EntityType, error)</text><line style="stroke:#181818;stroke-width:1.0;" x1="685" x2="1677" y1="784.7813" y2="784.7813"/><ellipse cx="695" cy="795.7813" fill="#84BE84" rx="3" ry="3" style="stroke:#038048;stroke-width:1.0;"/><text fill="#000000" font-family="sans-serif" font-size="14" lengthAdjust="spacing" textLength="432" x="704" y="801.7764">Insert(ctx context.Context, entity EntityType) (EntityType, error)</text><line style="stroke:#181818;stroke-width:1.0;" x1="685" x2="1677" y1="809.0781" y2="809.0781"/><ellipse cx="695" cy="820.0781" fill="#84BE84" rx="3" ry="3" style="stroke:#038048;stroke-width:1.0;"/><text fill="#000000" font-family="sans-serif" font-size="14" lengthAdjust="spacing" textLength="299" x="704" y="826.0732">Delete(ctx context.Context, id IDType) error</text><line style="stroke:#181818;stroke-width:1.0;" x1="685" x2="1677" y1="833.375" y2="833.375"/><ellipse cx="695" cy="844.375" fill="#84BE84" rx="3" ry="3" style="stroke:#038048;stroke-width:1.0;"/><text fill="#000000" font-family="sans-serif" font-size="14" lengthAdjust="spacing" textLength="505" x="704" y="850.3701">DeleteAll(ctx context.Context, queryBuilder interfaces.IQueryBuilder) error</text><line style="stroke:#181818;stroke-width:1.0;" x1="685" x2="1677" y1="857.6719" y2="857.6719"/><ellipse cx="695" cy="868.6719" fill="#84BE84" rx="3" ry="3" style="stroke:#038048;stroke-width:1.0;"/><text fill="#000000" font-family="sans-serif" font-size="14" lengthAdjust="spacing" textLength="104" x="704" y="874.667">Dispose() error</text></g><path d="M269.5,569 L269.5,594.1328 A0,0 0 0 0 269.5,594.1328 L594.5,594.1328 A0,0 0 0 0 594.5,594.1328 L594.5,587 L688,651.1484 L594.5,579 L594.5,579 L584.5,569 L269.5,569 A0,0 0 0 0 269.5,569 " fill="#FEFFDD" style="stroke:#181818;stroke-width:0.5;"/><path d="M584.5,569 L584.5,579 L594.5,579 L584.5,569 " fill="#FEFFDD" style="stroke:#181818;stroke-width:0.5;"/><text fill="#000000" font-family="sans-serif" font-size="13" lengthAdjust="spacing" textLength="304" x="275.5" y="586.0669">Get list of elements with filtering and pagination</text><path d="M269.5,604.1328 L269.5,629.2656 A0,0 0 0 0 269.5,629.2656 L500.5,629.2656 A0,0 0 0 0 500.5,629.2656 L500.5,622.1328 L688,675.4453 L500.5,614.1328 L500.5,614.1328 L490.5,604.1328 L269.5,604.1328 A0,0 0 0 0 269.5,604.1328 " fill="#FEFFDD" style="stroke:#181818;stroke-width:0.5;"/><path d="M490.5,604.1328 L490.5,614.1328 L500.5,614.1328 L490.5,604.1328 " fill="#FEFFDD" style="stroke:#181818;stroke-width:0.5;"/><text fill="#000000" font-family="sans-serif" font-size="13" lengthAdjust="spacing" textLength="210" x="275.5" y="621.1997">Get count of entities with filtering</text><path d="M269.5,639.2656 L269.5,664.3984 A0,0 0 0 0 269.5,664.3984 L626.5,664.3984 A0,0 0 0 0 626.5,664.3984 L626.5,657.2656 L688,699.7422 L626.5,649.2656 L626.5,649.2656 L616.5,639.2656 L269.5,639.2656 A0,0 0 0 0 269.5,639.2656 " fill="#FEFFDD" style="stroke:#181818;stroke-width:0.5;"/><path d="M616.5,639.2656 L616.5,649.2656 L626.5,649.2656 L616.5,639.2656 " fill="#FEFFDD" style="stroke:#181818;stroke-width:0.5;"/><text fill="#000000" font-family="sans-serif" font-size="13" lengthAdjust="spacing" textLength="336" x="275.5" y="656.3325">Checks that entity with selected conditions is existed</text><path d="M269.5,674.3984 L269.5,699.5313 A0,0 0 0 0 269.5,699.5313 L528.5,699.5313 A0,0 0 0 0 528.5,699.5313 L528.5,692.3984 L688,724.0391 L528.5,684.3984 L528.5,684.3984 L518.5,674.3984 L269.5,674.3984 A0,0 0 0 0 269.5,674.3984 " fill="#FEFFDD" style="stroke:#181818;stroke-width:0.5;"/><path d="M518.5,674.3984 L518.5,684.3984 L528.5,684.3984 L518.5,674.3984 " fill="#FEFFDD" style="stroke:#181818;stroke-width:0.5;"/><text fill="#000000" font-family="sans-serif" font-size="13" lengthAdjust="spacing" textLength="238" x="275.5" y="691.4653">Get new instance of the query builder</text><path d="M269.5,709.5313 L269.5,734.6641 A0,0 0 0 0 269.5,734.6641 L491.5,734.6641 A0,0 0 0 0 491.5,734.6641 L491.5,727.5313 L688,748.3359 L491.5,719.5313 L491.5,719.5313 L481.5,709.5313 L269.5,709.5313 A0,0 0 0 0 269.5,709.5313 " fill="#FEFFDD" style="stroke:#181818;stroke-width:0.5;"/><path d="M481.5,709.5313 L481.5,719.5313 L491.5,719.5313 L481.5,709.5313 " fill="#FEFFDD" style="stroke:#181818;stroke-width:0.5;"/><text fill="#000000" font-family="sans-serif" font-size="13" lengthAdjust="spacing" textLength="201" x="275.5" y="726.5981">Get entity by ID from repository</text><path d="M269.5,744.6641 L269.5,769.7969 A0,0 0 0 0 269.5,769.7969 L648.5,769.7969 A0,0 0 0 0 648.5,769.7969 L648.5,762.6641 L688,772.6328 L648.5,754.6641 L648.5,754.6641 L638.5,744.6641 L269.5,744.6641 A0,0 0 0 0 269.5,744.6641 " fill="#FEFFDD" style="stroke:#181818;stroke-width:0.5;"/><path d="M638.5,744.6641 L638.5,754.6641 L648.5,754.6641 L638.5,744.6641 " fill="#FEFFDD" style="stroke:#181818;stroke-width:0.5;"/><text fill="#000000" font-family="sans-serif" font-size="13" lengthAdjust="spacing" textLength="358" x="275.5" y="761.731">Save the changes to the existing entity in the repository</text><path d="M269.5,779.7969 L269.5,804.9297 A0,0 0 0 0 269.5,804.9297 L465.5,804.9297 A0,0 0 0 0 465.5,804.9297 L465.5,797.7969 L688,796.9297 L465.5,789.7969 L465.5,789.7969 L455.5,779.7969 L269.5,779.7969 A0,0 0 0 0 269.5,779.7969 " fill="#FEFFDD" style="stroke:#181818;stroke-width:0.5;"/><path d="M455.5,779.7969 L455.5,789.7969 L465.5,789.7969 L455.5,779.7969 " fill="#FEFFDD" style="stroke:#181818;stroke-width:0.5;"/><text fill="#000000" font-family="sans-serif" font-size="13" lengthAdjust="spacing" textLength="175" x="275.5" y="796.8638">Add entity to the repository</text><path d="M269.5,814.9297 L269.5,840.0625 A0,0 0 0 0 269.5,840.0625 L474.5,840.0625 A0,0 0 0 0 474.5,840.0625 L474.5,832.9297 L688,821.2266 L474.5,824.9297 L474.5,824.9297 L464.5,814.9297 L269.5,814.9297 A0,0 0 0 0 269.5,814.9297 " fill="#FEFFDD" style="stroke:#181818;stroke-width:0.5;"/><path d="M464.5,814.9297 L464.5,824.9297 L474.5,824.9297 L464.5,814.9297 " fill="#FEFFDD" style="stroke:#181818;stroke-width:0.5;"/><text fill="#000000" font-family="sans-serif" font-size="13" lengthAdjust="spacing" textLength="184" x="275.5" y="831.9966">Delete entity from repository</text><path d="M269.5,850.0625 L269.5,875.1953 A0,0 0 0 0 269.5,875.1953 L539.5,875.1953 A0,0 0 0 0 539.5,875.1953 L539.5,868.0625 L688,845.5234 L539.5,860.0625 L539.5,860.0625 L529.5,850.0625 L269.5,850.0625 A0,0 0 0 0 269.5,850.0625 " fill="#FEFFDD" style="stroke:#181818;stroke-width:0.5;"/><path d="M529.5,850.0625 L529.5,860.0625 L539.5,860.0625 L529.5,850.0625 " fill="#FEFFDD" style="stroke:#181818;stroke-width:0.5;"/><text fill="#000000" font-family="sans-serif" font-size="13" lengthAdjust="spacing" textLength="249" x="275.5" y="867.1294">Delete entities with selected conditions</text><path d="M269.5,885.1953 L269.5,910.3281 A0,0 0 0 0 269.5,910.3281 L454.5,910.3281 A0,0 0 0 0 454.5,910.3281 L454.5,903.1953 L688,869.8203 L454.5,895.1953 L454.5,895.1953 L444.5,885.1953 L269.5,885.1953 A0,0 0 0 0 269.5,885.1953 " fill="#FEFFDD" style="stroke:#181818;stroke-width:0.5;"/><path d="M444.5,885.1953 L444.5,895.1953 L454.5,895.1953 L444.5,885.1953 " fill="#FEFFDD" style="stroke:#181818;stroke-width:0.5;"/><text fill="#000000" font-family="sans-serif" font-size="13" lengthAdjust="spacing" textLength="164" x="275.5" y="902.2622">Dispose all allocated data</text><!--MD5=[1045d07ae824aea072cabb0fb8284887]
class EntityUUID--><g id="elem_EntityUUID"><rect codeLine="5" fill="#F1F1F1" height="48" id="EntityUUID" rx="2.5" ry="2.5" style="stroke:#181818;stroke-width:0.5;" width="104" x="282" y="231"/><ellipse cx="297" cy="247" fill="#ADD1B2" rx="11" ry="11" style="stroke:#181818;stroke-width:1.0;"/><path d="M299.9688,252.6406 Q299.3906,252.9375 298.75,253.0781 Q298.1094,253.2344 297.4063,253.2344 Q294.9063,253.2344 293.5781,251.5938 Q292.2656,249.9375 292.2656,246.8125 Q292.2656,243.6875 293.5781,242.0313 Q294.9063,240.375 297.4063,240.375 Q298.1094,240.375 298.75,240.5313 Q299.4063,240.6875 299.9688,240.9844 L299.9688,243.7031 Q299.3438,243.125 298.75,242.8594 Q298.1563,242.5781 297.5313,242.5781 Q296.1875,242.5781 295.5,243.6563 Q294.8125,244.7188 294.8125,246.8125 Q294.8125,248.9063 295.5,249.9844 Q296.1875,251.0469 297.5313,251.0469 Q298.1563,251.0469 298.75,250.7813 Q299.3438,250.5 299.9688,249.9219 L299.9688,252.6406 Z " fill="#000000"/><text fill="#000000" font-family="sans-serif" font-size="14" lengthAdjust="spacing" textLength="72" x="311" y="251.8467">EntityUUID</text><line style="stroke:#181818;stroke-width:0.5;" x1="283" x2="385" y1="263" y2="263"/><line style="stroke:#181818;stroke-width:0.5;" x1="283" x2="385" y1="271" y2="271"/></g><!--MD5=[be996cdb8e6bf2fc7cb89c555f2cd144]
class Entity--><g id="elem_Entity"><rect codeLine="8" fill="#F1F1F1" height="129.1875" id="Entity" rx="2.5" ry="2.5" style="stroke:#181818;stroke-width:0.5;" width="208" x="253" y="356"/><ellipse cx="310.25" cy="372" fill="#ADD1B2" rx="11" ry="11" style="stroke:#181818;stroke-width:1.0;"/><path d="M313.2188,377.6406 Q312.6406,377.9375 312,378.0781 Q311.3594,378.2344 310.6563,378.2344 Q308.1563,378.2344 306.8281,376.5938 Q305.5156,374.9375 305.5156,371.8125 Q305.5156,368.6875 306.8281,367.0313 Q308.1563,365.375 310.6563,365.375 Q311.3594,365.375 312,365.5313 Q312.6563,365.6875 313.2188,365.9844 L313.2188,368.7031 Q312.5938,368.125 312,367.8594 Q311.4063,367.5781 310.7813,367.5781 Q309.4375,367.5781 308.75,368.6563 Q308.0625,369.7188 308.0625,371.8125 Q308.0625,373.9063 308.75,374.9844 Q309.4375,376.0469 310.7813,376.0469 Q311.4063,376.0469 312,375.7813 Q312.5938,375.5 313.2188,374.9219 L313.2188,377.6406 Z " fill="#000000"/><text fill="#000000" font-family="sans-serif" font-size="14" lengthAdjust="spacing" textLength="38" x="330.75" y="376.8467">Entity</text><rect fill="#FFFFFF" height="15.9688" style="stroke:#000000;stroke-width:1.0;stroke-dasharray:2.0,2.0;" width="45" x="419" y="353"/><text fill="#000000" font-family="sans-serif" font-size="12" font-style="italic" lengthAdjust="spacing" textLength="43" x="420" y="365.1387">IDType</text><line style="stroke:#181818;stroke-width:0.5;" x1="254" x2="460" y1="388" y2="388"/><ellipse cx="264" cy="399" fill="none" rx="3" ry="3" style="stroke:#038048;stroke-width:1.0;"/><text fill="#000000" font-family="sans-serif" font-size="14" lengthAdjust="spacing" textLength="66" x="273" y="404.9951">ID IDType</text><line style="stroke:#181818;stroke-width:1.0;" x1="254" x2="460" y1="412.2969" y2="412.2969"/><ellipse cx="264" cy="423.2969" fill="none" rx="3" ry="3" style="stroke:#038048;stroke-width:1.0;"/><text fill="#000000" font-family="sans-serif" font-size="14" lengthAdjust="spacing" textLength="141" x="273" y="429.292">CreatedAt time.Time</text><line style="stroke:#181818;stroke-width:1.0;" x1="254" x2="460" y1="436.5938" y2="436.5938"/><ellipse cx="264" cy="447.5938" fill="none" rx="3" ry="3" style="stroke:#038048;stroke-width:1.0;"/><text fill="#000000" font-family="sans-serif" font-size="14" lengthAdjust="spacing" textLength="152" x="273" y="453.5889">UpdatedAt *time.Time</text><line style="stroke:#181818;stroke-width:1.0;" x1="254" x2="460" y1="460.8906" y2="460.8906"/><ellipse cx="264" cy="471.8906" fill="none" rx="3" ry="3" style="stroke:#038048;stroke-width:1.0;"/><text fill="#000000" font-family="sans-serif" font-size="14" lengthAdjust="spacing" textLength="182" x="273" y="477.8857">DeletedAt gorm.DeletedAt</text></g><!--MD5=[f0474206043373679905908f8f9685bc]
class DHCP4Lease--><g id="elem_DHCP4Lease"><rect codeLine="4" fill="#F1F1F1" height="129.1875" id="DHCP4Lease" rx="2.5" ry="2.5" style="stroke:#181818;stroke-width:0.5;" width="205" x="254.5" y="41"/><ellipse cx="307.75" cy="57" fill="#ADD1B2" rx="11" ry="11" style="stroke:#181818;stroke-width:1.0;"/><path d="M310.7188,62.6406 Q310.1406,62.9375 309.5,63.0781 Q308.8594,63.2344 308.1563,63.2344 Q305.6563,63.2344 304.3281,61.5938 Q303.0156,59.9375 303.0156,56.8125 Q303.0156,53.6875 304.3281,52.0313 Q305.6563,50.375 308.1563,50.375 Q308.8594,50.375 309.5,50.5313 Q310.1563,50.6875 310.7188,50.9844 L310.7188,53.7031 Q310.0938,53.125 309.5,52.8594 Q308.9063,52.5781 308.2813,52.5781 Q306.9375,52.5781 306.25,53.6563 Q305.5625,54.7188 305.5625,56.8125 Q305.5625,58.9063 306.25,59.9844 Q306.9375,61.0469 308.2813,61.0469 Q308.9063,61.0469 309.5,60.7813 Q310.0938,60.5 310.7188,59.9219 L310.7188,62.6406 Z " fill="#000000"/><text fill="#000000" font-family="sans-serif" font-size="14" lengthAdjust="spacing" textLength="90" x="328.25" y="61.8467">DHCP4Lease</text><line style="stroke:#181818;stroke-width:0.5;" x1="255.5" x2="458.5" y1="73" y2="73"/><ellipse cx="265.5" cy="84" fill="none" rx="3" ry="3" style="stroke:#038048;stroke-width:1.0;"/><text fill="#000000" font-family="sans-serif" font-size="14" lengthAdjust="spacing" textLength="86" x="274.5" y="89.9951">ID uuid.UUID</text><line style="stroke:#181818;stroke-width:1.0;" x1="255.5" x2="458.5" y1="97.2969" y2="97.2969"/><ellipse cx="265.5" cy="108.2969" fill="none" rx="3" ry="3" style="stroke:#038048;stroke-width:1.0;"/><text fill="#000000" font-family="sans-serif" font-size="14" lengthAdjust="spacing" textLength="179" x="274.5" y="114.292">DHCP4ConfigID uuid.UUID</text><line style="stroke:#181818;stroke-width:1.0;" x1="255.5" x2="458.5" y1="121.5938" y2="121.5938"/><ellipse cx="265.5" cy="132.5938" fill="none" rx="3" ry="3" style="stroke:#038048;stroke-width:1.0;"/><text fill="#000000" font-family="sans-serif" font-size="14" lengthAdjust="spacing" textLength="55" x="274.5" y="138.5889">IP string</text><line style="stroke:#181818;stroke-width:1.0;" x1="255.5" x2="458.5" y1="145.8906" y2="145.8906"/><ellipse cx="265.5" cy="156.8906" fill="none" rx="3" ry="3" style="stroke:#038048;stroke-width:1.0;"/><text fill="#000000" font-family="sans-serif" font-size="14" lengthAdjust="spacing" textLength="74" x="274.5" y="162.8857">MAC string</text></g><!--MD5=[27abfb56f32eefa7f07c83348fb1ee32]
class GormGenericRepository--><g id="elem_GormGenericRepository"><rect codeLine="5" fill="#F1F1F1" height="48" id="GormGenericRepository" rx="2.5" ry="2.5" style="stroke:#181818;stroke-width:0.5;" width="319" x="883.5" y="396.5"/><ellipse cx="898.5" cy="412.5" fill="#ADD1B2" rx="11" ry="11" style="stroke:#181818;stroke-width:1.0;"/><path d="M901.4688,418.1406 Q900.8906,418.4375 900.25,418.5781 Q899.6094,418.7344 898.9063,418.7344 Q896.4063,418.7344 895.0781,417.0938 Q893.7656,415.4375 893.7656,412.3125 Q893.7656,409.1875 895.0781,407.5313 Q896.4063,405.875 898.9063,405.875 Q899.6094,405.875 900.25,406.0313 Q900.9063,406.1875 901.4688,406.4844 L901.4688,409.2031 Q900.8438,408.625 900.25,408.3594 Q899.6563,408.0781 899.0313,408.0781 Q897.6875,408.0781 897,409.1563 Q896.3125,410.2188 896.3125,412.3125 Q896.3125,414.4063 897,415.4844 Q897.6875,416.5469 899.0313,416.5469 Q899.6563,416.5469 900.25,416.2813 Q900.8438,416 901.4688,415.4219 L901.4688,418.1406 Z " fill="#000000"/><text fill="#000000" font-family="sans-serif" font-size="14" lengthAdjust="spacing" textLength="166" x="912.5" y="417.3467">GormGenericRepository</text><rect fill="#FFFFFF" height="15.9688" style="stroke:#000000;stroke-width:1.0;stroke-dasharray:2.0,2.0;" width="119" x="1086.5" y="393.5"/><text fill="#000000" font-family="sans-serif" font-size="12" font-style="italic" lengthAdjust="spacing" textLength="117" x="1087.5" y="405.6387">IDType, EntityType</text><line style="stroke:#181818;stroke-width:0.5;" x1="884.5" x2="1201.5" y1="428.5" y2="428.5"/><line style="stroke:#181818;stroke-width:0.5;" x1="884.5" x2="1201.5" y1="436.5" y2="436.5"/></g><!--MD5=[5dca6464c16362db0ef821d71dc8abc8]
class GormDHCP4LeaseRepository--><g id="elem_GormDHCP4LeaseRepository"><rect codeLine="5" fill="#F1F1F1" height="48" id="GormDHCP4LeaseRepository" rx="2.5" ry="2.5" style="stroke:#181818;stroke-width:0.5;" width="234" x="926" y="81.5"/><ellipse cx="941" cy="97.5" fill="#ADD1B2" rx="11" ry="11" style="stroke:#181818;stroke-width:1.0;"/><path d="M943.9688,103.1406 Q943.3906,103.4375 942.75,103.5781 Q942.1094,103.7344 941.4063,103.7344 Q938.9063,103.7344 937.5781,102.0938 Q936.2656,100.4375 936.2656,97.3125 Q936.2656,94.1875 937.5781,92.5313 Q938.9063,90.875 941.4063,90.875 Q942.1094,90.875 942.75,91.0313 Q943.4063,91.1875 943.9688,91.4844 L943.9688,94.2031 Q943.3438,93.625 942.75,93.3594 Q942.1563,93.0781 941.5313,93.0781 Q940.1875,93.0781 939.5,94.1563 Q938.8125,95.2188 938.8125,97.3125 Q938.8125,99.4063 939.5,100.4844 Q940.1875,101.5469 941.5313,101.5469 Q942.1563,101.5469 942.75,101.2813 Q943.3438,101 943.9688,100.4219 L943.9688,103.1406 Z " fill="#000000"/><text fill="#000000" font-family="sans-serif" font-size="14" lengthAdjust="spacing" textLength="202" x="955" y="102.3467">GormDHCP4LeaseRepository</text><line style="stroke:#181818;stroke-width:0.5;" x1="927" x2="1159" y1="113.5" y2="113.5"/><line style="stroke:#181818;stroke-width:0.5;" x1="927" x2="1159" y1="121.5" y2="121.5"/></g><g id="elem_DHCP4LeaseTypeNote"><path d="M883,235 L883,275.2656 L1075,275.2656 L1075,245 L1065,235 L883,235 " fill="#FEFFDD" style="stroke:#181818;stroke-width:0.5;"/><path d="M1065,235 L1065,245 L1075,245 L1065,235 " fill="#FEFFDD" style="stroke:#181818;stroke-width:1.0;"/><text fill="#000000" font-family="sans-serif" font-size="13" lengthAdjust="spacing" textLength="167" x="889" y="252.0669">EntityType is DHCP4Lease</text><text fill="#000000" font-family="sans-serif" font-size="13" lengthAdjust="spacing" textLength="125" x="889" y="267.1997">IDType is uuid.UUID</text></g><!--MD5=[4afd32b9c3a651e50eee9a88aa9ac7c6]
link EntityUUID to Entity--><g id="link_EntityUUID_Entity"><path codeLine="7" d="M337.25,279.08 C339.61,295.86 342.95,319.61 346.21,342.82 " fill="none" id="EntityUUID-to-Entity" style="stroke:#181818;stroke-width:1.0;"/><polygon fill="#181818" points="348.07,355.98,351.2005,349.4838,346.408,344.0956,343.2776,350.5918,348.07,355.98" style="stroke:#181818;stroke-width:1.0;"/><text fill="#000000" font-family="sans-serif" font-size="13" lengthAdjust="spacing" textLength="125" x="344" y="322.0669">IDType is uuid.UUID</text></g><!--MD5=[a6c7a0eda5b041e127f539f1664bb96a]
link Entity to IEntityModel--><g id="link_Entity_IEntityModel"><path codeLine="17" d="M287.76,485.04 C275.2,498.02 262.7,512.01 252,526 C219.72,568.2 190,619.68 167.75,661.97 " fill="none" id="Entity-to-IEntityModel" style="stroke:#181818;stroke-width:1.0;stroke-dasharray:7.0,7.0;"/><polygon fill="none" points="173.94,665.23,158.53,679.77,161.51,658.79,173.94,665.23" style="stroke:#181818;stroke-width:1.0;"/></g><!--MD5=[11858071ca1ebba6204425b9bdcd199e]
link DHCP4Lease to EntityUUID--><g id="link_DHCP4Lease_EntityUUID"><path codeLine="13" d="M343.87,170.24 C342.07,180.17 340.37,190.34 339,200 C338.19,205.66 337.49,211.68 336.88,217.56 " fill="none" id="DHCP4Lease-to-EntityUUID" style="stroke:#181818;stroke-width:1.0;"/><polygon fill="#181818" points="335.65,230.82,340.193,225.2199,336.7709,218.8725,332.2279,224.4726,335.65,230.82" style="stroke:#181818;stroke-width:1.0;"/></g><!--MD5=[1b84833638557571905b03f54e842c8c]
link GormGenericRepository to IGenericRepository--><g id="link_GormGenericRepository_IGenericRepository"><path codeLine="7" d="M1052.92,444.66 C1066.08,475.36 1090.45,532.22 1114.43,588.17 " fill="none" id="GormGenericRepository-to-IGenericRepository" style="stroke:#181818;stroke-width:1.0;stroke-dasharray:7.0,7.0;"/><polygon fill="none" points="1120.91,585.52,1122.36,606.66,1108.04,591.04,1120.91,585.52" style="stroke:#181818;stroke-width:1.0;"/></g><!--MD5=[eabd0f0a5258a17843f23349842c1db2]
link GormDHCP4LeaseRepository to GormGenericRepository--><g id="link_GormDHCP4LeaseRepository_GormGenericRepository"><path codeLine="7" d="M1055.38,129.55 C1067.72,153.94 1085.84,193.95 1093,231 C1103.48,285.21 1080.32,346.84 1062.13,384.44 " fill="none" id="GormDHCP4LeaseRepository-to-GormGenericRepository" style="stroke:#181818;stroke-width:1.0;"/><polygon fill="#181818" points="1056.2,396.23,1062.4698,392.6677,1061.5929,385.5101,1055.3232,389.0724,1056.2,396.23" style="stroke:#181818;stroke-width:1.0;"/></g><!--MD5=[ff79e572fabcc8b56f5acd6674015fa5]
link GormDHCP4LeaseRepository to DHCP4LeaseTypeNote--><g id="link_GormDHCP4LeaseRepository_DHCP4LeaseTypeNote"><path codeLine="11" d="M1033,129.55 C1020.41,158.55 999.03,207.84 987.3,234.87 " fill="none" id="GormDHCP4LeaseRepository-DHCP4LeaseTypeNote" style="stroke:#181818;stroke-width:1.0;stroke-dasharray:7.0,7.0;"/></g><!--MD5=[7add970746c243e5d9117923b7b5e77b]
link DHCP4LeaseTypeNote to GormGenericRepository--><g id="link_DHCP4LeaseTypeNote_GormGenericRepository"><path codeLine="12" d="M986.47,275.08 C997.72,303.82 1019.08,358.4 1032.08,391.61 " fill="none" id="DHCP4LeaseTypeNote-to-GormGenericRepository" style="stroke:#181818;stroke-width:1.0;stroke-dasharray:7.0,7.0;"/><polygon fill="#181818" points="1033.94,396.35,1034.374,386.5107,1032.1126,391.6959,1026.9274,389.4345,1033.94,396.35" style="stroke:#181818;stroke-width:1.0;"/></g><!--MD5=[d04ee9948be0dbd03ed47575f1fdf7fb]
link DHCP4Lease to DHCP4LeaseTypeNote--><g id="link_DHCP4Lease_DHCP4LeaseTypeNote"><path codeLine="13" d="M459.71,130.86 C582.72,160.03 786.19,208.28 898.44,234.9 " fill="none" id="DHCP4Lease-DHCP4LeaseTypeNote" style="stroke:#181818;stroke-width:1.0;stroke-dasharray:7.0,7.0;"/></g><!--MD5=[eab27c9c3ac1fbb8bad67c6ab160a908]
@startuml
!include ../entities/DHCP4Lease.puml
!include GormGenericRepository.puml

package infrastructure {
    class GormDHCP4LeaseRepository

    GormDHCP4LeaseRepository -down-* GormGenericRepository

    note "EntityType is DHCP4Lease \nIDType is uuid.UUID" as DHCP4LeaseTypeNote

    GormDHCP4LeaseRepository .down. DHCP4LeaseTypeNote
    GormGenericRepository <.up. DHCP4LeaseTypeNote
    DHCP4Lease .. DHCP4LeaseTypeNote
}

@enduml

@startuml


package app {
    interface IEntityModel<IDType> {
        +GetID() IDType
        - -
        +GetCreatedAt() time.Time
        - -
        +GetUpdatedAt() *time.Time
        - -
        +GetDeletedAt() *time.Time
    }
}


package domain {
    class EntityUUID {
    }
    EntityUUID - -* Entity : IDType is uuid.UUID
    class Entity<IDType> {
        +ID IDType
        - -
        +CreatedAt time.Time
        - -
        +UpdatedAt *time.Time
        - -
        +DeletedAt gorm.DeletedAt
    }
    Entity .down.|> IEntityModel
}


package domain {
    class DHCP4Lease {
        +ID uuid.UUID
        - -
        +DHCP4ConfigID uuid.UUID
        - -
        +IP string
        - -
        +MAC string
    }
    DHCP4Lease -down-* EntityUUID
}



package app {
    interface IGenericRepository<IDType, interfaces.IEntityModel[IDType]> {
        +GetList(ctx context.Context, orderBy string, orderDirection string, page int, size int, queryBuilder interfaces.IQueryBuilder) ([]EntityType, error)
        - -
        +Count(ctx context.Context, queryBuilder interfaces.IQueryBuilder) (int, error)
        - -
        +IsExist(ctx context.Context, id IDType, queryBuilder interfaces.IQueryBuilder) (bool, error)
        - -
        +NewQueryBuilder(ctx context.Context) interfaces.IQueryBuilder
        - -
        +GetById(ctx context.Context, id IDType) (EntityType, error)
        - -
        +Update(ctx context.Context, entity EntityType) (EntityType, error)
        - -
        +Insert(ctx context.Context, entity EntityType) (EntityType, error)
        - -
        +Delete(ctx context.Context, id IDType) error
        - -
        +DeleteAll(ctx context.Context, queryBuilder interfaces.IQueryBuilder) error
        - -
        +Dispose() error
    }
    note left of IGenericRepository::GetList
      Get list of elements with filtering and pagination
    end note

    note left of IGenericRepository::Count
      Get count of entities with filtering
    end note

    note left of IGenericRepository::IsExist
      Checks that entity with selected conditions is existed
    end note

    note left of IGenericRepository::NewQueryBuilder
      Get new instance of the query builder
    end note

    note left of IGenericRepository::GetById
      Get entity by ID from repository
    end note

    note left of IGenericRepository::Update
      Save the changes to the existing entity in the repository
    end note

    note left of IGenericRepository::Insert
      Add entity to the repository
    end note

    note left of IGenericRepository::Delete
      Delete entity from repository
    end note

    note left of IGenericRepository::DeleteAll
      Delete entities with selected conditions
    end note

    note left of IGenericRepository::Dispose
      Dispose all allocated data
    end note
}


package infrastructure {
    class GormGenericRepository<IDType, EntityType>

    GormGenericRepository .down.|> IGenericRepository
}


package infrastructure {
    class GormDHCP4LeaseRepository

    GormDHCP4LeaseRepository -down-* GormGenericRepository

    note "EntityType is DHCP4Lease \nIDType is uuid.UUID" as DHCP4LeaseTypeNote

    GormDHCP4LeaseRepository .down. DHCP4LeaseTypeNote
    GormGenericRepository <.up. DHCP4LeaseTypeNote
    DHCP4Lease .. DHCP4LeaseTypeNote
}

@enduml

PlantUML version 1.2022.6(Tue Jun 21 17:34:49 EGST 2022)
(GPL source distribution)
Java Runtime: OpenJDK Runtime Environment
JVM: OpenJDK 64-Bit Server VM
Default Encoding: UTF-8
Language: en
Country: US
--></g></svg>