<?xml version="1.0" encoding="UTF-8" standalone="no"?><svg xmlns="http://www.w3.org/2000/svg" xmlns:xlink="http://www.w3.org/1999/xlink" contentStyleType="text/css" height="943px" preserveAspectRatio="none" style="width:1708px;height:943px;background:#FFFFFF;" version="1.1" viewBox="0 0 1708 943" width="1708px" zoomAndPan="magnify"><defs/><g><!--MD5=[d5ac3844f66b12d9e08170e47495e096]
cluster app--><g id="cluster_app"><path d="M15.5,534 L45.5,534 A3.75,3.75 0 0 1 48,536.5 L55,556.2969 L1698.5,556.2969 A2.5,2.5 0 0 1 1701,558.7969 L1701,933.5 A2.5,2.5 0 0 1 1698.5,936 L15.5,936 A2.5,2.5 0 0 1 13,933.5 L13,536.5 A2.5,2.5 0 0 1 15.5,534 " style="stroke:#000000;stroke-width:1.5;fill:none;"/><line style="stroke:#000000;stroke-width:1.5;fill:none;" x1="13" x2="55" y1="556.2969" y2="556.2969"/><text fill="#000000" font-family="sans-serif" font-size="14" font-weight="bold" lengthAdjust="spacing" textLength="29" x="17" y="548.9951">app</text></g><!--MD5=[27f772719433d509ddbc20ff768eba08]
cluster domain--><g id="cluster_domain"><path d="M8.5,6 L66.5,6 A3.75,3.75 0 0 1 69,8.5 L76,28.2969 L297.5,28.2969 A2.5,2.5 0 0 1 300,30.7969 L300,498.5 A2.5,2.5 0 0 1 297.5,501 L8.5,501 A2.5,2.5 0 0 1 6,498.5 L6,8.5 A2.5,2.5 0 0 1 8.5,6 " style="stroke:#000000;stroke-width:1.5;fill:none;"/><line style="stroke:#000000;stroke-width:1.5;fill:none;" x1="6" x2="76" y1="28.2969" y2="28.2969"/><text fill="#000000" font-family="sans-serif" font-size="14" font-weight="bold" lengthAdjust="spacing" textLength="57" x="10" y="20.9951">domain</text></g><!--MD5=[77349be1bd27b81b697a0f9b3aded3c8]
cluster infrastructure--><g id="cluster_infrastructure"><path d="M667.5,46.5 L778.5,46.5 A3.75,3.75 0 0 1 781,49 L788,68.7969 L1014.5,68.7969 A2.5,2.5 0 0 1 1017,71.2969 L1017,458 A2.5,2.5 0 0 1 1014.5,460.5 L667.5,460.5 A2.5,2.5 0 0 1 665,458 L665,49 A2.5,2.5 0 0 1 667.5,46.5 " style="stroke:#000000;stroke-width:1.5;fill:none;"/><line style="stroke:#000000;stroke-width:1.5;fill:none;" x1="665" x2="788" y1="68.7969" y2="68.7969"/><text fill="#000000" font-family="sans-serif" font-size="14" font-weight="bold" lengthAdjust="spacing" textLength="110" x="669" y="61.4951">infrastructure</text></g><!--MD5=[2a39a5be1cc24ddddd6e6286e4ece992]
class IEntityModel--><g id="elem_IEntityModel"><rect codeLine="3" fill="#F1F1F1" height="129.1875" id="IEntityModel" rx="2.5" ry="2.5" style="stroke:#181818;stroke-width:0.5;" width="213" x="28.5" y="680"/><ellipse cx="65.55" cy="696" fill="#B4A7E5" rx="11" ry="11" style="stroke:#181818;stroke-width:1.0;"/><path d="M61.4719,691.7656 L61.4719,689.6094 L68.8625,689.6094 L68.8625,691.7656 L66.3938,691.7656 L66.3938,699.8438 L68.8625,699.8438 L68.8625,702 L61.4719,702 L61.4719,699.8438 L63.9406,699.8438 L63.9406,691.7656 L61.4719,691.7656 Z " fill="#000000"/><text fill="#000000" font-family="sans-serif" font-size="14" font-style="italic" lengthAdjust="spacing" textLength="85" x="84.45" y="700.8467">IEntityModel</text><rect fill="#FFFFFF" height="15.9688" style="stroke:#000000;stroke-width:1.0;stroke-dasharray:2.0,2.0;" width="45" x="199.5" y="677"/><text fill="#000000" font-family="sans-serif" font-size="12" font-style="italic" lengthAdjust="spacing" textLength="43" x="200.5" y="689.1387">IDType</text><line style="stroke:#181818;stroke-width:0.5;" x1="29.5" x2="240.5" y1="712" y2="712"/><ellipse cx="39.5" cy="723" fill="#84BE84" rx="3" ry="3" style="stroke:#038048;stroke-width:1.0;"/><text fill="#000000" font-family="sans-serif" font-size="14" lengthAdjust="spacing" textLength="101" x="48.5" y="728.9951">GetID() IDType</text><line style="stroke:#181818;stroke-width:1.0;" x1="29.5" x2="240.5" y1="736.2969" y2="736.2969"/><ellipse cx="39.5" cy="747.2969" fill="#84BE84" rx="3" ry="3" style="stroke:#038048;stroke-width:1.0;"/><text fill="#000000" font-family="sans-serif" font-size="14" lengthAdjust="spacing" textLength="176" x="48.5" y="753.292">GetCreatedAt() time.Time</text><line style="stroke:#181818;stroke-width:1.0;" x1="29.5" x2="240.5" y1="760.5938" y2="760.5938"/><ellipse cx="39.5" cy="771.5938" fill="#84BE84" rx="3" ry="3" style="stroke:#038048;stroke-width:1.0;"/><text fill="#000000" font-family="sans-serif" font-size="14" lengthAdjust="spacing" textLength="187" x="48.5" y="777.5889">GetUpdatedAt() *time.Time</text><line style="stroke:#181818;stroke-width:1.0;" x1="29.5" x2="240.5" y1="784.8906" y2="784.8906"/><ellipse cx="39.5" cy="795.8906" fill="#84BE84" rx="3" ry="3" style="stroke:#038048;stroke-width:1.0;"/><text fill="#000000" font-family="sans-serif" font-size="14" lengthAdjust="spacing" textLength="183" x="48.5" y="801.8857">GetDeletedAt() *time.Time</text></g><!--MD5=[b3e0f8dcddb1b27f071a0303a68762bf]
class IGenericRepository--><g id="elem_IGenericRepository"><rect codeLine="3" fill="#F1F1F1" height="274.9688" id="IGenericRepository" rx="2.5" ry="2.5" style="stroke:#181818;stroke-width:0.5;" width="994" x="691" y="607"/><ellipse cx="992.25" cy="623" fill="#B4A7E5" rx="11" ry="11" style="stroke:#181818;stroke-width:1.0;"/><path d="M988.1719,618.7656 L988.1719,616.6094 L995.5625,616.6094 L995.5625,618.7656 L993.0938,618.7656 L993.0938,626.8438 L995.5625,626.8438 L995.5625,629 L988.1719,629 L988.1719,626.8438 L990.6406,626.8438 L990.6406,618.7656 L988.1719,618.7656 Z " fill="#000000"/><text fill="#000000" font-family="sans-serif" font-size="14" font-style="italic" lengthAdjust="spacing" textLength="132" x="1012.75" y="627.8467">IGenericRepository</text><rect fill="#FFFFFF" height="15.9688" style="stroke:#000000;stroke-width:1.0;stroke-dasharray:2.0,2.0;" width="249" x="1439" y="604"/><text fill="#000000" font-family="sans-serif" font-size="12" font-style="italic" lengthAdjust="spacing" textLength="247" x="1440" y="616.1387">IDType, interfaces.IEntityModel[IDType]</text><line style="stroke:#181818;stroke-width:0.5;" x1="692" x2="1684" y1="639" y2="639"/><ellipse cx="702" cy="650" fill="#84BE84" rx="3" ry="3" style="stroke:#038048;stroke-width:1.0;"/><text fill="#000000" font-family="sans-serif" font-size="14" lengthAdjust="spacing" textLength="968" x="711" y="655.9951">GetList(ctx context.Context, orderBy string, orderDirection string, page int, size int, queryBuilder interfaces.IQueryBuilder) ([]EntityType, error)</text><line style="stroke:#181818;stroke-width:1.0;" x1="692" x2="1684" y1="663.2969" y2="663.2969"/><ellipse cx="702" cy="674.2969" fill="#84BE84" rx="3" ry="3" style="stroke:#038048;stroke-width:1.0;"/><text fill="#000000" font-family="sans-serif" font-size="14" lengthAdjust="spacing" textLength="521" x="711" y="680.292">Count(ctx context.Context, queryBuilder interfaces.IQueryBuilder) (int, error)</text><line style="stroke:#181818;stroke-width:1.0;" x1="692" x2="1684" y1="687.5938" y2="687.5938"/><ellipse cx="702" cy="698.5938" fill="#84BE84" rx="3" ry="3" style="stroke:#038048;stroke-width:1.0;"/><text fill="#000000" font-family="sans-serif" font-size="14" lengthAdjust="spacing" textLength="607" x="711" y="704.5889">IsExist(ctx context.Context, id IDType, queryBuilder interfaces.IQueryBuilder) (bool, error)</text><line style="stroke:#181818;stroke-width:1.0;" x1="692" x2="1684" y1="711.8906" y2="711.8906"/><ellipse cx="702" cy="722.8906" fill="#84BE84" rx="3" ry="3" style="stroke:#038048;stroke-width:1.0;"/><text fill="#000000" font-family="sans-serif" font-size="14" lengthAdjust="spacing" textLength="431" x="711" y="728.8857">NewQueryBuilder(ctx context.Context) interfaces.IQueryBuilder</text><line style="stroke:#181818;stroke-width:1.0;" x1="692" x2="1684" y1="736.1875" y2="736.1875"/><ellipse cx="702" cy="747.1875" fill="#84BE84" rx="3" ry="3" style="stroke:#038048;stroke-width:1.0;"/><text fill="#000000" font-family="sans-serif" font-size="14" lengthAdjust="spacing" textLength="397" x="711" y="753.1826">GetById(ctx context.Context, id IDType) (EntityType, error)</text><line style="stroke:#181818;stroke-width:1.0;" x1="692" x2="1684" y1="760.4844" y2="760.4844"/><ellipse cx="702" cy="771.4844" fill="#84BE84" rx="3" ry="3" style="stroke:#038048;stroke-width:1.0;"/><text fill="#000000" font-family="sans-serif" font-size="14" lengthAdjust="spacing" textLength="443" x="711" y="777.4795">Update(ctx context.Context, entity EntityType) (EntityType, error)</text><line style="stroke:#181818;stroke-width:1.0;" x1="692" x2="1684" y1="784.7813" y2="784.7813"/><ellipse cx="702" cy="795.7813" fill="#84BE84" rx="3" ry="3" style="stroke:#038048;stroke-width:1.0;"/><text fill="#000000" font-family="sans-serif" font-size="14" lengthAdjust="spacing" textLength="432" x="711" y="801.7764">Insert(ctx context.Context, entity EntityType) (EntityType, error)</text><line style="stroke:#181818;stroke-width:1.0;" x1="692" x2="1684" y1="809.0781" y2="809.0781"/><ellipse cx="702" cy="820.0781" fill="#84BE84" rx="3" ry="3" style="stroke:#038048;stroke-width:1.0;"/><text fill="#000000" font-family="sans-serif" font-size="14" lengthAdjust="spacing" textLength="299" x="711" y="826.0732">Delete(ctx context.Context, id IDType) error</text><line style="stroke:#181818;stroke-width:1.0;" x1="692" x2="1684" y1="833.375" y2="833.375"/><ellipse cx="702" cy="844.375" fill="#84BE84" rx="3" ry="3" style="stroke:#038048;stroke-width:1.0;"/><text fill="#000000" font-family="sans-serif" font-size="14" lengthAdjust="spacing" textLength="505" x="711" y="850.3701">DeleteAll(ctx context.Context, queryBuilder interfaces.IQueryBuilder) error</text><line style="stroke:#181818;stroke-width:1.0;" x1="692" x2="1684" y1="857.6719" y2="857.6719"/><ellipse cx="702" cy="868.6719" fill="#84BE84" rx="3" ry="3" style="stroke:#038048;stroke-width:1.0;"/><text fill="#000000" font-family="sans-serif" font-size="14" lengthAdjust="spacing" textLength="104" x="711" y="874.667">Dispose() error</text></g><path d="M276.5,569 L276.5,594.1328 A0,0 0 0 0 276.5,594.1328 L601.5,594.1328 A0,0 0 0 0 601.5,594.1328 L601.5,587 L695,651.1484 L601.5,579 L601.5,579 L591.5,569 L276.5,569 A0,0 0 0 0 276.5,569 " fill="#FEFFDD" style="stroke:#181818;stroke-width:0.5;"/><path d="M591.5,569 L591.5,579 L601.5,579 L591.5,569 " fill="#FEFFDD" style="stroke:#181818;stroke-width:0.5;"/><text fill="#000000" font-family="sans-serif" font-size="13" lengthAdjust="spacing" textLength="304" x="282.5" y="586.0669">Get list of elements with filtering and pagination</text><path d="M276.5,604.1328 L276.5,629.2656 A0,0 0 0 0 276.5,629.2656 L507.5,629.2656 A0,0 0 0 0 507.5,629.2656 L507.5,622.1328 L695,675.4453 L507.5,614.1328 L507.5,614.1328 L497.5,604.1328 L276.5,604.1328 A0,0 0 0 0 276.5,604.1328 " fill="#FEFFDD" style="stroke:#181818;stroke-width:0.5;"/><path d="M497.5,604.1328 L497.5,614.1328 L507.5,614.1328 L497.5,604.1328 " fill="#FEFFDD" style="stroke:#181818;stroke-width:0.5;"/><text fill="#000000" font-family="sans-serif" font-size="13" lengthAdjust="spacing" textLength="210" x="282.5" y="621.1997">Get count of entities with filtering</text><path d="M276.5,639.2656 L276.5,664.3984 A0,0 0 0 0 276.5,664.3984 L633.5,664.3984 A0,0 0 0 0 633.5,664.3984 L633.5,657.2656 L695,699.7422 L633.5,649.2656 L633.5,649.2656 L623.5,639.2656 L276.5,639.2656 A0,0 0 0 0 276.5,639.2656 " fill="#FEFFDD" style="stroke:#181818;stroke-width:0.5;"/><path d="M623.5,639.2656 L623.5,649.2656 L633.5,649.2656 L623.5,639.2656 " fill="#FEFFDD" style="stroke:#181818;stroke-width:0.5;"/><text fill="#000000" font-family="sans-serif" font-size="13" lengthAdjust="spacing" textLength="336" x="282.5" y="656.3325">Checks that entity with selected conditions is existed</text><path d="M276.5,674.3984 L276.5,699.5313 A0,0 0 0 0 276.5,699.5313 L535.5,699.5313 A0,0 0 0 0 535.5,699.5313 L535.5,692.3984 L695,724.0391 L535.5,684.3984 L535.5,684.3984 L525.5,674.3984 L276.5,674.3984 A0,0 0 0 0 276.5,674.3984 " fill="#FEFFDD" style="stroke:#181818;stroke-width:0.5;"/><path d="M525.5,674.3984 L525.5,684.3984 L535.5,684.3984 L525.5,674.3984 " fill="#FEFFDD" style="stroke:#181818;stroke-width:0.5;"/><text fill="#000000" font-family="sans-serif" font-size="13" lengthAdjust="spacing" textLength="238" x="282.5" y="691.4653">Get new instance of the query builder</text><path d="M276.5,709.5313 L276.5,734.6641 A0,0 0 0 0 276.5,734.6641 L498.5,734.6641 A0,0 0 0 0 498.5,734.6641 L498.5,727.5313 L695,748.3359 L498.5,719.5313 L498.5,719.5313 L488.5,709.5313 L276.5,709.5313 A0,0 0 0 0 276.5,709.5313 " fill="#FEFFDD" style="stroke:#181818;stroke-width:0.5;"/><path d="M488.5,709.5313 L488.5,719.5313 L498.5,719.5313 L488.5,709.5313 " fill="#FEFFDD" style="stroke:#181818;stroke-width:0.5;"/><text fill="#000000" font-family="sans-serif" font-size="13" lengthAdjust="spacing" textLength="201" x="282.5" y="726.5981">Get entity by ID from repository</text><path d="M276.5,744.6641 L276.5,769.7969 A0,0 0 0 0 276.5,769.7969 L655.5,769.7969 A0,0 0 0 0 655.5,769.7969 L655.5,762.6641 L695,772.6328 L655.5,754.6641 L655.5,754.6641 L645.5,744.6641 L276.5,744.6641 A0,0 0 0 0 276.5,744.6641 " fill="#FEFFDD" style="stroke:#181818;stroke-width:0.5;"/><path d="M645.5,744.6641 L645.5,754.6641 L655.5,754.6641 L645.5,744.6641 " fill="#FEFFDD" style="stroke:#181818;stroke-width:0.5;"/><text fill="#000000" font-family="sans-serif" font-size="13" lengthAdjust="spacing" textLength="358" x="282.5" y="761.731">Save the changes to the existing entity in the repository</text><path d="M276.5,779.7969 L276.5,804.9297 A0,0 0 0 0 276.5,804.9297 L472.5,804.9297 A0,0 0 0 0 472.5,804.9297 L472.5,797.7969 L695,796.9297 L472.5,789.7969 L472.5,789.7969 L462.5,779.7969 L276.5,779.7969 A0,0 0 0 0 276.5,779.7969 " fill="#FEFFDD" style="stroke:#181818;stroke-width:0.5;"/><path d="M462.5,779.7969 L462.5,789.7969 L472.5,789.7969 L462.5,779.7969 " fill="#FEFFDD" style="stroke:#181818;stroke-width:0.5;"/><text fill="#000000" font-family="sans-serif" font-size="13" lengthAdjust="spacing" textLength="175" x="282.5" y="796.8638">Add entity to the repository</text><path d="M276.5,814.9297 L276.5,840.0625 A0,0 0 0 0 276.5,840.0625 L481.5,840.0625 A0,0 0 0 0 481.5,840.0625 L481.5,832.9297 L695,821.2266 L481.5,824.9297 L481.5,824.9297 L471.5,814.9297 L276.5,814.9297 A0,0 0 0 0 276.5,814.9297 " fill="#FEFFDD" style="stroke:#181818;stroke-width:0.5;"/><path d="M471.5,814.9297 L471.5,824.9297 L481.5,824.9297 L471.5,814.9297 " fill="#FEFFDD" style="stroke:#181818;stroke-width:0.5;"/><text fill="#000000" font-family="sans-serif" font-size="13" lengthAdjust="spacing" textLength="184" x="282.5" y="831.9966">Delete entity from repository</text><path d="M276.5,850.0625 L276.5,875.1953 A0,0 0 0 0 276.5,875.1953 L546.5,875.1953 A0,0 0 0 0 546.5,875.1953 L546.5,868.0625 L695,845.5234 L546.5,860.0625 L546.5,860.0625 L536.5,850.0625 L276.5,850.0625 A0,0 0 0 0 276.5,850.0625 " fill="#FEFFDD" style="stroke:#181818;stroke-width:0.5;"/><path d="M536.5,850.0625 L536.5,860.0625 L546.5,860.0625 L536.5,850.0625 " fill="#FEFFDD" style="stroke:#181818;stroke-width:0.5;"/><text fill="#000000" font-family="sans-serif" font-size="13" lengthAdjust="spacing" textLength="249" x="282.5" y="867.1294">Delete entities with selected conditions</text><path d="M276.5,885.1953 L276.5,910.3281 A0,0 0 0 0 276.5,910.3281 L461.5,910.3281 A0,0 0 0 0 461.5,910.3281 L461.5,903.1953 L695,869.8203 L461.5,895.1953 L461.5,895.1953 L451.5,885.1953 L276.5,885.1953 A0,0 0 0 0 276.5,885.1953 " fill="#FEFFDD" style="stroke:#181818;stroke-width:0.5;"/><path d="M451.5,885.1953 L451.5,895.1953 L461.5,895.1953 L451.5,885.1953 " fill="#FEFFDD" style="stroke:#181818;stroke-width:0.5;"/><text fill="#000000" font-family="sans-serif" font-size="13" lengthAdjust="spacing" textLength="164" x="282.5" y="902.2622">Dispose all allocated data</text><!--MD5=[1045d07ae824aea072cabb0fb8284887]
class EntityUUID--><g id="elem_EntityUUID"><rect codeLine="5" fill="#F1F1F1" height="48" id="EntityUUID" rx="2.5" ry="2.5" style="stroke:#181818;stroke-width:0.5;" width="104" x="89" y="231"/><ellipse cx="104" cy="247" fill="#ADD1B2" rx="11" ry="11" style="stroke:#181818;stroke-width:1.0;"/><path d="M106.9688,252.6406 Q106.3906,252.9375 105.75,253.0781 Q105.1094,253.2344 104.4063,253.2344 Q101.9063,253.2344 100.5781,251.5938 Q99.2656,249.9375 99.2656,246.8125 Q99.2656,243.6875 100.5781,242.0313 Q101.9063,240.375 104.4063,240.375 Q105.1094,240.375 105.75,240.5313 Q106.4063,240.6875 106.9688,240.9844 L106.9688,243.7031 Q106.3438,243.125 105.75,242.8594 Q105.1563,242.5781 104.5313,242.5781 Q103.1875,242.5781 102.5,243.6563 Q101.8125,244.7188 101.8125,246.8125 Q101.8125,248.9063 102.5,249.9844 Q103.1875,251.0469 104.5313,251.0469 Q105.1563,251.0469 105.75,250.7813 Q106.3438,250.5 106.9688,249.9219 L106.9688,252.6406 Z " fill="#000000"/><text fill="#000000" font-family="sans-serif" font-size="14" lengthAdjust="spacing" textLength="72" x="118" y="251.8467">EntityUUID</text><line style="stroke:#181818;stroke-width:0.5;" x1="90" x2="192" y1="263" y2="263"/><line style="stroke:#181818;stroke-width:0.5;" x1="90" x2="192" y1="271" y2="271"/></g><!--MD5=[be996cdb8e6bf2fc7cb89c555f2cd144]
class Entity--><g id="elem_Entity"><rect codeLine="8" fill="#F1F1F1" height="129.1875" id="Entity" rx="2.5" ry="2.5" style="stroke:#181818;stroke-width:0.5;" width="208" x="37" y="356"/><ellipse cx="94.25" cy="372" fill="#ADD1B2" rx="11" ry="11" style="stroke:#181818;stroke-width:1.0;"/><path d="M97.2188,377.6406 Q96.6406,377.9375 96,378.0781 Q95.3594,378.2344 94.6563,378.2344 Q92.1563,378.2344 90.8281,376.5938 Q89.5156,374.9375 89.5156,371.8125 Q89.5156,368.6875 90.8281,367.0313 Q92.1563,365.375 94.6563,365.375 Q95.3594,365.375 96,365.5313 Q96.6563,365.6875 97.2188,365.9844 L97.2188,368.7031 Q96.5938,368.125 96,367.8594 Q95.4063,367.5781 94.7813,367.5781 Q93.4375,367.5781 92.75,368.6563 Q92.0625,369.7188 92.0625,371.8125 Q92.0625,373.9063 92.75,374.9844 Q93.4375,376.0469 94.7813,376.0469 Q95.4063,376.0469 96,375.7813 Q96.5938,375.5 97.2188,374.9219 L97.2188,377.6406 Z " fill="#000000"/><text fill="#000000" font-family="sans-serif" font-size="14" lengthAdjust="spacing" textLength="38" x="114.75" y="376.8467">Entity</text><rect fill="#FFFFFF" height="15.9688" style="stroke:#000000;stroke-width:1.0;stroke-dasharray:2.0,2.0;" width="45" x="203" y="353"/><text fill="#000000" font-family="sans-serif" font-size="12" font-style="italic" lengthAdjust="spacing" textLength="43" x="204" y="365.1387">IDType</text><line style="stroke:#181818;stroke-width:0.5;" x1="38" x2="244" y1="388" y2="388"/><ellipse cx="48" cy="399" fill="none" rx="3" ry="3" style="stroke:#038048;stroke-width:1.0;"/><text fill="#000000" font-family="sans-serif" font-size="14" lengthAdjust="spacing" textLength="66" x="57" y="404.9951">ID IDType</text><line style="stroke:#181818;stroke-width:1.0;" x1="38" x2="244" y1="412.2969" y2="412.2969"/><ellipse cx="48" cy="423.2969" fill="none" rx="3" ry="3" style="stroke:#038048;stroke-width:1.0;"/><text fill="#000000" font-family="sans-serif" font-size="14" lengthAdjust="spacing" textLength="141" x="57" y="429.292">CreatedAt time.Time</text><line style="stroke:#181818;stroke-width:1.0;" x1="38" x2="244" y1="436.5938" y2="436.5938"/><ellipse cx="48" cy="447.5938" fill="none" rx="3" ry="3" style="stroke:#038048;stroke-width:1.0;"/><text fill="#000000" font-family="sans-serif" font-size="14" lengthAdjust="spacing" textLength="152" x="57" y="453.5889">UpdatedAt *time.Time</text><line style="stroke:#181818;stroke-width:1.0;" x1="38" x2="244" y1="460.8906" y2="460.8906"/><ellipse cx="48" cy="471.8906" fill="none" rx="3" ry="3" style="stroke:#038048;stroke-width:1.0;"/><text fill="#000000" font-family="sans-serif" font-size="14" lengthAdjust="spacing" textLength="182" x="57" y="477.8857">DeletedAt gorm.DeletedAt</text></g><!--MD5=[b88d1a2f408d15f3dc0c862cc24bb0c6]
class AppLog--><g id="elem_AppLog"><rect codeLine="5" fill="#F1F1F1" height="129.1875" id="AppLog" rx="2.5" ry="2.5" style="stroke:#181818;stroke-width:0.5;" width="261" x="22.5" y="41"/><ellipse cx="122.75" cy="57" fill="#ADD1B2" rx="11" ry="11" style="stroke:#181818;stroke-width:1.0;"/><path d="M125.7188,62.6406 Q125.1406,62.9375 124.5,63.0781 Q123.8594,63.2344 123.1563,63.2344 Q120.6563,63.2344 119.3281,61.5938 Q118.0156,59.9375 118.0156,56.8125 Q118.0156,53.6875 119.3281,52.0313 Q120.6563,50.375 123.1563,50.375 Q123.8594,50.375 124.5,50.5313 Q125.1563,50.6875 125.7188,50.9844 L125.7188,53.7031 Q125.0938,53.125 124.5,52.8594 Q123.9063,52.5781 123.2813,52.5781 Q121.9375,52.5781 121.25,53.6563 Q120.5625,54.7188 120.5625,56.8125 Q120.5625,58.9063 121.25,59.9844 Q121.9375,61.0469 123.2813,61.0469 Q123.9063,61.0469 124.5,60.7813 Q125.0938,60.5 125.7188,59.9219 L125.7188,62.6406 Z " fill="#000000"/><text fill="#000000" font-family="sans-serif" font-size="14" lengthAdjust="spacing" textLength="52" x="143.25" y="61.8467">AppLog</text><line style="stroke:#181818;stroke-width:0.5;" x1="23.5" x2="282.5" y1="73" y2="73"/><ellipse cx="33.5" cy="84" fill="none" rx="3" ry="3" style="stroke:#038048;stroke-width:1.0;"/><text fill="#000000" font-family="sans-serif" font-size="14" lengthAdjust="spacing" textLength="235" x="42.5" y="89.9951">ActionID uuid.UUID `gorm:"index"`</text><line style="stroke:#181818;stroke-width:1.0;" x1="23.5" x2="282.5" y1="97.2969" y2="97.2969"/><ellipse cx="33.5" cy="108.2969" fill="none" rx="3" ry="3" style="stroke:#038048;stroke-width:1.0;"/><text fill="#000000" font-family="sans-serif" font-size="14" lengthAdjust="spacing" textLength="78" x="42.5" y="114.292">Level string</text><line style="stroke:#181818;stroke-width:1.0;" x1="23.5" x2="282.5" y1="121.5938" y2="121.5938"/><ellipse cx="33.5" cy="132.5938" fill="none" rx="3" ry="3" style="stroke:#038048;stroke-width:1.0;"/><text fill="#000000" font-family="sans-serif" font-size="14" lengthAdjust="spacing" textLength="92" x="42.5" y="138.5889">Source string</text><line style="stroke:#181818;stroke-width:1.0;" x1="23.5" x2="282.5" y1="145.8906" y2="145.8906"/><ellipse cx="33.5" cy="156.8906" fill="none" rx="3" ry="3" style="stroke:#038048;stroke-width:1.0;"/><text fill="#000000" font-family="sans-serif" font-size="14" lengthAdjust="spacing" textLength="106" x="42.5" y="162.8857">Message string</text></g><!--MD5=[27abfb56f32eefa7f07c83348fb1ee32]
class GormGenericRepository--><g id="elem_GormGenericRepository"><rect codeLine="5" fill="#F1F1F1" height="48" id="GormGenericRepository" rx="2.5" ry="2.5" style="stroke:#181818;stroke-width:0.5;" width="319" x="681.5" y="396.5"/><ellipse cx="696.5" cy="412.5" fill="#ADD1B2" rx="11" ry="11" style="stroke:#181818;stroke-width:1.0;"/><path d="M699.4688,418.1406 Q698.8906,418.4375 698.25,418.5781 Q697.6094,418.7344 696.9063,418.7344 Q694.4063,418.7344 693.0781,417.0938 Q691.7656,415.4375 691.7656,412.3125 Q691.7656,409.1875 693.0781,407.5313 Q694.4063,405.875 696.9063,405.875 Q697.6094,405.875 698.25,406.0313 Q698.9063,406.1875 699.4688,406.4844 L699.4688,409.2031 Q698.8438,408.625 698.25,408.3594 Q697.6563,408.0781 697.0313,408.0781 Q695.6875,408.0781 695,409.1563 Q694.3125,410.2188 694.3125,412.3125 Q694.3125,414.4063 695,415.4844 Q695.6875,416.5469 697.0313,416.5469 Q697.6563,416.5469 698.25,416.2813 Q698.8438,416 699.4688,415.4219 L699.4688,418.1406 Z " fill="#000000"/><text fill="#000000" font-family="sans-serif" font-size="14" lengthAdjust="spacing" textLength="166" x="710.5" y="417.3467">GormGenericRepository</text><rect fill="#FFFFFF" height="15.9688" style="stroke:#000000;stroke-width:1.0;stroke-dasharray:2.0,2.0;" width="119" x="884.5" y="393.5"/><text fill="#000000" font-family="sans-serif" font-size="12" font-style="italic" lengthAdjust="spacing" textLength="117" x="885.5" y="405.6387">IDType, EntityType</text><line style="stroke:#181818;stroke-width:0.5;" x1="682.5" x2="999.5" y1="428.5" y2="428.5"/><line style="stroke:#181818;stroke-width:0.5;" x1="682.5" x2="999.5" y1="436.5" y2="436.5"/></g><!--MD5=[c0c56df36e4776dd0463cb2b29709304]
class GormAppLogRepository--><g id="elem_GormAppLogRepository"><rect codeLine="6" fill="#F1F1F1" height="48" id="GormAppLogRepository" rx="2.5" ry="2.5" style="stroke:#181818;stroke-width:0.5;" width="196" x="747" y="81.5"/><ellipse cx="762" cy="97.5" fill="#ADD1B2" rx="11" ry="11" style="stroke:#181818;stroke-width:1.0;"/><path d="M764.9688,103.1406 Q764.3906,103.4375 763.75,103.5781 Q763.1094,103.7344 762.4063,103.7344 Q759.9063,103.7344 758.5781,102.0938 Q757.2656,100.4375 757.2656,97.3125 Q757.2656,94.1875 758.5781,92.5313 Q759.9063,90.875 762.4063,90.875 Q763.1094,90.875 763.75,91.0313 Q764.4063,91.1875 764.9688,91.4844 L764.9688,94.2031 Q764.3438,93.625 763.75,93.3594 Q763.1563,93.0781 762.5313,93.0781 Q761.1875,93.0781 760.5,94.1563 Q759.8125,95.2188 759.8125,97.3125 Q759.8125,99.4063 760.5,100.4844 Q761.1875,101.5469 762.5313,101.5469 Q763.1563,101.5469 763.75,101.2813 Q764.3438,101 764.9688,100.4219 L764.9688,103.1406 Z " fill="#000000"/><text fill="#000000" font-family="sans-serif" font-size="14" lengthAdjust="spacing" textLength="164" x="776" y="102.3467">GormAppLogRepository</text><line style="stroke:#181818;stroke-width:0.5;" x1="748" x2="942" y1="113.5" y2="113.5"/><line style="stroke:#181818;stroke-width:0.5;" x1="748" x2="942" y1="121.5" y2="121.5"/></g><g id="elem_LogTypeNote"><path d="M681.5,235 L681.5,275.2656 L838.5,275.2656 L838.5,245 L828.5,235 L681.5,235 " fill="#FEFFDD" style="stroke:#181818;stroke-width:0.5;"/><path d="M828.5,235 L828.5,245 L838.5,245 L828.5,235 " fill="#FEFFDD" style="stroke:#181818;stroke-width:1.0;"/><text fill="#000000" font-family="sans-serif" font-size="13" lengthAdjust="spacing" textLength="132" x="687.5" y="252.0669">EntityType is AppLog</text><text fill="#000000" font-family="sans-serif" font-size="13" lengthAdjust="spacing" textLength="125" x="687.5" y="267.1997">IDType is uuid.UUID</text></g><!--MD5=[4afd32b9c3a651e50eee9a88aa9ac7c6]
link EntityUUID to Entity--><g id="link_EntityUUID_Entity"><path codeLine="7" d="M141,279.08 C141,295.86 141,319.61 141,342.82 " fill="none" id="EntityUUID-to-Entity" style="stroke:#181818;stroke-width:1.0;"/><polygon fill="#181818" points="141,355.98,145,349.98,141,343.98,137,349.98,141,355.98" style="stroke:#181818;stroke-width:1.0;"/><text fill="#000000" font-family="sans-serif" font-size="13" lengthAdjust="spacing" textLength="125" x="142" y="322.0669">IDType is uuid.UUID</text></g><!--MD5=[a6c7a0eda5b041e127f539f1664bb96a]
link Entity to IEntityModel--><g id="link_Entity_IEntityModel"><path codeLine="17" d="M139.81,485.12 C138.88,535.09 137.58,605.12 136.56,659.67 " fill="none" id="Entity-to-IEntityModel" style="stroke:#181818;stroke-width:1.0;stroke-dasharray:7.0,7.0;"/><polygon fill="none" points="143.56,659.87,136.19,679.74,129.56,659.61,143.56,659.87" style="stroke:#181818;stroke-width:1.0;"/></g><!--MD5=[94d8001a6411e2b400cb63681c6a8dac]
link AppLog to EntityUUID--><g id="link_AppLog_EntityUUID"><path codeLine="14" d="M147.81,170.34 C146.5,186.45 145.13,203.21 143.97,217.46 " fill="none" id="AppLog-to-EntityUUID" style="stroke:#181818;stroke-width:1.0;"/><polygon fill="#181818" points="142.89,230.76,147.3647,225.1051,143.8658,218.7997,139.3912,224.4546,142.89,230.76" style="stroke:#181818;stroke-width:1.0;"/></g><!--MD5=[1b84833638557571905b03f54e842c8c]
link GormGenericRepository to IGenericRepository--><g id="link_GormGenericRepository_IGenericRepository"><path codeLine="7" d="M865.96,444.66 C899.98,476.23 963.8,535.45 1025.7,592.9 " fill="none" id="GormGenericRepository-to-IGenericRepository" style="stroke:#181818;stroke-width:1.0;stroke-dasharray:7.0,7.0;"/><polygon fill="none" points="1030.64,587.93,1040.54,606.66,1021.12,598.19,1030.64,587.93" style="stroke:#181818;stroke-width:1.0;"/></g><!--MD5=[6516d888b52e3a681d78eaea9c52784d]
link GormAppLogRepository to GormGenericRepository--><g id="link_GormAppLogRepository_GormGenericRepository"><path codeLine="8" d="M847.68,129.86 C850.41,154.85 854.44,195.67 856,231 C858.34,284.05 851.73,345.31 846.55,383.23 " fill="none" id="GormAppLogRepository-to-GormGenericRepository" style="stroke:#181818;stroke-width:1.0;"/><polygon fill="#181818" points="844.7,396.32,849.5041,390.9423,846.3878,384.4393,841.5837,389.817,844.7,396.32" style="stroke:#181818;stroke-width:1.0;"/></g><!--MD5=[27cfa223b2c7c678d76679b3a6f754c3]
link GormAppLogRepository to LogTypeNote--><g id="link_GormAppLogRepository_LogTypeNote"><path codeLine="12" d="M831.72,129.55 C815,158.55 786.6,207.84 771.03,234.87 " fill="none" id="GormAppLogRepository-LogTypeNote" style="stroke:#181818;stroke-width:1.0;stroke-dasharray:7.0,7.0;"/></g><!--MD5=[266e0e8d93667542f4664d160686c449]
link LogTypeNote to GormGenericRepository--><g id="link_LogTypeNote_GormGenericRepository"><path codeLine="13" d="M769.45,275.08 C783.69,303.82 810.73,358.4 827.18,391.61 " fill="none" id="LogTypeNote-to-GormGenericRepository" style="stroke:#181818;stroke-width:1.0;stroke-dasharray:7.0,7.0;"/><polygon fill="#181818" points="829.53,396.35,829.1331,386.5091,827.3168,391.8665,821.9595,390.0503,829.53,396.35" style="stroke:#181818;stroke-width:1.0;"/></g><!--MD5=[7b8022816ce4d1a871b62fad89c4615f]
link AppLog to LogTypeNote--><g id="link_AppLog_LogTypeNote"><path codeLine="14" d="M283.59,138.23 C404.67,167.66 580.85,210.47 681.56,234.94 " fill="none" id="AppLog-LogTypeNote" style="stroke:#181818;stroke-width:1.0;stroke-dasharray:7.0,7.0;"/></g><!--MD5=[347eee713c37487ce0ddb4e3943cf4f8]
@startuml

!include ../entities/AppLog.puml
!include GormGenericRepository.puml

package infrastructure {
    class GormAppLogRepository

    GormAppLogRepository -down-* GormGenericRepository

    note "EntityType is AppLog \nIDType is uuid.UUID" as LogTypeNote

    GormAppLogRepository .down. LogTypeNote
    GormGenericRepository <.up. LogTypeNote
    AppLog .. LogTypeNote
}
@enduml

@startuml




package app {
    interface IEntityModel<IDType> {
        +GetID() IDType
        - -
        +GetCreatedAt() time.Time
        - -
        +GetUpdatedAt() *time.Time
        - -
        +GetDeletedAt() *time.Time
    }
}


package domain {
    class EntityUUID {
    }
    EntityUUID - -* Entity : IDType is uuid.UUID
    class Entity<IDType> {
        +ID IDType
        - -
        +CreatedAt time.Time
        - -
        +UpdatedAt *time.Time
        - -
        +DeletedAt gorm.DeletedAt
    }
    Entity .down.|> IEntityModel
}


package domain {
    class AppLog {
        +ActionID uuid.UUID `gorm:"index"`
        - -
        +Level string
        - -
        +Source string
        - -
        +Message string
    }
    AppLog -down-* EntityUUID
}



package app {
    interface IGenericRepository<IDType, interfaces.IEntityModel[IDType]> {
        +GetList(ctx context.Context, orderBy string, orderDirection string, page int, size int, queryBuilder interfaces.IQueryBuilder) ([]EntityType, error)
        - -
        +Count(ctx context.Context, queryBuilder interfaces.IQueryBuilder) (int, error)
        - -
        +IsExist(ctx context.Context, id IDType, queryBuilder interfaces.IQueryBuilder) (bool, error)
        - -
        +NewQueryBuilder(ctx context.Context) interfaces.IQueryBuilder
        - -
        +GetById(ctx context.Context, id IDType) (EntityType, error)
        - -
        +Update(ctx context.Context, entity EntityType) (EntityType, error)
        - -
        +Insert(ctx context.Context, entity EntityType) (EntityType, error)
        - -
        +Delete(ctx context.Context, id IDType) error
        - -
        +DeleteAll(ctx context.Context, queryBuilder interfaces.IQueryBuilder) error
        - -
        +Dispose() error
    }
    note left of IGenericRepository::GetList
      Get list of elements with filtering and pagination
    end note

    note left of IGenericRepository::Count
      Get count of entities with filtering
    end note

    note left of IGenericRepository::IsExist
      Checks that entity with selected conditions is existed
    end note

    note left of IGenericRepository::NewQueryBuilder
      Get new instance of the query builder
    end note

    note left of IGenericRepository::GetById
      Get entity by ID from repository
    end note

    note left of IGenericRepository::Update
      Save the changes to the existing entity in the repository
    end note

    note left of IGenericRepository::Insert
      Add entity to the repository
    end note

    note left of IGenericRepository::Delete
      Delete entity from repository
    end note

    note left of IGenericRepository::DeleteAll
      Delete entities with selected conditions
    end note

    note left of IGenericRepository::Dispose
      Dispose all allocated data
    end note
}


package infrastructure {
    class GormGenericRepository<IDType, EntityType>

    GormGenericRepository .down.|> IGenericRepository
}


package infrastructure {
    class GormAppLogRepository

    GormAppLogRepository -down-* GormGenericRepository

    note "EntityType is AppLog \nIDType is uuid.UUID" as LogTypeNote

    GormAppLogRepository .down. LogTypeNote
    GormGenericRepository <.up. LogTypeNote
    AppLog .. LogTypeNote
}
@enduml

PlantUML version 1.2022.6(Tue Jun 21 17:34:49 EGST 2022)
(GPL source distribution)
Java Runtime: OpenJDK Runtime Environment
JVM: OpenJDK 64-Bit Server VM
Default Encoding: UTF-8
Language: en
Country: US
--></g></svg>