<?xml version="1.0" encoding="UTF-8" standalone="no"?><svg xmlns="http://www.w3.org/2000/svg" xmlns:xlink="http://www.w3.org/1999/xlink" contentStyleType="text/css" height="919px" preserveAspectRatio="none" style="width:1701px;height:919px;background:#FFFFFF;" version="1.1" viewBox="0 0 1701 919" width="1701px" zoomAndPan="magnify"><defs/><g><!--MD5=[d5ac3844f66b12d9e08170e47495e096]
cluster app--><g id="cluster_app"><path d="M8.5,510 L38.5,510 A3.75,3.75 0 0 1 41,512.5 L48,532.2969 L1691.5,532.2969 A2.5,2.5 0 0 1 1694,534.7969 L1694,909.5 A2.5,2.5 0 0 1 1691.5,912 L8.5,912 A2.5,2.5 0 0 1 6,909.5 L6,512.5 A2.5,2.5 0 0 1 8.5,510 " style="stroke:#000000;stroke-width:1.5;fill:none;"/><line style="stroke:#000000;stroke-width:1.5;fill:none;" x1="6" x2="48" y1="532.2969" y2="532.2969"/><text fill="#000000" font-family="sans-serif" font-size="14" font-weight="bold" lengthAdjust="spacing" textLength="29" x="10" y="524.9951">app</text></g><!--MD5=[27f772719433d509ddbc20ff768eba08]
cluster domain--><g id="cluster_domain"><path d="M239.5,6 L297.5,6 A3.75,3.75 0 0 1 300,8.5 L307,28.2969 L474.5,28.2969 A2.5,2.5 0 0 1 477,30.7969 L477,474.5 A2.5,2.5 0 0 1 474.5,477 L239.5,477 A2.5,2.5 0 0 1 237,474.5 L237,8.5 A2.5,2.5 0 0 1 239.5,6 " style="stroke:#000000;stroke-width:1.5;fill:none;"/><line style="stroke:#000000;stroke-width:1.5;fill:none;" x1="237" x2="307" y1="28.2969" y2="28.2969"/><text fill="#000000" font-family="sans-serif" font-size="14" font-weight="bold" lengthAdjust="spacing" textLength="57" x="241" y="20.9951">domain</text></g><!--MD5=[77349be1bd27b81b697a0f9b3aded3c8]
cluster infrastructure--><g id="cluster_infrastructure"><path d="M869.5,34.5 L980.5,34.5 A3.75,3.75 0 0 1 983,37 L990,56.7969 L1216.5,56.7969 A2.5,2.5 0 0 1 1219,59.2969 L1219,434 A2.5,2.5 0 0 1 1216.5,436.5 L869.5,436.5 A2.5,2.5 0 0 1 867,434 L867,37 A2.5,2.5 0 0 1 869.5,34.5 " style="stroke:#000000;stroke-width:1.5;fill:none;"/><line style="stroke:#000000;stroke-width:1.5;fill:none;" x1="867" x2="990" y1="56.7969" y2="56.7969"/><text fill="#000000" font-family="sans-serif" font-size="14" font-weight="bold" lengthAdjust="spacing" textLength="110" x="871" y="49.4951">infrastructure</text></g><!--MD5=[2a39a5be1cc24ddddd6e6286e4ece992]
class IEntityModel--><g id="elem_IEntityModel"><rect codeLine="3" fill="#F1F1F1" height="129.1875" id="IEntityModel" rx="2.5" ry="2.5" style="stroke:#181818;stroke-width:0.5;" width="213" x="21.5" y="656"/><ellipse cx="58.55" cy="672" fill="#B4A7E5" rx="11" ry="11" style="stroke:#181818;stroke-width:1.0;"/><path d="M54.4719,667.7656 L54.4719,665.6094 L61.8625,665.6094 L61.8625,667.7656 L59.3938,667.7656 L59.3938,675.8438 L61.8625,675.8438 L61.8625,678 L54.4719,678 L54.4719,675.8438 L56.9406,675.8438 L56.9406,667.7656 L54.4719,667.7656 Z " fill="#000000"/><text fill="#000000" font-family="sans-serif" font-size="14" font-style="italic" lengthAdjust="spacing" textLength="85" x="77.45" y="676.8467">IEntityModel</text><rect fill="#FFFFFF" height="15.9688" style="stroke:#000000;stroke-width:1.0;stroke-dasharray:2.0,2.0;" width="45" x="192.5" y="653"/><text fill="#000000" font-family="sans-serif" font-size="12" font-style="italic" lengthAdjust="spacing" textLength="43" x="193.5" y="665.1387">IDType</text><line style="stroke:#181818;stroke-width:0.5;" x1="22.5" x2="233.5" y1="688" y2="688"/><ellipse cx="32.5" cy="699" fill="#84BE84" rx="3" ry="3" style="stroke:#038048;stroke-width:1.0;"/><text fill="#000000" font-family="sans-serif" font-size="14" lengthAdjust="spacing" textLength="101" x="41.5" y="704.9951">GetID() IDType</text><line style="stroke:#181818;stroke-width:1.0;" x1="22.5" x2="233.5" y1="712.2969" y2="712.2969"/><ellipse cx="32.5" cy="723.2969" fill="#84BE84" rx="3" ry="3" style="stroke:#038048;stroke-width:1.0;"/><text fill="#000000" font-family="sans-serif" font-size="14" lengthAdjust="spacing" textLength="176" x="41.5" y="729.292">GetCreatedAt() time.Time</text><line style="stroke:#181818;stroke-width:1.0;" x1="22.5" x2="233.5" y1="736.5938" y2="736.5938"/><ellipse cx="32.5" cy="747.5938" fill="#84BE84" rx="3" ry="3" style="stroke:#038048;stroke-width:1.0;"/><text fill="#000000" font-family="sans-serif" font-size="14" lengthAdjust="spacing" textLength="187" x="41.5" y="753.5889">GetUpdatedAt() *time.Time</text><line style="stroke:#181818;stroke-width:1.0;" x1="22.5" x2="233.5" y1="760.8906" y2="760.8906"/><ellipse cx="32.5" cy="771.8906" fill="#84BE84" rx="3" ry="3" style="stroke:#038048;stroke-width:1.0;"/><text fill="#000000" font-family="sans-serif" font-size="14" lengthAdjust="spacing" textLength="183" x="41.5" y="777.8857">GetDeletedAt() *time.Time</text></g><!--MD5=[b3e0f8dcddb1b27f071a0303a68762bf]
class IGenericRepository--><g id="elem_IGenericRepository"><rect codeLine="3" fill="#F1F1F1" height="274.9688" id="IGenericRepository" rx="2.5" ry="2.5" style="stroke:#181818;stroke-width:0.5;" width="994" x="684" y="583"/><ellipse cx="985.25" cy="599" fill="#B4A7E5" rx="11" ry="11" style="stroke:#181818;stroke-width:1.0;"/><path d="M981.1719,594.7656 L981.1719,592.6094 L988.5625,592.6094 L988.5625,594.7656 L986.0938,594.7656 L986.0938,602.8438 L988.5625,602.8438 L988.5625,605 L981.1719,605 L981.1719,602.8438 L983.6406,602.8438 L983.6406,594.7656 L981.1719,594.7656 Z " fill="#000000"/><text fill="#000000" font-family="sans-serif" font-size="14" font-style="italic" lengthAdjust="spacing" textLength="132" x="1005.75" y="603.8467">IGenericRepository</text><rect fill="#FFFFFF" height="15.9688" style="stroke:#000000;stroke-width:1.0;stroke-dasharray:2.0,2.0;" width="249" x="1432" y="580"/><text fill="#000000" font-family="sans-serif" font-size="12" font-style="italic" lengthAdjust="spacing" textLength="247" x="1433" y="592.1387">IDType, interfaces.IEntityModel[IDType]</text><line style="stroke:#181818;stroke-width:0.5;" x1="685" x2="1677" y1="615" y2="615"/><ellipse cx="695" cy="626" fill="#84BE84" rx="3" ry="3" style="stroke:#038048;stroke-width:1.0;"/><text fill="#000000" font-family="sans-serif" font-size="14" lengthAdjust="spacing" textLength="968" x="704" y="631.9951">GetList(ctx context.Context, orderBy string, orderDirection string, page int, size int, queryBuilder interfaces.IQueryBuilder) ([]EntityType, error)</text><line style="stroke:#181818;stroke-width:1.0;" x1="685" x2="1677" y1="639.2969" y2="639.2969"/><ellipse cx="695" cy="650.2969" fill="#84BE84" rx="3" ry="3" style="stroke:#038048;stroke-width:1.0;"/><text fill="#000000" font-family="sans-serif" font-size="14" lengthAdjust="spacing" textLength="521" x="704" y="656.292">Count(ctx context.Context, queryBuilder interfaces.IQueryBuilder) (int, error)</text><line style="stroke:#181818;stroke-width:1.0;" x1="685" x2="1677" y1="663.5938" y2="663.5938"/><ellipse cx="695" cy="674.5938" fill="#84BE84" rx="3" ry="3" style="stroke:#038048;stroke-width:1.0;"/><text fill="#000000" font-family="sans-serif" font-size="14" lengthAdjust="spacing" textLength="607" x="704" y="680.5889">IsExist(ctx context.Context, id IDType, queryBuilder interfaces.IQueryBuilder) (bool, error)</text><line style="stroke:#181818;stroke-width:1.0;" x1="685" x2="1677" y1="687.8906" y2="687.8906"/><ellipse cx="695" cy="698.8906" fill="#84BE84" rx="3" ry="3" style="stroke:#038048;stroke-width:1.0;"/><text fill="#000000" font-family="sans-serif" font-size="14" lengthAdjust="spacing" textLength="431" x="704" y="704.8857">NewQueryBuilder(ctx context.Context) interfaces.IQueryBuilder</text><line style="stroke:#181818;stroke-width:1.0;" x1="685" x2="1677" y1="712.1875" y2="712.1875"/><ellipse cx="695" cy="723.1875" fill="#84BE84" rx="3" ry="3" style="stroke:#038048;stroke-width:1.0;"/><text fill="#000000" font-family="sans-serif" font-size="14" lengthAdjust="spacing" textLength="397" x="704" y="729.1826">GetById(ctx context.Context, id IDType) (EntityType, error)</text><line style="stroke:#181818;stroke-width:1.0;" x1="685" x2="1677" y1="736.4844" y2="736.4844"/><ellipse cx="695" cy="747.4844" fill="#84BE84" rx="3" ry="3" style="stroke:#038048;stroke-width:1.0;"/><text fill="#000000" font-family="sans-serif" font-size="14" lengthAdjust="spacing" textLength="443" x="704" y="753.4795">Update(ctx context.Context, entity EntityType) (EntityType, error)</text><line style="stroke:#181818;stroke-width:1.0;" x1="685" x2="1677" y1="760.7813" y2="760.7813"/><ellipse cx="695" cy="771.7813" fill="#84BE84" rx="3" ry="3" style="stroke:#038048;stroke-width:1.0;"/><text fill="#000000" font-family="sans-serif" font-size="14" lengthAdjust="spacing" textLength="432" x="704" y="777.7764">Insert(ctx context.Context, entity EntityType) (EntityType, error)</text><line style="stroke:#181818;stroke-width:1.0;" x1="685" x2="1677" y1="785.0781" y2="785.0781"/><ellipse cx="695" cy="796.0781" fill="#84BE84" rx="3" ry="3" style="stroke:#038048;stroke-width:1.0;"/><text fill="#000000" font-family="sans-serif" font-size="14" lengthAdjust="spacing" textLength="299" x="704" y="802.0732">Delete(ctx context.Context, id IDType) error</text><line style="stroke:#181818;stroke-width:1.0;" x1="685" x2="1677" y1="809.375" y2="809.375"/><ellipse cx="695" cy="820.375" fill="#84BE84" rx="3" ry="3" style="stroke:#038048;stroke-width:1.0;"/><text fill="#000000" font-family="sans-serif" font-size="14" lengthAdjust="spacing" textLength="505" x="704" y="826.3701">DeleteAll(ctx context.Context, queryBuilder interfaces.IQueryBuilder) error</text><line style="stroke:#181818;stroke-width:1.0;" x1="685" x2="1677" y1="833.6719" y2="833.6719"/><ellipse cx="695" cy="844.6719" fill="#84BE84" rx="3" ry="3" style="stroke:#038048;stroke-width:1.0;"/><text fill="#000000" font-family="sans-serif" font-size="14" lengthAdjust="spacing" textLength="104" x="704" y="850.667">Dispose() error</text></g><path d="M269.5,545 L269.5,570.1328 A0,0 0 0 0 269.5,570.1328 L594.5,570.1328 A0,0 0 0 0 594.5,570.1328 L594.5,563 L688,627.1484 L594.5,555 L594.5,555 L584.5,545 L269.5,545 A0,0 0 0 0 269.5,545 " fill="#FEFFDD" style="stroke:#181818;stroke-width:0.5;"/><path d="M584.5,545 L584.5,555 L594.5,555 L584.5,545 " fill="#FEFFDD" style="stroke:#181818;stroke-width:0.5;"/><text fill="#000000" font-family="sans-serif" font-size="13" lengthAdjust="spacing" textLength="304" x="275.5" y="562.0669">Get list of elements with filtering and pagination</text><path d="M269.5,580.1328 L269.5,605.2656 A0,0 0 0 0 269.5,605.2656 L500.5,605.2656 A0,0 0 0 0 500.5,605.2656 L500.5,598.1328 L688,651.4453 L500.5,590.1328 L500.5,590.1328 L490.5,580.1328 L269.5,580.1328 A0,0 0 0 0 269.5,580.1328 " fill="#FEFFDD" style="stroke:#181818;stroke-width:0.5;"/><path d="M490.5,580.1328 L490.5,590.1328 L500.5,590.1328 L490.5,580.1328 " fill="#FEFFDD" style="stroke:#181818;stroke-width:0.5;"/><text fill="#000000" font-family="sans-serif" font-size="13" lengthAdjust="spacing" textLength="210" x="275.5" y="597.1997">Get count of entities with filtering</text><path d="M269.5,615.2656 L269.5,640.3984 A0,0 0 0 0 269.5,640.3984 L626.5,640.3984 A0,0 0 0 0 626.5,640.3984 L626.5,633.2656 L688,675.7422 L626.5,625.2656 L626.5,625.2656 L616.5,615.2656 L269.5,615.2656 A0,0 0 0 0 269.5,615.2656 " fill="#FEFFDD" style="stroke:#181818;stroke-width:0.5;"/><path d="M616.5,615.2656 L616.5,625.2656 L626.5,625.2656 L616.5,615.2656 " fill="#FEFFDD" style="stroke:#181818;stroke-width:0.5;"/><text fill="#000000" font-family="sans-serif" font-size="13" lengthAdjust="spacing" textLength="336" x="275.5" y="632.3325">Checks that entity with selected conditions is existed</text><path d="M269.5,650.3984 L269.5,675.5313 A0,0 0 0 0 269.5,675.5313 L528.5,675.5313 A0,0 0 0 0 528.5,675.5313 L528.5,668.3984 L688,700.0391 L528.5,660.3984 L528.5,660.3984 L518.5,650.3984 L269.5,650.3984 A0,0 0 0 0 269.5,650.3984 " fill="#FEFFDD" style="stroke:#181818;stroke-width:0.5;"/><path d="M518.5,650.3984 L518.5,660.3984 L528.5,660.3984 L518.5,650.3984 " fill="#FEFFDD" style="stroke:#181818;stroke-width:0.5;"/><text fill="#000000" font-family="sans-serif" font-size="13" lengthAdjust="spacing" textLength="238" x="275.5" y="667.4653">Get new instance of the query builder</text><path d="M269.5,685.5313 L269.5,710.6641 A0,0 0 0 0 269.5,710.6641 L491.5,710.6641 A0,0 0 0 0 491.5,710.6641 L491.5,703.5313 L688,724.3359 L491.5,695.5313 L491.5,695.5313 L481.5,685.5313 L269.5,685.5313 A0,0 0 0 0 269.5,685.5313 " fill="#FEFFDD" style="stroke:#181818;stroke-width:0.5;"/><path d="M481.5,685.5313 L481.5,695.5313 L491.5,695.5313 L481.5,685.5313 " fill="#FEFFDD" style="stroke:#181818;stroke-width:0.5;"/><text fill="#000000" font-family="sans-serif" font-size="13" lengthAdjust="spacing" textLength="201" x="275.5" y="702.5981">Get entity by ID from repository</text><path d="M269.5,720.6641 L269.5,745.7969 A0,0 0 0 0 269.5,745.7969 L648.5,745.7969 A0,0 0 0 0 648.5,745.7969 L648.5,738.6641 L688,748.6328 L648.5,730.6641 L648.5,730.6641 L638.5,720.6641 L269.5,720.6641 A0,0 0 0 0 269.5,720.6641 " fill="#FEFFDD" style="stroke:#181818;stroke-width:0.5;"/><path d="M638.5,720.6641 L638.5,730.6641 L648.5,730.6641 L638.5,720.6641 " fill="#FEFFDD" style="stroke:#181818;stroke-width:0.5;"/><text fill="#000000" font-family="sans-serif" font-size="13" lengthAdjust="spacing" textLength="358" x="275.5" y="737.731">Save the changes to the existing entity in the repository</text><path d="M269.5,755.7969 L269.5,780.9297 A0,0 0 0 0 269.5,780.9297 L465.5,780.9297 A0,0 0 0 0 465.5,780.9297 L465.5,773.7969 L688,772.9297 L465.5,765.7969 L465.5,765.7969 L455.5,755.7969 L269.5,755.7969 A0,0 0 0 0 269.5,755.7969 " fill="#FEFFDD" style="stroke:#181818;stroke-width:0.5;"/><path d="M455.5,755.7969 L455.5,765.7969 L465.5,765.7969 L455.5,755.7969 " fill="#FEFFDD" style="stroke:#181818;stroke-width:0.5;"/><text fill="#000000" font-family="sans-serif" font-size="13" lengthAdjust="spacing" textLength="175" x="275.5" y="772.8638">Add entity to the repository</text><path d="M269.5,790.9297 L269.5,816.0625 A0,0 0 0 0 269.5,816.0625 L474.5,816.0625 A0,0 0 0 0 474.5,816.0625 L474.5,808.9297 L688,797.2266 L474.5,800.9297 L474.5,800.9297 L464.5,790.9297 L269.5,790.9297 A0,0 0 0 0 269.5,790.9297 " fill="#FEFFDD" style="stroke:#181818;stroke-width:0.5;"/><path d="M464.5,790.9297 L464.5,800.9297 L474.5,800.9297 L464.5,790.9297 " fill="#FEFFDD" style="stroke:#181818;stroke-width:0.5;"/><text fill="#000000" font-family="sans-serif" font-size="13" lengthAdjust="spacing" textLength="184" x="275.5" y="807.9966">Delete entity from repository</text><path d="M269.5,826.0625 L269.5,851.1953 A0,0 0 0 0 269.5,851.1953 L539.5,851.1953 A0,0 0 0 0 539.5,851.1953 L539.5,844.0625 L688,821.5234 L539.5,836.0625 L539.5,836.0625 L529.5,826.0625 L269.5,826.0625 A0,0 0 0 0 269.5,826.0625 " fill="#FEFFDD" style="stroke:#181818;stroke-width:0.5;"/><path d="M529.5,826.0625 L529.5,836.0625 L539.5,836.0625 L529.5,826.0625 " fill="#FEFFDD" style="stroke:#181818;stroke-width:0.5;"/><text fill="#000000" font-family="sans-serif" font-size="13" lengthAdjust="spacing" textLength="249" x="275.5" y="843.1294">Delete entities with selected conditions</text><path d="M269.5,861.1953 L269.5,886.3281 A0,0 0 0 0 269.5,886.3281 L454.5,886.3281 A0,0 0 0 0 454.5,886.3281 L454.5,879.1953 L688,845.8203 L454.5,871.1953 L454.5,871.1953 L444.5,861.1953 L269.5,861.1953 A0,0 0 0 0 269.5,861.1953 " fill="#FEFFDD" style="stroke:#181818;stroke-width:0.5;"/><path d="M444.5,861.1953 L444.5,871.1953 L454.5,871.1953 L444.5,861.1953 " fill="#FEFFDD" style="stroke:#181818;stroke-width:0.5;"/><text fill="#000000" font-family="sans-serif" font-size="13" lengthAdjust="spacing" textLength="164" x="275.5" y="878.2622">Dispose all allocated data</text><!--MD5=[1045d07ae824aea072cabb0fb8284887]
class EntityUUID--><g id="elem_EntityUUID"><rect codeLine="5" fill="#F1F1F1" height="48" id="EntityUUID" rx="2.5" ry="2.5" style="stroke:#181818;stroke-width:0.5;" width="104" x="292" y="207"/><ellipse cx="307" cy="223" fill="#ADD1B2" rx="11" ry="11" style="stroke:#181818;stroke-width:1.0;"/><path d="M309.9688,228.6406 Q309.3906,228.9375 308.75,229.0781 Q308.1094,229.2344 307.4063,229.2344 Q304.9063,229.2344 303.5781,227.5938 Q302.2656,225.9375 302.2656,222.8125 Q302.2656,219.6875 303.5781,218.0313 Q304.9063,216.375 307.4063,216.375 Q308.1094,216.375 308.75,216.5313 Q309.4063,216.6875 309.9688,216.9844 L309.9688,219.7031 Q309.3438,219.125 308.75,218.8594 Q308.1563,218.5781 307.5313,218.5781 Q306.1875,218.5781 305.5,219.6563 Q304.8125,220.7188 304.8125,222.8125 Q304.8125,224.9063 305.5,225.9844 Q306.1875,227.0469 307.5313,227.0469 Q308.1563,227.0469 308.75,226.7813 Q309.3438,226.5 309.9688,225.9219 L309.9688,228.6406 Z " fill="#000000"/><text fill="#000000" font-family="sans-serif" font-size="14" lengthAdjust="spacing" textLength="72" x="321" y="227.8467">EntityUUID</text><line style="stroke:#181818;stroke-width:0.5;" x1="293" x2="395" y1="239" y2="239"/><line style="stroke:#181818;stroke-width:0.5;" x1="293" x2="395" y1="247" y2="247"/></g><!--MD5=[be996cdb8e6bf2fc7cb89c555f2cd144]
class Entity--><g id="elem_Entity"><rect codeLine="8" fill="#F1F1F1" height="129.1875" id="Entity" rx="2.5" ry="2.5" style="stroke:#181818;stroke-width:0.5;" width="208" x="253" y="332"/><ellipse cx="310.25" cy="348" fill="#ADD1B2" rx="11" ry="11" style="stroke:#181818;stroke-width:1.0;"/><path d="M313.2188,353.6406 Q312.6406,353.9375 312,354.0781 Q311.3594,354.2344 310.6563,354.2344 Q308.1563,354.2344 306.8281,352.5938 Q305.5156,350.9375 305.5156,347.8125 Q305.5156,344.6875 306.8281,343.0313 Q308.1563,341.375 310.6563,341.375 Q311.3594,341.375 312,341.5313 Q312.6563,341.6875 313.2188,341.9844 L313.2188,344.7031 Q312.5938,344.125 312,343.8594 Q311.4063,343.5781 310.7813,343.5781 Q309.4375,343.5781 308.75,344.6563 Q308.0625,345.7188 308.0625,347.8125 Q308.0625,349.9063 308.75,350.9844 Q309.4375,352.0469 310.7813,352.0469 Q311.4063,352.0469 312,351.7813 Q312.5938,351.5 313.2188,350.9219 L313.2188,353.6406 Z " fill="#000000"/><text fill="#000000" font-family="sans-serif" font-size="14" lengthAdjust="spacing" textLength="38" x="330.75" y="352.8467">Entity</text><rect fill="#FFFFFF" height="15.9688" style="stroke:#000000;stroke-width:1.0;stroke-dasharray:2.0,2.0;" width="45" x="419" y="329"/><text fill="#000000" font-family="sans-serif" font-size="12" font-style="italic" lengthAdjust="spacing" textLength="43" x="420" y="341.1387">IDType</text><line style="stroke:#181818;stroke-width:0.5;" x1="254" x2="460" y1="364" y2="364"/><ellipse cx="264" cy="375" fill="none" rx="3" ry="3" style="stroke:#038048;stroke-width:1.0;"/><text fill="#000000" font-family="sans-serif" font-size="14" lengthAdjust="spacing" textLength="66" x="273" y="380.9951">ID IDType</text><line style="stroke:#181818;stroke-width:1.0;" x1="254" x2="460" y1="388.2969" y2="388.2969"/><ellipse cx="264" cy="399.2969" fill="none" rx="3" ry="3" style="stroke:#038048;stroke-width:1.0;"/><text fill="#000000" font-family="sans-serif" font-size="14" lengthAdjust="spacing" textLength="141" x="273" y="405.292">CreatedAt time.Time</text><line style="stroke:#181818;stroke-width:1.0;" x1="254" x2="460" y1="412.5938" y2="412.5938"/><ellipse cx="264" cy="423.5938" fill="none" rx="3" ry="3" style="stroke:#038048;stroke-width:1.0;"/><text fill="#000000" font-family="sans-serif" font-size="14" lengthAdjust="spacing" textLength="152" x="273" y="429.5889">UpdatedAt *time.Time</text><line style="stroke:#181818;stroke-width:1.0;" x1="254" x2="460" y1="436.8906" y2="436.8906"/><ellipse cx="264" cy="447.8906" fill="none" rx="3" ry="3" style="stroke:#038048;stroke-width:1.0;"/><text fill="#000000" font-family="sans-serif" font-size="14" lengthAdjust="spacing" textLength="182" x="273" y="453.8857">DeletedAt gorm.DeletedAt</text></g><!--MD5=[66312c7dc3a7a5109fe9a86e1204a9bb]
class TFTPConfig--><g id="elem_TFTPConfig"><rect codeLine="5" fill="#F1F1F1" height="104.8906" id="TFTPConfig" rx="2.5" ry="2.5" style="stroke:#181818;stroke-width:0.5;" width="126" x="308" y="41"/><ellipse cx="329.75" cy="57" fill="#ADD1B2" rx="11" ry="11" style="stroke:#181818;stroke-width:1.0;"/><path d="M332.7188,62.6406 Q332.1406,62.9375 331.5,63.0781 Q330.8594,63.2344 330.1563,63.2344 Q327.6563,63.2344 326.3281,61.5938 Q325.0156,59.9375 325.0156,56.8125 Q325.0156,53.6875 326.3281,52.0313 Q327.6563,50.375 330.1563,50.375 Q330.8594,50.375 331.5,50.5313 Q332.1563,50.6875 332.7188,50.9844 L332.7188,53.7031 Q332.0938,53.125 331.5,52.8594 Q330.9063,52.5781 330.2813,52.5781 Q328.9375,52.5781 328.25,53.6563 Q327.5625,54.7188 327.5625,56.8125 Q327.5625,58.9063 328.25,59.9844 Q328.9375,61.0469 330.2813,61.0469 Q330.9063,61.0469 331.5,60.7813 Q332.0938,60.5 332.7188,59.9219 L332.7188,62.6406 Z " fill="#000000"/><text fill="#000000" font-family="sans-serif" font-size="14" lengthAdjust="spacing" textLength="79" x="345.25" y="61.8467">TFTPConfig</text><line style="stroke:#181818;stroke-width:0.5;" x1="309" x2="433" y1="73" y2="73"/><ellipse cx="319" cy="84" fill="none" rx="3" ry="3" style="stroke:#038048;stroke-width:1.0;"/><text fill="#000000" font-family="sans-serif" font-size="14" lengthAdjust="spacing" textLength="100" x="328" y="89.9951">Address string</text><line style="stroke:#181818;stroke-width:1.0;" x1="309" x2="433" y1="97.2969" y2="97.2969"/><ellipse cx="319" cy="108.2969" fill="none" rx="3" ry="3" style="stroke:#038048;stroke-width:1.0;"/><text fill="#000000" font-family="sans-serif" font-size="14" lengthAdjust="spacing" textLength="71" x="328" y="114.292">Port string</text><line style="stroke:#181818;stroke-width:1.0;" x1="309" x2="433" y1="121.5938" y2="121.5938"/><ellipse cx="319" cy="132.5938" fill="none" rx="3" ry="3" style="stroke:#038048;stroke-width:1.0;"/><text fill="#000000" font-family="sans-serif" font-size="14" lengthAdjust="spacing" textLength="90" x="328" y="138.5889">Enabled bool</text></g><!--MD5=[27abfb56f32eefa7f07c83348fb1ee32]
class GormGenericRepository--><g id="elem_GormGenericRepository"><rect codeLine="5" fill="#F1F1F1" height="48" id="GormGenericRepository" rx="2.5" ry="2.5" style="stroke:#181818;stroke-width:0.5;" width="319" x="883.5" y="372.5"/><ellipse cx="898.5" cy="388.5" fill="#ADD1B2" rx="11" ry="11" style="stroke:#181818;stroke-width:1.0;"/><path d="M901.4688,394.1406 Q900.8906,394.4375 900.25,394.5781 Q899.6094,394.7344 898.9063,394.7344 Q896.4063,394.7344 895.0781,393.0938 Q893.7656,391.4375 893.7656,388.3125 Q893.7656,385.1875 895.0781,383.5313 Q896.4063,381.875 898.9063,381.875 Q899.6094,381.875 900.25,382.0313 Q900.9063,382.1875 901.4688,382.4844 L901.4688,385.2031 Q900.8438,384.625 900.25,384.3594 Q899.6563,384.0781 899.0313,384.0781 Q897.6875,384.0781 897,385.1563 Q896.3125,386.2188 896.3125,388.3125 Q896.3125,390.4063 897,391.4844 Q897.6875,392.5469 899.0313,392.5469 Q899.6563,392.5469 900.25,392.2813 Q900.8438,392 901.4688,391.4219 L901.4688,394.1406 Z " fill="#000000"/><text fill="#000000" font-family="sans-serif" font-size="14" lengthAdjust="spacing" textLength="166" x="912.5" y="393.3467">GormGenericRepository</text><rect fill="#FFFFFF" height="15.9688" style="stroke:#000000;stroke-width:1.0;stroke-dasharray:2.0,2.0;" width="119" x="1086.5" y="369.5"/><text fill="#000000" font-family="sans-serif" font-size="12" font-style="italic" lengthAdjust="spacing" textLength="117" x="1087.5" y="381.6387">IDType, EntityType</text><line style="stroke:#181818;stroke-width:0.5;" x1="884.5" x2="1201.5" y1="404.5" y2="404.5"/><line style="stroke:#181818;stroke-width:0.5;" x1="884.5" x2="1201.5" y1="412.5" y2="412.5"/></g><!--MD5=[3bf09f82dfcc9fa1734d73b2d61b98c9]
class GormTFTPConfigRepository--><g id="elem_GormTFTPConfigRepository"><rect codeLine="6" fill="#F1F1F1" height="48" id="GormTFTPConfigRepository" rx="2.5" ry="2.5" style="stroke:#181818;stroke-width:0.5;" width="223" x="906.5" y="69.5"/><ellipse cx="921.5" cy="85.5" fill="#ADD1B2" rx="11" ry="11" style="stroke:#181818;stroke-width:1.0;"/><path d="M924.4688,91.1406 Q923.8906,91.4375 923.25,91.5781 Q922.6094,91.7344 921.9063,91.7344 Q919.4063,91.7344 918.0781,90.0938 Q916.7656,88.4375 916.7656,85.3125 Q916.7656,82.1875 918.0781,80.5313 Q919.4063,78.875 921.9063,78.875 Q922.6094,78.875 923.25,79.0313 Q923.9063,79.1875 924.4688,79.4844 L924.4688,82.2031 Q923.8438,81.625 923.25,81.3594 Q922.6563,81.0781 922.0313,81.0781 Q920.6875,81.0781 920,82.1563 Q919.3125,83.2188 919.3125,85.3125 Q919.3125,87.4063 920,88.4844 Q920.6875,89.5469 922.0313,89.5469 Q922.6563,89.5469 923.25,89.2813 Q923.8438,89 924.4688,88.4219 L924.4688,91.1406 Z " fill="#000000"/><text fill="#000000" font-family="sans-serif" font-size="14" lengthAdjust="spacing" textLength="191" x="935.5" y="90.3467">GormTFTPConfigRepository</text><line style="stroke:#181818;stroke-width:0.5;" x1="907.5" x2="1128.5" y1="101.5" y2="101.5"/><line style="stroke:#181818;stroke-width:0.5;" x1="907.5" x2="1128.5" y1="109.5" y2="109.5"/></g><g id="elem_TFTPConfigNote"><path d="M931,218.5 L931,243.6328 L1105,243.6328 L1105,228.5 L1095,218.5 L931,218.5 " fill="#FEFFDD" style="stroke:#181818;stroke-width:0.5;"/><path d="M1095,218.5 L1095,228.5 L1105,228.5 L1095,218.5 " fill="#FEFFDD" style="stroke:#181818;stroke-width:1.0;"/><text fill="#000000" font-family="sans-serif" font-size="13" lengthAdjust="spacing" textLength="153" x="937" y="235.5669">EntityType is TFTPConfig</text></g><!--MD5=[4afd32b9c3a651e50eee9a88aa9ac7c6]
link EntityUUID to Entity--><g id="link_EntityUUID_Entity"><path codeLine="7" d="M345.84,255.08 C347.17,271.86 349.06,295.61 350.9,318.82 " fill="none" id="EntityUUID-to-Entity" style="stroke:#181818;stroke-width:1.0;"/><polygon fill="#181818" points="351.95,331.98,355.4563,325.6787,350.9883,320.0186,347.482,326.3198,351.95,331.98" style="stroke:#181818;stroke-width:1.0;"/><text fill="#000000" font-family="sans-serif" font-size="13" lengthAdjust="spacing" textLength="125" x="350" y="298.0669">IDType is uuid.UUID</text></g><!--MD5=[a6c7a0eda5b041e127f539f1664bb96a]
link Entity to IEntityModel--><g id="link_Entity_IEntityModel"><path codeLine="17" d="M287.76,461.04 C275.2,474.02 262.7,488.01 252,502 C219.72,544.2 190,595.68 167.75,637.97 " fill="none" id="Entity-to-IEntityModel" style="stroke:#181818;stroke-width:1.0;stroke-dasharray:7.0,7.0;"/><polygon fill="none" points="173.94,641.23,158.53,655.77,161.51,634.79,173.94,641.23" style="stroke:#181818;stroke-width:1.0;"/></g><!--MD5=[c4f6a66c75aa5a5930f9ad521c3ff88d]
link TFTPConfig to EntityUUID--><g id="link_TFTPConfig_EntityUUID"><path codeLine="12" d="M360.72,146.11 C357.55,161.98 354.14,179.11 351.23,193.72 " fill="none" id="TFTPConfig-to-EntityUUID" style="stroke:#181818;stroke-width:1.0;"/><polygon fill="#181818" points="348.62,206.84,353.7157,201.7377,350.9658,195.0715,345.8701,200.1738,348.62,206.84" style="stroke:#181818;stroke-width:1.0;"/></g><!--MD5=[1b84833638557571905b03f54e842c8c]
link GormGenericRepository to IGenericRepository--><g id="link_GormGenericRepository_IGenericRepository"><path codeLine="7" d="M1052.92,420.66 C1066.08,451.36 1090.45,508.22 1114.43,564.17 " fill="none" id="GormGenericRepository-to-IGenericRepository" style="stroke:#181818;stroke-width:1.0;stroke-dasharray:7.0,7.0;"/><polygon fill="none" points="1120.91,561.52,1122.36,582.66,1108.04,567.04,1120.91,561.52" style="stroke:#181818;stroke-width:1.0;"/></g><!--MD5=[fd0394b45e1187f0b638e2450a498ec1]
link GormTFTPConfigRepository to TFTPConfigNote--><g id="link_GormTFTPConfigRepository_TFTPConfigNote"><path codeLine="10" d="M1018,117.79 C1018,147 1018,195.94 1018,218.26 " fill="none" id="GormTFTPConfigRepository-TFTPConfigNote" style="stroke:#181818;stroke-width:1.0;"/></g><!--MD5=[4db498f699aa280b93234d6b0894146f]
link TFTPConfigNote to GormGenericRepository--><g id="link_TFTPConfigNote_GormGenericRepository"><path codeLine="11" d="M1019.8,243.76 C1023.44,267.59 1031.83,322.43 1037.45,359.23 " fill="none" id="TFTPConfigNote-to-GormGenericRepository" style="stroke:#181818;stroke-width:1.0;"/><polygon fill="#181818" points="1039.46,372.35,1042.5033,365.8126,1037.6393,360.4889,1034.5959,367.0264,1039.46,372.35" style="stroke:#181818;stroke-width:1.0;"/></g><!--MD5=[2a6d9d938dad4e555d2af91bca7dff38]
link TFTPConfig to TFTPConfigNote--><g id="link_TFTPConfig_TFTPConfigNote"><path codeLine="12" d="M434.22,107.74 C560.77,134.24 843.33,193.42 962.89,218.46 " fill="none" id="TFTPConfig-TFTPConfigNote" style="stroke:#181818;stroke-width:1.0;stroke-dasharray:7.0,7.0;"/></g><!--MD5=[8ddbba44651507d9b03bf56b0728d63d]
@startuml

!include ../entities/TFTPConfig.puml
!include GormGenericRepository.puml

package infrastructure {
    class GormTFTPConfigRepository {
    }
    note "EntityType is TFTPConfig" as TFTPConfigNote

    GormTFTPConfigRepository -down- TFTPConfigNote
    GormGenericRepository *-up- TFTPConfigNote
    TFTPConfig .. TFTPConfigNote
}
@enduml

@startuml




package app {
    interface IEntityModel<IDType> {
        +GetID() IDType
        - -
        +GetCreatedAt() time.Time
        - -
        +GetUpdatedAt() *time.Time
        - -
        +GetDeletedAt() *time.Time
    }
}


package domain {
    class EntityUUID {
    }
    EntityUUID - -* Entity : IDType is uuid.UUID
    class Entity<IDType> {
        +ID IDType
        - -
        +CreatedAt time.Time
        - -
        +UpdatedAt *time.Time
        - -
        +DeletedAt gorm.DeletedAt
    }
    Entity .down.|> IEntityModel
}


package domain {
    class TFTPConfig {
        +Address string
        - -
        +Port string
        - -
        +Enabled bool
    }
    TFTPConfig -down-* EntityUUID
}



package app {
    interface IGenericRepository<IDType, interfaces.IEntityModel[IDType]> {
        +GetList(ctx context.Context, orderBy string, orderDirection string, page int, size int, queryBuilder interfaces.IQueryBuilder) ([]EntityType, error)
        - -
        +Count(ctx context.Context, queryBuilder interfaces.IQueryBuilder) (int, error)
        - -
        +IsExist(ctx context.Context, id IDType, queryBuilder interfaces.IQueryBuilder) (bool, error)
        - -
        +NewQueryBuilder(ctx context.Context) interfaces.IQueryBuilder
        - -
        +GetById(ctx context.Context, id IDType) (EntityType, error)
        - -
        +Update(ctx context.Context, entity EntityType) (EntityType, error)
        - -
        +Insert(ctx context.Context, entity EntityType) (EntityType, error)
        - -
        +Delete(ctx context.Context, id IDType) error
        - -
        +DeleteAll(ctx context.Context, queryBuilder interfaces.IQueryBuilder) error
        - -
        +Dispose() error
    }
    note left of IGenericRepository::GetList
      Get list of elements with filtering and pagination
    end note

    note left of IGenericRepository::Count
      Get count of entities with filtering
    end note

    note left of IGenericRepository::IsExist
      Checks that entity with selected conditions is existed
    end note

    note left of IGenericRepository::NewQueryBuilder
      Get new instance of the query builder
    end note

    note left of IGenericRepository::GetById
      Get entity by ID from repository
    end note

    note left of IGenericRepository::Update
      Save the changes to the existing entity in the repository
    end note

    note left of IGenericRepository::Insert
      Add entity to the repository
    end note

    note left of IGenericRepository::Delete
      Delete entity from repository
    end note

    note left of IGenericRepository::DeleteAll
      Delete entities with selected conditions
    end note

    note left of IGenericRepository::Dispose
      Dispose all allocated data
    end note
}


package infrastructure {
    class GormGenericRepository<IDType, EntityType>

    GormGenericRepository .down.|> IGenericRepository
}


package infrastructure {
    class GormTFTPConfigRepository {
    }
    note "EntityType is TFTPConfig" as TFTPConfigNote

    GormTFTPConfigRepository -down- TFTPConfigNote
    GormGenericRepository *-up- TFTPConfigNote
    TFTPConfig .. TFTPConfigNote
}
@enduml

PlantUML version 1.2022.6(Tue Jun 21 17:34:49 EGST 2022)
(GPL source distribution)
Java Runtime: OpenJDK Runtime Environment
JVM: OpenJDK 64-Bit Server VM
Default Encoding: UTF-8
Language: en
Country: US
--></g></svg>