<?xml version="1.0" encoding="UTF-8" standalone="no"?><svg xmlns="http://www.w3.org/2000/svg" xmlns:xlink="http://www.w3.org/1999/xlink" contentStyleType="text/css" height="480px" preserveAspectRatio="none" style="width:1344px;height:480px;background:#FFFFFF;" version="1.1" viewBox="0 0 1344 480" width="1344px" zoomAndPan="magnify"><defs/><g><!--MD5=[d5ac3844f66b12d9e08170e47495e096]
cluster app--><g id="cluster_app"><path d="M8.5,130 L35.5,130 A3.75,3.75 0 0 1 38,132.5 L45,153.6094 L1334.5,153.6094 A2.5,2.5 0 0 1 1337,156.1094 L1337,470.5 A2.5,2.5 0 0 1 1334.5,473 L8.5,473 A2.5,2.5 0 0 1 6,470.5 L6,132.5 A2.5,2.5 0 0 1 8.5,130 " style="stroke:#000000;stroke-width:1.5;fill:none;"/><line style="stroke:#000000;stroke-width:1.5;fill:none;" x1="6" x2="45" y1="153.6094" y2="153.6094"/><text fill="#000000" font-family="sans-serif" font-size="14" font-weight="bold" lengthAdjust="spacing" textLength="26" x="10" y="146.5332">app</text></g><!--MD5=[77349be1bd27b81b697a0f9b3aded3c8]
cluster infrastructure--><g id="cluster_infrastructure"><path d="M724.5,6 L822.5,6 A3.75,3.75 0 0 1 825,8.5 L832,29.6094 L997.5,29.6094 A2.5,2.5 0 0 1 1000,32.1094 L1000,103.5 A2.5,2.5 0 0 1 997.5,106 L724.5,106 A2.5,2.5 0 0 1 722,103.5 L722,8.5 A2.5,2.5 0 0 1 724.5,6 " style="stroke:#000000;stroke-width:1.5;fill:none;"/><line style="stroke:#000000;stroke-width:1.5;fill:none;" x1="722" x2="832" y1="29.6094" y2="29.6094"/><text fill="#000000" font-family="sans-serif" font-size="14" font-weight="bold" lengthAdjust="spacing" textLength="97" x="726" y="22.5332">infrastructure</text></g><!--MD5=[b3e0f8dcddb1b27f071a0303a68762bf]
class IGenericRepository--><g id="elem_IGenericRepository"><rect codeLine="3" fill="#F1F1F1" height="236.875" id="IGenericRepository" rx="2.5" ry="2.5" style="stroke:#181818;stroke-width:0.5;" width="920" x="401" y="193"/><ellipse cx="765.25" cy="209" fill="#B4A7E5" rx="11" ry="11" style="stroke:#181818;stroke-width:1.0;"/><path d="M766.2031,205.6406 L766.2031,212.2969 L767.9219,212.2969 Q768.5313,212.2969 768.7969,212.5313 Q769.0625,212.7656 769.0625,213.1563 Q769.0625,213.5313 768.7969,213.7656 Q768.5313,214 767.9219,214 L762.7813,214 Q762.1719,214 761.9063,213.7656 Q761.6406,213.5313 761.6406,213.1406 Q761.6406,212.7656 761.9063,212.5313 Q762.1719,212.2969 762.7813,212.2969 L764.5,212.2969 L764.5,205.6406 L762.7813,205.6406 Q762.1719,205.6406 761.9063,205.4063 Q761.6406,205.1719 761.6406,204.7813 Q761.6406,204.4063 761.9063,204.1719 Q762.1719,203.9375 762.7813,203.9375 L767.9219,203.9375 Q768.5313,203.9375 768.7969,204.1719 Q769.0625,204.4063 769.0625,204.7813 Q769.0625,205.1719 768.7969,205.4063 Q768.5313,205.6406 767.9219,205.6406 L766.2031,205.6406 Z " fill="#000000"/><text fill="#000000" font-family="sans-serif" font-size="14" font-style="italic" lengthAdjust="spacing" textLength="122" x="785.75" y="214.7285">IGenericRepository</text><rect fill="#FFFFFF" height="17.0938" style="stroke:#000000;stroke-width:1.0;stroke-dasharray:2.0,2.0;" width="59" x="1265" y="190"/><text fill="#000000" font-family="sans-serif" font-size="12" font-style="italic" lengthAdjust="spacing" textLength="57" x="1266" y="203.457">EntityType</text><line style="stroke:#181818;stroke-width:0.5;" x1="402" x2="1320" y1="225" y2="225"/><ellipse cx="412" cy="236" fill="#84BE84" rx="3" ry="3" style="stroke:#038048;stroke-width:1.0;"/><text fill="#000000" font-family="sans-serif" font-size="14" lengthAdjust="spacing" textLength="894" x="421" y="243.5332">GetList(ctx context.Context, orderBy string, orderDirection string, page int, size int, queryBuilder interfaces.IQueryBuilder) (*[]EntityType, error)</text><line style="stroke:#181818;stroke-width:1.0;" x1="402" x2="1320" y1="250.6094" y2="250.6094"/><ellipse cx="412" cy="261.6094" fill="#84BE84" rx="3" ry="3" style="stroke:#038048;stroke-width:1.0;"/><text fill="#000000" font-family="sans-serif" font-size="14" lengthAdjust="spacing" textLength="494" x="421" y="269.1426">Count(ctx context.Context, queryBuilder interfaces.IQueryBuilder) (int64, error)</text><line style="stroke:#181818;stroke-width:1.0;" x1="402" x2="1320" y1="276.2188" y2="276.2188"/><ellipse cx="412" cy="287.2188" fill="#84BE84" rx="3" ry="3" style="stroke:#038048;stroke-width:1.0;"/><text fill="#000000" font-family="sans-serif" font-size="14" lengthAdjust="spacing" textLength="393" x="421" y="294.752">NewQueryBuilder(ctx context.Context) interfaces.IQueryBuilder</text><line style="stroke:#181818;stroke-width:1.0;" x1="402" x2="1320" y1="301.8281" y2="301.8281"/><ellipse cx="412" cy="312.8281" fill="#84BE84" rx="3" ry="3" style="stroke:#038048;stroke-width:1.0;"/><text fill="#000000" font-family="sans-serif" font-size="14" lengthAdjust="spacing" textLength="388" x="421" y="320.3613">GetById(ctx context.Context, id uuid.UUID) (*EntityType, error)</text><line style="stroke:#181818;stroke-width:1.0;" x1="402" x2="1320" y1="327.4375" y2="327.4375"/><ellipse cx="412" cy="338.4375" fill="#84BE84" rx="3" ry="3" style="stroke:#038048;stroke-width:1.0;"/><text fill="#000000" font-family="sans-serif" font-size="14" lengthAdjust="spacing" textLength="326" x="421" y="345.9707">Update(ctx context.Context, entity *EntityType) error</text><line style="stroke:#181818;stroke-width:1.0;" x1="402" x2="1320" y1="353.0469" y2="353.0469"/><ellipse cx="412" cy="364.0469" fill="#84BE84" rx="3" ry="3" style="stroke:#038048;stroke-width:1.0;"/><text fill="#000000" font-family="sans-serif" font-size="14" lengthAdjust="spacing" textLength="391" x="421" y="371.5801">Insert(ctx context.Context, entity EntityType) (uuid.UUID, error)</text><line style="stroke:#181818;stroke-width:1.0;" x1="402" x2="1320" y1="378.6563" y2="378.6563"/><ellipse cx="412" cy="389.6563" fill="#84BE84" rx="3" ry="3" style="stroke:#038048;stroke-width:1.0;"/><text fill="#000000" font-family="sans-serif" font-size="14" lengthAdjust="spacing" textLength="289" x="421" y="397.1895">Delete(ctx context.Context, id uuid.UUID) error</text><line style="stroke:#181818;stroke-width:1.0;" x1="402" x2="1320" y1="404.2656" y2="404.2656"/><ellipse cx="412" cy="415.2656" fill="#84BE84" rx="3" ry="3" style="stroke:#038048;stroke-width:1.0;"/><text fill="#000000" font-family="sans-serif" font-size="14" lengthAdjust="spacing" textLength="99" x="421" y="422.7988">CloseDb() error</text></g><path d="M22.5,166 L22.5,192.3516 A0,0 0 0 0 22.5,192.3516 L316.5,192.3516 A0,0 0 0 0 316.5,192.3516 L316.5,184 L405,237.8047 L316.5,176 L316.5,176 L306.5,166 L22.5,166 A0,0 0 0 0 22.5,166 " fill="#FEFFDD" style="stroke:#181818;stroke-width:0.5;"/><path d="M306.5,166 L306.5,176 L316.5,176 L306.5,166 " fill="#FEFFDD" style="stroke:#181818;stroke-width:0.5;"/><text fill="#000000" font-family="sans-serif" font-size="13" lengthAdjust="spacing" textLength="273" x="28.5" y="184.4951">Get list of elements with filtering and pagination</text><path d="M22.5,202.3516 L22.5,228.7031 A0,0 0 0 0 22.5,228.7031 L232.5,228.7031 A0,0 0 0 0 232.5,228.7031 L232.5,220.3516 L405,263.4141 L232.5,212.3516 L232.5,212.3516 L222.5,202.3516 L22.5,202.3516 A0,0 0 0 0 22.5,202.3516 " fill="#FEFFDD" style="stroke:#181818;stroke-width:0.5;"/><path d="M222.5,202.3516 L222.5,212.3516 L232.5,212.3516 L222.5,202.3516 " fill="#FEFFDD" style="stroke:#181818;stroke-width:0.5;"/><text fill="#000000" font-family="sans-serif" font-size="13" lengthAdjust="spacing" textLength="189" x="28.5" y="220.8467">Get count of entities with filtering</text><path d="M22.5,238.7031 L22.5,265.0547 A0,0 0 0 0 22.5,265.0547 L258.5,265.0547 A0,0 0 0 0 258.5,265.0547 L258.5,256.7031 L405,289.0234 L258.5,248.7031 L258.5,248.7031 L248.5,238.7031 L22.5,238.7031 A0,0 0 0 0 22.5,238.7031 " fill="#FEFFDD" style="stroke:#181818;stroke-width:0.5;"/><path d="M248.5,238.7031 L248.5,248.7031 L258.5,248.7031 L248.5,238.7031 " fill="#FEFFDD" style="stroke:#181818;stroke-width:0.5;"/><text fill="#000000" font-family="sans-serif" font-size="13" lengthAdjust="spacing" textLength="215" x="28.5" y="257.1982">Get new instance of the query builder</text><path d="M22.5,275.0547 L22.5,301.4063 A0,0 0 0 0 22.5,301.4063 L224.5,301.4063 A0,0 0 0 0 224.5,301.4063 L224.5,293.0547 L405,314.6328 L224.5,285.0547 L224.5,285.0547 L214.5,275.0547 L22.5,275.0547 A0,0 0 0 0 22.5,275.0547 " fill="#FEFFDD" style="stroke:#181818;stroke-width:0.5;"/><path d="M214.5,275.0547 L214.5,285.0547 L224.5,285.0547 L214.5,275.0547 " fill="#FEFFDD" style="stroke:#181818;stroke-width:0.5;"/><text fill="#000000" font-family="sans-serif" font-size="13" lengthAdjust="spacing" textLength="181" x="28.5" y="293.5498">Get entity by ID from repository</text><path d="M22.5,311.4063 L22.5,337.7578 A0,0 0 0 0 22.5,337.7578 L365.5,337.7578 A0,0 0 0 0 365.5,337.7578 L365.5,329.4063 L405,340.2422 L365.5,321.4063 L365.5,321.4063 L355.5,311.4063 L22.5,311.4063 A0,0 0 0 0 22.5,311.4063 " fill="#FEFFDD" style="stroke:#181818;stroke-width:0.5;"/><path d="M355.5,311.4063 L355.5,321.4063 L365.5,321.4063 L355.5,311.4063 " fill="#FEFFDD" style="stroke:#181818;stroke-width:0.5;"/><text fill="#000000" font-family="sans-serif" font-size="13" lengthAdjust="spacing" textLength="322" x="28.5" y="329.9014">Save the changes to the existing entity in the repository</text><path d="M22.5,347.7578 L22.5,374.1094 A0,0 0 0 0 22.5,374.1094 L200.5,374.1094 A0,0 0 0 0 200.5,374.1094 L200.5,365.7578 L405,365.8516 L200.5,357.7578 L200.5,357.7578 L190.5,347.7578 L22.5,347.7578 A0,0 0 0 0 22.5,347.7578 " fill="#FEFFDD" style="stroke:#181818;stroke-width:0.5;"/><path d="M190.5,347.7578 L190.5,357.7578 L200.5,357.7578 L190.5,347.7578 " fill="#FEFFDD" style="stroke:#181818;stroke-width:0.5;"/><text fill="#000000" font-family="sans-serif" font-size="13" lengthAdjust="spacing" textLength="157" x="28.5" y="366.2529">Add entity to the repository</text><path d="M22.5,384.1094 L22.5,410.4609 A0,0 0 0 0 22.5,410.4609 L224.5,410.4609 A0,0 0 0 0 224.5,410.4609 L224.5,402.1094 L405,391.4609 L224.5,394.1094 L224.5,394.1094 L214.5,384.1094 L22.5,384.1094 A0,0 0 0 0 22.5,384.1094 " fill="#FEFFDD" style="stroke:#181818;stroke-width:0.5;"/><path d="M214.5,384.1094 L214.5,394.1094 L224.5,394.1094 L214.5,384.1094 " fill="#FEFFDD" style="stroke:#181818;stroke-width:0.5;"/><text fill="#000000" font-family="sans-serif" font-size="13" lengthAdjust="spacing" textLength="181" x="28.5" y="402.6045">Delete entity from the database</text><path d="M22.5,420.4609 L22.5,446.8125 A0,0 0 0 0 22.5,446.8125 L251.5,446.8125 A0,0 0 0 0 251.5,446.8125 L251.5,438.4609 L405,417.0703 L251.5,430.4609 L251.5,430.4609 L241.5,420.4609 L22.5,420.4609 A0,0 0 0 0 22.5,420.4609 " fill="#FEFFDD" style="stroke:#181818;stroke-width:0.5;"/><path d="M241.5,420.4609 L241.5,430.4609 L251.5,430.4609 L241.5,420.4609 " fill="#FEFFDD" style="stroke:#181818;stroke-width:0.5;"/><text fill="#000000" font-family="sans-serif" font-size="13" lengthAdjust="spacing" textLength="208" x="28.5" y="438.9561">Closes current database connection</text><!--MD5=[27abfb56f32eefa7f07c83348fb1ee32]
class GormGenericRepository--><g id="elem_GormGenericRepository"><rect codeLine="5" fill="#F1F1F1" height="48" id="GormGenericRepository" rx="2.5" ry="2.5" style="stroke:#181818;stroke-width:0.5;" width="246" x="738" y="42"/><ellipse cx="753" cy="58" fill="#ADD1B2" rx="11" ry="11" style="stroke:#181818;stroke-width:1.0;"/><path d="M755.7656,53.875 Q755.9219,53.6563 756.1094,53.5469 Q756.2969,53.4375 756.5156,53.4375 Q756.8906,53.4375 757.125,53.7031 Q757.3594,53.9531 757.3594,54.5625 L757.3594,56.0156 Q757.3594,56.625 757.125,56.8906 Q756.8906,57.1563 756.5156,57.1563 Q756.1719,57.1563 755.9688,56.9531 Q755.7656,56.7656 755.6563,56.25 Q755.6094,55.8906 755.4219,55.7031 Q755.0938,55.3281 754.4844,55.1094 Q753.875,54.8906 753.25,54.8906 Q752.4844,54.8906 751.8438,55.2188 Q751.2188,55.5469 750.7188,56.2969 Q750.2344,57.0469 750.2344,58.0781 L750.2344,59.1719 Q750.2344,60.4063 751.125,61.2344 Q752.0156,62.0469 753.6094,62.0469 Q754.5469,62.0469 755.2031,61.7969 Q755.5938,61.6406 756.0156,61.2031 Q756.2813,60.9375 756.4219,60.8594 Q756.5781,60.7813 756.7813,60.7813 Q757.1094,60.7813 757.3594,61.0469 Q757.625,61.2969 757.625,61.6406 Q757.625,61.9844 757.2813,62.3906 Q756.7813,62.9688 755.9844,63.2969 Q754.9063,63.75 753.6094,63.75 Q752.0938,63.75 750.8906,63.125 Q749.9063,62.625 749.2188,61.5625 Q748.5313,60.4844 748.5313,59.2031 L748.5313,58.0469 Q748.5313,56.7188 749.1406,55.5781 Q749.7656,54.4219 750.8594,53.8125 Q751.9531,53.1875 753.1875,53.1875 Q753.9219,53.1875 754.5625,53.3594 Q755.2188,53.5156 755.7656,53.875 Z " fill="#000000"/><text fill="#000000" font-family="sans-serif" font-size="14" lengthAdjust="spacing" textLength="153" x="767" y="63.7285">GormGenericRepository</text><rect fill="#FFFFFF" height="17.0938" style="stroke:#000000;stroke-width:1.0;stroke-dasharray:2.0,2.0;" width="59" x="928" y="39"/><text fill="#000000" font-family="sans-serif" font-size="12" font-style="italic" lengthAdjust="spacing" textLength="57" x="929" y="52.457">EntityType</text><line style="stroke:#181818;stroke-width:0.5;" x1="739" x2="983" y1="74" y2="74"/><line style="stroke:#181818;stroke-width:0.5;" x1="739" x2="983" y1="82" y2="82"/></g><!--MD5=[1b84833638557571905b03f54e842c8c]
link GormGenericRepository to IGenericRepository--><g id="link_GormGenericRepository_IGenericRepository"><path codeLine="7" d="M861,90.35 C861,110.31 861,140.81 861,172.81 " fill="none" id="GormGenericRepository-to-IGenericRepository" style="stroke:#181818;stroke-width:1.0;stroke-dasharray:7.0,7.0;"/><polygon fill="none" points="868,172.84,861,192.84,854,172.84,868,172.84" style="stroke:#181818;stroke-width:1.0;"/></g><!--MD5=[2a542a2bd40c80f730c9810617836783]
@startuml

!include ../interfaces/IGenericRepository.puml

package infrastructure {
    class GormGenericRepository<EntityType>

    GormGenericRepository .down.|> IGenericRepository
}

@enduml

@startuml


package app {
    interface IGenericRepository<EntityType> {
        +GetList(ctx context.Context, orderBy string, orderDirection string, page int, size int, queryBuilder interfaces.IQueryBuilder) (*[]EntityType, error)
        - -
        +Count(ctx context.Context, queryBuilder interfaces.IQueryBuilder) (int64, error)
        - -
        +NewQueryBuilder(ctx context.Context) interfaces.IQueryBuilder
        - -
        +GetById(ctx context.Context, id uuid.UUID) (*EntityType, error)
        - -
        +Update(ctx context.Context, entity *EntityType) error
        - -
        +Insert(ctx context.Context, entity EntityType) (uuid.UUID, error)
        - -
        +Delete(ctx context.Context, id uuid.UUID) error
        - -
        +CloseDb() error
    }
    note left of IGenericRepository::GetList
      Get list of elements with filtering and pagination
    end note

    note left of IGenericRepository::Count
      Get count of entities with filtering
    end note

    note left of IGenericRepository::NewQueryBuilder
      Get new instance of the query builder
    end note

    note left of IGenericRepository::GetById
      Get entity by ID from repository
    end note

    note left of IGenericRepository::Update
      Save the changes to the existing entity in the repository
    end note

    note left of IGenericRepository::Insert
      Add entity to the repository
    end note

    note left of IGenericRepository::Delete
      Delete entity from the database
    end note

    note left of IGenericRepository::CloseDb
      Closes current database connection
    end note
}


package infrastructure {
    class GormGenericRepository<EntityType>

    GormGenericRepository .down.|> IGenericRepository
}

@enduml

PlantUML version 1.2022.6(Tue Jun 21 20:34:49 MSK 2022)
(GPL source distribution)
Java Runtime: OpenJDK Runtime Environment
JVM: OpenJDK 64-Bit Server VM
Default Encoding: Cp1251
Language: ru
Country: RU
--></g></svg>