<?xml version="1.0" encoding="UTF-8" standalone="no"?><svg xmlns="http://www.w3.org/2000/svg" xmlns:xlink="http://www.w3.org/1999/xlink" contentStyleType="text/css" height="538px" preserveAspectRatio="none" style="width:1453px;height:538px;background:#FFFFFF;" version="1.1" viewBox="0 0 1453 538" width="1453px" zoomAndPan="magnify"><defs/><g><!--MD5=[d5ac3844f66b12d9e08170e47495e096]
cluster app--><g id="cluster_app"><path d="M8.5,129 L38.5,129 A3.75,3.75 0 0 1 41,131.5 L48,151.2969 L1443.5,151.2969 A2.5,2.5 0 0 1 1446,153.7969 L1446,528.5 A2.5,2.5 0 0 1 1443.5,531 L8.5,531 A2.5,2.5 0 0 1 6,528.5 L6,131.5 A2.5,2.5 0 0 1 8.5,129 " style="stroke:#000000;stroke-width:1.5;fill:none;"/><line style="stroke:#000000;stroke-width:1.5;fill:none;" x1="6" x2="48" y1="151.2969" y2="151.2969"/><text fill="#000000" font-family="sans-serif" font-size="14" font-weight="bold" lengthAdjust="spacing" textLength="29" x="10" y="143.9951">app</text></g><!--MD5=[77349be1bd27b81b697a0f9b3aded3c8]
cluster infrastructure--><g id="cluster_infrastructure"><path d="M759.5,6 L870.5,6 A3.75,3.75 0 0 1 873,8.5 L880,28.2969 L1106.5,28.2969 A2.5,2.5 0 0 1 1109,30.7969 L1109,102.5 A2.5,2.5 0 0 1 1106.5,105 L759.5,105 A2.5,2.5 0 0 1 757,102.5 L757,8.5 A2.5,2.5 0 0 1 759.5,6 " style="stroke:#000000;stroke-width:1.5;fill:none;"/><line style="stroke:#000000;stroke-width:1.5;fill:none;" x1="757" x2="880" y1="28.2969" y2="28.2969"/><text fill="#000000" font-family="sans-serif" font-size="14" font-weight="bold" lengthAdjust="spacing" textLength="110" x="761" y="20.9951">infrastructure</text></g><!--MD5=[b3e0f8dcddb1b27f071a0303a68762bf]
class IGenericRepository--><g id="elem_IGenericRepository"><rect codeLine="3" fill="#F1F1F1" height="274.9688" id="IGenericRepository" rx="2.5" ry="2.5" style="stroke:#181818;stroke-width:0.5;" width="994" x="436" y="202"/><ellipse cx="737.25" cy="218" fill="#B4A7E5" rx="11" ry="11" style="stroke:#181818;stroke-width:1.0;"/><path d="M733.1719,213.7656 L733.1719,211.6094 L740.5625,211.6094 L740.5625,213.7656 L738.0938,213.7656 L738.0938,221.8438 L740.5625,221.8438 L740.5625,224 L733.1719,224 L733.1719,221.8438 L735.6406,221.8438 L735.6406,213.7656 L733.1719,213.7656 Z " fill="#000000"/><text fill="#000000" font-family="sans-serif" font-size="14" font-style="italic" lengthAdjust="spacing" textLength="132" x="757.75" y="222.8467">IGenericRepository</text><rect fill="#FFFFFF" height="15.9688" style="stroke:#000000;stroke-width:1.0;stroke-dasharray:2.0,2.0;" width="249" x="1184" y="199"/><text fill="#000000" font-family="sans-serif" font-size="12" font-style="italic" lengthAdjust="spacing" textLength="247" x="1185" y="211.1387">IDType, interfaces.IEntityModel[IDType]</text><line style="stroke:#181818;stroke-width:0.5;" x1="437" x2="1429" y1="234" y2="234"/><ellipse cx="447" cy="245" fill="#84BE84" rx="3" ry="3" style="stroke:#038048;stroke-width:1.0;"/><text fill="#000000" font-family="sans-serif" font-size="14" lengthAdjust="spacing" textLength="968" x="456" y="250.9951">GetList(ctx context.Context, orderBy string, orderDirection string, page int, size int, queryBuilder interfaces.IQueryBuilder) ([]EntityType, error)</text><line style="stroke:#181818;stroke-width:1.0;" x1="437" x2="1429" y1="258.2969" y2="258.2969"/><ellipse cx="447" cy="269.2969" fill="#84BE84" rx="3" ry="3" style="stroke:#038048;stroke-width:1.0;"/><text fill="#000000" font-family="sans-serif" font-size="14" lengthAdjust="spacing" textLength="521" x="456" y="275.292">Count(ctx context.Context, queryBuilder interfaces.IQueryBuilder) (int, error)</text><line style="stroke:#181818;stroke-width:1.0;" x1="437" x2="1429" y1="282.5938" y2="282.5938"/><ellipse cx="447" cy="293.5938" fill="#84BE84" rx="3" ry="3" style="stroke:#038048;stroke-width:1.0;"/><text fill="#000000" font-family="sans-serif" font-size="14" lengthAdjust="spacing" textLength="607" x="456" y="299.5889">IsExist(ctx context.Context, id IDType, queryBuilder interfaces.IQueryBuilder) (bool, error)</text><line style="stroke:#181818;stroke-width:1.0;" x1="437" x2="1429" y1="306.8906" y2="306.8906"/><ellipse cx="447" cy="317.8906" fill="#84BE84" rx="3" ry="3" style="stroke:#038048;stroke-width:1.0;"/><text fill="#000000" font-family="sans-serif" font-size="14" lengthAdjust="spacing" textLength="431" x="456" y="323.8857">NewQueryBuilder(ctx context.Context) interfaces.IQueryBuilder</text><line style="stroke:#181818;stroke-width:1.0;" x1="437" x2="1429" y1="331.1875" y2="331.1875"/><ellipse cx="447" cy="342.1875" fill="#84BE84" rx="3" ry="3" style="stroke:#038048;stroke-width:1.0;"/><text fill="#000000" font-family="sans-serif" font-size="14" lengthAdjust="spacing" textLength="397" x="456" y="348.1826">GetById(ctx context.Context, id IDType) (EntityType, error)</text><line style="stroke:#181818;stroke-width:1.0;" x1="437" x2="1429" y1="355.4844" y2="355.4844"/><ellipse cx="447" cy="366.4844" fill="#84BE84" rx="3" ry="3" style="stroke:#038048;stroke-width:1.0;"/><text fill="#000000" font-family="sans-serif" font-size="14" lengthAdjust="spacing" textLength="443" x="456" y="372.4795">Update(ctx context.Context, entity EntityType) (EntityType, error)</text><line style="stroke:#181818;stroke-width:1.0;" x1="437" x2="1429" y1="379.7813" y2="379.7813"/><ellipse cx="447" cy="390.7813" fill="#84BE84" rx="3" ry="3" style="stroke:#038048;stroke-width:1.0;"/><text fill="#000000" font-family="sans-serif" font-size="14" lengthAdjust="spacing" textLength="432" x="456" y="396.7764">Insert(ctx context.Context, entity EntityType) (EntityType, error)</text><line style="stroke:#181818;stroke-width:1.0;" x1="437" x2="1429" y1="404.0781" y2="404.0781"/><ellipse cx="447" cy="415.0781" fill="#84BE84" rx="3" ry="3" style="stroke:#038048;stroke-width:1.0;"/><text fill="#000000" font-family="sans-serif" font-size="14" lengthAdjust="spacing" textLength="299" x="456" y="421.0732">Delete(ctx context.Context, id IDType) error</text><line style="stroke:#181818;stroke-width:1.0;" x1="437" x2="1429" y1="428.375" y2="428.375"/><ellipse cx="447" cy="439.375" fill="#84BE84" rx="3" ry="3" style="stroke:#038048;stroke-width:1.0;"/><text fill="#000000" font-family="sans-serif" font-size="14" lengthAdjust="spacing" textLength="505" x="456" y="445.3701">DeleteAll(ctx context.Context, queryBuilder interfaces.IQueryBuilder) error</text><line style="stroke:#181818;stroke-width:1.0;" x1="437" x2="1429" y1="452.6719" y2="452.6719"/><ellipse cx="447" cy="463.6719" fill="#84BE84" rx="3" ry="3" style="stroke:#038048;stroke-width:1.0;"/><text fill="#000000" font-family="sans-serif" font-size="14" lengthAdjust="spacing" textLength="104" x="456" y="469.667">Dispose() error</text></g><path d="M21.5,164 L21.5,189.1328 A0,0 0 0 0 21.5,189.1328 L346.5,189.1328 A0,0 0 0 0 346.5,189.1328 L346.5,182 L440,246.1484 L346.5,174 L346.5,174 L336.5,164 L21.5,164 A0,0 0 0 0 21.5,164 " fill="#FEFFDD" style="stroke:#181818;stroke-width:0.5;"/><path d="M336.5,164 L336.5,174 L346.5,174 L336.5,164 " fill="#FEFFDD" style="stroke:#181818;stroke-width:0.5;"/><text fill="#000000" font-family="sans-serif" font-size="13" lengthAdjust="spacing" textLength="304" x="27.5" y="181.0669">Get list of elements with filtering and pagination</text><path d="M21.5,199.1328 L21.5,224.2656 A0,0 0 0 0 21.5,224.2656 L252.5,224.2656 A0,0 0 0 0 252.5,224.2656 L252.5,217.1328 L440,270.4453 L252.5,209.1328 L252.5,209.1328 L242.5,199.1328 L21.5,199.1328 A0,0 0 0 0 21.5,199.1328 " fill="#FEFFDD" style="stroke:#181818;stroke-width:0.5;"/><path d="M242.5,199.1328 L242.5,209.1328 L252.5,209.1328 L242.5,199.1328 " fill="#FEFFDD" style="stroke:#181818;stroke-width:0.5;"/><text fill="#000000" font-family="sans-serif" font-size="13" lengthAdjust="spacing" textLength="210" x="27.5" y="216.1997">Get count of entities with filtering</text><path d="M21.5,234.2656 L21.5,259.3984 A0,0 0 0 0 21.5,259.3984 L378.5,259.3984 A0,0 0 0 0 378.5,259.3984 L378.5,252.2656 L440,294.7422 L378.5,244.2656 L378.5,244.2656 L368.5,234.2656 L21.5,234.2656 A0,0 0 0 0 21.5,234.2656 " fill="#FEFFDD" style="stroke:#181818;stroke-width:0.5;"/><path d="M368.5,234.2656 L368.5,244.2656 L378.5,244.2656 L368.5,234.2656 " fill="#FEFFDD" style="stroke:#181818;stroke-width:0.5;"/><text fill="#000000" font-family="sans-serif" font-size="13" lengthAdjust="spacing" textLength="336" x="27.5" y="251.3325">Checks that entity with selected conditions is existed</text><path d="M21.5,269.3984 L21.5,294.5313 A0,0 0 0 0 21.5,294.5313 L280.5,294.5313 A0,0 0 0 0 280.5,294.5313 L280.5,287.3984 L440,319.0391 L280.5,279.3984 L280.5,279.3984 L270.5,269.3984 L21.5,269.3984 A0,0 0 0 0 21.5,269.3984 " fill="#FEFFDD" style="stroke:#181818;stroke-width:0.5;"/><path d="M270.5,269.3984 L270.5,279.3984 L280.5,279.3984 L270.5,269.3984 " fill="#FEFFDD" style="stroke:#181818;stroke-width:0.5;"/><text fill="#000000" font-family="sans-serif" font-size="13" lengthAdjust="spacing" textLength="238" x="27.5" y="286.4653">Get new instance of the query builder</text><path d="M21.5,304.5313 L21.5,329.6641 A0,0 0 0 0 21.5,329.6641 L243.5,329.6641 A0,0 0 0 0 243.5,329.6641 L243.5,322.5313 L440,343.3359 L243.5,314.5313 L243.5,314.5313 L233.5,304.5313 L21.5,304.5313 A0,0 0 0 0 21.5,304.5313 " fill="#FEFFDD" style="stroke:#181818;stroke-width:0.5;"/><path d="M233.5,304.5313 L233.5,314.5313 L243.5,314.5313 L233.5,304.5313 " fill="#FEFFDD" style="stroke:#181818;stroke-width:0.5;"/><text fill="#000000" font-family="sans-serif" font-size="13" lengthAdjust="spacing" textLength="201" x="27.5" y="321.5981">Get entity by ID from repository</text><path d="M21.5,339.6641 L21.5,364.7969 A0,0 0 0 0 21.5,364.7969 L400.5,364.7969 A0,0 0 0 0 400.5,364.7969 L400.5,357.6641 L440,367.6328 L400.5,349.6641 L400.5,349.6641 L390.5,339.6641 L21.5,339.6641 A0,0 0 0 0 21.5,339.6641 " fill="#FEFFDD" style="stroke:#181818;stroke-width:0.5;"/><path d="M390.5,339.6641 L390.5,349.6641 L400.5,349.6641 L390.5,339.6641 " fill="#FEFFDD" style="stroke:#181818;stroke-width:0.5;"/><text fill="#000000" font-family="sans-serif" font-size="13" lengthAdjust="spacing" textLength="358" x="27.5" y="356.731">Save the changes to the existing entity in the repository</text><path d="M21.5,374.7969 L21.5,399.9297 A0,0 0 0 0 21.5,399.9297 L217.5,399.9297 A0,0 0 0 0 217.5,399.9297 L217.5,392.7969 L440,391.9297 L217.5,384.7969 L217.5,384.7969 L207.5,374.7969 L21.5,374.7969 A0,0 0 0 0 21.5,374.7969 " fill="#FEFFDD" style="stroke:#181818;stroke-width:0.5;"/><path d="M207.5,374.7969 L207.5,384.7969 L217.5,384.7969 L207.5,374.7969 " fill="#FEFFDD" style="stroke:#181818;stroke-width:0.5;"/><text fill="#000000" font-family="sans-serif" font-size="13" lengthAdjust="spacing" textLength="175" x="27.5" y="391.8638">Add entity to the repository</text><path d="M21.5,409.9297 L21.5,435.0625 A0,0 0 0 0 21.5,435.0625 L226.5,435.0625 A0,0 0 0 0 226.5,435.0625 L226.5,427.9297 L440,416.2266 L226.5,419.9297 L226.5,419.9297 L216.5,409.9297 L21.5,409.9297 A0,0 0 0 0 21.5,409.9297 " fill="#FEFFDD" style="stroke:#181818;stroke-width:0.5;"/><path d="M216.5,409.9297 L216.5,419.9297 L226.5,419.9297 L216.5,409.9297 " fill="#FEFFDD" style="stroke:#181818;stroke-width:0.5;"/><text fill="#000000" font-family="sans-serif" font-size="13" lengthAdjust="spacing" textLength="184" x="27.5" y="426.9966">Delete entity from repository</text><path d="M21.5,445.0625 L21.5,470.1953 A0,0 0 0 0 21.5,470.1953 L291.5,470.1953 A0,0 0 0 0 291.5,470.1953 L291.5,463.0625 L440,440.5234 L291.5,455.0625 L291.5,455.0625 L281.5,445.0625 L21.5,445.0625 A0,0 0 0 0 21.5,445.0625 " fill="#FEFFDD" style="stroke:#181818;stroke-width:0.5;"/><path d="M281.5,445.0625 L281.5,455.0625 L291.5,455.0625 L281.5,445.0625 " fill="#FEFFDD" style="stroke:#181818;stroke-width:0.5;"/><text fill="#000000" font-family="sans-serif" font-size="13" lengthAdjust="spacing" textLength="249" x="27.5" y="462.1294">Delete entities with selected conditions</text><path d="M21.5,480.1953 L21.5,505.3281 A0,0 0 0 0 21.5,505.3281 L206.5,505.3281 A0,0 0 0 0 206.5,505.3281 L206.5,498.1953 L440,464.8203 L206.5,490.1953 L206.5,490.1953 L196.5,480.1953 L21.5,480.1953 A0,0 0 0 0 21.5,480.1953 " fill="#FEFFDD" style="stroke:#181818;stroke-width:0.5;"/><path d="M196.5,480.1953 L196.5,490.1953 L206.5,490.1953 L196.5,480.1953 " fill="#FEFFDD" style="stroke:#181818;stroke-width:0.5;"/><text fill="#000000" font-family="sans-serif" font-size="13" lengthAdjust="spacing" textLength="164" x="27.5" y="497.2622">Dispose all allocated data</text><!--MD5=[27abfb56f32eefa7f07c83348fb1ee32]
class GormGenericRepository--><g id="elem_GormGenericRepository"><rect codeLine="5" fill="#F1F1F1" height="48" id="GormGenericRepository" rx="2.5" ry="2.5" style="stroke:#181818;stroke-width:0.5;" width="319" x="773.5" y="41"/><ellipse cx="788.5" cy="57" fill="#ADD1B2" rx="11" ry="11" style="stroke:#181818;stroke-width:1.0;"/><path d="M791.4688,62.6406 Q790.8906,62.9375 790.25,63.0781 Q789.6094,63.2344 788.9063,63.2344 Q786.4063,63.2344 785.0781,61.5938 Q783.7656,59.9375 783.7656,56.8125 Q783.7656,53.6875 785.0781,52.0313 Q786.4063,50.375 788.9063,50.375 Q789.6094,50.375 790.25,50.5313 Q790.9063,50.6875 791.4688,50.9844 L791.4688,53.7031 Q790.8438,53.125 790.25,52.8594 Q789.6563,52.5781 789.0313,52.5781 Q787.6875,52.5781 787,53.6563 Q786.3125,54.7188 786.3125,56.8125 Q786.3125,58.9063 787,59.9844 Q787.6875,61.0469 789.0313,61.0469 Q789.6563,61.0469 790.25,60.7813 Q790.8438,60.5 791.4688,59.9219 L791.4688,62.6406 Z " fill="#000000"/><text fill="#000000" font-family="sans-serif" font-size="14" lengthAdjust="spacing" textLength="166" x="802.5" y="61.8467">GormGenericRepository</text><rect fill="#FFFFFF" height="15.9688" style="stroke:#000000;stroke-width:1.0;stroke-dasharray:2.0,2.0;" width="119" x="976.5" y="38"/><text fill="#000000" font-family="sans-serif" font-size="12" font-style="italic" lengthAdjust="spacing" textLength="117" x="977.5" y="50.1387">IDType, EntityType</text><line style="stroke:#181818;stroke-width:0.5;" x1="774.5" x2="1091.5" y1="73" y2="73"/><line style="stroke:#181818;stroke-width:0.5;" x1="774.5" x2="1091.5" y1="81" y2="81"/></g><!--MD5=[1b84833638557571905b03f54e842c8c]
link GormGenericRepository to IGenericRepository--><g id="link_GormGenericRepository_IGenericRepository"><path codeLine="7" d="M933,89.23 C933,110.95 933,145.42 933,181.88 " fill="none" id="GormGenericRepository-to-IGenericRepository" style="stroke:#181818;stroke-width:1.0;stroke-dasharray:7.0,7.0;"/><polygon fill="none" points="940,181.97,933,201.97,926,181.97,940,181.97" style="stroke:#181818;stroke-width:1.0;"/></g><!--MD5=[e6f264c5d3c57f98d68bd68ce945b4c2]
@startuml

!include ../interfaces/IGenericRepository.puml

package infrastructure {
    class GormGenericRepository<IDType, EntityType>

    GormGenericRepository .down.|> IGenericRepository
}

@enduml

@startuml


package app {
    interface IGenericRepository<IDType, interfaces.IEntityModel[IDType]> {
        +GetList(ctx context.Context, orderBy string, orderDirection string, page int, size int, queryBuilder interfaces.IQueryBuilder) ([]EntityType, error)
        - -
        +Count(ctx context.Context, queryBuilder interfaces.IQueryBuilder) (int, error)
        - -
        +IsExist(ctx context.Context, id IDType, queryBuilder interfaces.IQueryBuilder) (bool, error)
        - -
        +NewQueryBuilder(ctx context.Context) interfaces.IQueryBuilder
        - -
        +GetById(ctx context.Context, id IDType) (EntityType, error)
        - -
        +Update(ctx context.Context, entity EntityType) (EntityType, error)
        - -
        +Insert(ctx context.Context, entity EntityType) (EntityType, error)
        - -
        +Delete(ctx context.Context, id IDType) error
        - -
        +DeleteAll(ctx context.Context, queryBuilder interfaces.IQueryBuilder) error
        - -
        +Dispose() error
    }
    note left of IGenericRepository::GetList
      Get list of elements with filtering and pagination
    end note

    note left of IGenericRepository::Count
      Get count of entities with filtering
    end note

    note left of IGenericRepository::IsExist
      Checks that entity with selected conditions is existed
    end note

    note left of IGenericRepository::NewQueryBuilder
      Get new instance of the query builder
    end note

    note left of IGenericRepository::GetById
      Get entity by ID from repository
    end note

    note left of IGenericRepository::Update
      Save the changes to the existing entity in the repository
    end note

    note left of IGenericRepository::Insert
      Add entity to the repository
    end note

    note left of IGenericRepository::Delete
      Delete entity from repository
    end note

    note left of IGenericRepository::DeleteAll
      Delete entities with selected conditions
    end note

    note left of IGenericRepository::Dispose
      Dispose all allocated data
    end note
}


package infrastructure {
    class GormGenericRepository<IDType, EntityType>

    GormGenericRepository .down.|> IGenericRepository
}

@enduml

PlantUML version 1.2022.6(Tue Jun 21 17:34:49 EGST 2022)
(GPL source distribution)
Java Runtime: OpenJDK Runtime Environment
JVM: OpenJDK 64-Bit Server VM
Default Encoding: UTF-8
Language: en
Country: US
--></g></svg>