<?xml version="1.0" encoding="UTF-8" standalone="no"?><svg xmlns="http://www.w3.org/2000/svg" xmlns:xlink="http://www.w3.org/1999/xlink" contentStyleType="text/css" height="1099px" preserveAspectRatio="none" style="width:1512px;height:1099px;background:#FFFFFF;" version="1.1" viewBox="0 0 1512 1099" width="1512px" zoomAndPan="magnify"><defs/><g><!--MD5=[d5ac3844f66b12d9e08170e47495e096]
cluster app--><g id="cluster_app"><path d="M8.5,749 L35.5,749 A3.75,3.75 0 0 1 38,751.5 L45,772.6094 L1502.5,772.6094 A2.5,2.5 0 0 1 1505,775.1094 L1505,1089.5 A2.5,2.5 0 0 1 1502.5,1092 L8.5,1092 A2.5,2.5 0 0 1 6,1089.5 L6,751.5 A2.5,2.5 0 0 1 8.5,749 " style="stroke:#000000;stroke-width:1.5;fill:none;"/><line style="stroke:#000000;stroke-width:1.5;fill:none;" x1="6" x2="45" y1="772.6094" y2="772.6094"/><text fill="#000000" font-family="sans-serif" font-size="14" font-weight="bold" lengthAdjust="spacing" textLength="26" x="10" y="765.5332">app</text></g><!--MD5=[27f772719433d509ddbc20ff768eba08]
cluster domain--><g id="cluster_domain"><path d="M239.5,6 L291.5,6 A3.75,3.75 0 0 1 294,8.5 L301,29.6094 L598.5,29.6094 A2.5,2.5 0 0 1 601,32.1094 L601,614.5 A2.5,2.5 0 0 1 598.5,617 L239.5,617 A2.5,2.5 0 0 1 237,614.5 L237,8.5 A2.5,2.5 0 0 1 239.5,6 " style="stroke:#000000;stroke-width:1.5;fill:none;"/><line style="stroke:#000000;stroke-width:1.5;fill:none;" x1="237" x2="301" y1="29.6094" y2="29.6094"/><text fill="#000000" font-family="sans-serif" font-size="14" font-weight="bold" lengthAdjust="spacing" textLength="51" x="241" y="22.5332">domain</text></g><!--MD5=[77349be1bd27b81b697a0f9b3aded3c8]
cluster infrastructure--><g id="cluster_infrastructure"><path d="M760.5,164.5 L858.5,164.5 A3.75,3.75 0 0 1 861,167 L868,188.1094 L1033.5,188.1094 A2.5,2.5 0 0 1 1036,190.6094 L1036,722.5 A2.5,2.5 0 0 1 1033.5,725 L760.5,725 A2.5,2.5 0 0 1 758,722.5 L758,167 A2.5,2.5 0 0 1 760.5,164.5 " style="stroke:#000000;stroke-width:1.5;fill:none;"/><line style="stroke:#000000;stroke-width:1.5;fill:none;" x1="758" x2="868" y1="188.1094" y2="188.1094"/><text fill="#000000" font-family="sans-serif" font-size="14" font-weight="bold" lengthAdjust="spacing" textLength="97" x="762" y="181.0332">infrastructure</text></g><!--MD5=[2a39a5be1cc24ddddd6e6286e4ece992]
class IEntityModel--><g id="elem_IEntityModel"><rect codeLine="3" fill="#F1F1F1" height="65.6094" id="IEntityModel" rx="2.5" ry="2.5" style="stroke:#181818;stroke-width:0.5;" width="138" x="22" y="897.5"/><ellipse cx="49.6" cy="913.5" fill="#B4A7E5" rx="11" ry="11" style="stroke:#181818;stroke-width:1.0;"/><path d="M50.5531,910.1406 L50.5531,916.7969 L52.2719,916.7969 Q52.8813,916.7969 53.1469,917.0313 Q53.4125,917.2656 53.4125,917.6563 Q53.4125,918.0313 53.1469,918.2656 Q52.8813,918.5 52.2719,918.5 L47.1313,918.5 Q46.5219,918.5 46.2563,918.2656 Q45.9906,918.0313 45.9906,917.6406 Q45.9906,917.2656 46.2563,917.0313 Q46.5219,916.7969 47.1313,916.7969 L48.85,916.7969 L48.85,910.1406 L47.1313,910.1406 Q46.5219,910.1406 46.2563,909.9063 Q45.9906,909.6719 45.9906,909.2813 Q45.9906,908.9063 46.2563,908.6719 Q46.5219,908.4375 47.1313,908.4375 L52.2719,908.4375 Q52.8813,908.4375 53.1469,908.6719 Q53.4125,908.9063 53.4125,909.2813 Q53.4125,909.6719 53.1469,909.9063 Q52.8813,910.1406 52.2719,910.1406 L50.5531,910.1406 Z " fill="#000000"/><text fill="#000000" font-family="sans-serif" font-size="14" font-style="italic" lengthAdjust="spacing" textLength="78" x="66.4" y="919.2285">IEntityModel</text><line style="stroke:#181818;stroke-width:0.5;" x1="23" x2="159" y1="929.5" y2="929.5"/><line style="stroke:#181818;stroke-width:0.5;" x1="23" x2="159" y1="937.5" y2="937.5"/><ellipse cx="33" cy="948.5" fill="#84BE84" rx="3" ry="3" style="stroke:#038048;stroke-width:1.0;"/><text fill="#000000" font-family="sans-serif" font-size="14" lengthAdjust="spacing" textLength="112" x="42" y="956.0332">GetID() uuid.UUID</text></g><!--MD5=[b3e0f8dcddb1b27f071a0303a68762bf]
class IGenericRepository--><g id="elem_IGenericRepository"><rect codeLine="3" fill="#F1F1F1" height="236.875" id="IGenericRepository" rx="2.5" ry="2.5" style="stroke:#181818;stroke-width:0.5;" width="915" x="573.5" y="812"/><ellipse cx="935.25" cy="828" fill="#B4A7E5" rx="11" ry="11" style="stroke:#181818;stroke-width:1.0;"/><path d="M936.2031,824.6406 L936.2031,831.2969 L937.9219,831.2969 Q938.5313,831.2969 938.7969,831.5313 Q939.0625,831.7656 939.0625,832.1563 Q939.0625,832.5313 938.7969,832.7656 Q938.5313,833 937.9219,833 L932.7813,833 Q932.1719,833 931.9063,832.7656 Q931.6406,832.5313 931.6406,832.1406 Q931.6406,831.7656 931.9063,831.5313 Q932.1719,831.2969 932.7813,831.2969 L934.5,831.2969 L934.5,824.6406 L932.7813,824.6406 Q932.1719,824.6406 931.9063,824.4063 Q931.6406,824.1719 931.6406,823.7813 Q931.6406,823.4063 931.9063,823.1719 Q932.1719,822.9375 932.7813,822.9375 L937.9219,822.9375 Q938.5313,822.9375 938.7969,823.1719 Q939.0625,823.4063 939.0625,823.7813 Q939.0625,824.1719 938.7969,824.4063 Q938.5313,824.6406 937.9219,824.6406 L936.2031,824.6406 Z " fill="#000000"/><text fill="#000000" font-family="sans-serif" font-size="14" font-style="italic" lengthAdjust="spacing" textLength="122" x="955.75" y="833.7285">IGenericRepository</text><rect fill="#FFFFFF" height="17.0938" style="stroke:#000000;stroke-width:1.0;stroke-dasharray:2.0,2.0;" width="59" x="1432.5" y="809"/><text fill="#000000" font-family="sans-serif" font-size="12" font-style="italic" lengthAdjust="spacing" textLength="57" x="1433.5" y="822.457">EntityType</text><line style="stroke:#181818;stroke-width:0.5;" x1="574.5" x2="1487.5" y1="844" y2="844"/><ellipse cx="584.5" cy="855" fill="#84BE84" rx="3" ry="3" style="stroke:#038048;stroke-width:1.0;"/><text fill="#000000" font-family="sans-serif" font-size="14" lengthAdjust="spacing" textLength="889" x="593.5" y="862.5332">GetList(ctx context.Context, orderBy string, orderDirection string, page int, size int, queryBuilder interfaces.IQueryBuilder) ([]EntityType, error)</text><line style="stroke:#181818;stroke-width:1.0;" x1="574.5" x2="1487.5" y1="869.6094" y2="869.6094"/><ellipse cx="584.5" cy="880.6094" fill="#84BE84" rx="3" ry="3" style="stroke:#038048;stroke-width:1.0;"/><text fill="#000000" font-family="sans-serif" font-size="14" lengthAdjust="spacing" textLength="494" x="593.5" y="888.1426">Count(ctx context.Context, queryBuilder interfaces.IQueryBuilder) (int64, error)</text><line style="stroke:#181818;stroke-width:1.0;" x1="574.5" x2="1487.5" y1="895.2188" y2="895.2188"/><ellipse cx="584.5" cy="906.2188" fill="#84BE84" rx="3" ry="3" style="stroke:#038048;stroke-width:1.0;"/><text fill="#000000" font-family="sans-serif" font-size="14" lengthAdjust="spacing" textLength="393" x="593.5" y="913.752">NewQueryBuilder(ctx context.Context) interfaces.IQueryBuilder</text><line style="stroke:#181818;stroke-width:1.0;" x1="574.5" x2="1487.5" y1="920.8281" y2="920.8281"/><ellipse cx="584.5" cy="931.8281" fill="#84BE84" rx="3" ry="3" style="stroke:#038048;stroke-width:1.0;"/><text fill="#000000" font-family="sans-serif" font-size="14" lengthAdjust="spacing" textLength="383" x="593.5" y="939.3613">GetById(ctx context.Context, id uuid.UUID) (EntityType, error)</text><line style="stroke:#181818;stroke-width:1.0;" x1="574.5" x2="1487.5" y1="946.4375" y2="946.4375"/><ellipse cx="584.5" cy="957.4375" fill="#84BE84" rx="3" ry="3" style="stroke:#038048;stroke-width:1.0;"/><text fill="#000000" font-family="sans-serif" font-size="14" lengthAdjust="spacing" textLength="406" x="593.5" y="964.9707">Update(ctx context.Context, entity EntityType) (EntityType, error)</text><line style="stroke:#181818;stroke-width:1.0;" x1="574.5" x2="1487.5" y1="972.0469" y2="972.0469"/><ellipse cx="584.5" cy="983.0469" fill="#84BE84" rx="3" ry="3" style="stroke:#038048;stroke-width:1.0;"/><text fill="#000000" font-family="sans-serif" font-size="14" lengthAdjust="spacing" textLength="396" x="593.5" y="990.5801">Insert(ctx context.Context, entity EntityType) (EntityType, error)</text><line style="stroke:#181818;stroke-width:1.0;" x1="574.5" x2="1487.5" y1="997.6563" y2="997.6563"/><ellipse cx="584.5" cy="1008.6563" fill="#84BE84" rx="3" ry="3" style="stroke:#038048;stroke-width:1.0;"/><text fill="#000000" font-family="sans-serif" font-size="14" lengthAdjust="spacing" textLength="289" x="593.5" y="1016.1895">Delete(ctx context.Context, id uuid.UUID) error</text><line style="stroke:#181818;stroke-width:1.0;" x1="574.5" x2="1487.5" y1="1023.2656" y2="1023.2656"/><ellipse cx="584.5" cy="1034.2656" fill="#84BE84" rx="3" ry="3" style="stroke:#038048;stroke-width:1.0;"/><text fill="#000000" font-family="sans-serif" font-size="14" lengthAdjust="spacing" textLength="99" x="593.5" y="1041.7988">CloseDb() error</text></g><path d="M195.5,785 L195.5,811.3516 A0,0 0 0 0 195.5,811.3516 L489.5,811.3516 A0,0 0 0 0 489.5,811.3516 L489.5,803 L577.5,856.8047 L489.5,795 L489.5,795 L479.5,785 L195.5,785 A0,0 0 0 0 195.5,785 " fill="#FEFFDD" style="stroke:#181818;stroke-width:0.5;"/><path d="M479.5,785 L479.5,795 L489.5,795 L479.5,785 " fill="#FEFFDD" style="stroke:#181818;stroke-width:0.5;"/><text fill="#000000" font-family="sans-serif" font-size="13" lengthAdjust="spacing" textLength="273" x="201.5" y="803.4951">Get list of elements with filtering and pagination</text><path d="M195.5,821.3516 L195.5,847.7031 A0,0 0 0 0 195.5,847.7031 L405.5,847.7031 A0,0 0 0 0 405.5,847.7031 L405.5,839.3516 L577.5,882.4141 L405.5,831.3516 L405.5,831.3516 L395.5,821.3516 L195.5,821.3516 A0,0 0 0 0 195.5,821.3516 " fill="#FEFFDD" style="stroke:#181818;stroke-width:0.5;"/><path d="M395.5,821.3516 L395.5,831.3516 L405.5,831.3516 L395.5,821.3516 " fill="#FEFFDD" style="stroke:#181818;stroke-width:0.5;"/><text fill="#000000" font-family="sans-serif" font-size="13" lengthAdjust="spacing" textLength="189" x="201.5" y="839.8467">Get count of entities with filtering</text><path d="M195.5,857.7031 L195.5,884.0547 A0,0 0 0 0 195.5,884.0547 L431.5,884.0547 A0,0 0 0 0 431.5,884.0547 L431.5,875.7031 L577.5,908.0234 L431.5,867.7031 L431.5,867.7031 L421.5,857.7031 L195.5,857.7031 A0,0 0 0 0 195.5,857.7031 " fill="#FEFFDD" style="stroke:#181818;stroke-width:0.5;"/><path d="M421.5,857.7031 L421.5,867.7031 L431.5,867.7031 L421.5,857.7031 " fill="#FEFFDD" style="stroke:#181818;stroke-width:0.5;"/><text fill="#000000" font-family="sans-serif" font-size="13" lengthAdjust="spacing" textLength="215" x="201.5" y="876.1982">Get new instance of the query builder</text><path d="M195.5,894.0547 L195.5,920.4063 A0,0 0 0 0 195.5,920.4063 L397.5,920.4063 A0,0 0 0 0 397.5,920.4063 L397.5,912.0547 L577.5,933.6328 L397.5,904.0547 L397.5,904.0547 L387.5,894.0547 L195.5,894.0547 A0,0 0 0 0 195.5,894.0547 " fill="#FEFFDD" style="stroke:#181818;stroke-width:0.5;"/><path d="M387.5,894.0547 L387.5,904.0547 L397.5,904.0547 L387.5,894.0547 " fill="#FEFFDD" style="stroke:#181818;stroke-width:0.5;"/><text fill="#000000" font-family="sans-serif" font-size="13" lengthAdjust="spacing" textLength="181" x="201.5" y="912.5498">Get entity by ID from repository</text><path d="M195.5,930.4063 L195.5,956.7578 A0,0 0 0 0 195.5,956.7578 L538.5,956.7578 A0,0 0 0 0 538.5,956.7578 L538.5,948.4063 L577.5,959.2422 L538.5,940.4063 L538.5,940.4063 L528.5,930.4063 L195.5,930.4063 A0,0 0 0 0 195.5,930.4063 " fill="#FEFFDD" style="stroke:#181818;stroke-width:0.5;"/><path d="M528.5,930.4063 L528.5,940.4063 L538.5,940.4063 L528.5,930.4063 " fill="#FEFFDD" style="stroke:#181818;stroke-width:0.5;"/><text fill="#000000" font-family="sans-serif" font-size="13" lengthAdjust="spacing" textLength="322" x="201.5" y="948.9014">Save the changes to the existing entity in the repository</text><path d="M195.5,966.7578 L195.5,993.1094 A0,0 0 0 0 195.5,993.1094 L373.5,993.1094 A0,0 0 0 0 373.5,993.1094 L373.5,984.7578 L577.5,984.8516 L373.5,976.7578 L373.5,976.7578 L363.5,966.7578 L195.5,966.7578 A0,0 0 0 0 195.5,966.7578 " fill="#FEFFDD" style="stroke:#181818;stroke-width:0.5;"/><path d="M363.5,966.7578 L363.5,976.7578 L373.5,976.7578 L363.5,966.7578 " fill="#FEFFDD" style="stroke:#181818;stroke-width:0.5;"/><text fill="#000000" font-family="sans-serif" font-size="13" lengthAdjust="spacing" textLength="157" x="201.5" y="985.2529">Add entity to the repository</text><path d="M195.5,1003.1094 L195.5,1029.4609 A0,0 0 0 0 195.5,1029.4609 L397.5,1029.4609 A0,0 0 0 0 397.5,1029.4609 L397.5,1021.1094 L577.5,1010.4609 L397.5,1013.1094 L397.5,1013.1094 L387.5,1003.1094 L195.5,1003.1094 A0,0 0 0 0 195.5,1003.1094 " fill="#FEFFDD" style="stroke:#181818;stroke-width:0.5;"/><path d="M387.5,1003.1094 L387.5,1013.1094 L397.5,1013.1094 L387.5,1003.1094 " fill="#FEFFDD" style="stroke:#181818;stroke-width:0.5;"/><text fill="#000000" font-family="sans-serif" font-size="13" lengthAdjust="spacing" textLength="181" x="201.5" y="1021.6045">Delete entity from the database</text><path d="M195.5,1039.4609 L195.5,1065.8125 A0,0 0 0 0 195.5,1065.8125 L424.5,1065.8125 A0,0 0 0 0 424.5,1065.8125 L424.5,1057.4609 L577.5,1036.0703 L424.5,1049.4609 L424.5,1049.4609 L414.5,1039.4609 L195.5,1039.4609 A0,0 0 0 0 195.5,1039.4609 " fill="#FEFFDD" style="stroke:#181818;stroke-width:0.5;"/><path d="M414.5,1039.4609 L414.5,1049.4609 L424.5,1049.4609 L414.5,1039.4609 " fill="#FEFFDD" style="stroke:#181818;stroke-width:0.5;"/><text fill="#000000" font-family="sans-serif" font-size="13" lengthAdjust="spacing" textLength="208" x="201.5" y="1057.9561">Closes current database connection</text><!--MD5=[be996cdb8e6bf2fc7cb89c555f2cd144]
class Entity--><g id="elem_Entity"><rect codeLine="5" fill="#F1F1F1" height="134.4375" id="Entity" rx="2.5" ry="2.5" style="stroke:#181818;stroke-width:0.5;" width="283" x="265.5" y="467"/><ellipse cx="385.25" cy="483" fill="#ADD1B2" rx="11" ry="11" style="stroke:#181818;stroke-width:1.0;"/><path d="M388.0156,478.875 Q388.1719,478.6563 388.3594,478.5469 Q388.5469,478.4375 388.7656,478.4375 Q389.1406,478.4375 389.375,478.7031 Q389.6094,478.9531 389.6094,479.5625 L389.6094,481.0156 Q389.6094,481.625 389.375,481.8906 Q389.1406,482.1563 388.7656,482.1563 Q388.4219,482.1563 388.2188,481.9531 Q388.0156,481.7656 387.9063,481.25 Q387.8594,480.8906 387.6719,480.7031 Q387.3438,480.3281 386.7344,480.1094 Q386.125,479.8906 385.5,479.8906 Q384.7344,479.8906 384.0938,480.2188 Q383.4688,480.5469 382.9688,481.2969 Q382.4844,482.0469 382.4844,483.0781 L382.4844,484.1719 Q382.4844,485.4063 383.375,486.2344 Q384.2656,487.0469 385.8594,487.0469 Q386.7969,487.0469 387.4531,486.7969 Q387.8438,486.6406 388.2656,486.2031 Q388.5313,485.9375 388.6719,485.8594 Q388.8281,485.7813 389.0313,485.7813 Q389.3594,485.7813 389.6094,486.0469 Q389.875,486.2969 389.875,486.6406 Q389.875,486.9844 389.5313,487.3906 Q389.0313,487.9688 388.2344,488.2969 Q387.1563,488.75 385.8594,488.75 Q384.3438,488.75 383.1406,488.125 Q382.1563,487.625 381.4688,486.5625 Q380.7813,485.4844 380.7813,484.2031 L380.7813,483.0469 Q380.7813,481.7188 381.3906,480.5781 Q382.0156,479.4219 383.1094,478.8125 Q384.2031,478.1875 385.4375,478.1875 Q386.1719,478.1875 386.8125,478.3594 Q387.4688,478.5156 388.0156,478.875 Z " fill="#000000"/><text fill="#000000" font-family="sans-serif" font-size="14" lengthAdjust="spacing" textLength="35" x="405.75" y="488.7285">Entity</text><line style="stroke:#181818;stroke-width:0.5;" x1="266.5" x2="547.5" y1="499" y2="499"/><ellipse cx="276.5" cy="510" fill="none" rx="3" ry="3" style="stroke:#038048;stroke-width:1.0;"/><text fill="#000000" font-family="sans-serif" font-size="14" lengthAdjust="spacing" textLength="208" x="285.5" y="517.5332">ID uuid.UUID `gorm:"primarykey"`</text><line style="stroke:#181818;stroke-width:1.0;" x1="266.5" x2="547.5" y1="524.6094" y2="524.6094"/><ellipse cx="276.5" cy="535.6094" fill="none" rx="3" ry="3" style="stroke:#038048;stroke-width:1.0;"/><text fill="#000000" font-family="sans-serif" font-size="14" lengthAdjust="spacing" textLength="222" x="285.5" y="543.1426">CreatedAt time.Time `gorm:"index"`</text><line style="stroke:#181818;stroke-width:1.0;" x1="266.5" x2="547.5" y1="550.2188" y2="550.2188"/><ellipse cx="276.5" cy="561.2188" fill="none" rx="3" ry="3" style="stroke:#038048;stroke-width:1.0;"/><text fill="#000000" font-family="sans-serif" font-size="14" lengthAdjust="spacing" textLength="224" x="285.5" y="568.752">UpdatedAt time.Time `gorm:"index"`</text><line style="stroke:#181818;stroke-width:1.0;" x1="266.5" x2="547.5" y1="575.8281" y2="575.8281"/><ellipse cx="276.5" cy="586.8281" fill="none" rx="3" ry="3" style="stroke:#038048;stroke-width:1.0;"/><text fill="#000000" font-family="sans-serif" font-size="14" lengthAdjust="spacing" textLength="257" x="285.5" y="594.3613">DeletedAt gorm.DeletedAt `gorm:"index"`</text></g><!--MD5=[73025a93428e560011f09646c3da1997]
class HTTPLog--><g id="elem_HTTPLog"><rect codeLine="5" fill="#F1F1F1" height="364.9219" id="HTTPLog" rx="2.5" ry="2.5" style="stroke:#181818;stroke-width:0.5;" width="331" x="253.5" y="42"/><ellipse cx="384.75" cy="58" fill="#ADD1B2" rx="11" ry="11" style="stroke:#181818;stroke-width:1.0;"/><path d="M387.5156,53.875 Q387.6719,53.6563 387.8594,53.5469 Q388.0469,53.4375 388.2656,53.4375 Q388.6406,53.4375 388.875,53.7031 Q389.1094,53.9531 389.1094,54.5625 L389.1094,56.0156 Q389.1094,56.625 388.875,56.8906 Q388.6406,57.1563 388.2656,57.1563 Q387.9219,57.1563 387.7188,56.9531 Q387.5156,56.7656 387.4063,56.25 Q387.3594,55.8906 387.1719,55.7031 Q386.8438,55.3281 386.2344,55.1094 Q385.625,54.8906 385,54.8906 Q384.2344,54.8906 383.5938,55.2188 Q382.9688,55.5469 382.4688,56.2969 Q381.9844,57.0469 381.9844,58.0781 L381.9844,59.1719 Q381.9844,60.4063 382.875,61.2344 Q383.7656,62.0469 385.3594,62.0469 Q386.2969,62.0469 386.9531,61.7969 Q387.3438,61.6406 387.7656,61.2031 Q388.0313,60.9375 388.1719,60.8594 Q388.3281,60.7813 388.5313,60.7813 Q388.8594,60.7813 389.1094,61.0469 Q389.375,61.2969 389.375,61.6406 Q389.375,61.9844 389.0313,62.3906 Q388.5313,62.9688 387.7344,63.2969 Q386.6563,63.75 385.3594,63.75 Q383.8438,63.75 382.6406,63.125 Q381.6563,62.625 380.9688,61.5625 Q380.2813,60.4844 380.2813,59.2031 L380.2813,58.0469 Q380.2813,56.7188 380.8906,55.5781 Q381.5156,54.4219 382.6094,53.8125 Q383.7031,53.1875 384.9375,53.1875 Q385.6719,53.1875 386.3125,53.3594 Q386.9688,53.5156 387.5156,53.875 Z " fill="#000000"/><text fill="#000000" font-family="sans-serif" font-size="14" lengthAdjust="spacing" textLength="60" x="405.25" y="63.7285">HTTPLog</text><line style="stroke:#181818;stroke-width:0.5;" x1="254.5" x2="583.5" y1="74" y2="74"/><ellipse cx="264.5" cy="85" fill="none" rx="3" ry="3" style="stroke:#038048;stroke-width:1.0;"/><text fill="#000000" font-family="sans-serif" font-size="14" lengthAdjust="spacing" textLength="122" x="273.5" y="92.5332">HTTPMethod string</text><line style="stroke:#181818;stroke-width:1.0;" x1="254.5" x2="583.5" y1="99.6094" y2="99.6094"/><ellipse cx="264.5" cy="110.6094" fill="none" rx="3" ry="3" style="stroke:#038048;stroke-width:1.0;"/><text fill="#000000" font-family="sans-serif" font-size="14" lengthAdjust="spacing" textLength="87" x="273.5" y="118.1426">Domain string</text><line style="stroke:#181818;stroke-width:1.0;" x1="254.5" x2="583.5" y1="125.2188" y2="125.2188"/><ellipse cx="264.5" cy="136.2188" fill="none" rx="3" ry="3" style="stroke:#038048;stroke-width:1.0;"/><text fill="#000000" font-family="sans-serif" font-size="14" lengthAdjust="spacing" textLength="212" x="273.5" y="143.752">RelativePath string `gorm:"index"`</text><line style="stroke:#181818;stroke-width:1.0;" x1="254.5" x2="583.5" y1="150.8281" y2="150.8281"/><ellipse cx="264.5" cy="161.8281" fill="none" rx="3" ry="3" style="stroke:#038048;stroke-width:1.0;"/><text fill="#000000" font-family="sans-serif" font-size="14" lengthAdjust="spacing" textLength="126" x="273.5" y="169.3613">QueryParams string</text><line style="stroke:#181818;stroke-width:1.0;" x1="254.5" x2="583.5" y1="176.4375" y2="176.4375"/><ellipse cx="264.5" cy="187.4375" fill="none" rx="3" ry="3" style="stroke:#038048;stroke-width:1.0;"/><text fill="#000000" font-family="sans-serif" font-size="14" lengthAdjust="spacing" textLength="238" x="273.5" y="194.9707">QueryParamsInd string `gorm:"index"`</text><line style="stroke:#181818;stroke-width:1.0;" x1="254.5" x2="583.5" y1="202.0469" y2="202.0469"/><ellipse cx="264.5" cy="213.0469" fill="none" rx="3" ry="3" style="stroke:#038048;stroke-width:1.0;"/><text fill="#000000" font-family="sans-serif" font-size="14" lengthAdjust="spacing" textLength="180" x="273.5" y="220.5801">ClientIP string `gorm:"index"`</text><line style="stroke:#181818;stroke-width:1.0;" x1="254.5" x2="583.5" y1="227.6563" y2="227.6563"/><ellipse cx="264.5" cy="238.6563" fill="none" rx="3" ry="3" style="stroke:#038048;stroke-width:1.0;"/><text fill="#000000" font-family="sans-serif" font-size="14" lengthAdjust="spacing" textLength="69" x="273.5" y="246.1895">Latency int</text><line style="stroke:#181818;stroke-width:1.0;" x1="254.5" x2="583.5" y1="253.2656" y2="253.2656"/><ellipse cx="264.5" cy="264.2656" fill="none" rx="3" ry="3" style="stroke:#038048;stroke-width:1.0;"/><text fill="#000000" font-family="sans-serif" font-size="14" lengthAdjust="spacing" textLength="124" x="273.5" y="271.7988">RequestBody string</text><line style="stroke:#181818;stroke-width:1.0;" x1="254.5" x2="583.5" y1="278.875" y2="278.875"/><ellipse cx="264.5" cy="289.875" fill="none" rx="3" ry="3" style="stroke:#038048;stroke-width:1.0;"/><text fill="#000000" font-family="sans-serif" font-size="14" lengthAdjust="spacing" textLength="135" x="273.5" y="297.4082">ResponseBody string</text><line style="stroke:#181818;stroke-width:1.0;" x1="254.5" x2="583.5" y1="304.4844" y2="304.4844"/><ellipse cx="264.5" cy="315.4844" fill="none" rx="3" ry="3" style="stroke:#038048;stroke-width:1.0;"/><text fill="#000000" font-family="sans-serif" font-size="14" lengthAdjust="spacing" textLength="145" x="273.5" y="323.0176">RequestHeaders string</text><line style="stroke:#181818;stroke-width:1.0;" x1="254.5" x2="583.5" y1="330.0938" y2="330.0938"/><ellipse cx="264.5" cy="341.0938" fill="none" rx="3" ry="3" style="stroke:#038048;stroke-width:1.0;"/><text fill="#000000" font-family="sans-serif" font-size="14" lengthAdjust="spacing" textLength="156" x="273.5" y="348.627">ResponseHeaders string</text><line style="stroke:#181818;stroke-width:1.0;" x1="254.5" x2="583.5" y1="355.7031" y2="355.7031"/><ellipse cx="264.5" cy="366.7031" fill="none" rx="3" ry="3" style="stroke:#038048;stroke-width:1.0;"/><text fill="#000000" font-family="sans-serif" font-size="14" lengthAdjust="spacing" textLength="193" x="273.5" y="374.2363">CustomRequestHeaders string</text><line style="stroke:#181818;stroke-width:1.0;" x1="254.5" x2="583.5" y1="381.3125" y2="381.3125"/><ellipse cx="264.5" cy="392.3125" fill="none" rx="3" ry="3" style="stroke:#038048;stroke-width:1.0;"/><text fill="#000000" font-family="sans-serif" font-size="14" lengthAdjust="spacing" textLength="305" x="273.5" y="399.8457">CustomRequestHeadersInd string `gorm:"index"`</text></g><!--MD5=[27abfb56f32eefa7f07c83348fb1ee32]
class GormGenericRepository--><g id="elem_GormGenericRepository"><rect codeLine="5" fill="#F1F1F1" height="48" id="GormGenericRepository" rx="2.5" ry="2.5" style="stroke:#181818;stroke-width:0.5;" width="246" x="774" y="661"/><ellipse cx="789" cy="677" fill="#ADD1B2" rx="11" ry="11" style="stroke:#181818;stroke-width:1.0;"/><path d="M791.7656,672.875 Q791.9219,672.6563 792.1094,672.5469 Q792.2969,672.4375 792.5156,672.4375 Q792.8906,672.4375 793.125,672.7031 Q793.3594,672.9531 793.3594,673.5625 L793.3594,675.0156 Q793.3594,675.625 793.125,675.8906 Q792.8906,676.1563 792.5156,676.1563 Q792.1719,676.1563 791.9688,675.9531 Q791.7656,675.7656 791.6563,675.25 Q791.6094,674.8906 791.4219,674.7031 Q791.0938,674.3281 790.4844,674.1094 Q789.875,673.8906 789.25,673.8906 Q788.4844,673.8906 787.8438,674.2188 Q787.2188,674.5469 786.7188,675.2969 Q786.2344,676.0469 786.2344,677.0781 L786.2344,678.1719 Q786.2344,679.4063 787.125,680.2344 Q788.0156,681.0469 789.6094,681.0469 Q790.5469,681.0469 791.2031,680.7969 Q791.5938,680.6406 792.0156,680.2031 Q792.2813,679.9375 792.4219,679.8594 Q792.5781,679.7813 792.7813,679.7813 Q793.1094,679.7813 793.3594,680.0469 Q793.625,680.2969 793.625,680.6406 Q793.625,680.9844 793.2813,681.3906 Q792.7813,681.9688 791.9844,682.2969 Q790.9063,682.75 789.6094,682.75 Q788.0938,682.75 786.8906,682.125 Q785.9063,681.625 785.2188,680.5625 Q784.5313,679.4844 784.5313,678.2031 L784.5313,677.0469 Q784.5313,675.7188 785.1406,674.5781 Q785.7656,673.4219 786.8594,672.8125 Q787.9531,672.1875 789.1875,672.1875 Q789.9219,672.1875 790.5625,672.3594 Q791.2188,672.5156 791.7656,672.875 Z " fill="#000000"/><text fill="#000000" font-family="sans-serif" font-size="14" lengthAdjust="spacing" textLength="153" x="803" y="682.7285">GormGenericRepository</text><rect fill="#FFFFFF" height="17.0938" style="stroke:#000000;stroke-width:1.0;stroke-dasharray:2.0,2.0;" width="59" x="964" y="658"/><text fill="#000000" font-family="sans-serif" font-size="12" font-style="italic" lengthAdjust="spacing" textLength="57" x="965" y="671.457">EntityType</text><line style="stroke:#181818;stroke-width:0.5;" x1="775" x2="1019" y1="693" y2="693"/><line style="stroke:#181818;stroke-width:0.5;" x1="775" x2="1019" y1="701" y2="701"/></g><!--MD5=[075431472312d0ff3c0c5cf5e989051c]
class HTTPLogRepository--><g id="elem_HTTPLogRepository"><rect codeLine="6" fill="#F1F1F1" height="48" id="HTTPLogRepository" rx="2.5" ry="2.5" style="stroke:#181818;stroke-width:0.5;" width="160" x="817" y="200.5"/><ellipse cx="832" cy="216.5" fill="#ADD1B2" rx="11" ry="11" style="stroke:#181818;stroke-width:1.0;"/><path d="M834.7656,212.375 Q834.9219,212.1563 835.1094,212.0469 Q835.2969,211.9375 835.5156,211.9375 Q835.8906,211.9375 836.125,212.2031 Q836.3594,212.4531 836.3594,213.0625 L836.3594,214.5156 Q836.3594,215.125 836.125,215.3906 Q835.8906,215.6563 835.5156,215.6563 Q835.1719,215.6563 834.9688,215.4531 Q834.7656,215.2656 834.6563,214.75 Q834.6094,214.3906 834.4219,214.2031 Q834.0938,213.8281 833.4844,213.6094 Q832.875,213.3906 832.25,213.3906 Q831.4844,213.3906 830.8438,213.7188 Q830.2188,214.0469 829.7188,214.7969 Q829.2344,215.5469 829.2344,216.5781 L829.2344,217.6719 Q829.2344,218.9063 830.125,219.7344 Q831.0156,220.5469 832.6094,220.5469 Q833.5469,220.5469 834.2031,220.2969 Q834.5938,220.1406 835.0156,219.7031 Q835.2813,219.4375 835.4219,219.3594 Q835.5781,219.2813 835.7813,219.2813 Q836.1094,219.2813 836.3594,219.5469 Q836.625,219.7969 836.625,220.1406 Q836.625,220.4844 836.2813,220.8906 Q835.7813,221.4688 834.9844,221.7969 Q833.9063,222.25 832.6094,222.25 Q831.0938,222.25 829.8906,221.625 Q828.9063,221.125 828.2188,220.0625 Q827.5313,218.9844 827.5313,217.7031 L827.5313,216.5469 Q827.5313,215.2188 828.1406,214.0781 Q828.7656,212.9219 829.8594,212.3125 Q830.9531,211.6875 832.1875,211.6875 Q832.9219,211.6875 833.5625,211.8594 Q834.2188,212.0156 834.7656,212.375 Z " fill="#000000"/><text fill="#000000" font-family="sans-serif" font-size="14" lengthAdjust="spacing" textLength="128" x="846" y="222.2285">HTTPLogRepository</text><line style="stroke:#181818;stroke-width:0.5;" x1="818" x2="976" y1="232.5" y2="232.5"/><line style="stroke:#181818;stroke-width:0.5;" x1="818" x2="976" y1="240.5" y2="240.5"/></g><g id="elem_HTTPLogTypeNote"><path d="M774,521 L774,547.3516 L928,547.3516 L928,531 L918,521 L774,521 " fill="#FEFFDD" style="stroke:#181818;stroke-width:0.5;"/><path d="M918,521 L918,531 L928,531 L918,521 " fill="#FEFFDD" style="stroke:#181818;stroke-width:1.0;"/><text fill="#000000" font-family="sans-serif" font-size="13" lengthAdjust="spacing" textLength="133" x="780" y="539.4951">EntityType is HTTPLog</text></g><!--MD5=[a6c7a0eda5b041e127f539f1664bb96a]
link Entity to IEntityModel--><g id="link_Entity_IEntityModel"><path codeLine="14" d="M317.4,601.16 C271.42,638.44 217.03,688.06 178,741 C146.78,783.34 122.88,838.67 108.1,878.42 " fill="none" id="Entity-to-IEntityModel" style="stroke:#181818;stroke-width:1.0;stroke-dasharray:7.0,7.0;"/><polygon fill="none" points="114.65,880.9,101.31,897.36,101.47,876.17,114.65,880.9" style="stroke:#181818;stroke-width:1.0;"/></g><!--MD5=[d210a1a4967c1bd5004fbe3d33929ee5]
link HTTPLog to Entity--><g id="link_HTTPLog_Entity"><path codeLine="32" d="M411.92,407.04 C411.28,423.27 410.67,439.07 410.1,453.69 " fill="none" id="HTTPLog-to-Entity" style="stroke:#181818;stroke-width:1.0;"/><polygon fill="#181818" points="409.59,466.75,413.8179,460.9083,410.0517,454.7589,405.8238,460.6005,409.59,466.75" style="stroke:#181818;stroke-width:1.0;"/></g><!--MD5=[1b84833638557571905b03f54e842c8c]
link GormGenericRepository to IGenericRepository--><g id="link_GormGenericRepository_IGenericRepository"><path codeLine="7" d="M909.85,709.35 C921.09,729.78 938.41,761.26 956.47,794.08 " fill="none" id="GormGenericRepository-to-IGenericRepository" style="stroke:#181818;stroke-width:1.0;stroke-dasharray:7.0,7.0;"/><polygon fill="none" points="962.74,790.95,966.25,811.84,950.48,797.7,962.74,790.95" style="stroke:#181818;stroke-width:1.0;"/></g><!--MD5=[c7defa9f59dd572153d36ee6790cced2]
link HTTPLogRepository to GormGenericRepository--><g id="link_HTTPLogRepository_GormGenericRepository"><path codeLine="8" d="M907.1,248.85 C932.77,311.72 995.13,488.95 946,625 C942.67,634.21 937.21,643 931.12,650.85 " fill="none" id="HTTPLogRepository-to-GormGenericRepository" style="stroke:#181818;stroke-width:1.0;"/><polygon fill="#181818" points="922.56,660.92,929.4952,658.9445,930.3391,651.7829,923.4038,653.7584,922.56,660.92" style="stroke:#181818;stroke-width:1.0;"/></g><!--MD5=[5dd39dda8c6b27ed858d720353fb65ff]
link HTTPLogRepository to HTTPLogTypeNote--><g id="link_HTTPLogRepository_HTTPLogTypeNote"><path codeLine="12" d="M893.54,248.61 C884.39,309.79 859.76,474.42 852.84,520.73 " fill="none" id="HTTPLogRepository-HTTPLogTypeNote" style="stroke:#181818;stroke-width:1.0;stroke-dasharray:7.0,7.0;"/></g><!--MD5=[cbac7c1086cbe92d9c74639284353031]
link HTTPLogTypeNote to GormGenericRepository--><g id="link_HTTPLogTypeNote_GormGenericRepository"><path codeLine="13" d="M854.76,547.19 C862.04,570.75 878.18,623.05 888.27,655.73 " fill="none" id="HTTPLogTypeNote-to-GormGenericRepository" style="stroke:#181818;stroke-width:1.0;stroke-dasharray:7.0,7.0;"/><polygon fill="#181818" points="889.84,660.8,891.0102,651.0209,888.3666,656.022,883.3654,653.3784,889.84,660.8" style="stroke:#181818;stroke-width:1.0;"/></g><!--MD5=[f952aa9c5e7807a35bc66caa1c801143]
link HTTPLog to HTTPLogTypeNote--><g id="link_HTTPLog_HTTPLogTypeNote"><path codeLine="14" d="M584.79,343.51 C681.39,412.27 792.18,491.13 833.92,520.84 " fill="none" id="HTTPLog-HTTPLogTypeNote" style="stroke:#181818;stroke-width:1.0;stroke-dasharray:7.0,7.0;"/></g><!--MD5=[25a8b82bb1c45da96ba1e99df903c68c]
@startuml

!include ../entities/HTTPLog.puml
!include GormGenericRepository.puml

package infrastructure {
    class HTTPLogRepository

    HTTPLogRepository -down-* GormGenericRepository

    note "EntityType is HTTPLog" as HTTPLogTypeNote

    HTTPLogRepository .down. HTTPLogTypeNote
    GormGenericRepository <.up. HTTPLogTypeNote
    HTTPLog .. HTTPLogTypeNote
}

@enduml

@startuml




package app {
    interface IEntityModel {
        +GetID() uuid.UUID
    }
}


package domain {
    class Entity {
        +ID uuid.UUID `gorm:"primarykey"`
        - -
        +CreatedAt time.Time `gorm:"index"`
        - -
        +UpdatedAt time.Time `gorm:"index"`
        - -
        +DeletedAt gorm.DeletedAt `gorm:"index"`
    }
    Entity .down.|> IEntityModel
}


package domain {
    class HTTPLog {
        +HTTPMethod string
        - -
        +Domain string
        - -
        +RelativePath string `gorm:"index"`
        - -
        +QueryParams string
        - -
        +QueryParamsInd string `gorm:"index"`
        - -
        +ClientIP string `gorm:"index"`
        - -
        +Latency int
        - -
        +RequestBody string
        - -
        +ResponseBody string
        - -
        +RequestHeaders string
        - -
        +ResponseHeaders string
        - -
        +CustomRequestHeaders string
        - -
        +CustomRequestHeadersInd string `gorm:"index"`
    }
    HTTPLog -down-* Entity
}



package app {
    interface IGenericRepository<EntityType> {
        +GetList(ctx context.Context, orderBy string, orderDirection string, page int, size int, queryBuilder interfaces.IQueryBuilder) ([]EntityType, error)
        - -
        +Count(ctx context.Context, queryBuilder interfaces.IQueryBuilder) (int64, error)
        - -
        +NewQueryBuilder(ctx context.Context) interfaces.IQueryBuilder
        - -
        +GetById(ctx context.Context, id uuid.UUID) (EntityType, error)
        - -
        +Update(ctx context.Context, entity EntityType) (EntityType, error)
        - -
        +Insert(ctx context.Context, entity EntityType) (EntityType, error)
        - -
        +Delete(ctx context.Context, id uuid.UUID) error
        - -
        +CloseDb() error
    }
    note left of IGenericRepository::GetList
      Get list of elements with filtering and pagination
    end note

    note left of IGenericRepository::Count
      Get count of entities with filtering
    end note

    note left of IGenericRepository::NewQueryBuilder
      Get new instance of the query builder
    end note

    note left of IGenericRepository::GetById
      Get entity by ID from repository
    end note

    note left of IGenericRepository::Update
      Save the changes to the existing entity in the repository
    end note

    note left of IGenericRepository::Insert
      Add entity to the repository
    end note

    note left of IGenericRepository::Delete
      Delete entity from the database
    end note

    note left of IGenericRepository::CloseDb
      Closes current database connection
    end note
}


package infrastructure {
    class GormGenericRepository<EntityType>

    GormGenericRepository .down.|> IGenericRepository
}


package infrastructure {
    class HTTPLogRepository

    HTTPLogRepository -down-* GormGenericRepository

    note "EntityType is HTTPLog" as HTTPLogTypeNote

    HTTPLogRepository .down. HTTPLogTypeNote
    GormGenericRepository <.up. HTTPLogTypeNote
    HTTPLog .. HTTPLogTypeNote
}

@enduml

PlantUML version 1.2022.6(Tue Jun 21 20:34:49 MSK 2022)
(GPL source distribution)
Java Runtime: OpenJDK Runtime Environment
JVM: OpenJDK 64-Bit Server VM
Default Encoding: Cp1251
Language: ru
Country: RU
--></g></svg>