<?xml version="1.0" encoding="UTF-8" standalone="no"?><svg xmlns="http://www.w3.org/2000/svg" xmlns:xlink="http://www.w3.org/1999/xlink" contentStyleType="text/css" height="193px" preserveAspectRatio="none" style="width:257px;height:193px;background:#FFFFFF;" version="1.1" viewBox="0 0 257 193" width="257px" zoomAndPan="magnify"><defs/><g><!--MD5=[d5ac3844f66b12d9e08170e47495e096]
cluster app--><g id="cluster_app"><path d="M8.5,6 L38.5,6 A3.75,3.75 0 0 1 41,8.5 L48,28.2969 L247.5,28.2969 A2.5,2.5 0 0 1 250,30.7969 L250,183.5 A2.5,2.5 0 0 1 247.5,186 L8.5,186 A2.5,2.5 0 0 1 6,183.5 L6,8.5 A2.5,2.5 0 0 1 8.5,6 " style="stroke:#000000;stroke-width:1.5;fill:none;"/><line style="stroke:#000000;stroke-width:1.5;fill:none;" x1="6" x2="48" y1="28.2969" y2="28.2969"/><text fill="#000000" font-family="sans-serif" font-size="14" font-weight="bold" lengthAdjust="spacing" textLength="29" x="10" y="20.9951">app</text></g><!--MD5=[2a39a5be1cc24ddddd6e6286e4ece992]
class IEntityModel--><g id="elem_IEntityModel"><rect codeLine="3" fill="#F1F1F1" height="129.1875" id="IEntityModel" rx="2.5" ry="2.5" style="stroke:#181818;stroke-width:0.5;" width="213" x="21.5" y="41"/><ellipse cx="58.55" cy="57" fill="#B4A7E5" rx="11" ry="11" style="stroke:#181818;stroke-width:1.0;"/><path d="M54.4719,52.7656 L54.4719,50.6094 L61.8625,50.6094 L61.8625,52.7656 L59.3938,52.7656 L59.3938,60.8438 L61.8625,60.8438 L61.8625,63 L54.4719,63 L54.4719,60.8438 L56.9406,60.8438 L56.9406,52.7656 L54.4719,52.7656 Z " fill="#000000"/><text fill="#000000" font-family="sans-serif" font-size="14" font-style="italic" lengthAdjust="spacing" textLength="85" x="77.45" y="61.8467">IEntityModel</text><rect fill="#FFFFFF" height="15.9688" style="stroke:#000000;stroke-width:1.0;stroke-dasharray:2.0,2.0;" width="45" x="192.5" y="38"/><text fill="#000000" font-family="sans-serif" font-size="12" font-style="italic" lengthAdjust="spacing" textLength="43" x="193.5" y="50.1387">IDType</text><line style="stroke:#181818;stroke-width:0.5;" x1="22.5" x2="233.5" y1="73" y2="73"/><ellipse cx="32.5" cy="84" fill="#84BE84" rx="3" ry="3" style="stroke:#038048;stroke-width:1.0;"/><text fill="#000000" font-family="sans-serif" font-size="14" lengthAdjust="spacing" textLength="101" x="41.5" y="89.9951">GetID() IDType</text><line style="stroke:#181818;stroke-width:1.0;" x1="22.5" x2="233.5" y1="97.2969" y2="97.2969"/><ellipse cx="32.5" cy="108.2969" fill="#84BE84" rx="3" ry="3" style="stroke:#038048;stroke-width:1.0;"/><text fill="#000000" font-family="sans-serif" font-size="14" lengthAdjust="spacing" textLength="176" x="41.5" y="114.292">GetCreatedAt() time.Time</text><line style="stroke:#181818;stroke-width:1.0;" x1="22.5" x2="233.5" y1="121.5938" y2="121.5938"/><ellipse cx="32.5" cy="132.5938" fill="#84BE84" rx="3" ry="3" style="stroke:#038048;stroke-width:1.0;"/><text fill="#000000" font-family="sans-serif" font-size="14" lengthAdjust="spacing" textLength="187" x="41.5" y="138.5889">GetUpdatedAt() *time.Time</text><line style="stroke:#181818;stroke-width:1.0;" x1="22.5" x2="233.5" y1="145.8906" y2="145.8906"/><ellipse cx="32.5" cy="156.8906" fill="#84BE84" rx="3" ry="3" style="stroke:#038048;stroke-width:1.0;"/><text fill="#000000" font-family="sans-serif" font-size="14" lengthAdjust="spacing" textLength="183" x="41.5" y="162.8857">GetDeletedAt() *time.Time</text></g><!--MD5=[876f50667ec06f1740611c4e2a45f1f3]
@startuml IEntityModel

package app {
    interface IEntityModel<IDType> {
        +GetID() IDType
        - -
        +GetCreatedAt() time.Time
        - -
        +GetUpdatedAt() *time.Time
        - -
        +GetDeletedAt() *time.Time
    }
}

@enduml

PlantUML version 1.2022.6(Tue Jun 21 17:34:49 EGST 2022)
(GPL source distribution)
Java Runtime: OpenJDK Runtime Environment
JVM: OpenJDK 64-Bit Server VM
Default Encoding: UTF-8
Language: en
Country: US
--></g></svg>