<?xml version="1.0" encoding="UTF-8" standalone="no"?><svg xmlns="http://www.w3.org/2000/svg" xmlns:xlink="http://www.w3.org/1999/xlink" contentStyleType="text/css" height="78px" preserveAspectRatio="none" style="width:588px;height:78px;background:#FFFFFF;" version="1.1" viewBox="0 0 588 78" width="588px" zoomAndPan="magnify"><defs/><g><!--MD5=[01906ac0e62f22b4e38e996248db568e]
class IEntityModelDeletedAt--><g id="elem_IEntityModelDeletedAt"><rect codeLine="1" fill="#F1F1F1" height="64.2969" id="IEntityModelDeletedAt" rx="2.5" ry="2.5" style="stroke:#181818;stroke-width:0.5;" width="187" x="394.5" y="7"/><ellipse cx="409.5" cy="23" fill="#B4A7E5" rx="11" ry="11" style="stroke:#181818;stroke-width:1.0;"/><path d="M405.4219,18.7656 L405.4219,16.6094 L412.8125,16.6094 L412.8125,18.7656 L410.3438,18.7656 L410.3438,26.8438 L412.8125,26.8438 L412.8125,29 L405.4219,29 L405.4219,26.8438 L407.8906,26.8438 L407.8906,18.7656 L405.4219,18.7656 Z " fill="#000000"/><text fill="#000000" font-family="sans-serif" font-size="14" font-style="italic" lengthAdjust="spacing" textLength="155" x="423.5" y="27.8467">IEntityModelDeletedAt</text><line style="stroke:#181818;stroke-width:0.5;" x1="395.5" x2="580.5" y1="39" y2="39"/><line style="stroke:#181818;stroke-width:0.5;" x1="395.5" x2="580.5" y1="47" y2="47"/><text fill="#000000" font-family="sans-serif" font-size="14" lengthAdjust="spacing" textLength="88" x="400.5" y="63.9951">SetDeleted()</text></g><path d="M6,14 L6,54.2656 A0,0 0 0 0 6,54.2656 L360,54.2656 A0,0 0 0 0 360,54.2656 L360,38.1328 L398.5,59.1484 L360,30.1328 L360,24 L350,14 L6,14 A0,0 0 0 0 6,14 " fill="#FEFFDD" style="stroke:#181818;stroke-width:0.5;"/><path d="M350,14 L350,24 L360,24 L350,14 " fill="#FEFFDD" style="stroke:#181818;stroke-width:0.5;"/><text fill="#000000" font-family="sans-serif" font-size="13" lengthAdjust="spacing" textLength="110" x="12" y="31.0669">Set deletion time</text><text fill="#000000" font-family="sans-serif" font-size="13" lengthAdjust="spacing" textLength="333" x="12" y="46.1997">This method marks that the entity has been deleted</text><!--MD5=[41428d2657b4e6c3f7149e2f0b6f08da]
@startuml IEntityModelDeletedAt
interface IEntityModelDeletedAt {
    SetDeleted()
}
note left of IEntityModelDeletedAt::SetDeleted
    Set deletion time
    This method marks that the entity has been deleted
end note
@enduml

PlantUML version 1.2022.4(Sat Apr 09 13:29:17 UTC 2022)
(GPL source distribution)
Java Runtime: OpenJDK Runtime Environment
JVM: OpenJDK 64-Bit Server VM
Default Encoding: UTF-8
Language: en
Country: null
--></g></svg>