<?xml version="1.0" encoding="UTF-8" standalone="no"?><svg xmlns="http://www.w3.org/2000/svg" xmlns:xlink="http://www.w3.org/1999/xlink" contentStyleType="text/css" height="131px" preserveAspectRatio="none" style="width:183px;height:131px;background:#FFFFFF;" version="1.1" viewBox="0 0 183 131" width="183px" zoomAndPan="magnify"><defs/><g><!--MD5=[d5ac3844f66b12d9e08170e47495e096]
cluster app--><g id="cluster_app"><path d="M8.5,6 L35.5,6 A3.75,3.75 0 0 1 38,8.5 L45,29.6094 L173.5,29.6094 A2.5,2.5 0 0 1 176,32.1094 L176,121.5 A2.5,2.5 0 0 1 173.5,124 L8.5,124 A2.5,2.5 0 0 1 6,121.5 L6,8.5 A2.5,2.5 0 0 1 8.5,6 " style="stroke:#000000;stroke-width:1.5;fill:none;"/><line style="stroke:#000000;stroke-width:1.5;fill:none;" x1="6" x2="45" y1="29.6094" y2="29.6094"/><text fill="#000000" font-family="sans-serif" font-size="14" font-weight="bold" lengthAdjust="spacing" textLength="26" x="10" y="22.5332">app</text></g><!--MD5=[2a39a5be1cc24ddddd6e6286e4ece992]
class IEntityModel--><g id="elem_IEntityModel"><rect codeLine="3" fill="#F1F1F1" height="65.6094" id="IEntityModel" rx="2.5" ry="2.5" style="stroke:#181818;stroke-width:0.5;" width="138" x="22" y="42"/><ellipse cx="49.6" cy="58" fill="#B4A7E5" rx="11" ry="11" style="stroke:#181818;stroke-width:1.0;"/><path d="M50.5531,54.6406 L50.5531,61.2969 L52.2719,61.2969 Q52.8813,61.2969 53.1469,61.5313 Q53.4125,61.7656 53.4125,62.1563 Q53.4125,62.5313 53.1469,62.7656 Q52.8813,63 52.2719,63 L47.1313,63 Q46.5219,63 46.2563,62.7656 Q45.9906,62.5313 45.9906,62.1406 Q45.9906,61.7656 46.2563,61.5313 Q46.5219,61.2969 47.1313,61.2969 L48.85,61.2969 L48.85,54.6406 L47.1313,54.6406 Q46.5219,54.6406 46.2563,54.4063 Q45.9906,54.1719 45.9906,53.7813 Q45.9906,53.4063 46.2563,53.1719 Q46.5219,52.9375 47.1313,52.9375 L52.2719,52.9375 Q52.8813,52.9375 53.1469,53.1719 Q53.4125,53.4063 53.4125,53.7813 Q53.4125,54.1719 53.1469,54.4063 Q52.8813,54.6406 52.2719,54.6406 L50.5531,54.6406 Z " fill="#000000"/><text fill="#000000" font-family="sans-serif" font-size="14" font-style="italic" lengthAdjust="spacing" textLength="78" x="66.4" y="63.7285">IEntityModel</text><line style="stroke:#181818;stroke-width:0.5;" x1="23" x2="159" y1="74" y2="74"/><line style="stroke:#181818;stroke-width:0.5;" x1="23" x2="159" y1="82" y2="82"/><ellipse cx="33" cy="93" fill="#84BE84" rx="3" ry="3" style="stroke:#038048;stroke-width:1.0;"/><text fill="#000000" font-family="sans-serif" font-size="14" lengthAdjust="spacing" textLength="112" x="42" y="100.5332">GetID() uuid.UUID</text></g><!--MD5=[bd8c15a53683698470c9b8b63d45fdbd]
@startuml IEntityModel

package app {
    interface IEntityModel {
        +GetID() uuid.UUID
    }
}

@enduml

PlantUML version 1.2022.6(Tue Jun 21 20:34:49 MSK 2022)
(GPL source distribution)
Java Runtime: OpenJDK Runtime Environment
JVM: OpenJDK 64-Bit Server VM
Default Encoding: Cp1251
Language: ru
Country: RU
--></g></svg>