<?xml version="1.0" encoding="UTF-8" standalone="no"?><svg xmlns="http://www.w3.org/2000/svg" xmlns:xlink="http://www.w3.org/1999/xlink" contentStyleType="text/css" height="234px" preserveAspectRatio="none" style="width:365px;height:234px;background:#FFFFFF;" version="1.1" viewBox="0 0 365 234" width="365px" zoomAndPan="magnify"><defs/><g><!--MD5=[d5ac3844f66b12d9e08170e47495e096]
cluster app--><g id="cluster_app"><path d="M8.5,6 L35.5,6 A3.75,3.75 0 0 1 38,8.5 L45,29.6094 L355.5,29.6094 A2.5,2.5 0 0 1 358,32.1094 L358,224.5 A2.5,2.5 0 0 1 355.5,227 L8.5,227 A2.5,2.5 0 0 1 6,224.5 L6,8.5 A2.5,2.5 0 0 1 8.5,6 " style="stroke:#000000;stroke-width:1.5;fill:none;"/><line style="stroke:#000000;stroke-width:1.5;fill:none;" x1="6" x2="45" y1="29.6094" y2="29.6094"/><text fill="#000000" font-family="sans-serif" font-size="14" font-weight="bold" lengthAdjust="spacing" textLength="26" x="10" y="22.5332">app</text></g><!--MD5=[01906ac0e62f22b4e38e996248db568e]
class IEntityModelDeletedAt--><g id="elem_IEntityModelDeletedAt"><rect codeLine="3" fill="#F1F1F1" height="65.6094" id="IEntityModelDeletedAt" rx="2.5" ry="2.5" style="stroke:#181818;stroke-width:0.5;" width="172" x="96" y="42"/><ellipse cx="111" cy="58" fill="#B4A7E5" rx="11" ry="11" style="stroke:#181818;stroke-width:1.0;"/><path d="M111.9531,54.6406 L111.9531,61.2969 L113.6719,61.2969 Q114.2813,61.2969 114.5469,61.5313 Q114.8125,61.7656 114.8125,62.1563 Q114.8125,62.5313 114.5469,62.7656 Q114.2813,63 113.6719,63 L108.5313,63 Q107.9219,63 107.6563,62.7656 Q107.3906,62.5313 107.3906,62.1406 Q107.3906,61.7656 107.6563,61.5313 Q107.9219,61.2969 108.5313,61.2969 L110.25,61.2969 L110.25,54.6406 L108.5313,54.6406 Q107.9219,54.6406 107.6563,54.4063 Q107.3906,54.1719 107.3906,53.7813 Q107.3906,53.4063 107.6563,53.1719 Q107.9219,52.9375 108.5313,52.9375 L113.6719,52.9375 Q114.2813,52.9375 114.5469,53.1719 Q114.8125,53.4063 114.8125,53.7813 Q114.8125,54.1719 114.5469,54.4063 Q114.2813,54.6406 113.6719,54.6406 L111.9531,54.6406 Z " fill="#000000"/><text fill="#000000" font-family="sans-serif" font-size="14" font-style="italic" lengthAdjust="spacing" textLength="140" x="125" y="63.7285">IEntityModelDeletedAt</text><line style="stroke:#181818;stroke-width:0.5;" x1="97" x2="267" y1="74" y2="74"/><line style="stroke:#181818;stroke-width:0.5;" x1="97" x2="267" y1="82" y2="82"/><ellipse cx="107" cy="93" fill="#84BE84" rx="3" ry="3" style="stroke:#038048;stroke-width:1.0;"/><text fill="#000000" font-family="sans-serif" font-size="14" lengthAdjust="spacing" textLength="80" x="116" y="100.5332">SetDeleted()</text></g><g id="elem_GMN340"><path d="M22.5,168 L22.5,210.7031 A0,0 0 0 0 22.5,210.7031 L341.5,210.7031 A0,0 0 0 0 341.5,210.7031 L341.5,178 L331.5,168 L186,168 L182,108.24 L178,168 L22.5,168 A0,0 0 0 0 22.5,168 " fill="#FEFFDD" style="stroke:#181818;stroke-width:0.5;"/><path d="M331.5,168 L331.5,178 L341.5,178 L331.5,168 " fill="#FEFFDD" style="stroke:#181818;stroke-width:0.5;"/><text fill="#000000" font-family="sans-serif" font-size="13" lengthAdjust="spacing" textLength="98" x="28.5" y="186.4951">Set deletion time</text><text fill="#000000" font-family="sans-serif" font-size="13" lengthAdjust="spacing" textLength="298" x="28.5" y="202.8467">This method marks that the entity has been deleted</text></g><!--MD5=[3b8ecf685e1d4d41b506573cec53f563]
@startuml IEntityModelDeletedAt

package app {
    interface IEntityModelDeletedAt {
        +SetDeleted()
    }
    note bottom of IEntityModelDeletedAt
        Set deletion time
        This method marks that the entity has been deleted
    end note
}

@enduml

PlantUML version 1.2022.6(Tue Jun 21 20:34:49 MSK 2022)
(GPL source distribution)
Java Runtime: OpenJDK Runtime Environment
JVM: OpenJDK 64-Bit Server VM
Default Encoding: Cp1251
Language: ru
Country: RU
--></g></svg>