<?xml version="1.0" encoding="UTF-8" standalone="no"?><svg xmlns="http://www.w3.org/2000/svg" xmlns:xlink="http://www.w3.org/1999/xlink" contentStyleType="text/css" height="131px" preserveAspectRatio="none" style="width:617px;height:131px;background:#FFFFFF;" version="1.1" viewBox="0 0 617 131" width="617px" zoomAndPan="magnify"><defs/><g><!--MD5=[d5ac3844f66b12d9e08170e47495e096]
cluster app--><g id="cluster_app"><path d="M8.5,6 L35.5,6 A3.75,3.75 0 0 1 38,8.5 L45,29.6094 L607.5,29.6094 A2.5,2.5 0 0 1 610,32.1094 L610,121.5 A2.5,2.5 0 0 1 607.5,124 L8.5,124 A2.5,2.5 0 0 1 6,121.5 L6,8.5 A2.5,2.5 0 0 1 8.5,6 " style="stroke:#000000;stroke-width:1.5;fill:none;"/><line style="stroke:#000000;stroke-width:1.5;fill:none;" x1="6" x2="45" y1="29.6094" y2="29.6094"/><text fill="#000000" font-family="sans-serif" font-size="14" font-weight="bold" lengthAdjust="spacing" textLength="26" x="10" y="22.5332">app</text></g><!--MD5=[968613a8ad857a82661658a6e393a5cd]
class IEthernetSwitchManagerProvider--><g id="elem_IEthernetSwitchManagerProvider"><rect codeLine="3" fill="#F1F1F1" height="65.6094" id="IEthernetSwitchManagerProvider" rx="2.5" ry="2.5" style="stroke:#181818;stroke-width:0.5;" width="572" x="22" y="42"/><ellipse cx="200.25" cy="58" fill="#B4A7E5" rx="11" ry="11" style="stroke:#181818;stroke-width:1.0;"/><path d="M201.2031,54.6406 L201.2031,61.2969 L202.9219,61.2969 Q203.5313,61.2969 203.7969,61.5313 Q204.0625,61.7656 204.0625,62.1563 Q204.0625,62.5313 203.7969,62.7656 Q203.5313,63 202.9219,63 L197.7813,63 Q197.1719,63 196.9063,62.7656 Q196.6406,62.5313 196.6406,62.1406 Q196.6406,61.7656 196.9063,61.5313 Q197.1719,61.2969 197.7813,61.2969 L199.5,61.2969 L199.5,54.6406 L197.7813,54.6406 Q197.1719,54.6406 196.9063,54.4063 Q196.6406,54.1719 196.6406,53.7813 Q196.6406,53.4063 196.9063,53.1719 Q197.1719,52.9375 197.7813,52.9375 L202.9219,52.9375 Q203.5313,52.9375 203.7969,53.1719 Q204.0625,53.4063 204.0625,53.7813 Q204.0625,54.1719 203.7969,54.4063 Q203.5313,54.6406 202.9219,54.6406 L201.2031,54.6406 Z " fill="#000000"/><text fill="#000000" font-family="sans-serif" font-size="14" font-style="italic" lengthAdjust="spacing" textLength="207" x="220.75" y="63.7285">IEthernetSwitchManagerProvider</text><line style="stroke:#181818;stroke-width:0.5;" x1="23" x2="593" y1="74" y2="74"/><line style="stroke:#181818;stroke-width:0.5;" x1="23" x2="593" y1="82" y2="82"/><ellipse cx="33" cy="93" fill="#84BE84" rx="3" ry="3" style="stroke:#038048;stroke-width:1.0;"/><text fill="#000000" font-family="sans-serif" font-size="14" lengthAdjust="spacing" textLength="546" x="42" y="100.5332">Get(ctx context.Context, switchId uuid.UUID) (interfaces.IEthernetSwitchManager, error)</text></g><!--MD5=[967989beff264b25425747961252b2cd]
@startuml

package app {
    interface IEthernetSwitchManagerProvider {
        +Get(ctx context.Context, switchId uuid.UUID) (interfaces.IEthernetSwitchManager, error)
    }
}
@enduml

PlantUML version 1.2022.6(Tue Jun 21 20:34:49 MSK 2022)
(GPL source distribution)
Java Runtime: OpenJDK Runtime Environment
JVM: OpenJDK 64-Bit Server VM
Default Encoding: Cp1251
Language: ru
Country: RU
--></g></svg>