<?xml version="1.0" encoding="UTF-8" standalone="no"?><svg xmlns="http://www.w3.org/2000/svg" xmlns:xlink="http://www.w3.org/1999/xlink" contentStyleType="text/css" height="247px" preserveAspectRatio="none" style="width:1236px;height:247px;background:#FFFFFF;" version="1.1" viewBox="0 0 1236 247" width="1236px" zoomAndPan="magnify"><defs/><g><!--MD5=[d5ac3844f66b12d9e08170e47495e096]
cluster app--><g id="cluster_app"><path d="M8.5,6 L35.5,6 A3.75,3.75 0 0 1 38,8.5 L45,29.6094 L1226.5,29.6094 A2.5,2.5 0 0 1 1229,32.1094 L1229,237.5 A2.5,2.5 0 0 1 1226.5,240 L8.5,240 A2.5,2.5 0 0 1 6,237.5 L6,8.5 A2.5,2.5 0 0 1 8.5,6 " style="stroke:#000000;stroke-width:1.5;fill:none;"/><line style="stroke:#000000;stroke-width:1.5;fill:none;" x1="6" x2="45" y1="29.6094" y2="29.6094"/><text fill="#000000" font-family="sans-serif" font-size="14" font-weight="bold" lengthAdjust="spacing" textLength="26" x="10" y="22.5332">app</text></g><!--MD5=[7c0ed5f9a527ab221a5373ebedcc681c]
class IGenericService--><g id="elem_IGenericService"><rect codeLine="3" fill="#F1F1F1" height="160.0469" id="IGenericService" rx="2.5" ry="2.5" style="stroke:#181818;stroke-width:0.5;" width="829" x="383.5" y="53"/><ellipse cx="596.75" cy="69" fill="#B4A7E5" rx="11" ry="11" style="stroke:#181818;stroke-width:1.0;"/><path d="M597.7031,65.6406 L597.7031,72.2969 L599.4219,72.2969 Q600.0313,72.2969 600.2969,72.5313 Q600.5625,72.7656 600.5625,73.1563 Q600.5625,73.5313 600.2969,73.7656 Q600.0313,74 599.4219,74 L594.2813,74 Q593.6719,74 593.4063,73.7656 Q593.1406,73.5313 593.1406,73.1406 Q593.1406,72.7656 593.4063,72.5313 Q593.6719,72.2969 594.2813,72.2969 L596,72.2969 L596,65.6406 L594.2813,65.6406 Q593.6719,65.6406 593.4063,65.4063 Q593.1406,65.1719 593.1406,64.7813 Q593.1406,64.4063 593.4063,64.1719 Q593.6719,63.9375 594.2813,63.9375 L599.4219,63.9375 Q600.0313,63.9375 600.2969,64.1719 Q600.5625,64.4063 600.5625,64.7813 Q600.5625,65.1719 600.2969,65.4063 Q600.0313,65.6406 599.4219,65.6406 L597.7031,65.6406 Z " fill="#000000"/><text fill="#000000" font-family="sans-serif" font-size="14" font-style="italic" lengthAdjust="spacing" textLength="100" x="617.25" y="74.7285">IGenericService</text><rect fill="#FFFFFF" height="17.0938" style="stroke:#000000;stroke-width:1.0;stroke-dasharray:2.0,2.0;" width="292" x="923.5" y="50"/><text fill="#000000" font-family="sans-serif" font-size="12" font-style="italic" lengthAdjust="spacing" textLength="290" x="924.5" y="63.457">EntityType, CreateDtoType, UpdateDtoType, DtoType</text><line style="stroke:#181818;stroke-width:0.5;" x1="384.5" x2="1211.5" y1="85" y2="85"/><ellipse cx="394.5" cy="96" fill="#84BE84" rx="3" ry="3" style="stroke:#038048;stroke-width:1.0;"/><text fill="#000000" font-family="sans-serif" font-size="14" lengthAdjust="spacing" textLength="803" x="403.5" y="103.5332">GetList(ctx context.Context, search, orderBy, orderDirection string, page, pageSize int) (*dtos.PaginatedListDto[DtoType], error)</text><line style="stroke:#181818;stroke-width:1.0;" x1="384.5" x2="1211.5" y1="110.6094" y2="110.6094"/><ellipse cx="394.5" cy="121.6094" fill="#84BE84" rx="3" ry="3" style="stroke:#038048;stroke-width:1.0;"/><text fill="#000000" font-family="sans-serif" font-size="14" lengthAdjust="spacing" textLength="375" x="403.5" y="129.1426">GetById(ctx context.Context, id uuid.UUID) (*DtoType, error)</text><line style="stroke:#181818;stroke-width:1.0;" x1="384.5" x2="1211.5" y1="136.2188" y2="136.2188"/><ellipse cx="394.5" cy="147.2188" fill="#84BE84" rx="3" ry="3" style="stroke:#038048;stroke-width:1.0;"/><text fill="#000000" font-family="sans-serif" font-size="14" lengthAdjust="spacing" textLength="470" x="403.5" y="154.752">Update(ctx context.Context, updateDto UpdateDtoType, id uuid.UUID) error</text><line style="stroke:#181818;stroke-width:1.0;" x1="384.5" x2="1211.5" y1="161.8281" y2="161.8281"/><ellipse cx="394.5" cy="172.8281" fill="#84BE84" rx="3" ry="3" style="stroke:#038048;stroke-width:1.0;"/><text fill="#000000" font-family="sans-serif" font-size="14" lengthAdjust="spacing" textLength="457" x="403.5" y="180.3613">Create(ctx context.Context, createDto CreateDtoType) (uuid.UUID, error)</text><line style="stroke:#181818;stroke-width:1.0;" x1="384.5" x2="1211.5" y1="187.4375" y2="187.4375"/><ellipse cx="394.5" cy="198.4375" fill="#84BE84" rx="3" ry="3" style="stroke:#038048;stroke-width:1.0;"/><text fill="#000000" font-family="sans-serif" font-size="14" lengthAdjust="spacing" textLength="289" x="403.5" y="205.9707">Delete(ctx context.Context, id uuid.UUID) error</text></g><path d="M22,42 L22,68.3516 A0,0 0 0 0 22,68.3516 L314,68.3516 A0,0 0 0 0 314,68.3516 L314,60 L387.5,97.8047 L314,52 L314,52 L304,42 L22,42 A0,0 0 0 0 22,42 " fill="#FEFFDD" style="stroke:#181818;stroke-width:0.5;"/><path d="M304,42 L304,52 L314,52 L304,42 " fill="#FEFFDD" style="stroke:#181818;stroke-width:0.5;"/><text fill="#000000" font-family="sans-serif" font-size="13" lengthAdjust="spacing" textLength="271" x="28" y="60.4951">Get list of elements with search and pagination</text><path d="M22,78.3516 L22,104.7031 A0,0 0 0 0 22,104.7031 L207,104.7031 A0,0 0 0 0 207,104.7031 L207,96.3516 L387.5,123.4141 L207,88.3516 L207,88.3516 L197,78.3516 L22,78.3516 A0,0 0 0 0 22,78.3516 " fill="#FEFFDD" style="stroke:#181818;stroke-width:0.5;"/><path d="M197,78.3516 L197,88.3516 L207,88.3516 L197,78.3516 " fill="#FEFFDD" style="stroke:#181818;stroke-width:0.5;"/><text fill="#000000" font-family="sans-serif" font-size="13" lengthAdjust="spacing" textLength="164" x="28" y="96.8467">Get entity by ID from service</text><path d="M22,114.7031 L22,141.0547 A0,0 0 0 0 22,141.0547 L348,141.0547 A0,0 0 0 0 348,141.0547 L348,132.7031 L387.5,149.0234 L348,124.7031 L348,124.7031 L338,114.7031 L22,114.7031 A0,0 0 0 0 22,114.7031 " fill="#FEFFDD" style="stroke:#181818;stroke-width:0.5;"/><path d="M338,114.7031 L338,124.7031 L348,124.7031 L338,114.7031 " fill="#FEFFDD" style="stroke:#181818;stroke-width:0.5;"/><text fill="#000000" font-family="sans-serif" font-size="13" lengthAdjust="spacing" textLength="305" x="28" y="133.1982">Save the changes to the existing entity in the service</text><path d="M22,151.0547 L22,177.4063 A0,0 0 0 0 22,177.4063 L183,177.4063 A0,0 0 0 0 183,177.4063 L183,169.0547 L387.5,174.6328 L183,161.0547 L183,161.0547 L173,151.0547 L22,151.0547 A0,0 0 0 0 22,151.0547 " fill="#FEFFDD" style="stroke:#181818;stroke-width:0.5;"/><path d="M173,151.0547 L173,161.0547 L183,161.0547 L173,151.0547 " fill="#FEFFDD" style="stroke:#181818;stroke-width:0.5;"/><text fill="#000000" font-family="sans-serif" font-size="13" lengthAdjust="spacing" textLength="140" x="28" y="169.5498">Add entity to the service</text><path d="M22,187.4063 L22,213.7578 A0,0 0 0 0 22,213.7578 L190,213.7578 A0,0 0 0 0 190,213.7578 L190,205.4063 L387.5,200.2422 L190,197.4063 L190,197.4063 L180,187.4063 L22,187.4063 A0,0 0 0 0 22,187.4063 " fill="#FEFFDD" style="stroke:#181818;stroke-width:0.5;"/><path d="M180,187.4063 L180,197.4063 L190,197.4063 L180,187.4063 " fill="#FEFFDD" style="stroke:#181818;stroke-width:0.5;"/><text fill="#000000" font-family="sans-serif" font-size="13" lengthAdjust="spacing" textLength="147" x="28" y="205.9014">Mark an entity as deleted</text><!--MD5=[36ae6c3b2ec6b206bc9f7d6fc8a89716]
@startuml IGenericService

package app {
    interface IGenericService<EntityType, CreateDtoType, UpdateDtoType, DtoType> {
        +GetList(ctx context.Context, search, orderBy, orderDirection string, page, pageSize int) (*dtos.PaginatedListDto[DtoType], error)
        - -
        +GetById(ctx context.Context, id uuid.UUID) (*DtoType, error)
        - -
        +Update(ctx context.Context, updateDto UpdateDtoType, id uuid.UUID) error
        - -
        +Create(ctx context.Context, createDto CreateDtoType) (uuid.UUID, error)
        - -
        +Delete(ctx context.Context, id uuid.UUID) error
    }
    note left of IGenericService::GetList
        Get list of elements with search and pagination
    end note

    note left of IGenericService::GetById
        Get entity by ID from service
    end note

    note left of IGenericService::Update
        Save the changes to the existing entity in the service
    end note

    note left of IGenericService::Create
        Add entity to the service
    end note

    note left of IGenericService::Delete
        Mark an entity as deleted
    end note
}

@enduml

PlantUML version 1.2022.6(Tue Jun 21 20:34:49 MSK 2022)
(GPL source distribution)
Java Runtime: OpenJDK Runtime Environment
JVM: OpenJDK 64-Bit Server VM
Default Encoding: Cp1251
Language: ru
Country: RU
--></g></svg>