<?xml version="1.0" encoding="UTF-8" standalone="no"?><svg xmlns="http://www.w3.org/2000/svg" xmlns:xlink="http://www.w3.org/1999/xlink" contentStyleType="text/css" height="199px" preserveAspectRatio="none" style="width:989px;height:199px;background:#FFFFFF;" version="1.1" viewBox="0 0 989 199" width="989px" zoomAndPan="magnify"><defs/><g><!--MD5=[d5ac3844f66b12d9e08170e47495e096]
cluster app--><g id="cluster_app"><path d="M8.5,6 L35.5,6 A3.75,3.75 0 0 1 38,8.5 L45,29.6094 L979.5,29.6094 A2.5,2.5 0 0 1 982,32.1094 L982,189.5 A2.5,2.5 0 0 1 979.5,192 L8.5,192 A2.5,2.5 0 0 1 6,189.5 L6,8.5 A2.5,2.5 0 0 1 8.5,6 " style="stroke:#000000;stroke-width:1.5;fill:none;"/><line style="stroke:#000000;stroke-width:1.5;fill:none;" x1="6" x2="45" y1="29.6094" y2="29.6094"/><text fill="#000000" font-family="sans-serif" font-size="14" font-weight="bold" lengthAdjust="spacing" textLength="26" x="10" y="22.5332">app</text></g><!--MD5=[3beb778f651b40286c3d75d0060d5ff1]
class IGenericTemplateStorage--><g id="elem_IGenericTemplateStorage"><rect codeLine="3" fill="#F1F1F1" height="134.4375" id="IGenericTemplateStorage" rx="2.5" ry="2.5" style="stroke:#181818;stroke-width:0.5;" width="944" x="22" y="42"/><ellipse cx="366.75" cy="58" fill="#B4A7E5" rx="11" ry="11" style="stroke:#181818;stroke-width:1.0;"/><path d="M367.7031,54.6406 L367.7031,61.2969 L369.4219,61.2969 Q370.0313,61.2969 370.2969,61.5313 Q370.5625,61.7656 370.5625,62.1563 Q370.5625,62.5313 370.2969,62.7656 Q370.0313,63 369.4219,63 L364.2813,63 Q363.6719,63 363.4063,62.7656 Q363.1406,62.5313 363.1406,62.1406 Q363.1406,61.7656 363.4063,61.5313 Q363.6719,61.2969 364.2813,61.2969 L366,61.2969 L366,54.6406 L364.2813,54.6406 Q363.6719,54.6406 363.4063,54.4063 Q363.1406,54.1719 363.1406,53.7813 Q363.1406,53.4063 363.4063,53.1719 Q363.6719,52.9375 364.2813,52.9375 L369.4219,52.9375 Q370.0313,52.9375 370.2969,53.1719 Q370.5625,53.4063 370.5625,53.7813 Q370.5625,54.1719 370.2969,54.4063 Q370.0313,54.6406 369.4219,54.6406 L367.7031,54.6406 Z " fill="#000000"/><text fill="#000000" font-family="sans-serif" font-size="14" font-style="italic" lengthAdjust="spacing" textLength="163" x="387.25" y="63.7285">IGenericTemplateStorage</text><rect fill="#FFFFFF" height="17.0938" style="stroke:#000000;stroke-width:1.0;stroke-dasharray:2.0,2.0;" width="81" x="888" y="39"/><text fill="#000000" font-family="sans-serif" font-size="12" font-style="italic" lengthAdjust="spacing" textLength="79" x="889" y="52.457">TemplateType</text><line style="stroke:#181818;stroke-width:0.5;" x1="23" x2="965" y1="74" y2="74"/><ellipse cx="33" cy="85" fill="#84BE84" rx="3" ry="3" style="stroke:#038048;stroke-width:1.0;"/><text fill="#000000" font-family="sans-serif" font-size="14" lengthAdjust="spacing" textLength="434" x="42" y="92.5332">GetByName(ctx context.Context, string name) (*TemplateType, error)</text><line style="stroke:#181818;stroke-width:1.0;" x1="23" x2="965" y1="99.6094" y2="99.6094"/><ellipse cx="33" cy="110.6094" fill="#84BE84" rx="3" ry="3" style="stroke:#038048;stroke-width:1.0;"/><text fill="#000000" font-family="sans-serif" font-size="14" lengthAdjust="spacing" textLength="918" x="42" y="118.1426">GetList(ctx context.Context, orderBy string, orderDirection string, page int, size int, queryBuilder interfaces.IQueryBuilder) (*[]TemplateType, error)</text><line style="stroke:#181818;stroke-width:1.0;" x1="23" x2="965" y1="125.2188" y2="125.2188"/><ellipse cx="33" cy="136.2188" fill="#84BE84" rx="3" ry="3" style="stroke:#038048;stroke-width:1.0;"/><text fill="#000000" font-family="sans-serif" font-size="14" lengthAdjust="spacing" textLength="494" x="42" y="143.752">Count(ctx context.Context, queryBuilder interfaces.IQueryBuilder) (int64, error)</text><line style="stroke:#181818;stroke-width:1.0;" x1="23" x2="965" y1="150.8281" y2="150.8281"/><ellipse cx="33" cy="161.8281" fill="#84BE84" rx="3" ry="3" style="stroke:#038048;stroke-width:1.0;"/><text fill="#000000" font-family="sans-serif" font-size="14" lengthAdjust="spacing" textLength="393" x="42" y="169.3613">NewQueryBuilder(ctx context.Context) interfaces.IQueryBuilder</text></g><!--MD5=[d629dee1792f3caeae15149d56f79c02]
@startuml

package app {
    interface IGenericTemplateStorage<TemplateType> {
        +GetByName(ctx context.Context, string name) (*TemplateType, error)
        - -
        +GetList(ctx context.Context, orderBy string, orderDirection string, page int, size int, queryBuilder interfaces.IQueryBuilder) (*[]TemplateType, error)
        - -
        +Count(ctx context.Context, queryBuilder interfaces.IQueryBuilder) (int64, error)
        - -
        +NewQueryBuilder(ctx context.Context) interfaces.IQueryBuilder
    }
}

@enduml

PlantUML version 1.2022.6(Tue Jun 21 20:34:49 MSK 2022)
(GPL source distribution)
Java Runtime: OpenJDK Runtime Environment
JVM: OpenJDK 64-Bit Server VM
Default Encoding: Cp1251
Language: ru
Country: RU
--></g></svg>