<?xml version="1.0" encoding="UTF-8" standalone="no"?><svg xmlns="http://www.w3.org/2000/svg" xmlns:xlink="http://www.w3.org/1999/xlink" contentStyleType="text/css" height="356px" preserveAspectRatio="none" style="width:1344px;height:356px;background:#FFFFFF;" version="1.1" viewBox="0 0 1344 356" width="1344px" zoomAndPan="magnify"><defs/><g><!--MD5=[d5ac3844f66b12d9e08170e47495e096]
cluster app--><g id="cluster_app"><path d="M8.5,6 L35.5,6 A3.75,3.75 0 0 1 38,8.5 L45,29.6094 L1334.5,29.6094 A2.5,2.5 0 0 1 1337,32.1094 L1337,346.5 A2.5,2.5 0 0 1 1334.5,349 L8.5,349 A2.5,2.5 0 0 1 6,346.5 L6,8.5 A2.5,2.5 0 0 1 8.5,6 " style="stroke:#000000;stroke-width:1.5;fill:none;"/><line style="stroke:#000000;stroke-width:1.5;fill:none;" x1="6" x2="45" y1="29.6094" y2="29.6094"/><text fill="#000000" font-family="sans-serif" font-size="14" font-weight="bold" lengthAdjust="spacing" textLength="26" x="10" y="22.5332">app</text></g><!--MD5=[b3e0f8dcddb1b27f071a0303a68762bf]
class IGenericRepository--><g id="elem_IGenericRepository"><rect codeLine="3" fill="#F1F1F1" height="236.875" id="IGenericRepository" rx="2.5" ry="2.5" style="stroke:#181818;stroke-width:0.5;" width="920" x="401" y="69"/><ellipse cx="765.25" cy="85" fill="#B4A7E5" rx="11" ry="11" style="stroke:#181818;stroke-width:1.0;"/><path d="M766.2031,81.6406 L766.2031,88.2969 L767.9219,88.2969 Q768.5313,88.2969 768.7969,88.5313 Q769.0625,88.7656 769.0625,89.1563 Q769.0625,89.5313 768.7969,89.7656 Q768.5313,90 767.9219,90 L762.7813,90 Q762.1719,90 761.9063,89.7656 Q761.6406,89.5313 761.6406,89.1406 Q761.6406,88.7656 761.9063,88.5313 Q762.1719,88.2969 762.7813,88.2969 L764.5,88.2969 L764.5,81.6406 L762.7813,81.6406 Q762.1719,81.6406 761.9063,81.4063 Q761.6406,81.1719 761.6406,80.7813 Q761.6406,80.4063 761.9063,80.1719 Q762.1719,79.9375 762.7813,79.9375 L767.9219,79.9375 Q768.5313,79.9375 768.7969,80.1719 Q769.0625,80.4063 769.0625,80.7813 Q769.0625,81.1719 768.7969,81.4063 Q768.5313,81.6406 767.9219,81.6406 L766.2031,81.6406 Z " fill="#000000"/><text fill="#000000" font-family="sans-serif" font-size="14" font-style="italic" lengthAdjust="spacing" textLength="122" x="785.75" y="90.7285">IGenericRepository</text><rect fill="#FFFFFF" height="17.0938" style="stroke:#000000;stroke-width:1.0;stroke-dasharray:2.0,2.0;" width="59" x="1265" y="66"/><text fill="#000000" font-family="sans-serif" font-size="12" font-style="italic" lengthAdjust="spacing" textLength="57" x="1266" y="79.457">EntityType</text><line style="stroke:#181818;stroke-width:0.5;" x1="402" x2="1320" y1="101" y2="101"/><ellipse cx="412" cy="112" fill="#84BE84" rx="3" ry="3" style="stroke:#038048;stroke-width:1.0;"/><text fill="#000000" font-family="sans-serif" font-size="14" lengthAdjust="spacing" textLength="894" x="421" y="119.5332">GetList(ctx context.Context, orderBy string, orderDirection string, page int, size int, queryBuilder interfaces.IQueryBuilder) (*[]EntityType, error)</text><line style="stroke:#181818;stroke-width:1.0;" x1="402" x2="1320" y1="126.6094" y2="126.6094"/><ellipse cx="412" cy="137.6094" fill="#84BE84" rx="3" ry="3" style="stroke:#038048;stroke-width:1.0;"/><text fill="#000000" font-family="sans-serif" font-size="14" lengthAdjust="spacing" textLength="494" x="421" y="145.1426">Count(ctx context.Context, queryBuilder interfaces.IQueryBuilder) (int64, error)</text><line style="stroke:#181818;stroke-width:1.0;" x1="402" x2="1320" y1="152.2188" y2="152.2188"/><ellipse cx="412" cy="163.2188" fill="#84BE84" rx="3" ry="3" style="stroke:#038048;stroke-width:1.0;"/><text fill="#000000" font-family="sans-serif" font-size="14" lengthAdjust="spacing" textLength="393" x="421" y="170.752">NewQueryBuilder(ctx context.Context) interfaces.IQueryBuilder</text><line style="stroke:#181818;stroke-width:1.0;" x1="402" x2="1320" y1="177.8281" y2="177.8281"/><ellipse cx="412" cy="188.8281" fill="#84BE84" rx="3" ry="3" style="stroke:#038048;stroke-width:1.0;"/><text fill="#000000" font-family="sans-serif" font-size="14" lengthAdjust="spacing" textLength="388" x="421" y="196.3613">GetById(ctx context.Context, id uuid.UUID) (*EntityType, error)</text><line style="stroke:#181818;stroke-width:1.0;" x1="402" x2="1320" y1="203.4375" y2="203.4375"/><ellipse cx="412" cy="214.4375" fill="#84BE84" rx="3" ry="3" style="stroke:#038048;stroke-width:1.0;"/><text fill="#000000" font-family="sans-serif" font-size="14" lengthAdjust="spacing" textLength="326" x="421" y="221.9707">Update(ctx context.Context, entity *EntityType) error</text><line style="stroke:#181818;stroke-width:1.0;" x1="402" x2="1320" y1="229.0469" y2="229.0469"/><ellipse cx="412" cy="240.0469" fill="#84BE84" rx="3" ry="3" style="stroke:#038048;stroke-width:1.0;"/><text fill="#000000" font-family="sans-serif" font-size="14" lengthAdjust="spacing" textLength="391" x="421" y="247.5801">Insert(ctx context.Context, entity EntityType) (uuid.UUID, error)</text><line style="stroke:#181818;stroke-width:1.0;" x1="402" x2="1320" y1="254.6563" y2="254.6563"/><ellipse cx="412" cy="265.6563" fill="#84BE84" rx="3" ry="3" style="stroke:#038048;stroke-width:1.0;"/><text fill="#000000" font-family="sans-serif" font-size="14" lengthAdjust="spacing" textLength="289" x="421" y="273.1895">Delete(ctx context.Context, id uuid.UUID) error</text><line style="stroke:#181818;stroke-width:1.0;" x1="402" x2="1320" y1="280.2656" y2="280.2656"/><ellipse cx="412" cy="291.2656" fill="#84BE84" rx="3" ry="3" style="stroke:#038048;stroke-width:1.0;"/><text fill="#000000" font-family="sans-serif" font-size="14" lengthAdjust="spacing" textLength="99" x="421" y="298.7988">CloseDb() error</text></g><path d="M22.5,42 L22.5,68.3516 A0,0 0 0 0 22.5,68.3516 L316.5,68.3516 A0,0 0 0 0 316.5,68.3516 L316.5,60 L405,113.8047 L316.5,52 L316.5,52 L306.5,42 L22.5,42 A0,0 0 0 0 22.5,42 " fill="#FEFFDD" style="stroke:#181818;stroke-width:0.5;"/><path d="M306.5,42 L306.5,52 L316.5,52 L306.5,42 " fill="#FEFFDD" style="stroke:#181818;stroke-width:0.5;"/><text fill="#000000" font-family="sans-serif" font-size="13" lengthAdjust="spacing" textLength="273" x="28.5" y="60.4951">Get list of elements with filtering and pagination</text><path d="M22.5,78.3516 L22.5,104.7031 A0,0 0 0 0 22.5,104.7031 L232.5,104.7031 A0,0 0 0 0 232.5,104.7031 L232.5,96.3516 L405,139.4141 L232.5,88.3516 L232.5,88.3516 L222.5,78.3516 L22.5,78.3516 A0,0 0 0 0 22.5,78.3516 " fill="#FEFFDD" style="stroke:#181818;stroke-width:0.5;"/><path d="M222.5,78.3516 L222.5,88.3516 L232.5,88.3516 L222.5,78.3516 " fill="#FEFFDD" style="stroke:#181818;stroke-width:0.5;"/><text fill="#000000" font-family="sans-serif" font-size="13" lengthAdjust="spacing" textLength="189" x="28.5" y="96.8467">Get count of entities with filtering</text><path d="M22.5,114.7031 L22.5,141.0547 A0,0 0 0 0 22.5,141.0547 L258.5,141.0547 A0,0 0 0 0 258.5,141.0547 L258.5,132.7031 L405,165.0234 L258.5,124.7031 L258.5,124.7031 L248.5,114.7031 L22.5,114.7031 A0,0 0 0 0 22.5,114.7031 " fill="#FEFFDD" style="stroke:#181818;stroke-width:0.5;"/><path d="M248.5,114.7031 L248.5,124.7031 L258.5,124.7031 L248.5,114.7031 " fill="#FEFFDD" style="stroke:#181818;stroke-width:0.5;"/><text fill="#000000" font-family="sans-serif" font-size="13" lengthAdjust="spacing" textLength="215" x="28.5" y="133.1982">Get new instance of the query builder</text><path d="M22.5,151.0547 L22.5,177.4063 A0,0 0 0 0 22.5,177.4063 L224.5,177.4063 A0,0 0 0 0 224.5,177.4063 L224.5,169.0547 L405,190.6328 L224.5,161.0547 L224.5,161.0547 L214.5,151.0547 L22.5,151.0547 A0,0 0 0 0 22.5,151.0547 " fill="#FEFFDD" style="stroke:#181818;stroke-width:0.5;"/><path d="M214.5,151.0547 L214.5,161.0547 L224.5,161.0547 L214.5,151.0547 " fill="#FEFFDD" style="stroke:#181818;stroke-width:0.5;"/><text fill="#000000" font-family="sans-serif" font-size="13" lengthAdjust="spacing" textLength="181" x="28.5" y="169.5498">Get entity by ID from repository</text><path d="M22.5,187.4063 L22.5,213.7578 A0,0 0 0 0 22.5,213.7578 L365.5,213.7578 A0,0 0 0 0 365.5,213.7578 L365.5,205.4063 L405,216.2422 L365.5,197.4063 L365.5,197.4063 L355.5,187.4063 L22.5,187.4063 A0,0 0 0 0 22.5,187.4063 " fill="#FEFFDD" style="stroke:#181818;stroke-width:0.5;"/><path d="M355.5,187.4063 L355.5,197.4063 L365.5,197.4063 L355.5,187.4063 " fill="#FEFFDD" style="stroke:#181818;stroke-width:0.5;"/><text fill="#000000" font-family="sans-serif" font-size="13" lengthAdjust="spacing" textLength="322" x="28.5" y="205.9014">Save the changes to the existing entity in the repository</text><path d="M22.5,223.7578 L22.5,250.1094 A0,0 0 0 0 22.5,250.1094 L200.5,250.1094 A0,0 0 0 0 200.5,250.1094 L200.5,241.7578 L405,241.8516 L200.5,233.7578 L200.5,233.7578 L190.5,223.7578 L22.5,223.7578 A0,0 0 0 0 22.5,223.7578 " fill="#FEFFDD" style="stroke:#181818;stroke-width:0.5;"/><path d="M190.5,223.7578 L190.5,233.7578 L200.5,233.7578 L190.5,223.7578 " fill="#FEFFDD" style="stroke:#181818;stroke-width:0.5;"/><text fill="#000000" font-family="sans-serif" font-size="13" lengthAdjust="spacing" textLength="157" x="28.5" y="242.2529">Add entity to the repository</text><path d="M22.5,260.1094 L22.5,286.4609 A0,0 0 0 0 22.5,286.4609 L224.5,286.4609 A0,0 0 0 0 224.5,286.4609 L224.5,278.1094 L405,267.4609 L224.5,270.1094 L224.5,270.1094 L214.5,260.1094 L22.5,260.1094 A0,0 0 0 0 22.5,260.1094 " fill="#FEFFDD" style="stroke:#181818;stroke-width:0.5;"/><path d="M214.5,260.1094 L214.5,270.1094 L224.5,270.1094 L214.5,260.1094 " fill="#FEFFDD" style="stroke:#181818;stroke-width:0.5;"/><text fill="#000000" font-family="sans-serif" font-size="13" lengthAdjust="spacing" textLength="181" x="28.5" y="278.6045">Delete entity from the database</text><path d="M22.5,296.4609 L22.5,322.8125 A0,0 0 0 0 22.5,322.8125 L251.5,322.8125 A0,0 0 0 0 251.5,322.8125 L251.5,314.4609 L405,293.0703 L251.5,306.4609 L251.5,306.4609 L241.5,296.4609 L22.5,296.4609 A0,0 0 0 0 22.5,296.4609 " fill="#FEFFDD" style="stroke:#181818;stroke-width:0.5;"/><path d="M241.5,296.4609 L241.5,306.4609 L251.5,306.4609 L241.5,296.4609 " fill="#FEFFDD" style="stroke:#181818;stroke-width:0.5;"/><text fill="#000000" font-family="sans-serif" font-size="13" lengthAdjust="spacing" textLength="208" x="28.5" y="314.9561">Closes current database connection</text><!--MD5=[e78a9c09d3e485d46158b35bb6042cd5]
@startuml IGenericRepository

package app {
    interface IGenericRepository<EntityType> {
        +GetList(ctx context.Context, orderBy string, orderDirection string, page int, size int, queryBuilder interfaces.IQueryBuilder) (*[]EntityType, error)
        - -
        +Count(ctx context.Context, queryBuilder interfaces.IQueryBuilder) (int64, error)
        - -
        +NewQueryBuilder(ctx context.Context) interfaces.IQueryBuilder
        - -
        +GetById(ctx context.Context, id uuid.UUID) (*EntityType, error)
        - -
        +Update(ctx context.Context, entity *EntityType) error
        - -
        +Insert(ctx context.Context, entity EntityType) (uuid.UUID, error)
        - -
        +Delete(ctx context.Context, id uuid.UUID) error
        - -
        +CloseDb() error
    }
    note left of IGenericRepository::GetList
      Get list of elements with filtering and pagination
    end note

    note left of IGenericRepository::Count
      Get count of entities with filtering
    end note

    note left of IGenericRepository::NewQueryBuilder
      Get new instance of the query builder
    end note

    note left of IGenericRepository::GetById
      Get entity by ID from repository
    end note

    note left of IGenericRepository::Update
      Save the changes to the existing entity in the repository
    end note

    note left of IGenericRepository::Insert
      Add entity to the repository
    end note

    note left of IGenericRepository::Delete
      Delete entity from the database
    end note

    note left of IGenericRepository::CloseDb
      Closes current database connection
    end note
}

@enduml

PlantUML version 1.2022.6(Tue Jun 21 20:34:49 MSK 2022)
(GPL source distribution)
Java Runtime: OpenJDK Runtime Environment
JVM: OpenJDK 64-Bit Server VM
Default Encoding: Cp1251
Language: ru
Country: RU
--></g></svg>