<?xml version="1.0" encoding="UTF-8" standalone="no"?><svg xmlns="http://www.w3.org/2000/svg" xmlns:xlink="http://www.w3.org/1999/xlink" contentStyleType="text/css" height="199px" preserveAspectRatio="none" style="width:985px;height:199px;background:#FFFFFF;" version="1.1" viewBox="0 0 985 199" width="985px" zoomAndPan="magnify"><defs/><g><!--MD5=[d5ac3844f66b12d9e08170e47495e096]
cluster app--><g id="cluster_app"><path d="M8.5,6 L35.5,6 A3.75,3.75 0 0 1 38,8.5 L45,29.6094 L975.5,29.6094 A2.5,2.5 0 0 1 978,32.1094 L978,189.5 A2.5,2.5 0 0 1 975.5,192 L8.5,192 A2.5,2.5 0 0 1 6,189.5 L6,8.5 A2.5,2.5 0 0 1 8.5,6 " style="stroke:#000000;stroke-width:1.5;fill:none;"/><line style="stroke:#000000;stroke-width:1.5;fill:none;" x1="6" x2="45" y1="29.6094" y2="29.6094"/><text fill="#000000" font-family="sans-serif" font-size="14" font-weight="bold" lengthAdjust="spacing" textLength="26" x="10" y="22.5332">app</text></g><!--MD5=[3beb778f651b40286c3d75d0060d5ff1]
class IGenericTemplateStorage--><g id="elem_IGenericTemplateStorage"><rect codeLine="3" fill="#F1F1F1" height="134.4375" id="IGenericTemplateStorage" rx="2.5" ry="2.5" style="stroke:#181818;stroke-width:0.5;" width="939" x="22.5" y="42"/><ellipse cx="364.75" cy="58" fill="#B4A7E5" rx="11" ry="11" style="stroke:#181818;stroke-width:1.0;"/><path d="M365.7031,54.6406 L365.7031,61.2969 L367.4219,61.2969 Q368.0313,61.2969 368.2969,61.5313 Q368.5625,61.7656 368.5625,62.1563 Q368.5625,62.5313 368.2969,62.7656 Q368.0313,63 367.4219,63 L362.2813,63 Q361.6719,63 361.4063,62.7656 Q361.1406,62.5313 361.1406,62.1406 Q361.1406,61.7656 361.4063,61.5313 Q361.6719,61.2969 362.2813,61.2969 L364,61.2969 L364,54.6406 L362.2813,54.6406 Q361.6719,54.6406 361.4063,54.4063 Q361.1406,54.1719 361.1406,53.7813 Q361.1406,53.4063 361.4063,53.1719 Q361.6719,52.9375 362.2813,52.9375 L367.4219,52.9375 Q368.0313,52.9375 368.2969,53.1719 Q368.5625,53.4063 368.5625,53.7813 Q368.5625,54.1719 368.2969,54.4063 Q368.0313,54.6406 367.4219,54.6406 L365.7031,54.6406 Z " fill="#000000"/><text fill="#000000" font-family="sans-serif" font-size="14" font-style="italic" lengthAdjust="spacing" textLength="163" x="385.25" y="63.7285">IGenericTemplateStorage</text><rect fill="#FFFFFF" height="17.0938" style="stroke:#000000;stroke-width:1.0;stroke-dasharray:2.0,2.0;" width="81" x="883.5" y="39"/><text fill="#000000" font-family="sans-serif" font-size="12" font-style="italic" lengthAdjust="spacing" textLength="79" x="884.5" y="52.457">TemplateType</text><line style="stroke:#181818;stroke-width:0.5;" x1="23.5" x2="960.5" y1="74" y2="74"/><ellipse cx="33.5" cy="85" fill="#84BE84" rx="3" ry="3" style="stroke:#038048;stroke-width:1.0;"/><text fill="#000000" font-family="sans-serif" font-size="14" lengthAdjust="spacing" textLength="429" x="42.5" y="92.5332">GetByName(ctx context.Context, string name) (TemplateType, error)</text><line style="stroke:#181818;stroke-width:1.0;" x1="23.5" x2="960.5" y1="99.6094" y2="99.6094"/><ellipse cx="33.5" cy="110.6094" fill="#84BE84" rx="3" ry="3" style="stroke:#038048;stroke-width:1.0;"/><text fill="#000000" font-family="sans-serif" font-size="14" lengthAdjust="spacing" textLength="913" x="42.5" y="118.1426">GetList(ctx context.Context, orderBy string, orderDirection string, page int, size int, queryBuilder interfaces.IQueryBuilder) ([]TemplateType, error)</text><line style="stroke:#181818;stroke-width:1.0;" x1="23.5" x2="960.5" y1="125.2188" y2="125.2188"/><ellipse cx="33.5" cy="136.2188" fill="#84BE84" rx="3" ry="3" style="stroke:#038048;stroke-width:1.0;"/><text fill="#000000" font-family="sans-serif" font-size="14" lengthAdjust="spacing" textLength="494" x="42.5" y="143.752">Count(ctx context.Context, queryBuilder interfaces.IQueryBuilder) (int64, error)</text><line style="stroke:#181818;stroke-width:1.0;" x1="23.5" x2="960.5" y1="150.8281" y2="150.8281"/><ellipse cx="33.5" cy="161.8281" fill="#84BE84" rx="3" ry="3" style="stroke:#038048;stroke-width:1.0;"/><text fill="#000000" font-family="sans-serif" font-size="14" lengthAdjust="spacing" textLength="393" x="42.5" y="169.3613">NewQueryBuilder(ctx context.Context) interfaces.IQueryBuilder</text></g><!--MD5=[e224d27360d9f0df8c8ef36f290684ab]
@startuml

package app {
    interface IGenericTemplateStorage<TemplateType> {
        +GetByName(ctx context.Context, string name) (TemplateType, error)
        - -
        +GetList(ctx context.Context, orderBy string, orderDirection string, page int, size int, queryBuilder interfaces.IQueryBuilder) ([]TemplateType, error)
        - -
        +Count(ctx context.Context, queryBuilder interfaces.IQueryBuilder) (int64, error)
        - -
        +NewQueryBuilder(ctx context.Context) interfaces.IQueryBuilder
    }
}

@enduml

PlantUML version 1.2022.6(Tue Jun 21 20:34:49 MSK 2022)
(GPL source distribution)
Java Runtime: OpenJDK Runtime Environment
JVM: OpenJDK 64-Bit Server VM
Default Encoding: Cp1251
Language: ru
Country: RU
--></g></svg>