<?xml version="1.0" encoding="UTF-8" standalone="no"?><svg xmlns="http://www.w3.org/2000/svg" xmlns:xlink="http://www.w3.org/1999/xlink" contentStyleType="text/css" height="415px" preserveAspectRatio="none" style="width:1453px;height:415px;background:#FFFFFF;" version="1.1" viewBox="0 0 1453 415" width="1453px" zoomAndPan="magnify"><defs/><g><!--MD5=[d5ac3844f66b12d9e08170e47495e096]
cluster app--><g id="cluster_app"><path d="M8.5,6 L38.5,6 A3.75,3.75 0 0 1 41,8.5 L48,28.2969 L1443.5,28.2969 A2.5,2.5 0 0 1 1446,30.7969 L1446,405.5 A2.5,2.5 0 0 1 1443.5,408 L8.5,408 A2.5,2.5 0 0 1 6,405.5 L6,8.5 A2.5,2.5 0 0 1 8.5,6 " style="stroke:#000000;stroke-width:1.5;fill:none;"/><line style="stroke:#000000;stroke-width:1.5;fill:none;" x1="6" x2="48" y1="28.2969" y2="28.2969"/><text fill="#000000" font-family="sans-serif" font-size="14" font-weight="bold" lengthAdjust="spacing" textLength="29" x="10" y="20.9951">app</text></g><!--MD5=[b3e0f8dcddb1b27f071a0303a68762bf]
class IGenericRepository--><g id="elem_IGenericRepository"><rect codeLine="3" fill="#F1F1F1" height="274.9688" id="IGenericRepository" rx="2.5" ry="2.5" style="stroke:#181818;stroke-width:0.5;" width="994" x="436" y="79"/><ellipse cx="737.25" cy="95" fill="#B4A7E5" rx="11" ry="11" style="stroke:#181818;stroke-width:1.0;"/><path d="M733.1719,90.7656 L733.1719,88.6094 L740.5625,88.6094 L740.5625,90.7656 L738.0938,90.7656 L738.0938,98.8438 L740.5625,98.8438 L740.5625,101 L733.1719,101 L733.1719,98.8438 L735.6406,98.8438 L735.6406,90.7656 L733.1719,90.7656 Z " fill="#000000"/><text fill="#000000" font-family="sans-serif" font-size="14" font-style="italic" lengthAdjust="spacing" textLength="132" x="757.75" y="99.8467">IGenericRepository</text><rect fill="#FFFFFF" height="15.9688" style="stroke:#000000;stroke-width:1.0;stroke-dasharray:2.0,2.0;" width="249" x="1184" y="76"/><text fill="#000000" font-family="sans-serif" font-size="12" font-style="italic" lengthAdjust="spacing" textLength="247" x="1185" y="88.1387">IDType, interfaces.IEntityModel[IDType]</text><line style="stroke:#181818;stroke-width:0.5;" x1="437" x2="1429" y1="111" y2="111"/><ellipse cx="447" cy="122" fill="#84BE84" rx="3" ry="3" style="stroke:#038048;stroke-width:1.0;"/><text fill="#000000" font-family="sans-serif" font-size="14" lengthAdjust="spacing" textLength="968" x="456" y="127.9951">GetList(ctx context.Context, orderBy string, orderDirection string, page int, size int, queryBuilder interfaces.IQueryBuilder) ([]EntityType, error)</text><line style="stroke:#181818;stroke-width:1.0;" x1="437" x2="1429" y1="135.2969" y2="135.2969"/><ellipse cx="447" cy="146.2969" fill="#84BE84" rx="3" ry="3" style="stroke:#038048;stroke-width:1.0;"/><text fill="#000000" font-family="sans-serif" font-size="14" lengthAdjust="spacing" textLength="521" x="456" y="152.292">Count(ctx context.Context, queryBuilder interfaces.IQueryBuilder) (int, error)</text><line style="stroke:#181818;stroke-width:1.0;" x1="437" x2="1429" y1="159.5938" y2="159.5938"/><ellipse cx="447" cy="170.5938" fill="#84BE84" rx="3" ry="3" style="stroke:#038048;stroke-width:1.0;"/><text fill="#000000" font-family="sans-serif" font-size="14" lengthAdjust="spacing" textLength="607" x="456" y="176.5889">IsExist(ctx context.Context, id IDType, queryBuilder interfaces.IQueryBuilder) (bool, error)</text><line style="stroke:#181818;stroke-width:1.0;" x1="437" x2="1429" y1="183.8906" y2="183.8906"/><ellipse cx="447" cy="194.8906" fill="#84BE84" rx="3" ry="3" style="stroke:#038048;stroke-width:1.0;"/><text fill="#000000" font-family="sans-serif" font-size="14" lengthAdjust="spacing" textLength="431" x="456" y="200.8857">NewQueryBuilder(ctx context.Context) interfaces.IQueryBuilder</text><line style="stroke:#181818;stroke-width:1.0;" x1="437" x2="1429" y1="208.1875" y2="208.1875"/><ellipse cx="447" cy="219.1875" fill="#84BE84" rx="3" ry="3" style="stroke:#038048;stroke-width:1.0;"/><text fill="#000000" font-family="sans-serif" font-size="14" lengthAdjust="spacing" textLength="397" x="456" y="225.1826">GetById(ctx context.Context, id IDType) (EntityType, error)</text><line style="stroke:#181818;stroke-width:1.0;" x1="437" x2="1429" y1="232.4844" y2="232.4844"/><ellipse cx="447" cy="243.4844" fill="#84BE84" rx="3" ry="3" style="stroke:#038048;stroke-width:1.0;"/><text fill="#000000" font-family="sans-serif" font-size="14" lengthAdjust="spacing" textLength="443" x="456" y="249.4795">Update(ctx context.Context, entity EntityType) (EntityType, error)</text><line style="stroke:#181818;stroke-width:1.0;" x1="437" x2="1429" y1="256.7813" y2="256.7813"/><ellipse cx="447" cy="267.7813" fill="#84BE84" rx="3" ry="3" style="stroke:#038048;stroke-width:1.0;"/><text fill="#000000" font-family="sans-serif" font-size="14" lengthAdjust="spacing" textLength="432" x="456" y="273.7764">Insert(ctx context.Context, entity EntityType) (EntityType, error)</text><line style="stroke:#181818;stroke-width:1.0;" x1="437" x2="1429" y1="281.0781" y2="281.0781"/><ellipse cx="447" cy="292.0781" fill="#84BE84" rx="3" ry="3" style="stroke:#038048;stroke-width:1.0;"/><text fill="#000000" font-family="sans-serif" font-size="14" lengthAdjust="spacing" textLength="299" x="456" y="298.0732">Delete(ctx context.Context, id IDType) error</text><line style="stroke:#181818;stroke-width:1.0;" x1="437" x2="1429" y1="305.375" y2="305.375"/><ellipse cx="447" cy="316.375" fill="#84BE84" rx="3" ry="3" style="stroke:#038048;stroke-width:1.0;"/><text fill="#000000" font-family="sans-serif" font-size="14" lengthAdjust="spacing" textLength="505" x="456" y="322.3701">DeleteAll(ctx context.Context, queryBuilder interfaces.IQueryBuilder) error</text><line style="stroke:#181818;stroke-width:1.0;" x1="437" x2="1429" y1="329.6719" y2="329.6719"/><ellipse cx="447" cy="340.6719" fill="#84BE84" rx="3" ry="3" style="stroke:#038048;stroke-width:1.0;"/><text fill="#000000" font-family="sans-serif" font-size="14" lengthAdjust="spacing" textLength="104" x="456" y="346.667">Dispose() error</text></g><path d="M21.5,41 L21.5,66.1328 A0,0 0 0 0 21.5,66.1328 L346.5,66.1328 A0,0 0 0 0 346.5,66.1328 L346.5,59 L440,123.1484 L346.5,51 L346.5,51 L336.5,41 L21.5,41 A0,0 0 0 0 21.5,41 " fill="#FEFFDD" style="stroke:#181818;stroke-width:0.5;"/><path d="M336.5,41 L336.5,51 L346.5,51 L336.5,41 " fill="#FEFFDD" style="stroke:#181818;stroke-width:0.5;"/><text fill="#000000" font-family="sans-serif" font-size="13" lengthAdjust="spacing" textLength="304" x="27.5" y="58.0669">Get list of elements with filtering and pagination</text><path d="M21.5,76.1328 L21.5,101.2656 A0,0 0 0 0 21.5,101.2656 L252.5,101.2656 A0,0 0 0 0 252.5,101.2656 L252.5,94.1328 L440,147.4453 L252.5,86.1328 L252.5,86.1328 L242.5,76.1328 L21.5,76.1328 A0,0 0 0 0 21.5,76.1328 " fill="#FEFFDD" style="stroke:#181818;stroke-width:0.5;"/><path d="M242.5,76.1328 L242.5,86.1328 L252.5,86.1328 L242.5,76.1328 " fill="#FEFFDD" style="stroke:#181818;stroke-width:0.5;"/><text fill="#000000" font-family="sans-serif" font-size="13" lengthAdjust="spacing" textLength="210" x="27.5" y="93.1997">Get count of entities with filtering</text><path d="M21.5,111.2656 L21.5,136.3984 A0,0 0 0 0 21.5,136.3984 L378.5,136.3984 A0,0 0 0 0 378.5,136.3984 L378.5,129.2656 L440,171.7422 L378.5,121.2656 L378.5,121.2656 L368.5,111.2656 L21.5,111.2656 A0,0 0 0 0 21.5,111.2656 " fill="#FEFFDD" style="stroke:#181818;stroke-width:0.5;"/><path d="M368.5,111.2656 L368.5,121.2656 L378.5,121.2656 L368.5,111.2656 " fill="#FEFFDD" style="stroke:#181818;stroke-width:0.5;"/><text fill="#000000" font-family="sans-serif" font-size="13" lengthAdjust="spacing" textLength="336" x="27.5" y="128.3325">Checks that entity with selected conditions is existed</text><path d="M21.5,146.3984 L21.5,171.5313 A0,0 0 0 0 21.5,171.5313 L280.5,171.5313 A0,0 0 0 0 280.5,171.5313 L280.5,164.3984 L440,196.0391 L280.5,156.3984 L280.5,156.3984 L270.5,146.3984 L21.5,146.3984 A0,0 0 0 0 21.5,146.3984 " fill="#FEFFDD" style="stroke:#181818;stroke-width:0.5;"/><path d="M270.5,146.3984 L270.5,156.3984 L280.5,156.3984 L270.5,146.3984 " fill="#FEFFDD" style="stroke:#181818;stroke-width:0.5;"/><text fill="#000000" font-family="sans-serif" font-size="13" lengthAdjust="spacing" textLength="238" x="27.5" y="163.4653">Get new instance of the query builder</text><path d="M21.5,181.5313 L21.5,206.6641 A0,0 0 0 0 21.5,206.6641 L243.5,206.6641 A0,0 0 0 0 243.5,206.6641 L243.5,199.5313 L440,220.3359 L243.5,191.5313 L243.5,191.5313 L233.5,181.5313 L21.5,181.5313 A0,0 0 0 0 21.5,181.5313 " fill="#FEFFDD" style="stroke:#181818;stroke-width:0.5;"/><path d="M233.5,181.5313 L233.5,191.5313 L243.5,191.5313 L233.5,181.5313 " fill="#FEFFDD" style="stroke:#181818;stroke-width:0.5;"/><text fill="#000000" font-family="sans-serif" font-size="13" lengthAdjust="spacing" textLength="201" x="27.5" y="198.5981">Get entity by ID from repository</text><path d="M21.5,216.6641 L21.5,241.7969 A0,0 0 0 0 21.5,241.7969 L400.5,241.7969 A0,0 0 0 0 400.5,241.7969 L400.5,234.6641 L440,244.6328 L400.5,226.6641 L400.5,226.6641 L390.5,216.6641 L21.5,216.6641 A0,0 0 0 0 21.5,216.6641 " fill="#FEFFDD" style="stroke:#181818;stroke-width:0.5;"/><path d="M390.5,216.6641 L390.5,226.6641 L400.5,226.6641 L390.5,216.6641 " fill="#FEFFDD" style="stroke:#181818;stroke-width:0.5;"/><text fill="#000000" font-family="sans-serif" font-size="13" lengthAdjust="spacing" textLength="358" x="27.5" y="233.731">Save the changes to the existing entity in the repository</text><path d="M21.5,251.7969 L21.5,276.9297 A0,0 0 0 0 21.5,276.9297 L217.5,276.9297 A0,0 0 0 0 217.5,276.9297 L217.5,269.7969 L440,268.9297 L217.5,261.7969 L217.5,261.7969 L207.5,251.7969 L21.5,251.7969 A0,0 0 0 0 21.5,251.7969 " fill="#FEFFDD" style="stroke:#181818;stroke-width:0.5;"/><path d="M207.5,251.7969 L207.5,261.7969 L217.5,261.7969 L207.5,251.7969 " fill="#FEFFDD" style="stroke:#181818;stroke-width:0.5;"/><text fill="#000000" font-family="sans-serif" font-size="13" lengthAdjust="spacing" textLength="175" x="27.5" y="268.8638">Add entity to the repository</text><path d="M21.5,286.9297 L21.5,312.0625 A0,0 0 0 0 21.5,312.0625 L226.5,312.0625 A0,0 0 0 0 226.5,312.0625 L226.5,304.9297 L440,293.2266 L226.5,296.9297 L226.5,296.9297 L216.5,286.9297 L21.5,286.9297 A0,0 0 0 0 21.5,286.9297 " fill="#FEFFDD" style="stroke:#181818;stroke-width:0.5;"/><path d="M216.5,286.9297 L216.5,296.9297 L226.5,296.9297 L216.5,286.9297 " fill="#FEFFDD" style="stroke:#181818;stroke-width:0.5;"/><text fill="#000000" font-family="sans-serif" font-size="13" lengthAdjust="spacing" textLength="184" x="27.5" y="303.9966">Delete entity from repository</text><path d="M21.5,322.0625 L21.5,347.1953 A0,0 0 0 0 21.5,347.1953 L291.5,347.1953 A0,0 0 0 0 291.5,347.1953 L291.5,340.0625 L440,317.5234 L291.5,332.0625 L291.5,332.0625 L281.5,322.0625 L21.5,322.0625 A0,0 0 0 0 21.5,322.0625 " fill="#FEFFDD" style="stroke:#181818;stroke-width:0.5;"/><path d="M281.5,322.0625 L281.5,332.0625 L291.5,332.0625 L281.5,322.0625 " fill="#FEFFDD" style="stroke:#181818;stroke-width:0.5;"/><text fill="#000000" font-family="sans-serif" font-size="13" lengthAdjust="spacing" textLength="249" x="27.5" y="339.1294">Delete entities with selected conditions</text><path d="M21.5,357.1953 L21.5,382.3281 A0,0 0 0 0 21.5,382.3281 L206.5,382.3281 A0,0 0 0 0 206.5,382.3281 L206.5,375.1953 L440,341.8203 L206.5,367.1953 L206.5,367.1953 L196.5,357.1953 L21.5,357.1953 A0,0 0 0 0 21.5,357.1953 " fill="#FEFFDD" style="stroke:#181818;stroke-width:0.5;"/><path d="M196.5,357.1953 L196.5,367.1953 L206.5,367.1953 L196.5,357.1953 " fill="#FEFFDD" style="stroke:#181818;stroke-width:0.5;"/><text fill="#000000" font-family="sans-serif" font-size="13" lengthAdjust="spacing" textLength="164" x="27.5" y="374.2622">Dispose all allocated data</text><!--MD5=[de351d0611346b91cbcc702c9b7e9c15]
@startuml IGenericRepository

package app {
    interface IGenericRepository<IDType, interfaces.IEntityModel[IDType]> {
        +GetList(ctx context.Context, orderBy string, orderDirection string, page int, size int, queryBuilder interfaces.IQueryBuilder) ([]EntityType, error)
        - -
        +Count(ctx context.Context, queryBuilder interfaces.IQueryBuilder) (int, error)
        - -
        +IsExist(ctx context.Context, id IDType, queryBuilder interfaces.IQueryBuilder) (bool, error)
        - -
        +NewQueryBuilder(ctx context.Context) interfaces.IQueryBuilder
        - -
        +GetById(ctx context.Context, id IDType) (EntityType, error)
        - -
        +Update(ctx context.Context, entity EntityType) (EntityType, error)
        - -
        +Insert(ctx context.Context, entity EntityType) (EntityType, error)
        - -
        +Delete(ctx context.Context, id IDType) error
        - -
        +DeleteAll(ctx context.Context, queryBuilder interfaces.IQueryBuilder) error
        - -
        +Dispose() error
    }
    note left of IGenericRepository::GetList
      Get list of elements with filtering and pagination
    end note

    note left of IGenericRepository::Count
      Get count of entities with filtering
    end note

    note left of IGenericRepository::IsExist
      Checks that entity with selected conditions is existed
    end note

    note left of IGenericRepository::NewQueryBuilder
      Get new instance of the query builder
    end note

    note left of IGenericRepository::GetById
      Get entity by ID from repository
    end note

    note left of IGenericRepository::Update
      Save the changes to the existing entity in the repository
    end note

    note left of IGenericRepository::Insert
      Add entity to the repository
    end note

    note left of IGenericRepository::Delete
      Delete entity from repository
    end note

    note left of IGenericRepository::DeleteAll
      Delete entities with selected conditions
    end note

    note left of IGenericRepository::Dispose
      Dispose all allocated data
    end note
}

@enduml

PlantUML version 1.2022.6(Tue Jun 21 17:34:49 EGST 2022)
(GPL source distribution)
Java Runtime: OpenJDK Runtime Environment
JVM: OpenJDK 64-Bit Server VM
Default Encoding: UTF-8
Language: en
Country: US
--></g></svg>