<?xml version="1.0" encoding="UTF-8" standalone="no"?><svg xmlns="http://www.w3.org/2000/svg" xmlns:xlink="http://www.w3.org/1999/xlink" contentStyleType="text/css" height="429px" preserveAspectRatio="none" style="width:1247px;height:429px;background:#FFFFFF;" version="1.1" viewBox="0 0 1247 429" width="1247px" zoomAndPan="magnify"><defs/><g><!--MD5=[d5ac3844f66b12d9e08170e47495e096]
cluster app--><g id="cluster_app"><path d="M8.5,6 L35.5,6 A3.75,3.75 0 0 1 38,8.5 L45,29.6094 L1237.5,29.6094 A2.5,2.5 0 0 1 1240,32.1094 L1240,419.5 A2.5,2.5 0 0 1 1237.5,422 L8.5,422 A2.5,2.5 0 0 1 6,419.5 L6,8.5 A2.5,2.5 0 0 1 8.5,6 " style="stroke:#000000;stroke-width:1.5;fill:none;"/><line style="stroke:#000000;stroke-width:1.5;fill:none;" x1="6" x2="45" y1="29.6094" y2="29.6094"/><text fill="#000000" font-family="sans-serif" font-size="14" font-weight="bold" lengthAdjust="spacing" textLength="26" x="10" y="22.5332">app</text></g><!--MD5=[7d972e8a870a7d3102e7596738050350]
class IHostNetworkLink--><g id="elem_IHostNetworkLink"><rect codeLine="3" fill="#F1F1F1" height="108.8281" id="IHostNetworkLink" rx="2.5" ry="2.5" style="stroke:#181818;stroke-width:0.5;" width="195" x="1028.5" y="169.5"/><ellipse cx="1066.45" cy="185.5" fill="#B4A7E5" rx="11" ry="11" style="stroke:#181818;stroke-width:1.0;"/><path d="M1067.4031,182.1406 L1067.4031,188.7969 L1069.1219,188.7969 Q1069.7313,188.7969 1069.9969,189.0313 Q1070.2625,189.2656 1070.2625,189.6563 Q1070.2625,190.0313 1069.9969,190.2656 Q1069.7313,190.5 1069.1219,190.5 L1063.9813,190.5 Q1063.3719,190.5 1063.1063,190.2656 Q1062.8406,190.0313 1062.8406,189.6406 Q1062.8406,189.2656 1063.1063,189.0313 Q1063.3719,188.7969 1063.9813,188.7969 L1065.7,188.7969 L1065.7,182.1406 L1063.9813,182.1406 Q1063.3719,182.1406 1063.1063,181.9063 Q1062.8406,181.6719 1062.8406,181.2813 Q1062.8406,180.9063 1063.1063,180.6719 Q1063.3719,180.4375 1063.9813,180.4375 L1069.1219,180.4375 Q1069.7313,180.4375 1069.9969,180.6719 Q1070.2625,180.9063 1070.2625,181.2813 Q1070.2625,181.6719 1069.9969,181.9063 Q1069.7313,182.1406 1069.1219,182.1406 L1067.4031,182.1406 Z " fill="#000000"/><text fill="#000000" font-family="sans-serif" font-size="14" font-style="italic" lengthAdjust="spacing" textLength="112" x="1085.55" y="191.2285">IHostNetworkLink</text><line style="stroke:#181818;stroke-width:0.5;" x1="1029.5" x2="1222.5" y1="201.5" y2="201.5"/><ellipse cx="1039.5" cy="212.5" fill="#84BE84" rx="3" ry="3" style="stroke:#038048;stroke-width:1.0;"/><text fill="#000000" font-family="sans-serif" font-size="14" lengthAdjust="spacing" textLength="108" x="1048.5" y="220.0332">GetName() string</text><line style="stroke:#181818;stroke-width:1.0;" x1="1029.5" x2="1222.5" y1="227.1094" y2="227.1094"/><ellipse cx="1039.5" cy="238.1094" fill="#84BE84" rx="3" ry="3" style="stroke:#038048;stroke-width:1.0;"/><text fill="#000000" font-family="sans-serif" font-size="14" lengthAdjust="spacing" textLength="104" x="1048.5" y="245.6426">GetType() string</text><line style="stroke:#181818;stroke-width:1.0;" x1="1029.5" x2="1222.5" y1="252.7188" y2="252.7188"/><ellipse cx="1039.5" cy="263.7188" fill="#84BE84" rx="3" ry="3" style="stroke:#038048;stroke-width:1.0;"/><text fill="#000000" font-family="sans-serif" font-size="14" lengthAdjust="spacing" textLength="169" x="1048.5" y="271.252">GetAddresses() []net.IPNet</text></g><path d="M798.5,169.5 L798.5,195.8516 A0,0 0 0 0 798.5,195.8516 L965.5,195.8516 A0,0 0 0 0 965.5,195.8516 L965.5,187.5 L1032.5,214.3047 L965.5,179.5 L965.5,179.5 L955.5,169.5 L798.5,169.5 A0,0 0 0 0 798.5,169.5 " fill="#FEFFDD" style="stroke:#181818;stroke-width:0.5;"/><path d="M955.5,169.5 L955.5,179.5 L965.5,179.5 L955.5,169.5 " fill="#FEFFDD" style="stroke:#181818;stroke-width:0.5;"/><text fill="#000000" font-family="sans-serif" font-size="13" lengthAdjust="spacing" textLength="146" x="804.5" y="187.9951">Gets host interface name</text><path d="M798.5,205.8516 L798.5,232.2031 A0,0 0 0 0 798.5,232.2031 L958.5,232.2031 A0,0 0 0 0 958.5,232.2031 L958.5,223.8516 L1032.5,239.9141 L958.5,215.8516 L958.5,215.8516 L948.5,205.8516 L798.5,205.8516 A0,0 0 0 0 798.5,205.8516 " fill="#FEFFDD" style="stroke:#181818;stroke-width:0.5;"/><path d="M948.5,205.8516 L948.5,215.8516 L958.5,215.8516 L948.5,205.8516 " fill="#FEFFDD" style="stroke:#181818;stroke-width:0.5;"/><text fill="#000000" font-family="sans-serif" font-size="13" lengthAdjust="spacing" textLength="139" x="804.5" y="224.3467">Gets host interface type</text><path d="M798.5,242.2031 L798.5,268.5547 A0,0 0 0 0 798.5,268.5547 L993.5,268.5547 A0,0 0 0 0 993.5,268.5547 L993.5,260.2031 L1032.5,265.5234 L993.5,252.2031 L993.5,252.2031 L983.5,242.2031 L798.5,242.2031 A0,0 0 0 0 798.5,242.2031 " fill="#FEFFDD" style="stroke:#181818;stroke-width:0.5;"/><path d="M983.5,242.2031 L983.5,252.2031 L993.5,252.2031 L983.5,242.2031 " fill="#FEFFDD" style="stroke:#181818;stroke-width:0.5;"/><text fill="#000000" font-family="sans-serif" font-size="13" lengthAdjust="spacing" textLength="174" x="804.5" y="260.6982">Gets host interface addresses</text><!--MD5=[eee03abc33d997fda74f03d63bc5bd12]
class IHostNetworkManager--><g id="elem_IHostNetworkManager"><rect codeLine="5" fill="#F1F1F1" height="288.0938" id="IHostNetworkManager" rx="2.5" ry="2.5" style="stroke:#181818;stroke-width:0.5;" width="345" x="418.5" y="80"/><ellipse cx="515.75" cy="96" fill="#B4A7E5" rx="11" ry="11" style="stroke:#181818;stroke-width:1.0;"/><path d="M516.7031,92.6406 L516.7031,99.2969 L518.4219,99.2969 Q519.0313,99.2969 519.2969,99.5313 Q519.5625,99.7656 519.5625,100.1563 Q519.5625,100.5313 519.2969,100.7656 Q519.0313,101 518.4219,101 L513.2813,101 Q512.6719,101 512.4063,100.7656 Q512.1406,100.5313 512.1406,100.1406 Q512.1406,99.7656 512.4063,99.5313 Q512.6719,99.2969 513.2813,99.2969 L515,99.2969 L515,92.6406 L513.2813,92.6406 Q512.6719,92.6406 512.4063,92.4063 Q512.1406,92.1719 512.1406,91.7813 Q512.1406,91.4063 512.4063,91.1719 Q512.6719,90.9375 513.2813,90.9375 L518.4219,90.9375 Q519.0313,90.9375 519.2969,91.1719 Q519.5625,91.4063 519.5625,91.7813 Q519.5625,92.1719 519.2969,92.4063 Q519.0313,92.6406 518.4219,92.6406 L516.7031,92.6406 Z " fill="#000000"/><text fill="#000000" font-family="sans-serif" font-size="14" font-style="italic" lengthAdjust="spacing" textLength="142" x="536.25" y="101.7285">IHostNetworkManager</text><line style="stroke:#181818;stroke-width:0.5;" x1="419.5" x2="762.5" y1="112" y2="112"/><ellipse cx="429.5" cy="123" fill="#84BE84" rx="3" ry="3" style="stroke:#038048;stroke-width:1.0;"/><text fill="#000000" font-family="sans-serif" font-size="14" lengthAdjust="spacing" textLength="223" x="438.5" y="130.5332">GetList() ([]IHostNetworkLink, error)</text><line style="stroke:#181818;stroke-width:1.0;" x1="419.5" x2="762.5" y1="137.6094" y2="137.6094"/><ellipse cx="429.5" cy="148.6094" fill="#84BE84" rx="3" ry="3" style="stroke:#038048;stroke-width:1.0;"/><text fill="#000000" font-family="sans-serif" font-size="14" lengthAdjust="spacing" textLength="319" x="438.5" y="156.1426">GetByName(name string) (IHostNetworkLink, error)</text><line style="stroke:#181818;stroke-width:1.0;" x1="419.5" x2="762.5" y1="163.2188" y2="163.2188"/><ellipse cx="429.5" cy="174.2188" fill="#84BE84" rx="3" ry="3" style="stroke:#038048;stroke-width:1.0;"/><text fill="#000000" font-family="sans-serif" font-size="14" lengthAdjust="spacing" textLength="317" x="438.5" y="181.752">CreateVlan(master string, vlanID int) (string, error)</text><line style="stroke:#181818;stroke-width:1.0;" x1="419.5" x2="762.5" y1="188.8281" y2="188.8281"/><ellipse cx="429.5" cy="199.8281" fill="#84BE84" rx="3" ry="3" style="stroke:#038048;stroke-width:1.0;"/><text fill="#000000" font-family="sans-serif" font-size="14" lengthAdjust="spacing" textLength="238" x="438.5" y="207.3613">DeleteLinkByName(name string) error</text><line style="stroke:#181818;stroke-width:1.0;" x1="419.5" x2="762.5" y1="214.4375" y2="214.4375"/><ellipse cx="429.5" cy="225.4375" fill="#84BE84" rx="3" ry="3" style="stroke:#038048;stroke-width:1.0;"/><text fill="#000000" font-family="sans-serif" font-size="14" lengthAdjust="spacing" textLength="294" x="438.5" y="232.9707">AddrAdd(linkName string, addr net.IPNet) error</text><line style="stroke:#181818;stroke-width:1.0;" x1="419.5" x2="762.5" y1="240.0469" y2="240.0469"/><ellipse cx="429.5" cy="251.0469" fill="#84BE84" rx="3" ry="3" style="stroke:#038048;stroke-width:1.0;"/><text fill="#000000" font-family="sans-serif" font-size="14" lengthAdjust="spacing" textLength="310" x="438.5" y="258.5801">AddrDelete(linkName string, addr net.IPNet) error</text><line style="stroke:#181818;stroke-width:1.0;" x1="419.5" x2="762.5" y1="265.6563" y2="265.6563"/><ellipse cx="429.5" cy="276.6563" fill="#84BE84" rx="3" ry="3" style="stroke:#038048;stroke-width:1.0;"/><text fill="#000000" font-family="sans-serif" font-size="14" lengthAdjust="spacing" textLength="162" x="438.5" y="284.1895">SaveConfiguration() error</text><line style="stroke:#181818;stroke-width:1.0;" x1="419.5" x2="762.5" y1="291.2656" y2="291.2656"/><ellipse cx="429.5" cy="302.2656" fill="#84BE84" rx="3" ry="3" style="stroke:#038048;stroke-width:1.0;"/><text fill="#000000" font-family="sans-serif" font-size="14" lengthAdjust="spacing" textLength="175" x="438.5" y="309.7988">RestoreFromBackup() error</text><line style="stroke:#181818;stroke-width:1.0;" x1="419.5" x2="762.5" y1="316.875" y2="316.875"/><ellipse cx="429.5" cy="327.875" fill="#84BE84" rx="3" ry="3" style="stroke:#038048;stroke-width:1.0;"/><text fill="#000000" font-family="sans-serif" font-size="14" lengthAdjust="spacing" textLength="139" x="438.5" y="335.4082">ResetChanges() error</text><line style="stroke:#181818;stroke-width:1.0;" x1="419.5" x2="762.5" y1="342.4844" y2="342.4844"/><ellipse cx="429.5" cy="353.4844" fill="#84BE84" rx="3" ry="3" style="stroke:#038048;stroke-width:1.0;"/><text fill="#000000" font-family="sans-serif" font-size="14" lengthAdjust="spacing" textLength="177" x="438.5" y="361.0176">HasUnsavedChanges() bool</text></g><path d="M22.5,42 L22.5,68.3516 A0,0 0 0 0 22.5,68.3516 L244.5,68.3516 A0,0 0 0 0 244.5,68.3516 L244.5,60 L422.5,124.8047 L244.5,52 L244.5,52 L234.5,42 L22.5,42 A0,0 0 0 0 22.5,42 " fill="#FEFFDD" style="stroke:#181818;stroke-width:0.5;"/><path d="M234.5,42 L234.5,52 L244.5,52 L234.5,42 " fill="#FEFFDD" style="stroke:#181818;stroke-width:0.5;"/><text fill="#000000" font-family="sans-serif" font-size="13" lengthAdjust="spacing" textLength="201" x="28.5" y="60.4951">Gets list of host network interfaces</text><path d="M22.5,78.3516 L22.5,104.7031 A0,0 0 0 0 22.5,104.7031 L274.5,104.7031 A0,0 0 0 0 274.5,104.7031 L274.5,96.3516 L422.5,150.4141 L274.5,88.3516 L274.5,88.3516 L264.5,78.3516 L22.5,78.3516 A0,0 0 0 0 22.5,78.3516 " fill="#FEFFDD" style="stroke:#181818;stroke-width:0.5;"/><path d="M264.5,78.3516 L264.5,88.3516 L274.5,88.3516 L264.5,78.3516 " fill="#FEFFDD" style="stroke:#181818;stroke-width:0.5;"/><text fill="#000000" font-family="sans-serif" font-size="13" lengthAdjust="spacing" textLength="231" x="28.5" y="96.8467">Gets host network interface by its name</text><path d="M22.5,114.7031 L22.5,141.0547 A0,0 0 0 0 22.5,141.0547 L372.5,141.0547 A0,0 0 0 0 372.5,141.0547 L372.5,132.7031 L422.5,176.0234 L372.5,124.7031 L372.5,124.7031 L362.5,114.7031 L22.5,114.7031 A0,0 0 0 0 22.5,114.7031 " fill="#FEFFDD" style="stroke:#181818;stroke-width:0.5;"/><path d="M362.5,114.7031 L362.5,124.7031 L372.5,124.7031 L362.5,114.7031 " fill="#FEFFDD" style="stroke:#181818;stroke-width:0.5;"/><text fill="#000000" font-family="sans-serif" font-size="13" lengthAdjust="spacing" textLength="329" x="28.5" y="133.1982">Create host vlan interface with name rol.{Master}.{VlanID}</text><path d="M22.5,151.0547 L22.5,177.4063 A0,0 0 0 0 22.5,177.4063 L259.5,177.4063 A0,0 0 0 0 259.5,177.4063 L259.5,169.0547 L422.5,201.6328 L259.5,161.0547 L259.5,161.0547 L249.5,151.0547 L22.5,151.0547 A0,0 0 0 0 22.5,151.0547 " fill="#FEFFDD" style="stroke:#181818;stroke-width:0.5;"/><path d="M249.5,151.0547 L249.5,161.0547 L259.5,161.0547 L249.5,151.0547 " fill="#FEFFDD" style="stroke:#181818;stroke-width:0.5;"/><text fill="#000000" font-family="sans-serif" font-size="13" lengthAdjust="spacing" textLength="216" x="28.5" y="169.5498">Deletes interface on host by its name</text><path d="M22.5,187.4063 L22.5,213.7578 A0,0 0 0 0 22.5,213.7578 L277.5,213.7578 A0,0 0 0 0 277.5,213.7578 L277.5,205.4063 L422.5,227.2422 L277.5,197.4063 L277.5,197.4063 L267.5,187.4063 L22.5,187.4063 A0,0 0 0 0 22.5,187.4063 " fill="#FEFFDD" style="stroke:#181818;stroke-width:0.5;"/><path d="M267.5,187.4063 L267.5,197.4063 L277.5,197.4063 L267.5,187.4063 " fill="#FEFFDD" style="stroke:#181818;stroke-width:0.5;"/><text fill="#000000" font-family="sans-serif" font-size="13" lengthAdjust="spacing" textLength="234" x="28.5" y="205.9014">Add new ip address for network interface</text><path d="M22.5,223.7578 L22.5,250.1094 A0,0 0 0 0 22.5,250.1094 L264.5,250.1094 A0,0 0 0 0 264.5,250.1094 L264.5,241.7578 L422.5,252.8516 L264.5,233.7578 L264.5,233.7578 L254.5,223.7578 L22.5,223.7578 A0,0 0 0 0 22.5,223.7578 " fill="#FEFFDD" style="stroke:#181818;stroke-width:0.5;"/><path d="M254.5,223.7578 L254.5,233.7578 L264.5,233.7578 L254.5,223.7578 " fill="#FEFFDD" style="stroke:#181818;stroke-width:0.5;"/><text fill="#000000" font-family="sans-serif" font-size="13" lengthAdjust="spacing" textLength="221" x="28.5" y="242.2529">Delete ip address for network interface</text><path d="M22.5,260.1094 L22.5,286.4609 A0,0 0 0 0 22.5,286.4609 L354.5,286.4609 A0,0 0 0 0 354.5,286.4609 L354.5,278.1094 L422.5,278.4609 L354.5,270.1094 L354.5,270.1094 L344.5,260.1094 L22.5,260.1094 A0,0 0 0 0 22.5,260.1094 " fill="#FEFFDD" style="stroke:#181818;stroke-width:0.5;"/><path d="M344.5,260.1094 L344.5,270.1094 L354.5,270.1094 L344.5,260.1094 " fill="#FEFFDD" style="stroke:#181818;stroke-width:0.5;"/><text fill="#000000" font-family="sans-serif" font-size="13" lengthAdjust="spacing" textLength="311" x="28.5" y="278.6045">Save current host network configuration to the storage</text><path d="M22.5,296.4609 L22.5,322.8125 A0,0 0 0 0 22.5,322.8125 L378.5,322.8125 A0,0 0 0 0 378.5,322.8125 L378.5,314.4609 L422.5,304.0703 L378.5,306.4609 L378.5,306.4609 L368.5,296.4609 L22.5,296.4609 A0,0 0 0 0 22.5,296.4609 " fill="#FEFFDD" style="stroke:#181818;stroke-width:0.5;"/><path d="M368.5,296.4609 L368.5,306.4609 L378.5,306.4609 L368.5,296.4609 " fill="#FEFFDD" style="stroke:#181818;stroke-width:0.5;"/><text fill="#000000" font-family="sans-serif" font-size="13" lengthAdjust="spacing" textLength="335" x="28.5" y="314.9561">Restore and apply host network configuration from backup</text><path d="M22.5,332.8125 L22.5,359.1641 A0,0 0 0 0 22.5,359.1641 L383.5,359.1641 A0,0 0 0 0 383.5,359.1641 L383.5,350.8125 L422.5,329.6797 L383.5,342.8125 L383.5,342.8125 L373.5,332.8125 L22.5,332.8125 A0,0 0 0 0 22.5,332.8125 " fill="#FEFFDD" style="stroke:#181818;stroke-width:0.5;"/><path d="M373.5,332.8125 L373.5,342.8125 L383.5,342.8125 L373.5,332.8125 " fill="#FEFFDD" style="stroke:#181818;stroke-width:0.5;"/><text fill="#000000" font-family="sans-serif" font-size="13" lengthAdjust="spacing" textLength="340" x="28.5" y="351.3076">Reset all applied changes to state from saved configuration</text><path d="M22.5,369.1641 L22.5,395.5156 A0,0 0 0 0 22.5,395.5156 L246.5,395.5156 A0,0 0 0 0 246.5,395.5156 L246.5,387.1641 L422.5,355.2891 L246.5,379.1641 L246.5,379.1641 L236.5,369.1641 L22.5,369.1641 A0,0 0 0 0 22.5,369.1641 " fill="#FEFFDD" style="stroke:#181818;stroke-width:0.5;"/><path d="M236.5,369.1641 L236.5,379.1641 L246.5,379.1641 L236.5,369.1641 " fill="#FEFFDD" style="stroke:#181818;stroke-width:0.5;"/><text fill="#000000" font-family="sans-serif" font-size="13" lengthAdjust="spacing" textLength="203" x="28.5" y="387.6592">Gets a flag about unsaved changes</text><!--MD5=[0cc425bf52c5a732b89ded0eed429991]
@startuml

!include ../interfaces/IHostNetworkLink.puml

package app {
    interface IHostNetworkManager {
        +GetList() ([]IHostNetworkLink, error)
        - -
        +GetByName(name string) (IHostNetworkLink, error)
        - -
        +CreateVlan(master string, vlanID int) (string, error)
        - -
        +DeleteLinkByName(name string) error
        - -
        +AddrAdd(linkName string, addr net.IPNet) error
        - -
        +AddrDelete(linkName string, addr net.IPNet) error
        - -
        +SaveConfiguration() error
        - -
        +RestoreFromBackup() error
        - -
        +ResetChanges() error
        - -
        +HasUnsavedChanges() bool
    }

    note left of IHostNetworkManager::GetList
    Gets list of host network interfaces
    end note

    note left of IHostNetworkManager::GetByName
    Gets host network interface by its name
    end note

    note left of IHostNetworkManager::CreateVlan
    Create host vlan interface with name rol.{Master}.{VlanID}
    end note

    note left of IHostNetworkManager::DeleteLinkByName
    Deletes interface on host by its name
    end note

    note left of IHostNetworkManager::AddrAdd
    Add new ip address for network interface
    end note

    note left of IHostNetworkManager::AddrDelete
    Delete ip address for network interface
    end note

    note left of IHostNetworkManager::SaveConfiguration
    Save current host network configuration to the storage
    end note

    note left of IHostNetworkManager::RestoreFromBackup
    Restore and apply host network configuration from backup
    end note

    note left of IHostNetworkManager::ResetChanges
    Reset all applied changes to state from saved configuration
    end note

    note left of IHostNetworkManager::HasUnsavedChanges
    Gets a flag about unsaved changes
    end note
}

@enduml

@startuml


package app {
    interface IHostNetworkLink {
        +GetName() string
        - -
        +GetType() string
        - -
        +GetAddresses() []net.IPNet
    }

    note left of IHostNetworkLink::GetName
    Gets host interface name
    end note

    note left of IHostNetworkLink::GetType
    Gets host interface type
    end note

    note left of IHostNetworkLink::GetAddresses
    Gets host interface addresses
    end note
}


package app {
    interface IHostNetworkManager {
        +GetList() ([]IHostNetworkLink, error)
        - -
        +GetByName(name string) (IHostNetworkLink, error)
        - -
        +CreateVlan(master string, vlanID int) (string, error)
        - -
        +DeleteLinkByName(name string) error
        - -
        +AddrAdd(linkName string, addr net.IPNet) error
        - -
        +AddrDelete(linkName string, addr net.IPNet) error
        - -
        +SaveConfiguration() error
        - -
        +RestoreFromBackup() error
        - -
        +ResetChanges() error
        - -
        +HasUnsavedChanges() bool
    }

    note left of IHostNetworkManager::GetList
    Gets list of host network interfaces
    end note

    note left of IHostNetworkManager::GetByName
    Gets host network interface by its name
    end note

    note left of IHostNetworkManager::CreateVlan
    Create host vlan interface with name rol.{Master}.{VlanID}
    end note

    note left of IHostNetworkManager::DeleteLinkByName
    Deletes interface on host by its name
    end note

    note left of IHostNetworkManager::AddrAdd
    Add new ip address for network interface
    end note

    note left of IHostNetworkManager::AddrDelete
    Delete ip address for network interface
    end note

    note left of IHostNetworkManager::SaveConfiguration
    Save current host network configuration to the storage
    end note

    note left of IHostNetworkManager::RestoreFromBackup
    Restore and apply host network configuration from backup
    end note

    note left of IHostNetworkManager::ResetChanges
    Reset all applied changes to state from saved configuration
    end note

    note left of IHostNetworkManager::HasUnsavedChanges
    Gets a flag about unsaved changes
    end note
}

@enduml

PlantUML version 1.2022.6(Tue Jun 21 20:34:49 MSK 2022)
(GPL source distribution)
Java Runtime: OpenJDK Runtime Environment
JVM: OpenJDK 64-Bit Server VM
Default Encoding: Cp1251
Language: ru
Country: RU
--></g></svg>