<?xml version="1.0" encoding="UTF-8" standalone="no"?><svg xmlns="http://www.w3.org/2000/svg" xmlns:xlink="http://www.w3.org/1999/xlink" contentStyleType="text/css" height="174px" preserveAspectRatio="none" style="width:471px;height:174px;background:#FFFFFF;" version="1.1" viewBox="0 0 471 174" width="471px" zoomAndPan="magnify"><defs/><g><!--MD5=[d5ac3844f66b12d9e08170e47495e096]
cluster app--><g id="cluster_app"><path d="M8.5,6 L35.5,6 A3.75,3.75 0 0 1 38,8.5 L45,29.6094 L461.5,29.6094 A2.5,2.5 0 0 1 464,32.1094 L464,164.5 A2.5,2.5 0 0 1 461.5,167 L8.5,167 A2.5,2.5 0 0 1 6,164.5 L6,8.5 A2.5,2.5 0 0 1 8.5,6 " style="stroke:#000000;stroke-width:1.5;fill:none;"/><line style="stroke:#000000;stroke-width:1.5;fill:none;" x1="6" x2="45" y1="29.6094" y2="29.6094"/><text fill="#000000" font-family="sans-serif" font-size="14" font-weight="bold" lengthAdjust="spacing" textLength="26" x="10" y="22.5332">app</text></g><!--MD5=[7d972e8a870a7d3102e7596738050350]
class IHostNetworkLink--><g id="elem_IHostNetworkLink"><rect codeLine="3" fill="#F1F1F1" height="108.8281" id="IHostNetworkLink" rx="2.5" ry="2.5" style="stroke:#181818;stroke-width:0.5;" width="195" x="252.5" y="42"/><ellipse cx="290.45" cy="58" fill="#B4A7E5" rx="11" ry="11" style="stroke:#181818;stroke-width:1.0;"/><path d="M291.4031,54.6406 L291.4031,61.2969 L293.1219,61.2969 Q293.7313,61.2969 293.9969,61.5313 Q294.2625,61.7656 294.2625,62.1563 Q294.2625,62.5313 293.9969,62.7656 Q293.7313,63 293.1219,63 L287.9813,63 Q287.3719,63 287.1063,62.7656 Q286.8406,62.5313 286.8406,62.1406 Q286.8406,61.7656 287.1063,61.5313 Q287.3719,61.2969 287.9813,61.2969 L289.7,61.2969 L289.7,54.6406 L287.9813,54.6406 Q287.3719,54.6406 287.1063,54.4063 Q286.8406,54.1719 286.8406,53.7813 Q286.8406,53.4063 287.1063,53.1719 Q287.3719,52.9375 287.9813,52.9375 L293.1219,52.9375 Q293.7313,52.9375 293.9969,53.1719 Q294.2625,53.4063 294.2625,53.7813 Q294.2625,54.1719 293.9969,54.4063 Q293.7313,54.6406 293.1219,54.6406 L291.4031,54.6406 Z " fill="#000000"/><text fill="#000000" font-family="sans-serif" font-size="14" font-style="italic" lengthAdjust="spacing" textLength="112" x="309.55" y="63.7285">IHostNetworkLink</text><line style="stroke:#181818;stroke-width:0.5;" x1="253.5" x2="446.5" y1="74" y2="74"/><ellipse cx="263.5" cy="85" fill="#84BE84" rx="3" ry="3" style="stroke:#038048;stroke-width:1.0;"/><text fill="#000000" font-family="sans-serif" font-size="14" lengthAdjust="spacing" textLength="108" x="272.5" y="92.5332">GetName() string</text><line style="stroke:#181818;stroke-width:1.0;" x1="253.5" x2="446.5" y1="99.6094" y2="99.6094"/><ellipse cx="263.5" cy="110.6094" fill="#84BE84" rx="3" ry="3" style="stroke:#038048;stroke-width:1.0;"/><text fill="#000000" font-family="sans-serif" font-size="14" lengthAdjust="spacing" textLength="104" x="272.5" y="118.1426">GetType() string</text><line style="stroke:#181818;stroke-width:1.0;" x1="253.5" x2="446.5" y1="125.2188" y2="125.2188"/><ellipse cx="263.5" cy="136.2188" fill="#84BE84" rx="3" ry="3" style="stroke:#038048;stroke-width:1.0;"/><text fill="#000000" font-family="sans-serif" font-size="14" lengthAdjust="spacing" textLength="169" x="272.5" y="143.752">GetAddresses() []net.IPNet</text></g><path d="M22.5,42 L22.5,68.3516 A0,0 0 0 0 22.5,68.3516 L189.5,68.3516 A0,0 0 0 0 189.5,68.3516 L189.5,60 L256.5,86.8047 L189.5,52 L189.5,52 L179.5,42 L22.5,42 A0,0 0 0 0 22.5,42 " fill="#FEFFDD" style="stroke:#181818;stroke-width:0.5;"/><path d="M179.5,42 L179.5,52 L189.5,52 L179.5,42 " fill="#FEFFDD" style="stroke:#181818;stroke-width:0.5;"/><text fill="#000000" font-family="sans-serif" font-size="13" lengthAdjust="spacing" textLength="146" x="28.5" y="60.4951">Gets host interface name</text><path d="M22.5,78.3516 L22.5,104.7031 A0,0 0 0 0 22.5,104.7031 L182.5,104.7031 A0,0 0 0 0 182.5,104.7031 L182.5,96.3516 L256.5,112.4141 L182.5,88.3516 L182.5,88.3516 L172.5,78.3516 L22.5,78.3516 A0,0 0 0 0 22.5,78.3516 " fill="#FEFFDD" style="stroke:#181818;stroke-width:0.5;"/><path d="M172.5,78.3516 L172.5,88.3516 L182.5,88.3516 L172.5,78.3516 " fill="#FEFFDD" style="stroke:#181818;stroke-width:0.5;"/><text fill="#000000" font-family="sans-serif" font-size="13" lengthAdjust="spacing" textLength="139" x="28.5" y="96.8467">Gets host interface type</text><path d="M22.5,114.7031 L22.5,141.0547 A0,0 0 0 0 22.5,141.0547 L217.5,141.0547 A0,0 0 0 0 217.5,141.0547 L217.5,132.7031 L256.5,138.0234 L217.5,124.7031 L217.5,124.7031 L207.5,114.7031 L22.5,114.7031 A0,0 0 0 0 22.5,114.7031 " fill="#FEFFDD" style="stroke:#181818;stroke-width:0.5;"/><path d="M207.5,114.7031 L207.5,124.7031 L217.5,124.7031 L207.5,114.7031 " fill="#FEFFDD" style="stroke:#181818;stroke-width:0.5;"/><text fill="#000000" font-family="sans-serif" font-size="13" lengthAdjust="spacing" textLength="174" x="28.5" y="133.1982">Gets host interface addresses</text><!--MD5=[a3f8097b4d0de5a92679f4d97dc804b7]
@startuml

package app {
    interface IHostNetworkLink {
        +GetName() string
        - -
        +GetType() string
        - -
        +GetAddresses() []net.IPNet
    }

    note left of IHostNetworkLink::GetName
    Gets host interface name
    end note

    note left of IHostNetworkLink::GetType
    Gets host interface type
    end note

    note left of IHostNetworkLink::GetAddresses
    Gets host interface addresses
    end note
}

@enduml

PlantUML version 1.2022.6(Tue Jun 21 20:34:49 MSK 2022)
(GPL source distribution)
Java Runtime: OpenJDK Runtime Environment
JVM: OpenJDK 64-Bit Server VM
Default Encoding: Cp1251
Language: ru
Country: RU
--></g></svg>