<?xml version="1.0" encoding="UTF-8" standalone="no"?><svg xmlns="http://www.w3.org/2000/svg" xmlns:xlink="http://www.w3.org/1999/xlink" contentStyleType="text/css" height="247px" preserveAspectRatio="none" style="width:986px;height:247px;background:#FFFFFF;" version="1.1" viewBox="0 0 986 247" width="986px" zoomAndPan="magnify"><defs/><g><!--MD5=[d5ac3844f66b12d9e08170e47495e096]
cluster app--><g id="cluster_app"><path d="M8.5,6 L35.5,6 A3.75,3.75 0 0 1 38,8.5 L45,29.6094 L976.5,29.6094 A2.5,2.5 0 0 1 979,32.1094 L979,237.5 A2.5,2.5 0 0 1 976.5,240 L8.5,240 A2.5,2.5 0 0 1 6,237.5 L6,8.5 A2.5,2.5 0 0 1 8.5,6 " style="stroke:#000000;stroke-width:1.5;fill:none;"/><line style="stroke:#000000;stroke-width:1.5;fill:none;" x1="6" x2="45" y1="29.6094" y2="29.6094"/><text fill="#000000" font-family="sans-serif" font-size="14" font-weight="bold" lengthAdjust="spacing" textLength="26" x="10" y="22.5332">app</text></g><!--MD5=[6bc9fc1618169c25743dbf954cfe4ef0]
class IQueryBuilder--><g id="elem_IQueryBuilder"><rect codeLine="3" fill="#F1F1F1" height="160.0469" id="IQueryBuilder" rx="2.5" ry="2.5" style="stroke:#181818;stroke-width:0.5;" width="460" x="503" y="53"/><ellipse cx="685.25" cy="69" fill="#B4A7E5" rx="11" ry="11" style="stroke:#181818;stroke-width:1.0;"/><path d="M686.2031,65.6406 L686.2031,72.2969 L687.9219,72.2969 Q688.5313,72.2969 688.7969,72.5313 Q689.0625,72.7656 689.0625,73.1563 Q689.0625,73.5313 688.7969,73.7656 Q688.5313,74 687.9219,74 L682.7813,74 Q682.1719,74 681.9063,73.7656 Q681.6406,73.5313 681.6406,73.1406 Q681.6406,72.7656 681.9063,72.5313 Q682.1719,72.2969 682.7813,72.2969 L684.5,72.2969 L684.5,65.6406 L682.7813,65.6406 Q682.1719,65.6406 681.9063,65.4063 Q681.6406,65.1719 681.6406,64.7813 Q681.6406,64.4063 681.9063,64.1719 Q682.1719,63.9375 682.7813,63.9375 L687.9219,63.9375 Q688.5313,63.9375 688.7969,64.1719 Q689.0625,64.4063 689.0625,64.7813 Q689.0625,65.1719 688.7969,65.4063 Q688.5313,65.6406 687.9219,65.6406 L686.2031,65.6406 Z " fill="#000000"/><text fill="#000000" font-family="sans-serif" font-size="14" font-style="italic" lengthAdjust="spacing" textLength="87" x="705.75" y="74.7285">IQueryBuilder</text><line style="stroke:#181818;stroke-width:0.5;" x1="504" x2="962" y1="85" y2="85"/><ellipse cx="514" cy="96" fill="#84BE84" rx="3" ry="3" style="stroke:#038048;stroke-width:1.0;"/><text fill="#000000" font-family="sans-serif" font-size="14" lengthAdjust="spacing" textLength="434" x="523" y="103.5332">Where(fieldName, comparator string, value interface{}) IQueryBuilder</text><line style="stroke:#181818;stroke-width:1.0;" x1="504" x2="962" y1="110.6094" y2="110.6094"/><ellipse cx="514" cy="121.6094" fill="#84BE84" rx="3" ry="3" style="stroke:#038048;stroke-width:1.0;"/><text fill="#000000" font-family="sans-serif" font-size="14" lengthAdjust="spacing" textLength="314" x="523" y="129.1426">WhereQuery(builder IQueryBuilder) IQueryBuilder</text><line style="stroke:#181818;stroke-width:1.0;" x1="504" x2="962" y1="136.2188" y2="136.2188"/><ellipse cx="514" cy="147.2188" fill="#84BE84" rx="3" ry="3" style="stroke:#038048;stroke-width:1.0;"/><text fill="#000000" font-family="sans-serif" font-size="14" lengthAdjust="spacing" textLength="408" x="523" y="154.752">Or(fieldName, comparator string, value interface{}) IQueryBuilder</text><line style="stroke:#181818;stroke-width:1.0;" x1="504" x2="962" y1="161.8281" y2="161.8281"/><ellipse cx="514" cy="172.8281" fill="#84BE84" rx="3" ry="3" style="stroke:#038048;stroke-width:1.0;"/><text fill="#000000" font-family="sans-serif" font-size="14" lengthAdjust="spacing" textLength="288" x="523" y="180.3613">OrQuery(builder IQueryBuilder) IQueryBuilder</text><line style="stroke:#181818;stroke-width:1.0;" x1="504" x2="962" y1="187.4375" y2="187.4375"/><ellipse cx="514" cy="198.4375" fill="#84BE84" rx="3" ry="3" style="stroke:#038048;stroke-width:1.0;"/><text fill="#000000" font-family="sans-serif" font-size="14" lengthAdjust="spacing" textLength="159" x="523" y="205.9707">Build() (interface{}, error)</text></g><path d="M22.5,42 L22.5,68.3516 A0,0 0 0 0 22.5,68.3516 L253.5,68.3516 A0,0 0 0 0 253.5,68.3516 L253.5,60 L507,97.8047 L253.5,52 L253.5,52 L243.5,42 L22.5,42 A0,0 0 0 0 22.5,42 " fill="#FEFFDD" style="stroke:#181818;stroke-width:0.5;"/><path d="M243.5,42 L243.5,52 L253.5,52 L243.5,42 " fill="#FEFFDD" style="stroke:#181818;stroke-width:0.5;"/><text fill="#000000" font-family="sans-serif" font-size="13" lengthAdjust="spacing" textLength="210" x="28.5" y="60.4951">Add new AND condition to the query</text><path d="M22.5,78.3516 L22.5,104.7031 A0,0 0 0 0 22.5,104.7031 L467.5,104.7031 A0,0 0 0 0 467.5,104.7031 L467.5,96.3516 L507,123.4141 L467.5,88.3516 L467.5,88.3516 L457.5,78.3516 L22.5,78.3516 A0,0 0 0 0 22.5,78.3516 " fill="#FEFFDD" style="stroke:#181818;stroke-width:0.5;"/><path d="M457.5,78.3516 L457.5,88.3516 L467.5,88.3516 L457.5,78.3516 " fill="#FEFFDD" style="stroke:#181818;stroke-width:0.5;"/><text fill="#000000" font-family="sans-serif" font-size="13" lengthAdjust="spacing" textLength="424" x="28.5" y="96.8467">Add new complicated AND condition to the query based on another query</text><path d="M22.5,114.7031 L22.5,141.0547 A0,0 0 0 0 22.5,141.0547 L245.5,141.0547 A0,0 0 0 0 245.5,141.0547 L245.5,132.7031 L507,149.0234 L245.5,124.7031 L245.5,124.7031 L235.5,114.7031 L22.5,114.7031 A0,0 0 0 0 22.5,114.7031 " fill="#FEFFDD" style="stroke:#181818;stroke-width:0.5;"/><path d="M235.5,114.7031 L235.5,124.7031 L245.5,124.7031 L235.5,114.7031 " fill="#FEFFDD" style="stroke:#181818;stroke-width:0.5;"/><text fill="#000000" font-family="sans-serif" font-size="13" lengthAdjust="spacing" textLength="202" x="28.5" y="133.1982">Add new OR condition to the query</text><path d="M22.5,151.0547 L22.5,177.4063 A0,0 0 0 0 22.5,177.4063 L459.5,177.4063 A0,0 0 0 0 459.5,177.4063 L459.5,169.0547 L507,174.6328 L459.5,161.0547 L459.5,161.0547 L449.5,151.0547 L22.5,151.0547 A0,0 0 0 0 22.5,151.0547 " fill="#FEFFDD" style="stroke:#181818;stroke-width:0.5;"/><path d="M449.5,151.0547 L449.5,161.0547 L459.5,161.0547 L449.5,151.0547 " fill="#FEFFDD" style="stroke:#181818;stroke-width:0.5;"/><text fill="#000000" font-family="sans-serif" font-size="13" lengthAdjust="spacing" textLength="416" x="28.5" y="169.5498">Add new complicated OR condition to the query based on another query</text><path d="M22.5,187.4063 L22.5,213.7578 A0,0 0 0 0 22.5,213.7578 L229.5,213.7578 A0,0 0 0 0 229.5,213.7578 L229.5,205.4063 L507,200.2422 L229.5,197.4063 L229.5,197.4063 L219.5,187.4063 L22.5,187.4063 A0,0 0 0 0 22.5,187.4063 " fill="#FEFFDD" style="stroke:#181818;stroke-width:0.5;"/><path d="M219.5,187.4063 L219.5,197.4063 L229.5,197.4063 L219.5,187.4063 " fill="#FEFFDD" style="stroke:#181818;stroke-width:0.5;"/><text fill="#000000" font-family="sans-serif" font-size="13" lengthAdjust="spacing" textLength="186" x="28.5" y="205.9014">Build a slice of query arguments</text><!--MD5=[ef4514b3a86a207c3792e8bb1bb4949b]
@startuml IQueryBuilder

package app {
    interface IQueryBuilder {
        +Where(fieldName, comparator string, value interface{}) IQueryBuilder
        - -
        +WhereQuery(builder IQueryBuilder) IQueryBuilder
        - -
        +Or(fieldName, comparator string, value interface{}) IQueryBuilder
        - -
        +OrQuery(builder IQueryBuilder) IQueryBuilder
        - -
        +Build() (interface{}, error)
    }
    note left of IQueryBuilder::Where
        Add new AND condition to the query
    end note

    note left of IQueryBuilder::WhereQuery
        Add new complicated AND condition to the query based on another query
    end note

    note left of IQueryBuilder::Or
        Add new OR condition to the query
    end note

    note left of IQueryBuilder::OrQuery
        Add new complicated OR condition to the query based on another query
    end note

    note left of IQueryBuilder::Build()
        Build a slice of query arguments
    end note
}

@enduml

PlantUML version 1.2022.6(Tue Jun 21 20:34:49 MSK 2022)
(GPL source distribution)
Java Runtime: OpenJDK Runtime Environment
JVM: OpenJDK 64-Bit Server VM
Default Encoding: Cp1251
Language: ru
Country: RU
--></g></svg>