<?xml version="1.0" encoding="UTF-8" standalone="no"?><svg xmlns="http://www.w3.org/2000/svg" xmlns:xlink="http://www.w3.org/1999/xlink" contentStyleType="text/css" height="792px" preserveAspectRatio="none" style="width:1021px;height:792px;background:#FFFFFF;" version="1.1" viewBox="0 0 1021 792" width="1021px" zoomAndPan="magnify"><defs/><g><!--MD5=[27f772719433d509ddbc20ff768eba08]
cluster domain--><g id="cluster_domain"><path d="M9.5,6 L67.5,6 A3.75,3.75 0 0 1 70,8.5 L77,28.2969 L576.5,28.2969 A2.5,2.5 0 0 1 579,30.7969 L579,522.5 A2.5,2.5 0 0 1 576.5,525 L9.5,525 A2.5,2.5 0 0 1 7,522.5 L7,8.5 A2.5,2.5 0 0 1 9.5,6 " style="stroke:#000000;stroke-width:1.5;fill:none;"/><line style="stroke:#000000;stroke-width:1.5;fill:none;" x1="7" x2="77" y1="28.2969" y2="28.2969"/><text fill="#000000" font-family="sans-serif" font-size="14" font-weight="bold" lengthAdjust="spacing" textLength="57" x="11" y="20.9951">domain</text></g><!--MD5=[d5ac3844f66b12d9e08170e47495e096]
cluster app--><g id="cluster_app"><path d="M8.5,558 L38.5,558 A3.75,3.75 0 0 1 41,560.5 L48,580.2969 L1011.5,580.2969 A2.5,2.5 0 0 1 1014,582.7969 L1014,782.5 A2.5,2.5 0 0 1 1011.5,785 L8.5,785 A2.5,2.5 0 0 1 6,782.5 L6,560.5 A2.5,2.5 0 0 1 8.5,558 " style="stroke:#000000;stroke-width:1.5;fill:none;"/><line style="stroke:#000000;stroke-width:1.5;fill:none;" x1="6" x2="48" y1="580.2969" y2="580.2969"/><text fill="#000000" font-family="sans-serif" font-size="14" font-weight="bold" lengthAdjust="spacing" textLength="29" x="10" y="572.9951">app</text></g><!--MD5=[2198d3bfd14eba6d7379688992ec094c]
class TFTPServerState--><g id="elem_TFTPServerState"><rect codeLine="3" fill="#F1F1F1" height="153.4844" id="TFTPServerState" rx="2.5" ry="2.5" style="stroke:#181818;stroke-width:0.5;" width="151" x="411.5" y="41"/><ellipse cx="428.3" cy="57" fill="#EB937F" rx="11" ry="11" style="stroke:#181818;stroke-width:1.0;"/><path d="M432.4094,63 L424.6906,63 L424.6906,50.6094 L432.4094,50.6094 L432.4094,52.7656 L427.1438,52.7656 L427.1438,55.4375 L431.9094,55.4375 L431.9094,57.5938 L427.1438,57.5938 L427.1438,60.8438 L432.4094,60.8438 L432.4094,63 Z " fill="#000000"/><text fill="#000000" font-family="sans-serif" font-size="14" lengthAdjust="spacing" textLength="115" x="442.7" y="61.8467">TFTPServerState</text><line style="stroke:#181818;stroke-width:0.5;" x1="412.5" x2="561.5" y1="73" y2="73"/><text fill="#000000" font-family="sans-serif" font-size="14" lengthAdjust="spacing" textLength="139" x="417.5" y="89.9951">TFTPStateLaunched</text><line style="stroke:#181818;stroke-width:1.0;" x1="412.5" x2="561.5" y1="97.2969" y2="97.2969"/><text fill="#000000" font-family="sans-serif" font-size="14" lengthAdjust="spacing" textLength="130" x="417.5" y="114.292">TFTPStateStopped</text><line style="stroke:#181818;stroke-width:1.0;" x1="412.5" x2="561.5" y1="121.5938" y2="121.5938"/><text fill="#000000" font-family="sans-serif" font-size="14" lengthAdjust="spacing" textLength="104" x="417.5" y="138.5889">TFTPStateError</text><line style="stroke:#181818;stroke-width:1.0;" x1="412.5" x2="561.5" y1="145.8906" y2="145.8906"/><text fill="#000000" font-family="sans-serif" font-size="14" lengthAdjust="spacing" textLength="108" x="417.5" y="162.8857">TFTPStateNone</text><line style="stroke:#181818;stroke-width:1.0;" x1="412.5" x2="561.5" y1="170.1875" y2="170.1875"/><ellipse cx="422.5" cy="181.1875" fill="#84BE84" rx="3" ry="3" style="stroke:#038048;stroke-width:1.0;"/><text fill="#000000" font-family="sans-serif" font-size="14" lengthAdjust="spacing" textLength="68" x="431.5" y="187.1826">ToString()</text></g><!--MD5=[1045d07ae824aea072cabb0fb8284887]
class EntityUUID--><g id="elem_EntityUUID"><rect codeLine="5" fill="#F1F1F1" height="48" id="EntityUUID" rx="2.5" ry="2.5" style="stroke:#181818;stroke-width:0.5;" width="104" x="76" y="255"/><ellipse cx="91" cy="271" fill="#ADD1B2" rx="11" ry="11" style="stroke:#181818;stroke-width:1.0;"/><path d="M93.9688,276.6406 Q93.3906,276.9375 92.75,277.0781 Q92.1094,277.2344 91.4063,277.2344 Q88.9063,277.2344 87.5781,275.5938 Q86.2656,273.9375 86.2656,270.8125 Q86.2656,267.6875 87.5781,266.0313 Q88.9063,264.375 91.4063,264.375 Q92.1094,264.375 92.75,264.5313 Q93.4063,264.6875 93.9688,264.9844 L93.9688,267.7031 Q93.3438,267.125 92.75,266.8594 Q92.1563,266.5781 91.5313,266.5781 Q90.1875,266.5781 89.5,267.6563 Q88.8125,268.7188 88.8125,270.8125 Q88.8125,272.9063 89.5,273.9844 Q90.1875,275.0469 91.5313,275.0469 Q92.1563,275.0469 92.75,274.7813 Q93.3438,274.5 93.9688,273.9219 L93.9688,276.6406 Z " fill="#000000"/><text fill="#000000" font-family="sans-serif" font-size="14" lengthAdjust="spacing" textLength="72" x="105" y="275.8467">EntityUUID</text><line style="stroke:#181818;stroke-width:0.5;" x1="77" x2="179" y1="287" y2="287"/><line style="stroke:#181818;stroke-width:0.5;" x1="77" x2="179" y1="295" y2="295"/></g><!--MD5=[be996cdb8e6bf2fc7cb89c555f2cd144]
class Entity--><g id="elem_Entity"><rect codeLine="8" fill="#F1F1F1" height="129.1875" id="Entity" rx="2.5" ry="2.5" style="stroke:#181818;stroke-width:0.5;" width="208" x="24" y="380"/><ellipse cx="81.25" cy="396" fill="#ADD1B2" rx="11" ry="11" style="stroke:#181818;stroke-width:1.0;"/><path d="M84.2188,401.6406 Q83.6406,401.9375 83,402.0781 Q82.3594,402.2344 81.6563,402.2344 Q79.1563,402.2344 77.8281,400.5938 Q76.5156,398.9375 76.5156,395.8125 Q76.5156,392.6875 77.8281,391.0313 Q79.1563,389.375 81.6563,389.375 Q82.3594,389.375 83,389.5313 Q83.6563,389.6875 84.2188,389.9844 L84.2188,392.7031 Q83.5938,392.125 83,391.8594 Q82.4063,391.5781 81.7813,391.5781 Q80.4375,391.5781 79.75,392.6563 Q79.0625,393.7188 79.0625,395.8125 Q79.0625,397.9063 79.75,398.9844 Q80.4375,400.0469 81.7813,400.0469 Q82.4063,400.0469 83,399.7813 Q83.5938,399.5 84.2188,398.9219 L84.2188,401.6406 Z " fill="#000000"/><text fill="#000000" font-family="sans-serif" font-size="14" lengthAdjust="spacing" textLength="38" x="101.75" y="400.8467">Entity</text><rect fill="#FFFFFF" height="15.9688" style="stroke:#000000;stroke-width:1.0;stroke-dasharray:2.0,2.0;" width="45" x="190" y="377"/><text fill="#000000" font-family="sans-serif" font-size="12" font-style="italic" lengthAdjust="spacing" textLength="43" x="191" y="389.1387">IDType</text><line style="stroke:#181818;stroke-width:0.5;" x1="25" x2="231" y1="412" y2="412"/><ellipse cx="35" cy="423" fill="none" rx="3" ry="3" style="stroke:#038048;stroke-width:1.0;"/><text fill="#000000" font-family="sans-serif" font-size="14" lengthAdjust="spacing" textLength="66" x="44" y="428.9951">ID IDType</text><line style="stroke:#181818;stroke-width:1.0;" x1="25" x2="231" y1="436.2969" y2="436.2969"/><ellipse cx="35" cy="447.2969" fill="none" rx="3" ry="3" style="stroke:#038048;stroke-width:1.0;"/><text fill="#000000" font-family="sans-serif" font-size="14" lengthAdjust="spacing" textLength="141" x="44" y="453.292">CreatedAt time.Time</text><line style="stroke:#181818;stroke-width:1.0;" x1="25" x2="231" y1="460.5938" y2="460.5938"/><ellipse cx="35" cy="471.5938" fill="none" rx="3" ry="3" style="stroke:#038048;stroke-width:1.0;"/><text fill="#000000" font-family="sans-serif" font-size="14" lengthAdjust="spacing" textLength="152" x="44" y="477.5889">UpdatedAt *time.Time</text><line style="stroke:#181818;stroke-width:1.0;" x1="25" x2="231" y1="484.8906" y2="484.8906"/><ellipse cx="35" cy="495.8906" fill="none" rx="3" ry="3" style="stroke:#038048;stroke-width:1.0;"/><text fill="#000000" font-family="sans-serif" font-size="14" lengthAdjust="spacing" textLength="182" x="44" y="501.8857">DeletedAt gorm.DeletedAt</text></g><!--MD5=[66312c7dc3a7a5109fe9a86e1204a9bb]
class TFTPConfig--><g id="elem_TFTPConfig"><rect codeLine="5" fill="#F1F1F1" height="104.8906" id="TFTPConfig" rx="2.5" ry="2.5" style="stroke:#181818;stroke-width:0.5;" width="126" x="250" y="65"/><ellipse cx="271.75" cy="81" fill="#ADD1B2" rx="11" ry="11" style="stroke:#181818;stroke-width:1.0;"/><path d="M274.7188,86.6406 Q274.1406,86.9375 273.5,87.0781 Q272.8594,87.2344 272.1563,87.2344 Q269.6563,87.2344 268.3281,85.5938 Q267.0156,83.9375 267.0156,80.8125 Q267.0156,77.6875 268.3281,76.0313 Q269.6563,74.375 272.1563,74.375 Q272.8594,74.375 273.5,74.5313 Q274.1563,74.6875 274.7188,74.9844 L274.7188,77.7031 Q274.0938,77.125 273.5,76.8594 Q272.9063,76.5781 272.2813,76.5781 Q270.9375,76.5781 270.25,77.6563 Q269.5625,78.7188 269.5625,80.8125 Q269.5625,82.9063 270.25,83.9844 Q270.9375,85.0469 272.2813,85.0469 Q272.9063,85.0469 273.5,84.7813 Q274.0938,84.5 274.7188,83.9219 L274.7188,86.6406 Z " fill="#000000"/><text fill="#000000" font-family="sans-serif" font-size="14" lengthAdjust="spacing" textLength="79" x="287.25" y="85.8467">TFTPConfig</text><line style="stroke:#181818;stroke-width:0.5;" x1="251" x2="375" y1="97" y2="97"/><ellipse cx="261" cy="108" fill="none" rx="3" ry="3" style="stroke:#038048;stroke-width:1.0;"/><text fill="#000000" font-family="sans-serif" font-size="14" lengthAdjust="spacing" textLength="100" x="270" y="113.9951">Address string</text><line style="stroke:#181818;stroke-width:1.0;" x1="251" x2="375" y1="121.2969" y2="121.2969"/><ellipse cx="261" cy="132.2969" fill="none" rx="3" ry="3" style="stroke:#038048;stroke-width:1.0;"/><text fill="#000000" font-family="sans-serif" font-size="14" lengthAdjust="spacing" textLength="71" x="270" y="138.292">Port string</text><line style="stroke:#181818;stroke-width:1.0;" x1="251" x2="375" y1="145.5938" y2="145.5938"/><ellipse cx="261" cy="156.5938" fill="none" rx="3" ry="3" style="stroke:#038048;stroke-width:1.0;"/><text fill="#000000" font-family="sans-serif" font-size="14" lengthAdjust="spacing" textLength="90" x="270" y="162.5889">Enabled bool</text></g><!--MD5=[caf42e0349c1b51ba90b5c83755b2009]
class TFTPPathRatio--><g id="elem_TFTPPathRatio"><rect codeLine="5" fill="#F1F1F1" height="104.8906" id="TFTPPathRatio" rx="2.5" ry="2.5" style="stroke:#181818;stroke-width:0.5;" width="191" x="23.5" y="65"/><ellipse cx="64.6" cy="81" fill="#ADD1B2" rx="11" ry="11" style="stroke:#181818;stroke-width:1.0;"/><path d="M67.5688,86.6406 Q66.9906,86.9375 66.35,87.0781 Q65.7094,87.2344 65.0063,87.2344 Q62.5062,87.2344 61.1781,85.5938 Q59.8656,83.9375 59.8656,80.8125 Q59.8656,77.6875 61.1781,76.0313 Q62.5062,74.375 65.0063,74.375 Q65.7094,74.375 66.35,74.5313 Q67.0063,74.6875 67.5688,74.9844 L67.5688,77.7031 Q66.9438,77.125 66.35,76.8594 Q65.7563,76.5781 65.1313,76.5781 Q63.7875,76.5781 63.1,77.6563 Q62.4125,78.7188 62.4125,80.8125 Q62.4125,82.9063 63.1,83.9844 Q63.7875,85.0469 65.1313,85.0469 Q65.7563,85.0469 66.35,84.7813 Q66.9438,84.5 67.5688,83.9219 L67.5688,86.6406 Z " fill="#000000"/><text fill="#000000" font-family="sans-serif" font-size="14" lengthAdjust="spacing" textLength="101" x="84.4" y="85.8467">TFTPPathRatio</text><line style="stroke:#181818;stroke-width:0.5;" x1="24.5" x2="213.5" y1="97" y2="97"/><ellipse cx="34.5" cy="108" fill="none" rx="3" ry="3" style="stroke:#038048;stroke-width:1.0;"/><text fill="#000000" font-family="sans-serif" font-size="14" lengthAdjust="spacing" textLength="165" x="43.5" y="113.9951">TFTPConfigID uuid.UUID</text><line style="stroke:#181818;stroke-width:1.0;" x1="24.5" x2="213.5" y1="121.2969" y2="121.2969"/><ellipse cx="34.5" cy="132.2969" fill="none" rx="3" ry="3" style="stroke:#038048;stroke-width:1.0;"/><text fill="#000000" font-family="sans-serif" font-size="14" lengthAdjust="spacing" textLength="116" x="43.5" y="138.292">ActualPath string</text><line style="stroke:#181818;stroke-width:1.0;" x1="24.5" x2="213.5" y1="145.5938" y2="145.5938"/><ellipse cx="34.5" cy="156.5938" fill="none" rx="3" ry="3" style="stroke:#038048;stroke-width:1.0;"/><text fill="#000000" font-family="sans-serif" font-size="14" lengthAdjust="spacing" textLength="116" x="43.5" y="162.5889">VirtualPath string</text></g><!--MD5=[2a39a5be1cc24ddddd6e6286e4ece992]
class IEntityModel--><g id="elem_IEntityModel"><rect codeLine="3" fill="#F1F1F1" height="129.1875" id="IEntityModel" rx="2.5" ry="2.5" style="stroke:#181818;stroke-width:0.5;" width="213" x="21.5" y="616.5"/><ellipse cx="58.55" cy="632.5" fill="#B4A7E5" rx="11" ry="11" style="stroke:#181818;stroke-width:1.0;"/><path d="M54.4719,628.2656 L54.4719,626.1094 L61.8625,626.1094 L61.8625,628.2656 L59.3938,628.2656 L59.3938,636.3438 L61.8625,636.3438 L61.8625,638.5 L54.4719,638.5 L54.4719,636.3438 L56.9406,636.3438 L56.9406,628.2656 L54.4719,628.2656 Z " fill="#000000"/><text fill="#000000" font-family="sans-serif" font-size="14" font-style="italic" lengthAdjust="spacing" textLength="85" x="77.45" y="637.3467">IEntityModel</text><rect fill="#FFFFFF" height="15.9688" style="stroke:#000000;stroke-width:1.0;stroke-dasharray:2.0,2.0;" width="45" x="192.5" y="613.5"/><text fill="#000000" font-family="sans-serif" font-size="12" font-style="italic" lengthAdjust="spacing" textLength="43" x="193.5" y="625.6387">IDType</text><line style="stroke:#181818;stroke-width:0.5;" x1="22.5" x2="233.5" y1="648.5" y2="648.5"/><ellipse cx="32.5" cy="659.5" fill="#84BE84" rx="3" ry="3" style="stroke:#038048;stroke-width:1.0;"/><text fill="#000000" font-family="sans-serif" font-size="14" lengthAdjust="spacing" textLength="101" x="41.5" y="665.4951">GetID() IDType</text><line style="stroke:#181818;stroke-width:1.0;" x1="22.5" x2="233.5" y1="672.7969" y2="672.7969"/><ellipse cx="32.5" cy="683.7969" fill="#84BE84" rx="3" ry="3" style="stroke:#038048;stroke-width:1.0;"/><text fill="#000000" font-family="sans-serif" font-size="14" lengthAdjust="spacing" textLength="176" x="41.5" y="689.792">GetCreatedAt() time.Time</text><line style="stroke:#181818;stroke-width:1.0;" x1="22.5" x2="233.5" y1="697.0938" y2="697.0938"/><ellipse cx="32.5" cy="708.0938" fill="#84BE84" rx="3" ry="3" style="stroke:#038048;stroke-width:1.0;"/><text fill="#000000" font-family="sans-serif" font-size="14" lengthAdjust="spacing" textLength="187" x="41.5" y="714.0889">GetUpdatedAt() *time.Time</text><line style="stroke:#181818;stroke-width:1.0;" x1="22.5" x2="233.5" y1="721.3906" y2="721.3906"/><ellipse cx="32.5" cy="732.3906" fill="#84BE84" rx="3" ry="3" style="stroke:#038048;stroke-width:1.0;"/><text fill="#000000" font-family="sans-serif" font-size="14" lengthAdjust="spacing" textLength="183" x="41.5" y="738.3857">GetDeletedAt() *time.Time</text></g><!--MD5=[226a31cae08f7d2a88b638458847f8bd]
class ITFTPServer--><g id="elem_ITFTPServer"><rect codeLine="7" fill="#F1F1F1" height="153.4844" id="ITFTPServer" rx="2.5" ry="2.5" style="stroke:#181818;stroke-width:0.5;" width="332" x="666" y="604.5"/><ellipse cx="786.25" cy="620.5" fill="#B4A7E5" rx="11" ry="11" style="stroke:#181818;stroke-width:1.0;"/><path d="M782.1719,616.2656 L782.1719,614.1094 L789.5625,614.1094 L789.5625,616.2656 L787.0938,616.2656 L787.0938,624.3438 L789.5625,624.3438 L789.5625,626.5 L782.1719,626.5 L782.1719,624.3438 L784.6406,624.3438 L784.6406,616.2656 L782.1719,616.2656 Z " fill="#000000"/><text fill="#000000" font-family="sans-serif" font-size="14" font-style="italic" lengthAdjust="spacing" textLength="83" x="806.75" y="625.3467">ITFTPServer</text><line style="stroke:#181818;stroke-width:0.5;" x1="667" x2="997" y1="636.5" y2="636.5"/><ellipse cx="677" cy="647.5" fill="#84BE84" rx="3" ry="3" style="stroke:#038048;stroke-width:1.0;"/><text fill="#000000" font-family="sans-serif" font-size="14" lengthAdjust="spacing" textLength="282" x="686" y="653.4951">ReloadConfig(config domain.TFTPConfig)</text><line style="stroke:#181818;stroke-width:1.0;" x1="667" x2="997" y1="660.7969" y2="660.7969"/><ellipse cx="677" cy="671.7969" fill="#84BE84" rx="3" ry="3" style="stroke:#038048;stroke-width:1.0;"/><text fill="#000000" font-family="sans-serif" font-size="14" lengthAdjust="spacing" textLength="306" x="686" y="677.792">ReloadPaths(paths []domain.TFTPPathRatio)</text><line style="stroke:#181818;stroke-width:1.0;" x1="667" x2="997" y1="685.0938" y2="685.0938"/><ellipse cx="677" cy="696.0938" fill="#84BE84" rx="3" ry="3" style="stroke:#038048;stroke-width:1.0;"/><text fill="#000000" font-family="sans-serif" font-size="14" lengthAdjust="spacing" textLength="79" x="686" y="702.0889">Start() error</text><line style="stroke:#181818;stroke-width:1.0;" x1="667" x2="997" y1="709.3906" y2="709.3906"/><ellipse cx="677" cy="720.3906" fill="#84BE84" rx="3" ry="3" style="stroke:#038048;stroke-width:1.0;"/><text fill="#000000" font-family="sans-serif" font-size="14" lengthAdjust="spacing" textLength="42" x="686" y="726.3857">Stop()</text><line style="stroke:#181818;stroke-width:1.0;" x1="667" x2="997" y1="733.6875" y2="733.6875"/><ellipse cx="677" cy="744.6875" fill="#84BE84" rx="3" ry="3" style="stroke:#038048;stroke-width:1.0;"/><text fill="#000000" font-family="sans-serif" font-size="14" lengthAdjust="spacing" textLength="245" x="686" y="750.6826">GetState() domain.TFTPServerState</text></g><path d="M269.5,593 L269.5,618.1328 A0,0 0 0 0 269.5,618.1328 L594.5,618.1328 A0,0 0 0 0 594.5,618.1328 L594.5,611 L670,648.6484 L594.5,603 L594.5,603 L584.5,593 L269.5,593 A0,0 0 0 0 269.5,593 " fill="#FEFFDD" style="stroke:#181818;stroke-width:0.5;"/><path d="M584.5,593 L584.5,603 L594.5,603 L584.5,593 " fill="#FEFFDD" style="stroke:#181818;stroke-width:0.5;"/><text fill="#000000" font-family="sans-serif" font-size="13" lengthAdjust="spacing" textLength="304" x="275.5" y="610.0669">Reload configuration for TFTP server from config</text><path d="M269.5,628.1328 L269.5,653.2656 A0,0 0 0 0 269.5,653.2656 L630.5,653.2656 A0,0 0 0 0 630.5,653.2656 L630.5,646.1328 L670,672.9453 L630.5,638.1328 L630.5,638.1328 L620.5,628.1328 L269.5,628.1328 A0,0 0 0 0 269.5,628.1328 " fill="#FEFFDD" style="stroke:#181818;stroke-width:0.5;"/><path d="M620.5,628.1328 L620.5,638.1328 L630.5,638.1328 L620.5,628.1328 " fill="#FEFFDD" style="stroke:#181818;stroke-width:0.5;"/><text fill="#000000" font-family="sans-serif" font-size="13" lengthAdjust="spacing" textLength="340" x="275.5" y="645.1997">Reload file paths configuration for TFTP server (On fly)</text><path d="M269.5,663.2656 L269.5,688.3984 A0,0 0 0 0 269.5,688.3984 L399.5,688.3984 A0,0 0 0 0 399.5,688.3984 L399.5,681.2656 L670,697.2422 L399.5,673.2656 L399.5,673.2656 L389.5,663.2656 L269.5,663.2656 A0,0 0 0 0 269.5,663.2656 " fill="#FEFFDD" style="stroke:#181818;stroke-width:0.5;"/><path d="M389.5,663.2656 L389.5,673.2656 L399.5,673.2656 L389.5,663.2656 " fill="#FEFFDD" style="stroke:#181818;stroke-width:0.5;"/><text fill="#000000" font-family="sans-serif" font-size="13" lengthAdjust="spacing" textLength="109" x="275.5" y="680.3325">Start TFTP server</text><path d="M269.5,698.3984 L269.5,723.5313 A0,0 0 0 0 269.5,723.5313 L397.5,723.5313 A0,0 0 0 0 397.5,723.5313 L397.5,716.3984 L670,721.5391 L397.5,708.3984 L397.5,708.3984 L387.5,698.3984 L269.5,698.3984 A0,0 0 0 0 269.5,698.3984 " fill="#FEFFDD" style="stroke:#181818;stroke-width:0.5;"/><path d="M387.5,698.3984 L387.5,708.3984 L397.5,708.3984 L387.5,698.3984 " fill="#FEFFDD" style="stroke:#181818;stroke-width:0.5;"/><text fill="#000000" font-family="sans-serif" font-size="13" lengthAdjust="spacing" textLength="107" x="275.5" y="715.4653">Stop TFTP server</text><path d="M269.5,733.5313 L269.5,758.6641 A0,0 0 0 0 269.5,758.6641 L493.5,758.6641 A0,0 0 0 0 493.5,758.6641 L493.5,751.5313 L670,745.8359 L493.5,743.5313 L493.5,743.5313 L483.5,733.5313 L269.5,733.5313 A0,0 0 0 0 269.5,733.5313 " fill="#FEFFDD" style="stroke:#181818;stroke-width:0.5;"/><path d="M483.5,733.5313 L483.5,743.5313 L493.5,743.5313 L483.5,733.5313 " fill="#FEFFDD" style="stroke:#181818;stroke-width:0.5;"/><text fill="#000000" font-family="sans-serif" font-size="13" lengthAdjust="spacing" textLength="203" x="275.5" y="750.5981">Get current state of TFTP server</text><!--MD5=[4afd32b9c3a651e50eee9a88aa9ac7c6]
link EntityUUID to Entity--><g id="link_EntityUUID_Entity"><path codeLine="7" d="M128,303.08 C128,319.86 128,343.61 128,366.82 " fill="none" id="EntityUUID-to-Entity" style="stroke:#181818;stroke-width:1.0;"/><polygon fill="#181818" points="128,379.98,132,373.98,128,367.98,124,373.98,128,379.98" style="stroke:#181818;stroke-width:1.0;"/><text fill="#000000" font-family="sans-serif" font-size="13" lengthAdjust="spacing" textLength="125" x="129" y="346.0669">IDType is uuid.UUID</text></g><!--MD5=[a6c7a0eda5b041e127f539f1664bb96a]
link Entity to IEntityModel--><g id="link_Entity_IEntityModel"><path codeLine="17" d="M128,509.27 C128,536.01 128,567.47 128,596.05 " fill="none" id="Entity-to-IEntityModel" style="stroke:#181818;stroke-width:1.0;stroke-dasharray:7.0,7.0;"/><polygon fill="none" points="135,596.24,128,616.24,121,596.24,135,596.24" style="stroke:#181818;stroke-width:1.0;"/></g><!--MD5=[c4f6a66c75aa5a5930f9ad521c3ff88d]
link TFTPConfig to EntityUUID--><g id="link_TFTPConfig_EntityUUID"><path codeLine="12" d="M258.58,170.21 C249.79,178.28 240.71,186.44 232,194 C211.44,211.84 187.89,230.97 168.41,246.45 " fill="none" id="TFTPConfig-to-EntityUUID" style="stroke:#181818;stroke-width:1.0;"/><polygon fill="#181818" points="158.05,254.65,165.2373,254.0648,167.4615,247.2053,160.2742,247.7905,158.05,254.65" style="stroke:#181818;stroke-width:1.0;"/></g><!--MD5=[1907dee3a2135422184dd65ec3cf3102]
link TFTPPathRatio to EntityUUID--><g id="link_TFTPPathRatio_EntityUUID"><path codeLine="12" d="M121.92,170.29 C123.24,193.6 124.76,220.57 125.95,241.69 " fill="none" id="TFTPPathRatio-to-EntityUUID" style="stroke:#181818;stroke-width:1.0;"/><polygon fill="#181818" points="126.7,254.95,130.3576,248.7354,126.0278,242.9688,122.3702,249.1835,126.7,254.95" style="stroke:#181818;stroke-width:1.0;"/></g><!--MD5=[02e7dee03f5c86470193a2cb4ca2dcf4]
@startuml

!include ../entities/TFTPServerState.puml
!include ../entities/TFTPConfig.puml
!include ../entities/TFTPPathRatio.puml

package app {
    interface ITFTPServer {
        +ReloadConfig(config domain.TFTPConfig)
        - -
        +ReloadPaths(paths []domain.TFTPPathRatio)
        - -
        +Start() error
        - -
        +Stop()
        - -
        +GetState() domain.TFTPServerState
    }

    note left of ITFTPServer::ReloadConfig
    Reload configuration for TFTP server from config
    end note

    note left of ITFTPServer::ReloadPaths
    Reload file paths configuration for TFTP server (On fly)
    end note

    note left of ITFTPServer::Start
    Start TFTP server
    end note

    note left of ITFTPServer::Stop
    Stop TFTP server
    end note

    note left of ITFTPServer::GetState
    Get current state of TFTP server
    end note
}

@enduml

@startuml


package domain {
    enum TFTPServerState {
            TFTPStateLaunched
            - -
            TFTPStateStopped
            - -
            TFTPStateError
            - -
            TFTPStateNone
            - -
            +ToString()
    }
}




package app {
    interface IEntityModel<IDType> {
        +GetID() IDType
        - -
        +GetCreatedAt() time.Time
        - -
        +GetUpdatedAt() *time.Time
        - -
        +GetDeletedAt() *time.Time
    }
}


package domain {
    class EntityUUID {
    }
    EntityUUID - -* Entity : IDType is uuid.UUID
    class Entity<IDType> {
        +ID IDType
        - -
        +CreatedAt time.Time
        - -
        +UpdatedAt *time.Time
        - -
        +DeletedAt gorm.DeletedAt
    }
    Entity .down.|> IEntityModel
}


package domain {
    class TFTPConfig {
        +Address string
        - -
        +Port string
        - -
        +Enabled bool
    }
    TFTPConfig -down-* EntityUUID
}



package domain {
    class TFTPPathRatio {
        +TFTPConfigID uuid.UUID
        - -
        +ActualPath string
        - -
        +VirtualPath string
    }
    TFTPPathRatio -down-* EntityUUID
}


package app {
    interface ITFTPServer {
        +ReloadConfig(config domain.TFTPConfig)
        - -
        +ReloadPaths(paths []domain.TFTPPathRatio)
        - -
        +Start() error
        - -
        +Stop()
        - -
        +GetState() domain.TFTPServerState
    }

    note left of ITFTPServer::ReloadConfig
    Reload configuration for TFTP server from config
    end note

    note left of ITFTPServer::ReloadPaths
    Reload file paths configuration for TFTP server (On fly)
    end note

    note left of ITFTPServer::Start
    Start TFTP server
    end note

    note left of ITFTPServer::Stop
    Stop TFTP server
    end note

    note left of ITFTPServer::GetState
    Get current state of TFTP server
    end note
}

@enduml

PlantUML version 1.2022.6(Tue Jun 21 17:34:49 EGST 2022)
(GPL source distribution)
Java Runtime: OpenJDK Runtime Environment
JVM: OpenJDK 64-Bit Server VM
Default Encoding: UTF-8
Language: en
Country: US
--></g></svg>