<?xml version="1.0" encoding="UTF-8" standalone="no"?><svg xmlns="http://www.w3.org/2000/svg" xmlns:xlink="http://www.w3.org/1999/xlink" contentStyleType="text/css" height="128px" preserveAspectRatio="none" style="width:745px;height:128px;background:#FFFFFF;" version="1.1" viewBox="0 0 745 128" width="745px" zoomAndPan="magnify"><defs/><g><!--MD5=[d5ac3844f66b12d9e08170e47495e096]
cluster app--><g id="cluster_app"><path d="M8.5,6 L38.5,6 A3.75,3.75 0 0 1 41,8.5 L48,28.2969 L735.5,28.2969 A2.5,2.5 0 0 1 738,30.7969 L738,118.5 A2.5,2.5 0 0 1 735.5,121 L8.5,121 A2.5,2.5 0 0 1 6,118.5 L6,8.5 A2.5,2.5 0 0 1 8.5,6 " style="stroke:#000000;stroke-width:1.5;fill:none;"/><line style="stroke:#000000;stroke-width:1.5;fill:none;" x1="6" x2="48" y1="28.2969" y2="28.2969"/><text fill="#000000" font-family="sans-serif" font-size="14" font-weight="bold" lengthAdjust="spacing" textLength="29" x="10" y="20.9951">app</text></g><!--MD5=[d26211df6002f5e4d066386f3bad4348]
class ITFTPServerFactory--><g id="elem_ITFTPServerFactory"><rect codeLine="3" fill="#F1F1F1" height="64.2969" id="ITFTPServerFactory" rx="2.5" ry="2.5" style="stroke:#181818;stroke-width:0.5;" width="471" x="251.5" y="41"/><ellipse cx="415.75" cy="57" fill="#B4A7E5" rx="11" ry="11" style="stroke:#181818;stroke-width:1.0;"/><path d="M411.6719,52.7656 L411.6719,50.6094 L419.0625,50.6094 L419.0625,52.7656 L416.5938,52.7656 L416.5938,60.8438 L419.0625,60.8438 L419.0625,63 L411.6719,63 L411.6719,60.8438 L414.1406,60.8438 L414.1406,52.7656 L411.6719,52.7656 Z " fill="#000000"/><text fill="#000000" font-family="sans-serif" font-size="14" font-style="italic" lengthAdjust="spacing" textLength="134" x="436.25" y="61.8467">ITFTPServerFactory</text><line style="stroke:#181818;stroke-width:0.5;" x1="252.5" x2="721.5" y1="73" y2="73"/><line style="stroke:#181818;stroke-width:0.5;" x1="252.5" x2="721.5" y1="81" y2="81"/><ellipse cx="262.5" cy="92" fill="#84BE84" rx="3" ry="3" style="stroke:#038048;stroke-width:1.0;"/><text fill="#000000" font-family="sans-serif" font-size="14" lengthAdjust="spacing" textLength="445" x="271.5" y="97.9951">Create(config domain.TFTPConfig) (interfaces.ITFTPServer, error)</text></g><path d="M21.5,55.5 L21.5,80.6328 A0,0 0 0 0 21.5,80.6328 L216.5,80.6328 A0,0 0 0 0 216.5,80.6328 L216.5,73.5 L255.5,93.1484 L216.5,65.5 L216.5,65.5 L206.5,55.5 L21.5,55.5 A0,0 0 0 0 21.5,55.5 " fill="#FEFFDD" style="stroke:#181818;stroke-width:0.5;"/><path d="M206.5,55.5 L206.5,65.5 L216.5,65.5 L206.5,55.5 " fill="#FEFFDD" style="stroke:#181818;stroke-width:0.5;"/><text fill="#000000" font-family="sans-serif" font-size="13" lengthAdjust="spacing" textLength="174" x="27.5" y="72.5669">Create runtime TFTP server</text><!--MD5=[521e50269545bcfb7e377b869b0b3739]
@startuml

package app {
    interface ITFTPServerFactory {
        +Create(config domain.TFTPConfig) (interfaces.ITFTPServer, error)
    }

    note left of ITFTPServerFactory::Create
    Create runtime TFTP server
    end note
}

@enduml

PlantUML version 1.2022.6(Tue Jun 21 17:34:49 EGST 2022)
(GPL source distribution)
Java Runtime: OpenJDK Runtime Environment
JVM: OpenJDK 64-Bit Server VM
Default Encoding: UTF-8
Language: en
Country: US
--></g></svg>