<?xml version="1.0" encoding="UTF-8" standalone="no"?><svg xmlns="http://www.w3.org/2000/svg" xmlns:xlink="http://www.w3.org/1999/xlink" contentStyleType="text/css" height="275px" preserveAspectRatio="none" style="width:403px;height:275px;background:#FFFFFF;" version="1.1" viewBox="0 0 403 275" width="403px" zoomAndPan="magnify"><defs/><g><!--MD5=[a203eca1f0769929ae1344e0135bff6b]
class BaseDto--><g id="elem_BaseDto"><rect codeLine="2" fill="#F1F1F1" height="104.8906" id="BaseDto" rx="2.5" ry="2.5" style="stroke:#181818;stroke-width:0.5;" width="157" x="7" y="139"/><ellipse cx="51.25" cy="155" fill="#ADD1B2" rx="11" ry="11" style="stroke:#181818;stroke-width:1.0;"/><path d="M54.2188,160.6406 Q53.6406,160.9375 53,161.0781 Q52.3594,161.2344 51.6563,161.2344 Q49.1563,161.2344 47.8281,159.5938 Q46.5156,157.9375 46.5156,154.8125 Q46.5156,151.6875 47.8281,150.0313 Q49.1563,148.375 51.6563,148.375 Q52.3594,148.375 53,148.5313 Q53.6563,148.6875 54.2188,148.9844 L54.2188,151.7031 Q53.5938,151.125 53,150.8594 Q52.4063,150.5781 51.7813,150.5781 Q50.4375,150.5781 49.75,151.6563 Q49.0625,152.7188 49.0625,154.8125 Q49.0625,156.9063 49.75,157.9844 Q50.4375,159.0469 51.7813,159.0469 Q52.4063,159.0469 53,158.7813 Q53.5938,158.5 54.2188,157.9219 L54.2188,160.6406 Z " fill="#000000"/><text fill="#000000" font-family="sans-serif" font-size="14" lengthAdjust="spacing" textLength="60" x="71.75" y="159.8467">BaseDto</text><line style="stroke:#181818;stroke-width:0.5;" x1="8" x2="163" y1="171" y2="171"/><text fill="#000000" font-family="sans-serif" font-size="14" lengthAdjust="spacing" textLength="84" x="13" y="187.9951">Id uuid.UUID</text><line style="stroke:#181818;stroke-width:1.0;" x1="8" x2="163" y1="195.2969" y2="195.2969"/><text fill="#000000" font-family="sans-serif" font-size="14" lengthAdjust="spacing" textLength="141" x="13" y="212.292">CreatedAt time.Time</text><line style="stroke:#181818;stroke-width:1.0;" x1="8" x2="163" y1="219.5938" y2="219.5938"/><text fill="#000000" font-family="sans-serif" font-size="14" lengthAdjust="spacing" textLength="145" x="13" y="236.5889">UpdatedAt time.Time</text></g><!--MD5=[4f15965369cf1e2d28449fc0d2ee4583]
class EthernetSwitchBaseDto--><g id="elem_EthernetSwitchBaseDto"><rect codeLine="2" fill="#F1F1F1" height="153.4844" id="EthernetSwitchBaseDto" rx="2.5" ry="2.5" style="stroke:#181818;stroke-width:0.5;" width="197" x="199" y="115"/><ellipse cx="214" cy="131" fill="#ADD1B2" rx="11" ry="11" style="stroke:#181818;stroke-width:1.0;"/><path d="M216.9688,136.6406 Q216.3906,136.9375 215.75,137.0781 Q215.1094,137.2344 214.4063,137.2344 Q211.9063,137.2344 210.5781,135.5938 Q209.2656,133.9375 209.2656,130.8125 Q209.2656,127.6875 210.5781,126.0313 Q211.9063,124.375 214.4063,124.375 Q215.1094,124.375 215.75,124.5313 Q216.4063,124.6875 216.9688,124.9844 L216.9688,127.7031 Q216.3438,127.125 215.75,126.8594 Q215.1563,126.5781 214.5313,126.5781 Q213.1875,126.5781 212.5,127.6563 Q211.8125,128.7188 211.8125,130.8125 Q211.8125,132.9063 212.5,133.9844 Q213.1875,135.0469 214.5313,135.0469 Q215.1563,135.0469 215.75,134.7813 Q216.3438,134.5 216.9688,133.9219 L216.9688,136.6406 Z " fill="#000000"/><text fill="#000000" font-family="sans-serif" font-size="14" lengthAdjust="spacing" textLength="165" x="228" y="135.8467">EthernetSwitchBaseDto</text><line style="stroke:#181818;stroke-width:0.5;" x1="200" x2="395" y1="147" y2="147"/><text fill="#000000" font-family="sans-serif" font-size="14" lengthAdjust="spacing" textLength="83" x="205" y="163.9951">Name string</text><line style="stroke:#181818;stroke-width:1.0;" x1="200" x2="395" y1="171.2969" y2="171.2969"/><text fill="#000000" font-family="sans-serif" font-size="14" lengthAdjust="spacing" textLength="80" x="205" y="188.292">Serial string</text><line style="stroke:#181818;stroke-width:1.0;" x1="200" x2="395" y1="195.5938" y2="195.5938"/><text fill="#000000" font-family="sans-serif" font-size="14" lengthAdjust="spacing" textLength="108" x="205" y="212.5889">SwitchModel int</text><line style="stroke:#181818;stroke-width:1.0;" x1="200" x2="395" y1="219.8906" y2="219.8906"/><text fill="#000000" font-family="sans-serif" font-size="14" lengthAdjust="spacing" textLength="100" x="205" y="236.8857">Address string</text><line style="stroke:#181818;stroke-width:1.0;" x1="200" x2="395" y1="244.1875" y2="244.1875"/><text fill="#000000" font-family="sans-serif" font-size="14" lengthAdjust="spacing" textLength="114" x="205" y="261.1826">Username string</text></g><!--MD5=[b580cc5ff93fe4dac06272a8d0848e45]
class EthernetSwitchDto--><g id="elem_EthernetSwitchDto"><rect codeLine="4" fill="#F1F1F1" height="48" id="EthernetSwitchDto" rx="2.5" ry="2.5" style="stroke:#181818;stroke-width:0.5;" width="162" x="110.5" y="7"/><ellipse cx="125.5" cy="23" fill="#ADD1B2" rx="11" ry="11" style="stroke:#181818;stroke-width:1.0;"/><path d="M128.4688,28.6406 Q127.8906,28.9375 127.25,29.0781 Q126.6094,29.2344 125.9063,29.2344 Q123.4063,29.2344 122.0781,27.5938 Q120.7656,25.9375 120.7656,22.8125 Q120.7656,19.6875 122.0781,18.0313 Q123.4063,16.375 125.9063,16.375 Q126.6094,16.375 127.25,16.5313 Q127.9063,16.6875 128.4688,16.9844 L128.4688,19.7031 Q127.8438,19.125 127.25,18.8594 Q126.6563,18.5781 126.0313,18.5781 Q124.6875,18.5781 124,19.6563 Q123.3125,20.7188 123.3125,22.8125 Q123.3125,24.9063 124,25.9844 Q124.6875,27.0469 126.0313,27.0469 Q126.6563,27.0469 127.25,26.7813 Q127.8438,26.5 128.4688,25.9219 L128.4688,28.6406 Z " fill="#000000"/><text fill="#000000" font-family="sans-serif" font-size="14" lengthAdjust="spacing" textLength="130" x="139.5" y="27.8467">EthernetSwitchDto</text><line style="stroke:#181818;stroke-width:0.5;" x1="111.5" x2="271.5" y1="39" y2="39"/><line style="stroke:#181818;stroke-width:0.5;" x1="111.5" x2="271.5" y1="47" y2="47"/></g><!--MD5=[6bf161d5d82c89736978c43fe1a3709e]
reverse link EthernetSwitchDto to EthernetSwitchBaseDto--><g id="link_EthernetSwitchDto_EthernetSwitchBaseDto"><path codeLine="7" d="M214.15,65.87 C223.76,80.23 235.38,97.61 246.85,114.76 " fill="none" id="EthernetSwitchDto-backto-EthernetSwitchBaseDto" style="stroke:#181818;stroke-width:1.0;"/><polygon fill="#181818" points="206.91,55.05,206.9232,62.2611,213.5847,65.0224,213.5715,57.8113,206.91,55.05" style="stroke:#181818;stroke-width:1.0;"/></g><!--MD5=[0e78105d1e39f3b405a577ea8acef75d]
reverse link EthernetSwitchDto to BaseDto--><g id="link_EthernetSwitchDto_BaseDto"><path codeLine="8" d="M168.69,66.11 C154.49,87.34 135.96,115.05 119.99,138.93 " fill="none" id="EthernetSwitchDto-backto-BaseDto" style="stroke:#181818;stroke-width:1.0;"/><polygon fill="#181818" points="176.09,55.05,169.4285,57.8113,169.4153,65.0224,176.0768,62.2611,176.09,55.05" style="stroke:#181818;stroke-width:1.0;"/></g><!--MD5=[f1d1b9b1c638404a3243c38924a73865]
@startuml EthernetSwitchDto
!include ../BaseDto.puml
!include EthernetSwitchBaseDto.puml

class EthernetSwitchDto {

}
EthernetSwitchDto *- - EthernetSwitchBaseDto
EthernetSwitchDto *- - BaseDto

@enduml

@startuml EthernetSwitchDto

class BaseDto {
    Id uuid.UUID
    - -
    CreatedAt time.Time
    - -
    UpdatedAt time.Time
}


class EthernetSwitchBaseDto {
    Name string
    - -
    Serial string
    - -
    SwitchModel int
    - -
    Address string
    - -
    Username string
}


class EthernetSwitchDto {

}
EthernetSwitchDto *- - EthernetSwitchBaseDto
EthernetSwitchDto *- - BaseDto

@enduml

PlantUML version 1.2022.4(Sat Apr 09 13:29:17 UTC 2022)
(GPL source distribution)
Java Runtime: OpenJDK Runtime Environment
JVM: OpenJDK 64-Bit Server VM
Default Encoding: UTF-8
Language: en
Country: null
--></g></svg>