<?xml version="1.0" encoding="UTF-8" standalone="no"?><svg xmlns="http://www.w3.org/2000/svg" xmlns:xlink="http://www.w3.org/1999/xlink" contentStyleType="text/css" height="174px" preserveAspectRatio="none" style="width:218px;height:174px;background:#FFFFFF;" version="1.1" viewBox="0 0 218 174" width="218px" zoomAndPan="magnify"><defs/><g><!--MD5=[4f15965369cf1e2d28449fc0d2ee4583]
class EthernetSwitchBaseDto--><g id="elem_EthernetSwitchBaseDto"><rect codeLine="2" fill="#F1F1F1" height="153.4844" id="EthernetSwitchBaseDto" rx="2.5" ry="2.5" style="stroke:#181818;stroke-width:0.5;" width="197" x="7" y="7"/><ellipse cx="22" cy="23" fill="#ADD1B2" rx="11" ry="11" style="stroke:#181818;stroke-width:1.0;"/><path d="M24.9688,28.6406 Q24.3906,28.9375 23.75,29.0781 Q23.1094,29.2344 22.4063,29.2344 Q19.9063,29.2344 18.5781,27.5938 Q17.2656,25.9375 17.2656,22.8125 Q17.2656,19.6875 18.5781,18.0313 Q19.9063,16.375 22.4063,16.375 Q23.1094,16.375 23.75,16.5313 Q24.4063,16.6875 24.9688,16.9844 L24.9688,19.7031 Q24.3438,19.125 23.75,18.8594 Q23.1563,18.5781 22.5313,18.5781 Q21.1875,18.5781 20.5,19.6563 Q19.8125,20.7188 19.8125,22.8125 Q19.8125,24.9063 20.5,25.9844 Q21.1875,27.0469 22.5313,27.0469 Q23.1563,27.0469 23.75,26.7813 Q24.3438,26.5 24.9688,25.9219 L24.9688,28.6406 Z " fill="#000000"/><text fill="#000000" font-family="sans-serif" font-size="14" lengthAdjust="spacing" textLength="165" x="36" y="27.8467">EthernetSwitchBaseDto</text><line style="stroke:#181818;stroke-width:0.5;" x1="8" x2="203" y1="39" y2="39"/><text fill="#000000" font-family="sans-serif" font-size="14" lengthAdjust="spacing" textLength="83" x="13" y="55.9951">Name string</text><line style="stroke:#181818;stroke-width:1.0;" x1="8" x2="203" y1="63.2969" y2="63.2969"/><text fill="#000000" font-family="sans-serif" font-size="14" lengthAdjust="spacing" textLength="80" x="13" y="80.292">Serial string</text><line style="stroke:#181818;stroke-width:1.0;" x1="8" x2="203" y1="87.5938" y2="87.5938"/><text fill="#000000" font-family="sans-serif" font-size="14" lengthAdjust="spacing" textLength="108" x="13" y="104.5889">SwitchModel int</text><line style="stroke:#181818;stroke-width:1.0;" x1="8" x2="203" y1="111.8906" y2="111.8906"/><text fill="#000000" font-family="sans-serif" font-size="14" lengthAdjust="spacing" textLength="100" x="13" y="128.8857">Address string</text><line style="stroke:#181818;stroke-width:1.0;" x1="8" x2="203" y1="136.1875" y2="136.1875"/><text fill="#000000" font-family="sans-serif" font-size="14" lengthAdjust="spacing" textLength="114" x="13" y="153.1826">Username string</text></g><!--MD5=[bb4d9dd3ba4a9a26d4b7887b783a7d02]
@startuml EthernetSwitchBaseDto

class EthernetSwitchBaseDto {
    Name string
    - -
    Serial string
    - -
    SwitchModel int
    - -
    Address string
    - -
    Username string
}

@enduml

PlantUML version 1.2022.4(Sat Apr 09 13:29:17 UTC 2022)
(GPL source distribution)
Java Runtime: OpenJDK Runtime Environment
JVM: OpenJDK 64-Bit Server VM
Default Encoding: UTF-8
Language: en
Country: null
--></g></svg>