<?xml version="1.0" encoding="UTF-8" standalone="no"?><svg xmlns="http://www.w3.org/2000/svg" xmlns:xlink="http://www.w3.org/1999/xlink" contentStyleType="text/css" height="291px" preserveAspectRatio="none" style="width:226px;height:291px;background:#FFFFFF;" version="1.1" viewBox="0 0 226 291" width="226px" zoomAndPan="magnify"><defs/><g><!--MD5=[4f15965369cf1e2d28449fc0d2ee4583]
class EthernetSwitchBaseDto--><g id="elem_EthernetSwitchBaseDto"><rect codeLine="2" fill="#F1F1F1" height="153.4844" id="EthernetSwitchBaseDto" rx="2.5" ry="2.5" style="stroke:#181818;stroke-width:0.5;" width="197" x="14.5" y="131"/><ellipse cx="29.5" cy="147" fill="#ADD1B2" rx="11" ry="11" style="stroke:#181818;stroke-width:1.0;"/><path d="M32.4688,152.6406 Q31.8906,152.9375 31.25,153.0781 Q30.6094,153.2344 29.9063,153.2344 Q27.4063,153.2344 26.0781,151.5938 Q24.7656,149.9375 24.7656,146.8125 Q24.7656,143.6875 26.0781,142.0313 Q27.4063,140.375 29.9063,140.375 Q30.6094,140.375 31.25,140.5313 Q31.9063,140.6875 32.4688,140.9844 L32.4688,143.7031 Q31.8438,143.125 31.25,142.8594 Q30.6563,142.5781 30.0313,142.5781 Q28.6875,142.5781 28,143.6563 Q27.3125,144.7188 27.3125,146.8125 Q27.3125,148.9063 28,149.9844 Q28.6875,151.0469 30.0313,151.0469 Q30.6563,151.0469 31.25,150.7813 Q31.8438,150.5 32.4688,149.9219 L32.4688,152.6406 Z " fill="#000000"/><text fill="#000000" font-family="sans-serif" font-size="14" lengthAdjust="spacing" textLength="165" x="43.5" y="151.8467">EthernetSwitchBaseDto</text><line style="stroke:#181818;stroke-width:0.5;" x1="15.5" x2="210.5" y1="163" y2="163"/><text fill="#000000" font-family="sans-serif" font-size="14" lengthAdjust="spacing" textLength="83" x="20.5" y="179.9951">Name string</text><line style="stroke:#181818;stroke-width:1.0;" x1="15.5" x2="210.5" y1="187.2969" y2="187.2969"/><text fill="#000000" font-family="sans-serif" font-size="14" lengthAdjust="spacing" textLength="80" x="20.5" y="204.292">Serial string</text><line style="stroke:#181818;stroke-width:1.0;" x1="15.5" x2="210.5" y1="211.5938" y2="211.5938"/><text fill="#000000" font-family="sans-serif" font-size="14" lengthAdjust="spacing" textLength="108" x="20.5" y="228.5889">SwitchModel int</text><line style="stroke:#181818;stroke-width:1.0;" x1="15.5" x2="210.5" y1="235.8906" y2="235.8906"/><text fill="#000000" font-family="sans-serif" font-size="14" lengthAdjust="spacing" textLength="100" x="20.5" y="252.8857">Address string</text><line style="stroke:#181818;stroke-width:1.0;" x1="15.5" x2="210.5" y1="260.1875" y2="260.1875"/><text fill="#000000" font-family="sans-serif" font-size="14" lengthAdjust="spacing" textLength="114" x="20.5" y="277.1826">Username string</text></g><!--MD5=[c34e1a9004d5b1340cd98967367dc0c0]
class EthernetSwitchUpdateDto--><g id="elem_EthernetSwitchUpdateDto"><rect codeLine="3" fill="#F1F1F1" height="64.2969" id="EthernetSwitchUpdateDto" rx="2.5" ry="2.5" style="stroke:#181818;stroke-width:0.5;" width="212" x="7" y="7"/><ellipse cx="22" cy="23" fill="#ADD1B2" rx="11" ry="11" style="stroke:#181818;stroke-width:1.0;"/><path d="M24.9688,28.6406 Q24.3906,28.9375 23.75,29.0781 Q23.1094,29.2344 22.4063,29.2344 Q19.9063,29.2344 18.5781,27.5938 Q17.2656,25.9375 17.2656,22.8125 Q17.2656,19.6875 18.5781,18.0313 Q19.9063,16.375 22.4063,16.375 Q23.1094,16.375 23.75,16.5313 Q24.4063,16.6875 24.9688,16.9844 L24.9688,19.7031 Q24.3438,19.125 23.75,18.8594 Q23.1563,18.5781 22.5313,18.5781 Q21.1875,18.5781 20.5,19.6563 Q19.8125,20.7188 19.8125,22.8125 Q19.8125,24.9063 20.5,25.9844 Q21.1875,27.0469 22.5313,27.0469 Q23.1563,27.0469 23.75,26.7813 Q24.3438,26.5 24.9688,25.9219 L24.9688,28.6406 Z " fill="#000000"/><text fill="#000000" font-family="sans-serif" font-size="14" lengthAdjust="spacing" textLength="180" x="36" y="27.8467">EthernetSwitchUpdateDto</text><line style="stroke:#181818;stroke-width:0.5;" x1="8" x2="218" y1="39" y2="39"/><text fill="#000000" font-family="sans-serif" font-size="14" lengthAdjust="spacing" textLength="110" x="13" y="55.9951">Password string</text><line style="stroke:#181818;stroke-width:0.5;" x1="8" x2="218" y1="63.2969" y2="63.2969"/></g><!--MD5=[929c14291579c7929d819dcef14877eb]
reverse link EthernetSwitchUpdateDto to EthernetSwitchBaseDto--><g id="link_EthernetSwitchUpdateDto_EthernetSwitchBaseDto"><path codeLine="7" d="M113,84.33 C113,98.6 113,114.85 113,130.73 " fill="none" id="EthernetSwitchUpdateDto-backto-EthernetSwitchBaseDto" style="stroke:#181818;stroke-width:1.0;"/><polygon fill="#181818" points="113,71.32,109,77.32,113,83.32,117,77.32,113,71.32" style="stroke:#181818;stroke-width:1.0;"/></g><!--MD5=[cac52a59f549a41ff728ca8331a413f6]
@startuml EthernetSwitchUpdateDto
!include EthernetSwitchBaseDto.puml

class EthernetSwitchUpdateDto {
    Password string
}

EthernetSwitchUpdateDto *- - EthernetSwitchBaseDto
@enduml

@startuml EthernetSwitchUpdateDto

class EthernetSwitchBaseDto {
    Name string
    - -
    Serial string
    - -
    SwitchModel int
    - -
    Address string
    - -
    Username string
}


class EthernetSwitchUpdateDto {
    Password string
}

EthernetSwitchUpdateDto *- - EthernetSwitchBaseDto
@enduml

PlantUML version 1.2022.4(Sat Apr 09 13:29:17 UTC 2022)
(GPL source distribution)
Java Runtime: OpenJDK Runtime Environment
JVM: OpenJDK 64-Bit Server VM
Default Encoding: UTF-8
Language: en
Country: null
--></g></svg>