<?xml version="1.0" encoding="UTF-8" standalone="no"?><svg xmlns="http://www.w3.org/2000/svg" xmlns:xlink="http://www.w3.org/1999/xlink" contentStyleType="text/css" height="1077px" preserveAspectRatio="none" style="width:1718px;height:1077px;background:#FFFFFF;" version="1.1" viewBox="0 0 1718 1077" width="1718px" zoomAndPan="magnify"><defs/><g><!--MD5=[d5ac3844f66b12d9e08170e47495e096]
cluster app--><g id="cluster_app"><path d="M64.5,509 L91.5,509 A3.75,3.75 0 0 1 94,511.5 L101,532.6094 L1708.5,532.6094 A2.5,2.5 0 0 1 1711,535.1094 L1711,1067.5 A2.5,2.5 0 0 1 1708.5,1070 L64.5,1070 A2.5,2.5 0 0 1 62,1067.5 L62,511.5 A2.5,2.5 0 0 1 64.5,509 " style="stroke:#000000;stroke-width:1.5;fill:none;"/><line style="stroke:#000000;stroke-width:1.5;fill:none;" x1="62" x2="101" y1="532.6094" y2="532.6094"/><text fill="#000000" font-family="sans-serif" font-size="14" font-weight="bold" lengthAdjust="spacing" textLength="26" x="66" y="525.5332">app</text></g><!--MD5=[27f772719433d509ddbc20ff768eba08]
cluster domain--><g id="cluster_domain"><path d="M8.5,6 L60.5,6 A3.75,3.75 0 0 1 63,8.5 L70,29.6094 L770.5,29.6094 A2.5,2.5 0 0 1 773,32.1094 L773,482.5 A2.5,2.5 0 0 1 770.5,485 L8.5,485 A2.5,2.5 0 0 1 6,482.5 L6,8.5 A2.5,2.5 0 0 1 8.5,6 " style="stroke:#000000;stroke-width:1.5;fill:none;"/><line style="stroke:#000000;stroke-width:1.5;fill:none;" x1="6" x2="70" y1="29.6094" y2="29.6094"/><text fill="#000000" font-family="sans-serif" font-size="14" font-weight="bold" lengthAdjust="spacing" textLength="51" x="10" y="22.5332">domain</text></g><!--MD5=[77349be1bd27b81b697a0f9b3aded3c8]
cluster infrastructure--><g id="cluster_infrastructure"><path d="M918.5,333.5 L1016.5,333.5 A3.75,3.75 0 0 1 1019,336 L1026,357.1094 L1588.5,357.1094 A2.5,2.5 0 0 1 1591,359.6094 L1591,473 A2.5,2.5 0 0 1 1588.5,475.5 L918.5,475.5 A2.5,2.5 0 0 1 916,473 L916,336 A2.5,2.5 0 0 1 918.5,333.5 " style="stroke:#000000;stroke-width:1.5;fill:none;"/><line style="stroke:#000000;stroke-width:1.5;fill:none;" x1="916" x2="1026" y1="357.1094" y2="357.1094"/><text fill="#000000" font-family="sans-serif" font-size="14" font-weight="bold" lengthAdjust="spacing" textLength="97" x="920" y="350.0332">infrastructure</text></g><!--MD5=[7d972e8a870a7d3102e7596738050350]
class IHostNetworkLink--><g id="elem_IHostNetworkLink"><rect codeLine="3" fill="#F1F1F1" height="108.8281" id="IHostNetworkLink" rx="2.5" ry="2.5" style="stroke:#181818;stroke-width:0.5;" width="195" x="308.5" y="745"/><ellipse cx="346.45" cy="761" fill="#B4A7E5" rx="11" ry="11" style="stroke:#181818;stroke-width:1.0;"/><path d="M347.4031,757.6406 L347.4031,764.2969 L349.1219,764.2969 Q349.7313,764.2969 349.9969,764.5313 Q350.2625,764.7656 350.2625,765.1563 Q350.2625,765.5313 349.9969,765.7656 Q349.7313,766 349.1219,766 L343.9813,766 Q343.3719,766 343.1063,765.7656 Q342.8406,765.5313 342.8406,765.1406 Q342.8406,764.7656 343.1063,764.5313 Q343.3719,764.2969 343.9813,764.2969 L345.7,764.2969 L345.7,757.6406 L343.9813,757.6406 Q343.3719,757.6406 343.1063,757.4063 Q342.8406,757.1719 342.8406,756.7813 Q342.8406,756.4063 343.1063,756.1719 Q343.3719,755.9375 343.9813,755.9375 L349.1219,755.9375 Q349.7313,755.9375 349.9969,756.1719 Q350.2625,756.4063 350.2625,756.7813 Q350.2625,757.1719 349.9969,757.4063 Q349.7313,757.6406 349.1219,757.6406 L347.4031,757.6406 Z " fill="#000000"/><text fill="#000000" font-family="sans-serif" font-size="14" font-style="italic" lengthAdjust="spacing" textLength="112" x="365.55" y="766.7285">IHostNetworkLink</text><line style="stroke:#181818;stroke-width:0.5;" x1="309.5" x2="502.5" y1="777" y2="777"/><ellipse cx="319.5" cy="788" fill="#84BE84" rx="3" ry="3" style="stroke:#038048;stroke-width:1.0;"/><text fill="#000000" font-family="sans-serif" font-size="14" lengthAdjust="spacing" textLength="108" x="328.5" y="795.5332">GetName() string</text><line style="stroke:#181818;stroke-width:1.0;" x1="309.5" x2="502.5" y1="802.6094" y2="802.6094"/><ellipse cx="319.5" cy="813.6094" fill="#84BE84" rx="3" ry="3" style="stroke:#038048;stroke-width:1.0;"/><text fill="#000000" font-family="sans-serif" font-size="14" lengthAdjust="spacing" textLength="104" x="328.5" y="821.1426">GetType() string</text><line style="stroke:#181818;stroke-width:1.0;" x1="309.5" x2="502.5" y1="828.2188" y2="828.2188"/><ellipse cx="319.5" cy="839.2188" fill="#84BE84" rx="3" ry="3" style="stroke:#038048;stroke-width:1.0;"/><text fill="#000000" font-family="sans-serif" font-size="14" lengthAdjust="spacing" textLength="169" x="328.5" y="846.752">GetAddresses() []net.IPNet</text></g><path d="M78.5,745 L78.5,771.3516 A0,0 0 0 0 78.5,771.3516 L245.5,771.3516 A0,0 0 0 0 245.5,771.3516 L245.5,763 L312.5,789.8047 L245.5,755 L245.5,755 L235.5,745 L78.5,745 A0,0 0 0 0 78.5,745 " fill="#FEFFDD" style="stroke:#181818;stroke-width:0.5;"/><path d="M235.5,745 L235.5,755 L245.5,755 L235.5,745 " fill="#FEFFDD" style="stroke:#181818;stroke-width:0.5;"/><text fill="#000000" font-family="sans-serif" font-size="13" lengthAdjust="spacing" textLength="146" x="84.5" y="763.4951">Gets host interface name</text><path d="M78.5,781.3516 L78.5,807.7031 A0,0 0 0 0 78.5,807.7031 L238.5,807.7031 A0,0 0 0 0 238.5,807.7031 L238.5,799.3516 L312.5,815.4141 L238.5,791.3516 L238.5,791.3516 L228.5,781.3516 L78.5,781.3516 A0,0 0 0 0 78.5,781.3516 " fill="#FEFFDD" style="stroke:#181818;stroke-width:0.5;"/><path d="M228.5,781.3516 L228.5,791.3516 L238.5,791.3516 L228.5,781.3516 " fill="#FEFFDD" style="stroke:#181818;stroke-width:0.5;"/><text fill="#000000" font-family="sans-serif" font-size="13" lengthAdjust="spacing" textLength="139" x="84.5" y="799.8467">Gets host interface type</text><path d="M78.5,817.7031 L78.5,844.0547 A0,0 0 0 0 78.5,844.0547 L273.5,844.0547 A0,0 0 0 0 273.5,844.0547 L273.5,835.7031 L312.5,841.0234 L273.5,827.7031 L273.5,827.7031 L263.5,817.7031 L78.5,817.7031 A0,0 0 0 0 78.5,817.7031 " fill="#FEFFDD" style="stroke:#181818;stroke-width:0.5;"/><path d="M263.5,817.7031 L263.5,827.7031 L273.5,827.7031 L263.5,817.7031 " fill="#FEFFDD" style="stroke:#181818;stroke-width:0.5;"/><text fill="#000000" font-family="sans-serif" font-size="13" lengthAdjust="spacing" textLength="174" x="84.5" y="836.1982">Gets host interface addresses</text><!--MD5=[eee03abc33d997fda74f03d63bc5bd12]
class IHostNetworkManager--><g id="elem_IHostNetworkManager"><rect codeLine="5" fill="#F1F1F1" height="390.5313" id="IHostNetworkManager" rx="2.5" ry="2.5" style="stroke:#181818;stroke-width:0.5;" width="356" x="1339" y="604"/><ellipse cx="1441.75" cy="620" fill="#B4A7E5" rx="11" ry="11" style="stroke:#181818;stroke-width:1.0;"/><path d="M1442.7031,616.6406 L1442.7031,623.2969 L1444.4219,623.2969 Q1445.0313,623.2969 1445.2969,623.5313 Q1445.5625,623.7656 1445.5625,624.1563 Q1445.5625,624.5313 1445.2969,624.7656 Q1445.0313,625 1444.4219,625 L1439.2813,625 Q1438.6719,625 1438.4063,624.7656 Q1438.1406,624.5313 1438.1406,624.1406 Q1438.1406,623.7656 1438.4063,623.5313 Q1438.6719,623.2969 1439.2813,623.2969 L1441,623.2969 L1441,616.6406 L1439.2813,616.6406 Q1438.6719,616.6406 1438.4063,616.4063 Q1438.1406,616.1719 1438.1406,615.7813 Q1438.1406,615.4063 1438.4063,615.1719 Q1438.6719,614.9375 1439.2813,614.9375 L1444.4219,614.9375 Q1445.0313,614.9375 1445.2969,615.1719 Q1445.5625,615.4063 1445.5625,615.7813 Q1445.5625,616.1719 1445.2969,616.4063 Q1445.0313,616.6406 1444.4219,616.6406 L1442.7031,616.6406 Z " fill="#000000"/><text fill="#000000" font-family="sans-serif" font-size="14" font-style="italic" lengthAdjust="spacing" textLength="142" x="1462.25" y="625.7285">IHostNetworkManager</text><line style="stroke:#181818;stroke-width:0.5;" x1="1340" x2="1694" y1="636" y2="636"/><ellipse cx="1350" cy="647" fill="#84BE84" rx="3" ry="3" style="stroke:#038048;stroke-width:1.0;"/><text fill="#000000" font-family="sans-serif" font-size="14" lengthAdjust="spacing" textLength="223" x="1359" y="654.5332">GetList() ([]IHostNetworkLink, error)</text><line style="stroke:#181818;stroke-width:1.0;" x1="1340" x2="1694" y1="661.6094" y2="661.6094"/><ellipse cx="1350" cy="672.6094" fill="#84BE84" rx="3" ry="3" style="stroke:#038048;stroke-width:1.0;"/><text fill="#000000" font-family="sans-serif" font-size="14" lengthAdjust="spacing" textLength="319" x="1359" y="680.1426">GetByName(name string) (IHostNetworkLink, error)</text><line style="stroke:#181818;stroke-width:1.0;" x1="1340" x2="1694" y1="687.2188" y2="687.2188"/><ellipse cx="1350" cy="698.2188" fill="#84BE84" rx="3" ry="3" style="stroke:#038048;stroke-width:1.0;"/><text fill="#000000" font-family="sans-serif" font-size="14" lengthAdjust="spacing" textLength="317" x="1359" y="705.752">CreateVlan(master string, vlanID int) (string, error)</text><line style="stroke:#181818;stroke-width:1.0;" x1="1340" x2="1694" y1="712.8281" y2="712.8281"/><ellipse cx="1350" cy="723.8281" fill="#84BE84" rx="3" ry="3" style="stroke:#038048;stroke-width:1.0;"/><text fill="#000000" font-family="sans-serif" font-size="14" lengthAdjust="spacing" textLength="256" x="1359" y="731.3613">CreateBridge(name string) (string, error)</text><line style="stroke:#181818;stroke-width:1.0;" x1="1340" x2="1694" y1="738.4375" y2="738.4375"/><ellipse cx="1350" cy="749.4375" fill="#84BE84" rx="3" ry="3" style="stroke:#038048;stroke-width:1.0;"/><text fill="#000000" font-family="sans-serif" font-size="14" lengthAdjust="spacing" textLength="330" x="1359" y="756.9707">SetLinkMaster(slaveName, masterName string) error</text><line style="stroke:#181818;stroke-width:1.0;" x1="1340" x2="1694" y1="764.0469" y2="764.0469"/><ellipse cx="1350" cy="775.0469" fill="#84BE84" rx="3" ry="3" style="stroke:#038048;stroke-width:1.0;"/><text fill="#000000" font-family="sans-serif" font-size="14" lengthAdjust="spacing" textLength="246" x="1359" y="782.5801">UnsetLinkMaster(linkName string) error</text><line style="stroke:#181818;stroke-width:1.0;" x1="1340" x2="1694" y1="789.6563" y2="789.6563"/><ellipse cx="1350" cy="800.6563" fill="#84BE84" rx="3" ry="3" style="stroke:#038048;stroke-width:1.0;"/><text fill="#000000" font-family="sans-serif" font-size="14" lengthAdjust="spacing" textLength="205" x="1359" y="808.1895">SetLinkUp(linkName string) error</text><line style="stroke:#181818;stroke-width:1.0;" x1="1340" x2="1694" y1="815.2656" y2="815.2656"/><ellipse cx="1350" cy="826.2656" fill="#84BE84" rx="3" ry="3" style="stroke:#038048;stroke-width:1.0;"/><text fill="#000000" font-family="sans-serif" font-size="14" lengthAdjust="spacing" textLength="238" x="1359" y="833.7988">DeleteLinkByName(name string) error</text><line style="stroke:#181818;stroke-width:1.0;" x1="1340" x2="1694" y1="840.875" y2="840.875"/><ellipse cx="1350" cy="851.875" fill="#84BE84" rx="3" ry="3" style="stroke:#038048;stroke-width:1.0;"/><text fill="#000000" font-family="sans-serif" font-size="14" lengthAdjust="spacing" textLength="294" x="1359" y="859.4082">AddrAdd(linkName string, addr net.IPNet) error</text><line style="stroke:#181818;stroke-width:1.0;" x1="1340" x2="1694" y1="866.4844" y2="866.4844"/><ellipse cx="1350" cy="877.4844" fill="#84BE84" rx="3" ry="3" style="stroke:#038048;stroke-width:1.0;"/><text fill="#000000" font-family="sans-serif" font-size="14" lengthAdjust="spacing" textLength="310" x="1359" y="885.0176">AddrDelete(linkName string, addr net.IPNet) error</text><line style="stroke:#181818;stroke-width:1.0;" x1="1340" x2="1694" y1="892.0938" y2="892.0938"/><ellipse cx="1350" cy="903.0938" fill="#84BE84" rx="3" ry="3" style="stroke:#038048;stroke-width:1.0;"/><text fill="#000000" font-family="sans-serif" font-size="14" lengthAdjust="spacing" textLength="162" x="1359" y="910.627">SaveConfiguration() error</text><line style="stroke:#181818;stroke-width:1.0;" x1="1340" x2="1694" y1="917.7031" y2="917.7031"/><ellipse cx="1350" cy="928.7031" fill="#84BE84" rx="3" ry="3" style="stroke:#038048;stroke-width:1.0;"/><text fill="#000000" font-family="sans-serif" font-size="14" lengthAdjust="spacing" textLength="175" x="1359" y="936.2363">RestoreFromBackup() error</text><line style="stroke:#181818;stroke-width:1.0;" x1="1340" x2="1694" y1="943.3125" y2="943.3125"/><ellipse cx="1350" cy="954.3125" fill="#84BE84" rx="3" ry="3" style="stroke:#038048;stroke-width:1.0;"/><text fill="#000000" font-family="sans-serif" font-size="14" lengthAdjust="spacing" textLength="139" x="1359" y="961.8457">ResetChanges() error</text><line style="stroke:#181818;stroke-width:1.0;" x1="1340" x2="1694" y1="968.9219" y2="968.9219"/><ellipse cx="1350" cy="979.9219" fill="#84BE84" rx="3" ry="3" style="stroke:#038048;stroke-width:1.0;"/><text fill="#000000" font-family="sans-serif" font-size="14" lengthAdjust="spacing" textLength="177" x="1359" y="987.4551">HasUnsavedChanges() bool</text></g><path d="M942.5,545 L942.5,571.3516 A0,0 0 0 0 942.5,571.3516 L1164.5,571.3516 A0,0 0 0 0 1164.5,571.3516 L1164.5,563 L1343,648.8047 L1164.5,555 L1164.5,555 L1154.5,545 L942.5,545 A0,0 0 0 0 942.5,545 " fill="#FEFFDD" style="stroke:#181818;stroke-width:0.5;"/><path d="M1154.5,545 L1154.5,555 L1164.5,555 L1154.5,545 " fill="#FEFFDD" style="stroke:#181818;stroke-width:0.5;"/><text fill="#000000" font-family="sans-serif" font-size="13" lengthAdjust="spacing" textLength="201" x="948.5" y="563.4951">Gets list of host network interfaces</text><path d="M942.5,581.3516 L942.5,607.7031 A0,0 0 0 0 942.5,607.7031 L1194.5,607.7031 A0,0 0 0 0 1194.5,607.7031 L1194.5,599.3516 L1343,674.4141 L1194.5,591.3516 L1194.5,591.3516 L1184.5,581.3516 L942.5,581.3516 A0,0 0 0 0 942.5,581.3516 " fill="#FEFFDD" style="stroke:#181818;stroke-width:0.5;"/><path d="M1184.5,581.3516 L1184.5,591.3516 L1194.5,591.3516 L1184.5,581.3516 " fill="#FEFFDD" style="stroke:#181818;stroke-width:0.5;"/><text fill="#000000" font-family="sans-serif" font-size="13" lengthAdjust="spacing" textLength="231" x="948.5" y="599.8467">Gets host network interface by its name</text><path d="M942.5,617.7031 L942.5,644.0547 A0,0 0 0 0 942.5,644.0547 L1292.5,644.0547 A0,0 0 0 0 1292.5,644.0547 L1292.5,635.7031 L1343,700.0234 L1292.5,627.7031 L1292.5,627.7031 L1282.5,617.7031 L942.5,617.7031 A0,0 0 0 0 942.5,617.7031 " fill="#FEFFDD" style="stroke:#181818;stroke-width:0.5;"/><path d="M1282.5,617.7031 L1282.5,627.7031 L1292.5,627.7031 L1282.5,617.7031 " fill="#FEFFDD" style="stroke:#181818;stroke-width:0.5;"/><text fill="#000000" font-family="sans-serif" font-size="13" lengthAdjust="spacing" textLength="329" x="948.5" y="636.1982">Create host vlan interface with name rol.{Master}.{VlanID}</text><path d="M942.5,654.0547 L942.5,680.4063 A0,0 0 0 0 942.5,680.4063 L1264.5,680.4063 A0,0 0 0 0 1264.5,680.4063 L1264.5,672.0547 L1343,725.6328 L1264.5,664.0547 L1264.5,664.0547 L1254.5,654.0547 L942.5,654.0547 A0,0 0 0 0 942.5,654.0547 " fill="#FEFFDD" style="stroke:#181818;stroke-width:0.5;"/><path d="M1254.5,654.0547 L1254.5,664.0547 L1264.5,664.0547 L1254.5,654.0547 " fill="#FEFFDD" style="stroke:#181818;stroke-width:0.5;"/><text fill="#000000" font-family="sans-serif" font-size="13" lengthAdjust="spacing" textLength="301" x="948.5" y="672.5498">Create host bridge interface with name rol.br.{Name}</text><path d="M942.5,690.4063 L942.5,716.7578 A0,0 0 0 0 942.5,716.7578 L1069.5,716.7578 A0,0 0 0 0 1069.5,716.7578 L1069.5,708.4063 L1343,751.2422 L1069.5,700.4063 L1069.5,700.4063 L1059.5,690.4063 L942.5,690.4063 A0,0 0 0 0 942.5,690.4063 " fill="#FEFFDD" style="stroke:#181818;stroke-width:0.5;"/><path d="M1059.5,690.4063 L1059.5,700.4063 L1069.5,700.4063 L1059.5,690.4063 " fill="#FEFFDD" style="stroke:#181818;stroke-width:0.5;"/><text fill="#000000" font-family="sans-serif" font-size="13" lengthAdjust="spacing" textLength="106" x="948.5" y="708.9014">Set master for link</text><path d="M942.5,726.7578 L942.5,753.1094 A0,0 0 0 0 942.5,753.1094 L1142.5,753.1094 A0,0 0 0 0 1142.5,753.1094 L1142.5,744.7578 L1343,776.8516 L1142.5,736.7578 L1142.5,736.7578 L1132.5,726.7578 L942.5,726.7578 A0,0 0 0 0 942.5,726.7578 " fill="#FEFFDD" style="stroke:#181818;stroke-width:0.5;"/><path d="M1132.5,726.7578 L1132.5,736.7578 L1142.5,736.7578 L1132.5,726.7578 " fill="#FEFFDD" style="stroke:#181818;stroke-width:0.5;"/><text fill="#000000" font-family="sans-serif" font-size="13" lengthAdjust="spacing" textLength="179" x="948.5" y="745.2529">Removes the master of the link</text><path d="M942.5,763.1094 L942.5,789.4609 A0,0 0 0 0 942.5,789.4609 L1103.5,789.4609 A0,0 0 0 0 1103.5,789.4609 L1103.5,781.1094 L1343,802.4609 L1103.5,773.1094 L1103.5,773.1094 L1093.5,763.1094 L942.5,763.1094 A0,0 0 0 0 942.5,763.1094 " fill="#FEFFDD" style="stroke:#181818;stroke-width:0.5;"/><path d="M1093.5,763.1094 L1093.5,773.1094 L1103.5,773.1094 L1093.5,763.1094 " fill="#FEFFDD" style="stroke:#181818;stroke-width:0.5;"/><text fill="#000000" font-family="sans-serif" font-size="13" lengthAdjust="spacing" textLength="140" x="948.5" y="781.6045">Enables the link on host</text><path d="M942.5,799.4609 L942.5,825.8125 A0,0 0 0 0 942.5,825.8125 L1179.5,825.8125 A0,0 0 0 0 1179.5,825.8125 L1179.5,817.4609 L1343,828.0703 L1179.5,809.4609 L1179.5,809.4609 L1169.5,799.4609 L942.5,799.4609 A0,0 0 0 0 942.5,799.4609 " fill="#FEFFDD" style="stroke:#181818;stroke-width:0.5;"/><path d="M1169.5,799.4609 L1169.5,809.4609 L1179.5,809.4609 L1169.5,799.4609 " fill="#FEFFDD" style="stroke:#181818;stroke-width:0.5;"/><text fill="#000000" font-family="sans-serif" font-size="13" lengthAdjust="spacing" textLength="216" x="948.5" y="817.9561">Deletes interface on host by its name</text><path d="M942.5,835.8125 L942.5,862.1641 A0,0 0 0 0 942.5,862.1641 L1197.5,862.1641 A0,0 0 0 0 1197.5,862.1641 L1197.5,853.8125 L1343,853.6797 L1197.5,845.8125 L1197.5,845.8125 L1187.5,835.8125 L942.5,835.8125 A0,0 0 0 0 942.5,835.8125 " fill="#FEFFDD" style="stroke:#181818;stroke-width:0.5;"/><path d="M1187.5,835.8125 L1187.5,845.8125 L1197.5,845.8125 L1187.5,835.8125 " fill="#FEFFDD" style="stroke:#181818;stroke-width:0.5;"/><text fill="#000000" font-family="sans-serif" font-size="13" lengthAdjust="spacing" textLength="234" x="948.5" y="854.3076">Add new ip address for network interface</text><path d="M942.5,872.1641 L942.5,898.5156 A0,0 0 0 0 942.5,898.5156 L1184.5,898.5156 A0,0 0 0 0 1184.5,898.5156 L1184.5,890.1641 L1343,879.2891 L1184.5,882.1641 L1184.5,882.1641 L1174.5,872.1641 L942.5,872.1641 A0,0 0 0 0 942.5,872.1641 " fill="#FEFFDD" style="stroke:#181818;stroke-width:0.5;"/><path d="M1174.5,872.1641 L1174.5,882.1641 L1184.5,882.1641 L1174.5,872.1641 " fill="#FEFFDD" style="stroke:#181818;stroke-width:0.5;"/><text fill="#000000" font-family="sans-serif" font-size="13" lengthAdjust="spacing" textLength="221" x="948.5" y="890.6592">Delete ip address for network interface</text><path d="M942.5,908.5156 L942.5,934.8672 A0,0 0 0 0 942.5,934.8672 L1274.5,934.8672 A0,0 0 0 0 1274.5,934.8672 L1274.5,926.5156 L1343,904.8984 L1274.5,918.5156 L1274.5,918.5156 L1264.5,908.5156 L942.5,908.5156 A0,0 0 0 0 942.5,908.5156 " fill="#FEFFDD" style="stroke:#181818;stroke-width:0.5;"/><path d="M1264.5,908.5156 L1264.5,918.5156 L1274.5,918.5156 L1264.5,908.5156 " fill="#FEFFDD" style="stroke:#181818;stroke-width:0.5;"/><text fill="#000000" font-family="sans-serif" font-size="13" lengthAdjust="spacing" textLength="311" x="948.5" y="927.0107">Save current host network configuration to the storage</text><path d="M942.5,944.8672 L942.5,971.2188 A0,0 0 0 0 942.5,971.2188 L1298.5,971.2188 A0,0 0 0 0 1298.5,971.2188 L1298.5,962.8672 L1343,930.5078 L1298.5,954.8672 L1298.5,954.8672 L1288.5,944.8672 L942.5,944.8672 A0,0 0 0 0 942.5,944.8672 " fill="#FEFFDD" style="stroke:#181818;stroke-width:0.5;"/><path d="M1288.5,944.8672 L1288.5,954.8672 L1298.5,954.8672 L1288.5,944.8672 " fill="#FEFFDD" style="stroke:#181818;stroke-width:0.5;"/><text fill="#000000" font-family="sans-serif" font-size="13" lengthAdjust="spacing" textLength="335" x="948.5" y="963.3623">Restore and apply host network configuration from backup</text><path d="M942.5,981.2188 L942.5,1007.5703 A0,0 0 0 0 942.5,1007.5703 L1303.5,1007.5703 A0,0 0 0 0 1303.5,1007.5703 L1303.5,999.2188 L1343,956.1172 L1303.5,991.2188 L1303.5,991.2188 L1293.5,981.2188 L942.5,981.2188 A0,0 0 0 0 942.5,981.2188 " fill="#FEFFDD" style="stroke:#181818;stroke-width:0.5;"/><path d="M1293.5,981.2188 L1293.5,991.2188 L1303.5,991.2188 L1293.5,981.2188 " fill="#FEFFDD" style="stroke:#181818;stroke-width:0.5;"/><text fill="#000000" font-family="sans-serif" font-size="13" lengthAdjust="spacing" textLength="340" x="948.5" y="999.7139">Reset all applied changes to state from saved configuration</text><path d="M942.5,1017.5703 L942.5,1043.9219 A0,0 0 0 0 942.5,1043.9219 L1166.5,1043.9219 A0,0 0 0 0 1166.5,1043.9219 L1166.5,1035.5703 L1343,981.7266 L1166.5,1027.5703 L1166.5,1027.5703 L1156.5,1017.5703 L942.5,1017.5703 A0,0 0 0 0 942.5,1017.5703 " fill="#FEFFDD" style="stroke:#181818;stroke-width:0.5;"/><path d="M1156.5,1017.5703 L1156.5,1027.5703 L1166.5,1027.5703 L1156.5,1017.5703 " fill="#FEFFDD" style="stroke:#181818;stroke-width:0.5;"/><text fill="#000000" font-family="sans-serif" font-size="13" lengthAdjust="spacing" textLength="203" x="948.5" y="1036.0654">Gets a flag about unsaved changes</text><!--MD5=[de944ecaefb171a2f705a3207091d9ac]
class IHostNetworkConfigStorage--><g id="elem_IHostNetworkConfigStorage"><rect codeLine="5" fill="#F1F1F1" height="108.8281" id="IHostNetworkConfigStorage" rx="2.5" ry="2.5" style="stroke:#181818;stroke-width:0.5;" width="369" x="538.5" y="745"/><ellipse cx="630.75" cy="761" fill="#B4A7E5" rx="11" ry="11" style="stroke:#181818;stroke-width:1.0;"/><path d="M631.7031,757.6406 L631.7031,764.2969 L633.4219,764.2969 Q634.0313,764.2969 634.2969,764.5313 Q634.5625,764.7656 634.5625,765.1563 Q634.5625,765.5313 634.2969,765.7656 Q634.0313,766 633.4219,766 L628.2813,766 Q627.6719,766 627.4063,765.7656 Q627.1406,765.5313 627.1406,765.1406 Q627.1406,764.7656 627.4063,764.5313 Q627.6719,764.2969 628.2813,764.2969 L630,764.2969 L630,757.6406 L628.2813,757.6406 Q627.6719,757.6406 627.4063,757.4063 Q627.1406,757.1719 627.1406,756.7813 Q627.1406,756.4063 627.4063,756.1719 Q627.6719,755.9375 628.2813,755.9375 L633.4219,755.9375 Q634.0313,755.9375 634.2969,756.1719 Q634.5625,756.4063 634.5625,756.7813 Q634.5625,757.1719 634.2969,757.4063 Q634.0313,757.6406 633.4219,757.6406 L631.7031,757.6406 Z " fill="#000000"/><text fill="#000000" font-family="sans-serif" font-size="14" font-style="italic" lengthAdjust="spacing" textLength="176" x="651.25" y="766.7285">IHostNetworkConfigStorage</text><line style="stroke:#181818;stroke-width:0.5;" x1="539.5" x2="906.5" y1="777" y2="777"/><ellipse cx="549.5" cy="788" fill="#84BE84" rx="3" ry="3" style="stroke:#038048;stroke-width:1.0;"/><text fill="#000000" font-family="sans-serif" font-size="14" lengthAdjust="spacing" textLength="329" x="558.5" y="795.5332">SaveConfig(config domain.HostNetworkConfig) error</text><line style="stroke:#181818;stroke-width:1.0;" x1="539.5" x2="906.5" y1="802.6094" y2="802.6094"/><ellipse cx="549.5" cy="813.6094" fill="#84BE84" rx="3" ry="3" style="stroke:#038048;stroke-width:1.0;"/><text fill="#000000" font-family="sans-serif" font-size="14" lengthAdjust="spacing" textLength="296" x="558.5" y="821.1426">GetConfig() (domain.HostNetworkConfig, error)</text><line style="stroke:#181818;stroke-width:1.0;" x1="539.5" x2="906.5" y1="828.2188" y2="828.2188"/><ellipse cx="549.5" cy="839.2188" fill="#84BE84" rx="3" ry="3" style="stroke:#038048;stroke-width:1.0;"/><text fill="#000000" font-family="sans-serif" font-size="14" lengthAdjust="spacing" textLength="343" x="558.5" y="846.752">GetBackupConfig() (domain.HostNetworkConfig, error)</text></g><!--MD5=[e5fff6262f684687265fbe09f1b48075]
class HostNetworkLink--><g id="elem_HostNetworkLink"><rect codeLine="5" fill="#F1F1F1" height="108.8281" id="HostNetworkLink" rx="2.5" ry="2.5" style="stroke:#181818;stroke-width:0.5;" width="162" x="325" y="360"/><ellipse cx="351.7" cy="376" fill="#ADD1B2" rx="11" ry="11" style="stroke:#181818;stroke-width:1.0;"/><path d="M354.4656,371.875 Q354.6219,371.6563 354.8094,371.5469 Q354.9969,371.4375 355.2156,371.4375 Q355.5906,371.4375 355.825,371.7031 Q356.0594,371.9531 356.0594,372.5625 L356.0594,374.0156 Q356.0594,374.625 355.825,374.8906 Q355.5906,375.1563 355.2156,375.1563 Q354.8719,375.1563 354.6688,374.9531 Q354.4656,374.7656 354.3563,374.25 Q354.3094,373.8906 354.1219,373.7031 Q353.7938,373.3281 353.1844,373.1094 Q352.575,372.8906 351.95,372.8906 Q351.1844,372.8906 350.5438,373.2188 Q349.9188,373.5469 349.4188,374.2969 Q348.9344,375.0469 348.9344,376.0781 L348.9344,377.1719 Q348.9344,378.4063 349.825,379.2344 Q350.7156,380.0469 352.3094,380.0469 Q353.2469,380.0469 353.9031,379.7969 Q354.2938,379.6406 354.7156,379.2031 Q354.9813,378.9375 355.1219,378.8594 Q355.2781,378.7813 355.4813,378.7813 Q355.8094,378.7813 356.0594,379.0469 Q356.325,379.2969 356.325,379.6406 Q356.325,379.9844 355.9813,380.3906 Q355.4813,380.9688 354.6844,381.2969 Q353.6063,381.75 352.3094,381.75 Q350.7938,381.75 349.5906,381.125 Q348.6063,380.625 347.9188,379.5625 Q347.2313,378.4844 347.2313,377.2031 L347.2313,376.0469 Q347.2313,374.7188 347.8406,373.5781 Q348.4656,372.4219 349.5594,371.8125 Q350.6531,371.1875 351.8875,371.1875 Q352.6219,371.1875 353.2625,371.3594 Q353.9188,371.5156 354.4656,371.875 Z " fill="#000000"/><text fill="#000000" font-family="sans-serif" font-size="14" lengthAdjust="spacing" textLength="104" x="368.3" y="381.7285">HostNetworkLink</text><line style="stroke:#181818;stroke-width:0.5;" x1="326" x2="486" y1="392" y2="392"/><ellipse cx="336" cy="403" fill="none" rx="3" ry="3" style="stroke:#038048;stroke-width:1.0;"/><text fill="#000000" font-family="sans-serif" font-size="14" lengthAdjust="spacing" textLength="75" x="345" y="410.5332">Name string</text><line style="stroke:#181818;stroke-width:1.0;" x1="326" x2="486" y1="417.6094" y2="417.6094"/><ellipse cx="336" cy="428.6094" fill="none" rx="3" ry="3" style="stroke:#038048;stroke-width:1.0;"/><text fill="#000000" font-family="sans-serif" font-size="14" lengthAdjust="spacing" textLength="136" x="345" y="436.1426">Addresses []net.IPNet</text><line style="stroke:#181818;stroke-width:1.0;" x1="326" x2="486" y1="443.2188" y2="443.2188"/><ellipse cx="336" cy="454.2188" fill="none" rx="3" ry="3" style="stroke:#038048;stroke-width:1.0;"/><text fill="#000000" font-family="sans-serif" font-size="14" lengthAdjust="spacing" textLength="71" x="345" y="461.752">Type string</text></g><path d="M22.5,370 L22.5,396.3516 A0,0 0 0 0 22.5,396.3516 L257.5,396.3516 A0,0 0 0 0 257.5,396.3516 L257.5,388 L329,404.8047 L257.5,380 L257.5,380 L247.5,370 L22.5,370 A0,0 0 0 0 22.5,370 " fill="#FEFFDD" style="stroke:#181818;stroke-width:0.5;"/><path d="M247.5,370 L247.5,380 L257.5,380 L247.5,370 " fill="#FEFFDD" style="stroke:#181818;stroke-width:0.5;"/><text fill="#000000" font-family="sans-serif" font-size="13" lengthAdjust="spacing" textLength="214" x="28.5" y="388.4951">Unique name of the network interface</text><path d="M22.5,406.3516 L22.5,449.0547 A0,0 0 0 0 22.5,449.0547 L289.5,449.0547 A0,0 0 0 0 289.5,449.0547 L289.5,431.7031 L329,456.0234 L289.5,423.7031 L289.5,416.3516 L279.5,406.3516 L22.5,406.3516 A0,0 0 0 0 22.5,406.3516 " fill="#FEFFDD" style="stroke:#181818;stroke-width:0.5;"/><path d="M279.5,406.3516 L279.5,416.3516 L289.5,416.3516 L279.5,406.3516 " fill="#FEFFDD" style="stroke:#181818;stroke-width:0.5;"/><text fill="#000000" font-family="sans-serif" font-size="13" lengthAdjust="spacing" textLength="129" x="28.5" y="424.8467">Default value is "none"</text><text fill="#000000" font-family="sans-serif" font-size="13" lengthAdjust="spacing" textLength="246" x="28.5" y="441.1982">because HostNetworkLink is a basic class</text><!--MD5=[b17b81604319b97b33af23212dfcf2f4]
class HostNetworkDevice--><g id="elem_HostNetworkDevice"><rect codeLine="5" fill="#F1F1F1" height="48" id="HostNetworkDevice" rx="2.5" ry="2.5" style="stroke:#181818;stroke-width:0.5;" width="153" x="603.5" y="234.5"/><ellipse cx="618.5" cy="250.5" fill="#ADD1B2" rx="11" ry="11" style="stroke:#181818;stroke-width:1.0;"/><path d="M621.2656,246.375 Q621.4219,246.1563 621.6094,246.0469 Q621.7969,245.9375 622.0156,245.9375 Q622.3906,245.9375 622.625,246.2031 Q622.8594,246.4531 622.8594,247.0625 L622.8594,248.5156 Q622.8594,249.125 622.625,249.3906 Q622.3906,249.6563 622.0156,249.6563 Q621.6719,249.6563 621.4688,249.4531 Q621.2656,249.2656 621.1563,248.75 Q621.1094,248.3906 620.9219,248.2031 Q620.5938,247.8281 619.9844,247.6094 Q619.375,247.3906 618.75,247.3906 Q617.9844,247.3906 617.3438,247.7188 Q616.7188,248.0469 616.2188,248.7969 Q615.7344,249.5469 615.7344,250.5781 L615.7344,251.6719 Q615.7344,252.9063 616.625,253.7344 Q617.5156,254.5469 619.1094,254.5469 Q620.0469,254.5469 620.7031,254.2969 Q621.0938,254.1406 621.5156,253.7031 Q621.7813,253.4375 621.9219,253.3594 Q622.0781,253.2813 622.2813,253.2813 Q622.6094,253.2813 622.8594,253.5469 Q623.125,253.7969 623.125,254.1406 Q623.125,254.4844 622.7813,254.8906 Q622.2813,255.4688 621.4844,255.7969 Q620.4063,256.25 619.1094,256.25 Q617.5938,256.25 616.3906,255.625 Q615.4063,255.125 614.7188,254.0625 Q614.0313,252.9844 614.0313,251.7031 L614.0313,250.5469 Q614.0313,249.2188 614.6406,248.0781 Q615.2656,246.9219 616.3594,246.3125 Q617.4531,245.6875 618.6875,245.6875 Q619.4219,245.6875 620.0625,245.8594 Q620.7188,246.0156 621.2656,246.375 Z " fill="#000000"/><text fill="#000000" font-family="sans-serif" font-size="14" lengthAdjust="spacing" textLength="121" x="632.5" y="256.2285">HostNetworkDevice</text><line style="stroke:#181818;stroke-width:0.5;" x1="604.5" x2="755.5" y1="266.5" y2="266.5"/><line style="stroke:#181818;stroke-width:0.5;" x1="604.5" x2="755.5" y1="274.5" y2="274.5"/></g><!--MD5=[7708bf2b3811a61fdbad496487474248]
class HostNetworkVlan--><g id="elem_HostNetworkVlan"><rect codeLine="5" fill="#F1F1F1" height="83.2188" id="HostNetworkVlan" rx="2.5" ry="2.5" style="stroke:#181818;stroke-width:0.5;" width="138" x="209" y="217"/><ellipse cx="224" cy="233" fill="#ADD1B2" rx="11" ry="11" style="stroke:#181818;stroke-width:1.0;"/><path d="M226.7656,228.875 Q226.9219,228.6563 227.1094,228.5469 Q227.2969,228.4375 227.5156,228.4375 Q227.8906,228.4375 228.125,228.7031 Q228.3594,228.9531 228.3594,229.5625 L228.3594,231.0156 Q228.3594,231.625 228.125,231.8906 Q227.8906,232.1563 227.5156,232.1563 Q227.1719,232.1563 226.9688,231.9531 Q226.7656,231.7656 226.6563,231.25 Q226.6094,230.8906 226.4219,230.7031 Q226.0938,230.3281 225.4844,230.1094 Q224.875,229.8906 224.25,229.8906 Q223.4844,229.8906 222.8438,230.2188 Q222.2188,230.5469 221.7188,231.2969 Q221.2344,232.0469 221.2344,233.0781 L221.2344,234.1719 Q221.2344,235.4063 222.125,236.2344 Q223.0156,237.0469 224.6094,237.0469 Q225.5469,237.0469 226.2031,236.7969 Q226.5938,236.6406 227.0156,236.2031 Q227.2813,235.9375 227.4219,235.8594 Q227.5781,235.7813 227.7813,235.7813 Q228.1094,235.7813 228.3594,236.0469 Q228.625,236.2969 228.625,236.6406 Q228.625,236.9844 228.2813,237.3906 Q227.7813,237.9688 226.9844,238.2969 Q225.9063,238.75 224.6094,238.75 Q223.0938,238.75 221.8906,238.125 Q220.9063,237.625 220.2188,236.5625 Q219.5313,235.4844 219.5313,234.2031 L219.5313,233.0469 Q219.5313,231.7188 220.1406,230.5781 Q220.7656,229.4219 221.8594,228.8125 Q222.9531,228.1875 224.1875,228.1875 Q224.9219,228.1875 225.5625,228.3594 Q226.2188,228.5156 226.7656,228.875 Z " fill="#000000"/><text fill="#000000" font-family="sans-serif" font-size="14" lengthAdjust="spacing" textLength="106" x="238" y="238.7285">HostNetworkVlan</text><line style="stroke:#181818;stroke-width:0.5;" x1="210" x2="346" y1="249" y2="249"/><ellipse cx="220" cy="260" fill="none" rx="3" ry="3" style="stroke:#038048;stroke-width:1.0;"/><text fill="#000000" font-family="sans-serif" font-size="14" lengthAdjust="spacing" textLength="60" x="229" y="267.5332">VlanID int</text><line style="stroke:#181818;stroke-width:1.0;" x1="210" x2="346" y1="274.6094" y2="274.6094"/><ellipse cx="220" cy="285.6094" fill="none" rx="3" ry="3" style="stroke:#038048;stroke-width:1.0;"/><text fill="#000000" font-family="sans-serif" font-size="14" lengthAdjust="spacing" textLength="81" x="229" y="293.1426">Parent string</text></g><!--MD5=[bd56b3e5eb0134b68fc9951038656522]
class HostNetworkBridge--><g id="elem_HostNetworkBridge"><rect codeLine="5" fill="#F1F1F1" height="83.2188" id="HostNetworkBridge" rx="2.5" ry="2.5" style="stroke:#181818;stroke-width:0.5;" width="151" x="22.5" y="217"/><ellipse cx="37.5" cy="233" fill="#ADD1B2" rx="11" ry="11" style="stroke:#181818;stroke-width:1.0;"/><path d="M40.2656,228.875 Q40.4219,228.6563 40.6094,228.5469 Q40.7969,228.4375 41.0156,228.4375 Q41.3906,228.4375 41.625,228.7031 Q41.8594,228.9531 41.8594,229.5625 L41.8594,231.0156 Q41.8594,231.625 41.625,231.8906 Q41.3906,232.1563 41.0156,232.1563 Q40.6719,232.1563 40.4688,231.9531 Q40.2656,231.7656 40.1563,231.25 Q40.1094,230.8906 39.9219,230.7031 Q39.5938,230.3281 38.9844,230.1094 Q38.375,229.8906 37.75,229.8906 Q36.9844,229.8906 36.3438,230.2188 Q35.7188,230.5469 35.2188,231.2969 Q34.7344,232.0469 34.7344,233.0781 L34.7344,234.1719 Q34.7344,235.4063 35.625,236.2344 Q36.5156,237.0469 38.1094,237.0469 Q39.0469,237.0469 39.7031,236.7969 Q40.0938,236.6406 40.5156,236.2031 Q40.7813,235.9375 40.9219,235.8594 Q41.0781,235.7813 41.2813,235.7813 Q41.6094,235.7813 41.8594,236.0469 Q42.125,236.2969 42.125,236.6406 Q42.125,236.9844 41.7813,237.3906 Q41.2813,237.9688 40.4844,238.2969 Q39.4063,238.75 38.1094,238.75 Q36.5938,238.75 35.3906,238.125 Q34.4063,237.625 33.7188,236.5625 Q33.0313,235.4844 33.0313,234.2031 L33.0313,233.0469 Q33.0313,231.7188 33.6406,230.5781 Q34.2656,229.4219 35.3594,228.8125 Q36.4531,228.1875 37.6875,228.1875 Q38.4219,228.1875 39.0625,228.3594 Q39.7188,228.5156 40.2656,228.875 Z " fill="#000000"/><text fill="#000000" font-family="sans-serif" font-size="14" lengthAdjust="spacing" textLength="119" x="51.5" y="238.7285">HostNetworkBridge</text><line style="stroke:#181818;stroke-width:0.5;" x1="23.5" x2="172.5" y1="249" y2="249"/><ellipse cx="33.5" cy="260" fill="none" rx="3" ry="3" style="stroke:#038048;stroke-width:1.0;"/><text fill="#000000" font-family="sans-serif" font-size="14" lengthAdjust="spacing" textLength="89" x="42.5" y="267.5332">Slaves []string</text><line style="stroke:#181818;stroke-width:1.0;" x1="23.5" x2="172.5" y1="274.6094" y2="274.6094"/><ellipse cx="33.5" cy="285.6094" fill="#84BE84" rx="3" ry="3" style="stroke:#038048;stroke-width:1.0;"/><text fill="#000000" font-family="sans-serif" font-size="14" lengthAdjust="spacing" textLength="122" x="42.5" y="293.1426">GetSlaves() []string</text></g><path d="M382,240.5 L382,249.6758 L164.5,287.4141 L382,257.6758 L382,266.8516 A0,0 0 0 0 382,266.8516 L568,266.8516 A0,0 0 0 0 568,266.8516 L568,250.5 L558,240.5 L382,240.5 A0,0 0 0 0 382,240.5 " fill="#FEFFDD" style="stroke:#181818;stroke-width:0.5;"/><path d="M558,240.5 L558,250.5 L568,250.5 L558,240.5 " fill="#FEFFDD" style="stroke:#181818;stroke-width:0.5;"/><text fill="#000000" font-family="sans-serif" font-size="13" lengthAdjust="spacing" textLength="165" x="388" y="258.9951">Get an array of bridge slaves</text><!--MD5=[58987b0398bdf5010f5174b6a6feac3c]
class HostNetworkConfig--><g id="elem_HostNetworkConfig"><rect codeLine="7" fill="#F1F1F1" height="108.8281" id="HostNetworkConfig" rx="2.5" ry="2.5" style="stroke:#181818;stroke-width:0.5;" width="209" x="172.5" y="46"/><ellipse cx="213.6" cy="62" fill="#ADD1B2" rx="11" ry="11" style="stroke:#181818;stroke-width:1.0;"/><path d="M216.3656,57.875 Q216.5219,57.6563 216.7094,57.5469 Q216.8969,57.4375 217.1156,57.4375 Q217.4906,57.4375 217.725,57.7031 Q217.9594,57.9531 217.9594,58.5625 L217.9594,60.0156 Q217.9594,60.625 217.725,60.8906 Q217.4906,61.1563 217.1156,61.1563 Q216.7719,61.1563 216.5688,60.9531 Q216.3656,60.7656 216.2563,60.25 Q216.2094,59.8906 216.0219,59.7031 Q215.6938,59.3281 215.0844,59.1094 Q214.475,58.8906 213.85,58.8906 Q213.0844,58.8906 212.4438,59.2188 Q211.8188,59.5469 211.3188,60.2969 Q210.8344,61.0469 210.8344,62.0781 L210.8344,63.1719 Q210.8344,64.4063 211.725,65.2344 Q212.6156,66.0469 214.2094,66.0469 Q215.1469,66.0469 215.8031,65.7969 Q216.1938,65.6406 216.6156,65.2031 Q216.8813,64.9375 217.0219,64.8594 Q217.1781,64.7813 217.3813,64.7813 Q217.7094,64.7813 217.9594,65.0469 Q218.225,65.2969 218.225,65.6406 Q218.225,65.9844 217.8813,66.3906 Q217.3813,66.9688 216.5844,67.2969 Q215.5063,67.75 214.2094,67.75 Q212.6938,67.75 211.4906,67.125 Q210.5063,66.625 209.8188,65.5625 Q209.1313,64.4844 209.1313,63.2031 L209.1313,62.0469 Q209.1313,60.7188 209.7406,59.5781 Q210.3656,58.4219 211.4594,57.8125 Q212.5531,57.1875 213.7875,57.1875 Q214.5219,57.1875 215.1625,57.3594 Q215.8188,57.5156 216.3656,57.875 Z " fill="#000000"/><text fill="#000000" font-family="sans-serif" font-size="14" lengthAdjust="spacing" textLength="119" x="233.4" y="67.7285">HostNetworkConfig</text><line style="stroke:#181818;stroke-width:0.5;" x1="173.5" x2="380.5" y1="78" y2="78"/><ellipse cx="183.5" cy="89" fill="none" rx="3" ry="3" style="stroke:#038048;stroke-width:1.0;"/><text fill="#000000" font-family="sans-serif" font-size="14" lengthAdjust="spacing" textLength="183" x="192.5" y="96.5332">Devices []HostNetworkDevice</text><line style="stroke:#181818;stroke-width:1.0;" x1="173.5" x2="380.5" y1="103.6094" y2="103.6094"/><ellipse cx="183.5" cy="114.6094" fill="none" rx="3" ry="3" style="stroke:#038048;stroke-width:1.0;"/><text fill="#000000" font-family="sans-serif" font-size="14" lengthAdjust="spacing" textLength="161" x="192.5" y="122.1426">Vlans   []HostNetworkVlan</text><line style="stroke:#181818;stroke-width:1.0;" x1="173.5" x2="380.5" y1="129.2188" y2="129.2188"/><ellipse cx="183.5" cy="140.2188" fill="none" rx="3" ry="3" style="stroke:#038048;stroke-width:1.0;"/><text fill="#000000" font-family="sans-serif" font-size="14" lengthAdjust="spacing" textLength="179" x="192.5" y="147.752">Bridges []HostNetworkBridge</text></g><!--MD5=[0ef4b9020a0ab381891be386a00db524]
class YamlHostNetworkConfigStorage--><g id="elem_YamlHostNetworkConfigStorage"><rect codeLine="5" fill="#F1F1F1" height="65.6094" id="YamlHostNetworkConfigStorage" rx="2.5" ry="2.5" style="stroke:#181818;stroke-width:0.5;" width="232" x="932" y="381.5"/><ellipse cx="947" cy="397.5" fill="#ADD1B2" rx="11" ry="11" style="stroke:#181818;stroke-width:1.0;"/><path d="M949.7656,393.375 Q949.9219,393.1563 950.1094,393.0469 Q950.2969,392.9375 950.5156,392.9375 Q950.8906,392.9375 951.125,393.2031 Q951.3594,393.4531 951.3594,394.0625 L951.3594,395.5156 Q951.3594,396.125 951.125,396.3906 Q950.8906,396.6563 950.5156,396.6563 Q950.1719,396.6563 949.9688,396.4531 Q949.7656,396.2656 949.6563,395.75 Q949.6094,395.3906 949.4219,395.2031 Q949.0938,394.8281 948.4844,394.6094 Q947.875,394.3906 947.25,394.3906 Q946.4844,394.3906 945.8438,394.7188 Q945.2188,395.0469 944.7188,395.7969 Q944.2344,396.5469 944.2344,397.5781 L944.2344,398.6719 Q944.2344,399.9063 945.125,400.7344 Q946.0156,401.5469 947.6094,401.5469 Q948.5469,401.5469 949.2031,401.2969 Q949.5938,401.1406 950.0156,400.7031 Q950.2813,400.4375 950.4219,400.3594 Q950.5781,400.2813 950.7813,400.2813 Q951.1094,400.2813 951.3594,400.5469 Q951.625,400.7969 951.625,401.1406 Q951.625,401.4844 951.2813,401.8906 Q950.7813,402.4688 949.9844,402.7969 Q948.9063,403.25 947.6094,403.25 Q946.0938,403.25 944.8906,402.625 Q943.9063,402.125 943.2188,401.0625 Q942.5313,399.9844 942.5313,398.7031 L942.5313,397.5469 Q942.5313,396.2188 943.1406,395.0781 Q943.7656,393.9219 944.8594,393.3125 Q945.9531,392.6875 947.1875,392.6875 Q947.9219,392.6875 948.5625,392.8594 Q949.2188,393.0156 949.7656,393.375 Z " fill="#000000"/><text fill="#000000" font-family="sans-serif" font-size="14" lengthAdjust="spacing" textLength="200" x="961" y="403.2285">YamlHostNetworkConfigStorage</text><line style="stroke:#181818;stroke-width:0.5;" x1="933" x2="1163" y1="413.5" y2="413.5"/><rect fill="none" height="6" style="stroke:#C82930;stroke-width:1.0;" width="6" x="940" y="421.5"/><text fill="#000000" font-family="sans-serif" font-size="14" lengthAdjust="spacing" textLength="129" x="952" y="432.0332">configFilePath string</text><line style="stroke:#181818;stroke-width:0.5;" x1="933" x2="1163" y1="439.1094" y2="439.1094"/></g><!--MD5=[9e1d7ce1192ca49e51cccbdad1af1931]
class HostNetworkManager--><g id="elem_HostNetworkManager"><rect codeLine="7" fill="#F1F1F1" height="83.2188" id="HostNetworkManager" rx="2.5" ry="2.5" style="stroke:#181818;stroke-width:0.5;" width="360" x="1207" y="373.5"/><ellipse cx="1315.75" cy="389.5" fill="#ADD1B2" rx="11" ry="11" style="stroke:#181818;stroke-width:1.0;"/><path d="M1318.5156,385.375 Q1318.6719,385.1563 1318.8594,385.0469 Q1319.0469,384.9375 1319.2656,384.9375 Q1319.6406,384.9375 1319.875,385.2031 Q1320.1094,385.4531 1320.1094,386.0625 L1320.1094,387.5156 Q1320.1094,388.125 1319.875,388.3906 Q1319.6406,388.6563 1319.2656,388.6563 Q1318.9219,388.6563 1318.7188,388.4531 Q1318.5156,388.2656 1318.4063,387.75 Q1318.3594,387.3906 1318.1719,387.2031 Q1317.8438,386.8281 1317.2344,386.6094 Q1316.625,386.3906 1316,386.3906 Q1315.2344,386.3906 1314.5938,386.7188 Q1313.9688,387.0469 1313.4688,387.7969 Q1312.9844,388.5469 1312.9844,389.5781 L1312.9844,390.6719 Q1312.9844,391.9063 1313.875,392.7344 Q1314.7656,393.5469 1316.3594,393.5469 Q1317.2969,393.5469 1317.9531,393.2969 Q1318.3438,393.1406 1318.7656,392.7031 Q1319.0313,392.4375 1319.1719,392.3594 Q1319.3281,392.2813 1319.5313,392.2813 Q1319.8594,392.2813 1320.1094,392.5469 Q1320.375,392.7969 1320.375,393.1406 Q1320.375,393.4844 1320.0313,393.8906 Q1319.5313,394.4688 1318.7344,394.7969 Q1317.6563,395.25 1316.3594,395.25 Q1314.8438,395.25 1313.6406,394.625 Q1312.6563,394.125 1311.9688,393.0625 Q1311.2813,391.9844 1311.2813,390.7031 L1311.2813,389.5469 Q1311.2813,388.2188 1311.8906,387.0781 Q1312.5156,385.9219 1313.6094,385.3125 Q1314.7031,384.6875 1315.9375,384.6875 Q1316.6719,384.6875 1317.3125,384.8594 Q1317.9688,385.0156 1318.5156,385.375 Z " fill="#000000"/><text fill="#000000" font-family="sans-serif" font-size="14" lengthAdjust="spacing" textLength="134" x="1336.25" y="395.2285">HostNetworkManager</text><line style="stroke:#181818;stroke-width:0.5;" x1="1208" x2="1566" y1="405.5" y2="405.5"/><rect fill="none" height="6" style="stroke:#C82930;stroke-width:1.0;" width="6" x="1215" y="413.5"/><text fill="#000000" font-family="sans-serif" font-size="14" lengthAdjust="spacing" textLength="334" x="1227" y="424.0332">configStorage  interfaces.IHostNetworkConfigStorage</text><line style="stroke:#181818;stroke-width:1.0;" x1="1208" x2="1566" y1="431.1094" y2="431.1094"/><rect fill="none" height="6" style="stroke:#C82930;stroke-width:1.0;" width="6" x="1215" y="439.1094"/><text fill="#000000" font-family="sans-serif" font-size="14" lengthAdjust="spacing" textLength="166" x="1227" y="449.6426">hasUnsavedChanges bool</text></g><!--MD5=[c7ae537b1fb1fd62da54845b02126a57]
link HostNetworkLink to IHostNetworkLink--><g id="link_HostNetworkLink_IHostNetworkLink"><path codeLine="21" d="M406,469.16 C406,535.73 406,649.57 406,724.42 " fill="none" id="HostNetworkLink-to-IHostNetworkLink" style="stroke:#181818;stroke-width:1.0;"/><polygon fill="none" points="413,724.9,406,744.9,399,724.9,413,724.9" style="stroke:#181818;stroke-width:1.0;"/></g><!--MD5=[7c0130aaa2dc79170695f96da00ebff9]
link HostNetworkDevice to HostNetworkLink--><g id="link_HostNetworkDevice_HostNetworkLink"><path codeLine="7" d="M638.98,282.56 C602.02,303.33 546.32,334.63 498.66,361.42 " fill="none" id="HostNetworkDevice-to-HostNetworkLink" style="stroke:#181818;stroke-width:1.0;"/><polygon fill="#181818" points="487.04,367.95,494.2302,368.499,497.5024,362.0731,490.3123,361.5241,487.04,367.95" style="stroke:#181818;stroke-width:1.0;"/></g><!--MD5=[f741d5613818e7c6a8b6721c8e9fb611]
link HostNetworkVlan to HostNetworkLink--><g id="link_HostNetworkVlan_HostNetworkLink"><path codeLine="11" d="M311.97,300.36 C324.54,315.49 339.11,333.03 352.98,349.71 " fill="none" id="HostNetworkVlan-to-HostNetworkLink" style="stroke:#181818;stroke-width:1.0;"/><polygon fill="#181818" points="361.49,359.95,360.7248,352.7796,353.8117,350.7281,354.5769,357.8985,361.49,359.95" style="stroke:#181818;stroke-width:1.0;"/></g><!--MD5=[dba085063a1d972b71adca959eac56ab]
link HostNetworkBridge to HostNetworkLink--><g id="link_HostNetworkBridge_HostNetworkLink"><path codeLine="11" d="M173.72,293.56 C179.85,295.88 186,298.06 192,300 C241.82,316.1 260.38,301.68 307,325.5 C320.38,332.34 333.39,341.42 345.33,351.16 " fill="none" id="HostNetworkBridge-to-HostNetworkLink" style="stroke:#181818;stroke-width:1.0;"/><polygon fill="#181818" points="355.53,359.84,353.5545,352.9048,346.3929,352.0609,348.3684,358.9962,355.53,359.84" style="stroke:#181818;stroke-width:1.0;"/></g><!--MD5=[22922eb5c98d6328bffadf0fffe1f4a9]
link HostNetworkConfig to HostNetworkDevice--><g id="link_HostNetworkConfig_HostNetworkDevice"><path codeLine="15" d="M383,90.5 C498.94,90.5 611.44,188.39 657.81,234.28 " fill="none" id="HostNetworkConfig-HostNetworkDevice" style="stroke:#181818;stroke-width:1.0;"/></g><!--MD5=[3939eded06239bcaaa875b04c4955c10]
link HostNetworkConfig to HostNetworkVlan--><g id="link_HostNetworkConfig_HostNetworkVlan"><path codeLine="16" d="M383,116.5 C433.36,116.5 375.18,175.07 327.46,216.72 " fill="none" id="HostNetworkConfig-HostNetworkVlan" style="stroke:#181818;stroke-width:1.0;"/></g><!--MD5=[9daca89a698ab2c397b62c91a9aa8944]
link HostNetworkConfig to HostNetworkBridge--><g id="link_HostNetworkConfig_HostNetworkBridge"><path codeLine="17" d="M172,141.5 C135.21,141.5 115.91,183.48 106.36,216.93 " fill="none" id="HostNetworkConfig-HostNetworkBridge" style="stroke:#181818;stroke-width:1.0;"/></g><!--MD5=[4b27b58a3dcdc7721ce2906e479ec2a1]
link YamlHostNetworkConfigStorage to IHostNetworkConfigStorage--><g id="link_YamlHostNetworkConfigStorage_IHostNetworkConfigStorage"><path codeLine="9" d="M992.93,447.56 C970.42,462.18 945.03,480.75 925,501 C857.33,569.42 797.91,663.31 761.35,727.19 " fill="none" id="YamlHostNetworkConfigStorage-to-IHostNetworkConfigStorage" style="stroke:#181818;stroke-width:1.0;"/><polygon fill="none" points="767.35,730.79,751.43,744.77,755.16,723.91,767.35,730.79" style="stroke:#181818;stroke-width:1.0;"/></g><!--MD5=[5a77e35d18a67292d31d635cffa38ea2]
link HostNetworkManager to YamlHostNetworkConfigStorage--><g id="link_HostNetworkManager_YamlHostNetworkConfigStorage"><path codeLine="13" d="M1206,418.5 C1195.77,418.5 1185.17,418.41 1174.52,418.27 " fill="none" id="HostNetworkManager-YamlHostNetworkConfigStorage" style="stroke:#181818;stroke-width:1.0;"/><line style="stroke:#181818;stroke-width:1.0;" x1="1174.52" x2="1164.31" y1="418.27" y2="418.11"/></g><!--MD5=[8da93bdfc8a67e29cf06757d442ac4df]
link YamlHostNetworkConfigStorage to HostNetworkManager--><!--MD5=[3dcecfe70558689b84244a7b11eaea24]
link HostNetworkManager to IHostNetworkManager--><g id="link_HostNetworkManager_IHostNetworkManager"><path codeLine="14" d="M1402.04,459.81 C1412.87,491.71 1428.35,537.33 1444.46,584.79 " fill="none" id="HostNetworkManager-to-IHostNetworkManager" style="stroke:#181818;stroke-width:1.0;"/><polygon fill="none" points="1451.1,582.57,1450.9,603.76,1437.84,587.07,1451.1,582.57" style="stroke:#181818;stroke-width:1.0;"/></g><!--MD5=[ee783214b2669a38c926da1ba8fc650e]
@startuml

!include ../entities/HostNetworkConfig.puml
!include ../interfaces/IHostNetworkManager.puml
!include ../storages/YamlHostNetworkConfigStorage.puml

package infrastructure {
    class HostNetworkManager {
        -configStorage  interfaces.IHostNetworkConfigStorage
        - -
        -hasUnsavedChanges bool
    }

    HostNetworkManager::configStorage - - YamlHostNetworkConfigStorage
    HostNetworkManager -down-|> IHostNetworkManager
    HostNetworkManager -[hidden]left- YamlHostNetworkConfigStorage
}

@enduml

@startuml





package app {
    interface IHostNetworkLink {
        +GetName() string
        - -
        +GetType() string
        - -
        +GetAddresses() []net.IPNet
    }

    note left of IHostNetworkLink::GetName
    Gets host interface name
    end note

    note left of IHostNetworkLink::GetType
    Gets host interface type
    end note

    note left of IHostNetworkLink::GetAddresses
    Gets host interface addresses
    end note
}


package domain {
    class HostNetworkLink {
        +Name string
        - -
        +Addresses []net.IPNet
        - -
        +Type string
    }
    note left of HostNetworkLink::Name
    Unique name of the network interface
    end note

    note left of HostNetworkLink::Type
    Default value is "none"
    because HostNetworkLink is a basic class
    end note

    HostNetworkLink - -|> IHostNetworkLink
}


package domain {
    class HostNetworkDevice

    HostNetworkDevice - -* HostNetworkLink
}



package domain {
    class HostNetworkVlan {
        +VlanID int
        - -
        +Parent string
    }

    HostNetworkVlan - -* HostNetworkLink
}



package domain {
    class HostNetworkBridge {
        +Slaves []string
        - -
        +GetSlaves() []string
    }

    HostNetworkBridge - -* HostNetworkLink

    note right of HostNetworkBridge::GetSlaves
        Get an array of bridge slaves
    end note
}




package domain {
    class HostNetworkConfig {
        +Devices []HostNetworkDevice
        - -
        +Vlans   []HostNetworkVlan
        - -
        +Bridges []HostNetworkBridge
    }

    HostNetworkConfig::Devices - - HostNetworkDevice
    HostNetworkConfig::Vlans - - HostNetworkVlan
    HostNetworkConfig::Bridges - - HostNetworkBridge
}



package app {
    interface IHostNetworkManager {
        +GetList() ([]IHostNetworkLink, error)
        - -
        +GetByName(name string) (IHostNetworkLink, error)
        - -
        +CreateVlan(master string, vlanID int) (string, error)
        - -
        +CreateBridge(name string) (string, error)
        - -
        +SetLinkMaster(slaveName, masterName string) error
        - -
        +UnsetLinkMaster(linkName string) error
        - -
        +SetLinkUp(linkName string) error
        - -
        +DeleteLinkByName(name string) error
        - -
        +AddrAdd(linkName string, addr net.IPNet) error
        - -
        +AddrDelete(linkName string, addr net.IPNet) error
        - -
        +SaveConfiguration() error
        - -
        +RestoreFromBackup() error
        - -
        +ResetChanges() error
        - -
        +HasUnsavedChanges() bool
    }

    note left of IHostNetworkManager::GetList
    Gets list of host network interfaces
    end note

    note left of IHostNetworkManager::GetByName
    Gets host network interface by its name
    end note

    note left of IHostNetworkManager::CreateVlan
    Create host vlan interface with name rol.{Master}.{VlanID}
    end note

    note left of IHostNetworkManager::CreateBridge
    Create host bridge interface with name rol.br.{Name}
    end note

    note left of IHostNetworkManager::SetLinkMaster
    Set master for link
    end note

    note left of IHostNetworkManager::UnsetLinkMaster
    Removes the master of the link
    end note

    note left of IHostNetworkManager::SetLinkUp
    Enables the link on host
    end note

    note left of IHostNetworkManager::DeleteLinkByName
    Deletes interface on host by its name
    end note

    note left of IHostNetworkManager::AddrAdd
    Add new ip address for network interface
    end note

    note left of IHostNetworkManager::AddrDelete
    Delete ip address for network interface
    end note

    note left of IHostNetworkManager::SaveConfiguration
    Save current host network configuration to the storage
    end note

    note left of IHostNetworkManager::RestoreFromBackup
    Restore and apply host network configuration from backup
    end note

    note left of IHostNetworkManager::ResetChanges
    Reset all applied changes to state from saved configuration
    end note

    note left of IHostNetworkManager::HasUnsavedChanges
    Gets a flag about unsaved changes
    end note
}




package app {
    interface IHostNetworkConfigStorage {
        +SaveConfig(config domain.HostNetworkConfig) error
        - -
        +GetConfig() (domain.HostNetworkConfig, error)
        - -
        +GetBackupConfig() (domain.HostNetworkConfig, error)
    }
}


package infrastructure {
    class YamlHostNetworkConfigStorage {
        -configFilePath string
    }

    YamlHostNetworkConfigStorage - -|> IHostNetworkConfigStorage
}


package infrastructure {
    class HostNetworkManager {
        -configStorage  interfaces.IHostNetworkConfigStorage
        - -
        -hasUnsavedChanges bool
    }

    HostNetworkManager::configStorage - - YamlHostNetworkConfigStorage
    HostNetworkManager -down-|> IHostNetworkManager
    HostNetworkManager -[hidden]left- YamlHostNetworkConfigStorage
}

@enduml

PlantUML version 1.2022.6(Tue Jun 21 20:34:49 MSK 2022)
(GPL source distribution)
Java Runtime: OpenJDK Runtime Environment
JVM: OpenJDK 64-Bit Server VM
Default Encoding: Cp1251
Language: ru
Country: RU
--></g></svg>