<?xml version="1.0" encoding="UTF-8" standalone="no"?><svg xmlns="http://www.w3.org/2000/svg" xmlns:xlink="http://www.w3.org/1999/xlink" contentStyleType="text/css" height="277px" preserveAspectRatio="none" style="width:227px;height:277px;background:#FFFFFF;" version="1.1" viewBox="0 0 227 277" width="227px" zoomAndPan="magnify"><defs/><g><!--MD5=[ac65c812e7532cbcd7b9effd958b962e]
cluster dtos--><g id="cluster_dtos"><path d="M8.5,6 L44.5,6 A3.75,3.75 0 0 1 47,8.5 L54,28.2969 L217.5,28.2969 A2.5,2.5 0 0 1 220,30.7969 L220,267.5 A2.5,2.5 0 0 1 217.5,270 L8.5,270 A2.5,2.5 0 0 1 6,267.5 L6,8.5 A2.5,2.5 0 0 1 8.5,6 " fill="none" style="stroke:#000000;stroke-width:1.5;"/><line style="stroke:#000000;stroke-width:1.5;" x1="6" x2="54" y1="28.2969" y2="28.2969"/><text fill="#000000" font-family="sans-serif" font-size="14" font-weight="bold" lengthAdjust="spacing" textLength="35" x="10" y="20.9951">dtos</text></g><!--MD5=[27905da863934eac2056778070a0f812]
class TFTPServerBaseDto--><g id="elem_TFTPServerBaseDto"><rect codeLine="3" fill="#F1F1F1" height="104.8906" id="TFTPServerBaseDto" rx="2.5" ry="2.5" style="stroke:#181818;stroke-width:0.5;" width="171" x="27.5" y="149"/><ellipse cx="42.5" cy="165" fill="#ADD1B2" rx="11" ry="11" style="stroke:#181818;stroke-width:1.0;"/><path d="M45.4688,170.6406 Q44.8906,170.9375 44.25,171.0781 Q43.6094,171.2344 42.9063,171.2344 Q40.4063,171.2344 39.0781,169.5938 Q37.7656,167.9375 37.7656,164.8125 Q37.7656,161.6875 39.0781,160.0313 Q40.4063,158.375 42.9063,158.375 Q43.6094,158.375 44.25,158.5313 Q44.9063,158.6875 45.4688,158.9844 L45.4688,161.7031 Q44.8438,161.125 44.25,160.8594 Q43.6563,160.5781 43.0313,160.5781 Q41.6875,160.5781 41,161.6563 Q40.3125,162.7188 40.3125,164.8125 Q40.3125,166.9063 41,167.9844 Q41.6875,169.0469 43.0313,169.0469 Q43.6563,169.0469 44.25,168.7813 Q44.8438,168.5 45.4688,167.9219 L45.4688,170.6406 Z " fill="#000000"/><text fill="#000000" font-family="sans-serif" font-size="14" lengthAdjust="spacing" textLength="139" x="56.5" y="169.8467">TFTPServerBaseDto</text><line style="stroke:#181818;stroke-width:0.5;" x1="28.5" x2="197.5" y1="181" y2="181"/><ellipse cx="38.5" cy="194.6484" fill="none" rx="3" ry="3" style="stroke:#038048;stroke-width:1.0;"/><text fill="#000000" font-family="sans-serif" font-size="14" lengthAdjust="spacing" textLength="100" x="47.5" y="197.9951">Address string</text><line style="stroke:#181818;stroke-width:1.0;" x1="28.5" x2="197.5" y1="205.2969" y2="205.2969"/><ellipse cx="38.5" cy="218.9453" fill="none" rx="3" ry="3" style="stroke:#038048;stroke-width:1.0;"/><text fill="#000000" font-family="sans-serif" font-size="14" lengthAdjust="spacing" textLength="71" x="47.5" y="222.292">Port string</text><line style="stroke:#181818;stroke-width:1.0;" x1="28.5" x2="197.5" y1="229.5938" y2="229.5938"/><ellipse cx="38.5" cy="243.2422" fill="none" rx="3" ry="3" style="stroke:#038048;stroke-width:1.0;"/><text fill="#000000" font-family="sans-serif" font-size="14" lengthAdjust="spacing" textLength="90" x="47.5" y="246.5889">Enabled bool</text></g><!--MD5=[fb4aff512fcc7943d42e29685b30346e]
class TFTPServerCreateDto--><g id="elem_TFTPServerCreateDto"><rect codeLine="5" fill="#F1F1F1" height="48" id="TFTPServerCreateDto" rx="2.5" ry="2.5" style="stroke:#181818;stroke-width:0.5;" width="182" x="22" y="41"/><ellipse cx="37" cy="57" fill="#ADD1B2" rx="11" ry="11" style="stroke:#181818;stroke-width:1.0;"/><path d="M39.9688,62.6406 Q39.3906,62.9375 38.75,63.0781 Q38.1094,63.2344 37.4063,63.2344 Q34.9063,63.2344 33.5781,61.5938 Q32.2656,59.9375 32.2656,56.8125 Q32.2656,53.6875 33.5781,52.0313 Q34.9063,50.375 37.4063,50.375 Q38.1094,50.375 38.75,50.5313 Q39.4063,50.6875 39.9688,50.9844 L39.9688,53.7031 Q39.3438,53.125 38.75,52.8594 Q38.1563,52.5781 37.5313,52.5781 Q36.1875,52.5781 35.5,53.6563 Q34.8125,54.7188 34.8125,56.8125 Q34.8125,58.9063 35.5,59.9844 Q36.1875,61.0469 37.5313,61.0469 Q38.1563,61.0469 38.75,60.7813 Q39.3438,60.5 39.9688,59.9219 L39.9688,62.6406 Z " fill="#000000"/><text fill="#000000" font-family="sans-serif" font-size="14" lengthAdjust="spacing" textLength="150" x="51" y="61.8467">TFTPServerCreateDto</text><line style="stroke:#181818;stroke-width:0.5;" x1="23" x2="203" y1="73" y2="73"/><line style="stroke:#181818;stroke-width:0.5;" x1="23" x2="203" y1="81" y2="81"/></g><!--MD5=[1f956878344a7cfacc0601e0be5247a4]
link TFTPServerCreateDto to TFTPServerBaseDto--><g id="link_TFTPServerCreateDto_TFTPServerBaseDto"><path codeLine="8" d="M113,89.12 C113,102.1 113,119.01 113,135.71 " fill="none" id="TFTPServerCreateDto-to-TFTPServerBaseDto" style="stroke:#181818;stroke-width:1.0;"/><polygon fill="#181818" points="113,148.98,117,142.98,113,136.98,109,142.98,113,148.98" style="stroke:#181818;stroke-width:1.0;"/></g><!--MD5=[02bc18603d2cef37530ba6ca229912a6]
@startuml

!include TFTPServerBaseDto.puml

package dtos {
    class TFTPServerCreateDto {}
}

TFTPServerCreateDto - -* TFTPServerBaseDto

@enduml

@startuml


package dtos {
    class TFTPServerBaseDto {
        +Address string
        - -
        +Port string
        - -
        +Enabled bool
    }
}


package dtos {
    class TFTPServerCreateDto {}
}

TFTPServerCreateDto - -* TFTPServerBaseDto

@enduml

PlantUML version 1.2022.12(Sun Oct 23 18:12:26 EGST 2022)
(GPL source distribution)
Java Runtime: OpenJDK Runtime Environment
JVM: OpenJDK 64-Bit Server VM
Default Encoding: UTF-8
Language: en
Country: US
--></g></svg>