<?xml version="1.0" encoding="UTF-8" standalone="no"?><svg xmlns="http://www.w3.org/2000/svg" xmlns:xlink="http://www.w3.org/1999/xlink" contentStyleType="text/css" height="277px" preserveAspectRatio="none" style="width:231px;height:277px;background:#FFFFFF;" version="1.1" viewBox="0 0 231 277" width="231px" zoomAndPan="magnify"><defs/><g><!--MD5=[ac65c812e7532cbcd7b9effd958b962e]
cluster dtos--><g id="cluster_dtos"><path d="M8.5,6 L44.5,6 A3.75,3.75 0 0 1 47,8.5 L54,28.2969 L221.5,28.2969 A2.5,2.5 0 0 1 224,30.7969 L224,267.5 A2.5,2.5 0 0 1 221.5,270 L8.5,270 A2.5,2.5 0 0 1 6,267.5 L6,8.5 A2.5,2.5 0 0 1 8.5,6 " fill="none" style="stroke:#000000;stroke-width:1.5;"/><line style="stroke:#000000;stroke-width:1.5;" x1="6" x2="54" y1="28.2969" y2="28.2969"/><text fill="#000000" font-family="sans-serif" font-size="14" font-weight="bold" lengthAdjust="spacing" textLength="35" x="10" y="20.9951">dtos</text></g><!--MD5=[27905da863934eac2056778070a0f812]
class TFTPServerBaseDto--><g id="elem_TFTPServerBaseDto"><rect codeLine="3" fill="#F1F1F1" height="104.8906" id="TFTPServerBaseDto" rx="2.5" ry="2.5" style="stroke:#181818;stroke-width:0.5;" width="171" x="29.5" y="149"/><ellipse cx="44.5" cy="165" fill="#ADD1B2" rx="11" ry="11" style="stroke:#181818;stroke-width:1.0;"/><path d="M47.4688,170.6406 Q46.8906,170.9375 46.25,171.0781 Q45.6094,171.2344 44.9063,171.2344 Q42.4063,171.2344 41.0781,169.5938 Q39.7656,167.9375 39.7656,164.8125 Q39.7656,161.6875 41.0781,160.0313 Q42.4063,158.375 44.9063,158.375 Q45.6094,158.375 46.25,158.5313 Q46.9063,158.6875 47.4688,158.9844 L47.4688,161.7031 Q46.8438,161.125 46.25,160.8594 Q45.6563,160.5781 45.0313,160.5781 Q43.6875,160.5781 43,161.6563 Q42.3125,162.7188 42.3125,164.8125 Q42.3125,166.9063 43,167.9844 Q43.6875,169.0469 45.0313,169.0469 Q45.6563,169.0469 46.25,168.7813 Q46.8438,168.5 47.4688,167.9219 L47.4688,170.6406 Z " fill="#000000"/><text fill="#000000" font-family="sans-serif" font-size="14" lengthAdjust="spacing" textLength="139" x="58.5" y="169.8467">TFTPServerBaseDto</text><line style="stroke:#181818;stroke-width:0.5;" x1="30.5" x2="199.5" y1="181" y2="181"/><ellipse cx="40.5" cy="194.6484" fill="none" rx="3" ry="3" style="stroke:#038048;stroke-width:1.0;"/><text fill="#000000" font-family="sans-serif" font-size="14" lengthAdjust="spacing" textLength="100" x="49.5" y="197.9951">Address string</text><line style="stroke:#181818;stroke-width:1.0;" x1="30.5" x2="199.5" y1="205.2969" y2="205.2969"/><ellipse cx="40.5" cy="218.9453" fill="none" rx="3" ry="3" style="stroke:#038048;stroke-width:1.0;"/><text fill="#000000" font-family="sans-serif" font-size="14" lengthAdjust="spacing" textLength="71" x="49.5" y="222.292">Port string</text><line style="stroke:#181818;stroke-width:1.0;" x1="30.5" x2="199.5" y1="229.5938" y2="229.5938"/><ellipse cx="40.5" cy="243.2422" fill="none" rx="3" ry="3" style="stroke:#038048;stroke-width:1.0;"/><text fill="#000000" font-family="sans-serif" font-size="14" lengthAdjust="spacing" textLength="90" x="49.5" y="246.5889">Enabled bool</text></g><!--MD5=[898a134d9b79217fde3c4d65fe863f0a]
class TFTPServerUpdateDto--><g id="elem_TFTPServerUpdateDto"><rect codeLine="5" fill="#F1F1F1" height="48" id="TFTPServerUpdateDto" rx="2.5" ry="2.5" style="stroke:#181818;stroke-width:0.5;" width="186" x="22" y="41"/><ellipse cx="37" cy="57" fill="#ADD1B2" rx="11" ry="11" style="stroke:#181818;stroke-width:1.0;"/><path d="M39.9688,62.6406 Q39.3906,62.9375 38.75,63.0781 Q38.1094,63.2344 37.4063,63.2344 Q34.9063,63.2344 33.5781,61.5938 Q32.2656,59.9375 32.2656,56.8125 Q32.2656,53.6875 33.5781,52.0313 Q34.9063,50.375 37.4063,50.375 Q38.1094,50.375 38.75,50.5313 Q39.4063,50.6875 39.9688,50.9844 L39.9688,53.7031 Q39.3438,53.125 38.75,52.8594 Q38.1563,52.5781 37.5313,52.5781 Q36.1875,52.5781 35.5,53.6563 Q34.8125,54.7188 34.8125,56.8125 Q34.8125,58.9063 35.5,59.9844 Q36.1875,61.0469 37.5313,61.0469 Q38.1563,61.0469 38.75,60.7813 Q39.3438,60.5 39.9688,59.9219 L39.9688,62.6406 Z " fill="#000000"/><text fill="#000000" font-family="sans-serif" font-size="14" lengthAdjust="spacing" textLength="154" x="51" y="61.8467">TFTPServerUpdateDto</text><line style="stroke:#181818;stroke-width:0.5;" x1="23" x2="207" y1="73" y2="73"/><line style="stroke:#181818;stroke-width:0.5;" x1="23" x2="207" y1="81" y2="81"/></g><!--MD5=[be4801ffe7a880d5d07adfbaa63728c0]
link TFTPServerUpdateDto to TFTPServerBaseDto--><g id="link_TFTPServerUpdateDto_TFTPServerBaseDto"><path codeLine="8" d="M115,89.12 C115,102.1 115,119.01 115,135.71 " fill="none" id="TFTPServerUpdateDto-to-TFTPServerBaseDto" style="stroke:#181818;stroke-width:1.0;"/><polygon fill="#181818" points="115,148.98,119,142.98,115,136.98,111,142.98,115,148.98" style="stroke:#181818;stroke-width:1.0;"/></g><!--MD5=[a7ffcdea5cf77af429915777f3420ffa]
@startuml

!include TFTPServerBaseDto.puml

package dtos {
    class TFTPServerUpdateDto {}
}

TFTPServerUpdateDto - -* TFTPServerBaseDto

@enduml

@startuml


package dtos {
    class TFTPServerBaseDto {
        +Address string
        - -
        +Port string
        - -
        +Enabled bool
    }
}


package dtos {
    class TFTPServerUpdateDto {}
}

TFTPServerUpdateDto - -* TFTPServerBaseDto

@enduml

PlantUML version 1.2022.12(Sun Oct 23 18:12:26 EGST 2022)
(GPL source distribution)
Java Runtime: OpenJDK Runtime Environment
JVM: OpenJDK 64-Bit Server VM
Default Encoding: UTF-8
Language: en
Country: US
--></g></svg>