<?xml version="1.0" encoding="UTF-8" standalone="no"?><svg xmlns="http://www.w3.org/2000/svg" xmlns:xlink="http://www.w3.org/1999/xlink" contentStyleType="text/css" height="301px" preserveAspectRatio="none" style="width:299px;height:301px;background:#FFFFFF;" version="1.1" viewBox="0 0 299 301" width="299px" zoomAndPan="magnify"><defs/><g><!--MD5=[ac65c812e7532cbcd7b9effd958b962e]
cluster dtos--><g id="cluster_dtos"><path d="M8.5,6 L44.5,6 A3.75,3.75 0 0 1 47,8.5 L54,28.2969 L289.5,28.2969 A2.5,2.5 0 0 1 292,30.7969 L292,291.5 A2.5,2.5 0 0 1 289.5,294 L8.5,294 A2.5,2.5 0 0 1 6,291.5 L6,8.5 A2.5,2.5 0 0 1 8.5,6 " fill="none" style="stroke:#000000;stroke-width:1.5;"/><line style="stroke:#000000;stroke-width:1.5;" x1="6" x2="54" y1="28.2969" y2="28.2969"/><text fill="#000000" font-family="sans-serif" font-size="14" font-weight="bold" lengthAdjust="spacing" textLength="35" x="10" y="20.9951">dtos</text></g><!--MD5=[4cd0ca682ef137dfb31b1f80dd804447]
class HostNetworkTrafficRuleBaseDto--><g id="elem_HostNetworkTrafficRuleBaseDto"><rect codeLine="3" fill="#F1F1F1" height="129.1875" id="HostNetworkTrafficRuleBaseDto" rx="2.5" ry="2.5" style="stroke:#181818;stroke-width:0.5;" width="253" x="22.5" y="149"/><ellipse cx="37.5" cy="165" fill="#ADD1B2" rx="11" ry="11" style="stroke:#181818;stroke-width:1.0;"/><path d="M40.4688,170.6406 Q39.8906,170.9375 39.25,171.0781 Q38.6094,171.2344 37.9063,171.2344 Q35.4063,171.2344 34.0781,169.5938 Q32.7656,167.9375 32.7656,164.8125 Q32.7656,161.6875 34.0781,160.0313 Q35.4063,158.375 37.9063,158.375 Q38.6094,158.375 39.25,158.5313 Q39.9063,158.6875 40.4688,158.9844 L40.4688,161.7031 Q39.8438,161.125 39.25,160.8594 Q38.6563,160.5781 38.0313,160.5781 Q36.6875,160.5781 36,161.6563 Q35.3125,162.7188 35.3125,164.8125 Q35.3125,166.9063 36,167.9844 Q36.6875,169.0469 38.0313,169.0469 Q38.6563,169.0469 39.25,168.7813 Q39.8438,168.5 40.4688,167.9219 L40.4688,170.6406 Z " fill="#000000"/><text fill="#000000" font-family="sans-serif" font-size="14" lengthAdjust="spacing" textLength="221" x="51.5" y="169.8467">HostNetworkTrafficRuleBaseDto</text><line style="stroke:#181818;stroke-width:0.5;" x1="23.5" x2="274.5" y1="181" y2="181"/><ellipse cx="33.5" cy="194.6484" fill="none" rx="3" ry="3" style="stroke:#038048;stroke-width:1.0;"/><text fill="#000000" font-family="sans-serif" font-size="14" lengthAdjust="spacing" textLength="82" x="42.5" y="197.9951">Chain string</text><line style="stroke:#181818;stroke-width:1.0;" x1="23.5" x2="274.5" y1="205.2969" y2="205.2969"/><ellipse cx="33.5" cy="218.9453" fill="none" rx="3" ry="3" style="stroke:#038048;stroke-width:1.0;"/><text fill="#000000" font-family="sans-serif" font-size="14" lengthAdjust="spacing" textLength="88" x="42.5" y="222.292">Target string</text><line style="stroke:#181818;stroke-width:1.0;" x1="23.5" x2="274.5" y1="229.5938" y2="229.5938"/><ellipse cx="33.5" cy="243.2422" fill="none" rx="3" ry="3" style="stroke:#038048;stroke-width:1.0;"/><text fill="#000000" font-family="sans-serif" font-size="14" lengthAdjust="spacing" textLength="92" x="42.5" y="246.5889">Source string</text><line style="stroke:#181818;stroke-width:1.0;" x1="23.5" x2="274.5" y1="253.8906" y2="253.8906"/><ellipse cx="33.5" cy="267.5391" fill="none" rx="3" ry="3" style="stroke:#038048;stroke-width:1.0;"/><text fill="#000000" font-family="sans-serif" font-size="14" lengthAdjust="spacing" textLength="122" x="42.5" y="270.8857">Destination string</text></g><!--MD5=[598df7892a90e58633c0971ba3e605ae]
class HostNetworkTrafficRuleDto--><g id="elem_HostNetworkTrafficRuleDto"><rect codeLine="5" fill="#F1F1F1" height="48" id="HostNetworkTrafficRuleDto" rx="2.5" ry="2.5" style="stroke:#181818;stroke-width:0.5;" width="218" x="40" y="41"/><ellipse cx="55" cy="57" fill="#ADD1B2" rx="11" ry="11" style="stroke:#181818;stroke-width:1.0;"/><path d="M57.9688,62.6406 Q57.3906,62.9375 56.75,63.0781 Q56.1094,63.2344 55.4063,63.2344 Q52.9063,63.2344 51.5781,61.5938 Q50.2656,59.9375 50.2656,56.8125 Q50.2656,53.6875 51.5781,52.0313 Q52.9063,50.375 55.4063,50.375 Q56.1094,50.375 56.75,50.5313 Q57.4063,50.6875 57.9688,50.9844 L57.9688,53.7031 Q57.3438,53.125 56.75,52.8594 Q56.1563,52.5781 55.5313,52.5781 Q54.1875,52.5781 53.5,53.6563 Q52.8125,54.7188 52.8125,56.8125 Q52.8125,58.9063 53.5,59.9844 Q54.1875,61.0469 55.5313,61.0469 Q56.1563,61.0469 56.75,60.7813 Q57.3438,60.5 57.9688,59.9219 L57.9688,62.6406 Z " fill="#000000"/><text fill="#000000" font-family="sans-serif" font-size="14" lengthAdjust="spacing" textLength="186" x="69" y="61.8467">HostNetworkTrafficRuleDto</text><line style="stroke:#181818;stroke-width:0.5;" x1="41" x2="257" y1="73" y2="73"/><line style="stroke:#181818;stroke-width:0.5;" x1="41" x2="257" y1="81" y2="81"/></g><!--MD5=[cb959ab9fbc8804195199967ceed7848]
link HostNetworkTrafficRuleDto to HostNetworkTrafficRuleBaseDto--><g id="link_HostNetworkTrafficRuleDto_HostNetworkTrafficRuleBaseDto"><path codeLine="8" d="M149,89.21 C149,102.07 149,118.87 149,135.91 " fill="none" id="HostNetworkTrafficRuleDto-to-HostNetworkTrafficRuleBaseDto" style="stroke:#181818;stroke-width:1.0;"/><polygon fill="#181818" points="149,148.93,153,142.93,149,136.93,145,142.93,149,148.93" style="stroke:#181818;stroke-width:1.0;"/></g><!--MD5=[079a1a081ca02b49d9301fd19a146ae5]
@startuml

!include HostNetworkTrafficRuleBaseDto.puml

package dtos {
    class HostNetworkTrafficRuleDto {
    }

    HostNetworkTrafficRuleDto - -* HostNetworkTrafficRuleBaseDto
}

@enduml

@startuml


package dtos {
    class HostNetworkTrafficRuleBaseDto {
        +Chain string
        - -
        +Target string
        - -
        +Source string
        - -
        +Destination string
    }
}



package dtos {
    class HostNetworkTrafficRuleDto {
    }

    HostNetworkTrafficRuleDto - -* HostNetworkTrafficRuleBaseDto
}

@enduml

PlantUML version 1.2022.12(Sun Oct 23 18:12:26 EGST 2022)
(GPL source distribution)
Java Runtime: OpenJDK Runtime Environment
JVM: OpenJDK 64-Bit Server VM
Default Encoding: UTF-8
Language: en
Country: US
--></g></svg>