<?xml version="1.0" encoding="UTF-8" standalone="no"?><svg xmlns="http://www.w3.org/2000/svg" xmlns:xlink="http://www.w3.org/1999/xlink" contentStyleType="text/css" height="453px" preserveAspectRatio="none" style="width:240px;height:453px;background:#FFFFFF;" version="1.1" viewBox="0 0 240 453" width="240px" zoomAndPan="magnify"><defs/><g><!--MD5=[a203eca1f0769929ae1344e0135bff6b]
class BaseDto--><g id="elem_BaseDto"><rect codeLine="2" fill="#F1F1F1" height="104.8906" id="BaseDto" rx="2.5" ry="2.5" style="stroke:#181818;stroke-width:0.5;" width="157" x="41.5" y="342"/><ellipse cx="85.75" cy="358" fill="#ADD1B2" rx="11" ry="11" style="stroke:#181818;stroke-width:1.0;"/><path d="M88.7188,363.6406 Q88.1406,363.9375 87.5,364.0781 Q86.8594,364.2344 86.1563,364.2344 Q83.6563,364.2344 82.3281,362.5938 Q81.0156,360.9375 81.0156,357.8125 Q81.0156,354.6875 82.3281,353.0313 Q83.6563,351.375 86.1563,351.375 Q86.8594,351.375 87.5,351.5313 Q88.1563,351.6875 88.7188,351.9844 L88.7188,354.7031 Q88.0938,354.125 87.5,353.8594 Q86.9063,353.5781 86.2813,353.5781 Q84.9375,353.5781 84.25,354.6563 Q83.5625,355.7188 83.5625,357.8125 Q83.5625,359.9063 84.25,360.9844 Q84.9375,362.0469 86.2813,362.0469 Q86.9063,362.0469 87.5,361.7813 Q88.0938,361.5 88.7188,360.9219 L88.7188,363.6406 Z " fill="#000000"/><text fill="#000000" font-family="sans-serif" font-size="14" lengthAdjust="spacing" textLength="60" x="106.25" y="362.8467">BaseDto</text><line style="stroke:#181818;stroke-width:0.5;" x1="42.5" x2="197.5" y1="374" y2="374"/><text fill="#000000" font-family="sans-serif" font-size="14" lengthAdjust="spacing" textLength="84" x="47.5" y="390.9951">Id uuid.UUID</text><line style="stroke:#181818;stroke-width:1.0;" x1="42.5" x2="197.5" y1="398.2969" y2="398.2969"/><text fill="#000000" font-family="sans-serif" font-size="14" lengthAdjust="spacing" textLength="141" x="47.5" y="415.292">CreatedAt time.Time</text><line style="stroke:#181818;stroke-width:1.0;" x1="42.5" x2="197.5" y1="422.5938" y2="422.5938"/><text fill="#000000" font-family="sans-serif" font-size="14" lengthAdjust="spacing" textLength="145" x="47.5" y="439.5889">UpdatedAt time.Time</text></g><!--MD5=[211c8f42e862d196c7c307716f2ee662]
class HTTPLogDto--><g id="elem_HTTPLogDto"><rect codeLine="4" fill="#F1F1F1" height="274.9688" id="HTTPLogDto" rx="2.5" ry="2.5" style="stroke:#181818;stroke-width:0.5;" width="226" x="7" y="7"/><ellipse cx="72.25" cy="23" fill="#ADD1B2" rx="11" ry="11" style="stroke:#181818;stroke-width:1.0;"/><path d="M75.2188,28.6406 Q74.6406,28.9375 74,29.0781 Q73.3594,29.2344 72.6563,29.2344 Q70.1563,29.2344 68.8281,27.5938 Q67.5156,25.9375 67.5156,22.8125 Q67.5156,19.6875 68.8281,18.0313 Q70.1563,16.375 72.6563,16.375 Q73.3594,16.375 74,16.5313 Q74.6563,16.6875 75.2188,16.9844 L75.2188,19.7031 Q74.5938,19.125 74,18.8594 Q73.4063,18.5781 72.7813,18.5781 Q71.4375,18.5781 70.75,19.6563 Q70.0625,20.7188 70.0625,22.8125 Q70.0625,24.9063 70.75,25.9844 Q71.4375,27.0469 72.7813,27.0469 Q73.4063,27.0469 74,26.7813 Q74.5938,26.5 75.2188,25.9219 L75.2188,28.6406 Z " fill="#000000"/><text fill="#000000" font-family="sans-serif" font-size="14" lengthAdjust="spacing" textLength="87" x="92.75" y="27.8467">HTTPLogDto</text><line style="stroke:#181818;stroke-width:0.5;" x1="8" x2="232" y1="39" y2="39"/><text fill="#000000" font-family="sans-serif" font-size="14" lengthAdjust="spacing" textLength="133" x="13" y="55.9951">HTTPMethod string</text><line style="stroke:#181818;stroke-width:1.0;" x1="8" x2="232" y1="63.2969" y2="63.2969"/><text fill="#000000" font-family="sans-serif" font-size="14" lengthAdjust="spacing" textLength="96" x="13" y="80.292">Domain string</text><line style="stroke:#181818;stroke-width:1.0;" x1="8" x2="232" y1="87.5938" y2="87.5938"/><text fill="#000000" font-family="sans-serif" font-size="14" lengthAdjust="spacing" textLength="128" x="13" y="104.5889">RelativePath string</text><line style="stroke:#181818;stroke-width:1.0;" x1="8" x2="232" y1="111.8906" y2="111.8906"/><text fill="#000000" font-family="sans-serif" font-size="14" lengthAdjust="spacing" textLength="135" x="13" y="128.8857">QueryParams string</text><line style="stroke:#181818;stroke-width:1.0;" x1="8" x2="232" y1="136.1875" y2="136.1875"/><text fill="#000000" font-family="sans-serif" font-size="14" lengthAdjust="spacing" textLength="94" x="13" y="153.1826">ClientIP string</text><line style="stroke:#181818;stroke-width:1.0;" x1="8" x2="232" y1="160.4844" y2="160.4844"/><text fill="#000000" font-family="sans-serif" font-size="14" lengthAdjust="spacing" textLength="74" x="13" y="177.4795">Latency int</text><line style="stroke:#181818;stroke-width:1.0;" x1="8" x2="232" y1="184.7813" y2="184.7813"/><text fill="#000000" font-family="sans-serif" font-size="14" lengthAdjust="spacing" textLength="137" x="13" y="201.7764">RequestBody string</text><line style="stroke:#181818;stroke-width:1.0;" x1="8" x2="232" y1="209.0781" y2="209.0781"/><text fill="#000000" font-family="sans-serif" font-size="14" lengthAdjust="spacing" textLength="149" x="13" y="226.0732">ResponseBody string</text><line style="stroke:#181818;stroke-width:1.0;" x1="8" x2="232" y1="233.375" y2="233.375"/><text fill="#000000" font-family="sans-serif" font-size="14" lengthAdjust="spacing" textLength="160" x="13" y="250.3701">RequestHeaders string</text><line style="stroke:#181818;stroke-width:1.0;" x1="8" x2="232" y1="257.6719" y2="257.6719"/><text fill="#000000" font-family="sans-serif" font-size="14" lengthAdjust="spacing" textLength="214" x="13" y="274.667">CustomRequestHeaders string</text></g><!--MD5=[221693e977fc06ac16b4c8f1db327923]
reverse link HTTPLogDto to BaseDto--><g id="link_HTTPLogDto_BaseDto"><path codeLine="25" d="M120,295.53 C120,312.02 120,327.87 120,341.84 " fill="none" id="HTTPLogDto-backto-BaseDto" style="stroke:#181818;stroke-width:1.0;"/><polygon fill="#181818" points="120,282.2,116,288.2,120,294.2,124,288.2,120,282.2" style="stroke:#181818;stroke-width:1.0;"/></g><!--MD5=[594eaf60a5358899608d7a5bc6b78b1b]
@startuml HTTPLogDto
!include ../BaseDto.puml


class HTTPLogDto {
    HTTPMethod string
    - -
    Domain string
    - -
    RelativePath string
    - -
    QueryParams string
    - -
    ClientIP string
    - -
    Latency int
    - -
    RequestBody string
    - -
    ResponseBody string
    - -
    RequestHeaders string
    - -
    CustomRequestHeaders string
}
HTTPLogDto *- - BaseDto


@enduml

@startuml HTTPLogDto

class BaseDto {
    Id uuid.UUID
    - -
    CreatedAt time.Time
    - -
    UpdatedAt time.Time
}



class HTTPLogDto {
    HTTPMethod string
    - -
    Domain string
    - -
    RelativePath string
    - -
    QueryParams string
    - -
    ClientIP string
    - -
    Latency int
    - -
    RequestBody string
    - -
    ResponseBody string
    - -
    RequestHeaders string
    - -
    CustomRequestHeaders string
}
HTTPLogDto *- - BaseDto


@enduml

PlantUML version 1.2022.4(Sat Apr 09 13:29:17 UTC 2022)
(GPL source distribution)
Java Runtime: OpenJDK Runtime Environment
JVM: OpenJDK 64-Bit Server VM
Default Encoding: UTF-8
Language: en
Country: null
--></g></svg>