<?xml version="1.0" encoding="UTF-8" standalone="no"?><svg xmlns="http://www.w3.org/2000/svg" xmlns:xlink="http://www.w3.org/1999/xlink" contentStyleType="text/css" height="307px" preserveAspectRatio="none" style="width:261px;height:307px;background:#FFFFFF;" version="1.1" viewBox="0 0 261 307" width="261px" zoomAndPan="magnify"><defs/><g><!--MD5=[a203eca1f0769929ae1344e0135bff6b]
class BaseDto--><g id="elem_BaseDto"><rect codeLine="2" fill="#F1F1F1" height="104.8906" id="BaseDto" rx="2.5" ry="2.5" style="stroke:#181818;stroke-width:0.5;" width="157" x="52" y="196"/><ellipse cx="96.25" cy="212" fill="#ADD1B2" rx="11" ry="11" style="stroke:#181818;stroke-width:1.0;"/><path d="M99.2188,217.6406 Q98.6406,217.9375 98,218.0781 Q97.3594,218.2344 96.6563,218.2344 Q94.1563,218.2344 92.8281,216.5938 Q91.5156,214.9375 91.5156,211.8125 Q91.5156,208.6875 92.8281,207.0313 Q94.1563,205.375 96.6563,205.375 Q97.3594,205.375 98,205.5313 Q98.6563,205.6875 99.2188,205.9844 L99.2188,208.7031 Q98.5938,208.125 98,207.8594 Q97.4063,207.5781 96.7813,207.5781 Q95.4375,207.5781 94.75,208.6563 Q94.0625,209.7188 94.0625,211.8125 Q94.0625,213.9063 94.75,214.9844 Q95.4375,216.0469 96.7813,216.0469 Q97.4063,216.0469 98,215.7813 Q98.5938,215.5 99.2188,214.9219 L99.2188,217.6406 Z " fill="#000000"/><text fill="#000000" font-family="sans-serif" font-size="14" lengthAdjust="spacing" textLength="60" x="116.75" y="216.8467">BaseDto</text><line style="stroke:#181818;stroke-width:0.5;" x1="53" x2="208" y1="228" y2="228"/><text fill="#000000" font-family="sans-serif" font-size="14" lengthAdjust="spacing" textLength="84" x="58" y="244.9951">Id uuid.UUID</text><line style="stroke:#181818;stroke-width:1.0;" x1="53" x2="208" y1="252.2969" y2="252.2969"/><text fill="#000000" font-family="sans-serif" font-size="14" lengthAdjust="spacing" textLength="141" x="58" y="269.292">CreatedAt time.Time</text><line style="stroke:#181818;stroke-width:1.0;" x1="53" x2="208" y1="276.5938" y2="276.5938"/><text fill="#000000" font-family="sans-serif" font-size="14" lengthAdjust="spacing" textLength="145" x="58" y="293.5889">UpdatedAt time.Time</text></g><!--MD5=[09eba51d36156165b60f5c384613b5fd]
class LogDto--><g id="elem_LogDto"><rect codeLine="3" fill="#F1F1F1" height="129.1875" id="LogDto" rx="2.5" ry="2.5" style="stroke:#181818;stroke-width:0.5;" width="247" x="7" y="7"/><ellipse cx="101.25" cy="23" fill="#ADD1B2" rx="11" ry="11" style="stroke:#181818;stroke-width:1.0;"/><path d="M104.2188,28.6406 Q103.6406,28.9375 103,29.0781 Q102.3594,29.2344 101.6563,29.2344 Q99.1563,29.2344 97.8281,27.5938 Q96.5156,25.9375 96.5156,22.8125 Q96.5156,19.6875 97.8281,18.0313 Q99.1563,16.375 101.6563,16.375 Q102.3594,16.375 103,16.5313 Q103.6563,16.6875 104.2188,16.9844 L104.2188,19.7031 Q103.5938,19.125 103,18.8594 Q102.4063,18.5781 101.7813,18.5781 Q100.4375,18.5781 99.75,19.6563 Q99.0625,20.7188 99.0625,22.8125 Q99.0625,24.9063 99.75,25.9844 Q100.4375,27.0469 101.7813,27.0469 Q102.4063,27.0469 103,26.7813 Q103.5938,26.5 104.2188,25.9219 L104.2188,28.6406 Z " fill="#000000"/><text fill="#000000" font-family="sans-serif" font-size="14" lengthAdjust="spacing" textLength="50" x="121.75" y="27.8467">LogDto</text><line style="stroke:#181818;stroke-width:0.5;" x1="8" x2="253" y1="39" y2="39"/><text fill="#000000" font-family="sans-serif" font-size="14" lengthAdjust="spacing" textLength="235" x="13" y="55.9951">ActionID uuid.UUID `gorm:"index"`</text><line style="stroke:#181818;stroke-width:1.0;" x1="8" x2="253" y1="63.2969" y2="63.2969"/><text fill="#000000" font-family="sans-serif" font-size="14" lengthAdjust="spacing" textLength="78" x="13" y="80.292">Level string</text><line style="stroke:#181818;stroke-width:1.0;" x1="8" x2="253" y1="87.5938" y2="87.5938"/><text fill="#000000" font-family="sans-serif" font-size="14" lengthAdjust="spacing" textLength="92" x="13" y="104.5889">Source string</text><line style="stroke:#181818;stroke-width:1.0;" x1="8" x2="253" y1="111.8906" y2="111.8906"/><text fill="#000000" font-family="sans-serif" font-size="14" lengthAdjust="spacing" textLength="106" x="13" y="128.8857">Message string</text></g><!--MD5=[5ffa54dce3b03b92de49d0fc42bba024]
reverse link LogDto to BaseDto--><g id="link_LogDto_BaseDto"><path codeLine="12" d="M130.5,149.27 C130.5,165.04 130.5,181.29 130.5,195.92 " fill="none" id="LogDto-backto-BaseDto" style="stroke:#181818;stroke-width:1.0;"/><polygon fill="#181818" points="130.5,136.17,126.5,142.17,130.5,148.17,134.5,142.17,130.5,136.17" style="stroke:#181818;stroke-width:1.0;"/></g><!--MD5=[6e2cea6b20de7299fcfaabb598575d14]
@startuml LogDto
!include ../BaseDto.puml

class LogDto {
    ActionID uuid.UUID `gorm:"index"`
    - -
    Level string
    - -
    Source string
    - -
    Message string
}
LogDto *- - BaseDto

@enduml

@startuml LogDto

class BaseDto {
    Id uuid.UUID
    - -
    CreatedAt time.Time
    - -
    UpdatedAt time.Time
}


class LogDto {
    ActionID uuid.UUID `gorm:"index"`
    - -
    Level string
    - -
    Source string
    - -
    Message string
}
LogDto *- - BaseDto

@enduml

PlantUML version 1.2022.4(Sat Apr 09 13:29:17 UTC 2022)
(GPL source distribution)
Java Runtime: OpenJDK Runtime Environment
JVM: OpenJDK 64-Bit Server VM
Default Encoding: UTF-8
Language: en
Country: null
--></g></svg>