<?xml version="1.0" encoding="UTF-8" standalone="no"?><svg xmlns="http://www.w3.org/2000/svg" xmlns:xlink="http://www.w3.org/1999/xlink" contentStyleType="text/css" height="1169px" preserveAspectRatio="none" style="width:2541px;height:1169px;background:#FFFFFF;" version="1.1" viewBox="0 0 2541 1169" width="2541px" zoomAndPan="magnify"><defs/><g><!--MD5=[d5ac3844f66b12d9e08170e47495e096]
cluster app--><g id="cluster_app"><path d="M8.5,558 L38.5,558 A3.75,3.75 0 0 1 41,560.5 L48,580.2969 L2483.5,580.2969 A2.5,2.5 0 0 1 2486,582.7969 L2486,1159.5 A2.5,2.5 0 0 1 2483.5,1162 L8.5,1162 A2.5,2.5 0 0 1 6,1159.5 L6,560.5 A2.5,2.5 0 0 1 8.5,558 " style="stroke:#000000;stroke-width:1.5;fill:none;"/><line style="stroke:#000000;stroke-width:1.5;fill:none;" x1="6" x2="48" y1="580.2969" y2="580.2969"/><text fill="#000000" font-family="sans-serif" font-size="14" font-weight="bold" lengthAdjust="spacing" textLength="29" x="10" y="572.9951">app</text></g><!--MD5=[27f772719433d509ddbc20ff768eba08]
cluster domain--><g id="cluster_domain"><path d="M694.5,6 L752.5,6 A3.75,3.75 0 0 1 755,8.5 L762,28.2969 L1117.5,28.2969 A2.5,2.5 0 0 1 1120,30.7969 L1120,522.5 A2.5,2.5 0 0 1 1117.5,525 L694.5,525 A2.5,2.5 0 0 1 692,522.5 L692,8.5 A2.5,2.5 0 0 1 694.5,6 " style="stroke:#000000;stroke-width:1.5;fill:none;"/><line style="stroke:#000000;stroke-width:1.5;fill:none;" x1="692" x2="762" y1="28.2969" y2="28.2969"/><text fill="#000000" font-family="sans-serif" font-size="14" font-weight="bold" lengthAdjust="spacing" textLength="57" x="696" y="20.9951">domain</text></g><!--MD5=[77349be1bd27b81b697a0f9b3aded3c8]
cluster infrastructure--><g id="cluster_infrastructure"><path d="M1451.5,46.5 L1562.5,46.5 A3.75,3.75 0 0 1 1565,49 L1572,68.7969 L2502.5,68.7969 A2.5,2.5 0 0 1 2505,71.2969 L2505,482 A2.5,2.5 0 0 1 2502.5,484.5 L1451.5,484.5 A2.5,2.5 0 0 1 1449,482 L1449,49 A2.5,2.5 0 0 1 1451.5,46.5 " style="stroke:#000000;stroke-width:1.5;fill:none;"/><line style="stroke:#000000;stroke-width:1.5;fill:none;" x1="1449" x2="1572" y1="68.7969" y2="68.7969"/><text fill="#000000" font-family="sans-serif" font-size="14" font-weight="bold" lengthAdjust="spacing" textLength="110" x="1453" y="61.4951">infrastructure</text></g><!--MD5=[2a39a5be1cc24ddddd6e6286e4ece992]
class IEntityModel--><g id="elem_IEntityModel"><rect codeLine="3" fill="#F1F1F1" height="129.1875" id="IEntityModel" rx="2.5" ry="2.5" style="stroke:#181818;stroke-width:0.5;" width="213" x="21.5" y="704"/><ellipse cx="58.55" cy="720" fill="#B4A7E5" rx="11" ry="11" style="stroke:#181818;stroke-width:1.0;"/><path d="M54.4719,715.7656 L54.4719,713.6094 L61.8625,713.6094 L61.8625,715.7656 L59.3938,715.7656 L59.3938,723.8438 L61.8625,723.8438 L61.8625,726 L54.4719,726 L54.4719,723.8438 L56.9406,723.8438 L56.9406,715.7656 L54.4719,715.7656 Z " fill="#000000"/><text fill="#000000" font-family="sans-serif" font-size="14" font-style="italic" lengthAdjust="spacing" textLength="85" x="77.45" y="724.8467">IEntityModel</text><rect fill="#FFFFFF" height="15.9688" style="stroke:#000000;stroke-width:1.0;stroke-dasharray:2.0,2.0;" width="45" x="192.5" y="701"/><text fill="#000000" font-family="sans-serif" font-size="12" font-style="italic" lengthAdjust="spacing" textLength="43" x="193.5" y="713.1387">IDType</text><line style="stroke:#181818;stroke-width:0.5;" x1="22.5" x2="233.5" y1="736" y2="736"/><ellipse cx="32.5" cy="747" fill="#84BE84" rx="3" ry="3" style="stroke:#038048;stroke-width:1.0;"/><text fill="#000000" font-family="sans-serif" font-size="14" lengthAdjust="spacing" textLength="101" x="41.5" y="752.9951">GetID() IDType</text><line style="stroke:#181818;stroke-width:1.0;" x1="22.5" x2="233.5" y1="760.2969" y2="760.2969"/><ellipse cx="32.5" cy="771.2969" fill="#84BE84" rx="3" ry="3" style="stroke:#038048;stroke-width:1.0;"/><text fill="#000000" font-family="sans-serif" font-size="14" lengthAdjust="spacing" textLength="176" x="41.5" y="777.292">GetCreatedAt() time.Time</text><line style="stroke:#181818;stroke-width:1.0;" x1="22.5" x2="233.5" y1="784.5938" y2="784.5938"/><ellipse cx="32.5" cy="795.5938" fill="#84BE84" rx="3" ry="3" style="stroke:#038048;stroke-width:1.0;"/><text fill="#000000" font-family="sans-serif" font-size="14" lengthAdjust="spacing" textLength="187" x="41.5" y="801.5889">GetUpdatedAt() *time.Time</text><line style="stroke:#181818;stroke-width:1.0;" x1="22.5" x2="233.5" y1="808.8906" y2="808.8906"/><ellipse cx="32.5" cy="819.8906" fill="#84BE84" rx="3" ry="3" style="stroke:#038048;stroke-width:1.0;"/><text fill="#000000" font-family="sans-serif" font-size="14" lengthAdjust="spacing" textLength="183" x="41.5" y="825.8857">GetDeletedAt() *time.Time</text></g><!--MD5=[b3e0f8dcddb1b27f071a0303a68762bf]
class IGenericRepository--><g id="elem_IGenericRepository"><rect codeLine="3" fill="#F1F1F1" height="274.9688" id="IGenericRepository" rx="2.5" ry="2.5" style="stroke:#181818;stroke-width:0.5;" width="994" x="684" y="631"/><ellipse cx="985.25" cy="647" fill="#B4A7E5" rx="11" ry="11" style="stroke:#181818;stroke-width:1.0;"/><path d="M981.1719,642.7656 L981.1719,640.6094 L988.5625,640.6094 L988.5625,642.7656 L986.0938,642.7656 L986.0938,650.8438 L988.5625,650.8438 L988.5625,653 L981.1719,653 L981.1719,650.8438 L983.6406,650.8438 L983.6406,642.7656 L981.1719,642.7656 Z " fill="#000000"/><text fill="#000000" font-family="sans-serif" font-size="14" font-style="italic" lengthAdjust="spacing" textLength="132" x="1005.75" y="651.8467">IGenericRepository</text><rect fill="#FFFFFF" height="15.9688" style="stroke:#000000;stroke-width:1.0;stroke-dasharray:2.0,2.0;" width="249" x="1432" y="628"/><text fill="#000000" font-family="sans-serif" font-size="12" font-style="italic" lengthAdjust="spacing" textLength="247" x="1433" y="640.1387">IDType, interfaces.IEntityModel[IDType]</text><line style="stroke:#181818;stroke-width:0.5;" x1="685" x2="1677" y1="663" y2="663"/><ellipse cx="695" cy="674" fill="#84BE84" rx="3" ry="3" style="stroke:#038048;stroke-width:1.0;"/><text fill="#000000" font-family="sans-serif" font-size="14" lengthAdjust="spacing" textLength="968" x="704" y="679.9951">GetList(ctx context.Context, orderBy string, orderDirection string, page int, size int, queryBuilder interfaces.IQueryBuilder) ([]EntityType, error)</text><line style="stroke:#181818;stroke-width:1.0;" x1="685" x2="1677" y1="687.2969" y2="687.2969"/><ellipse cx="695" cy="698.2969" fill="#84BE84" rx="3" ry="3" style="stroke:#038048;stroke-width:1.0;"/><text fill="#000000" font-family="sans-serif" font-size="14" lengthAdjust="spacing" textLength="521" x="704" y="704.292">Count(ctx context.Context, queryBuilder interfaces.IQueryBuilder) (int, error)</text><line style="stroke:#181818;stroke-width:1.0;" x1="685" x2="1677" y1="711.5938" y2="711.5938"/><ellipse cx="695" cy="722.5938" fill="#84BE84" rx="3" ry="3" style="stroke:#038048;stroke-width:1.0;"/><text fill="#000000" font-family="sans-serif" font-size="14" lengthAdjust="spacing" textLength="607" x="704" y="728.5889">IsExist(ctx context.Context, id IDType, queryBuilder interfaces.IQueryBuilder) (bool, error)</text><line style="stroke:#181818;stroke-width:1.0;" x1="685" x2="1677" y1="735.8906" y2="735.8906"/><ellipse cx="695" cy="746.8906" fill="#84BE84" rx="3" ry="3" style="stroke:#038048;stroke-width:1.0;"/><text fill="#000000" font-family="sans-serif" font-size="14" lengthAdjust="spacing" textLength="431" x="704" y="752.8857">NewQueryBuilder(ctx context.Context) interfaces.IQueryBuilder</text><line style="stroke:#181818;stroke-width:1.0;" x1="685" x2="1677" y1="760.1875" y2="760.1875"/><ellipse cx="695" cy="771.1875" fill="#84BE84" rx="3" ry="3" style="stroke:#038048;stroke-width:1.0;"/><text fill="#000000" font-family="sans-serif" font-size="14" lengthAdjust="spacing" textLength="397" x="704" y="777.1826">GetById(ctx context.Context, id IDType) (EntityType, error)</text><line style="stroke:#181818;stroke-width:1.0;" x1="685" x2="1677" y1="784.4844" y2="784.4844"/><ellipse cx="695" cy="795.4844" fill="#84BE84" rx="3" ry="3" style="stroke:#038048;stroke-width:1.0;"/><text fill="#000000" font-family="sans-serif" font-size="14" lengthAdjust="spacing" textLength="443" x="704" y="801.4795">Update(ctx context.Context, entity EntityType) (EntityType, error)</text><line style="stroke:#181818;stroke-width:1.0;" x1="685" x2="1677" y1="808.7813" y2="808.7813"/><ellipse cx="695" cy="819.7813" fill="#84BE84" rx="3" ry="3" style="stroke:#038048;stroke-width:1.0;"/><text fill="#000000" font-family="sans-serif" font-size="14" lengthAdjust="spacing" textLength="432" x="704" y="825.7764">Insert(ctx context.Context, entity EntityType) (EntityType, error)</text><line style="stroke:#181818;stroke-width:1.0;" x1="685" x2="1677" y1="833.0781" y2="833.0781"/><ellipse cx="695" cy="844.0781" fill="#84BE84" rx="3" ry="3" style="stroke:#038048;stroke-width:1.0;"/><text fill="#000000" font-family="sans-serif" font-size="14" lengthAdjust="spacing" textLength="299" x="704" y="850.0732">Delete(ctx context.Context, id IDType) error</text><line style="stroke:#181818;stroke-width:1.0;" x1="685" x2="1677" y1="857.375" y2="857.375"/><ellipse cx="695" cy="868.375" fill="#84BE84" rx="3" ry="3" style="stroke:#038048;stroke-width:1.0;"/><text fill="#000000" font-family="sans-serif" font-size="14" lengthAdjust="spacing" textLength="505" x="704" y="874.3701">DeleteAll(ctx context.Context, queryBuilder interfaces.IQueryBuilder) error</text><line style="stroke:#181818;stroke-width:1.0;" x1="685" x2="1677" y1="881.6719" y2="881.6719"/><ellipse cx="695" cy="892.6719" fill="#84BE84" rx="3" ry="3" style="stroke:#038048;stroke-width:1.0;"/><text fill="#000000" font-family="sans-serif" font-size="14" lengthAdjust="spacing" textLength="104" x="704" y="898.667">Dispose() error</text></g><path d="M269.5,593 L269.5,618.1328 A0,0 0 0 0 269.5,618.1328 L594.5,618.1328 A0,0 0 0 0 594.5,618.1328 L594.5,611 L688,675.1484 L594.5,603 L594.5,603 L584.5,593 L269.5,593 A0,0 0 0 0 269.5,593 " fill="#FEFFDD" style="stroke:#181818;stroke-width:0.5;"/><path d="M584.5,593 L584.5,603 L594.5,603 L584.5,593 " fill="#FEFFDD" style="stroke:#181818;stroke-width:0.5;"/><text fill="#000000" font-family="sans-serif" font-size="13" lengthAdjust="spacing" textLength="304" x="275.5" y="610.0669">Get list of elements with filtering and pagination</text><path d="M269.5,628.1328 L269.5,653.2656 A0,0 0 0 0 269.5,653.2656 L500.5,653.2656 A0,0 0 0 0 500.5,653.2656 L500.5,646.1328 L688,699.4453 L500.5,638.1328 L500.5,638.1328 L490.5,628.1328 L269.5,628.1328 A0,0 0 0 0 269.5,628.1328 " fill="#FEFFDD" style="stroke:#181818;stroke-width:0.5;"/><path d="M490.5,628.1328 L490.5,638.1328 L500.5,638.1328 L490.5,628.1328 " fill="#FEFFDD" style="stroke:#181818;stroke-width:0.5;"/><text fill="#000000" font-family="sans-serif" font-size="13" lengthAdjust="spacing" textLength="210" x="275.5" y="645.1997">Get count of entities with filtering</text><path d="M269.5,663.2656 L269.5,688.3984 A0,0 0 0 0 269.5,688.3984 L626.5,688.3984 A0,0 0 0 0 626.5,688.3984 L626.5,681.2656 L688,723.7422 L626.5,673.2656 L626.5,673.2656 L616.5,663.2656 L269.5,663.2656 A0,0 0 0 0 269.5,663.2656 " fill="#FEFFDD" style="stroke:#181818;stroke-width:0.5;"/><path d="M616.5,663.2656 L616.5,673.2656 L626.5,673.2656 L616.5,663.2656 " fill="#FEFFDD" style="stroke:#181818;stroke-width:0.5;"/><text fill="#000000" font-family="sans-serif" font-size="13" lengthAdjust="spacing" textLength="336" x="275.5" y="680.3325">Checks that entity with selected conditions is existed</text><path d="M269.5,698.3984 L269.5,723.5313 A0,0 0 0 0 269.5,723.5313 L528.5,723.5313 A0,0 0 0 0 528.5,723.5313 L528.5,716.3984 L688,748.0391 L528.5,708.3984 L528.5,708.3984 L518.5,698.3984 L269.5,698.3984 A0,0 0 0 0 269.5,698.3984 " fill="#FEFFDD" style="stroke:#181818;stroke-width:0.5;"/><path d="M518.5,698.3984 L518.5,708.3984 L528.5,708.3984 L518.5,698.3984 " fill="#FEFFDD" style="stroke:#181818;stroke-width:0.5;"/><text fill="#000000" font-family="sans-serif" font-size="13" lengthAdjust="spacing" textLength="238" x="275.5" y="715.4653">Get new instance of the query builder</text><path d="M269.5,733.5313 L269.5,758.6641 A0,0 0 0 0 269.5,758.6641 L491.5,758.6641 A0,0 0 0 0 491.5,758.6641 L491.5,751.5313 L688,772.3359 L491.5,743.5313 L491.5,743.5313 L481.5,733.5313 L269.5,733.5313 A0,0 0 0 0 269.5,733.5313 " fill="#FEFFDD" style="stroke:#181818;stroke-width:0.5;"/><path d="M481.5,733.5313 L481.5,743.5313 L491.5,743.5313 L481.5,733.5313 " fill="#FEFFDD" style="stroke:#181818;stroke-width:0.5;"/><text fill="#000000" font-family="sans-serif" font-size="13" lengthAdjust="spacing" textLength="201" x="275.5" y="750.5981">Get entity by ID from repository</text><path d="M269.5,768.6641 L269.5,793.7969 A0,0 0 0 0 269.5,793.7969 L648.5,793.7969 A0,0 0 0 0 648.5,793.7969 L648.5,786.6641 L688,796.6328 L648.5,778.6641 L648.5,778.6641 L638.5,768.6641 L269.5,768.6641 A0,0 0 0 0 269.5,768.6641 " fill="#FEFFDD" style="stroke:#181818;stroke-width:0.5;"/><path d="M638.5,768.6641 L638.5,778.6641 L648.5,778.6641 L638.5,768.6641 " fill="#FEFFDD" style="stroke:#181818;stroke-width:0.5;"/><text fill="#000000" font-family="sans-serif" font-size="13" lengthAdjust="spacing" textLength="358" x="275.5" y="785.731">Save the changes to the existing entity in the repository</text><path d="M269.5,803.7969 L269.5,828.9297 A0,0 0 0 0 269.5,828.9297 L465.5,828.9297 A0,0 0 0 0 465.5,828.9297 L465.5,821.7969 L688,820.9297 L465.5,813.7969 L465.5,813.7969 L455.5,803.7969 L269.5,803.7969 A0,0 0 0 0 269.5,803.7969 " fill="#FEFFDD" style="stroke:#181818;stroke-width:0.5;"/><path d="M455.5,803.7969 L455.5,813.7969 L465.5,813.7969 L455.5,803.7969 " fill="#FEFFDD" style="stroke:#181818;stroke-width:0.5;"/><text fill="#000000" font-family="sans-serif" font-size="13" lengthAdjust="spacing" textLength="175" x="275.5" y="820.8638">Add entity to the repository</text><path d="M269.5,838.9297 L269.5,864.0625 A0,0 0 0 0 269.5,864.0625 L474.5,864.0625 A0,0 0 0 0 474.5,864.0625 L474.5,856.9297 L688,845.2266 L474.5,848.9297 L474.5,848.9297 L464.5,838.9297 L269.5,838.9297 A0,0 0 0 0 269.5,838.9297 " fill="#FEFFDD" style="stroke:#181818;stroke-width:0.5;"/><path d="M464.5,838.9297 L464.5,848.9297 L474.5,848.9297 L464.5,838.9297 " fill="#FEFFDD" style="stroke:#181818;stroke-width:0.5;"/><text fill="#000000" font-family="sans-serif" font-size="13" lengthAdjust="spacing" textLength="184" x="275.5" y="855.9966">Delete entity from repository</text><path d="M269.5,874.0625 L269.5,899.1953 A0,0 0 0 0 269.5,899.1953 L539.5,899.1953 A0,0 0 0 0 539.5,899.1953 L539.5,892.0625 L688,869.5234 L539.5,884.0625 L539.5,884.0625 L529.5,874.0625 L269.5,874.0625 A0,0 0 0 0 269.5,874.0625 " fill="#FEFFDD" style="stroke:#181818;stroke-width:0.5;"/><path d="M529.5,874.0625 L529.5,884.0625 L539.5,884.0625 L529.5,874.0625 " fill="#FEFFDD" style="stroke:#181818;stroke-width:0.5;"/><text fill="#000000" font-family="sans-serif" font-size="13" lengthAdjust="spacing" textLength="249" x="275.5" y="891.1294">Delete entities with selected conditions</text><path d="M269.5,909.1953 L269.5,934.3281 A0,0 0 0 0 269.5,934.3281 L454.5,934.3281 A0,0 0 0 0 454.5,934.3281 L454.5,927.1953 L688,893.8203 L454.5,919.1953 L454.5,919.1953 L444.5,909.1953 L269.5,909.1953 A0,0 0 0 0 269.5,909.1953 " fill="#FEFFDD" style="stroke:#181818;stroke-width:0.5;"/><path d="M444.5,909.1953 L444.5,919.1953 L454.5,919.1953 L444.5,909.1953 " fill="#FEFFDD" style="stroke:#181818;stroke-width:0.5;"/><text fill="#000000" font-family="sans-serif" font-size="13" lengthAdjust="spacing" textLength="164" x="275.5" y="926.2622">Dispose all allocated data</text><!--MD5=[deabb3312e0d912c67ee19f7c61ba907]
class IDHCP4ServerFactory--><g id="elem_IDHCP4ServerFactory"><rect codeLine="3" fill="#F1F1F1" height="64.2969" id="IDHCP4ServerFactory" rx="2.5" ry="2.5" style="stroke:#181818;stroke-width:0.5;" width="499" x="1970.5" y="736.5"/><ellipse cx="2141.25" cy="752.5" fill="#B4A7E5" rx="11" ry="11" style="stroke:#181818;stroke-width:1.0;"/><path d="M2137.1719,748.2656 L2137.1719,746.1094 L2144.5625,746.1094 L2144.5625,748.2656 L2142.0938,748.2656 L2142.0938,756.3438 L2144.5625,756.3438 L2144.5625,758.5 L2137.1719,758.5 L2137.1719,756.3438 L2139.6406,756.3438 L2139.6406,748.2656 L2137.1719,748.2656 Z " fill="#000000"/><text fill="#000000" font-family="sans-serif" font-size="14" font-style="italic" lengthAdjust="spacing" textLength="149" x="2161.75" y="757.3467">IDHCP4ServerFactory</text><line style="stroke:#181818;stroke-width:0.5;" x1="1971.5" x2="2468.5" y1="768.5" y2="768.5"/><line style="stroke:#181818;stroke-width:0.5;" x1="1971.5" x2="2468.5" y1="776.5" y2="776.5"/><ellipse cx="1981.5" cy="787.5" fill="#84BE84" rx="3" ry="3" style="stroke:#038048;stroke-width:1.0;"/><text fill="#000000" font-family="sans-serif" font-size="14" lengthAdjust="spacing" textLength="473" x="1990.5" y="793.4951">Create(config domain.DHCP4Config) (interfaces.IDHCP4Server, error)</text></g><path d="M1713,751 L1713,776.1328 A0,0 0 0 0 1713,776.1328 L1935,776.1328 A0,0 0 0 0 1935,776.1328 L1935,769 L1974.5,788.6484 L1935,761 L1935,761 L1925,751 L1713,751 A0,0 0 0 0 1713,751 " fill="#FEFFDD" style="stroke:#181818;stroke-width:0.5;"/><path d="M1925,751 L1925,761 L1935,761 L1925,751 " fill="#FEFFDD" style="stroke:#181818;stroke-width:0.5;"/><text fill="#000000" font-family="sans-serif" font-size="13" lengthAdjust="spacing" textLength="201" x="1719" y="768.0669">Create runtime DHCP v4 server</text><!--MD5=[66e4b79b8d04b3d0de0fbe34cd813b9a]
class IDHCP4Server--><g id="elem_IDHCP4Server"><rect codeLine="5" fill="#F1F1F1" height="129.1875" id="IDHCP4Server" rx="2.5" ry="2.5" style="stroke:#181818;stroke-width:0.5;" width="451" x="2007.5" y="1011"/><ellipse cx="2179.75" cy="1027" fill="#B4A7E5" rx="11" ry="11" style="stroke:#181818;stroke-width:1.0;"/><path d="M2175.6719,1022.7656 L2175.6719,1020.6094 L2183.0625,1020.6094 L2183.0625,1022.7656 L2180.5938,1022.7656 L2180.5938,1030.8438 L2183.0625,1030.8438 L2183.0625,1033 L2175.6719,1033 L2175.6719,1030.8438 L2178.1406,1030.8438 L2178.1406,1022.7656 L2175.6719,1022.7656 Z " fill="#000000"/><text fill="#000000" font-family="sans-serif" font-size="14" font-style="italic" lengthAdjust="spacing" textLength="98" x="2200.25" y="1031.8467">IDHCP4Server</text><line style="stroke:#181818;stroke-width:0.5;" x1="2008.5" x2="2457.5" y1="1043" y2="1043"/><ellipse cx="2018.5" cy="1054" fill="#84BE84" rx="3" ry="3" style="stroke:#038048;stroke-width:1.0;"/><text fill="#000000" font-family="sans-serif" font-size="14" lengthAdjust="spacing" textLength="425" x="2027.5" y="1059.9951">ReloadConfiguration(dhcp4config domain.DHCP4Config) error</text><line style="stroke:#181818;stroke-width:1.0;" x1="2008.5" x2="2457.5" y1="1067.2969" y2="1067.2969"/><ellipse cx="2018.5" cy="1078.2969" fill="#84BE84" rx="3" ry="3" style="stroke:#038048;stroke-width:1.0;"/><text fill="#000000" font-family="sans-serif" font-size="14" lengthAdjust="spacing" textLength="79" x="2027.5" y="1084.292">Start() error</text><line style="stroke:#181818;stroke-width:1.0;" x1="2008.5" x2="2457.5" y1="1091.5938" y2="1091.5938"/><ellipse cx="2018.5" cy="1102.5938" fill="#84BE84" rx="3" ry="3" style="stroke:#038048;stroke-width:1.0;"/><text fill="#000000" font-family="sans-serif" font-size="14" lengthAdjust="spacing" textLength="42" x="2027.5" y="1108.5889">Stop()</text><line style="stroke:#181818;stroke-width:1.0;" x1="2008.5" x2="2457.5" y1="1115.8906" y2="1115.8906"/><ellipse cx="2018.5" cy="1126.8906" fill="#84BE84" rx="3" ry="3" style="stroke:#038048;stroke-width:1.0;"/><text fill="#000000" font-family="sans-serif" font-size="14" lengthAdjust="spacing" textLength="259" x="2027.5" y="1132.8857">GetState() domain.DHCP4ServerState</text></g><path d="M1621,1005 L1621,1030.1328 A0,0 0 0 0 1621,1030.1328 L1973,1030.1328 A0,0 0 0 0 1973,1030.1328 L1973,1023 L2011.5,1055.1484 L1973,1015 L1973,1015 L1963,1005 L1621,1005 A0,0 0 0 0 1621,1005 " fill="#FEFFDD" style="stroke:#181818;stroke-width:0.5;"/><path d="M1963,1005 L1963,1015 L1973,1015 L1963,1005 " fill="#FEFFDD" style="stroke:#181818;stroke-width:0.5;"/><text fill="#000000" font-family="sans-serif" font-size="13" lengthAdjust="spacing" textLength="331" x="1627" y="1022.0669">Reload configuration for DHCP v4 server from config</text><path d="M1621,1040.1328 L1621,1065.2656 A0,0 0 0 0 1621,1065.2656 L1778,1065.2656 A0,0 0 0 0 1778,1065.2656 L1778,1058.1328 L2011.5,1079.4453 L1778,1050.1328 L1778,1050.1328 L1768,1040.1328 L1621,1040.1328 A0,0 0 0 0 1621,1040.1328 " fill="#FEFFDD" style="stroke:#181818;stroke-width:0.5;"/><path d="M1768,1040.1328 L1768,1050.1328 L1778,1050.1328 L1768,1040.1328 " fill="#FEFFDD" style="stroke:#181818;stroke-width:0.5;"/><text fill="#000000" font-family="sans-serif" font-size="13" lengthAdjust="spacing" textLength="136" x="1627" y="1057.1997">Start DHCP v4 server</text><path d="M1621,1075.2656 L1621,1100.3984 A0,0 0 0 0 1621,1100.3984 L1776,1100.3984 A0,0 0 0 0 1776,1100.3984 L1776,1093.2656 L2011.5,1103.7422 L1776,1085.2656 L1776,1085.2656 L1766,1075.2656 L1621,1075.2656 A0,0 0 0 0 1621,1075.2656 " fill="#FEFFDD" style="stroke:#181818;stroke-width:0.5;"/><path d="M1766,1075.2656 L1766,1085.2656 L1776,1085.2656 L1766,1075.2656 " fill="#FEFFDD" style="stroke:#181818;stroke-width:0.5;"/><text fill="#000000" font-family="sans-serif" font-size="13" lengthAdjust="spacing" textLength="134" x="1627" y="1092.3325">Stop DHCP v4 server</text><path d="M1621,1110.3984 L1621,1135.5313 A0,0 0 0 0 1621,1135.5313 L1872,1135.5313 A0,0 0 0 0 1872,1135.5313 L1872,1128.3984 L2011.5,1128.0391 L1872,1120.3984 L1872,1120.3984 L1862,1110.3984 L1621,1110.3984 A0,0 0 0 0 1621,1110.3984 " fill="#FEFFDD" style="stroke:#181818;stroke-width:0.5;"/><path d="M1862,1110.3984 L1862,1120.3984 L1872,1120.3984 L1862,1110.3984 " fill="#FEFFDD" style="stroke:#181818;stroke-width:0.5;"/><text fill="#000000" font-family="sans-serif" font-size="13" lengthAdjust="spacing" textLength="230" x="1627" y="1127.4653">Get current state of DHCP v4 server</text><!--MD5=[1045d07ae824aea072cabb0fb8284887]
class EntityUUID--><g id="elem_EntityUUID"><rect codeLine="5" fill="#F1F1F1" height="48" id="EntityUUID" rx="2.5" ry="2.5" style="stroke:#181818;stroke-width:0.5;" width="104" x="884" y="255"/><ellipse cx="899" cy="271" fill="#ADD1B2" rx="11" ry="11" style="stroke:#181818;stroke-width:1.0;"/><path d="M901.9688,276.6406 Q901.3906,276.9375 900.75,277.0781 Q900.1094,277.2344 899.4063,277.2344 Q896.9063,277.2344 895.5781,275.5938 Q894.2656,273.9375 894.2656,270.8125 Q894.2656,267.6875 895.5781,266.0313 Q896.9063,264.375 899.4063,264.375 Q900.1094,264.375 900.75,264.5313 Q901.4063,264.6875 901.9688,264.9844 L901.9688,267.7031 Q901.3438,267.125 900.75,266.8594 Q900.1563,266.5781 899.5313,266.5781 Q898.1875,266.5781 897.5,267.6563 Q896.8125,268.7188 896.8125,270.8125 Q896.8125,272.9063 897.5,273.9844 Q898.1875,275.0469 899.5313,275.0469 Q900.1563,275.0469 900.75,274.7813 Q901.3438,274.5 901.9688,273.9219 L901.9688,276.6406 Z " fill="#000000"/><text fill="#000000" font-family="sans-serif" font-size="14" lengthAdjust="spacing" textLength="72" x="913" y="275.8467">EntityUUID</text><line style="stroke:#181818;stroke-width:0.5;" x1="885" x2="987" y1="287" y2="287"/><line style="stroke:#181818;stroke-width:0.5;" x1="885" x2="987" y1="295" y2="295"/></g><!--MD5=[be996cdb8e6bf2fc7cb89c555f2cd144]
class Entity--><g id="elem_Entity"><rect codeLine="8" fill="#F1F1F1" height="129.1875" id="Entity" rx="2.5" ry="2.5" style="stroke:#181818;stroke-width:0.5;" width="208" x="709" y="380"/><ellipse cx="766.25" cy="396" fill="#ADD1B2" rx="11" ry="11" style="stroke:#181818;stroke-width:1.0;"/><path d="M769.2188,401.6406 Q768.6406,401.9375 768,402.0781 Q767.3594,402.2344 766.6563,402.2344 Q764.1563,402.2344 762.8281,400.5938 Q761.5156,398.9375 761.5156,395.8125 Q761.5156,392.6875 762.8281,391.0313 Q764.1563,389.375 766.6563,389.375 Q767.3594,389.375 768,389.5313 Q768.6563,389.6875 769.2188,389.9844 L769.2188,392.7031 Q768.5938,392.125 768,391.8594 Q767.4063,391.5781 766.7813,391.5781 Q765.4375,391.5781 764.75,392.6563 Q764.0625,393.7188 764.0625,395.8125 Q764.0625,397.9063 764.75,398.9844 Q765.4375,400.0469 766.7813,400.0469 Q767.4063,400.0469 768,399.7813 Q768.5938,399.5 769.2188,398.9219 L769.2188,401.6406 Z " fill="#000000"/><text fill="#000000" font-family="sans-serif" font-size="14" lengthAdjust="spacing" textLength="38" x="786.75" y="400.8467">Entity</text><rect fill="#FFFFFF" height="15.9688" style="stroke:#000000;stroke-width:1.0;stroke-dasharray:2.0,2.0;" width="45" x="875" y="377"/><text fill="#000000" font-family="sans-serif" font-size="12" font-style="italic" lengthAdjust="spacing" textLength="43" x="876" y="389.1387">IDType</text><line style="stroke:#181818;stroke-width:0.5;" x1="710" x2="916" y1="412" y2="412"/><ellipse cx="720" cy="423" fill="none" rx="3" ry="3" style="stroke:#038048;stroke-width:1.0;"/><text fill="#000000" font-family="sans-serif" font-size="14" lengthAdjust="spacing" textLength="66" x="729" y="428.9951">ID IDType</text><line style="stroke:#181818;stroke-width:1.0;" x1="710" x2="916" y1="436.2969" y2="436.2969"/><ellipse cx="720" cy="447.2969" fill="none" rx="3" ry="3" style="stroke:#038048;stroke-width:1.0;"/><text fill="#000000" font-family="sans-serif" font-size="14" lengthAdjust="spacing" textLength="141" x="729" y="453.292">CreatedAt time.Time</text><line style="stroke:#181818;stroke-width:1.0;" x1="710" x2="916" y1="460.5938" y2="460.5938"/><ellipse cx="720" cy="471.5938" fill="none" rx="3" ry="3" style="stroke:#038048;stroke-width:1.0;"/><text fill="#000000" font-family="sans-serif" font-size="14" lengthAdjust="spacing" textLength="152" x="729" y="477.5889">UpdatedAt *time.Time</text><line style="stroke:#181818;stroke-width:1.0;" x1="710" x2="916" y1="484.8906" y2="484.8906"/><ellipse cx="720" cy="495.8906" fill="none" rx="3" ry="3" style="stroke:#038048;stroke-width:1.0;"/><text fill="#000000" font-family="sans-serif" font-size="14" lengthAdjust="spacing" textLength="182" x="729" y="501.8857">DeletedAt gorm.DeletedAt</text></g><!--MD5=[f0474206043373679905908f8f9685bc]
class DHCP4Lease--><g id="elem_DHCP4Lease"><rect codeLine="4" fill="#F1F1F1" height="129.1875" id="DHCP4Lease" rx="2.5" ry="2.5" style="stroke:#181818;stroke-width:0.5;" width="205" x="899.5" y="53"/><ellipse cx="952.75" cy="69" fill="#ADD1B2" rx="11" ry="11" style="stroke:#181818;stroke-width:1.0;"/><path d="M955.7188,74.6406 Q955.1406,74.9375 954.5,75.0781 Q953.8594,75.2344 953.1563,75.2344 Q950.6563,75.2344 949.3281,73.5938 Q948.0156,71.9375 948.0156,68.8125 Q948.0156,65.6875 949.3281,64.0313 Q950.6563,62.375 953.1563,62.375 Q953.8594,62.375 954.5,62.5313 Q955.1563,62.6875 955.7188,62.9844 L955.7188,65.7031 Q955.0938,65.125 954.5,64.8594 Q953.9063,64.5781 953.2813,64.5781 Q951.9375,64.5781 951.25,65.6563 Q950.5625,66.7188 950.5625,68.8125 Q950.5625,70.9063 951.25,71.9844 Q951.9375,73.0469 953.2813,73.0469 Q953.9063,73.0469 954.5,72.7813 Q955.0938,72.5 955.7188,71.9219 L955.7188,74.6406 Z " fill="#000000"/><text fill="#000000" font-family="sans-serif" font-size="14" lengthAdjust="spacing" textLength="90" x="973.25" y="73.8467">DHCP4Lease</text><line style="stroke:#181818;stroke-width:0.5;" x1="900.5" x2="1103.5" y1="85" y2="85"/><ellipse cx="910.5" cy="96" fill="none" rx="3" ry="3" style="stroke:#038048;stroke-width:1.0;"/><text fill="#000000" font-family="sans-serif" font-size="14" lengthAdjust="spacing" textLength="86" x="919.5" y="101.9951">ID uuid.UUID</text><line style="stroke:#181818;stroke-width:1.0;" x1="900.5" x2="1103.5" y1="109.2969" y2="109.2969"/><ellipse cx="910.5" cy="120.2969" fill="none" rx="3" ry="3" style="stroke:#038048;stroke-width:1.0;"/><text fill="#000000" font-family="sans-serif" font-size="14" lengthAdjust="spacing" textLength="179" x="919.5" y="126.292">DHCP4ConfigID uuid.UUID</text><line style="stroke:#181818;stroke-width:1.0;" x1="900.5" x2="1103.5" y1="133.5938" y2="133.5938"/><ellipse cx="910.5" cy="144.5938" fill="none" rx="3" ry="3" style="stroke:#038048;stroke-width:1.0;"/><text fill="#000000" font-family="sans-serif" font-size="14" lengthAdjust="spacing" textLength="55" x="919.5" y="150.5889">IP string</text><line style="stroke:#181818;stroke-width:1.0;" x1="900.5" x2="1103.5" y1="157.8906" y2="157.8906"/><ellipse cx="910.5" cy="168.8906" fill="none" rx="3" ry="3" style="stroke:#038048;stroke-width:1.0;"/><text fill="#000000" font-family="sans-serif" font-size="14" lengthAdjust="spacing" textLength="74" x="919.5" y="174.8857">MAC string</text></g><!--MD5=[4e6a87af6da6e423968b760502e86650]
class DHCPServerState--><g id="elem_DHCPServerState"><rect codeLine="3" fill="#F1F1F1" height="153.4844" id="DHCPServerState" rx="2.5" ry="2.5" style="stroke:#181818;stroke-width:0.5;" width="156" x="708" y="41"/><ellipse cx="724.8" cy="57" fill="#EB937F" rx="11" ry="11" style="stroke:#181818;stroke-width:1.0;"/><path d="M728.9094,63 L721.1906,63 L721.1906,50.6094 L728.9094,50.6094 L728.9094,52.7656 L723.6438,52.7656 L723.6438,55.4375 L728.4094,55.4375 L728.4094,57.5938 L723.6438,57.5938 L723.6438,60.8438 L728.9094,60.8438 L728.9094,63 Z " fill="#000000"/><text fill="#000000" font-family="sans-serif" font-size="14" lengthAdjust="spacing" textLength="120" x="739.2" y="61.8467">DHCPServerState</text><line style="stroke:#181818;stroke-width:0.5;" x1="709" x2="863" y1="73" y2="73"/><text fill="#000000" font-family="sans-serif" font-size="14" lengthAdjust="spacing" textLength="144" x="714" y="89.9951">DHCPStateLaunched</text><line style="stroke:#181818;stroke-width:1.0;" x1="709" x2="863" y1="97.2969" y2="97.2969"/><text fill="#000000" font-family="sans-serif" font-size="14" lengthAdjust="spacing" textLength="135" x="714" y="114.292">DHCPStateStopped</text><line style="stroke:#181818;stroke-width:1.0;" x1="709" x2="863" y1="121.5938" y2="121.5938"/><text fill="#000000" font-family="sans-serif" font-size="14" lengthAdjust="spacing" textLength="109" x="714" y="138.5889">DHCPStateError</text><line style="stroke:#181818;stroke-width:1.0;" x1="709" x2="863" y1="145.8906" y2="145.8906"/><text fill="#000000" font-family="sans-serif" font-size="14" lengthAdjust="spacing" textLength="113" x="714" y="162.8857">DHCPStateNone</text><line style="stroke:#181818;stroke-width:1.0;" x1="709" x2="863" y1="170.1875" y2="170.1875"/><ellipse cx="719" cy="181.1875" fill="#84BE84" rx="3" ry="3" style="stroke:#038048;stroke-width:1.0;"/><text fill="#000000" font-family="sans-serif" font-size="14" lengthAdjust="spacing" textLength="68" x="728" y="187.1826">ToString()</text></g><!--MD5=[27abfb56f32eefa7f07c83348fb1ee32]
class GormGenericRepository--><g id="elem_GormGenericRepository"><rect codeLine="5" fill="#F1F1F1" height="48" id="GormGenericRepository" rx="2.5" ry="2.5" style="stroke:#181818;stroke-width:0.5;" width="319" x="1465.5" y="420.5"/><ellipse cx="1480.5" cy="436.5" fill="#ADD1B2" rx="11" ry="11" style="stroke:#181818;stroke-width:1.0;"/><path d="M1483.4688,442.1406 Q1482.8906,442.4375 1482.25,442.5781 Q1481.6094,442.7344 1480.9063,442.7344 Q1478.4063,442.7344 1477.0781,441.0938 Q1475.7656,439.4375 1475.7656,436.3125 Q1475.7656,433.1875 1477.0781,431.5313 Q1478.4063,429.875 1480.9063,429.875 Q1481.6094,429.875 1482.25,430.0313 Q1482.9063,430.1875 1483.4688,430.4844 L1483.4688,433.2031 Q1482.8438,432.625 1482.25,432.3594 Q1481.6563,432.0781 1481.0313,432.0781 Q1479.6875,432.0781 1479,433.1563 Q1478.3125,434.2188 1478.3125,436.3125 Q1478.3125,438.4063 1479,439.4844 Q1479.6875,440.5469 1481.0313,440.5469 Q1481.6563,440.5469 1482.25,440.2813 Q1482.8438,440 1483.4688,439.4219 L1483.4688,442.1406 Z " fill="#000000"/><text fill="#000000" font-family="sans-serif" font-size="14" lengthAdjust="spacing" textLength="166" x="1494.5" y="441.3467">GormGenericRepository</text><rect fill="#FFFFFF" height="15.9688" style="stroke:#000000;stroke-width:1.0;stroke-dasharray:2.0,2.0;" width="119" x="1668.5" y="417.5"/><text fill="#000000" font-family="sans-serif" font-size="12" font-style="italic" lengthAdjust="spacing" textLength="117" x="1669.5" y="429.6387">IDType, EntityType</text><line style="stroke:#181818;stroke-width:0.5;" x1="1466.5" x2="1783.5" y1="452.5" y2="452.5"/><line style="stroke:#181818;stroke-width:0.5;" x1="1466.5" x2="1783.5" y1="460.5" y2="460.5"/></g><!--MD5=[5dca6464c16362db0ef821d71dc8abc8]
class GormDHCP4LeaseRepository--><g id="elem_GormDHCP4LeaseRepository"><rect codeLine="5" fill="#F1F1F1" height="48" id="GormDHCP4LeaseRepository" rx="2.5" ry="2.5" style="stroke:#181818;stroke-width:0.5;" width="234" x="1465" y="93.5"/><ellipse cx="1480" cy="109.5" fill="#ADD1B2" rx="11" ry="11" style="stroke:#181818;stroke-width:1.0;"/><path d="M1482.9688,115.1406 Q1482.3906,115.4375 1481.75,115.5781 Q1481.1094,115.7344 1480.4063,115.7344 Q1477.9063,115.7344 1476.5781,114.0938 Q1475.2656,112.4375 1475.2656,109.3125 Q1475.2656,106.1875 1476.5781,104.5313 Q1477.9063,102.875 1480.4063,102.875 Q1481.1094,102.875 1481.75,103.0313 Q1482.4063,103.1875 1482.9688,103.4844 L1482.9688,106.2031 Q1482.3438,105.625 1481.75,105.3594 Q1481.1563,105.0781 1480.5313,105.0781 Q1479.1875,105.0781 1478.5,106.1563 Q1477.8125,107.2188 1477.8125,109.3125 Q1477.8125,111.4063 1478.5,112.4844 Q1479.1875,113.5469 1480.5313,113.5469 Q1481.1563,113.5469 1481.75,113.2813 Q1482.3438,113 1482.9688,112.4219 L1482.9688,115.1406 Z " fill="#000000"/><text fill="#000000" font-family="sans-serif" font-size="14" lengthAdjust="spacing" textLength="202" x="1494" y="114.3467">GormDHCP4LeaseRepository</text><line style="stroke:#181818;stroke-width:0.5;" x1="1466" x2="1698" y1="125.5" y2="125.5"/><line style="stroke:#181818;stroke-width:0.5;" x1="1466" x2="1698" y1="133.5" y2="133.5"/></g><g id="elem_DHCP4LeaseTypeNote"><path d="M1465,259 L1465,299.2656 L1657,299.2656 L1657,269 L1647,259 L1465,259 " fill="#FEFFDD" style="stroke:#181818;stroke-width:0.5;"/><path d="M1647,259 L1647,269 L1657,269 L1647,259 " fill="#FEFFDD" style="stroke:#181818;stroke-width:1.0;"/><text fill="#000000" font-family="sans-serif" font-size="13" lengthAdjust="spacing" textLength="167" x="1471" y="276.0669">EntityType is DHCP4Lease</text><text fill="#000000" font-family="sans-serif" font-size="13" lengthAdjust="spacing" textLength="125" x="1471" y="291.1997">IDType is uuid.UUID</text></g><!--MD5=[717fb05df943bf2d334d1b0e26aa5bcb]
class CoreDHCP4Server--><g id="elem_CoreDHCP4Server"><rect codeLine="7" fill="#F1F1F1" height="48" id="CoreDHCP4Server" rx="2.5" ry="2.5" style="stroke:#181818;stroke-width:0.5;" width="158" x="2331" y="93.5"/><ellipse cx="2346" cy="109.5" fill="#ADD1B2" rx="11" ry="11" style="stroke:#181818;stroke-width:1.0;"/><path d="M2348.9688,115.1406 Q2348.3906,115.4375 2347.75,115.5781 Q2347.1094,115.7344 2346.4063,115.7344 Q2343.9063,115.7344 2342.5781,114.0938 Q2341.2656,112.4375 2341.2656,109.3125 Q2341.2656,106.1875 2342.5781,104.5313 Q2343.9063,102.875 2346.4063,102.875 Q2347.1094,102.875 2347.75,103.0313 Q2348.4063,103.1875 2348.9688,103.4844 L2348.9688,106.2031 Q2348.3438,105.625 2347.75,105.3594 Q2347.1563,105.0781 2346.5313,105.0781 Q2345.1875,105.0781 2344.5,106.1563 Q2343.8125,107.2188 2343.8125,109.3125 Q2343.8125,111.4063 2344.5,112.4844 Q2345.1875,113.5469 2346.5313,113.5469 Q2347.1563,113.5469 2347.75,113.2813 Q2348.3438,113 2348.9688,112.4219 L2348.9688,115.1406 Z " fill="#000000"/><text fill="#000000" font-family="sans-serif" font-size="14" lengthAdjust="spacing" textLength="126" x="2360" y="114.3467">CoreDHCP4Server</text><line style="stroke:#181818;stroke-width:0.5;" x1="2332" x2="2488" y1="125.5" y2="125.5"/><line style="stroke:#181818;stroke-width:0.5;" x1="2332" x2="2488" y1="133.5" y2="133.5"/></g><!--MD5=[e3fe7e3111a978b7da69f910c3cef502]
class CoreDHCP4ServerFactory--><g id="elem_CoreDHCP4ServerFactory"><rect codeLine="11" fill="#F1F1F1" height="64.2969" id="CoreDHCP4ServerFactory" rx="2.5" ry="2.5" style="stroke:#181818;stroke-width:0.5;" width="546" x="1742" y="85.5"/><ellipse cx="1922.75" cy="101.5" fill="#ADD1B2" rx="11" ry="11" style="stroke:#181818;stroke-width:1.0;"/><path d="M1925.7188,107.1406 Q1925.1406,107.4375 1924.5,107.5781 Q1923.8594,107.7344 1923.1563,107.7344 Q1920.6563,107.7344 1919.3281,106.0938 Q1918.0156,104.4375 1918.0156,101.3125 Q1918.0156,98.1875 1919.3281,96.5313 Q1920.6563,94.875 1923.1563,94.875 Q1923.8594,94.875 1924.5,95.0313 Q1925.1563,95.1875 1925.7188,95.4844 L1925.7188,98.2031 Q1925.0938,97.625 1924.5,97.3594 Q1923.9063,97.0781 1923.2813,97.0781 Q1921.9375,97.0781 1921.25,98.1563 Q1920.5625,99.2188 1920.5625,101.3125 Q1920.5625,103.4063 1921.25,104.4844 Q1921.9375,105.5469 1923.2813,105.5469 Q1923.9063,105.5469 1924.5,105.2813 Q1925.0938,105 1925.7188,104.4219 L1925.7188,107.1406 Z " fill="#000000"/><text fill="#000000" font-family="sans-serif" font-size="14" lengthAdjust="spacing" textLength="176" x="1943.25" y="106.3467">CoreDHCP4ServerFactory</text><line style="stroke:#181818;stroke-width:0.5;" x1="1743" x2="2287" y1="117.5" y2="117.5"/><rect fill="none" height="6" style="stroke:#C82930;stroke-width:1.0;" width="6" x="1750" y="125.5"/><text fill="#000000" font-family="sans-serif" font-size="14" lengthAdjust="spacing" textLength="520" x="1762" y="134.4951">leasesRepo interfaces.IGenericRepository[uuid.UUID, domain.DHCP4Lease]</text><line style="stroke:#181818;stroke-width:0.5;" x1="1743" x2="2287" y1="141.7969" y2="141.7969"/></g><!--MD5=[0cbfc2deb107b13f52db89da1bac989a]
class DHCP4LeaseRepository--><g id="elem_DHCP4LeaseRepository"><rect fill="#F1F1F1" height="48" id="DHCP4LeaseRepository" rx="2.5" ry="2.5" style="stroke:#181818;stroke-width:0.5;" width="196" x="1917" y="255"/><ellipse cx="1932" cy="271" fill="#ADD1B2" rx="11" ry="11" style="stroke:#181818;stroke-width:1.0;"/><path d="M1934.9688,276.6406 Q1934.3906,276.9375 1933.75,277.0781 Q1933.1094,277.2344 1932.4063,277.2344 Q1929.9063,277.2344 1928.5781,275.5938 Q1927.2656,273.9375 1927.2656,270.8125 Q1927.2656,267.6875 1928.5781,266.0313 Q1929.9063,264.375 1932.4063,264.375 Q1933.1094,264.375 1933.75,264.5313 Q1934.4063,264.6875 1934.9688,264.9844 L1934.9688,267.7031 Q1934.3438,267.125 1933.75,266.8594 Q1933.1563,266.5781 1932.5313,266.5781 Q1931.1875,266.5781 1930.5,267.6563 Q1929.8125,268.7188 1929.8125,270.8125 Q1929.8125,272.9063 1930.5,273.9844 Q1931.1875,275.0469 1932.5313,275.0469 Q1933.1563,275.0469 1933.75,274.7813 Q1934.3438,274.5 1934.9688,273.9219 L1934.9688,276.6406 Z " fill="#000000"/><text fill="#000000" font-family="sans-serif" font-size="14" lengthAdjust="spacing" textLength="164" x="1946" y="275.8467">DHCP4LeaseRepository</text><line style="stroke:#181818;stroke-width:0.5;" x1="1918" x2="2112" y1="287" y2="287"/><line style="stroke:#181818;stroke-width:0.5;" x1="1918" x2="2112" y1="295" y2="295"/></g><!--MD5=[4afd32b9c3a651e50eee9a88aa9ac7c6]
link EntityUUID to Entity--><g id="link_EntityUUID_Entity"><path codeLine="7" d="M918.64,303.08 C905.54,320.48 886.81,345.39 868.74,369.41 " fill="none" id="EntityUUID-to-Entity" style="stroke:#181818;stroke-width:1.0;"/><polygon fill="#181818" points="860.78,379.98,867.5837,377.5905,867.9948,370.3911,861.1911,372.7806,860.78,379.98" style="stroke:#181818;stroke-width:1.0;"/><text fill="#000000" font-family="sans-serif" font-size="13" lengthAdjust="spacing" textLength="125" x="893" y="346.0669">IDType is uuid.UUID</text></g><!--MD5=[a6c7a0eda5b041e127f539f1664bb96a]
link Entity to IEntityModel--><g id="link_Entity_IEntityModel"><path codeLine="17" d="M708.8,454.43 C567.34,468.29 323.89,498.85 252,550 C205.93,582.78 174.66,638.4 155.05,685.19 " fill="none" id="Entity-to-IEntityModel" style="stroke:#181818;stroke-width:1.0;stroke-dasharray:7.0,7.0;"/><polygon fill="none" points="161.49,687.94,147.6,703.94,148.48,682.77,161.49,687.94" style="stroke:#181818;stroke-width:1.0;"/></g><!--MD5=[11858071ca1ebba6204425b9bdcd199e]
link DHCP4Lease to EntityUUID--><g id="link_DHCP4Lease_EntityUUID"><path codeLine="13" d="M975.54,182.46 C967.05,202.96 957.97,224.91 950.65,242.6 " fill="none" id="DHCP4Lease-to-EntityUUID" style="stroke:#181818;stroke-width:1.0;"/><polygon fill="#181818" points="945.66,254.64,951.6502,250.6253,950.2482,243.5518,944.258,247.5665,945.66,254.64" style="stroke:#181818;stroke-width:1.0;"/></g><!--MD5=[1b84833638557571905b03f54e842c8c]
link GormGenericRepository to IGenericRepository--><g id="link_GormGenericRepository_IGenericRepository"><path codeLine="7" d="M1593.07,468.66 C1548.98,500.63 1465.8,560.95 1385.66,619.08 " fill="none" id="GormGenericRepository-to-IGenericRepository" style="stroke:#181818;stroke-width:1.0;stroke-dasharray:7.0,7.0;"/><polygon fill="none" points="1389.71,624.78,1369.41,630.86,1381.5,613.45,1389.71,624.78" style="stroke:#181818;stroke-width:1.0;"/></g><!--MD5=[eabd0f0a5258a17843f23349842c1db2]
link GormDHCP4LeaseRepository to GormGenericRepository--><g id="link_GormDHCP4LeaseRepository_GormGenericRepository"><path codeLine="7" d="M1604.45,141.77 C1627.29,167.21 1661.23,210.33 1675,255 C1691.43,308.28 1666.03,371.01 1645.82,408.99 " fill="none" id="GormDHCP4LeaseRepository-to-GormGenericRepository" style="stroke:#181818;stroke-width:1.0;"/><polygon fill="#181818" points="1639.5,420.41,1645.9048,417.0967,1645.3098,409.9102,1638.905,413.2235,1639.5,420.41" style="stroke:#181818;stroke-width:1.0;"/></g><!--MD5=[ff79e572fabcc8b56f5acd6674015fa5]
link GormDHCP4LeaseRepository to DHCP4LeaseTypeNote--><g id="link_GormDHCP4LeaseRepository_DHCP4LeaseTypeNote"><path codeLine="11" d="M1578.95,141.69 C1574.78,173.32 1567.4,229.38 1563.53,258.78 " fill="none" id="GormDHCP4LeaseRepository-DHCP4LeaseTypeNote" style="stroke:#181818;stroke-width:1.0;stroke-dasharray:7.0,7.0;"/></g><!--MD5=[7add970746c243e5d9117923b7b5e77b]
link DHCP4LeaseTypeNote to GormGenericRepository--><g id="link_DHCP4LeaseTypeNote_GormGenericRepository"><path codeLine="12" d="M1568.47,299.08 C1579.72,327.82 1601.08,382.4 1614.08,415.61 " fill="none" id="DHCP4LeaseTypeNote-to-GormGenericRepository" style="stroke:#181818;stroke-width:1.0;stroke-dasharray:7.0,7.0;"/><polygon fill="#181818" points="1615.94,420.35,1616.374,410.5107,1614.1126,415.6959,1608.9274,413.4345,1615.94,420.35" style="stroke:#181818;stroke-width:1.0;"/></g><!--MD5=[d04ee9948be0dbd03ed47575f1fdf7fb]
link DHCP4Lease to DHCP4LeaseTypeNote--><g id="link_DHCP4Lease_DHCP4LeaseTypeNote"><path codeLine="13" d="M1104.53,147.75 C1218,180.13 1397.57,231.37 1494.2,258.94 " fill="none" id="DHCP4Lease-DHCP4LeaseTypeNote" style="stroke:#181818;stroke-width:1.0;stroke-dasharray:7.0,7.0;"/></g><!--MD5=[a2920fbf1852317c794436d0b62dc5c6]
link CoreDHCP4Server to IDHCP4Server--><g id="link_CoreDHCP4Server_IDHCP4Server"><path codeLine="9" d="M2440.58,141.62 C2474.04,169.81 2523,220.82 2523,278 C2523,278 2523,278 2523,769.5 C2523,848.69 2534.91,880.95 2487,944 C2470.35,965.92 2448.97,984.47 2425.7,1000.08 " fill="none" id="CoreDHCP4Server-to-IDHCP4Server" style="stroke:#181818;stroke-width:1.0;stroke-dasharray:7.0,7.0;"/><polygon fill="none" points="2429.11,1006.2,2408.46,1010.93,2421.65,994.35,2429.11,1006.2" style="stroke:#181818;stroke-width:1.0;"/></g><!--MD5=[888b508d351a7a9d5d5df721ad3e6496]
link CoreDHCP4ServerFactory to DHCP4LeaseRepository--><g id="link_CoreDHCP4ServerFactory_DHCP4LeaseRepository"><path codeLine="14" d="M2289,129.5 C2299.68,129.5 2293.96,144.64 2288,153.5 C2264.19,188.89 2159.14,229.94 2086.53,254.94 " fill="none" id="CoreDHCP4ServerFactory-DHCP4LeaseRepository" style="stroke:#181818;stroke-width:1.0;"/></g><!--MD5=[7c1ddc885d6a25a21f2faaf3da9d642a]
link CoreDHCP4ServerFactory to IDHCP4ServerFactory--><g id="link_CoreDHCP4ServerFactory_IDHCP4ServerFactory"><path codeLine="15" d="M2097.85,153.58 C2127.5,170.44 2158,193.68 2176,224 C2270.2,382.67 2246.46,614.8 2229.77,716.54 " fill="none" id="CoreDHCP4ServerFactory-to-IDHCP4ServerFactory" style="stroke:#181818;stroke-width:1.0;stroke-dasharray:7.0,7.0;"/><polygon fill="none" points="2236.63,717.96,2226.31,736.47,2222.83,715.57,2236.63,717.96" style="stroke:#181818;stroke-width:1.0;"/></g><!--MD5=[47f7935ec03a67a1d9c2de88e233e278]
link IDHCP4ServerFactory to IDHCP4Server--><!--MD5=[61c8f7126d765a224fb15e04c11ac334]
@startuml

!include ../repositories/GormDHCP4LeaseRepository.puml
!include ../interfaces/IDHCP4ServerFactory.puml
!include ../interfaces/IDHCP4Server.puml

package infrastructure {
    class CoreDHCP4Server {
    }
    CoreDHCP4Server .down.|> IDHCP4Server

    class CoreDHCP4ServerFactory {
        -leasesRepo interfaces.IGenericRepository[uuid.UUID, domain.DHCP4Lease]
    }
    CoreDHCP4ServerFactory::leasesRepo - - DHCP4LeaseRepository
    CoreDHCP4ServerFactory .down.|> IDHCP4ServerFactory

    IDHCP4ServerFactory .[hidden]down. IDHCP4Server
}

@enduml

@startuml



package app {
    interface IEntityModel<IDType> {
        +GetID() IDType
        - -
        +GetCreatedAt() time.Time
        - -
        +GetUpdatedAt() *time.Time
        - -
        +GetDeletedAt() *time.Time
    }
}


package domain {
    class EntityUUID {
    }
    EntityUUID - -* Entity : IDType is uuid.UUID
    class Entity<IDType> {
        +ID IDType
        - -
        +CreatedAt time.Time
        - -
        +UpdatedAt *time.Time
        - -
        +DeletedAt gorm.DeletedAt
    }
    Entity .down.|> IEntityModel
}


package domain {
    class DHCP4Lease {
        +ID uuid.UUID
        - -
        +DHCP4ConfigID uuid.UUID
        - -
        +IP string
        - -
        +MAC string
    }
    DHCP4Lease -down-* EntityUUID
}



package app {
    interface IGenericRepository<IDType, interfaces.IEntityModel[IDType]> {
        +GetList(ctx context.Context, orderBy string, orderDirection string, page int, size int, queryBuilder interfaces.IQueryBuilder) ([]EntityType, error)
        - -
        +Count(ctx context.Context, queryBuilder interfaces.IQueryBuilder) (int, error)
        - -
        +IsExist(ctx context.Context, id IDType, queryBuilder interfaces.IQueryBuilder) (bool, error)
        - -
        +NewQueryBuilder(ctx context.Context) interfaces.IQueryBuilder
        - -
        +GetById(ctx context.Context, id IDType) (EntityType, error)
        - -
        +Update(ctx context.Context, entity EntityType) (EntityType, error)
        - -
        +Insert(ctx context.Context, entity EntityType) (EntityType, error)
        - -
        +Delete(ctx context.Context, id IDType) error
        - -
        +DeleteAll(ctx context.Context, queryBuilder interfaces.IQueryBuilder) error
        - -
        +Dispose() error
    }
    note left of IGenericRepository::GetList
      Get list of elements with filtering and pagination
    end note

    note left of IGenericRepository::Count
      Get count of entities with filtering
    end note

    note left of IGenericRepository::IsExist
      Checks that entity with selected conditions is existed
    end note

    note left of IGenericRepository::NewQueryBuilder
      Get new instance of the query builder
    end note

    note left of IGenericRepository::GetById
      Get entity by ID from repository
    end note

    note left of IGenericRepository::Update
      Save the changes to the existing entity in the repository
    end note

    note left of IGenericRepository::Insert
      Add entity to the repository
    end note

    note left of IGenericRepository::Delete
      Delete entity from repository
    end note

    note left of IGenericRepository::DeleteAll
      Delete entities with selected conditions
    end note

    note left of IGenericRepository::Dispose
      Dispose all allocated data
    end note
}


package infrastructure {
    class GormGenericRepository<IDType, EntityType>

    GormGenericRepository .down.|> IGenericRepository
}


package infrastructure {
    class GormDHCP4LeaseRepository

    GormDHCP4LeaseRepository -down-* GormGenericRepository

    note "EntityType is DHCP4Lease \nIDType is uuid.UUID" as DHCP4LeaseTypeNote

    GormDHCP4LeaseRepository .down. DHCP4LeaseTypeNote
    GormGenericRepository <.up. DHCP4LeaseTypeNote
    DHCP4Lease .. DHCP4LeaseTypeNote
}


package app {
    interface IDHCP4ServerFactory {
        +Create(config domain.DHCP4Config) (interfaces.IDHCP4Server, error)
    }

    note left of IDHCP4ServerFactory::Create
    Create runtime DHCP v4 server
    end note
}



package domain {
    enum DHCPServerState {
            DHCPStateLaunched
            - -
            DHCPStateStopped
            - -
            DHCPStateError
            - -
            DHCPStateNone
            - -
            +ToString()
    }
}


package app {
    interface IDHCP4Server {
        +ReloadConfiguration(dhcp4config domain.DHCP4Config) error
        - -
        +Start() error
        - -
        +Stop()
        - -
        +GetState() domain.DHCP4ServerState
    }

    note left of IDHCP4Server::ReloadConfiguration
    Reload configuration for DHCP v4 server from config
    end note

    note left of IDHCP4Server::Start
    Start DHCP v4 server
    end note

    note left of IDHCP4Server::Stop
    Stop DHCP v4 server
    end note

    note left of IDHCP4Server::GetState
    Get current state of DHCP v4 server
    end note
}


package infrastructure {
    class CoreDHCP4Server {
    }
    CoreDHCP4Server .down.|> IDHCP4Server

    class CoreDHCP4ServerFactory {
        -leasesRepo interfaces.IGenericRepository[uuid.UUID, domain.DHCP4Lease]
    }
    CoreDHCP4ServerFactory::leasesRepo - - DHCP4LeaseRepository
    CoreDHCP4ServerFactory .down.|> IDHCP4ServerFactory

    IDHCP4ServerFactory .[hidden]down. IDHCP4Server
}

@enduml

PlantUML version 1.2022.6(Tue Jun 21 17:34:49 EGST 2022)
(GPL source distribution)
Java Runtime: OpenJDK Runtime Environment
JVM: OpenJDK 64-Bit Server VM
Default Encoding: UTF-8
Language: en
Country: US
--></g></svg>