<?xml version="1.0" encoding="UTF-8" standalone="no"?><svg xmlns="http://www.w3.org/2000/svg" xmlns:xlink="http://www.w3.org/1999/xlink" contentStyleType="text/css" height="1232px" preserveAspectRatio="none" style="width:2369px;height:1232px;background:#FFFFFF;" version="1.1" viewBox="0 0 2369 1232" width="2369px" zoomAndPan="magnify"><defs/><g><!--MD5=[d5ac3844f66b12d9e08170e47495e096]
cluster app--><g id="cluster_app"><path d="M127.77,677 L154.77,677 A3.75,3.75 0 0 1 157.27,679.5 L164.27,700.6094 L2359.77,700.6094 A2.5,2.5 0 0 1 2362.27,703.1094 L2362.27,1222.5 A2.5,2.5 0 0 1 2359.77,1225 L127.77,1225 A2.5,2.5 0 0 1 125.27,1222.5 L125.27,679.5 A2.5,2.5 0 0 1 127.77,677 " style="stroke:#000000;stroke-width:1.5;fill:none;"/><line style="stroke:#000000;stroke-width:1.5;fill:none;" x1="125.27" x2="164.27" y1="700.6094" y2="700.6094"/><text fill="#000000" font-family="sans-serif" font-size="14" font-weight="bold" lengthAdjust="spacing" textLength="26" x="129.27" y="693.5332">app</text></g><!--MD5=[27f772719433d509ddbc20ff768eba08]
cluster domain--><g id="cluster_domain"><path d="M1832.77,139 L1884.77,139 A3.75,3.75 0 0 1 1887.27,141.5 L1894.27,162.6094 L2232.77,162.6094 A2.5,2.5 0 0 1 2235.27,165.1094 L2235.27,542.5 A2.5,2.5 0 0 1 2232.77,545 L1832.77,545 A2.5,2.5 0 0 1 1830.27,542.5 L1830.27,141.5 A2.5,2.5 0 0 1 1832.77,139 " style="stroke:#000000;stroke-width:1.5;fill:none;"/><line style="stroke:#000000;stroke-width:1.5;fill:none;" x1="1830.27" x2="1894.27" y1="162.6094" y2="162.6094"/><text fill="#000000" font-family="sans-serif" font-size="14" font-weight="bold" lengthAdjust="spacing" textLength="51" x="1834.27" y="155.5332">domain</text></g><!--MD5=[77349be1bd27b81b697a0f9b3aded3c8]
cluster infrastructure--><g id="cluster_infrastructure"><path d="M884.77,6 L982.77,6 A3.75,3.75 0 0 1 985.27,8.5 L992.27,29.6094 L1549.77,29.6094 A2.5,2.5 0 0 1 1552.27,32.1094 L1552.27,650.5 A2.5,2.5 0 0 1 1549.77,653 L884.77,653 A2.5,2.5 0 0 1 882.27,650.5 L882.27,8.5 A2.5,2.5 0 0 1 884.77,6 " style="stroke:#000000;stroke-width:1.5;fill:none;"/><line style="stroke:#000000;stroke-width:1.5;fill:none;" x1="882.27" x2="992.27" y1="29.6094" y2="29.6094"/><text fill="#000000" font-family="sans-serif" font-size="14" font-weight="bold" lengthAdjust="spacing" textLength="97" x="886.27" y="22.5332">infrastructure</text></g><!--MD5=[2a39a5be1cc24ddddd6e6286e4ece992]
class IEntityModel--><g id="elem_IEntityModel"><rect codeLine="3" fill="#F1F1F1" height="65.6094" id="IEntityModel" rx="2.5" ry="2.5" style="stroke:#181818;stroke-width:0.5;" width="138" x="2208.27" y="825.5"/><ellipse cx="2235.87" cy="841.5" fill="#B4A7E5" rx="11" ry="11" style="stroke:#181818;stroke-width:1.0;"/><path d="M2236.8231,838.1406 L2236.8231,844.7969 L2238.5419,844.7969 Q2239.1513,844.7969 2239.4169,845.0313 Q2239.6825,845.2656 2239.6825,845.6563 Q2239.6825,846.0313 2239.4169,846.2656 Q2239.1513,846.5 2238.5419,846.5 L2233.4013,846.5 Q2232.7919,846.5 2232.5263,846.2656 Q2232.2606,846.0313 2232.2606,845.6406 Q2232.2606,845.2656 2232.5263,845.0313 Q2232.7919,844.7969 2233.4013,844.7969 L2235.12,844.7969 L2235.12,838.1406 L2233.4013,838.1406 Q2232.7919,838.1406 2232.5263,837.9063 Q2232.2606,837.6719 2232.2606,837.2813 Q2232.2606,836.9063 2232.5263,836.6719 Q2232.7919,836.4375 2233.4013,836.4375 L2238.5419,836.4375 Q2239.1513,836.4375 2239.4169,836.6719 Q2239.6825,836.9063 2239.6825,837.2813 Q2239.6825,837.6719 2239.4169,837.9063 Q2239.1513,838.1406 2238.5419,838.1406 L2236.8231,838.1406 Z " fill="#000000"/><text fill="#000000" font-family="sans-serif" font-size="14" font-style="italic" lengthAdjust="spacing" textLength="78" x="2252.67" y="847.2285">IEntityModel</text><line style="stroke:#181818;stroke-width:0.5;" x1="2209.27" x2="2345.27" y1="857.5" y2="857.5"/><line style="stroke:#181818;stroke-width:0.5;" x1="2209.27" x2="2345.27" y1="865.5" y2="865.5"/><ellipse cx="2219.27" cy="876.5" fill="#84BE84" rx="3" ry="3" style="stroke:#038048;stroke-width:1.0;"/><text fill="#000000" font-family="sans-serif" font-size="14" lengthAdjust="spacing" textLength="112" x="2228.27" y="884.0332">GetID() uuid.UUID</text></g><!--MD5=[b3e0f8dcddb1b27f071a0303a68762bf]
class IGenericRepository--><g id="elem_IGenericRepository"><rect codeLine="3" fill="#F1F1F1" height="236.875" id="IGenericRepository" rx="2.5" ry="2.5" style="stroke:#181818;stroke-width:0.5;" width="915" x="1257.77" y="740"/><ellipse cx="1619.52" cy="756" fill="#B4A7E5" rx="11" ry="11" style="stroke:#181818;stroke-width:1.0;"/><path d="M1620.4731,752.6406 L1620.4731,759.2969 L1622.1919,759.2969 Q1622.8013,759.2969 1623.0669,759.5313 Q1623.3325,759.7656 1623.3325,760.1563 Q1623.3325,760.5313 1623.0669,760.7656 Q1622.8013,761 1622.1919,761 L1617.0513,761 Q1616.4419,761 1616.1763,760.7656 Q1615.9106,760.5313 1615.9106,760.1406 Q1615.9106,759.7656 1616.1763,759.5313 Q1616.4419,759.2969 1617.0513,759.2969 L1618.77,759.2969 L1618.77,752.6406 L1617.0513,752.6406 Q1616.4419,752.6406 1616.1763,752.4063 Q1615.9106,752.1719 1615.9106,751.7813 Q1615.9106,751.4063 1616.1763,751.1719 Q1616.4419,750.9375 1617.0513,750.9375 L1622.1919,750.9375 Q1622.8013,750.9375 1623.0669,751.1719 Q1623.3325,751.4063 1623.3325,751.7813 Q1623.3325,752.1719 1623.0669,752.4063 Q1622.8013,752.6406 1622.1919,752.6406 L1620.4731,752.6406 Z " fill="#000000"/><text fill="#000000" font-family="sans-serif" font-size="14" font-style="italic" lengthAdjust="spacing" textLength="122" x="1640.02" y="761.7285">IGenericRepository</text><rect fill="#FFFFFF" height="17.0938" style="stroke:#000000;stroke-width:1.0;stroke-dasharray:2.0,2.0;" width="59" x="2116.77" y="737"/><text fill="#000000" font-family="sans-serif" font-size="12" font-style="italic" lengthAdjust="spacing" textLength="57" x="2117.77" y="750.457">EntityType</text><line style="stroke:#181818;stroke-width:0.5;" x1="1258.77" x2="2171.77" y1="772" y2="772"/><ellipse cx="1268.77" cy="783" fill="#84BE84" rx="3" ry="3" style="stroke:#038048;stroke-width:1.0;"/><text fill="#000000" font-family="sans-serif" font-size="14" lengthAdjust="spacing" textLength="889" x="1277.77" y="790.5332">GetList(ctx context.Context, orderBy string, orderDirection string, page int, size int, queryBuilder interfaces.IQueryBuilder) ([]EntityType, error)</text><line style="stroke:#181818;stroke-width:1.0;" x1="1258.77" x2="2171.77" y1="797.6094" y2="797.6094"/><ellipse cx="1268.77" cy="808.6094" fill="#84BE84" rx="3" ry="3" style="stroke:#038048;stroke-width:1.0;"/><text fill="#000000" font-family="sans-serif" font-size="14" lengthAdjust="spacing" textLength="494" x="1277.77" y="816.1426">Count(ctx context.Context, queryBuilder interfaces.IQueryBuilder) (int64, error)</text><line style="stroke:#181818;stroke-width:1.0;" x1="1258.77" x2="2171.77" y1="823.2188" y2="823.2188"/><ellipse cx="1268.77" cy="834.2188" fill="#84BE84" rx="3" ry="3" style="stroke:#038048;stroke-width:1.0;"/><text fill="#000000" font-family="sans-serif" font-size="14" lengthAdjust="spacing" textLength="393" x="1277.77" y="841.752">NewQueryBuilder(ctx context.Context) interfaces.IQueryBuilder</text><line style="stroke:#181818;stroke-width:1.0;" x1="1258.77" x2="2171.77" y1="848.8281" y2="848.8281"/><ellipse cx="1268.77" cy="859.8281" fill="#84BE84" rx="3" ry="3" style="stroke:#038048;stroke-width:1.0;"/><text fill="#000000" font-family="sans-serif" font-size="14" lengthAdjust="spacing" textLength="383" x="1277.77" y="867.3613">GetById(ctx context.Context, id uuid.UUID) (EntityType, error)</text><line style="stroke:#181818;stroke-width:1.0;" x1="1258.77" x2="2171.77" y1="874.4375" y2="874.4375"/><ellipse cx="1268.77" cy="885.4375" fill="#84BE84" rx="3" ry="3" style="stroke:#038048;stroke-width:1.0;"/><text fill="#000000" font-family="sans-serif" font-size="14" lengthAdjust="spacing" textLength="406" x="1277.77" y="892.9707">Update(ctx context.Context, entity EntityType) (EntityType, error)</text><line style="stroke:#181818;stroke-width:1.0;" x1="1258.77" x2="2171.77" y1="900.0469" y2="900.0469"/><ellipse cx="1268.77" cy="911.0469" fill="#84BE84" rx="3" ry="3" style="stroke:#038048;stroke-width:1.0;"/><text fill="#000000" font-family="sans-serif" font-size="14" lengthAdjust="spacing" textLength="396" x="1277.77" y="918.5801">Insert(ctx context.Context, entity EntityType) (EntityType, error)</text><line style="stroke:#181818;stroke-width:1.0;" x1="1258.77" x2="2171.77" y1="925.6563" y2="925.6563"/><ellipse cx="1268.77" cy="936.6563" fill="#84BE84" rx="3" ry="3" style="stroke:#038048;stroke-width:1.0;"/><text fill="#000000" font-family="sans-serif" font-size="14" lengthAdjust="spacing" textLength="289" x="1277.77" y="944.1895">Delete(ctx context.Context, id uuid.UUID) error</text><line style="stroke:#181818;stroke-width:1.0;" x1="1258.77" x2="2171.77" y1="951.2656" y2="951.2656"/><ellipse cx="1268.77" cy="962.2656" fill="#84BE84" rx="3" ry="3" style="stroke:#038048;stroke-width:1.0;"/><text fill="#000000" font-family="sans-serif" font-size="14" lengthAdjust="spacing" textLength="99" x="1277.77" y="969.7988">CloseDb() error</text></g><path d="M879.77,713 L879.77,739.3516 A0,0 0 0 0 879.77,739.3516 L1173.77,739.3516 A0,0 0 0 0 1173.77,739.3516 L1173.77,731 L1261.77,784.8047 L1173.77,723 L1173.77,723 L1163.77,713 L879.77,713 A0,0 0 0 0 879.77,713 " fill="#FEFFDD" style="stroke:#181818;stroke-width:0.5;"/><path d="M1163.77,713 L1163.77,723 L1173.77,723 L1163.77,713 " fill="#FEFFDD" style="stroke:#181818;stroke-width:0.5;"/><text fill="#000000" font-family="sans-serif" font-size="13" lengthAdjust="spacing" textLength="273" x="885.77" y="731.4951">Get list of elements with filtering and pagination</text><path d="M879.77,749.3516 L879.77,775.7031 A0,0 0 0 0 879.77,775.7031 L1089.77,775.7031 A0,0 0 0 0 1089.77,775.7031 L1089.77,767.3516 L1261.77,810.4141 L1089.77,759.3516 L1089.77,759.3516 L1079.77,749.3516 L879.77,749.3516 A0,0 0 0 0 879.77,749.3516 " fill="#FEFFDD" style="stroke:#181818;stroke-width:0.5;"/><path d="M1079.77,749.3516 L1079.77,759.3516 L1089.77,759.3516 L1079.77,749.3516 " fill="#FEFFDD" style="stroke:#181818;stroke-width:0.5;"/><text fill="#000000" font-family="sans-serif" font-size="13" lengthAdjust="spacing" textLength="189" x="885.77" y="767.8467">Get count of entities with filtering</text><path d="M879.77,785.7031 L879.77,812.0547 A0,0 0 0 0 879.77,812.0547 L1115.77,812.0547 A0,0 0 0 0 1115.77,812.0547 L1115.77,803.7031 L1261.77,836.0234 L1115.77,795.7031 L1115.77,795.7031 L1105.77,785.7031 L879.77,785.7031 A0,0 0 0 0 879.77,785.7031 " fill="#FEFFDD" style="stroke:#181818;stroke-width:0.5;"/><path d="M1105.77,785.7031 L1105.77,795.7031 L1115.77,795.7031 L1105.77,785.7031 " fill="#FEFFDD" style="stroke:#181818;stroke-width:0.5;"/><text fill="#000000" font-family="sans-serif" font-size="13" lengthAdjust="spacing" textLength="215" x="885.77" y="804.1982">Get new instance of the query builder</text><path d="M879.77,822.0547 L879.77,848.4063 A0,0 0 0 0 879.77,848.4063 L1081.77,848.4063 A0,0 0 0 0 1081.77,848.4063 L1081.77,840.0547 L1261.77,861.6328 L1081.77,832.0547 L1081.77,832.0547 L1071.77,822.0547 L879.77,822.0547 A0,0 0 0 0 879.77,822.0547 " fill="#FEFFDD" style="stroke:#181818;stroke-width:0.5;"/><path d="M1071.77,822.0547 L1071.77,832.0547 L1081.77,832.0547 L1071.77,822.0547 " fill="#FEFFDD" style="stroke:#181818;stroke-width:0.5;"/><text fill="#000000" font-family="sans-serif" font-size="13" lengthAdjust="spacing" textLength="181" x="885.77" y="840.5498">Get entity by ID from repository</text><path d="M879.77,858.4063 L879.77,884.7578 A0,0 0 0 0 879.77,884.7578 L1222.77,884.7578 A0,0 0 0 0 1222.77,884.7578 L1222.77,876.4063 L1261.77,887.2422 L1222.77,868.4063 L1222.77,868.4063 L1212.77,858.4063 L879.77,858.4063 A0,0 0 0 0 879.77,858.4063 " fill="#FEFFDD" style="stroke:#181818;stroke-width:0.5;"/><path d="M1212.77,858.4063 L1212.77,868.4063 L1222.77,868.4063 L1212.77,858.4063 " fill="#FEFFDD" style="stroke:#181818;stroke-width:0.5;"/><text fill="#000000" font-family="sans-serif" font-size="13" lengthAdjust="spacing" textLength="322" x="885.77" y="876.9014">Save the changes to the existing entity in the repository</text><path d="M879.77,894.7578 L879.77,921.1094 A0,0 0 0 0 879.77,921.1094 L1057.77,921.1094 A0,0 0 0 0 1057.77,921.1094 L1057.77,912.7578 L1261.77,912.8516 L1057.77,904.7578 L1057.77,904.7578 L1047.77,894.7578 L879.77,894.7578 A0,0 0 0 0 879.77,894.7578 " fill="#FEFFDD" style="stroke:#181818;stroke-width:0.5;"/><path d="M1047.77,894.7578 L1047.77,904.7578 L1057.77,904.7578 L1047.77,894.7578 " fill="#FEFFDD" style="stroke:#181818;stroke-width:0.5;"/><text fill="#000000" font-family="sans-serif" font-size="13" lengthAdjust="spacing" textLength="157" x="885.77" y="913.2529">Add entity to the repository</text><path d="M879.77,931.1094 L879.77,957.4609 A0,0 0 0 0 879.77,957.4609 L1081.77,957.4609 A0,0 0 0 0 1081.77,957.4609 L1081.77,949.1094 L1261.77,938.4609 L1081.77,941.1094 L1081.77,941.1094 L1071.77,931.1094 L879.77,931.1094 A0,0 0 0 0 879.77,931.1094 " fill="#FEFFDD" style="stroke:#181818;stroke-width:0.5;"/><path d="M1071.77,931.1094 L1071.77,941.1094 L1081.77,941.1094 L1071.77,931.1094 " fill="#FEFFDD" style="stroke:#181818;stroke-width:0.5;"/><text fill="#000000" font-family="sans-serif" font-size="13" lengthAdjust="spacing" textLength="181" x="885.77" y="949.6045">Delete entity from the database</text><path d="M879.77,967.4609 L879.77,993.8125 A0,0 0 0 0 879.77,993.8125 L1108.77,993.8125 A0,0 0 0 0 1108.77,993.8125 L1108.77,985.4609 L1261.77,964.0703 L1108.77,977.4609 L1108.77,977.4609 L1098.77,967.4609 L879.77,967.4609 A0,0 0 0 0 879.77,967.4609 " fill="#FEFFDD" style="stroke:#181818;stroke-width:0.5;"/><path d="M1098.77,967.4609 L1098.77,977.4609 L1108.77,977.4609 L1098.77,967.4609 " fill="#FEFFDD" style="stroke:#181818;stroke-width:0.5;"/><text fill="#000000" font-family="sans-serif" font-size="13" lengthAdjust="spacing" textLength="208" x="885.77" y="985.9561">Closes current database connection</text><!--MD5=[deabb3312e0d912c67ee19f7c61ba907]
class IDHCP4ServerFactory--><g id="elem_IDHCP4ServerFactory"><rect codeLine="3" fill="#F1F1F1" height="65.6094" id="IDHCP4ServerFactory" rx="2.5" ry="2.5" style="stroke:#181818;stroke-width:0.5;" width="468" x="376.27" y="825.5"/><ellipse cx="536.02" cy="841.5" fill="#B4A7E5" rx="11" ry="11" style="stroke:#181818;stroke-width:1.0;"/><path d="M536.9731,838.1406 L536.9731,844.7969 L538.6919,844.7969 Q539.3013,844.7969 539.5669,845.0313 Q539.8325,845.2656 539.8325,845.6563 Q539.8325,846.0313 539.5669,846.2656 Q539.3013,846.5 538.6919,846.5 L533.5513,846.5 Q532.9419,846.5 532.6763,846.2656 Q532.4106,846.0313 532.4106,845.6406 Q532.4106,845.2656 532.6763,845.0313 Q532.9419,844.7969 533.5513,844.7969 L535.27,844.7969 L535.27,838.1406 L533.5513,838.1406 Q532.9419,838.1406 532.6763,837.9063 Q532.4106,837.6719 532.4106,837.2813 Q532.4106,836.9063 532.6763,836.6719 Q532.9419,836.4375 533.5513,836.4375 L538.6919,836.4375 Q539.3013,836.4375 539.5669,836.6719 Q539.8325,836.9063 539.8325,837.2813 Q539.8325,837.6719 539.5669,837.9063 Q539.3013,838.1406 538.6919,838.1406 L536.9731,838.1406 Z " fill="#000000"/><text fill="#000000" font-family="sans-serif" font-size="14" font-style="italic" lengthAdjust="spacing" textLength="140" x="556.52" y="847.2285">IDHCP4ServerFactory</text><line style="stroke:#181818;stroke-width:0.5;" x1="377.27" x2="843.27" y1="857.5" y2="857.5"/><line style="stroke:#181818;stroke-width:0.5;" x1="377.27" x2="843.27" y1="865.5" y2="865.5"/><ellipse cx="387.27" cy="876.5" fill="#84BE84" rx="3" ry="3" style="stroke:#038048;stroke-width:1.0;"/><text fill="#000000" font-family="sans-serif" font-size="14" lengthAdjust="spacing" textLength="442" x="396.27" y="884.0332">Create(config domain.DHCP4Config) (interfaces.IDHCP4Server, error)</text></g><path d="M141.27,840.5 L141.27,866.8516 A0,0 0 0 0 141.27,866.8516 L341.27,866.8516 A0,0 0 0 0 341.27,866.8516 L341.27,858.5 L380.27,878.3047 L341.27,850.5 L341.27,850.5 L331.27,840.5 L141.27,840.5 A0,0 0 0 0 141.27,840.5 " fill="#FEFFDD" style="stroke:#181818;stroke-width:0.5;"/><path d="M331.27,840.5 L331.27,850.5 L341.27,850.5 L331.27,840.5 " fill="#FEFFDD" style="stroke:#181818;stroke-width:0.5;"/><text fill="#000000" font-family="sans-serif" font-size="13" lengthAdjust="spacing" textLength="179" x="147.27" y="858.9951">Create runtime DHCP v4 server</text><!--MD5=[66e4b79b8d04b3d0de0fbe34cd813b9a]
class IDHCP4Server--><g id="elem_IDHCP4Server"><rect codeLine="5" fill="#F1F1F1" height="134.4375" id="IDHCP4Server" rx="2.5" ry="2.5" style="stroke:#181818;stroke-width:0.5;" width="419" x="493.77" y="1069.5"/><ellipse cx="653.02" cy="1085.5" fill="#B4A7E5" rx="11" ry="11" style="stroke:#181818;stroke-width:1.0;"/><path d="M653.9731,1082.1406 L653.9731,1088.7969 L655.6919,1088.7969 Q656.3013,1088.7969 656.5669,1089.0313 Q656.8325,1089.2656 656.8325,1089.6563 Q656.8325,1090.0313 656.5669,1090.2656 Q656.3013,1090.5 655.6919,1090.5 L650.5513,1090.5 Q649.9419,1090.5 649.6763,1090.2656 Q649.4106,1090.0313 649.4106,1089.6406 Q649.4106,1089.2656 649.6763,1089.0313 Q649.9419,1088.7969 650.5513,1088.7969 L652.27,1088.7969 L652.27,1082.1406 L650.5513,1082.1406 Q649.9419,1082.1406 649.6763,1081.9063 Q649.4106,1081.6719 649.4106,1081.2813 Q649.4106,1080.9063 649.6763,1080.6719 Q649.9419,1080.4375 650.5513,1080.4375 L655.6919,1080.4375 Q656.3013,1080.4375 656.5669,1080.6719 Q656.8325,1080.9063 656.8325,1081.2813 Q656.8325,1081.6719 656.5669,1081.9063 Q656.3013,1082.1406 655.6919,1082.1406 L653.9731,1082.1406 Z " fill="#000000"/><text fill="#000000" font-family="sans-serif" font-size="14" font-style="italic" lengthAdjust="spacing" textLength="92" x="673.52" y="1091.2285">IDHCP4Server</text><line style="stroke:#181818;stroke-width:0.5;" x1="494.77" x2="911.77" y1="1101.5" y2="1101.5"/><ellipse cx="504.77" cy="1112.5" fill="#84BE84" rx="3" ry="3" style="stroke:#038048;stroke-width:1.0;"/><text fill="#000000" font-family="sans-serif" font-size="14" lengthAdjust="spacing" textLength="393" x="513.77" y="1120.0332">ReloadConfiguration(dhcp4config domain.DHCP4Config) error</text><line style="stroke:#181818;stroke-width:1.0;" x1="494.77" x2="911.77" y1="1127.1094" y2="1127.1094"/><ellipse cx="504.77" cy="1138.1094" fill="#84BE84" rx="3" ry="3" style="stroke:#038048;stroke-width:1.0;"/><text fill="#000000" font-family="sans-serif" font-size="14" lengthAdjust="spacing" textLength="75" x="513.77" y="1145.6426">Start() error</text><line style="stroke:#181818;stroke-width:1.0;" x1="494.77" x2="911.77" y1="1152.7188" y2="1152.7188"/><ellipse cx="504.77" cy="1163.7188" fill="#84BE84" rx="3" ry="3" style="stroke:#038048;stroke-width:1.0;"/><text fill="#000000" font-family="sans-serif" font-size="14" lengthAdjust="spacing" textLength="39" x="513.77" y="1171.252">Stop()</text><line style="stroke:#181818;stroke-width:1.0;" x1="494.77" x2="911.77" y1="1178.3281" y2="1178.3281"/><ellipse cx="504.77" cy="1189.3281" fill="#84BE84" rx="3" ry="3" style="stroke:#038048;stroke-width:1.0;"/><text fill="#000000" font-family="sans-serif" font-size="14" lengthAdjust="spacing" textLength="241" x="513.77" y="1196.8613">GetState() domain.DHCP4ServerState</text></g><path d="M141.77,1064 L141.77,1090.3516 A0,0 0 0 0 141.77,1090.3516 L458.77,1090.3516 A0,0 0 0 0 458.77,1090.3516 L458.77,1082 L497.77,1114.3047 L458.77,1074 L458.77,1074 L448.77,1064 L141.77,1064 A0,0 0 0 0 141.77,1064 " fill="#FEFFDD" style="stroke:#181818;stroke-width:0.5;"/><path d="M448.77,1064 L448.77,1074 L458.77,1074 L448.77,1064 " fill="#FEFFDD" style="stroke:#181818;stroke-width:0.5;"/><text fill="#000000" font-family="sans-serif" font-size="13" lengthAdjust="spacing" textLength="296" x="147.77" y="1082.4951">Reload configuration for DHCP v4 server from config</text><path d="M141.77,1100.3516 L141.77,1126.7031 A0,0 0 0 0 141.77,1126.7031 L284.77,1126.7031 A0,0 0 0 0 284.77,1126.7031 L284.77,1118.3516 L497.77,1139.9141 L284.77,1110.3516 L284.77,1110.3516 L274.77,1100.3516 L141.77,1100.3516 A0,0 0 0 0 141.77,1100.3516 " fill="#FEFFDD" style="stroke:#181818;stroke-width:0.5;"/><path d="M274.77,1100.3516 L274.77,1110.3516 L284.77,1110.3516 L274.77,1100.3516 " fill="#FEFFDD" style="stroke:#181818;stroke-width:0.5;"/><text fill="#000000" font-family="sans-serif" font-size="13" lengthAdjust="spacing" textLength="122" x="147.77" y="1118.8467">Start DHCP v4 server</text><path d="M141.77,1136.7031 L141.77,1163.0547 A0,0 0 0 0 141.77,1163.0547 L283.77,1163.0547 A0,0 0 0 0 283.77,1163.0547 L283.77,1154.7031 L497.77,1165.5234 L283.77,1146.7031 L283.77,1146.7031 L273.77,1136.7031 L141.77,1136.7031 A0,0 0 0 0 141.77,1136.7031 " fill="#FEFFDD" style="stroke:#181818;stroke-width:0.5;"/><path d="M273.77,1136.7031 L273.77,1146.7031 L283.77,1146.7031 L273.77,1136.7031 " fill="#FEFFDD" style="stroke:#181818;stroke-width:0.5;"/><text fill="#000000" font-family="sans-serif" font-size="13" lengthAdjust="spacing" textLength="121" x="147.77" y="1155.1982">Stop DHCP v4 server</text><path d="M141.77,1173.0547 L141.77,1199.4063 A0,0 0 0 0 141.77,1199.4063 L368.77,1199.4063 A0,0 0 0 0 368.77,1199.4063 L368.77,1191.0547 L497.77,1191.1328 L368.77,1183.0547 L368.77,1183.0547 L358.77,1173.0547 L141.77,1173.0547 A0,0 0 0 0 141.77,1173.0547 " fill="#FEFFDD" style="stroke:#181818;stroke-width:0.5;"/><path d="M358.77,1173.0547 L358.77,1183.0547 L368.77,1183.0547 L358.77,1173.0547 " fill="#FEFFDD" style="stroke:#181818;stroke-width:0.5;"/><text fill="#000000" font-family="sans-serif" font-size="13" lengthAdjust="spacing" textLength="206" x="147.77" y="1191.5498">Get current state of DHCP v4 server</text><!--MD5=[be996cdb8e6bf2fc7cb89c555f2cd144]
class Entity--><g id="elem_Entity"><rect codeLine="5" fill="#F1F1F1" height="134.4375" id="Entity" rx="2.5" ry="2.5" style="stroke:#181818;stroke-width:0.5;" width="283" x="1935.77" y="395"/><ellipse cx="2055.52" cy="411" fill="#ADD1B2" rx="11" ry="11" style="stroke:#181818;stroke-width:1.0;"/><path d="M2058.2856,406.875 Q2058.4419,406.6563 2058.6294,406.5469 Q2058.8169,406.4375 2059.0356,406.4375 Q2059.4106,406.4375 2059.645,406.7031 Q2059.8794,406.9531 2059.8794,407.5625 L2059.8794,409.0156 Q2059.8794,409.625 2059.645,409.8906 Q2059.4106,410.1563 2059.0356,410.1563 Q2058.6919,410.1563 2058.4888,409.9531 Q2058.2856,409.7656 2058.1763,409.25 Q2058.1294,408.8906 2057.9419,408.7031 Q2057.6138,408.3281 2057.0044,408.1094 Q2056.395,407.8906 2055.77,407.8906 Q2055.0044,407.8906 2054.3638,408.2188 Q2053.7388,408.5469 2053.2388,409.2969 Q2052.7544,410.0469 2052.7544,411.0781 L2052.7544,412.1719 Q2052.7544,413.4063 2053.645,414.2344 Q2054.5356,415.0469 2056.1294,415.0469 Q2057.0669,415.0469 2057.7231,414.7969 Q2058.1138,414.6406 2058.5356,414.2031 Q2058.8013,413.9375 2058.9419,413.8594 Q2059.0981,413.7813 2059.3013,413.7813 Q2059.6294,413.7813 2059.8794,414.0469 Q2060.145,414.2969 2060.145,414.6406 Q2060.145,414.9844 2059.8013,415.3906 Q2059.3013,415.9688 2058.5044,416.2969 Q2057.4263,416.75 2056.1294,416.75 Q2054.6138,416.75 2053.4106,416.125 Q2052.4263,415.625 2051.7388,414.5625 Q2051.0513,413.4844 2051.0513,412.2031 L2051.0513,411.0469 Q2051.0513,409.7188 2051.6606,408.5781 Q2052.2856,407.4219 2053.3794,406.8125 Q2054.4731,406.1875 2055.7075,406.1875 Q2056.4419,406.1875 2057.0825,406.3594 Q2057.7388,406.5156 2058.2856,406.875 Z " fill="#000000"/><text fill="#000000" font-family="sans-serif" font-size="14" lengthAdjust="spacing" textLength="35" x="2076.02" y="416.7285">Entity</text><line style="stroke:#181818;stroke-width:0.5;" x1="1936.77" x2="2217.77" y1="427" y2="427"/><ellipse cx="1946.77" cy="438" fill="none" rx="3" ry="3" style="stroke:#038048;stroke-width:1.0;"/><text fill="#000000" font-family="sans-serif" font-size="14" lengthAdjust="spacing" textLength="208" x="1955.77" y="445.5332">ID uuid.UUID `gorm:"primarykey"`</text><line style="stroke:#181818;stroke-width:1.0;" x1="1936.77" x2="2217.77" y1="452.6094" y2="452.6094"/><ellipse cx="1946.77" cy="463.6094" fill="none" rx="3" ry="3" style="stroke:#038048;stroke-width:1.0;"/><text fill="#000000" font-family="sans-serif" font-size="14" lengthAdjust="spacing" textLength="222" x="1955.77" y="471.1426">CreatedAt time.Time `gorm:"index"`</text><line style="stroke:#181818;stroke-width:1.0;" x1="1936.77" x2="2217.77" y1="478.2188" y2="478.2188"/><ellipse cx="1946.77" cy="489.2188" fill="none" rx="3" ry="3" style="stroke:#038048;stroke-width:1.0;"/><text fill="#000000" font-family="sans-serif" font-size="14" lengthAdjust="spacing" textLength="224" x="1955.77" y="496.752">UpdatedAt time.Time `gorm:"index"`</text><line style="stroke:#181818;stroke-width:1.0;" x1="1936.77" x2="2217.77" y1="503.8281" y2="503.8281"/><ellipse cx="1946.77" cy="514.8281" fill="none" rx="3" ry="3" style="stroke:#038048;stroke-width:1.0;"/><text fill="#000000" font-family="sans-serif" font-size="14" lengthAdjust="spacing" textLength="257" x="1955.77" y="522.3613">DeletedAt gorm.DeletedAt `gorm:"index"`</text></g><!--MD5=[f0474206043373679905908f8f9685bc]
class DHCP4Lease--><g id="elem_DHCP4Lease"><rect codeLine="4" fill="#F1F1F1" height="134.4375" id="DHCP4Lease" rx="2.5" ry="2.5" style="stroke:#181818;stroke-width:0.5;" width="192" x="2027.27" y="188"/><ellipse cx="2076.52" cy="204" fill="#ADD1B2" rx="11" ry="11" style="stroke:#181818;stroke-width:1.0;"/><path d="M2079.2856,199.875 Q2079.4419,199.6563 2079.6294,199.5469 Q2079.8169,199.4375 2080.0356,199.4375 Q2080.4106,199.4375 2080.645,199.7031 Q2080.8794,199.9531 2080.8794,200.5625 L2080.8794,202.0156 Q2080.8794,202.625 2080.645,202.8906 Q2080.4106,203.1563 2080.0356,203.1563 Q2079.6919,203.1563 2079.4888,202.9531 Q2079.2856,202.7656 2079.1763,202.25 Q2079.1294,201.8906 2078.9419,201.7031 Q2078.6138,201.3281 2078.0044,201.1094 Q2077.395,200.8906 2076.77,200.8906 Q2076.0044,200.8906 2075.3638,201.2188 Q2074.7388,201.5469 2074.2388,202.2969 Q2073.7544,203.0469 2073.7544,204.0781 L2073.7544,205.1719 Q2073.7544,206.4063 2074.645,207.2344 Q2075.5356,208.0469 2077.1294,208.0469 Q2078.0669,208.0469 2078.7231,207.7969 Q2079.1138,207.6406 2079.5356,207.2031 Q2079.8013,206.9375 2079.9419,206.8594 Q2080.0981,206.7813 2080.3013,206.7813 Q2080.6294,206.7813 2080.8794,207.0469 Q2081.145,207.2969 2081.145,207.6406 Q2081.145,207.9844 2080.8013,208.3906 Q2080.3013,208.9688 2079.5044,209.2969 Q2078.4263,209.75 2077.1294,209.75 Q2075.6138,209.75 2074.4106,209.125 Q2073.4263,208.625 2072.7388,207.5625 Q2072.0513,206.4844 2072.0513,205.2031 L2072.0513,204.0469 Q2072.0513,202.7188 2072.6606,201.5781 Q2073.2856,200.4219 2074.3794,199.8125 Q2075.4731,199.1875 2076.7075,199.1875 Q2077.4419,199.1875 2078.0825,199.3594 Q2078.7388,199.5156 2079.2856,199.875 Z " fill="#000000"/><text fill="#000000" font-family="sans-serif" font-size="14" lengthAdjust="spacing" textLength="85" x="2097.02" y="209.7285">DHCP4Lease</text><line style="stroke:#181818;stroke-width:0.5;" x1="2028.27" x2="2218.27" y1="220" y2="220"/><ellipse cx="2038.27" cy="231" fill="none" rx="3" ry="3" style="stroke:#038048;stroke-width:1.0;"/><text fill="#000000" font-family="sans-serif" font-size="14" lengthAdjust="spacing" textLength="79" x="2047.27" y="238.5332">ID uuid.UUID</text><line style="stroke:#181818;stroke-width:1.0;" x1="2028.27" x2="2218.27" y1="245.6094" y2="245.6094"/><ellipse cx="2038.27" cy="256.6094" fill="none" rx="3" ry="3" style="stroke:#038048;stroke-width:1.0;"/><text fill="#000000" font-family="sans-serif" font-size="14" lengthAdjust="spacing" textLength="166" x="2047.27" y="264.1426">DHCP4ConfigID uuid.UUID</text><line style="stroke:#181818;stroke-width:1.0;" x1="2028.27" x2="2218.27" y1="271.2188" y2="271.2188"/><ellipse cx="2038.27" cy="282.2188" fill="none" rx="3" ry="3" style="stroke:#038048;stroke-width:1.0;"/><text fill="#000000" font-family="sans-serif" font-size="14" lengthAdjust="spacing" textLength="51" x="2047.27" y="289.752">IP string</text><line style="stroke:#181818;stroke-width:1.0;" x1="2028.27" x2="2218.27" y1="296.8281" y2="296.8281"/><ellipse cx="2038.27" cy="307.8281" fill="none" rx="3" ry="3" style="stroke:#038048;stroke-width:1.0;"/><text fill="#000000" font-family="sans-serif" font-size="14" lengthAdjust="spacing" textLength="69" x="2047.27" y="315.3613">MAC string</text></g><!--MD5=[4e6a87af6da6e423968b760502e86650]
class DHCPServerState--><g id="elem_DHCPServerState"><rect codeLine="3" fill="#F1F1F1" height="160.0469" id="DHCPServerState" rx="2.5" ry="2.5" style="stroke:#181818;stroke-width:0.5;" width="146" x="1846.27" y="175"/><ellipse cx="1861.72" cy="191" fill="#EB937F" rx="11" ry="11" style="stroke:#181818;stroke-width:1.0;"/><path d="M1860.5794,191.7969 L1860.5794,194.2969 L1864.9075,194.2969 L1864.9075,193.375 Q1864.9075,192.7656 1865.1419,192.5 Q1865.3919,192.2344 1865.7669,192.2344 Q1866.1419,192.2344 1866.3763,192.5 Q1866.6106,192.7656 1866.6106,193.375 L1866.6106,196 L1858.6106,196 Q1857.9856,196 1857.72,195.7656 Q1857.47,195.5313 1857.47,195.1406 Q1857.47,194.7656 1857.7356,194.5313 Q1858.0013,194.2969 1858.6106,194.2969 L1858.8763,194.2969 L1858.8763,187.6406 L1858.6106,187.6406 Q1857.9856,187.6406 1857.72,187.4063 Q1857.47,187.1719 1857.47,186.7813 Q1857.47,186.4063 1857.72,186.1719 Q1857.9856,185.9375 1858.6106,185.9375 L1866.2356,185.9375 L1866.2356,188.5313 Q1866.2356,189.1406 1866.0013,189.4063 Q1865.7825,189.6563 1865.3919,189.6563 Q1865.0169,189.6563 1864.7825,189.4063 Q1864.5481,189.1406 1864.5481,188.5313 L1864.5481,187.6406 L1860.5794,187.6406 L1860.5794,190.0938 L1862.0638,190.0938 Q1862.0638,189.4375 1862.1888,189.25 Q1862.4544,188.8438 1862.9231,188.8438 Q1863.2981,188.8438 1863.5325,189.1094 Q1863.7669,189.3594 1863.7669,189.9688 L1863.7669,191.9375 Q1863.7669,192.4844 1863.6419,192.6719 Q1863.3763,193.0625 1862.9231,193.0625 Q1862.4544,193.0625 1862.1888,192.6563 Q1862.0638,192.4688 1862.0638,191.7969 L1860.5794,191.7969 Z " fill="#000000"/><text fill="#000000" font-family="sans-serif" font-size="14" lengthAdjust="spacing" textLength="113" x="1875.82" y="196.7285">DHCPServerState</text><line style="stroke:#181818;stroke-width:0.5;" x1="1847.27" x2="1991.27" y1="207" y2="207"/><text fill="#000000" font-family="sans-serif" font-size="14" lengthAdjust="spacing" textLength="134" x="1852.27" y="225.5332">DHCPStateLaunched</text><line style="stroke:#181818;stroke-width:1.0;" x1="1847.27" x2="1991.27" y1="232.6094" y2="232.6094"/><text fill="#000000" font-family="sans-serif" font-size="14" lengthAdjust="spacing" textLength="124" x="1852.27" y="251.1426">DHCPStateStopped</text><line style="stroke:#181818;stroke-width:1.0;" x1="1847.27" x2="1991.27" y1="258.2188" y2="258.2188"/><text fill="#000000" font-family="sans-serif" font-size="14" lengthAdjust="spacing" textLength="103" x="1852.27" y="276.752">DHCPStateError</text><line style="stroke:#181818;stroke-width:1.0;" x1="1847.27" x2="1991.27" y1="283.8281" y2="283.8281"/><text fill="#000000" font-family="sans-serif" font-size="14" lengthAdjust="spacing" textLength="104" x="1852.27" y="302.3613">DHCPStateNone</text><line style="stroke:#181818;stroke-width:1.0;" x1="1847.27" x2="1991.27" y1="309.4375" y2="309.4375"/><ellipse cx="1857.27" cy="320.4375" fill="#84BE84" rx="3" ry="3" style="stroke:#038048;stroke-width:1.0;"/><text fill="#000000" font-family="sans-serif" font-size="14" lengthAdjust="spacing" textLength="64" x="1866.27" y="327.9707">ToString()</text></g><!--MD5=[27abfb56f32eefa7f07c83348fb1ee32]
class GormGenericRepository--><g id="elem_GormGenericRepository"><rect codeLine="5" fill="#F1F1F1" height="48" id="GormGenericRepository" rx="2.5" ry="2.5" style="stroke:#181818;stroke-width:0.5;" width="246" x="1290.27" y="589"/><ellipse cx="1305.27" cy="605" fill="#ADD1B2" rx="11" ry="11" style="stroke:#181818;stroke-width:1.0;"/><path d="M1308.0356,600.875 Q1308.1919,600.6563 1308.3794,600.5469 Q1308.5669,600.4375 1308.7856,600.4375 Q1309.1606,600.4375 1309.395,600.7031 Q1309.6294,600.9531 1309.6294,601.5625 L1309.6294,603.0156 Q1309.6294,603.625 1309.395,603.8906 Q1309.1606,604.1563 1308.7856,604.1563 Q1308.4419,604.1563 1308.2388,603.9531 Q1308.0356,603.7656 1307.9263,603.25 Q1307.8794,602.8906 1307.6919,602.7031 Q1307.3638,602.3281 1306.7544,602.1094 Q1306.145,601.8906 1305.52,601.8906 Q1304.7544,601.8906 1304.1138,602.2188 Q1303.4888,602.5469 1302.9888,603.2969 Q1302.5044,604.0469 1302.5044,605.0781 L1302.5044,606.1719 Q1302.5044,607.4063 1303.395,608.2344 Q1304.2856,609.0469 1305.8794,609.0469 Q1306.8169,609.0469 1307.4731,608.7969 Q1307.8638,608.6406 1308.2856,608.2031 Q1308.5513,607.9375 1308.6919,607.8594 Q1308.8481,607.7813 1309.0513,607.7813 Q1309.3794,607.7813 1309.6294,608.0469 Q1309.895,608.2969 1309.895,608.6406 Q1309.895,608.9844 1309.5513,609.3906 Q1309.0513,609.9688 1308.2544,610.2969 Q1307.1763,610.75 1305.8794,610.75 Q1304.3638,610.75 1303.1606,610.125 Q1302.1763,609.625 1301.4888,608.5625 Q1300.8013,607.4844 1300.8013,606.2031 L1300.8013,605.0469 Q1300.8013,603.7188 1301.4106,602.5781 Q1302.0356,601.4219 1303.1294,600.8125 Q1304.2231,600.1875 1305.4575,600.1875 Q1306.1919,600.1875 1306.8325,600.3594 Q1307.4888,600.5156 1308.0356,600.875 Z " fill="#000000"/><text fill="#000000" font-family="sans-serif" font-size="14" lengthAdjust="spacing" textLength="153" x="1319.27" y="610.7285">GormGenericRepository</text><rect fill="#FFFFFF" height="17.0938" style="stroke:#000000;stroke-width:1.0;stroke-dasharray:2.0,2.0;" width="59" x="1480.27" y="586"/><text fill="#000000" font-family="sans-serif" font-size="12" font-style="italic" lengthAdjust="spacing" textLength="57" x="1481.27" y="599.457">EntityType</text><line style="stroke:#181818;stroke-width:0.5;" x1="1291.27" x2="1535.27" y1="621" y2="621"/><line style="stroke:#181818;stroke-width:0.5;" x1="1291.27" x2="1535.27" y1="629" y2="629"/></g><!--MD5=[0cbfc2deb107b13f52db89da1bac989a]
class DHCP4LeaseRepository--><g id="elem_DHCP4LeaseRepository"><rect codeLine="5" fill="#F1F1F1" height="48" id="DHCP4LeaseRepository" rx="2.5" ry="2.5" style="stroke:#181818;stroke-width:0.5;" width="185" x="1223.77" y="231"/><ellipse cx="1238.77" cy="247" fill="#ADD1B2" rx="11" ry="11" style="stroke:#181818;stroke-width:1.0;"/><path d="M1241.5356,242.875 Q1241.6919,242.6563 1241.8794,242.5469 Q1242.0669,242.4375 1242.2856,242.4375 Q1242.6606,242.4375 1242.895,242.7031 Q1243.1294,242.9531 1243.1294,243.5625 L1243.1294,245.0156 Q1243.1294,245.625 1242.895,245.8906 Q1242.6606,246.1563 1242.2856,246.1563 Q1241.9419,246.1563 1241.7388,245.9531 Q1241.5356,245.7656 1241.4263,245.25 Q1241.3794,244.8906 1241.1919,244.7031 Q1240.8638,244.3281 1240.2544,244.1094 Q1239.645,243.8906 1239.02,243.8906 Q1238.2544,243.8906 1237.6138,244.2188 Q1236.9888,244.5469 1236.4888,245.2969 Q1236.0044,246.0469 1236.0044,247.0781 L1236.0044,248.1719 Q1236.0044,249.4063 1236.895,250.2344 Q1237.7856,251.0469 1239.3794,251.0469 Q1240.3169,251.0469 1240.9731,250.7969 Q1241.3638,250.6406 1241.7856,250.2031 Q1242.0513,249.9375 1242.1919,249.8594 Q1242.3481,249.7813 1242.5513,249.7813 Q1242.8794,249.7813 1243.1294,250.0469 Q1243.395,250.2969 1243.395,250.6406 Q1243.395,250.9844 1243.0513,251.3906 Q1242.5513,251.9688 1241.7544,252.2969 Q1240.6763,252.75 1239.3794,252.75 Q1237.8638,252.75 1236.6606,252.125 Q1235.6763,251.625 1234.9888,250.5625 Q1234.3013,249.4844 1234.3013,248.2031 L1234.3013,247.0469 Q1234.3013,245.7188 1234.9106,244.5781 Q1235.5356,243.4219 1236.6294,242.8125 Q1237.7231,242.1875 1238.9575,242.1875 Q1239.6919,242.1875 1240.3325,242.3594 Q1240.9888,242.5156 1241.5356,242.875 Z " fill="#000000"/><text fill="#000000" font-family="sans-serif" font-size="14" lengthAdjust="spacing" textLength="153" x="1252.77" y="252.7285">DHCP4LeaseRepository</text><line style="stroke:#181818;stroke-width:0.5;" x1="1224.77" x2="1407.77" y1="263" y2="263"/><line style="stroke:#181818;stroke-width:0.5;" x1="1224.77" x2="1407.77" y1="271" y2="271"/></g><g id="elem_DHCP4LeaseTypeNote"><path d="M1352.77,449 L1352.77,475.3516 L1531.77,475.3516 L1531.77,459 L1521.77,449 L1352.77,449 " fill="#FEFFDD" style="stroke:#181818;stroke-width:0.5;"/><path d="M1521.77,449 L1521.77,459 L1531.77,459 L1521.77,449 " fill="#FEFFDD" style="stroke:#181818;stroke-width:1.0;"/><text fill="#000000" font-family="sans-serif" font-size="13" lengthAdjust="spacing" textLength="158" x="1358.77" y="467.4951">EntityType is DHCP4Lease</text></g><!--MD5=[717fb05df943bf2d334d1b0e26aa5bcb]
class CoreDHCP4Server--><g id="elem_CoreDHCP4Server"><rect codeLine="7" fill="#F1F1F1" height="48" id="CoreDHCP4Server" rx="2.5" ry="2.5" style="stroke:#181818;stroke-width:0.5;" width="151" x="898.77" y="54.5"/><ellipse cx="913.77" cy="70.5" fill="#ADD1B2" rx="11" ry="11" style="stroke:#181818;stroke-width:1.0;"/><path d="M916.5356,66.375 Q916.6919,66.1563 916.8794,66.0469 Q917.0669,65.9375 917.2856,65.9375 Q917.6606,65.9375 917.895,66.2031 Q918.1294,66.4531 918.1294,67.0625 L918.1294,68.5156 Q918.1294,69.125 917.895,69.3906 Q917.6606,69.6563 917.2856,69.6563 Q916.9419,69.6563 916.7388,69.4531 Q916.5356,69.2656 916.4263,68.75 Q916.3794,68.3906 916.1919,68.2031 Q915.8638,67.8281 915.2544,67.6094 Q914.645,67.3906 914.02,67.3906 Q913.2544,67.3906 912.6138,67.7188 Q911.9888,68.0469 911.4888,68.7969 Q911.0044,69.5469 911.0044,70.5781 L911.0044,71.6719 Q911.0044,72.9063 911.895,73.7344 Q912.7856,74.5469 914.3794,74.5469 Q915.3169,74.5469 915.9731,74.2969 Q916.3638,74.1406 916.7856,73.7031 Q917.0513,73.4375 917.1919,73.3594 Q917.3481,73.2813 917.5513,73.2813 Q917.8794,73.2813 918.1294,73.5469 Q918.395,73.7969 918.395,74.1406 Q918.395,74.4844 918.0513,74.8906 Q917.5513,75.4688 916.7544,75.7969 Q915.6763,76.25 914.3794,76.25 Q912.8638,76.25 911.6606,75.625 Q910.6763,75.125 909.9888,74.0625 Q909.3013,72.9844 909.3013,71.7031 L909.3013,70.5469 Q909.3013,69.2188 909.9106,68.0781 Q910.5356,66.9219 911.6294,66.3125 Q912.7231,65.6875 913.9575,65.6875 Q914.6919,65.6875 915.3325,65.8594 Q915.9888,66.0156 916.5356,66.375 Z " fill="#000000"/><text fill="#000000" font-family="sans-serif" font-size="14" lengthAdjust="spacing" textLength="119" x="927.77" y="76.2285">CoreDHCP4Server</text><line style="stroke:#181818;stroke-width:0.5;" x1="899.77" x2="1048.77" y1="86.5" y2="86.5"/><line style="stroke:#181818;stroke-width:0.5;" x1="899.77" x2="1048.77" y1="94.5" y2="94.5"/></g><!--MD5=[e3fe7e3111a978b7da69f910c3cef502]
class CoreDHCP4ServerFactory--><g id="elem_CoreDHCP4ServerFactory"><rect codeLine="11" fill="#F1F1F1" height="65.6094" id="CoreDHCP4ServerFactory" rx="2.5" ry="2.5" style="stroke:#181818;stroke-width:0.5;" width="435" x="1092.77" y="46"/><ellipse cx="1222.52" cy="62" fill="#ADD1B2" rx="11" ry="11" style="stroke:#181818;stroke-width:1.0;"/><path d="M1225.2856,57.875 Q1225.4419,57.6563 1225.6294,57.5469 Q1225.8169,57.4375 1226.0356,57.4375 Q1226.4106,57.4375 1226.645,57.7031 Q1226.8794,57.9531 1226.8794,58.5625 L1226.8794,60.0156 Q1226.8794,60.625 1226.645,60.8906 Q1226.4106,61.1563 1226.0356,61.1563 Q1225.6919,61.1563 1225.4888,60.9531 Q1225.2856,60.7656 1225.1763,60.25 Q1225.1294,59.8906 1224.9419,59.7031 Q1224.6138,59.3281 1224.0044,59.1094 Q1223.395,58.8906 1222.77,58.8906 Q1222.0044,58.8906 1221.3638,59.2188 Q1220.7388,59.5469 1220.2388,60.2969 Q1219.7544,61.0469 1219.7544,62.0781 L1219.7544,63.1719 Q1219.7544,64.4063 1220.645,65.2344 Q1221.5356,66.0469 1223.1294,66.0469 Q1224.0669,66.0469 1224.7231,65.7969 Q1225.1138,65.6406 1225.5356,65.2031 Q1225.8013,64.9375 1225.9419,64.8594 Q1226.0981,64.7813 1226.3013,64.7813 Q1226.6294,64.7813 1226.8794,65.0469 Q1227.145,65.2969 1227.145,65.6406 Q1227.145,65.9844 1226.8013,66.3906 Q1226.3013,66.9688 1225.5044,67.2969 Q1224.4263,67.75 1223.1294,67.75 Q1221.6138,67.75 1220.4106,67.125 Q1219.4263,66.625 1218.7388,65.5625 Q1218.0513,64.4844 1218.0513,63.2031 L1218.0513,62.0469 Q1218.0513,60.7188 1218.6606,59.5781 Q1219.2856,58.4219 1220.3794,57.8125 Q1221.4731,57.1875 1222.7075,57.1875 Q1223.4419,57.1875 1224.0825,57.3594 Q1224.7388,57.5156 1225.2856,57.875 Z " fill="#000000"/><text fill="#000000" font-family="sans-serif" font-size="14" lengthAdjust="spacing" textLength="167" x="1243.02" y="67.7285">CoreDHCP4ServerFactory</text><line style="stroke:#181818;stroke-width:0.5;" x1="1093.77" x2="1526.77" y1="78" y2="78"/><rect fill="none" height="6" style="stroke:#C82930;stroke-width:1.0;" width="6" x="1100.77" y="86"/><text fill="#000000" font-family="sans-serif" font-size="14" lengthAdjust="spacing" textLength="409" x="1112.77" y="96.5332">leasesRepo interfaces.IGenericRepository[domain.DHCP4Lease]</text><line style="stroke:#181818;stroke-width:0.5;" x1="1093.77" x2="1526.77" y1="103.6094" y2="103.6094"/></g><!--MD5=[a6c7a0eda5b041e127f539f1664bb96a]
link Entity to IEntityModel--><g id="link_Entity_IEntityModel"><path codeLine="14" d="M2115.09,529.18 C2137.63,569.27 2166.39,621.65 2190.27,669 C2213.56,715.18 2238.07,768.81 2255.12,807.03 " fill="none" id="Entity-to-IEntityModel" style="stroke:#181818;stroke-width:1.0;stroke-dasharray:7.0,7.0;"/><polygon fill="none" points="2261.6,804.37,2263.31,825.49,2248.8,810.05,2261.6,804.37" style="stroke:#181818;stroke-width:1.0;"/></g><!--MD5=[d92dbc93b55ca7854669d0d397025348]
link DHCP4Lease to Entity--><g id="link_DHCP4Lease_Entity"><path codeLine="13" d="M2108.4,322.27 C2104.11,341.37 2099.4,362.39 2094.96,382.17 " fill="none" id="DHCP4Lease-to-Entity" style="stroke:#181818;stroke-width:1.0;"/><polygon fill="#181818" points="2092.09,394.95,2097.3106,389.9755,2094.7267,383.2432,2089.5061,388.2177,2092.09,394.95" style="stroke:#181818;stroke-width:1.0;"/></g><!--MD5=[1b84833638557571905b03f54e842c8c]
link GormGenericRepository to IGenericRepository--><g id="link_GormGenericRepository_IGenericRepository"><path codeLine="7" d="M1441.95,637.13 C1468.63,658.64 1510.66,692.52 1553.83,727.33 " fill="none" id="GormGenericRepository-to-IGenericRepository" style="stroke:#181818;stroke-width:1.0;stroke-dasharray:7.0,7.0;"/><polygon fill="none" points="1558.26,721.91,1569.44,739.92,1549.47,732.81,1558.26,721.91" style="stroke:#181818;stroke-width:1.0;"/></g><!--MD5=[3db3bde11458642c09def051ffe38ef2]
link DHCP4LeaseRepository to GormGenericRepository--><g id="link_DHCP4LeaseRepository_GormGenericRepository"><path codeLine="7" d="M1311.57,279.35 C1302.25,331.91 1286.31,462 1335.27,553 C1341,563.65 1349.58,572.94 1358.98,580.81 " fill="none" id="DHCP4LeaseRepository-to-GormGenericRepository" style="stroke:#181818;stroke-width:1.0;"/><polygon fill="#181818" points="1369.41,588.78,1367.0684,581.9597,1359.8721,581.4979,1362.2137,588.3183,1369.41,588.78" style="stroke:#181818;stroke-width:1.0;"/></g><!--MD5=[a0452d32cf71fbb35d6fa743b697c5ad]
link DHCP4LeaseRepository to DHCP4LeaseTypeNote--><g id="link_DHCP4LeaseRepository_DHCP4LeaseTypeNote"><path codeLine="11" d="M1330.48,279.12 C1357.25,322.68 1414.32,415.52 1434.78,448.81 " fill="none" id="DHCP4LeaseRepository-DHCP4LeaseTypeNote" style="stroke:#181818;stroke-width:1.0;stroke-dasharray:7.0,7.0;"/></g><!--MD5=[7add970746c243e5d9117923b7b5e77b]
link DHCP4LeaseTypeNote to GormGenericRepository--><g id="link_DHCP4LeaseTypeNote_GormGenericRepository"><path codeLine="12" d="M1439.9,475.19 C1435.31,498.75 1425.13,551.05 1418.77,583.73 " fill="none" id="DHCP4LeaseTypeNote-to-GormGenericRepository" style="stroke:#181818;stroke-width:1.0;stroke-dasharray:7.0,7.0;"/><polygon fill="#181818" points="1417.79,588.8,1423.4368,580.7307,1418.7459,583.8922,1415.5844,579.2013,1417.79,588.8" style="stroke:#181818;stroke-width:1.0;"/></g><!--MD5=[d04ee9948be0dbd03ed47575f1fdf7fb]
link DHCP4Lease to DHCP4LeaseTypeNote--><g id="link_DHCP4Lease_DHCP4LeaseTypeNote"><path codeLine="13" d="M2035.44,322.15 C2027.16,326.91 2018.71,331.29 2010.27,335 C1921.04,374.23 1643.51,425.92 1512.32,448.99 " fill="none" id="DHCP4Lease-DHCP4LeaseTypeNote" style="stroke:#181818;stroke-width:1.0;stroke-dasharray:7.0,7.0;"/></g><!--MD5=[a2920fbf1852317c794436d0b62dc5c6]
link CoreDHCP4Server to IDHCP4Server--><g id="link_CoreDHCP4Server_IDHCP4Server"><path codeLine="9" d="M898.73,94.99 C684.47,141.09 88.27,285.15 88.27,461 C88.27,461 88.27,461 88.27,614 C88.27,788.07 6,876.28 124.27,1004 C178.18,1062.22 399.14,1045.37 476.27,1064 C476.94,1064.16 477.61,1064.32 478.28,1064.49 " fill="none" id="CoreDHCP4Server-to-IDHCP4Server" style="stroke:#181818;stroke-width:1.0;stroke-dasharray:7.0,7.0;"/><polygon fill="none" points="480.25,1057.76,497.92,1069.46,476.81,1071.34,480.25,1057.76" style="stroke:#181818;stroke-width:1.0;"/></g><!--MD5=[888b508d351a7a9d5d5df721ad3e6496]
link CoreDHCP4ServerFactory to DHCP4LeaseRepository--><g id="link_CoreDHCP4ServerFactory_DHCP4LeaseRepository"><path codeLine="14" d="M1529.27,91.5 C1620.08,91.5 1448.47,186.03 1361.9,230.89 " fill="none" id="CoreDHCP4ServerFactory-DHCP4LeaseRepository" style="stroke:#181818;stroke-width:1.0;"/></g><!--MD5=[7c1ddc885d6a25a21f2faaf3da9d642a]
link CoreDHCP4ServerFactory to IDHCP4ServerFactory--><g id="link_CoreDHCP4ServerFactory_IDHCP4ServerFactory"><path codeLine="15" d="M1229.51,115.12 C1221.36,119.99 1213.45,125.29 1206.27,131 C943.99,339.55 718.91,681.13 640.18,808.01 " fill="none" id="CoreDHCP4ServerFactory-to-IDHCP4ServerFactory" style="stroke:#181818;stroke-width:1.0;stroke-dasharray:7.0,7.0;"/><polygon fill="none" points="646.08,811.77,629.64,825.13,634.16,804.43,646.08,811.77" style="stroke:#181818;stroke-width:1.0;"/></g><!--MD5=[47f7935ec03a67a1d9c2de88e233e278]
link IDHCP4ServerFactory to IDHCP4Server--><!--MD5=[d52136c13de57afd6c1bb92d9b838b8a]
@startuml

!include ../repositories/DHCP4LeaseRepository.puml
!include ../interfaces/IDHCP4ServerFactory.puml
!include ../interfaces/IDHCP4Server.puml

package infrastructure {
    class CoreDHCP4Server {
    }
    CoreDHCP4Server .down.|> IDHCP4Server

    class CoreDHCP4ServerFactory {
        -leasesRepo interfaces.IGenericRepository[domain.DHCP4Lease]
    }
    CoreDHCP4ServerFactory::leasesRepo - - DHCP4LeaseRepository
    CoreDHCP4ServerFactory .down.|> IDHCP4ServerFactory

    IDHCP4ServerFactory .[hidden]down. IDHCP4Server
}

@enduml

@startuml



package app {
    interface IEntityModel {
        +GetID() uuid.UUID
    }
}


package domain {
    class Entity {
        +ID uuid.UUID `gorm:"primarykey"`
        - -
        +CreatedAt time.Time `gorm:"index"`
        - -
        +UpdatedAt time.Time `gorm:"index"`
        - -
        +DeletedAt gorm.DeletedAt `gorm:"index"`
    }
    Entity .down.|> IEntityModel
}


package domain {
    class DHCP4Lease {
        +ID uuid.UUID
        - -
        +DHCP4ConfigID uuid.UUID
        - -
        +IP string
        - -
        +MAC string
    }
    DHCP4Lease -down-* Entity
}



package app {
    interface IGenericRepository<EntityType> {
        +GetList(ctx context.Context, orderBy string, orderDirection string, page int, size int, queryBuilder interfaces.IQueryBuilder) ([]EntityType, error)
        - -
        +Count(ctx context.Context, queryBuilder interfaces.IQueryBuilder) (int64, error)
        - -
        +NewQueryBuilder(ctx context.Context) interfaces.IQueryBuilder
        - -
        +GetById(ctx context.Context, id uuid.UUID) (EntityType, error)
        - -
        +Update(ctx context.Context, entity EntityType) (EntityType, error)
        - -
        +Insert(ctx context.Context, entity EntityType) (EntityType, error)
        - -
        +Delete(ctx context.Context, id uuid.UUID) error
        - -
        +CloseDb() error
    }
    note left of IGenericRepository::GetList
      Get list of elements with filtering and pagination
    end note

    note left of IGenericRepository::Count
      Get count of entities with filtering
    end note

    note left of IGenericRepository::NewQueryBuilder
      Get new instance of the query builder
    end note

    note left of IGenericRepository::GetById
      Get entity by ID from repository
    end note

    note left of IGenericRepository::Update
      Save the changes to the existing entity in the repository
    end note

    note left of IGenericRepository::Insert
      Add entity to the repository
    end note

    note left of IGenericRepository::Delete
      Delete entity from the database
    end note

    note left of IGenericRepository::CloseDb
      Closes current database connection
    end note
}


package infrastructure {
    class GormGenericRepository<EntityType>

    GormGenericRepository .down.|> IGenericRepository
}


package infrastructure {
    class DHCP4LeaseRepository

    DHCP4LeaseRepository -down-* GormGenericRepository

    note "EntityType is DHCP4Lease" as DHCP4LeaseTypeNote

    DHCP4LeaseRepository .down. DHCP4LeaseTypeNote
    GormGenericRepository <.up. DHCP4LeaseTypeNote
    DHCP4Lease .. DHCP4LeaseTypeNote
}


package app {
    interface IDHCP4ServerFactory {
        +Create(config domain.DHCP4Config) (interfaces.IDHCP4Server, error)
    }

    note left of IDHCP4ServerFactory::Create
    Create runtime DHCP v4 server
    end note
}



package domain {
    enum DHCPServerState {
            DHCPStateLaunched
            - -
            DHCPStateStopped
            - -
            DHCPStateError
            - -
            DHCPStateNone
            - -
            +ToString()
    }
}


package app {
    interface IDHCP4Server {
        +ReloadConfiguration(dhcp4config domain.DHCP4Config) error
        - -
        +Start() error
        - -
        +Stop()
        - -
        +GetState() domain.DHCP4ServerState
    }

    note left of IDHCP4Server::ReloadConfiguration
    Reload configuration for DHCP v4 server from config
    end note

    note left of IDHCP4Server::Start
    Start DHCP v4 server
    end note

    note left of IDHCP4Server::Stop
    Stop DHCP v4 server
    end note

    note left of IDHCP4Server::GetState
    Get current state of DHCP v4 server
    end note
}


package infrastructure {
    class CoreDHCP4Server {
    }
    CoreDHCP4Server .down.|> IDHCP4Server

    class CoreDHCP4ServerFactory {
        -leasesRepo interfaces.IGenericRepository[domain.DHCP4Lease]
    }
    CoreDHCP4ServerFactory::leasesRepo - - DHCP4LeaseRepository
    CoreDHCP4ServerFactory .down.|> IDHCP4ServerFactory

    IDHCP4ServerFactory .[hidden]down. IDHCP4Server
}

@enduml

PlantUML version 1.2022.6(Tue Jun 21 20:34:49 MSK 2022)
(GPL source distribution)
Java Runtime: OpenJDK Runtime Environment
JVM: OpenJDK 64-Bit Server VM
Default Encoding: Cp1251
Language: ru
Country: RU
--></g></svg>