<?xml version="1.0" encoding="UTF-8" standalone="no"?><svg xmlns="http://www.w3.org/2000/svg" xmlns:xlink="http://www.w3.org/1999/xlink" contentStyleType="text/css" height="652px" preserveAspectRatio="none" style="width:1161px;height:652px;background:#FFFFFF;" version="1.1" viewBox="0 0 1161 652" width="1161px" zoomAndPan="magnify"><defs/><g><!--MD5=[d5ac3844f66b12d9e08170e47495e096]
cluster app--><g id="cluster_app"><path d="M294.5,484 L321.5,484 A3.75,3.75 0 0 1 324,486.5 L331,507.6094 L1151.5,507.6094 A2.5,2.5 0 0 1 1154,510.1094 L1154,642.5 A2.5,2.5 0 0 1 1151.5,645 L294.5,645 A2.5,2.5 0 0 1 292,642.5 L292,486.5 A2.5,2.5 0 0 1 294.5,484 " style="stroke:#000000;stroke-width:1.5;fill:none;"/><line style="stroke:#000000;stroke-width:1.5;fill:none;" x1="292" x2="331" y1="507.6094" y2="507.6094"/><text fill="#000000" font-family="sans-serif" font-size="14" font-weight="bold" lengthAdjust="spacing" textLength="26" x="296" y="500.5332">app</text></g><!--MD5=[27f772719433d509ddbc20ff768eba08]
cluster domain--><g id="cluster_domain"><path d="M8.5,6 L60.5,6 A3.75,3.75 0 0 1 63,8.5 L70,29.6094 L500.5,29.6094 A2.5,2.5 0 0 1 503,32.1094 L503,457.5 A2.5,2.5 0 0 1 500.5,460 L8.5,460 A2.5,2.5 0 0 1 6,457.5 L6,8.5 A2.5,2.5 0 0 1 8.5,6 " style="stroke:#000000;stroke-width:1.5;fill:none;"/><line style="stroke:#000000;stroke-width:1.5;fill:none;" x1="6" x2="70" y1="29.6094" y2="29.6094"/><text fill="#000000" font-family="sans-serif" font-size="14" font-weight="bold" lengthAdjust="spacing" textLength="51" x="10" y="22.5332">domain</text></g><!--MD5=[77349be1bd27b81b697a0f9b3aded3c8]
cluster infrastructure--><g id="cluster_infrastructure"><path d="M823.5,320.5 L921.5,320.5 A3.75,3.75 0 0 1 924,323 L931,344.1094 L1082.5,344.1094 A2.5,2.5 0 0 1 1085,346.6094 L1085,436 A2.5,2.5 0 0 1 1082.5,438.5 L823.5,438.5 A2.5,2.5 0 0 1 821,436 L821,323 A2.5,2.5 0 0 1 823.5,320.5 " style="stroke:#000000;stroke-width:1.5;fill:none;"/><line style="stroke:#000000;stroke-width:1.5;fill:none;" x1="821" x2="931" y1="344.1094" y2="344.1094"/><text fill="#000000" font-family="sans-serif" font-size="14" font-weight="bold" lengthAdjust="spacing" textLength="97" x="825" y="337.0332">infrastructure</text></g><!--MD5=[7d972e8a870a7d3102e7596738050350]
class IHostNetworkLink--><g id="elem_IHostNetworkLink"><rect codeLine="3" fill="#F1F1F1" height="108.8281" id="IHostNetworkLink" rx="2.5" ry="2.5" style="stroke:#181818;stroke-width:0.5;" width="195" x="308.5" y="520"/><ellipse cx="346.45" cy="536" fill="#B4A7E5" rx="11" ry="11" style="stroke:#181818;stroke-width:1.0;"/><path d="M347.4031,532.6406 L347.4031,539.2969 L349.1219,539.2969 Q349.7313,539.2969 349.9969,539.5313 Q350.2625,539.7656 350.2625,540.1563 Q350.2625,540.5313 349.9969,540.7656 Q349.7313,541 349.1219,541 L343.9813,541 Q343.3719,541 343.1063,540.7656 Q342.8406,540.5313 342.8406,540.1406 Q342.8406,539.7656 343.1063,539.5313 Q343.3719,539.2969 343.9813,539.2969 L345.7,539.2969 L345.7,532.6406 L343.9813,532.6406 Q343.3719,532.6406 343.1063,532.4063 Q342.8406,532.1719 342.8406,531.7813 Q342.8406,531.4063 343.1063,531.1719 Q343.3719,530.9375 343.9813,530.9375 L349.1219,530.9375 Q349.7313,530.9375 349.9969,531.1719 Q350.2625,531.4063 350.2625,531.7813 Q350.2625,532.1719 349.9969,532.4063 Q349.7313,532.6406 349.1219,532.6406 L347.4031,532.6406 Z " fill="#000000"/><text fill="#000000" font-family="sans-serif" font-size="14" font-style="italic" lengthAdjust="spacing" textLength="112" x="365.55" y="541.7285">IHostNetworkLink</text><line style="stroke:#181818;stroke-width:0.5;" x1="309.5" x2="502.5" y1="552" y2="552"/><ellipse cx="319.5" cy="563" fill="#84BE84" rx="3" ry="3" style="stroke:#038048;stroke-width:1.0;"/><text fill="#000000" font-family="sans-serif" font-size="14" lengthAdjust="spacing" textLength="108" x="328.5" y="570.5332">GetName() string</text><line style="stroke:#181818;stroke-width:1.0;" x1="309.5" x2="502.5" y1="577.6094" y2="577.6094"/><ellipse cx="319.5" cy="588.6094" fill="#84BE84" rx="3" ry="3" style="stroke:#038048;stroke-width:1.0;"/><text fill="#000000" font-family="sans-serif" font-size="14" lengthAdjust="spacing" textLength="104" x="328.5" y="596.1426">GetType() string</text><line style="stroke:#181818;stroke-width:1.0;" x1="309.5" x2="502.5" y1="603.2188" y2="603.2188"/><ellipse cx="319.5" cy="614.2188" fill="#84BE84" rx="3" ry="3" style="stroke:#038048;stroke-width:1.0;"/><text fill="#000000" font-family="sans-serif" font-size="14" lengthAdjust="spacing" textLength="169" x="328.5" y="621.752">GetAddresses() []net.IPNet</text></g><path d="M538.5,520 L538.5,529.1758 L436.5,564.8047 L538.5,537.1758 L538.5,546.3516 A0,0 0 0 0 538.5,546.3516 L705.5,546.3516 A0,0 0 0 0 705.5,546.3516 L705.5,530 L695.5,520 L538.5,520 A0,0 0 0 0 538.5,520 " fill="#FEFFDD" style="stroke:#181818;stroke-width:0.5;"/><path d="M695.5,520 L695.5,530 L705.5,530 L695.5,520 " fill="#FEFFDD" style="stroke:#181818;stroke-width:0.5;"/><text fill="#000000" font-family="sans-serif" font-size="13" lengthAdjust="spacing" textLength="146" x="544.5" y="538.4951">Gets host interface name</text><path d="M538.5,556.3516 L538.5,565.5273 L432.5,590.4141 L538.5,573.5273 L538.5,582.7031 A0,0 0 0 0 538.5,582.7031 L698.5,582.7031 A0,0 0 0 0 698.5,582.7031 L698.5,566.3516 L688.5,556.3516 L538.5,556.3516 A0,0 0 0 0 538.5,556.3516 " fill="#FEFFDD" style="stroke:#181818;stroke-width:0.5;"/><path d="M688.5,556.3516 L688.5,566.3516 L698.5,566.3516 L688.5,556.3516 " fill="#FEFFDD" style="stroke:#181818;stroke-width:0.5;"/><text fill="#000000" font-family="sans-serif" font-size="13" lengthAdjust="spacing" textLength="139" x="544.5" y="574.8467">Gets host interface type</text><path d="M538.5,592.7031 L538.5,601.8789 L497.5,616.0234 L538.5,609.8789 L538.5,619.0547 A0,0 0 0 0 538.5,619.0547 L733.5,619.0547 A0,0 0 0 0 733.5,619.0547 L733.5,602.7031 L723.5,592.7031 L538.5,592.7031 A0,0 0 0 0 538.5,592.7031 " fill="#FEFFDD" style="stroke:#181818;stroke-width:0.5;"/><path d="M723.5,592.7031 L723.5,602.7031 L733.5,602.7031 L723.5,592.7031 " fill="#FEFFDD" style="stroke:#181818;stroke-width:0.5;"/><text fill="#000000" font-family="sans-serif" font-size="13" lengthAdjust="spacing" textLength="174" x="544.5" y="611.1982">Gets host interface addresses</text><!--MD5=[de944ecaefb171a2f705a3207091d9ac]
class IHostNetworkConfigStorage--><g id="elem_IHostNetworkConfigStorage"><rect codeLine="5" fill="#F1F1F1" height="108.8281" id="IHostNetworkConfigStorage" rx="2.5" ry="2.5" style="stroke:#181818;stroke-width:0.5;" width="369" x="768.5" y="520"/><ellipse cx="860.75" cy="536" fill="#B4A7E5" rx="11" ry="11" style="stroke:#181818;stroke-width:1.0;"/><path d="M861.7031,532.6406 L861.7031,539.2969 L863.4219,539.2969 Q864.0313,539.2969 864.2969,539.5313 Q864.5625,539.7656 864.5625,540.1563 Q864.5625,540.5313 864.2969,540.7656 Q864.0313,541 863.4219,541 L858.2813,541 Q857.6719,541 857.4063,540.7656 Q857.1406,540.5313 857.1406,540.1406 Q857.1406,539.7656 857.4063,539.5313 Q857.6719,539.2969 858.2813,539.2969 L860,539.2969 L860,532.6406 L858.2813,532.6406 Q857.6719,532.6406 857.4063,532.4063 Q857.1406,532.1719 857.1406,531.7813 Q857.1406,531.4063 857.4063,531.1719 Q857.6719,530.9375 858.2813,530.9375 L863.4219,530.9375 Q864.0313,530.9375 864.2969,531.1719 Q864.5625,531.4063 864.5625,531.7813 Q864.5625,532.1719 864.2969,532.4063 Q864.0313,532.6406 863.4219,532.6406 L861.7031,532.6406 Z " fill="#000000"/><text fill="#000000" font-family="sans-serif" font-size="14" font-style="italic" lengthAdjust="spacing" textLength="176" x="881.25" y="541.7285">IHostNetworkConfigStorage</text><line style="stroke:#181818;stroke-width:0.5;" x1="769.5" x2="1136.5" y1="552" y2="552"/><ellipse cx="779.5" cy="563" fill="#84BE84" rx="3" ry="3" style="stroke:#038048;stroke-width:1.0;"/><text fill="#000000" font-family="sans-serif" font-size="14" lengthAdjust="spacing" textLength="329" x="788.5" y="570.5332">SaveConfig(config domain.HostNetworkConfig) error</text><line style="stroke:#181818;stroke-width:1.0;" x1="769.5" x2="1136.5" y1="577.6094" y2="577.6094"/><ellipse cx="779.5" cy="588.6094" fill="#84BE84" rx="3" ry="3" style="stroke:#038048;stroke-width:1.0;"/><text fill="#000000" font-family="sans-serif" font-size="14" lengthAdjust="spacing" textLength="296" x="788.5" y="596.1426">GetConfig() (domain.HostNetworkConfig, error)</text><line style="stroke:#181818;stroke-width:1.0;" x1="769.5" x2="1136.5" y1="603.2188" y2="603.2188"/><ellipse cx="779.5" cy="614.2188" fill="#84BE84" rx="3" ry="3" style="stroke:#038048;stroke-width:1.0;"/><text fill="#000000" font-family="sans-serif" font-size="14" lengthAdjust="spacing" textLength="343" x="788.5" y="621.752">GetBackupConfig() (domain.HostNetworkConfig, error)</text></g><!--MD5=[e5fff6262f684687265fbe09f1b48075]
class HostNetworkLink--><g id="elem_HostNetworkLink"><rect codeLine="5" fill="#F1F1F1" height="108.8281" id="HostNetworkLink" rx="2.5" ry="2.5" style="stroke:#181818;stroke-width:0.5;" width="162" x="325" y="335"/><ellipse cx="351.7" cy="351" fill="#ADD1B2" rx="11" ry="11" style="stroke:#181818;stroke-width:1.0;"/><path d="M354.4656,346.875 Q354.6219,346.6563 354.8094,346.5469 Q354.9969,346.4375 355.2156,346.4375 Q355.5906,346.4375 355.825,346.7031 Q356.0594,346.9531 356.0594,347.5625 L356.0594,349.0156 Q356.0594,349.625 355.825,349.8906 Q355.5906,350.1563 355.2156,350.1563 Q354.8719,350.1563 354.6688,349.9531 Q354.4656,349.7656 354.3563,349.25 Q354.3094,348.8906 354.1219,348.7031 Q353.7938,348.3281 353.1844,348.1094 Q352.575,347.8906 351.95,347.8906 Q351.1844,347.8906 350.5438,348.2188 Q349.9188,348.5469 349.4188,349.2969 Q348.9344,350.0469 348.9344,351.0781 L348.9344,352.1719 Q348.9344,353.4063 349.825,354.2344 Q350.7156,355.0469 352.3094,355.0469 Q353.2469,355.0469 353.9031,354.7969 Q354.2938,354.6406 354.7156,354.2031 Q354.9813,353.9375 355.1219,353.8594 Q355.2781,353.7813 355.4813,353.7813 Q355.8094,353.7813 356.0594,354.0469 Q356.325,354.2969 356.325,354.6406 Q356.325,354.9844 355.9813,355.3906 Q355.4813,355.9688 354.6844,356.2969 Q353.6063,356.75 352.3094,356.75 Q350.7938,356.75 349.5906,356.125 Q348.6063,355.625 347.9188,354.5625 Q347.2313,353.4844 347.2313,352.2031 L347.2313,351.0469 Q347.2313,349.7188 347.8406,348.5781 Q348.4656,347.4219 349.5594,346.8125 Q350.6531,346.1875 351.8875,346.1875 Q352.6219,346.1875 353.2625,346.3594 Q353.9188,346.5156 354.4656,346.875 Z " fill="#000000"/><text fill="#000000" font-family="sans-serif" font-size="14" lengthAdjust="spacing" textLength="104" x="368.3" y="356.7285">HostNetworkLink</text><line style="stroke:#181818;stroke-width:0.5;" x1="326" x2="486" y1="367" y2="367"/><ellipse cx="336" cy="378" fill="none" rx="3" ry="3" style="stroke:#038048;stroke-width:1.0;"/><text fill="#000000" font-family="sans-serif" font-size="14" lengthAdjust="spacing" textLength="75" x="345" y="385.5332">Name string</text><line style="stroke:#181818;stroke-width:1.0;" x1="326" x2="486" y1="392.6094" y2="392.6094"/><ellipse cx="336" cy="403.6094" fill="none" rx="3" ry="3" style="stroke:#038048;stroke-width:1.0;"/><text fill="#000000" font-family="sans-serif" font-size="14" lengthAdjust="spacing" textLength="136" x="345" y="411.1426">Addresses []net.IPNet</text><line style="stroke:#181818;stroke-width:1.0;" x1="326" x2="486" y1="418.2188" y2="418.2188"/><ellipse cx="336" cy="429.2188" fill="none" rx="3" ry="3" style="stroke:#038048;stroke-width:1.0;"/><text fill="#000000" font-family="sans-serif" font-size="14" lengthAdjust="spacing" textLength="71" x="345" y="436.752">Type string</text></g><path d="M22.5,345 L22.5,371.3516 A0,0 0 0 0 22.5,371.3516 L257.5,371.3516 A0,0 0 0 0 257.5,371.3516 L257.5,363 L329,379.8047 L257.5,355 L257.5,355 L247.5,345 L22.5,345 A0,0 0 0 0 22.5,345 " fill="#FEFFDD" style="stroke:#181818;stroke-width:0.5;"/><path d="M247.5,345 L247.5,355 L257.5,355 L247.5,345 " fill="#FEFFDD" style="stroke:#181818;stroke-width:0.5;"/><text fill="#000000" font-family="sans-serif" font-size="13" lengthAdjust="spacing" textLength="214" x="28.5" y="363.4951">Unique name of the network interface</text><path d="M22.5,381.3516 L22.5,424.0547 A0,0 0 0 0 22.5,424.0547 L289.5,424.0547 A0,0 0 0 0 289.5,424.0547 L289.5,406.7031 L329,431.0234 L289.5,398.7031 L289.5,391.3516 L279.5,381.3516 L22.5,381.3516 A0,0 0 0 0 22.5,381.3516 " fill="#FEFFDD" style="stroke:#181818;stroke-width:0.5;"/><path d="M279.5,381.3516 L279.5,391.3516 L289.5,391.3516 L279.5,381.3516 " fill="#FEFFDD" style="stroke:#181818;stroke-width:0.5;"/><text fill="#000000" font-family="sans-serif" font-size="13" lengthAdjust="spacing" textLength="129" x="28.5" y="399.8467">Default value is "none"</text><text fill="#000000" font-family="sans-serif" font-size="13" lengthAdjust="spacing" textLength="246" x="28.5" y="416.1982">because HostNetworkLink is a basic class</text><!--MD5=[b17b81604319b97b33af23212dfcf2f4]
class HostNetworkDevice--><g id="elem_HostNetworkDevice"><rect codeLine="5" fill="#F1F1F1" height="48" id="HostNetworkDevice" rx="2.5" ry="2.5" style="stroke:#181818;stroke-width:0.5;" width="153" x="154.5" y="209.5"/><ellipse cx="169.5" cy="225.5" fill="#ADD1B2" rx="11" ry="11" style="stroke:#181818;stroke-width:1.0;"/><path d="M172.2656,221.375 Q172.4219,221.1563 172.6094,221.0469 Q172.7969,220.9375 173.0156,220.9375 Q173.3906,220.9375 173.625,221.2031 Q173.8594,221.4531 173.8594,222.0625 L173.8594,223.5156 Q173.8594,224.125 173.625,224.3906 Q173.3906,224.6563 173.0156,224.6563 Q172.6719,224.6563 172.4688,224.4531 Q172.2656,224.2656 172.1563,223.75 Q172.1094,223.3906 171.9219,223.2031 Q171.5938,222.8281 170.9844,222.6094 Q170.375,222.3906 169.75,222.3906 Q168.9844,222.3906 168.3438,222.7188 Q167.7188,223.0469 167.2188,223.7969 Q166.7344,224.5469 166.7344,225.5781 L166.7344,226.6719 Q166.7344,227.9063 167.625,228.7344 Q168.5156,229.5469 170.1094,229.5469 Q171.0469,229.5469 171.7031,229.2969 Q172.0938,229.1406 172.5156,228.7031 Q172.7813,228.4375 172.9219,228.3594 Q173.0781,228.2813 173.2813,228.2813 Q173.6094,228.2813 173.8594,228.5469 Q174.125,228.7969 174.125,229.1406 Q174.125,229.4844 173.7813,229.8906 Q173.2813,230.4688 172.4844,230.7969 Q171.4063,231.25 170.1094,231.25 Q168.5938,231.25 167.3906,230.625 Q166.4063,230.125 165.7188,229.0625 Q165.0313,227.9844 165.0313,226.7031 L165.0313,225.5469 Q165.0313,224.2188 165.6406,223.0781 Q166.2656,221.9219 167.3594,221.3125 Q168.4531,220.6875 169.6875,220.6875 Q170.4219,220.6875 171.0625,220.8594 Q171.7188,221.0156 172.2656,221.375 Z " fill="#000000"/><text fill="#000000" font-family="sans-serif" font-size="14" lengthAdjust="spacing" textLength="121" x="183.5" y="231.2285">HostNetworkDevice</text><line style="stroke:#181818;stroke-width:0.5;" x1="155.5" x2="306.5" y1="241.5" y2="241.5"/><line style="stroke:#181818;stroke-width:0.5;" x1="155.5" x2="306.5" y1="249.5" y2="249.5"/></g><!--MD5=[7708bf2b3811a61fdbad496487474248]
class HostNetworkVlan--><g id="elem_HostNetworkVlan"><rect codeLine="5" fill="#F1F1F1" height="83.2188" id="HostNetworkVlan" rx="2.5" ry="2.5" style="stroke:#181818;stroke-width:0.5;" width="138" x="343" y="192"/><ellipse cx="358" cy="208" fill="#ADD1B2" rx="11" ry="11" style="stroke:#181818;stroke-width:1.0;"/><path d="M360.7656,203.875 Q360.9219,203.6563 361.1094,203.5469 Q361.2969,203.4375 361.5156,203.4375 Q361.8906,203.4375 362.125,203.7031 Q362.3594,203.9531 362.3594,204.5625 L362.3594,206.0156 Q362.3594,206.625 362.125,206.8906 Q361.8906,207.1563 361.5156,207.1563 Q361.1719,207.1563 360.9688,206.9531 Q360.7656,206.7656 360.6563,206.25 Q360.6094,205.8906 360.4219,205.7031 Q360.0938,205.3281 359.4844,205.1094 Q358.875,204.8906 358.25,204.8906 Q357.4844,204.8906 356.8438,205.2188 Q356.2188,205.5469 355.7188,206.2969 Q355.2344,207.0469 355.2344,208.0781 L355.2344,209.1719 Q355.2344,210.4063 356.125,211.2344 Q357.0156,212.0469 358.6094,212.0469 Q359.5469,212.0469 360.2031,211.7969 Q360.5938,211.6406 361.0156,211.2031 Q361.2813,210.9375 361.4219,210.8594 Q361.5781,210.7813 361.7813,210.7813 Q362.1094,210.7813 362.3594,211.0469 Q362.625,211.2969 362.625,211.6406 Q362.625,211.9844 362.2813,212.3906 Q361.7813,212.9688 360.9844,213.2969 Q359.9063,213.75 358.6094,213.75 Q357.0938,213.75 355.8906,213.125 Q354.9063,212.625 354.2188,211.5625 Q353.5313,210.4844 353.5313,209.2031 L353.5313,208.0469 Q353.5313,206.7188 354.1406,205.5781 Q354.7656,204.4219 355.8594,203.8125 Q356.9531,203.1875 358.1875,203.1875 Q358.9219,203.1875 359.5625,203.3594 Q360.2188,203.5156 360.7656,203.875 Z " fill="#000000"/><text fill="#000000" font-family="sans-serif" font-size="14" lengthAdjust="spacing" textLength="106" x="372" y="213.7285">HostNetworkVlan</text><line style="stroke:#181818;stroke-width:0.5;" x1="344" x2="480" y1="224" y2="224"/><ellipse cx="354" cy="235" fill="none" rx="3" ry="3" style="stroke:#038048;stroke-width:1.0;"/><text fill="#000000" font-family="sans-serif" font-size="14" lengthAdjust="spacing" textLength="60" x="363" y="242.5332">VlanID int</text><line style="stroke:#181818;stroke-width:1.0;" x1="344" x2="480" y1="249.6094" y2="249.6094"/><ellipse cx="354" cy="260.6094" fill="none" rx="3" ry="3" style="stroke:#038048;stroke-width:1.0;"/><text fill="#000000" font-family="sans-serif" font-size="14" lengthAdjust="spacing" textLength="82" x="363" y="268.1426">Master string</text></g><!--MD5=[58987b0398bdf5010f5174b6a6feac3c]
class HostNetworkConfig--><g id="elem_HostNetworkConfig"><rect codeLine="6" fill="#F1F1F1" height="83.2188" id="HostNetworkConfig" rx="2.5" ry="2.5" style="stroke:#181818;stroke-width:0.5;" width="209" x="200.5" y="46"/><ellipse cx="241.6" cy="62" fill="#ADD1B2" rx="11" ry="11" style="stroke:#181818;stroke-width:1.0;"/><path d="M244.3656,57.875 Q244.5219,57.6563 244.7094,57.5469 Q244.8969,57.4375 245.1156,57.4375 Q245.4906,57.4375 245.725,57.7031 Q245.9594,57.9531 245.9594,58.5625 L245.9594,60.0156 Q245.9594,60.625 245.725,60.8906 Q245.4906,61.1563 245.1156,61.1563 Q244.7719,61.1563 244.5688,60.9531 Q244.3656,60.7656 244.2563,60.25 Q244.2094,59.8906 244.0219,59.7031 Q243.6938,59.3281 243.0844,59.1094 Q242.475,58.8906 241.85,58.8906 Q241.0844,58.8906 240.4438,59.2188 Q239.8188,59.5469 239.3188,60.2969 Q238.8344,61.0469 238.8344,62.0781 L238.8344,63.1719 Q238.8344,64.4063 239.725,65.2344 Q240.6156,66.0469 242.2094,66.0469 Q243.1469,66.0469 243.8031,65.7969 Q244.1938,65.6406 244.6156,65.2031 Q244.8813,64.9375 245.0219,64.8594 Q245.1781,64.7813 245.3813,64.7813 Q245.7094,64.7813 245.9594,65.0469 Q246.225,65.2969 246.225,65.6406 Q246.225,65.9844 245.8813,66.3906 Q245.3813,66.9688 244.5844,67.2969 Q243.5063,67.75 242.2094,67.75 Q240.6938,67.75 239.4906,67.125 Q238.5063,66.625 237.8188,65.5625 Q237.1313,64.4844 237.1313,63.2031 L237.1313,62.0469 Q237.1313,60.7188 237.7406,59.5781 Q238.3656,58.4219 239.4594,57.8125 Q240.5531,57.1875 241.7875,57.1875 Q242.5219,57.1875 243.1625,57.3594 Q243.8188,57.5156 244.3656,57.875 Z " fill="#000000"/><text fill="#000000" font-family="sans-serif" font-size="14" lengthAdjust="spacing" textLength="119" x="261.4" y="67.7285">HostNetworkConfig</text><line style="stroke:#181818;stroke-width:0.5;" x1="201.5" x2="408.5" y1="78" y2="78"/><ellipse cx="211.5" cy="89" fill="none" rx="3" ry="3" style="stroke:#038048;stroke-width:1.0;"/><text fill="#000000" font-family="sans-serif" font-size="14" lengthAdjust="spacing" textLength="183" x="220.5" y="96.5332">Devices []HostNetworkDevice</text><line style="stroke:#181818;stroke-width:1.0;" x1="201.5" x2="408.5" y1="103.6094" y2="103.6094"/><ellipse cx="211.5" cy="114.6094" fill="none" rx="3" ry="3" style="stroke:#038048;stroke-width:1.0;"/><text fill="#000000" font-family="sans-serif" font-size="14" lengthAdjust="spacing" textLength="161" x="220.5" y="122.1426">Vlans   []HostNetworkVlan</text></g><!--MD5=[0ef4b9020a0ab381891be386a00db524]
class YamlHostNetworkConfigStorage--><g id="elem_YamlHostNetworkConfigStorage"><rect codeLine="5" fill="#F1F1F1" height="65.6094" id="YamlHostNetworkConfigStorage" rx="2.5" ry="2.5" style="stroke:#181818;stroke-width:0.5;" width="232" x="837" y="356.5"/><ellipse cx="852" cy="372.5" fill="#ADD1B2" rx="11" ry="11" style="stroke:#181818;stroke-width:1.0;"/><path d="M854.7656,368.375 Q854.9219,368.1563 855.1094,368.0469 Q855.2969,367.9375 855.5156,367.9375 Q855.8906,367.9375 856.125,368.2031 Q856.3594,368.4531 856.3594,369.0625 L856.3594,370.5156 Q856.3594,371.125 856.125,371.3906 Q855.8906,371.6563 855.5156,371.6563 Q855.1719,371.6563 854.9688,371.4531 Q854.7656,371.2656 854.6563,370.75 Q854.6094,370.3906 854.4219,370.2031 Q854.0938,369.8281 853.4844,369.6094 Q852.875,369.3906 852.25,369.3906 Q851.4844,369.3906 850.8438,369.7188 Q850.2188,370.0469 849.7188,370.7969 Q849.2344,371.5469 849.2344,372.5781 L849.2344,373.6719 Q849.2344,374.9063 850.125,375.7344 Q851.0156,376.5469 852.6094,376.5469 Q853.5469,376.5469 854.2031,376.2969 Q854.5938,376.1406 855.0156,375.7031 Q855.2813,375.4375 855.4219,375.3594 Q855.5781,375.2813 855.7813,375.2813 Q856.1094,375.2813 856.3594,375.5469 Q856.625,375.7969 856.625,376.1406 Q856.625,376.4844 856.2813,376.8906 Q855.7813,377.4688 854.9844,377.7969 Q853.9063,378.25 852.6094,378.25 Q851.0938,378.25 849.8906,377.625 Q848.9063,377.125 848.2188,376.0625 Q847.5313,374.9844 847.5313,373.7031 L847.5313,372.5469 Q847.5313,371.2188 848.1406,370.0781 Q848.7656,368.9219 849.8594,368.3125 Q850.9531,367.6875 852.1875,367.6875 Q852.9219,367.6875 853.5625,367.8594 Q854.2188,368.0156 854.7656,368.375 Z " fill="#000000"/><text fill="#000000" font-family="sans-serif" font-size="14" lengthAdjust="spacing" textLength="200" x="866" y="378.2285">YamlHostNetworkConfigStorage</text><line style="stroke:#181818;stroke-width:0.5;" x1="838" x2="1068" y1="388.5" y2="388.5"/><rect fill="none" height="6" style="stroke:#C82930;stroke-width:1.0;" width="6" x="845" y="396.5"/><text fill="#000000" font-family="sans-serif" font-size="14" lengthAdjust="spacing" textLength="129" x="857" y="407.0332">configFilePath string</text><line style="stroke:#181818;stroke-width:0.5;" x1="838" x2="1068" y1="414.1094" y2="414.1094"/></g><!--MD5=[c7ae537b1fb1fd62da54845b02126a57]
link HostNetworkLink to IHostNetworkLink--><g id="link_HostNetworkLink_IHostNetworkLink"><path codeLine="21" d="M406,444.42 C406,461.73 406,481.21 406,499.7 " fill="none" id="HostNetworkLink-to-IHostNetworkLink" style="stroke:#181818;stroke-width:1.0;"/><polygon fill="none" points="413,499.97,406,519.97,399,499.97,413,499.97" style="stroke:#181818;stroke-width:1.0;"/></g><!--MD5=[7c0130aaa2dc79170695f96da00ebff9]
link HostNetworkDevice to HostNetworkLink--><g id="link_HostNetworkDevice_HostNetworkLink"><path codeLine="7" d="M257.2,257.56 C277.84,275.71 307.61,301.92 335.12,326.12 " fill="none" id="HostNetworkDevice-to-HostNetworkLink" style="stroke:#181818;stroke-width:1.0;"/><polygon fill="#181818" points="345.12,334.93,343.258,327.9634,336.1112,327.0028,337.9732,333.9693,345.12,334.93" style="stroke:#181818;stroke-width:1.0;"/></g><!--MD5=[f741d5613818e7c6a8b6721c8e9fb611]
link HostNetworkVlan to HostNetworkLink--><g id="link_HostNetworkVlan_HostNetworkLink"><path codeLine="11" d="M410.41,275.36 C409.85,289.64 409.21,306.05 408.6,321.87 " fill="none" id="HostNetworkVlan-to-HostNetworkLink" style="stroke:#181818;stroke-width:1.0;"/><polygon fill="#181818" points="408.09,334.95,412.3179,329.1083,408.5517,322.9589,404.3238,328.8005,408.09,334.95" style="stroke:#181818;stroke-width:1.0;"/></g><!--MD5=[22922eb5c98d6328bffadf0fffe1f4a9]
link HostNetworkConfig to HostNetworkDevice--><g id="link_HostNetworkConfig_HostNetworkDevice"><path codeLine="12" d="M200,91 C152.09,91 192.65,169.35 216.54,209.45 " fill="none" id="HostNetworkConfig-HostNetworkDevice" style="stroke:#181818;stroke-width:1.0;"/></g><!--MD5=[3939eded06239bcaaa875b04c4955c10]
link HostNetworkConfig to HostNetworkVlan--><g id="link_HostNetworkConfig_HostNetworkVlan"><path codeLine="13" d="M411,116 C442.15,116 436.18,158.16 426.49,191.75 " fill="none" id="HostNetworkConfig-HostNetworkVlan" style="stroke:#181818;stroke-width:1.0;"/></g><!--MD5=[4b27b58a3dcdc7721ce2906e479ec2a1]
link YamlHostNetworkConfigStorage to IHostNetworkConfigStorage--><g id="link_YamlHostNetworkConfigStorage_IHostNetworkConfigStorage"><path codeLine="9" d="M953,422.8 C953,444.03 953,472.72 953,499.38 " fill="none" id="YamlHostNetworkConfigStorage-to-IHostNetworkConfigStorage" style="stroke:#181818;stroke-width:1.0;"/><polygon fill="none" points="960,499.66,953,519.66,946,499.66,960,499.66" style="stroke:#181818;stroke-width:1.0;"/></g><!--MD5=[6e4381f429d9e8fa5aa445071cec9552]
@startuml

!include ../interfaces/IHostNetworkConfigStorage.puml

package infrastructure {
    class YamlHostNetworkConfigStorage {
        -configFilePath string
    }

    YamlHostNetworkConfigStorage - -|> IHostNetworkConfigStorage
}

@enduml

@startuml






package app {
    interface IHostNetworkLink {
        +GetName() string
        - -
        +GetType() string
        - -
        +GetAddresses() []net.IPNet
    }

    note left of IHostNetworkLink::GetName
    Gets host interface name
    end note

    note left of IHostNetworkLink::GetType
    Gets host interface type
    end note

    note left of IHostNetworkLink::GetAddresses
    Gets host interface addresses
    end note
}


package domain {
    class HostNetworkLink {
        +Name string
        - -
        +Addresses []net.IPNet
        - -
        +Type string
    }
    note left of HostNetworkLink::Name
    Unique name of the network interface
    end note

    note left of HostNetworkLink::Type
    Default value is "none"
    because HostNetworkLink is a basic class
    end note

    HostNetworkLink - -|> IHostNetworkLink
}


package domain {
    class HostNetworkDevice

    HostNetworkDevice - -* HostNetworkLink
}



package domain {
    class HostNetworkVlan {
        +VlanID int
        - -
        +Master string
    }

    HostNetworkVlan - -* HostNetworkLink
}


package domain {
    class HostNetworkConfig {
        +Devices []HostNetworkDevice
        - -
        +Vlans   []HostNetworkVlan
    }

    HostNetworkConfig::Devices - - HostNetworkDevice
    HostNetworkConfig::Vlans - - HostNetworkVlan
}


package app {
    interface IHostNetworkConfigStorage {
        +SaveConfig(config domain.HostNetworkConfig) error
        - -
        +GetConfig() (domain.HostNetworkConfig, error)
        - -
        +GetBackupConfig() (domain.HostNetworkConfig, error)
    }
}


package infrastructure {
    class YamlHostNetworkConfigStorage {
        -configFilePath string
    }

    YamlHostNetworkConfigStorage - -|> IHostNetworkConfigStorage
}

@enduml

PlantUML version 1.2022.6(Tue Jun 21 20:34:49 MSK 2022)
(GPL source distribution)
Java Runtime: OpenJDK Runtime Environment
JVM: OpenJDK 64-Bit Server VM
Default Encoding: Cp1251
Language: ru
Country: RU
--></g></svg>