<?xml version="1.0" encoding="UTF-8" standalone="no"?><svg xmlns="http://www.w3.org/2000/svg" xmlns:xlink="http://www.w3.org/1999/xlink" contentStyleType="text/css" height="323px" preserveAspectRatio="none" style="width:989px;height:323px;background:#FFFFFF;" version="1.1" viewBox="0 0 989 323" width="989px" zoomAndPan="magnify"><defs/><g><!--MD5=[d5ac3844f66b12d9e08170e47495e096]
cluster app--><g id="cluster_app"><path d="M8.5,130 L35.5,130 A3.75,3.75 0 0 1 38,132.5 L45,153.6094 L979.5,153.6094 A2.5,2.5 0 0 1 982,156.1094 L982,313.5 A2.5,2.5 0 0 1 979.5,316 L8.5,316 A2.5,2.5 0 0 1 6,313.5 L6,132.5 A2.5,2.5 0 0 1 8.5,130 " style="stroke:#000000;stroke-width:1.5;fill:none;"/><line style="stroke:#000000;stroke-width:1.5;fill:none;" x1="6" x2="45" y1="153.6094" y2="153.6094"/><text fill="#000000" font-family="sans-serif" font-size="14" font-weight="bold" lengthAdjust="spacing" textLength="26" x="10" y="146.5332">app</text></g><!--MD5=[77349be1bd27b81b697a0f9b3aded3c8]
cluster infrastructure--><g id="cluster_infrastructure"><path d="M327.5,6 L425.5,6 A3.75,3.75 0 0 1 428,8.5 L435,29.6094 L660.5,29.6094 A2.5,2.5 0 0 1 663,32.1094 L663,103.5 A2.5,2.5 0 0 1 660.5,106 L327.5,106 A2.5,2.5 0 0 1 325,103.5 L325,8.5 A2.5,2.5 0 0 1 327.5,6 " style="stroke:#000000;stroke-width:1.5;fill:none;"/><line style="stroke:#000000;stroke-width:1.5;fill:none;" x1="325" x2="435" y1="29.6094" y2="29.6094"/><text fill="#000000" font-family="sans-serif" font-size="14" font-weight="bold" lengthAdjust="spacing" textLength="97" x="329" y="22.5332">infrastructure</text></g><!--MD5=[3beb778f651b40286c3d75d0060d5ff1]
class IGenericTemplateStorage--><g id="elem_IGenericTemplateStorage"><rect codeLine="3" fill="#F1F1F1" height="134.4375" id="IGenericTemplateStorage" rx="2.5" ry="2.5" style="stroke:#181818;stroke-width:0.5;" width="944" x="22" y="166"/><ellipse cx="366.75" cy="182" fill="#B4A7E5" rx="11" ry="11" style="stroke:#181818;stroke-width:1.0;"/><path d="M367.7031,178.6406 L367.7031,185.2969 L369.4219,185.2969 Q370.0313,185.2969 370.2969,185.5313 Q370.5625,185.7656 370.5625,186.1563 Q370.5625,186.5313 370.2969,186.7656 Q370.0313,187 369.4219,187 L364.2813,187 Q363.6719,187 363.4063,186.7656 Q363.1406,186.5313 363.1406,186.1406 Q363.1406,185.7656 363.4063,185.5313 Q363.6719,185.2969 364.2813,185.2969 L366,185.2969 L366,178.6406 L364.2813,178.6406 Q363.6719,178.6406 363.4063,178.4063 Q363.1406,178.1719 363.1406,177.7813 Q363.1406,177.4063 363.4063,177.1719 Q363.6719,176.9375 364.2813,176.9375 L369.4219,176.9375 Q370.0313,176.9375 370.2969,177.1719 Q370.5625,177.4063 370.5625,177.7813 Q370.5625,178.1719 370.2969,178.4063 Q370.0313,178.6406 369.4219,178.6406 L367.7031,178.6406 Z " fill="#000000"/><text fill="#000000" font-family="sans-serif" font-size="14" font-style="italic" lengthAdjust="spacing" textLength="163" x="387.25" y="187.7285">IGenericTemplateStorage</text><rect fill="#FFFFFF" height="17.0938" style="stroke:#000000;stroke-width:1.0;stroke-dasharray:2.0,2.0;" width="81" x="888" y="163"/><text fill="#000000" font-family="sans-serif" font-size="12" font-style="italic" lengthAdjust="spacing" textLength="79" x="889" y="176.457">TemplateType</text><line style="stroke:#181818;stroke-width:0.5;" x1="23" x2="965" y1="198" y2="198"/><ellipse cx="33" cy="209" fill="#84BE84" rx="3" ry="3" style="stroke:#038048;stroke-width:1.0;"/><text fill="#000000" font-family="sans-serif" font-size="14" lengthAdjust="spacing" textLength="434" x="42" y="216.5332">GetByName(ctx context.Context, string name) (*TemplateType, error)</text><line style="stroke:#181818;stroke-width:1.0;" x1="23" x2="965" y1="223.6094" y2="223.6094"/><ellipse cx="33" cy="234.6094" fill="#84BE84" rx="3" ry="3" style="stroke:#038048;stroke-width:1.0;"/><text fill="#000000" font-family="sans-serif" font-size="14" lengthAdjust="spacing" textLength="918" x="42" y="242.1426">GetList(ctx context.Context, orderBy string, orderDirection string, page int, size int, queryBuilder interfaces.IQueryBuilder) (*[]TemplateType, error)</text><line style="stroke:#181818;stroke-width:1.0;" x1="23" x2="965" y1="249.2188" y2="249.2188"/><ellipse cx="33" cy="260.2188" fill="#84BE84" rx="3" ry="3" style="stroke:#038048;stroke-width:1.0;"/><text fill="#000000" font-family="sans-serif" font-size="14" lengthAdjust="spacing" textLength="494" x="42" y="267.752">Count(ctx context.Context, queryBuilder interfaces.IQueryBuilder) (int64, error)</text><line style="stroke:#181818;stroke-width:1.0;" x1="23" x2="965" y1="274.8281" y2="274.8281"/><ellipse cx="33" cy="285.8281" fill="#84BE84" rx="3" ry="3" style="stroke:#038048;stroke-width:1.0;"/><text fill="#000000" font-family="sans-serif" font-size="14" lengthAdjust="spacing" textLength="393" x="42" y="293.3613">NewQueryBuilder(ctx context.Context) interfaces.IQueryBuilder</text></g><!--MD5=[8833f603fefea890694bef68ef08d572]
class YamlGenericTemplateStorage--><g id="elem_YamlGenericTemplateStorage"><rect codeLine="4" fill="#F1F1F1" height="48" id="YamlGenericTemplateStorage" rx="2.5" ry="2.5" style="stroke:#181818;stroke-width:0.5;" width="305" x="341.5" y="42"/><ellipse cx="356.5" cy="58" fill="#ADD1B2" rx="11" ry="11" style="stroke:#181818;stroke-width:1.0;"/><path d="M359.2656,53.875 Q359.4219,53.6563 359.6094,53.5469 Q359.7969,53.4375 360.0156,53.4375 Q360.3906,53.4375 360.625,53.7031 Q360.8594,53.9531 360.8594,54.5625 L360.8594,56.0156 Q360.8594,56.625 360.625,56.8906 Q360.3906,57.1563 360.0156,57.1563 Q359.6719,57.1563 359.4688,56.9531 Q359.2656,56.7656 359.1563,56.25 Q359.1094,55.8906 358.9219,55.7031 Q358.5938,55.3281 357.9844,55.1094 Q357.375,54.8906 356.75,54.8906 Q355.9844,54.8906 355.3438,55.2188 Q354.7188,55.5469 354.2188,56.2969 Q353.7344,57.0469 353.7344,58.0781 L353.7344,59.1719 Q353.7344,60.4063 354.625,61.2344 Q355.5156,62.0469 357.1094,62.0469 Q358.0469,62.0469 358.7031,61.7969 Q359.0938,61.6406 359.5156,61.2031 Q359.7813,60.9375 359.9219,60.8594 Q360.0781,60.7813 360.2813,60.7813 Q360.6094,60.7813 360.8594,61.0469 Q361.125,61.2969 361.125,61.6406 Q361.125,61.9844 360.7813,62.3906 Q360.2813,62.9688 359.4844,63.2969 Q358.4063,63.75 357.1094,63.75 Q355.5938,63.75 354.3906,63.125 Q353.4063,62.625 352.7188,61.5625 Q352.0313,60.4844 352.0313,59.2031 L352.0313,58.0469 Q352.0313,56.7188 352.6406,55.5781 Q353.2656,54.4219 354.3594,53.8125 Q355.4531,53.1875 356.6875,53.1875 Q357.4219,53.1875 358.0625,53.3594 Q358.7188,53.5156 359.2656,53.875 Z " fill="#000000"/><text fill="#000000" font-family="sans-serif" font-size="14" lengthAdjust="spacing" textLength="190" x="370.5" y="63.7285">YamlGenericTemplateStorage</text><rect fill="#FFFFFF" height="17.0938" style="stroke:#000000;stroke-width:1.0;stroke-dasharray:2.0,2.0;" width="81" x="568.5" y="39"/><text fill="#000000" font-family="sans-serif" font-size="12" font-style="italic" lengthAdjust="spacing" textLength="79" x="569.5" y="52.457">TemplateType</text><line style="stroke:#181818;stroke-width:0.5;" x1="342.5" x2="645.5" y1="74" y2="74"/><line style="stroke:#181818;stroke-width:0.5;" x1="342.5" x2="645.5" y1="82" y2="82"/></g><!--MD5=[6716299319294c9c14361b18eac2eaf1]
link YamlGenericTemplateStorage to IGenericTemplateStorage--><g id="link_YamlGenericTemplateStorage_IGenericTemplateStorage"><path codeLine="6" d="M494,90.29 C494,105.01 494,125.06 494,145.43 " fill="none" id="YamlGenericTemplateStorage-to-IGenericTemplateStorage" style="stroke:#181818;stroke-width:1.0;stroke-dasharray:7.0,7.0;"/><polygon fill="none" points="501,145.73,494,165.73,487,145.73,501,145.73" style="stroke:#181818;stroke-width:1.0;"/></g><!--MD5=[0d75bcf56c6249597ce7e76b2cbec01b]
@startuml
!include ../interfaces/IGenericTemplateStorage.puml

package infrastructure {
    class YamlGenericTemplateStorage<TemplateType>

    YamlGenericTemplateStorage .down.|> IGenericTemplateStorage
}
@enduml

@startuml

package app {
    interface IGenericTemplateStorage<TemplateType> {
        +GetByName(ctx context.Context, string name) (*TemplateType, error)
        - -
        +GetList(ctx context.Context, orderBy string, orderDirection string, page int, size int, queryBuilder interfaces.IQueryBuilder) (*[]TemplateType, error)
        - -
        +Count(ctx context.Context, queryBuilder interfaces.IQueryBuilder) (int64, error)
        - -
        +NewQueryBuilder(ctx context.Context) interfaces.IQueryBuilder
    }
}


package infrastructure {
    class YamlGenericTemplateStorage<TemplateType>

    YamlGenericTemplateStorage .down.|> IGenericTemplateStorage
}
@enduml

PlantUML version 1.2022.6(Tue Jun 21 20:34:49 MSK 2022)
(GPL source distribution)
Java Runtime: OpenJDK Runtime Environment
JVM: OpenJDK 64-Bit Server VM
Default Encoding: Cp1251
Language: ru
Country: RU
--></g></svg>