<?xml version="1.0" encoding="UTF-8" standalone="no"?><svg xmlns="http://www.w3.org/2000/svg" xmlns:xlink="http://www.w3.org/1999/xlink" contentStyleType="text/css" height="125px" preserveAspectRatio="none" style="width:178px;height:125px;background:#FFFFFF;" version="1.1" viewBox="0 0 178 125" width="178px" zoomAndPan="magnify"><defs/><g><!--MD5=[a203eca1f0769929ae1344e0135bff6b]
class BaseDto--><g id="elem_BaseDto"><rect codeLine="2" fill="#F1F1F1" height="104.8906" id="BaseDto" rx="2.5" ry="2.5" style="stroke:#181818;stroke-width:0.5;" width="157" x="7" y="7"/><ellipse cx="51.25" cy="23" fill="#ADD1B2" rx="11" ry="11" style="stroke:#181818;stroke-width:1.0;"/><path d="M54.2188,28.6406 Q53.6406,28.9375 53,29.0781 Q52.3594,29.2344 51.6563,29.2344 Q49.1563,29.2344 47.8281,27.5938 Q46.5156,25.9375 46.5156,22.8125 Q46.5156,19.6875 47.8281,18.0313 Q49.1563,16.375 51.6563,16.375 Q52.3594,16.375 53,16.5313 Q53.6563,16.6875 54.2188,16.9844 L54.2188,19.7031 Q53.5938,19.125 53,18.8594 Q52.4063,18.5781 51.7813,18.5781 Q50.4375,18.5781 49.75,19.6563 Q49.0625,20.7188 49.0625,22.8125 Q49.0625,24.9063 49.75,25.9844 Q50.4375,27.0469 51.7813,27.0469 Q52.4063,27.0469 53,26.7813 Q53.5938,26.5 54.2188,25.9219 L54.2188,28.6406 Z " fill="#000000"/><text fill="#000000" font-family="sans-serif" font-size="14" lengthAdjust="spacing" textLength="60" x="71.75" y="27.8467">BaseDto</text><line style="stroke:#181818;stroke-width:0.5;" x1="8" x2="163" y1="39" y2="39"/><text fill="#000000" font-family="sans-serif" font-size="14" lengthAdjust="spacing" textLength="84" x="13" y="55.9951">Id uuid.UUID</text><line style="stroke:#181818;stroke-width:1.0;" x1="8" x2="163" y1="63.2969" y2="63.2969"/><text fill="#000000" font-family="sans-serif" font-size="14" lengthAdjust="spacing" textLength="141" x="13" y="80.292">CreatedAt time.Time</text><line style="stroke:#181818;stroke-width:1.0;" x1="8" x2="163" y1="87.5938" y2="87.5938"/><text fill="#000000" font-family="sans-serif" font-size="14" lengthAdjust="spacing" textLength="145" x="13" y="104.5889">UpdatedAt time.Time</text></g><!--MD5=[7389ed698225675cfbd854f83c889820]
@startuml BaseDto

class BaseDto {
    Id uuid.UUID
    - -
    CreatedAt time.Time
    - -
    UpdatedAt time.Time
}

@enduml

PlantUML version 1.2022.4(Sat Apr 09 13:29:17 UTC 2022)
(GPL source distribution)
Java Runtime: OpenJDK Runtime Environment
JVM: OpenJDK 64-Bit Server VM
Default Encoding: UTF-8
Language: en
Country: null
--></g></svg>