<?xml version="1.0" encoding="UTF-8" standalone="no"?><svg xmlns="http://www.w3.org/2000/svg" xmlns:xlink="http://www.w3.org/1999/xlink" contentStyleType="text/css" height="169px" preserveAspectRatio="none" style="width:217px;height:169px;background:#FFFFFF;" version="1.1" viewBox="0 0 217 169" width="217px" zoomAndPan="magnify"><defs/><g><!--MD5=[ac65c812e7532cbcd7b9effd958b962e]
cluster dtos--><g id="cluster_dtos"><path d="M8.5,6 L44.5,6 A3.75,3.75 0 0 1 47,8.5 L54,28.2969 L207.5,28.2969 A2.5,2.5 0 0 1 210,30.7969 L210,159.5 A2.5,2.5 0 0 1 207.5,162 L8.5,162 A2.5,2.5 0 0 1 6,159.5 L6,8.5 A2.5,2.5 0 0 1 8.5,6 " style="stroke:#000000;stroke-width:1.5;fill:none;"/><line style="stroke:#000000;stroke-width:1.5;fill:none;" x1="6" x2="54" y1="28.2969" y2="28.2969"/><text fill="#000000" font-family="sans-serif" font-size="14" font-weight="bold" lengthAdjust="spacing" textLength="35" x="10" y="20.9951">dtos</text></g><!--MD5=[a203eca1f0769929ae1344e0135bff6b]
class BaseDto--><g id="elem_BaseDto"><rect codeLine="3" fill="#F1F1F1" height="104.8906" id="BaseDto" rx="2.5" ry="2.5" style="stroke:#181818;stroke-width:0.5;" width="171" x="22.5" y="41"/><ellipse cx="51.9" cy="57" fill="#ADD1B2" rx="11" ry="11" style="stroke:#181818;stroke-width:1.0;"/><path d="M54.8688,62.6406 Q54.2906,62.9375 53.65,63.0781 Q53.0094,63.2344 52.3063,63.2344 Q49.8063,63.2344 48.4781,61.5938 Q47.1656,59.9375 47.1656,56.8125 Q47.1656,53.6875 48.4781,52.0313 Q49.8063,50.375 52.3063,50.375 Q53.0094,50.375 53.65,50.5313 Q54.3063,50.6875 54.8688,50.9844 L54.8688,53.7031 Q54.2438,53.125 53.65,52.8594 Q53.0563,52.5781 52.4313,52.5781 Q51.0875,52.5781 50.4,53.6563 Q49.7125,54.7188 49.7125,56.8125 Q49.7125,58.9063 50.4,59.9844 Q51.0875,61.0469 52.4313,61.0469 Q53.0563,61.0469 53.65,60.7813 Q54.2438,60.5 54.8688,59.9219 L54.8688,62.6406 Z " fill="#000000"/><text fill="#000000" font-family="sans-serif" font-size="14" lengthAdjust="spacing" textLength="60" x="69.1" y="61.8467">BaseDto</text><rect fill="#FFFFFF" height="15.9688" style="stroke:#000000;stroke-width:1.0;stroke-dasharray:2.0,2.0;" width="45" x="151.5" y="38"/><text fill="#000000" font-family="sans-serif" font-size="12" font-style="italic" lengthAdjust="spacing" textLength="43" x="152.5" y="50.1387">IDType</text><line style="stroke:#181818;stroke-width:0.5;" x1="23.5" x2="192.5" y1="73" y2="73"/><ellipse cx="33.5" cy="84" fill="none" rx="3" ry="3" style="stroke:#038048;stroke-width:1.0;"/><text fill="#000000" font-family="sans-serif" font-size="14" lengthAdjust="spacing" textLength="66" x="42.5" y="89.9951">ID IDType</text><line style="stroke:#181818;stroke-width:1.0;" x1="23.5" x2="192.5" y1="97.2969" y2="97.2969"/><ellipse cx="33.5" cy="108.2969" fill="none" rx="3" ry="3" style="stroke:#038048;stroke-width:1.0;"/><text fill="#000000" font-family="sans-serif" font-size="14" lengthAdjust="spacing" textLength="141" x="42.5" y="114.292">CreatedAt time.Time</text><line style="stroke:#181818;stroke-width:1.0;" x1="23.5" x2="192.5" y1="121.5938" y2="121.5938"/><ellipse cx="33.5" cy="132.5938" fill="none" rx="3" ry="3" style="stroke:#038048;stroke-width:1.0;"/><text fill="#000000" font-family="sans-serif" font-size="14" lengthAdjust="spacing" textLength="145" x="42.5" y="138.5889">UpdatedAt time.Time</text></g><!--MD5=[8de21a4d225ef5a7e527cdcad712dec0]
@startuml BaseDto

package dtos {
    class BaseDto<IDType> {
        +ID IDType
        - -
        +CreatedAt time.Time
        - -
        +UpdatedAt time.Time
    }
}

@enduml

PlantUML version 1.2022.6(Tue Jun 21 17:34:49 EGST 2022)
(GPL source distribution)
Java Runtime: OpenJDK Runtime Environment
JVM: OpenJDK 64-Bit Server VM
Default Encoding: UTF-8
Language: en
Country: US
--></g></svg>