<?xml version="1.0" encoding="UTF-8" standalone="no"?><svg xmlns="http://www.w3.org/2000/svg" xmlns:xlink="http://www.w3.org/1999/xlink" contentStyleType="text/css" height="341px" preserveAspectRatio="none" style="width:312px;height:341px;background:#FFFFFF;" version="1.1" viewBox="0 0 312 341" width="312px" zoomAndPan="magnify"><defs/><g><!--MD5=[ac65c812e7532cbcd7b9effd958b962e]
cluster dtos--><g id="cluster_dtos"><path d="M8.5,6 L44.5,6 A3.75,3.75 0 0 1 47,8.5 L54,28.2969 L275.5,28.2969 A2.5,2.5 0 0 1 278,30.7969 L278,331.5 A2.5,2.5 0 0 1 275.5,334 L8.5,334 A2.5,2.5 0 0 1 6,331.5 L6,8.5 A2.5,2.5 0 0 1 8.5,6 " style="stroke:#000000;stroke-width:1.5;fill:none;"/><line style="stroke:#000000;stroke-width:1.5;fill:none;" x1="6" x2="54" y1="28.2969" y2="28.2969"/><text fill="#000000" font-family="sans-serif" font-size="14" font-weight="bold" lengthAdjust="spacing" textLength="35" x="10" y="20.9951">dtos</text></g><!--MD5=[d46bc420bde0ffd24884e35238348361]
class PaginationInfoDto--><g id="elem_PaginationInfoDto"><rect codeLine="3" fill="#F1F1F1" height="129.1875" id="PaginationInfoDto" rx="2.5" ry="2.5" style="stroke:#181818;stroke-width:0.5;" width="154" x="65" y="189"/><ellipse cx="80" cy="205" fill="#ADD1B2" rx="11" ry="11" style="stroke:#181818;stroke-width:1.0;"/><path d="M82.9688,210.6406 Q82.3906,210.9375 81.75,211.0781 Q81.1094,211.2344 80.4063,211.2344 Q77.9063,211.2344 76.5781,209.5938 Q75.2656,207.9375 75.2656,204.8125 Q75.2656,201.6875 76.5781,200.0313 Q77.9063,198.375 80.4063,198.375 Q81.1094,198.375 81.75,198.5313 Q82.4063,198.6875 82.9688,198.9844 L82.9688,201.7031 Q82.3438,201.125 81.75,200.8594 Q81.1563,200.5781 80.5313,200.5781 Q79.1875,200.5781 78.5,201.6563 Q77.8125,202.7188 77.8125,204.8125 Q77.8125,206.9063 78.5,207.9844 Q79.1875,209.0469 80.5313,209.0469 Q81.1563,209.0469 81.75,208.7813 Q82.3438,208.5 82.9688,207.9219 L82.9688,210.6406 Z " fill="#000000"/><text fill="#000000" font-family="sans-serif" font-size="14" lengthAdjust="spacing" textLength="122" x="94" y="209.8467">PaginationInfoDto</text><line style="stroke:#181818;stroke-width:0.5;" x1="66" x2="218" y1="221" y2="221"/><ellipse cx="76" cy="232" fill="none" rx="3" ry="3" style="stroke:#038048;stroke-width:1.0;"/><text fill="#000000" font-family="sans-serif" font-size="14" lengthAdjust="spacing" textLength="56" x="85" y="237.9951">Page int</text><line style="stroke:#181818;stroke-width:1.0;" x1="66" x2="218" y1="245.2969" y2="245.2969"/><ellipse cx="76" cy="256.2969" fill="none" rx="3" ry="3" style="stroke:#038048;stroke-width:1.0;"/><text fill="#000000" font-family="sans-serif" font-size="14" lengthAdjust="spacing" textLength="50" x="85" y="262.292">Size int</text><line style="stroke:#181818;stroke-width:1.0;" x1="66" x2="218" y1="269.5938" y2="269.5938"/><ellipse cx="76" cy="280.5938" fill="none" rx="3" ry="3" style="stroke:#038048;stroke-width:1.0;"/><text fill="#000000" font-family="sans-serif" font-size="14" lengthAdjust="spacing" textLength="97" x="85" y="286.5889">TotalCount int</text><line style="stroke:#181818;stroke-width:1.0;" x1="66" x2="218" y1="293.8906" y2="293.8906"/><ellipse cx="76" cy="304.8906" fill="none" rx="3" ry="3" style="stroke:#038048;stroke-width:1.0;"/><text fill="#000000" font-family="sans-serif" font-size="14" lengthAdjust="spacing" textLength="98" x="85" y="310.8857">TotalPages int</text></g><!--MD5=[b453a19c7653fd3d62d1ce95e6487d06]
class PaginatedItemsDto--><g id="elem_PaginatedItemsDto"><rect codeLine="12" fill="#F1F1F1" height="80.5938" id="PaginatedItemsDto" rx="2.5" ry="2.5" style="stroke:#181818;stroke-width:0.5;" width="224" x="30" y="45"/><ellipse cx="46.8" cy="61" fill="#ADD1B2" rx="11" ry="11" style="stroke:#181818;stroke-width:1.0;"/><path d="M49.7688,66.6406 Q49.1906,66.9375 48.55,67.0781 Q47.9094,67.2344 47.2063,67.2344 Q44.7063,67.2344 43.3781,65.5938 Q42.0656,63.9375 42.0656,60.8125 Q42.0656,57.6875 43.3781,56.0313 Q44.7063,54.375 47.2063,54.375 Q47.9094,54.375 48.55,54.5313 Q49.2063,54.6875 49.7688,54.9844 L49.7688,57.7031 Q49.1438,57.125 48.55,56.8594 Q47.9563,56.5781 47.3313,56.5781 Q45.9875,56.5781 45.3,57.6563 Q44.6125,58.7188 44.6125,60.8125 Q44.6125,62.9063 45.3,63.9844 Q45.9875,65.0469 47.3313,65.0469 Q47.9563,65.0469 48.55,64.7813 Q49.1438,64.5 49.7688,63.9219 L49.7688,66.6406 Z " fill="#000000"/><text fill="#000000" font-family="sans-serif" font-size="14" lengthAdjust="spacing" textLength="132" x="61.2" y="65.8467">PaginatedItemsDto</text><rect fill="#FFFFFF" height="15.9688" style="stroke:#000000;stroke-width:1.0;stroke-dasharray:2.0,2.0;" width="54" x="203" y="42"/><text fill="#000000" font-family="sans-serif" font-size="12" font-style="italic" lengthAdjust="spacing" textLength="52" x="204" y="54.1387">DtoType</text><line style="stroke:#181818;stroke-width:0.5;" x1="31" x2="253" y1="77" y2="77"/><ellipse cx="41" cy="88" fill="none" rx="3" ry="3" style="stroke:#038048;stroke-width:1.0;"/><text fill="#000000" font-family="sans-serif" font-size="14" lengthAdjust="spacing" textLength="198" x="50" y="93.9951">Pagination PaginationInfoDto</text><line style="stroke:#181818;stroke-width:1.0;" x1="31" x2="253" y1="101.2969" y2="101.2969"/><ellipse cx="41" cy="112.2969" fill="none" rx="3" ry="3" style="stroke:#038048;stroke-width:1.0;"/><text fill="#000000" font-family="sans-serif" font-size="14" lengthAdjust="spacing" textLength="111" x="50" y="118.292">Items []DtoType</text></g><!--MD5=[aaae3553d10e7af46b02c90251fbd3d7]
link PaginatedItemsDto to PaginationInfoDto--><g id="link_PaginatedItemsDto_PaginationInfoDto"><path codeLine="17" d="M255,89 C305.72,89 260.93,142.91 213.6,188.82 " fill="none" id="PaginatedItemsDto-PaginationInfoDto" style="stroke:#181818;stroke-width:1.0;"/></g><!--MD5=[22a1b82f2da2d68f70f194e08df6b555]
@startuml

package dtos {
    class PaginationInfoDto {
        +Page int
        - -
        +Size int
        - -
        +TotalCount int
        - -
        +TotalPages int
    }
    class PaginatedItemsDto<DtoType> {
        +Pagination PaginationInfoDto
        - -
        +Items []DtoType
    }
    PaginatedItemsDto::Pagination - - PaginationInfoDto
}

@enduml

PlantUML version 1.2022.6(Tue Jun 21 17:34:49 EGST 2022)
(GPL source distribution)
Java Runtime: OpenJDK Runtime Environment
JVM: OpenJDK 64-Bit Server VM
Default Encoding: UTF-8
Language: en
Country: US
--></g></svg>