<?xml version="1.0" encoding="UTF-8" standalone="no"?><svg xmlns="http://www.w3.org/2000/svg" xmlns:xlink="http://www.w3.org/1999/xlink" contentStyleType="text/css" height="1616px" preserveAspectRatio="none" style="width:2383px;height:1616px;background:#FFFFFF;" version="1.1" viewBox="0 0 2383 1616" width="2383px" zoomAndPan="magnify"><defs/><g><!--MD5=[d5ac3844f66b12d9e08170e47495e096]
cluster app--><g id="cluster_app"><path d="M8.5,570 L35.5,570 A3.75,3.75 0 0 1 38,572.5 L45,593.6094 L1714.5,593.6094 A2.5,2.5 0 0 1 1717,596.1094 L1717,1606.5 A2.5,2.5 0 0 1 1714.5,1609 L8.5,1609 A2.5,2.5 0 0 1 6,1606.5 L6,572.5 A2.5,2.5 0 0 1 8.5,570 " style="stroke:#000000;stroke-width:1.5;fill:none;"/><line style="stroke:#000000;stroke-width:1.5;fill:none;" x1="6" x2="45" y1="593.6094" y2="593.6094"/><text fill="#000000" font-family="sans-serif" font-size="14" font-weight="bold" lengthAdjust="spacing" textLength="26" x="10" y="586.5332">app</text></g><!--MD5=[27f772719433d509ddbc20ff768eba08]
cluster domain--><g id="cluster_domain"><path d="M116.5,6 L168.5,6 A3.75,3.75 0 0 1 171,8.5 L178,29.6094 L480.5,29.6094 A2.5,2.5 0 0 1 483,32.1094 L483,435.5 A2.5,2.5 0 0 1 480.5,438 L116.5,438 A2.5,2.5 0 0 1 114,435.5 L114,8.5 A2.5,2.5 0 0 1 116.5,6 " style="stroke:#000000;stroke-width:1.5;fill:none;"/><line style="stroke:#000000;stroke-width:1.5;fill:none;" x1="114" x2="178" y1="29.6094" y2="29.6094"/><text fill="#000000" font-family="sans-serif" font-size="14" font-weight="bold" lengthAdjust="spacing" textLength="51" x="118" y="22.5332">domain</text></g><!--MD5=[77349be1bd27b81b697a0f9b3aded3c8]
cluster infrastructure--><g id="cluster_infrastructure"><path d="M1104.5,75 L1202.5,75 A3.75,3.75 0 0 1 1205,77.5 L1212,98.6094 L1377.5,98.6094 A2.5,2.5 0 0 1 1380,101.1094 L1380,543.5 A2.5,2.5 0 0 1 1377.5,546 L1104.5,546 A2.5,2.5 0 0 1 1102,543.5 L1102,77.5 A2.5,2.5 0 0 1 1104.5,75 " style="stroke:#000000;stroke-width:1.5;fill:none;"/><line style="stroke:#000000;stroke-width:1.5;fill:none;" x1="1102" x2="1212" y1="98.6094" y2="98.6094"/><text fill="#000000" font-family="sans-serif" font-size="14" font-weight="bold" lengthAdjust="spacing" textLength="97" x="1106" y="91.5332">infrastructure</text></g><!--MD5=[ac65c812e7532cbcd7b9effd958b962e]
cluster dtos--><g id="cluster_dtos"><path d="M1743.5,1227.5 L1775.5,1227.5 A3.75,3.75 0 0 1 1778,1230 L1785,1251.1094 L2373.5,1251.1094 A2.5,2.5 0 0 1 2376,1253.6094 L2376,1595.5 A2.5,2.5 0 0 1 2373.5,1598 L1743.5,1598 A2.5,2.5 0 0 1 1741,1595.5 L1741,1230 A2.5,2.5 0 0 1 1743.5,1227.5 " style="stroke:#000000;stroke-width:1.5;fill:none;"/><line style="stroke:#000000;stroke-width:1.5;fill:none;" x1="1741" x2="1785" y1="1251.1094" y2="1251.1094"/><text fill="#000000" font-family="sans-serif" font-size="14" font-weight="bold" lengthAdjust="spacing" textLength="31" x="1745" y="1244.0332">dtos</text></g><!--MD5=[7c0ed5f9a527ab221a5373ebedcc681c]
class IGenericService--><g id="elem_IGenericService"><rect codeLine="3" fill="#F1F1F1" height="160.0469" id="IGenericService" rx="2.5" ry="2.5" style="stroke:#181818;stroke-width:0.5;" width="829" x="871.5" y="1422"/><ellipse cx="1084.75" cy="1438" fill="#B4A7E5" rx="11" ry="11" style="stroke:#181818;stroke-width:1.0;"/><path d="M1085.7031,1434.6406 L1085.7031,1441.2969 L1087.4219,1441.2969 Q1088.0313,1441.2969 1088.2969,1441.5313 Q1088.5625,1441.7656 1088.5625,1442.1563 Q1088.5625,1442.5313 1088.2969,1442.7656 Q1088.0313,1443 1087.4219,1443 L1082.2813,1443 Q1081.6719,1443 1081.4063,1442.7656 Q1081.1406,1442.5313 1081.1406,1442.1406 Q1081.1406,1441.7656 1081.4063,1441.5313 Q1081.6719,1441.2969 1082.2813,1441.2969 L1084,1441.2969 L1084,1434.6406 L1082.2813,1434.6406 Q1081.6719,1434.6406 1081.4063,1434.4063 Q1081.1406,1434.1719 1081.1406,1433.7813 Q1081.1406,1433.4063 1081.4063,1433.1719 Q1081.6719,1432.9375 1082.2813,1432.9375 L1087.4219,1432.9375 Q1088.0313,1432.9375 1088.2969,1433.1719 Q1088.5625,1433.4063 1088.5625,1433.7813 Q1088.5625,1434.1719 1088.2969,1434.4063 Q1088.0313,1434.6406 1087.4219,1434.6406 L1085.7031,1434.6406 Z " fill="#000000"/><text fill="#000000" font-family="sans-serif" font-size="14" font-style="italic" lengthAdjust="spacing" textLength="100" x="1105.25" y="1443.7285">IGenericService</text><rect fill="#FFFFFF" height="17.0938" style="stroke:#000000;stroke-width:1.0;stroke-dasharray:2.0,2.0;" width="292" x="1411.5" y="1419"/><text fill="#000000" font-family="sans-serif" font-size="12" font-style="italic" lengthAdjust="spacing" textLength="290" x="1412.5" y="1432.457">EntityType, CreateDtoType, UpdateDtoType, DtoType</text><line style="stroke:#181818;stroke-width:0.5;" x1="872.5" x2="1699.5" y1="1454" y2="1454"/><ellipse cx="882.5" cy="1465" fill="#84BE84" rx="3" ry="3" style="stroke:#038048;stroke-width:1.0;"/><text fill="#000000" font-family="sans-serif" font-size="14" lengthAdjust="spacing" textLength="803" x="891.5" y="1472.5332">GetList(ctx context.Context, search, orderBy, orderDirection string, page, pageSize int) (*dtos.PaginatedListDto[DtoType], error)</text><line style="stroke:#181818;stroke-width:1.0;" x1="872.5" x2="1699.5" y1="1479.6094" y2="1479.6094"/><ellipse cx="882.5" cy="1490.6094" fill="#84BE84" rx="3" ry="3" style="stroke:#038048;stroke-width:1.0;"/><text fill="#000000" font-family="sans-serif" font-size="14" lengthAdjust="spacing" textLength="375" x="891.5" y="1498.1426">GetById(ctx context.Context, id uuid.UUID) (*DtoType, error)</text><line style="stroke:#181818;stroke-width:1.0;" x1="872.5" x2="1699.5" y1="1505.2188" y2="1505.2188"/><ellipse cx="882.5" cy="1516.2188" fill="#84BE84" rx="3" ry="3" style="stroke:#038048;stroke-width:1.0;"/><text fill="#000000" font-family="sans-serif" font-size="14" lengthAdjust="spacing" textLength="470" x="891.5" y="1523.752">Update(ctx context.Context, updateDto UpdateDtoType, id uuid.UUID) error</text><line style="stroke:#181818;stroke-width:1.0;" x1="872.5" x2="1699.5" y1="1530.8281" y2="1530.8281"/><ellipse cx="882.5" cy="1541.8281" fill="#84BE84" rx="3" ry="3" style="stroke:#038048;stroke-width:1.0;"/><text fill="#000000" font-family="sans-serif" font-size="14" lengthAdjust="spacing" textLength="457" x="891.5" y="1549.3613">Create(ctx context.Context, createDto CreateDtoType) (uuid.UUID, error)</text><line style="stroke:#181818;stroke-width:1.0;" x1="872.5" x2="1699.5" y1="1556.4375" y2="1556.4375"/><ellipse cx="882.5" cy="1567.4375" fill="#84BE84" rx="3" ry="3" style="stroke:#038048;stroke-width:1.0;"/><text fill="#000000" font-family="sans-serif" font-size="14" lengthAdjust="spacing" textLength="289" x="891.5" y="1574.9707">Delete(ctx context.Context, id uuid.UUID) error</text></g><path d="M510,1411 L510,1437.3516 A0,0 0 0 0 510,1437.3516 L802,1437.3516 A0,0 0 0 0 802,1437.3516 L802,1429 L875.5,1466.8047 L802,1421 L802,1421 L792,1411 L510,1411 A0,0 0 0 0 510,1411 " fill="#FEFFDD" style="stroke:#181818;stroke-width:0.5;"/><path d="M792,1411 L792,1421 L802,1421 L792,1411 " fill="#FEFFDD" style="stroke:#181818;stroke-width:0.5;"/><text fill="#000000" font-family="sans-serif" font-size="13" lengthAdjust="spacing" textLength="271" x="516" y="1429.4951">Get list of elements with search and pagination</text><path d="M510,1447.3516 L510,1473.7031 A0,0 0 0 0 510,1473.7031 L695,1473.7031 A0,0 0 0 0 695,1473.7031 L695,1465.3516 L875.5,1492.4141 L695,1457.3516 L695,1457.3516 L685,1447.3516 L510,1447.3516 A0,0 0 0 0 510,1447.3516 " fill="#FEFFDD" style="stroke:#181818;stroke-width:0.5;"/><path d="M685,1447.3516 L685,1457.3516 L695,1457.3516 L685,1447.3516 " fill="#FEFFDD" style="stroke:#181818;stroke-width:0.5;"/><text fill="#000000" font-family="sans-serif" font-size="13" lengthAdjust="spacing" textLength="164" x="516" y="1465.8467">Get entity by ID from service</text><path d="M510,1483.7031 L510,1510.0547 A0,0 0 0 0 510,1510.0547 L836,1510.0547 A0,0 0 0 0 836,1510.0547 L836,1501.7031 L875.5,1518.0234 L836,1493.7031 L836,1493.7031 L826,1483.7031 L510,1483.7031 A0,0 0 0 0 510,1483.7031 " fill="#FEFFDD" style="stroke:#181818;stroke-width:0.5;"/><path d="M826,1483.7031 L826,1493.7031 L836,1493.7031 L826,1483.7031 " fill="#FEFFDD" style="stroke:#181818;stroke-width:0.5;"/><text fill="#000000" font-family="sans-serif" font-size="13" lengthAdjust="spacing" textLength="305" x="516" y="1502.1982">Save the changes to the existing entity in the service</text><path d="M510,1520.0547 L510,1546.4063 A0,0 0 0 0 510,1546.4063 L671,1546.4063 A0,0 0 0 0 671,1546.4063 L671,1538.0547 L875.5,1543.6328 L671,1530.0547 L671,1530.0547 L661,1520.0547 L510,1520.0547 A0,0 0 0 0 510,1520.0547 " fill="#FEFFDD" style="stroke:#181818;stroke-width:0.5;"/><path d="M661,1520.0547 L661,1530.0547 L671,1530.0547 L661,1520.0547 " fill="#FEFFDD" style="stroke:#181818;stroke-width:0.5;"/><text fill="#000000" font-family="sans-serif" font-size="13" lengthAdjust="spacing" textLength="140" x="516" y="1538.5498">Add entity to the service</text><path d="M510,1556.4063 L510,1582.7578 A0,0 0 0 0 510,1582.7578 L678,1582.7578 A0,0 0 0 0 678,1582.7578 L678,1574.4063 L875.5,1569.2422 L678,1566.4063 L678,1566.4063 L668,1556.4063 L510,1556.4063 A0,0 0 0 0 510,1556.4063 " fill="#FEFFDD" style="stroke:#181818;stroke-width:0.5;"/><path d="M668,1556.4063 L668,1566.4063 L678,1566.4063 L668,1556.4063 " fill="#FEFFDD" style="stroke:#181818;stroke-width:0.5;"/><text fill="#000000" font-family="sans-serif" font-size="13" lengthAdjust="spacing" textLength="147" x="516" y="1574.9014">Mark an entity as deleted</text><!--MD5=[356bca08515a5260142359877c3882a6]
class GenericService--><g id="elem_GenericService"><rect codeLine="4" fill="#F1F1F1" height="108.8281" id="GenericService" rx="2.5" ry="2.5" style="stroke:#181818;stroke-width:0.5;" width="423" x="1175.5" y="1242"/><ellipse cx="1190.5" cy="1258" fill="#ADD1B2" rx="11" ry="11" style="stroke:#181818;stroke-width:1.0;"/><path d="M1193.2656,1253.875 Q1193.4219,1253.6563 1193.6094,1253.5469 Q1193.7969,1253.4375 1194.0156,1253.4375 Q1194.3906,1253.4375 1194.625,1253.7031 Q1194.8594,1253.9531 1194.8594,1254.5625 L1194.8594,1256.0156 Q1194.8594,1256.625 1194.625,1256.8906 Q1194.3906,1257.1563 1194.0156,1257.1563 Q1193.6719,1257.1563 1193.4688,1256.9531 Q1193.2656,1256.7656 1193.1563,1256.25 Q1193.1094,1255.8906 1192.9219,1255.7031 Q1192.5938,1255.3281 1191.9844,1255.1094 Q1191.375,1254.8906 1190.75,1254.8906 Q1189.9844,1254.8906 1189.3438,1255.2188 Q1188.7188,1255.5469 1188.2188,1256.2969 Q1187.7344,1257.0469 1187.7344,1258.0781 L1187.7344,1259.1719 Q1187.7344,1260.4063 1188.625,1261.2344 Q1189.5156,1262.0469 1191.1094,1262.0469 Q1192.0469,1262.0469 1192.7031,1261.7969 Q1193.0938,1261.6406 1193.5156,1261.2031 Q1193.7813,1260.9375 1193.9219,1260.8594 Q1194.0781,1260.7813 1194.2813,1260.7813 Q1194.6094,1260.7813 1194.8594,1261.0469 Q1195.125,1261.2969 1195.125,1261.6406 Q1195.125,1261.9844 1194.7813,1262.3906 Q1194.2813,1262.9688 1193.4844,1263.2969 Q1192.4063,1263.75 1191.1094,1263.75 Q1189.5938,1263.75 1188.3906,1263.125 Q1187.4063,1262.625 1186.7188,1261.5625 Q1186.0313,1260.4844 1186.0313,1259.2031 L1186.0313,1258.0469 Q1186.0313,1256.7188 1186.6406,1255.5781 Q1187.2656,1254.4219 1188.3594,1253.8125 Q1189.4531,1253.1875 1190.6875,1253.1875 Q1191.4219,1253.1875 1192.0625,1253.3594 Q1192.7188,1253.5156 1193.2656,1253.875 Z " fill="#000000"/><text fill="#000000" font-family="sans-serif" font-size="14" lengthAdjust="spacing" textLength="97" x="1204.5" y="1263.7285">GenericService</text><rect fill="#FFFFFF" height="17.0938" style="stroke:#000000;stroke-width:1.0;stroke-dasharray:2.0,2.0;" width="292" x="1309.5" y="1239"/><text fill="#000000" font-family="sans-serif" font-size="12" font-style="italic" lengthAdjust="spacing" textLength="290" x="1310.5" y="1252.457">EntityType, CreateDtoType, UpdateDtoType, DtoType</text><line style="stroke:#181818;stroke-width:0.5;" x1="1176.5" x2="1597.5" y1="1274" y2="1274"/><rect fill="none" height="6" style="stroke:#C82930;stroke-width:1.0;" width="6" x="1183.5" y="1282"/><text fill="#000000" font-family="sans-serif" font-size="14" lengthAdjust="spacing" textLength="271" x="1195.5" y="1292.5332">repository IGenericRepository&lt;EntityType&gt;</text><line style="stroke:#181818;stroke-width:1.0;" x1="1176.5" x2="1597.5" y1="1299.6094" y2="1299.6094"/><rect fill="none" height="6" style="stroke:#C82930;stroke-width:1.0;" width="6" x="1183.5" y="1307.6094"/><text fill="#000000" font-family="sans-serif" font-size="14" lengthAdjust="spacing" textLength="137" x="1195.5" y="1318.1426">logger *logrus.Logger</text><line style="stroke:#181818;stroke-width:1.0;" x1="1176.5" x2="1597.5" y1="1325.2188" y2="1325.2188"/><rect fill="none" height="6" style="stroke:#C82930;stroke-width:1.0;" width="6" x="1183.5" y="1333.2188"/><text fill="#000000" font-family="sans-serif" font-size="14" lengthAdjust="spacing" textLength="139" x="1195.5" y="1343.752">logSourceName string</text></g><!--MD5=[2a39a5be1cc24ddddd6e6286e4ece992]
class IEntityModel--><g id="elem_IEntityModel"><rect codeLine="3" fill="#F1F1F1" height="65.6094" id="IEntityModel" rx="2.5" ry="2.5" style="stroke:#181818;stroke-width:0.5;" width="138" x="229" y="718.5"/><ellipse cx="256.6" cy="734.5" fill="#B4A7E5" rx="11" ry="11" style="stroke:#181818;stroke-width:1.0;"/><path d="M257.5531,731.1406 L257.5531,737.7969 L259.2719,737.7969 Q259.8813,737.7969 260.1469,738.0313 Q260.4125,738.2656 260.4125,738.6563 Q260.4125,739.0313 260.1469,739.2656 Q259.8813,739.5 259.2719,739.5 L254.1313,739.5 Q253.5219,739.5 253.2563,739.2656 Q252.9906,739.0313 252.9906,738.6406 Q252.9906,738.2656 253.2563,738.0313 Q253.5219,737.7969 254.1313,737.7969 L255.85,737.7969 L255.85,731.1406 L254.1313,731.1406 Q253.5219,731.1406 253.2563,730.9063 Q252.9906,730.6719 252.9906,730.2813 Q252.9906,729.9063 253.2563,729.6719 Q253.5219,729.4375 254.1313,729.4375 L259.2719,729.4375 Q259.8813,729.4375 260.1469,729.6719 Q260.4125,729.9063 260.4125,730.2813 Q260.4125,730.6719 260.1469,730.9063 Q259.8813,731.1406 259.2719,731.1406 L257.5531,731.1406 Z " fill="#000000"/><text fill="#000000" font-family="sans-serif" font-size="14" font-style="italic" lengthAdjust="spacing" textLength="78" x="273.4" y="740.2285">IEntityModel</text><line style="stroke:#181818;stroke-width:0.5;" x1="230" x2="366" y1="750.5" y2="750.5"/><line style="stroke:#181818;stroke-width:0.5;" x1="230" x2="366" y1="758.5" y2="758.5"/><ellipse cx="240" cy="769.5" fill="#84BE84" rx="3" ry="3" style="stroke:#038048;stroke-width:1.0;"/><text fill="#000000" font-family="sans-serif" font-size="14" lengthAdjust="spacing" textLength="112" x="249" y="777.0332">GetID() uuid.UUID</text></g><!--MD5=[01906ac0e62f22b4e38e996248db568e]
class IEntityModelDeletedAt--><g id="elem_IEntityModelDeletedAt"><rect codeLine="3" fill="#F1F1F1" height="65.6094" id="IEntityModelDeletedAt" rx="2.5" ry="2.5" style="stroke:#181818;stroke-width:0.5;" width="172" x="22" y="718.5"/><ellipse cx="37" cy="734.5" fill="#B4A7E5" rx="11" ry="11" style="stroke:#181818;stroke-width:1.0;"/><path d="M37.9531,731.1406 L37.9531,737.7969 L39.6719,737.7969 Q40.2813,737.7969 40.5469,738.0313 Q40.8125,738.2656 40.8125,738.6563 Q40.8125,739.0313 40.5469,739.2656 Q40.2813,739.5 39.6719,739.5 L34.5313,739.5 Q33.9219,739.5 33.6563,739.2656 Q33.3906,739.0313 33.3906,738.6406 Q33.3906,738.2656 33.6563,738.0313 Q33.9219,737.7969 34.5313,737.7969 L36.25,737.7969 L36.25,731.1406 L34.5313,731.1406 Q33.9219,731.1406 33.6563,730.9063 Q33.3906,730.6719 33.3906,730.2813 Q33.3906,729.9063 33.6563,729.6719 Q33.9219,729.4375 34.5313,729.4375 L39.6719,729.4375 Q40.2813,729.4375 40.5469,729.6719 Q40.8125,729.9063 40.8125,730.2813 Q40.8125,730.6719 40.5469,730.9063 Q40.2813,731.1406 39.6719,731.1406 L37.9531,731.1406 Z " fill="#000000"/><text fill="#000000" font-family="sans-serif" font-size="14" font-style="italic" lengthAdjust="spacing" textLength="140" x="51" y="740.2285">IEntityModelDeletedAt</text><line style="stroke:#181818;stroke-width:0.5;" x1="23" x2="193" y1="750.5" y2="750.5"/><line style="stroke:#181818;stroke-width:0.5;" x1="23" x2="193" y1="758.5" y2="758.5"/><ellipse cx="33" cy="769.5" fill="#84BE84" rx="3" ry="3" style="stroke:#038048;stroke-width:1.0;"/><text fill="#000000" font-family="sans-serif" font-size="14" lengthAdjust="spacing" textLength="80" x="42" y="777.0332">SetDeleted()</text></g><g id="elem_GMN599"><path d="M22.5,980.5 L22.5,1023.2031 A0,0 0 0 0 22.5,1023.2031 L341.5,1023.2031 A0,0 0 0 0 341.5,1023.2031 L341.5,990.5 L331.5,980.5 L179.87,980.5 L117.6,784.73 L171.87,980.5 L22.5,980.5 A0,0 0 0 0 22.5,980.5 " fill="#FEFFDD" style="stroke:#181818;stroke-width:0.5;"/><path d="M331.5,980.5 L331.5,990.5 L341.5,990.5 L331.5,980.5 " fill="#FEFFDD" style="stroke:#181818;stroke-width:0.5;"/><text fill="#000000" font-family="sans-serif" font-size="13" lengthAdjust="spacing" textLength="98" x="28.5" y="998.9951">Set deletion time</text><text fill="#000000" font-family="sans-serif" font-size="13" lengthAdjust="spacing" textLength="298" x="28.5" y="1015.3467">This method marks that the entity has been deleted</text></g><!--MD5=[b3e0f8dcddb1b27f071a0303a68762bf]
class IGenericRepository--><g id="elem_IGenericRepository"><rect codeLine="3" fill="#F1F1F1" height="236.875" id="IGenericRepository" rx="2.5" ry="2.5" style="stroke:#181818;stroke-width:0.5;" width="920" x="781" y="633"/><ellipse cx="1145.25" cy="649" fill="#B4A7E5" rx="11" ry="11" style="stroke:#181818;stroke-width:1.0;"/><path d="M1146.2031,645.6406 L1146.2031,652.2969 L1147.9219,652.2969 Q1148.5313,652.2969 1148.7969,652.5313 Q1149.0625,652.7656 1149.0625,653.1563 Q1149.0625,653.5313 1148.7969,653.7656 Q1148.5313,654 1147.9219,654 L1142.7813,654 Q1142.1719,654 1141.9063,653.7656 Q1141.6406,653.5313 1141.6406,653.1406 Q1141.6406,652.7656 1141.9063,652.5313 Q1142.1719,652.2969 1142.7813,652.2969 L1144.5,652.2969 L1144.5,645.6406 L1142.7813,645.6406 Q1142.1719,645.6406 1141.9063,645.4063 Q1141.6406,645.1719 1141.6406,644.7813 Q1141.6406,644.4063 1141.9063,644.1719 Q1142.1719,643.9375 1142.7813,643.9375 L1147.9219,643.9375 Q1148.5313,643.9375 1148.7969,644.1719 Q1149.0625,644.4063 1149.0625,644.7813 Q1149.0625,645.1719 1148.7969,645.4063 Q1148.5313,645.6406 1147.9219,645.6406 L1146.2031,645.6406 Z " fill="#000000"/><text fill="#000000" font-family="sans-serif" font-size="14" font-style="italic" lengthAdjust="spacing" textLength="122" x="1165.75" y="654.7285">IGenericRepository</text><rect fill="#FFFFFF" height="17.0938" style="stroke:#000000;stroke-width:1.0;stroke-dasharray:2.0,2.0;" width="59" x="1645" y="630"/><text fill="#000000" font-family="sans-serif" font-size="12" font-style="italic" lengthAdjust="spacing" textLength="57" x="1646" y="643.457">EntityType</text><line style="stroke:#181818;stroke-width:0.5;" x1="782" x2="1700" y1="665" y2="665"/><ellipse cx="792" cy="676" fill="#84BE84" rx="3" ry="3" style="stroke:#038048;stroke-width:1.0;"/><text fill="#000000" font-family="sans-serif" font-size="14" lengthAdjust="spacing" textLength="894" x="801" y="683.5332">GetList(ctx context.Context, orderBy string, orderDirection string, page int, size int, queryBuilder interfaces.IQueryBuilder) (*[]EntityType, error)</text><line style="stroke:#181818;stroke-width:1.0;" x1="782" x2="1700" y1="690.6094" y2="690.6094"/><ellipse cx="792" cy="701.6094" fill="#84BE84" rx="3" ry="3" style="stroke:#038048;stroke-width:1.0;"/><text fill="#000000" font-family="sans-serif" font-size="14" lengthAdjust="spacing" textLength="494" x="801" y="709.1426">Count(ctx context.Context, queryBuilder interfaces.IQueryBuilder) (int64, error)</text><line style="stroke:#181818;stroke-width:1.0;" x1="782" x2="1700" y1="716.2188" y2="716.2188"/><ellipse cx="792" cy="727.2188" fill="#84BE84" rx="3" ry="3" style="stroke:#038048;stroke-width:1.0;"/><text fill="#000000" font-family="sans-serif" font-size="14" lengthAdjust="spacing" textLength="393" x="801" y="734.752">NewQueryBuilder(ctx context.Context) interfaces.IQueryBuilder</text><line style="stroke:#181818;stroke-width:1.0;" x1="782" x2="1700" y1="741.8281" y2="741.8281"/><ellipse cx="792" cy="752.8281" fill="#84BE84" rx="3" ry="3" style="stroke:#038048;stroke-width:1.0;"/><text fill="#000000" font-family="sans-serif" font-size="14" lengthAdjust="spacing" textLength="388" x="801" y="760.3613">GetById(ctx context.Context, id uuid.UUID) (*EntityType, error)</text><line style="stroke:#181818;stroke-width:1.0;" x1="782" x2="1700" y1="767.4375" y2="767.4375"/><ellipse cx="792" cy="778.4375" fill="#84BE84" rx="3" ry="3" style="stroke:#038048;stroke-width:1.0;"/><text fill="#000000" font-family="sans-serif" font-size="14" lengthAdjust="spacing" textLength="326" x="801" y="785.9707">Update(ctx context.Context, entity *EntityType) error</text><line style="stroke:#181818;stroke-width:1.0;" x1="782" x2="1700" y1="793.0469" y2="793.0469"/><ellipse cx="792" cy="804.0469" fill="#84BE84" rx="3" ry="3" style="stroke:#038048;stroke-width:1.0;"/><text fill="#000000" font-family="sans-serif" font-size="14" lengthAdjust="spacing" textLength="391" x="801" y="811.5801">Insert(ctx context.Context, entity EntityType) (uuid.UUID, error)</text><line style="stroke:#181818;stroke-width:1.0;" x1="782" x2="1700" y1="818.6563" y2="818.6563"/><ellipse cx="792" cy="829.6563" fill="#84BE84" rx="3" ry="3" style="stroke:#038048;stroke-width:1.0;"/><text fill="#000000" font-family="sans-serif" font-size="14" lengthAdjust="spacing" textLength="289" x="801" y="837.1895">Delete(ctx context.Context, id uuid.UUID) error</text><line style="stroke:#181818;stroke-width:1.0;" x1="782" x2="1700" y1="844.2656" y2="844.2656"/><ellipse cx="792" cy="855.2656" fill="#84BE84" rx="3" ry="3" style="stroke:#038048;stroke-width:1.0;"/><text fill="#000000" font-family="sans-serif" font-size="14" lengthAdjust="spacing" textLength="99" x="801" y="862.7988">CloseDb() error</text></g><path d="M402.5,606 L402.5,632.3516 A0,0 0 0 0 402.5,632.3516 L696.5,632.3516 A0,0 0 0 0 696.5,632.3516 L696.5,624 L785,677.8047 L696.5,616 L696.5,616 L686.5,606 L402.5,606 A0,0 0 0 0 402.5,606 " fill="#FEFFDD" style="stroke:#181818;stroke-width:0.5;"/><path d="M686.5,606 L686.5,616 L696.5,616 L686.5,606 " fill="#FEFFDD" style="stroke:#181818;stroke-width:0.5;"/><text fill="#000000" font-family="sans-serif" font-size="13" lengthAdjust="spacing" textLength="273" x="408.5" y="624.4951">Get list of elements with filtering and pagination</text><path d="M402.5,642.3516 L402.5,668.7031 A0,0 0 0 0 402.5,668.7031 L612.5,668.7031 A0,0 0 0 0 612.5,668.7031 L612.5,660.3516 L785,703.4141 L612.5,652.3516 L612.5,652.3516 L602.5,642.3516 L402.5,642.3516 A0,0 0 0 0 402.5,642.3516 " fill="#FEFFDD" style="stroke:#181818;stroke-width:0.5;"/><path d="M602.5,642.3516 L602.5,652.3516 L612.5,652.3516 L602.5,642.3516 " fill="#FEFFDD" style="stroke:#181818;stroke-width:0.5;"/><text fill="#000000" font-family="sans-serif" font-size="13" lengthAdjust="spacing" textLength="189" x="408.5" y="660.8467">Get count of entities with filtering</text><path d="M402.5,678.7031 L402.5,705.0547 A0,0 0 0 0 402.5,705.0547 L638.5,705.0547 A0,0 0 0 0 638.5,705.0547 L638.5,696.7031 L785,729.0234 L638.5,688.7031 L638.5,688.7031 L628.5,678.7031 L402.5,678.7031 A0,0 0 0 0 402.5,678.7031 " fill="#FEFFDD" style="stroke:#181818;stroke-width:0.5;"/><path d="M628.5,678.7031 L628.5,688.7031 L638.5,688.7031 L628.5,678.7031 " fill="#FEFFDD" style="stroke:#181818;stroke-width:0.5;"/><text fill="#000000" font-family="sans-serif" font-size="13" lengthAdjust="spacing" textLength="215" x="408.5" y="697.1982">Get new instance of the query builder</text><path d="M402.5,715.0547 L402.5,741.4063 A0,0 0 0 0 402.5,741.4063 L604.5,741.4063 A0,0 0 0 0 604.5,741.4063 L604.5,733.0547 L785,754.6328 L604.5,725.0547 L604.5,725.0547 L594.5,715.0547 L402.5,715.0547 A0,0 0 0 0 402.5,715.0547 " fill="#FEFFDD" style="stroke:#181818;stroke-width:0.5;"/><path d="M594.5,715.0547 L594.5,725.0547 L604.5,725.0547 L594.5,715.0547 " fill="#FEFFDD" style="stroke:#181818;stroke-width:0.5;"/><text fill="#000000" font-family="sans-serif" font-size="13" lengthAdjust="spacing" textLength="181" x="408.5" y="733.5498">Get entity by ID from repository</text><path d="M402.5,751.4063 L402.5,777.7578 A0,0 0 0 0 402.5,777.7578 L745.5,777.7578 A0,0 0 0 0 745.5,777.7578 L745.5,769.4063 L785,780.2422 L745.5,761.4063 L745.5,761.4063 L735.5,751.4063 L402.5,751.4063 A0,0 0 0 0 402.5,751.4063 " fill="#FEFFDD" style="stroke:#181818;stroke-width:0.5;"/><path d="M735.5,751.4063 L735.5,761.4063 L745.5,761.4063 L735.5,751.4063 " fill="#FEFFDD" style="stroke:#181818;stroke-width:0.5;"/><text fill="#000000" font-family="sans-serif" font-size="13" lengthAdjust="spacing" textLength="322" x="408.5" y="769.9014">Save the changes to the existing entity in the repository</text><path d="M402.5,787.7578 L402.5,814.1094 A0,0 0 0 0 402.5,814.1094 L580.5,814.1094 A0,0 0 0 0 580.5,814.1094 L580.5,805.7578 L785,805.8516 L580.5,797.7578 L580.5,797.7578 L570.5,787.7578 L402.5,787.7578 A0,0 0 0 0 402.5,787.7578 " fill="#FEFFDD" style="stroke:#181818;stroke-width:0.5;"/><path d="M570.5,787.7578 L570.5,797.7578 L580.5,797.7578 L570.5,787.7578 " fill="#FEFFDD" style="stroke:#181818;stroke-width:0.5;"/><text fill="#000000" font-family="sans-serif" font-size="13" lengthAdjust="spacing" textLength="157" x="408.5" y="806.2529">Add entity to the repository</text><path d="M402.5,824.1094 L402.5,850.4609 A0,0 0 0 0 402.5,850.4609 L604.5,850.4609 A0,0 0 0 0 604.5,850.4609 L604.5,842.1094 L785,831.4609 L604.5,834.1094 L604.5,834.1094 L594.5,824.1094 L402.5,824.1094 A0,0 0 0 0 402.5,824.1094 " fill="#FEFFDD" style="stroke:#181818;stroke-width:0.5;"/><path d="M594.5,824.1094 L594.5,834.1094 L604.5,834.1094 L594.5,824.1094 " fill="#FEFFDD" style="stroke:#181818;stroke-width:0.5;"/><text fill="#000000" font-family="sans-serif" font-size="13" lengthAdjust="spacing" textLength="181" x="408.5" y="842.6045">Delete entity from the database</text><path d="M402.5,860.4609 L402.5,886.8125 A0,0 0 0 0 402.5,886.8125 L631.5,886.8125 A0,0 0 0 0 631.5,886.8125 L631.5,878.4609 L785,857.0703 L631.5,870.4609 L631.5,870.4609 L621.5,860.4609 L402.5,860.4609 A0,0 0 0 0 402.5,860.4609 " fill="#FEFFDD" style="stroke:#181818;stroke-width:0.5;"/><path d="M621.5,860.4609 L621.5,870.4609 L631.5,870.4609 L621.5,860.4609 " fill="#FEFFDD" style="stroke:#181818;stroke-width:0.5;"/><text fill="#000000" font-family="sans-serif" font-size="13" lengthAdjust="spacing" textLength="208" x="408.5" y="878.9561">Closes current database connection</text><!--MD5=[c2fde9c784a62a3ac087d43827625e00]
class EthernetSwitchService--><g id="elem_EthernetSwitchService"><rect codeLine="8" fill="#F1F1F1" height="83.2188" id="EthernetSwitchService" rx="2.5" ry="2.5" style="stroke:#181818;stroke-width:0.5;" width="324" x="1297" y="961"/><ellipse cx="1384.25" cy="977" fill="#ADD1B2" rx="11" ry="11" style="stroke:#181818;stroke-width:1.0;"/><path d="M1387.0156,972.875 Q1387.1719,972.6563 1387.3594,972.5469 Q1387.5469,972.4375 1387.7656,972.4375 Q1388.1406,972.4375 1388.375,972.7031 Q1388.6094,972.9531 1388.6094,973.5625 L1388.6094,975.0156 Q1388.6094,975.625 1388.375,975.8906 Q1388.1406,976.1563 1387.7656,976.1563 Q1387.4219,976.1563 1387.2188,975.9531 Q1387.0156,975.7656 1386.9063,975.25 Q1386.8594,974.8906 1386.6719,974.7031 Q1386.3438,974.3281 1385.7344,974.1094 Q1385.125,973.8906 1384.5,973.8906 Q1383.7344,973.8906 1383.0938,974.2188 Q1382.4688,974.5469 1381.9688,975.2969 Q1381.4844,976.0469 1381.4844,977.0781 L1381.4844,978.1719 Q1381.4844,979.4063 1382.375,980.2344 Q1383.2656,981.0469 1384.8594,981.0469 Q1385.7969,981.0469 1386.4531,980.7969 Q1386.8438,980.6406 1387.2656,980.2031 Q1387.5313,979.9375 1387.6719,979.8594 Q1387.8281,979.7813 1388.0313,979.7813 Q1388.3594,979.7813 1388.6094,980.0469 Q1388.875,980.2969 1388.875,980.6406 Q1388.875,980.9844 1388.5313,981.3906 Q1388.0313,981.9688 1387.2344,982.2969 Q1386.1563,982.75 1384.8594,982.75 Q1383.3438,982.75 1382.1406,982.125 Q1381.1563,981.625 1380.4688,980.5625 Q1379.7813,979.4844 1379.7813,978.2031 L1379.7813,977.0469 Q1379.7813,975.7188 1380.3906,974.5781 Q1381.0156,973.4219 1382.1094,972.8125 Q1383.2031,972.1875 1384.4375,972.1875 Q1385.1719,972.1875 1385.8125,972.3594 Q1386.4688,972.5156 1387.0156,972.875 Z " fill="#000000"/><text fill="#000000" font-family="sans-serif" font-size="14" lengthAdjust="spacing" textLength="141" x="1404.75" y="982.7285">EthernetSwitchService</text><line style="stroke:#181818;stroke-width:0.5;" x1="1298" x2="1620" y1="993" y2="993"/><rect fill="none" height="6" style="stroke:#C82930;stroke-width:1.0;" width="6" x="1305" y="1001"/><text fill="#000000" font-family="sans-serif" font-size="14" lengthAdjust="spacing" textLength="298" x="1317" y="1011.5332">repository IGenericRepository&lt;EthernetSwitch&gt;</text><line style="stroke:#181818;stroke-width:1.0;" x1="1298" x2="1620" y1="1018.6094" y2="1018.6094"/><ellipse cx="1308" cy="1029.6094" fill="#84BE84" rx="3" ry="3" style="stroke:#038048;stroke-width:1.0;"/><text fill="#000000" font-family="sans-serif" font-size="14" lengthAdjust="spacing" textLength="144" x="1317" y="1037.1426">GetSupportedModels()</text></g><path d="M922,984 L922,1010.3516 A0,0 0 0 0 922,1010.3516 L1254,1010.3516 A0,0 0 0 0 1254,1010.3516 L1254,1002 L1301,1031.4141 L1254,994 L1254,994 L1244,984 L922,984 A0,0 0 0 0 922,984 " fill="#FEFFDD" style="stroke:#181818;stroke-width:0.5;"/><path d="M1244,984 L1244,994 L1254,994 L1244,984 " fill="#FEFFDD" style="stroke:#181818;stroke-width:0.5;"/><text fill="#000000" font-family="sans-serif" font-size="13" lengthAdjust="spacing" textLength="311" x="928" y="1002.4951">Get ethernet switch models that supported by system</text><g id="elem_GMN638"><path d="M573,964.5 L573,1039.9063 L887,1039.9063 L887,974.5 L877,964.5 L573,964.5 " fill="#FEFFDD" style="stroke:#181818;stroke-width:0.5;"/><path d="M877,964.5 L877,974.5 L887,974.5 L877,964.5 " fill="#FEFFDD" style="stroke:#181818;stroke-width:1.0;"/><text fill="#000000" font-family="sans-serif" font-size="13" lengthAdjust="spacing" textLength="293" x="579" y="982.9951">Advanced business logic for EthernetSwitch entity:</text><text fill="#000000" font-family="sans-serif" font-size="13" lengthAdjust="spacing" textLength="87" x="579" y="999.3467">DTO Validation</text><text fill="#000000" font-family="sans-serif" font-size="13" lengthAdjust="spacing" textLength="249" x="579" y="1015.6982">Checking the uniqueness of serial numbers</text><text fill="#000000" font-family="sans-serif" font-size="13" lengthAdjust="spacing" textLength="224" x="579" y="1032.0498">Checking the uniqueness of addresses</text></g><g id="elem_EthernetSwitchServiceTypes"><path d="M1423.5,1107 L1423.5,1182.4063 L1700.5,1182.4063 L1700.5,1117 L1690.5,1107 L1423.5,1107 " fill="#FEFFDD" style="stroke:#181818;stroke-width:0.5;"/><path d="M1690.5,1107 L1690.5,1117 L1700.5,1117 L1690.5,1107 " fill="#FEFFDD" style="stroke:#181818;stroke-width:1.0;"/><text fill="#000000" font-family="sans-serif" font-size="13" lengthAdjust="spacing" textLength="168" x="1429.5" y="1125.4951">EntityType is EthernetSwitch</text><text fill="#000000" font-family="sans-serif" font-size="13" lengthAdjust="spacing" textLength="250" x="1429.5" y="1141.8467">CreateDtoType is EthernetSwitchCreateDto</text><text fill="#000000" font-family="sans-serif" font-size="13" lengthAdjust="spacing" textLength="256" x="1429.5" y="1158.1982">UpdateDtoType is EthernetSwitchUpdateDto</text><text fill="#000000" font-family="sans-serif" font-size="13" lengthAdjust="spacing" textLength="174" x="1429.5" y="1174.5498">DtoType is EthernetSwitchDto</text></g><!--MD5=[be996cdb8e6bf2fc7cb89c555f2cd144]
class Entity--><g id="elem_Entity"><rect codeLine="6" fill="#F1F1F1" height="134.4375" id="Entity" rx="2.5" ry="2.5" style="stroke:#181818;stroke-width:0.5;" width="250" x="173" y="288"/><ellipse cx="276.25" cy="304" fill="#ADD1B2" rx="11" ry="11" style="stroke:#181818;stroke-width:1.0;"/><path d="M279.0156,299.875 Q279.1719,299.6563 279.3594,299.5469 Q279.5469,299.4375 279.7656,299.4375 Q280.1406,299.4375 280.375,299.7031 Q280.6094,299.9531 280.6094,300.5625 L280.6094,302.0156 Q280.6094,302.625 280.375,302.8906 Q280.1406,303.1563 279.7656,303.1563 Q279.4219,303.1563 279.2188,302.9531 Q279.0156,302.7656 278.9063,302.25 Q278.8594,301.8906 278.6719,301.7031 Q278.3438,301.3281 277.7344,301.1094 Q277.125,300.8906 276.5,300.8906 Q275.7344,300.8906 275.0938,301.2188 Q274.4688,301.5469 273.9688,302.2969 Q273.4844,303.0469 273.4844,304.0781 L273.4844,305.1719 Q273.4844,306.4063 274.375,307.2344 Q275.2656,308.0469 276.8594,308.0469 Q277.7969,308.0469 278.4531,307.7969 Q278.8438,307.6406 279.2656,307.2031 Q279.5313,306.9375 279.6719,306.8594 Q279.8281,306.7813 280.0313,306.7813 Q280.3594,306.7813 280.6094,307.0469 Q280.875,307.2969 280.875,307.6406 Q280.875,307.9844 280.5313,308.3906 Q280.0313,308.9688 279.2344,309.2969 Q278.1563,309.75 276.8594,309.75 Q275.3438,309.75 274.1406,309.125 Q273.1563,308.625 272.4688,307.5625 Q271.7813,306.4844 271.7813,305.2031 L271.7813,304.0469 Q271.7813,302.7188 272.3906,301.5781 Q273.0156,300.4219 274.1094,299.8125 Q275.2031,299.1875 276.4375,299.1875 Q277.1719,299.1875 277.8125,299.3594 Q278.4688,299.5156 279.0156,299.875 Z " fill="#000000"/><text fill="#000000" font-family="sans-serif" font-size="14" lengthAdjust="spacing" textLength="35" x="296.75" y="309.7285">Entity</text><line style="stroke:#181818;stroke-width:0.5;" x1="174" x2="422" y1="320" y2="320"/><ellipse cx="184" cy="331" fill="none" rx="3" ry="3" style="stroke:#038048;stroke-width:1.0;"/><text fill="#000000" font-family="sans-serif" font-size="14" lengthAdjust="spacing" textLength="208" x="193" y="338.5332">ID uuid.UUID `gorm:"primarykey"`</text><line style="stroke:#181818;stroke-width:1.0;" x1="174" x2="422" y1="345.6094" y2="345.6094"/><ellipse cx="184" cy="356.6094" fill="none" rx="3" ry="3" style="stroke:#038048;stroke-width:1.0;"/><text fill="#000000" font-family="sans-serif" font-size="14" lengthAdjust="spacing" textLength="222" x="193" y="364.1426">CreatedAt time.Time `gorm:"index"`</text><line style="stroke:#181818;stroke-width:1.0;" x1="174" x2="422" y1="371.2188" y2="371.2188"/><ellipse cx="184" cy="382.2188" fill="none" rx="3" ry="3" style="stroke:#038048;stroke-width:1.0;"/><text fill="#000000" font-family="sans-serif" font-size="14" lengthAdjust="spacing" textLength="224" x="193" y="389.752">UpdatedAt time.Time `gorm:"index"`</text><line style="stroke:#181818;stroke-width:1.0;" x1="174" x2="422" y1="396.8281" y2="396.8281"/><ellipse cx="184" cy="407.8281" fill="none" rx="3" ry="3" style="stroke:#038048;stroke-width:1.0;"/><text fill="#000000" font-family="sans-serif" font-size="14" lengthAdjust="spacing" textLength="220" x="193" y="415.3613">DeletedAt time.Time `gorm:"index"`</text></g><!--MD5=[0e6027363d26940633b9df7c844e683a]
class EthernetSwitch--><g id="elem_EthernetSwitch"><rect codeLine="5" fill="#F1F1F1" height="185.6563" id="EthernetSwitch" rx="2.5" ry="2.5" style="stroke:#181818;stroke-width:0.5;" width="143" x="323.5" y="42"/><ellipse cx="346.15" cy="58" fill="#ADD1B2" rx="11" ry="11" style="stroke:#181818;stroke-width:1.0;"/><path d="M348.9156,53.875 Q349.0719,53.6563 349.2594,53.5469 Q349.4469,53.4375 349.6656,53.4375 Q350.0406,53.4375 350.275,53.7031 Q350.5094,53.9531 350.5094,54.5625 L350.5094,56.0156 Q350.5094,56.625 350.275,56.8906 Q350.0406,57.1563 349.6656,57.1563 Q349.3219,57.1563 349.1188,56.9531 Q348.9156,56.7656 348.8063,56.25 Q348.7594,55.8906 348.5719,55.7031 Q348.2438,55.3281 347.6344,55.1094 Q347.025,54.8906 346.4,54.8906 Q345.6344,54.8906 344.9938,55.2188 Q344.3688,55.5469 343.8688,56.2969 Q343.3844,57.0469 343.3844,58.0781 L343.3844,59.1719 Q343.3844,60.4063 344.275,61.2344 Q345.1656,62.0469 346.7594,62.0469 Q347.6969,62.0469 348.3531,61.7969 Q348.7438,61.6406 349.1656,61.2031 Q349.4313,60.9375 349.5719,60.8594 Q349.7281,60.7813 349.9313,60.7813 Q350.2594,60.7813 350.5094,61.0469 Q350.775,61.2969 350.775,61.6406 Q350.775,61.9844 350.4313,62.3906 Q349.9313,62.9688 349.1344,63.2969 Q348.0563,63.75 346.7594,63.75 Q345.2438,63.75 344.0406,63.125 Q343.0563,62.625 342.3688,61.5625 Q341.6813,60.4844 341.6813,59.2031 L341.6813,58.0469 Q341.6813,56.7188 342.2906,55.5781 Q342.9156,54.4219 344.0094,53.8125 Q345.1031,53.1875 346.3375,53.1875 Q347.0719,53.1875 347.7125,53.3594 Q348.3688,53.5156 348.9156,53.875 Z " fill="#000000"/><text fill="#000000" font-family="sans-serif" font-size="14" lengthAdjust="spacing" textLength="94" x="361.85" y="63.7285">EthernetSwitch</text><line style="stroke:#181818;stroke-width:0.5;" x1="324.5" x2="465.5" y1="74" y2="74"/><ellipse cx="334.5" cy="85" fill="none" rx="3" ry="3" style="stroke:#038048;stroke-width:1.0;"/><text fill="#000000" font-family="sans-serif" font-size="14" lengthAdjust="spacing" textLength="75" x="343.5" y="92.5332">Name string</text><line style="stroke:#181818;stroke-width:1.0;" x1="324.5" x2="465.5" y1="99.6094" y2="99.6094"/><ellipse cx="334.5" cy="110.6094" fill="none" rx="3" ry="3" style="stroke:#038048;stroke-width:1.0;"/><text fill="#000000" font-family="sans-serif" font-size="14" lengthAdjust="spacing" textLength="75" x="343.5" y="118.1426">Serial string</text><line style="stroke:#181818;stroke-width:1.0;" x1="324.5" x2="465.5" y1="125.2188" y2="125.2188"/><ellipse cx="334.5" cy="136.2188" fill="none" rx="3" ry="3" style="stroke:#038048;stroke-width:1.0;"/><text fill="#000000" font-family="sans-serif" font-size="14" lengthAdjust="spacing" textLength="117" x="343.5" y="143.752">SwitchModel string</text><line style="stroke:#181818;stroke-width:1.0;" x1="324.5" x2="465.5" y1="150.8281" y2="150.8281"/><ellipse cx="334.5" cy="161.8281" fill="none" rx="3" ry="3" style="stroke:#038048;stroke-width:1.0;"/><text fill="#000000" font-family="sans-serif" font-size="14" lengthAdjust="spacing" textLength="91" x="343.5" y="169.3613">Address string</text><line style="stroke:#181818;stroke-width:1.0;" x1="324.5" x2="465.5" y1="176.4375" y2="176.4375"/><ellipse cx="334.5" cy="187.4375" fill="none" rx="3" ry="3" style="stroke:#038048;stroke-width:1.0;"/><text fill="#000000" font-family="sans-serif" font-size="14" lengthAdjust="spacing" textLength="103" x="343.5" y="194.9707">Username string</text><line style="stroke:#181818;stroke-width:1.0;" x1="324.5" x2="465.5" y1="202.0469" y2="202.0469"/><ellipse cx="334.5" cy="213.0469" fill="none" rx="3" ry="3" style="stroke:#038048;stroke-width:1.0;"/><text fill="#000000" font-family="sans-serif" font-size="14" lengthAdjust="spacing" textLength="100" x="343.5" y="220.5801">Password string</text></g><path d="M130,90.5 L130,116.8516 A0,0 0 0 0 130,116.8516 L191,116.8516 A0,0 0 0 0 191,116.8516 L191,108.5 L327.5,112.4141 L191,100.5 L191,100.5 L181,90.5 L130,90.5 A0,0 0 0 0 130,90.5 " fill="#FEFFDD" style="stroke:#181818;stroke-width:0.5;"/><path d="M181,90.5 L181,100.5 L191,100.5 L181,90.5 " fill="#FEFFDD" style="stroke:#181818;stroke-width:0.5;"/><text fill="#000000" font-family="sans-serif" font-size="13" lengthAdjust="spacing" textLength="40" x="136" y="108.9951">Unique</text><path d="M130,126.8516 L130,169.5547 A0,0 0 0 0 130,169.5547 L288,169.5547 A0,0 0 0 0 288,169.5547 L288,152.2031 L327.5,163.6328 L288,144.2031 L288,136.8516 L278,126.8516 L130,126.8516 A0,0 0 0 0 130,126.8516 " fill="#FEFFDD" style="stroke:#181818;stroke-width:0.5;"/><path d="M278,126.8516 L278,136.8516 L288,136.8516 L278,126.8516 " fill="#FEFFDD" style="stroke:#181818;stroke-width:0.5;"/><text fill="#000000" font-family="sans-serif" font-size="13" lengthAdjust="spacing" textLength="40" x="136" y="145.3467">Unique</text><text fill="#000000" font-family="sans-serif" font-size="13" lengthAdjust="spacing" textLength="137" x="136" y="161.6982">Ip address of the switch</text><!--MD5=[27abfb56f32eefa7f07c83348fb1ee32]
class GormGenericRepository--><g id="elem_GormGenericRepository"><rect codeLine="5" fill="#F1F1F1" height="48" id="GormGenericRepository" rx="2.5" ry="2.5" style="stroke:#181818;stroke-width:0.5;" width="246" x="1118" y="482"/><ellipse cx="1133" cy="498" fill="#ADD1B2" rx="11" ry="11" style="stroke:#181818;stroke-width:1.0;"/><path d="M1135.7656,493.875 Q1135.9219,493.6563 1136.1094,493.5469 Q1136.2969,493.4375 1136.5156,493.4375 Q1136.8906,493.4375 1137.125,493.7031 Q1137.3594,493.9531 1137.3594,494.5625 L1137.3594,496.0156 Q1137.3594,496.625 1137.125,496.8906 Q1136.8906,497.1563 1136.5156,497.1563 Q1136.1719,497.1563 1135.9688,496.9531 Q1135.7656,496.7656 1135.6563,496.25 Q1135.6094,495.8906 1135.4219,495.7031 Q1135.0938,495.3281 1134.4844,495.1094 Q1133.875,494.8906 1133.25,494.8906 Q1132.4844,494.8906 1131.8438,495.2188 Q1131.2188,495.5469 1130.7188,496.2969 Q1130.2344,497.0469 1130.2344,498.0781 L1130.2344,499.1719 Q1130.2344,500.4063 1131.125,501.2344 Q1132.0156,502.0469 1133.6094,502.0469 Q1134.5469,502.0469 1135.2031,501.7969 Q1135.5938,501.6406 1136.0156,501.2031 Q1136.2813,500.9375 1136.4219,500.8594 Q1136.5781,500.7813 1136.7813,500.7813 Q1137.1094,500.7813 1137.3594,501.0469 Q1137.625,501.2969 1137.625,501.6406 Q1137.625,501.9844 1137.2813,502.3906 Q1136.7813,502.9688 1135.9844,503.2969 Q1134.9063,503.75 1133.6094,503.75 Q1132.0938,503.75 1130.8906,503.125 Q1129.9063,502.625 1129.2188,501.5625 Q1128.5313,500.4844 1128.5313,499.2031 L1128.5313,498.0469 Q1128.5313,496.7188 1129.1406,495.5781 Q1129.7656,494.4219 1130.8594,493.8125 Q1131.9531,493.1875 1133.1875,493.1875 Q1133.9219,493.1875 1134.5625,493.3594 Q1135.2188,493.5156 1135.7656,493.875 Z " fill="#000000"/><text fill="#000000" font-family="sans-serif" font-size="14" lengthAdjust="spacing" textLength="153" x="1147" y="503.7285">GormGenericRepository</text><rect fill="#FFFFFF" height="17.0938" style="stroke:#000000;stroke-width:1.0;stroke-dasharray:2.0,2.0;" width="59" x="1308" y="479"/><text fill="#000000" font-family="sans-serif" font-size="12" font-style="italic" lengthAdjust="spacing" textLength="57" x="1309" y="492.457">EntityType</text><line style="stroke:#181818;stroke-width:0.5;" x1="1119" x2="1363" y1="514" y2="514"/><line style="stroke:#181818;stroke-width:0.5;" x1="1119" x2="1363" y1="522" y2="522"/></g><!--MD5=[44d95913ec2b3ba897526465ba0cec4b]
class EthernetSwitchRepository--><g id="elem_EthernetSwitchRepository"><rect codeLine="6" fill="#F1F1F1" height="48" id="EthernetSwitchRepository" rx="2.5" ry="2.5" style="stroke:#181818;stroke-width:0.5;" width="194" x="1170" y="111"/><ellipse cx="1185" cy="127" fill="#ADD1B2" rx="11" ry="11" style="stroke:#181818;stroke-width:1.0;"/><path d="M1187.7656,122.875 Q1187.9219,122.6563 1188.1094,122.5469 Q1188.2969,122.4375 1188.5156,122.4375 Q1188.8906,122.4375 1189.125,122.7031 Q1189.3594,122.9531 1189.3594,123.5625 L1189.3594,125.0156 Q1189.3594,125.625 1189.125,125.8906 Q1188.8906,126.1563 1188.5156,126.1563 Q1188.1719,126.1563 1187.9688,125.9531 Q1187.7656,125.7656 1187.6563,125.25 Q1187.6094,124.8906 1187.4219,124.7031 Q1187.0938,124.3281 1186.4844,124.1094 Q1185.875,123.8906 1185.25,123.8906 Q1184.4844,123.8906 1183.8438,124.2188 Q1183.2188,124.5469 1182.7188,125.2969 Q1182.2344,126.0469 1182.2344,127.0781 L1182.2344,128.1719 Q1182.2344,129.4063 1183.125,130.2344 Q1184.0156,131.0469 1185.6094,131.0469 Q1186.5469,131.0469 1187.2031,130.7969 Q1187.5938,130.6406 1188.0156,130.2031 Q1188.2813,129.9375 1188.4219,129.8594 Q1188.5781,129.7813 1188.7813,129.7813 Q1189.1094,129.7813 1189.3594,130.0469 Q1189.625,130.2969 1189.625,130.6406 Q1189.625,130.9844 1189.2813,131.3906 Q1188.7813,131.9688 1187.9844,132.2969 Q1186.9063,132.75 1185.6094,132.75 Q1184.0938,132.75 1182.8906,132.125 Q1181.9063,131.625 1181.2188,130.5625 Q1180.5313,129.4844 1180.5313,128.2031 L1180.5313,127.0469 Q1180.5313,125.7188 1181.1406,124.5781 Q1181.7656,123.4219 1182.8594,122.8125 Q1183.9531,122.1875 1185.1875,122.1875 Q1185.9219,122.1875 1186.5625,122.3594 Q1187.2188,122.5156 1187.7656,122.875 Z " fill="#000000"/><text fill="#000000" font-family="sans-serif" font-size="14" lengthAdjust="spacing" textLength="162" x="1199" y="132.7285">EthernetSwitchRepository</text><line style="stroke:#181818;stroke-width:0.5;" x1="1171" x2="1363" y1="143" y2="143"/><line style="stroke:#181818;stroke-width:0.5;" x1="1171" x2="1363" y1="151" y2="151"/></g><g id="elem_EthernetSwitchTypeNote"><path d="M1118.5,342 L1118.5,368.3516 L1307.5,368.3516 L1307.5,352 L1297.5,342 L1118.5,342 " fill="#FEFFDD" style="stroke:#181818;stroke-width:0.5;"/><path d="M1297.5,342 L1297.5,352 L1307.5,352 L1297.5,342 " fill="#FEFFDD" style="stroke:#181818;stroke-width:1.0;"/><text fill="#000000" font-family="sans-serif" font-size="13" lengthAdjust="spacing" textLength="168" x="1124.5" y="360.4951">EntityType is EthernetSwitch</text></g><!--MD5=[4f15965369cf1e2d28449fc0d2ee4583]
class EthernetSwitchBaseDto--><g id="elem_EthernetSwitchBaseDto"><rect codeLine="3" fill="#F1F1F1" height="160.0469" id="EthernetSwitchBaseDto" rx="2.5" ry="2.5" style="stroke:#181818;stroke-width:0.5;" width="180" x="1950" y="1422"/><ellipse cx="1965" cy="1438" fill="#ADD1B2" rx="11" ry="11" style="stroke:#181818;stroke-width:1.0;"/><path d="M1967.7656,1433.875 Q1967.9219,1433.6563 1968.1094,1433.5469 Q1968.2969,1433.4375 1968.5156,1433.4375 Q1968.8906,1433.4375 1969.125,1433.7031 Q1969.3594,1433.9531 1969.3594,1434.5625 L1969.3594,1436.0156 Q1969.3594,1436.625 1969.125,1436.8906 Q1968.8906,1437.1563 1968.5156,1437.1563 Q1968.1719,1437.1563 1967.9688,1436.9531 Q1967.7656,1436.7656 1967.6563,1436.25 Q1967.6094,1435.8906 1967.4219,1435.7031 Q1967.0938,1435.3281 1966.4844,1435.1094 Q1965.875,1434.8906 1965.25,1434.8906 Q1964.4844,1434.8906 1963.8438,1435.2188 Q1963.2188,1435.5469 1962.7188,1436.2969 Q1962.2344,1437.0469 1962.2344,1438.0781 L1962.2344,1439.1719 Q1962.2344,1440.4063 1963.125,1441.2344 Q1964.0156,1442.0469 1965.6094,1442.0469 Q1966.5469,1442.0469 1967.2031,1441.7969 Q1967.5938,1441.6406 1968.0156,1441.2031 Q1968.2813,1440.9375 1968.4219,1440.8594 Q1968.5781,1440.7813 1968.7813,1440.7813 Q1969.1094,1440.7813 1969.3594,1441.0469 Q1969.625,1441.2969 1969.625,1441.6406 Q1969.625,1441.9844 1969.2813,1442.3906 Q1968.7813,1442.9688 1967.9844,1443.2969 Q1966.9063,1443.75 1965.6094,1443.75 Q1964.0938,1443.75 1962.8906,1443.125 Q1961.9063,1442.625 1961.2188,1441.5625 Q1960.5313,1440.4844 1960.5313,1439.2031 L1960.5313,1438.0469 Q1960.5313,1436.7188 1961.1406,1435.5781 Q1961.7656,1434.4219 1962.8594,1433.8125 Q1963.9531,1433.1875 1965.1875,1433.1875 Q1965.9219,1433.1875 1966.5625,1433.3594 Q1967.2188,1433.5156 1967.7656,1433.875 Z " fill="#000000"/><text fill="#000000" font-family="sans-serif" font-size="14" lengthAdjust="spacing" textLength="148" x="1979" y="1443.7285">EthernetSwitchBaseDto</text><line style="stroke:#181818;stroke-width:0.5;" x1="1951" x2="2129" y1="1454" y2="1454"/><ellipse cx="1961" cy="1465" fill="none" rx="3" ry="3" style="stroke:#038048;stroke-width:1.0;"/><text fill="#000000" font-family="sans-serif" font-size="14" lengthAdjust="spacing" textLength="75" x="1970" y="1472.5332">Name string</text><line style="stroke:#181818;stroke-width:1.0;" x1="1951" x2="2129" y1="1479.6094" y2="1479.6094"/><ellipse cx="1961" cy="1490.6094" fill="none" rx="3" ry="3" style="stroke:#038048;stroke-width:1.0;"/><text fill="#000000" font-family="sans-serif" font-size="14" lengthAdjust="spacing" textLength="75" x="1970" y="1498.1426">Serial string</text><line style="stroke:#181818;stroke-width:1.0;" x1="1951" x2="2129" y1="1505.2188" y2="1505.2188"/><ellipse cx="1961" cy="1516.2188" fill="none" rx="3" ry="3" style="stroke:#038048;stroke-width:1.0;"/><text fill="#000000" font-family="sans-serif" font-size="14" lengthAdjust="spacing" textLength="117" x="1970" y="1523.752">SwitchModel string</text><line style="stroke:#181818;stroke-width:1.0;" x1="1951" x2="2129" y1="1530.8281" y2="1530.8281"/><ellipse cx="1961" cy="1541.8281" fill="none" rx="3" ry="3" style="stroke:#038048;stroke-width:1.0;"/><text fill="#000000" font-family="sans-serif" font-size="14" lengthAdjust="spacing" textLength="91" x="1970" y="1549.3613">Address string</text><line style="stroke:#181818;stroke-width:1.0;" x1="1951" x2="2129" y1="1556.4375" y2="1556.4375"/><ellipse cx="1961" cy="1567.4375" fill="none" rx="3" ry="3" style="stroke:#038048;stroke-width:1.0;"/><text fill="#000000" font-family="sans-serif" font-size="14" lengthAdjust="spacing" textLength="103" x="1970" y="1574.9707">Username string</text></g><!--MD5=[b5f51fede5412d5c08046421531bde8a]
class EthernetSwitchCreateDto--><g id="elem_EthernetSwitchCreateDto"><rect codeLine="5" fill="#F1F1F1" height="65.6094" id="EthernetSwitchCreateDto" rx="2.5" ry="2.5" style="stroke:#181818;stroke-width:0.5;" width="191" x="2168.5" y="1263.5"/><ellipse cx="2183.5" cy="1279.5" fill="#ADD1B2" rx="11" ry="11" style="stroke:#181818;stroke-width:1.0;"/><path d="M2186.2656,1275.375 Q2186.4219,1275.1563 2186.6094,1275.0469 Q2186.7969,1274.9375 2187.0156,1274.9375 Q2187.3906,1274.9375 2187.625,1275.2031 Q2187.8594,1275.4531 2187.8594,1276.0625 L2187.8594,1277.5156 Q2187.8594,1278.125 2187.625,1278.3906 Q2187.3906,1278.6563 2187.0156,1278.6563 Q2186.6719,1278.6563 2186.4688,1278.4531 Q2186.2656,1278.2656 2186.1563,1277.75 Q2186.1094,1277.3906 2185.9219,1277.2031 Q2185.5938,1276.8281 2184.9844,1276.6094 Q2184.375,1276.3906 2183.75,1276.3906 Q2182.9844,1276.3906 2182.3438,1276.7188 Q2181.7188,1277.0469 2181.2188,1277.7969 Q2180.7344,1278.5469 2180.7344,1279.5781 L2180.7344,1280.6719 Q2180.7344,1281.9063 2181.625,1282.7344 Q2182.5156,1283.5469 2184.1094,1283.5469 Q2185.0469,1283.5469 2185.7031,1283.2969 Q2186.0938,1283.1406 2186.5156,1282.7031 Q2186.7813,1282.4375 2186.9219,1282.3594 Q2187.0781,1282.2813 2187.2813,1282.2813 Q2187.6094,1282.2813 2187.8594,1282.5469 Q2188.125,1282.7969 2188.125,1283.1406 Q2188.125,1283.4844 2187.7813,1283.8906 Q2187.2813,1284.4688 2186.4844,1284.7969 Q2185.4063,1285.25 2184.1094,1285.25 Q2182.5938,1285.25 2181.3906,1284.625 Q2180.4063,1284.125 2179.7188,1283.0625 Q2179.0313,1281.9844 2179.0313,1280.7031 L2179.0313,1279.5469 Q2179.0313,1278.2188 2179.6406,1277.0781 Q2180.2656,1275.9219 2181.3594,1275.3125 Q2182.4531,1274.6875 2183.6875,1274.6875 Q2184.4219,1274.6875 2185.0625,1274.8594 Q2185.7188,1275.0156 2186.2656,1275.375 Z " fill="#000000"/><text fill="#000000" font-family="sans-serif" font-size="14" lengthAdjust="spacing" textLength="159" x="2197.5" y="1285.2285">EthernetSwitchCreateDto</text><line style="stroke:#181818;stroke-width:0.5;" x1="2169.5" x2="2358.5" y1="1295.5" y2="1295.5"/><ellipse cx="2179.5" cy="1306.5" fill="none" rx="3" ry="3" style="stroke:#038048;stroke-width:1.0;"/><text fill="#000000" font-family="sans-serif" font-size="14" lengthAdjust="spacing" textLength="100" x="2188.5" y="1314.0332">Password string</text><line style="stroke:#181818;stroke-width:0.5;" x1="2169.5" x2="2358.5" y1="1321.1094" y2="1321.1094"/></g><!--MD5=[c34e1a9004d5b1340cd98967367dc0c0]
class EthernetSwitchUpdateDto--><g id="elem_EthernetSwitchUpdateDto"><rect codeLine="5" fill="#F1F1F1" height="65.6094" id="EthernetSwitchUpdateDto" rx="2.5" ry="2.5" style="stroke:#181818;stroke-width:0.5;" width="193" x="1940.5" y="1263.5"/><ellipse cx="1955.5" cy="1279.5" fill="#ADD1B2" rx="11" ry="11" style="stroke:#181818;stroke-width:1.0;"/><path d="M1958.2656,1275.375 Q1958.4219,1275.1563 1958.6094,1275.0469 Q1958.7969,1274.9375 1959.0156,1274.9375 Q1959.3906,1274.9375 1959.625,1275.2031 Q1959.8594,1275.4531 1959.8594,1276.0625 L1959.8594,1277.5156 Q1959.8594,1278.125 1959.625,1278.3906 Q1959.3906,1278.6563 1959.0156,1278.6563 Q1958.6719,1278.6563 1958.4688,1278.4531 Q1958.2656,1278.2656 1958.1563,1277.75 Q1958.1094,1277.3906 1957.9219,1277.2031 Q1957.5938,1276.8281 1956.9844,1276.6094 Q1956.375,1276.3906 1955.75,1276.3906 Q1954.9844,1276.3906 1954.3438,1276.7188 Q1953.7188,1277.0469 1953.2188,1277.7969 Q1952.7344,1278.5469 1952.7344,1279.5781 L1952.7344,1280.6719 Q1952.7344,1281.9063 1953.625,1282.7344 Q1954.5156,1283.5469 1956.1094,1283.5469 Q1957.0469,1283.5469 1957.7031,1283.2969 Q1958.0938,1283.1406 1958.5156,1282.7031 Q1958.7813,1282.4375 1958.9219,1282.3594 Q1959.0781,1282.2813 1959.2813,1282.2813 Q1959.6094,1282.2813 1959.8594,1282.5469 Q1960.125,1282.7969 1960.125,1283.1406 Q1960.125,1283.4844 1959.7813,1283.8906 Q1959.2813,1284.4688 1958.4844,1284.7969 Q1957.4063,1285.25 1956.1094,1285.25 Q1954.5938,1285.25 1953.3906,1284.625 Q1952.4063,1284.125 1951.7188,1283.0625 Q1951.0313,1281.9844 1951.0313,1280.7031 L1951.0313,1279.5469 Q1951.0313,1278.2188 1951.6406,1277.0781 Q1952.2656,1275.9219 1953.3594,1275.3125 Q1954.4531,1274.6875 1955.6875,1274.6875 Q1956.4219,1274.6875 1957.0625,1274.8594 Q1957.7188,1275.0156 1958.2656,1275.375 Z " fill="#000000"/><text fill="#000000" font-family="sans-serif" font-size="14" lengthAdjust="spacing" textLength="161" x="1969.5" y="1285.2285">EthernetSwitchUpdateDto</text><line style="stroke:#181818;stroke-width:0.5;" x1="1941.5" x2="2132.5" y1="1295.5" y2="1295.5"/><ellipse cx="1951.5" cy="1306.5" fill="none" rx="3" ry="3" style="stroke:#038048;stroke-width:1.0;"/><text fill="#000000" font-family="sans-serif" font-size="14" lengthAdjust="spacing" textLength="100" x="1960.5" y="1314.0332">Password string</text><line style="stroke:#181818;stroke-width:0.5;" x1="1941.5" x2="2132.5" y1="1321.1094" y2="1321.1094"/></g><!--MD5=[a203eca1f0769929ae1344e0135bff6b]
class BaseDto--><g id="elem_BaseDto"><rect codeLine="3" fill="#F1F1F1" height="108.8281" id="BaseDto" rx="2.5" ry="2.5" style="stroke:#181818;stroke-width:0.5;" width="157" x="1757.5" y="1447.5"/><ellipse cx="1804.75" cy="1463.5" fill="#ADD1B2" rx="11" ry="11" style="stroke:#181818;stroke-width:1.0;"/><path d="M1807.5156,1459.375 Q1807.6719,1459.1563 1807.8594,1459.0469 Q1808.0469,1458.9375 1808.2656,1458.9375 Q1808.6406,1458.9375 1808.875,1459.2031 Q1809.1094,1459.4531 1809.1094,1460.0625 L1809.1094,1461.5156 Q1809.1094,1462.125 1808.875,1462.3906 Q1808.6406,1462.6563 1808.2656,1462.6563 Q1807.9219,1462.6563 1807.7188,1462.4531 Q1807.5156,1462.2656 1807.4063,1461.75 Q1807.3594,1461.3906 1807.1719,1461.2031 Q1806.8438,1460.8281 1806.2344,1460.6094 Q1805.625,1460.3906 1805,1460.3906 Q1804.2344,1460.3906 1803.5938,1460.7188 Q1802.9688,1461.0469 1802.4688,1461.7969 Q1801.9844,1462.5469 1801.9844,1463.5781 L1801.9844,1464.6719 Q1801.9844,1465.9063 1802.875,1466.7344 Q1803.7656,1467.5469 1805.3594,1467.5469 Q1806.2969,1467.5469 1806.9531,1467.2969 Q1807.3438,1467.1406 1807.7656,1466.7031 Q1808.0313,1466.4375 1808.1719,1466.3594 Q1808.3281,1466.2813 1808.5313,1466.2813 Q1808.8594,1466.2813 1809.1094,1466.5469 Q1809.375,1466.7969 1809.375,1467.1406 Q1809.375,1467.4844 1809.0313,1467.8906 Q1808.5313,1468.4688 1807.7344,1468.7969 Q1806.6563,1469.25 1805.3594,1469.25 Q1803.8438,1469.25 1802.6406,1468.625 Q1801.6563,1468.125 1800.9688,1467.0625 Q1800.2813,1465.9844 1800.2813,1464.7031 L1800.2813,1463.5469 Q1800.2813,1462.2188 1800.8906,1461.0781 Q1801.5156,1459.9219 1802.6094,1459.3125 Q1803.7031,1458.6875 1804.9375,1458.6875 Q1805.6719,1458.6875 1806.3125,1458.8594 Q1806.9688,1459.0156 1807.5156,1459.375 Z " fill="#000000"/><text fill="#000000" font-family="sans-serif" font-size="14" lengthAdjust="spacing" textLength="54" x="1825.25" y="1469.2285">BaseDto</text><line style="stroke:#181818;stroke-width:0.5;" x1="1758.5" x2="1913.5" y1="1479.5" y2="1479.5"/><ellipse cx="1768.5" cy="1490.5" fill="none" rx="3" ry="3" style="stroke:#038048;stroke-width:1.0;"/><text fill="#000000" font-family="sans-serif" font-size="14" lengthAdjust="spacing" textLength="79" x="1777.5" y="1498.0332">ID uuid.UUID</text><line style="stroke:#181818;stroke-width:1.0;" x1="1758.5" x2="1913.5" y1="1505.1094" y2="1505.1094"/><ellipse cx="1768.5" cy="1516.1094" fill="none" rx="3" ry="3" style="stroke:#038048;stroke-width:1.0;"/><text fill="#000000" font-family="sans-serif" font-size="14" lengthAdjust="spacing" textLength="129" x="1777.5" y="1523.6426">CreatedAt time.Time</text><line style="stroke:#181818;stroke-width:1.0;" x1="1758.5" x2="1913.5" y1="1530.7188" y2="1530.7188"/><ellipse cx="1768.5" cy="1541.7188" fill="none" rx="3" ry="3" style="stroke:#038048;stroke-width:1.0;"/><text fill="#000000" font-family="sans-serif" font-size="14" lengthAdjust="spacing" textLength="131" x="1777.5" y="1549.252">UpdatedAt time.Time</text></g><!--MD5=[b580cc5ff93fe4dac06272a8d0848e45]
class EthernetSwitchDto--><g id="elem_EthernetSwitchDto"><rect codeLine="6" fill="#F1F1F1" height="48" id="EthernetSwitchDto" rx="2.5" ry="2.5" style="stroke:#181818;stroke-width:0.5;" width="148" x="1757" y="1272.5"/><ellipse cx="1772" cy="1288.5" fill="#ADD1B2" rx="11" ry="11" style="stroke:#181818;stroke-width:1.0;"/><path d="M1774.7656,1284.375 Q1774.9219,1284.1563 1775.1094,1284.0469 Q1775.2969,1283.9375 1775.5156,1283.9375 Q1775.8906,1283.9375 1776.125,1284.2031 Q1776.3594,1284.4531 1776.3594,1285.0625 L1776.3594,1286.5156 Q1776.3594,1287.125 1776.125,1287.3906 Q1775.8906,1287.6563 1775.5156,1287.6563 Q1775.1719,1287.6563 1774.9688,1287.4531 Q1774.7656,1287.2656 1774.6563,1286.75 Q1774.6094,1286.3906 1774.4219,1286.2031 Q1774.0938,1285.8281 1773.4844,1285.6094 Q1772.875,1285.3906 1772.25,1285.3906 Q1771.4844,1285.3906 1770.8438,1285.7188 Q1770.2188,1286.0469 1769.7188,1286.7969 Q1769.2344,1287.5469 1769.2344,1288.5781 L1769.2344,1289.6719 Q1769.2344,1290.9063 1770.125,1291.7344 Q1771.0156,1292.5469 1772.6094,1292.5469 Q1773.5469,1292.5469 1774.2031,1292.2969 Q1774.5938,1292.1406 1775.0156,1291.7031 Q1775.2813,1291.4375 1775.4219,1291.3594 Q1775.5781,1291.2813 1775.7813,1291.2813 Q1776.1094,1291.2813 1776.3594,1291.5469 Q1776.625,1291.7969 1776.625,1292.1406 Q1776.625,1292.4844 1776.2813,1292.8906 Q1775.7813,1293.4688 1774.9844,1293.7969 Q1773.9063,1294.25 1772.6094,1294.25 Q1771.0938,1294.25 1769.8906,1293.625 Q1768.9063,1293.125 1768.2188,1292.0625 Q1767.5313,1290.9844 1767.5313,1289.7031 L1767.5313,1288.5469 Q1767.5313,1287.2188 1768.1406,1286.0781 Q1768.7656,1284.9219 1769.8594,1284.3125 Q1770.9531,1283.6875 1772.1875,1283.6875 Q1772.9219,1283.6875 1773.5625,1283.8594 Q1774.2188,1284.0156 1774.7656,1284.375 Z " fill="#000000"/><text fill="#000000" font-family="sans-serif" font-size="14" lengthAdjust="spacing" textLength="116" x="1786" y="1294.2285">EthernetSwitchDto</text><line style="stroke:#181818;stroke-width:0.5;" x1="1758" x2="1904" y1="1304.5" y2="1304.5"/><line style="stroke:#181818;stroke-width:0.5;" x1="1758" x2="1904" y1="1312.5" y2="1312.5"/></g><!--MD5=[56424cb3f8ebacad4e8ce83d86c39ad6]
link GenericService to IGenericService--><g id="link_GenericService_IGenericService"><path codeLine="11" d="M1360.33,1351.23 C1352.31,1367.4 1343.25,1385.65 1334.28,1403.73 " fill="none" id="GenericService-to-IGenericService" style="stroke:#181818;stroke-width:1.0;stroke-dasharray:7.0,7.0;"/><polygon fill="none" points="1340.55,1406.85,1325.38,1421.65,1328,1400.62,1340.55,1406.85" style="stroke:#181818;stroke-width:1.0;"/></g><!--MD5=[2557b70de049790e1c1a4cc262bbdad6]
link Entity to IEntityModelDeletedAt--><g id="link_Entity_IEntityModelDeletedAt"><path codeLine="15" d="M266.2,422.03 C228.54,500.22 166.63,628.77 132.5,699.64 " fill="none" id="Entity-to-IEntityModelDeletedAt" style="stroke:#181818;stroke-width:1.0;stroke-dasharray:7.0,7.0;"/><polygon fill="none" points="138.63,703.03,123.65,718.01,126.02,696.95,138.63,703.03" style="stroke:#181818;stroke-width:1.0;"/></g><!--MD5=[a6c7a0eda5b041e127f539f1664bb96a]
link Entity to IEntityModel--><g id="link_Entity_IEntityModel"><path codeLine="16" d="M298,422.03 C298,499.56 298,626.57 298,697.81 " fill="none" id="Entity-to-IEntityModel" style="stroke:#181818;stroke-width:1.0;stroke-dasharray:7.0,7.0;"/><polygon fill="none" points="305,698.01,298,718.01,291,698.01,305,698.01" style="stroke:#181818;stroke-width:1.0;"/></g><!--MD5=[9772157d24c033f2fd4659808d74f7d7]
link IEntityModelDeletedAt to IEntityModel--><!--MD5=[28ddc57433616ceaae86c7f76015305a]
link EthernetSwitch to Entity--><g id="link_EthernetSwitch_Entity"><path codeLine="27" d="M354,228.14 C346.95,244 339.67,260.35 332.79,275.8 " fill="none" id="EthernetSwitch-to-Entity" style="stroke:#181818;stroke-width:1.0;"/><polygon fill="#181818" points="327.38,287.97,333.4747,284.1158,332.261,277.0075,326.1663,280.8618,327.38,287.97" style="stroke:#181818;stroke-width:1.0;"/></g><!--MD5=[1b84833638557571905b03f54e842c8c]
link GormGenericRepository to IGenericRepository--><g id="link_GormGenericRepository_IGenericRepository"><path codeLine="7" d="M1241,530.35 C1241,550.31 1241,580.81 1241,612.81 " fill="none" id="GormGenericRepository-to-IGenericRepository" style="stroke:#181818;stroke-width:1.0;stroke-dasharray:7.0,7.0;"/><polygon fill="none" points="1248,612.84,1241,632.84,1234,612.84,1248,612.84" style="stroke:#181818;stroke-width:1.0;"/></g><!--MD5=[bbe412936ca4b95a00b9eb94a916dd4a]
link EthernetSwitchRepository to GormGenericRepository--><g id="link_EthernetSwitchRepository_GormGenericRepository"><path codeLine="8" d="M1280.91,159.26 C1311.05,212.93 1375.75,348.34 1325,446 C1319.33,456.92 1310.61,466.24 1300.89,474.02 " fill="none" id="EthernetSwitchRepository-to-GormGenericRepository" style="stroke:#181818;stroke-width:1.0;"/><polygon fill="#181818" points="1290.06,481.88,1297.2654,481.5923,1299.7711,474.8306,1292.5657,475.1182,1290.06,481.88" style="stroke:#181818;stroke-width:1.0;"/></g><!--MD5=[97e973a2e17e2fdf95a657100781ecd2]
link EthernetSwitchRepository to EthernetSwitchTypeNote--><g id="link_EthernetSwitchRepository_EthernetSwitchTypeNote"><path codeLine="13" d="M1261.22,159.33 C1249.79,205.46 1224.67,306.9 1216,341.87 " fill="none" id="EthernetSwitchRepository-EthernetSwitchTypeNote" style="stroke:#181818;stroke-width:1.0;stroke-dasharray:7.0,7.0;"/></g><!--MD5=[9f5125094d565c097065cae25f7e2c84]
link EthernetSwitchTypeNote to GormGenericRepository--><g id="link_EthernetSwitchTypeNote_GormGenericRepository"><path codeLine="14" d="M1215.29,368.19 C1219.72,391.75 1229.55,444.05 1235.69,476.73 " fill="none" id="EthernetSwitchTypeNote-to-GormGenericRepository" style="stroke:#181818;stroke-width:1.0;stroke-dasharray:7.0,7.0;"/><polygon fill="#181818" points="1236.64,481.8,1238.8994,472.2138,1235.7117,476.8869,1231.0385,473.6992,1236.64,481.8" style="stroke:#181818;stroke-width:1.0;"/></g><!--MD5=[e4dc094716afb2924cadfdc3ab207821]
link EthernetSwitch to EthernetSwitchTypeNote--><g id="link_EthernetSwitch_EthernetSwitchTypeNote"><path codeLine="15" d="M466.52,155.06 C630.99,198.89 1032.33,305.85 1167.62,341.91 " fill="none" id="EthernetSwitch-EthernetSwitchTypeNote" style="stroke:#181818;stroke-width:1.0;stroke-dasharray:7.0,7.0;"/></g><!--MD5=[f0bd9206a4dd631190c7c77769e5e372]
link EthernetSwitchCreateDto to EthernetSwitchBaseDto--><g id="link_EthernetSwitchCreateDto_EthernetSwitchBaseDto"><path codeLine="9" d="M2228.51,1329.75 C2203.8,1352.19 2169.58,1383.28 2137.06,1412.82 " fill="none" id="EthernetSwitchCreateDto-to-EthernetSwitchBaseDto" style="stroke:#181818;stroke-width:1.0;"/><polygon fill="#181818" points="2127.04,1421.92,2134.1702,1420.8427,2135.9181,1413.8466,2128.7879,1414.9239,2127.04,1421.92" style="stroke:#181818;stroke-width:1.0;"/></g><!--MD5=[cd18a63401ba994ebd33ffac90db2cbb]
link EthernetSwitchUpdateDto to EthernetSwitchBaseDto--><g id="link_EthernetSwitchUpdateDto_EthernetSwitchBaseDto"><path codeLine="9" d="M2037.48,1329.75 C2037.79,1351.13 2038.22,1380.35 2038.64,1408.61 " fill="none" id="EthernetSwitchUpdateDto-to-EthernetSwitchBaseDto" style="stroke:#181818;stroke-width:1.0;"/><polygon fill="#181818" points="2038.83,1421.92,2042.7439,1415.8635,2038.6586,1409.9212,2034.7447,1415.9777,2038.83,1421.92" style="stroke:#181818;stroke-width:1.0;"/></g><!--MD5=[3caa607ff050ff5d17b319ae4460501c]
link EthernetSwitchDto to EthernetSwitchBaseDto--><g id="link_EthernetSwitchDto_EthernetSwitchBaseDto"><path codeLine="9" d="M1854.97,1320.84 C1878.1,1343.37 1914.59,1378.89 1949.07,1412.46 " fill="none" id="EthernetSwitchDto-to-EthernetSwitchBaseDto" style="stroke:#181818;stroke-width:1.0;"/><polygon fill="#181818" points="1958.73,1421.87,1957.2225,1414.8182,1950.1334,1413.4975,1951.6409,1420.5493,1958.73,1421.87" style="stroke:#181818;stroke-width:1.0;"/></g><!--MD5=[ce3a7074c5a166c0fec412a5219a65db]
link EthernetSwitchDto to BaseDto--><g id="link_EthernetSwitchDto_BaseDto"><path codeLine="10" d="M1831.57,1320.84 C1832.25,1348.27 1833.39,1394.97 1834.35,1433.95 " fill="none" id="EthernetSwitchDto-to-BaseDto" style="stroke:#181818;stroke-width:1.0;"/><polygon fill="#181818" points="1834.68,1447.1,1838.5337,1441.005,1834.3897,1435.1035,1830.536,1441.1985,1834.68,1447.1" style="stroke:#181818;stroke-width:1.0;"/></g><!--MD5=[0f8016139b97461ed5ca1f6eecbfcdc4]
link GMN638 to EthernetSwitchService--><g id="link_GMN638_EthernetSwitchService"><path d="M806.77,964.35 C841.01,949.57 882.38,934.39 921.5,927 C1066.93,899.54 1108.78,901.12 1254.5,927 C1289.13,933.15 1325.58,944.73 1357.97,956.98 " fill="none" id="GMN638-EthernetSwitchService" style="stroke:#181818;stroke-width:1.0;stroke-dasharray:7.0,7.0;"/></g><!--MD5=[00a7b3c6cedcc857f096e4343d7ccaca]
link EthernetSwitchRepository to EthernetSwitchService--><g id="link_EthernetSwitchRepository_EthernetSwitchService"><path codeLine="25" d="M1309.08,159.19 C1404.02,214.25 1633.21,363.25 1719,562 C1799.05,747.45 1823.99,1006 1622,1006 " fill="none" id="EthernetSwitchRepository-EthernetSwitchService" style="stroke:#181818;stroke-width:1.0;"/></g><!--MD5=[54ca8e7a2d2a15c54ed4e724ebc9a450]
link EthernetSwitchService to GenericService--><g id="link_EthernetSwitchService_GenericService"><path codeLine="26" d="M1431.97,1047.05 C1422.19,1065.02 1412.06,1086.39 1406,1107 C1394.43,1146.35 1389.63,1192.08 1387.74,1228.65 " fill="none" id="EthernetSwitchService-to-GenericService" style="stroke:#181818;stroke-width:1.0;"/><polygon fill="#181818" points="1387.17,1241.68,1391.4299,1235.8616,1387.6975,1229.6916,1383.4376,1235.51,1387.17,1241.68" style="stroke:#181818;stroke-width:1.0;"/></g><!--MD5=[20602760d8e2622c2f34a54a1a95e3af]
link IGenericRepository to EthernetSwitchService--><!--MD5=[1150ff4a2de42a70bfddf29dbe9f1355]
link EthernetSwitchService to EthernetSwitchServiceTypes--><g id="link_EthernetSwitchService_EthernetSwitchServiceTypes"><path codeLine="37" d="M1491.31,1047.07 C1505.35,1066.22 1521.61,1088.41 1535,1106.66 " fill="none" id="EthernetSwitchService-EthernetSwitchServiceTypes" style="stroke:#181818;stroke-width:1.0;stroke-dasharray:7.0,7.0;"/></g><!--MD5=[19f9161d2c2c10c9e943f6499734ed1d]
link EthernetSwitchServiceTypes to GenericService--><g id="link_EthernetSwitchServiceTypes_GenericService"><path codeLine="38" d="M1519.19,1182.19 C1499.39,1199.17 1475.42,1219.72 1453.35,1238.63 " fill="none" id="EthernetSwitchServiceTypes-to-GenericService" style="stroke:#181818;stroke-width:1.0;stroke-dasharray:7.0,7.0;"/><polygon fill="#181818" points="1449.54,1241.89,1458.9765,1239.0699,1453.3363,1238.636,1453.7701,1232.9959,1449.54,1241.89" style="stroke:#181818;stroke-width:1.0;"/></g><!--MD5=[b0f7fe5f31df835059ab1c194901a7fe]
link EthernetSwitchServiceTypes to EthernetSwitchCreateDto--><g id="link_EthernetSwitchServiceTypes_EthernetSwitchCreateDto"><path codeLine="40" d="M1700.51,1155.46 C1848.03,1167.38 2071.08,1189.55 2151,1219.5 C2178.12,1229.66 2205.16,1247.5 2225.99,1263.34 " fill="none" id="EthernetSwitchServiceTypes-EthernetSwitchCreateDto" style="stroke:#181818;stroke-width:1.0;stroke-dasharray:7.0,7.0;"/></g><!--MD5=[7856b62c62afd124a133667fc83a018f]
link EthernetSwitchServiceTypes to EthernetSwitchUpdateDto--><g id="link_EthernetSwitchServiceTypes_EthernetSwitchUpdateDto"><path codeLine="41" d="M1700.7,1161.15 C1769.44,1172.07 1852.59,1190.14 1923,1219.5 C1949.45,1230.53 1976.26,1248.02 1997.23,1263.44 " fill="none" id="EthernetSwitchServiceTypes-EthernetSwitchUpdateDto" style="stroke:#181818;stroke-width:1.0;stroke-dasharray:7.0,7.0;"/></g><!--MD5=[8b781ed27e3c4292de80ef1c58982566]
link EthernetSwitchServiceTypes to EthernetSwitchDto--><g id="link_EthernetSwitchServiceTypes_EthernetSwitchDto"><path codeLine="42" d="M1644.37,1182.15 C1668.16,1193.45 1693.93,1206.39 1717,1219.5 C1745.54,1235.72 1776.44,1256.53 1798.86,1272.28 " fill="none" id="EthernetSwitchServiceTypes-EthernetSwitchDto" style="stroke:#181818;stroke-width:1.0;stroke-dasharray:7.0,7.0;"/></g><!--MD5=[6869f0ad806ac317b9343214d07dcb77]
@startuml
!include GenericService.puml
!include ../repositories/EthernetSwitchRepository.puml
!include ../dto/EthernetSwitch/EthernetSwitchCreateDto.puml
!include ../dto/EthernetSwitch/EthernetSwitchUpdateDto.puml
!include ../dto/EthernetSwitch/EthernetSwitchDto.puml

package app {
    class EthernetSwitchService {
        -repository IGenericRepository<EthernetSwitch>
        - -
        +GetSupportedModels()
    }

    note left of EthernetSwitchService::GetSupportedModels
    Get ethernet switch models that supported by system
    end note

    note left of EthernetSwitchService
        Advanced business logic for EthernetSwitch entity:
        DTO Validation
        Checking the uniqueness of serial numbers
        Checking the uniqueness of addresses
    end note

    EthernetSwitchRepository -right- EthernetSwitchService::repository
    GenericService *-up- EthernetSwitchService

    EthernetSwitchService .[hidden]up. IGenericRepository

    note as EthernetSwitchServiceTypes
    EntityType is EthernetSwitch
    CreateDtoType is EthernetSwitchCreateDto
    UpdateDtoType is EthernetSwitchUpdateDto
    DtoType is EthernetSwitchDto
    end note

    EthernetSwitchService .down. EthernetSwitchServiceTypes
    GenericService <.up. EthernetSwitchServiceTypes

    EthernetSwitchServiceTypes .. EthernetSwitchCreateDto
    EthernetSwitchServiceTypes .. EthernetSwitchUpdateDto
    EthernetSwitchServiceTypes .. EthernetSwitchDto

}
@enduml

@startuml

package app {
    interface IGenericService<EntityType, CreateDtoType, UpdateDtoType, DtoType> {
        +GetList(ctx context.Context, search, orderBy, orderDirection string, page, pageSize int) (*dtos.PaginatedListDto[DtoType], error)
        - -
        +GetById(ctx context.Context, id uuid.UUID) (*DtoType, error)
        - -
        +Update(ctx context.Context, updateDto UpdateDtoType, id uuid.UUID) error
        - -
        +Create(ctx context.Context, createDto CreateDtoType) (uuid.UUID, error)
        - -
        +Delete(ctx context.Context, id uuid.UUID) error
    }
    note left of IGenericService::GetList
        Get list of elements with search and pagination
    end note

    note left of IGenericService::GetById
        Get entity by ID from service
    end note

    note left of IGenericService::Update
        Save the changes to the existing entity in the service
    end note

    note left of IGenericService::Create
        Add entity to the service
    end note

    note left of IGenericService::Delete
        Mark an entity as deleted
    end note
}


package app {
    class GenericService<EntityType, CreateDtoType, UpdateDtoType, DtoType> {
        -repository IGenericRepository<EntityType>
        - -
        -logger *logrus.Logger
        - -
        -logSourceName string
    }
    GenericService .down.|> IGenericService
}





package app {
    interface IEntityModel {
        +GetID() uuid.UUID
    }
}


package app {
    interface IEntityModelDeletedAt {
        +SetDeleted()
    }
    note bottom of IEntityModelDeletedAt
        Set deletion time
        This method marks that the entity has been deleted
    end note
}


package domain {
    class Entity {
        +ID uuid.UUID `gorm:"primarykey"`
        - -
        +CreatedAt time.Time `gorm:"index"`
        - -
        +UpdatedAt time.Time `gorm:"index"`
        - -
        +DeletedAt time.Time `gorm:"index"`
    }
    Entity .down.|> IEntityModelDeletedAt
    Entity .down.|> IEntityModel

    IEntityModel .left[hidden]. IEntityModelDeletedAt
}


package domain {
    class EthernetSwitch {
        +Name string
        - -
        +Serial string
        - -
        +SwitchModel string
        - -
        +Address string
        - -
        +Username string
        - -
        +Password string
    }
    note left of EthernetSwitch::Serial
    Unique
    end note

    note left of EthernetSwitch::Address
    Unique
    Ip address of the switch
    end note

    EthernetSwitch -down-* Entity
}



package app {
    interface IGenericRepository<EntityType> {
        +GetList(ctx context.Context, orderBy string, orderDirection string, page int, size int, queryBuilder interfaces.IQueryBuilder) (*[]EntityType, error)
        - -
        +Count(ctx context.Context, queryBuilder interfaces.IQueryBuilder) (int64, error)
        - -
        +NewQueryBuilder(ctx context.Context) interfaces.IQueryBuilder
        - -
        +GetById(ctx context.Context, id uuid.UUID) (*EntityType, error)
        - -
        +Update(ctx context.Context, entity *EntityType) error
        - -
        +Insert(ctx context.Context, entity EntityType) (uuid.UUID, error)
        - -
        +Delete(ctx context.Context, id uuid.UUID) error
        - -
        +CloseDb() error
    }
    note left of IGenericRepository::GetList
      Get list of elements with filtering and pagination
    end note

    note left of IGenericRepository::Count
      Get count of entities with filtering
    end note

    note left of IGenericRepository::NewQueryBuilder
      Get new instance of the query builder
    end note

    note left of IGenericRepository::GetById
      Get entity by ID from repository
    end note

    note left of IGenericRepository::Update
      Save the changes to the existing entity in the repository
    end note

    note left of IGenericRepository::Insert
      Add entity to the repository
    end note

    note left of IGenericRepository::Delete
      Delete entity from the database
    end note

    note left of IGenericRepository::CloseDb
      Closes current database connection
    end note
}


package infrastructure {
    class GormGenericRepository<EntityType>

    GormGenericRepository .down.|> IGenericRepository
}


package infrastructure {
    class EthernetSwitchRepository

    EthernetSwitchRepository -down-* GormGenericRepository


    note "EntityType is EthernetSwitch" as EthernetSwitchTypeNote

    EthernetSwitchRepository .down. EthernetSwitchTypeNote
    GormGenericRepository <.up. EthernetSwitchTypeNote
    EthernetSwitch .. EthernetSwitchTypeNote
}



package dtos {
    class EthernetSwitchBaseDto {
        +Name string
        - -
        +Serial string
        - -
        +SwitchModel string
        - -
        +Address string
        - -
        +Username string
    }
}


package dtos {
    class EthernetSwitchCreateDto {
        +Password string
    }

    EthernetSwitchCreateDto - -* EthernetSwitchBaseDto
}



package dtos {
    class EthernetSwitchUpdateDto {
        +Password string
    }

    EthernetSwitchUpdateDto - -* EthernetSwitchBaseDto
}



package dtos {
    class BaseDto {
        +ID uuid.UUID
        - -
        +CreatedAt time.Time
        - -
        +UpdatedAt time.Time
    }
}


package dtos {
    class EthernetSwitchDto {

    }
    EthernetSwitchDto - -* EthernetSwitchBaseDto
    EthernetSwitchDto - -* BaseDto
}


package app {
    class EthernetSwitchService {
        -repository IGenericRepository<EthernetSwitch>
        - -
        +GetSupportedModels()
    }

    note left of EthernetSwitchService::GetSupportedModels
    Get ethernet switch models that supported by system
    end note

    note left of EthernetSwitchService
        Advanced business logic for EthernetSwitch entity:
        DTO Validation
        Checking the uniqueness of serial numbers
        Checking the uniqueness of addresses
    end note

    EthernetSwitchRepository -right- EthernetSwitchService::repository
    GenericService *-up- EthernetSwitchService

    EthernetSwitchService .[hidden]up. IGenericRepository

    note as EthernetSwitchServiceTypes
    EntityType is EthernetSwitch
    CreateDtoType is EthernetSwitchCreateDto
    UpdateDtoType is EthernetSwitchUpdateDto
    DtoType is EthernetSwitchDto
    end note

    EthernetSwitchService .down. EthernetSwitchServiceTypes
    GenericService <.up. EthernetSwitchServiceTypes

    EthernetSwitchServiceTypes .. EthernetSwitchCreateDto
    EthernetSwitchServiceTypes .. EthernetSwitchUpdateDto
    EthernetSwitchServiceTypes .. EthernetSwitchDto

}
@enduml

PlantUML version 1.2022.6(Tue Jun 21 20:34:49 MSK 2022)
(GPL source distribution)
Java Runtime: OpenJDK Runtime Environment
JVM: OpenJDK 64-Bit Server VM
Default Encoding: Cp1251
Language: ru
Country: RU
--></g></svg>