<?xml version="1.0" encoding="UTF-8" standalone="no"?><svg xmlns="http://www.w3.org/2000/svg" xmlns:xlink="http://www.w3.org/1999/xlink" contentStyleType="text/css" height="1749px" preserveAspectRatio="none" style="width:2489px;height:1749px;background:#FFFFFF;" version="1.1" viewBox="0 0 2489 1749" width="2489px" zoomAndPan="magnify"><defs/><g><!--MD5=[d5ac3844f66b12d9e08170e47495e096]
cluster app--><g id="cluster_app"><path d="M114.5,678 L141.5,678 A3.75,3.75 0 0 1 144,680.5 L151,701.6094 L1820.5,701.6094 A2.5,2.5 0 0 1 1823,704.1094 L1823,1739.5 A2.5,2.5 0 0 1 1820.5,1742 L114.5,1742 A2.5,2.5 0 0 1 112,1739.5 L112,680.5 A2.5,2.5 0 0 1 114.5,678 " style="stroke:#000000;stroke-width:1.5;fill:none;"/><line style="stroke:#000000;stroke-width:1.5;fill:none;" x1="112" x2="151" y1="701.6094" y2="701.6094"/><text fill="#000000" font-family="sans-serif" font-size="14" font-weight="bold" lengthAdjust="spacing" textLength="26" x="116" y="694.5332">app</text></g><!--MD5=[27f772719433d509ddbc20ff768eba08]
cluster domain--><g id="cluster_domain"><path d="M8.5,114 L60.5,114 A3.75,3.75 0 0 1 63,116.5 L70,137.6094 L907.5,137.6094 A2.5,2.5 0 0 1 910,140.1094 L910,543.5 A2.5,2.5 0 0 1 907.5,546 L8.5,546 A2.5,2.5 0 0 1 6,543.5 L6,116.5 A2.5,2.5 0 0 1 8.5,114 " style="stroke:#000000;stroke-width:1.5;fill:none;"/><line style="stroke:#000000;stroke-width:1.5;fill:none;" x1="6" x2="70" y1="137.6094" y2="137.6094"/><text fill="#000000" font-family="sans-serif" font-size="14" font-weight="bold" lengthAdjust="spacing" textLength="51" x="10" y="130.5332">domain</text></g><!--MD5=[77349be1bd27b81b697a0f9b3aded3c8]
cluster infrastructure--><g id="cluster_infrastructure"><path d="M972.5,6 L1070.5,6 A3.75,3.75 0 0 1 1073,8.5 L1080,29.6094 L1511.5,29.6094 A2.5,2.5 0 0 1 1514,32.1094 L1514,651.5 A2.5,2.5 0 0 1 1511.5,654 L972.5,654 A2.5,2.5 0 0 1 970,651.5 L970,8.5 A2.5,2.5 0 0 1 972.5,6 " style="stroke:#000000;stroke-width:1.5;fill:none;"/><line style="stroke:#000000;stroke-width:1.5;fill:none;" x1="970" x2="1080" y1="29.6094" y2="29.6094"/><text fill="#000000" font-family="sans-serif" font-size="14" font-weight="bold" lengthAdjust="spacing" textLength="97" x="974" y="22.5332">infrastructure</text></g><!--MD5=[ac65c812e7532cbcd7b9effd958b962e]
cluster dtos--><g id="cluster_dtos"><path d="M1849.5,1360.5 L1881.5,1360.5 A3.75,3.75 0 0 1 1884,1363 L1891,1384.1094 L2479.5,1384.1094 A2.5,2.5 0 0 1 2482,1386.6094 L2482,1728.5 A2.5,2.5 0 0 1 2479.5,1731 L1849.5,1731 A2.5,2.5 0 0 1 1847,1728.5 L1847,1363 A2.5,2.5 0 0 1 1849.5,1360.5 " style="stroke:#000000;stroke-width:1.5;fill:none;"/><line style="stroke:#000000;stroke-width:1.5;fill:none;" x1="1847" x2="1891" y1="1384.1094" y2="1384.1094"/><text fill="#000000" font-family="sans-serif" font-size="14" font-weight="bold" lengthAdjust="spacing" textLength="31" x="1851" y="1377.0332">dtos</text></g><!--MD5=[7c0ed5f9a527ab221a5373ebedcc681c]
class IGenericService--><g id="elem_IGenericService"><rect codeLine="3" fill="#F1F1F1" height="160.0469" id="IGenericService" rx="2.5" ry="2.5" style="stroke:#181818;stroke-width:0.5;" width="829" x="874.5" y="1555"/><ellipse cx="1087.75" cy="1571" fill="#B4A7E5" rx="11" ry="11" style="stroke:#181818;stroke-width:1.0;"/><path d="M1088.7031,1567.6406 L1088.7031,1574.2969 L1090.4219,1574.2969 Q1091.0313,1574.2969 1091.2969,1574.5313 Q1091.5625,1574.7656 1091.5625,1575.1563 Q1091.5625,1575.5313 1091.2969,1575.7656 Q1091.0313,1576 1090.4219,1576 L1085.2813,1576 Q1084.6719,1576 1084.4063,1575.7656 Q1084.1406,1575.5313 1084.1406,1575.1406 Q1084.1406,1574.7656 1084.4063,1574.5313 Q1084.6719,1574.2969 1085.2813,1574.2969 L1087,1574.2969 L1087,1567.6406 L1085.2813,1567.6406 Q1084.6719,1567.6406 1084.4063,1567.4063 Q1084.1406,1567.1719 1084.1406,1566.7813 Q1084.1406,1566.4063 1084.4063,1566.1719 Q1084.6719,1565.9375 1085.2813,1565.9375 L1090.4219,1565.9375 Q1091.0313,1565.9375 1091.2969,1566.1719 Q1091.5625,1566.4063 1091.5625,1566.7813 Q1091.5625,1567.1719 1091.2969,1567.4063 Q1091.0313,1567.6406 1090.4219,1567.6406 L1088.7031,1567.6406 Z " fill="#000000"/><text fill="#000000" font-family="sans-serif" font-size="14" font-style="italic" lengthAdjust="spacing" textLength="100" x="1108.25" y="1576.7285">IGenericService</text><rect fill="#FFFFFF" height="17.0938" style="stroke:#000000;stroke-width:1.0;stroke-dasharray:2.0,2.0;" width="292" x="1414.5" y="1552"/><text fill="#000000" font-family="sans-serif" font-size="12" font-style="italic" lengthAdjust="spacing" textLength="290" x="1415.5" y="1565.457">EntityType, CreateDtoType, UpdateDtoType, DtoType</text><line style="stroke:#181818;stroke-width:0.5;" x1="875.5" x2="1702.5" y1="1587" y2="1587"/><ellipse cx="885.5" cy="1598" fill="#84BE84" rx="3" ry="3" style="stroke:#038048;stroke-width:1.0;"/><text fill="#000000" font-family="sans-serif" font-size="14" lengthAdjust="spacing" textLength="803" x="894.5" y="1605.5332">GetList(ctx context.Context, search, orderBy, orderDirection string, page, pageSize int) (*dtos.PaginatedListDto[DtoType], error)</text><line style="stroke:#181818;stroke-width:1.0;" x1="875.5" x2="1702.5" y1="1612.6094" y2="1612.6094"/><ellipse cx="885.5" cy="1623.6094" fill="#84BE84" rx="3" ry="3" style="stroke:#038048;stroke-width:1.0;"/><text fill="#000000" font-family="sans-serif" font-size="14" lengthAdjust="spacing" textLength="375" x="894.5" y="1631.1426">GetById(ctx context.Context, id uuid.UUID) (*DtoType, error)</text><line style="stroke:#181818;stroke-width:1.0;" x1="875.5" x2="1702.5" y1="1638.2188" y2="1638.2188"/><ellipse cx="885.5" cy="1649.2188" fill="#84BE84" rx="3" ry="3" style="stroke:#038048;stroke-width:1.0;"/><text fill="#000000" font-family="sans-serif" font-size="14" lengthAdjust="spacing" textLength="470" x="894.5" y="1656.752">Update(ctx context.Context, updateDto UpdateDtoType, id uuid.UUID) error</text><line style="stroke:#181818;stroke-width:1.0;" x1="875.5" x2="1702.5" y1="1663.8281" y2="1663.8281"/><ellipse cx="885.5" cy="1674.8281" fill="#84BE84" rx="3" ry="3" style="stroke:#038048;stroke-width:1.0;"/><text fill="#000000" font-family="sans-serif" font-size="14" lengthAdjust="spacing" textLength="457" x="894.5" y="1682.3613">Create(ctx context.Context, createDto CreateDtoType) (uuid.UUID, error)</text><line style="stroke:#181818;stroke-width:1.0;" x1="875.5" x2="1702.5" y1="1689.4375" y2="1689.4375"/><ellipse cx="885.5" cy="1700.4375" fill="#84BE84" rx="3" ry="3" style="stroke:#038048;stroke-width:1.0;"/><text fill="#000000" font-family="sans-serif" font-size="14" lengthAdjust="spacing" textLength="289" x="894.5" y="1707.9707">Delete(ctx context.Context, id uuid.UUID) error</text></g><path d="M513,1544 L513,1570.3516 A0,0 0 0 0 513,1570.3516 L805,1570.3516 A0,0 0 0 0 805,1570.3516 L805,1562 L878.5,1599.8047 L805,1554 L805,1554 L795,1544 L513,1544 A0,0 0 0 0 513,1544 " fill="#FEFFDD" style="stroke:#181818;stroke-width:0.5;"/><path d="M795,1544 L795,1554 L805,1554 L795,1544 " fill="#FEFFDD" style="stroke:#181818;stroke-width:0.5;"/><text fill="#000000" font-family="sans-serif" font-size="13" lengthAdjust="spacing" textLength="271" x="519" y="1562.4951">Get list of elements with search and pagination</text><path d="M513,1580.3516 L513,1606.7031 A0,0 0 0 0 513,1606.7031 L698,1606.7031 A0,0 0 0 0 698,1606.7031 L698,1598.3516 L878.5,1625.4141 L698,1590.3516 L698,1590.3516 L688,1580.3516 L513,1580.3516 A0,0 0 0 0 513,1580.3516 " fill="#FEFFDD" style="stroke:#181818;stroke-width:0.5;"/><path d="M688,1580.3516 L688,1590.3516 L698,1590.3516 L688,1580.3516 " fill="#FEFFDD" style="stroke:#181818;stroke-width:0.5;"/><text fill="#000000" font-family="sans-serif" font-size="13" lengthAdjust="spacing" textLength="164" x="519" y="1598.8467">Get entity by ID from service</text><path d="M513,1616.7031 L513,1643.0547 A0,0 0 0 0 513,1643.0547 L839,1643.0547 A0,0 0 0 0 839,1643.0547 L839,1634.7031 L878.5,1651.0234 L839,1626.7031 L839,1626.7031 L829,1616.7031 L513,1616.7031 A0,0 0 0 0 513,1616.7031 " fill="#FEFFDD" style="stroke:#181818;stroke-width:0.5;"/><path d="M829,1616.7031 L829,1626.7031 L839,1626.7031 L829,1616.7031 " fill="#FEFFDD" style="stroke:#181818;stroke-width:0.5;"/><text fill="#000000" font-family="sans-serif" font-size="13" lengthAdjust="spacing" textLength="305" x="519" y="1635.1982">Save the changes to the existing entity in the service</text><path d="M513,1653.0547 L513,1679.4063 A0,0 0 0 0 513,1679.4063 L674,1679.4063 A0,0 0 0 0 674,1679.4063 L674,1671.0547 L878.5,1676.6328 L674,1663.0547 L674,1663.0547 L664,1653.0547 L513,1653.0547 A0,0 0 0 0 513,1653.0547 " fill="#FEFFDD" style="stroke:#181818;stroke-width:0.5;"/><path d="M664,1653.0547 L664,1663.0547 L674,1663.0547 L664,1653.0547 " fill="#FEFFDD" style="stroke:#181818;stroke-width:0.5;"/><text fill="#000000" font-family="sans-serif" font-size="13" lengthAdjust="spacing" textLength="140" x="519" y="1671.5498">Add entity to the service</text><path d="M513,1689.4063 L513,1715.7578 A0,0 0 0 0 513,1715.7578 L681,1715.7578 A0,0 0 0 0 681,1715.7578 L681,1707.4063 L878.5,1702.2422 L681,1699.4063 L681,1699.4063 L671,1689.4063 L513,1689.4063 A0,0 0 0 0 513,1689.4063 " fill="#FEFFDD" style="stroke:#181818;stroke-width:0.5;"/><path d="M671,1689.4063 L671,1699.4063 L681,1699.4063 L671,1689.4063 " fill="#FEFFDD" style="stroke:#181818;stroke-width:0.5;"/><text fill="#000000" font-family="sans-serif" font-size="13" lengthAdjust="spacing" textLength="147" x="519" y="1707.9014">Mark an entity as deleted</text><!--MD5=[356bca08515a5260142359877c3882a6]
class GenericService--><g id="elem_GenericService"><rect codeLine="4" fill="#F1F1F1" height="108.8281" id="GenericService" rx="2.5" ry="2.5" style="stroke:#181818;stroke-width:0.5;" width="423" x="1077.5" y="1375"/><ellipse cx="1092.5" cy="1391" fill="#ADD1B2" rx="11" ry="11" style="stroke:#181818;stroke-width:1.0;"/><path d="M1095.2656,1386.875 Q1095.4219,1386.6563 1095.6094,1386.5469 Q1095.7969,1386.4375 1096.0156,1386.4375 Q1096.3906,1386.4375 1096.625,1386.7031 Q1096.8594,1386.9531 1096.8594,1387.5625 L1096.8594,1389.0156 Q1096.8594,1389.625 1096.625,1389.8906 Q1096.3906,1390.1563 1096.0156,1390.1563 Q1095.6719,1390.1563 1095.4688,1389.9531 Q1095.2656,1389.7656 1095.1563,1389.25 Q1095.1094,1388.8906 1094.9219,1388.7031 Q1094.5938,1388.3281 1093.9844,1388.1094 Q1093.375,1387.8906 1092.75,1387.8906 Q1091.9844,1387.8906 1091.3438,1388.2188 Q1090.7188,1388.5469 1090.2188,1389.2969 Q1089.7344,1390.0469 1089.7344,1391.0781 L1089.7344,1392.1719 Q1089.7344,1393.4063 1090.625,1394.2344 Q1091.5156,1395.0469 1093.1094,1395.0469 Q1094.0469,1395.0469 1094.7031,1394.7969 Q1095.0938,1394.6406 1095.5156,1394.2031 Q1095.7813,1393.9375 1095.9219,1393.8594 Q1096.0781,1393.7813 1096.2813,1393.7813 Q1096.6094,1393.7813 1096.8594,1394.0469 Q1097.125,1394.2969 1097.125,1394.6406 Q1097.125,1394.9844 1096.7813,1395.3906 Q1096.2813,1395.9688 1095.4844,1396.2969 Q1094.4063,1396.75 1093.1094,1396.75 Q1091.5938,1396.75 1090.3906,1396.125 Q1089.4063,1395.625 1088.7188,1394.5625 Q1088.0313,1393.4844 1088.0313,1392.2031 L1088.0313,1391.0469 Q1088.0313,1389.7188 1088.6406,1388.5781 Q1089.2656,1387.4219 1090.3594,1386.8125 Q1091.4531,1386.1875 1092.6875,1386.1875 Q1093.4219,1386.1875 1094.0625,1386.3594 Q1094.7188,1386.5156 1095.2656,1386.875 Z " fill="#000000"/><text fill="#000000" font-family="sans-serif" font-size="14" lengthAdjust="spacing" textLength="97" x="1106.5" y="1396.7285">GenericService</text><rect fill="#FFFFFF" height="17.0938" style="stroke:#000000;stroke-width:1.0;stroke-dasharray:2.0,2.0;" width="292" x="1211.5" y="1372"/><text fill="#000000" font-family="sans-serif" font-size="12" font-style="italic" lengthAdjust="spacing" textLength="290" x="1212.5" y="1385.457">EntityType, CreateDtoType, UpdateDtoType, DtoType</text><line style="stroke:#181818;stroke-width:0.5;" x1="1078.5" x2="1499.5" y1="1407" y2="1407"/><rect fill="none" height="6" style="stroke:#C82930;stroke-width:1.0;" width="6" x="1085.5" y="1415"/><text fill="#000000" font-family="sans-serif" font-size="14" lengthAdjust="spacing" textLength="271" x="1097.5" y="1425.5332">repository IGenericRepository&lt;EntityType&gt;</text><line style="stroke:#181818;stroke-width:1.0;" x1="1078.5" x2="1499.5" y1="1432.6094" y2="1432.6094"/><rect fill="none" height="6" style="stroke:#C82930;stroke-width:1.0;" width="6" x="1085.5" y="1440.6094"/><text fill="#000000" font-family="sans-serif" font-size="14" lengthAdjust="spacing" textLength="137" x="1097.5" y="1451.1426">logger *logrus.Logger</text><line style="stroke:#181818;stroke-width:1.0;" x1="1078.5" x2="1499.5" y1="1458.2188" y2="1458.2188"/><rect fill="none" height="6" style="stroke:#C82930;stroke-width:1.0;" width="6" x="1085.5" y="1466.2188"/><text fill="#000000" font-family="sans-serif" font-size="14" lengthAdjust="spacing" textLength="139" x="1097.5" y="1476.752">logSourceName string</text></g><!--MD5=[2a39a5be1cc24ddddd6e6286e4ece992]
class IEntityModel--><g id="elem_IEntityModel"><rect codeLine="3" fill="#F1F1F1" height="65.6094" id="IEntityModel" rx="2.5" ry="2.5" style="stroke:#181818;stroke-width:0.5;" width="138" x="335" y="826.5"/><ellipse cx="362.6" cy="842.5" fill="#B4A7E5" rx="11" ry="11" style="stroke:#181818;stroke-width:1.0;"/><path d="M363.5531,839.1406 L363.5531,845.7969 L365.2719,845.7969 Q365.8813,845.7969 366.1469,846.0313 Q366.4125,846.2656 366.4125,846.6563 Q366.4125,847.0313 366.1469,847.2656 Q365.8813,847.5 365.2719,847.5 L360.1313,847.5 Q359.5219,847.5 359.2563,847.2656 Q358.9906,847.0313 358.9906,846.6406 Q358.9906,846.2656 359.2563,846.0313 Q359.5219,845.7969 360.1313,845.7969 L361.85,845.7969 L361.85,839.1406 L360.1313,839.1406 Q359.5219,839.1406 359.2563,838.9063 Q358.9906,838.6719 358.9906,838.2813 Q358.9906,837.9063 359.2563,837.6719 Q359.5219,837.4375 360.1313,837.4375 L365.2719,837.4375 Q365.8813,837.4375 366.1469,837.6719 Q366.4125,837.9063 366.4125,838.2813 Q366.4125,838.6719 366.1469,838.9063 Q365.8813,839.1406 365.2719,839.1406 L363.5531,839.1406 Z " fill="#000000"/><text fill="#000000" font-family="sans-serif" font-size="14" font-style="italic" lengthAdjust="spacing" textLength="78" x="379.4" y="848.2285">IEntityModel</text><line style="stroke:#181818;stroke-width:0.5;" x1="336" x2="472" y1="858.5" y2="858.5"/><line style="stroke:#181818;stroke-width:0.5;" x1="336" x2="472" y1="866.5" y2="866.5"/><ellipse cx="346" cy="877.5" fill="#84BE84" rx="3" ry="3" style="stroke:#038048;stroke-width:1.0;"/><text fill="#000000" font-family="sans-serif" font-size="14" lengthAdjust="spacing" textLength="112" x="355" y="885.0332">GetID() uuid.UUID</text></g><!--MD5=[01906ac0e62f22b4e38e996248db568e]
class IEntityModelDeletedAt--><g id="elem_IEntityModelDeletedAt"><rect codeLine="3" fill="#F1F1F1" height="65.6094" id="IEntityModelDeletedAt" rx="2.5" ry="2.5" style="stroke:#181818;stroke-width:0.5;" width="172" x="128" y="826.5"/><ellipse cx="143" cy="842.5" fill="#B4A7E5" rx="11" ry="11" style="stroke:#181818;stroke-width:1.0;"/><path d="M143.9531,839.1406 L143.9531,845.7969 L145.6719,845.7969 Q146.2813,845.7969 146.5469,846.0313 Q146.8125,846.2656 146.8125,846.6563 Q146.8125,847.0313 146.5469,847.2656 Q146.2813,847.5 145.6719,847.5 L140.5313,847.5 Q139.9219,847.5 139.6563,847.2656 Q139.3906,847.0313 139.3906,846.6406 Q139.3906,846.2656 139.6563,846.0313 Q139.9219,845.7969 140.5313,845.7969 L142.25,845.7969 L142.25,839.1406 L140.5313,839.1406 Q139.9219,839.1406 139.6563,838.9063 Q139.3906,838.6719 139.3906,838.2813 Q139.3906,837.9063 139.6563,837.6719 Q139.9219,837.4375 140.5313,837.4375 L145.6719,837.4375 Q146.2813,837.4375 146.5469,837.6719 Q146.8125,837.9063 146.8125,838.2813 Q146.8125,838.6719 146.5469,838.9063 Q146.2813,839.1406 145.6719,839.1406 L143.9531,839.1406 Z " fill="#000000"/><text fill="#000000" font-family="sans-serif" font-size="14" font-style="italic" lengthAdjust="spacing" textLength="140" x="157" y="848.2285">IEntityModelDeletedAt</text><line style="stroke:#181818;stroke-width:0.5;" x1="129" x2="299" y1="858.5" y2="858.5"/><line style="stroke:#181818;stroke-width:0.5;" x1="129" x2="299" y1="866.5" y2="866.5"/><ellipse cx="139" cy="877.5" fill="#84BE84" rx="3" ry="3" style="stroke:#038048;stroke-width:1.0;"/><text fill="#000000" font-family="sans-serif" font-size="14" lengthAdjust="spacing" textLength="80" x="148" y="885.0332">SetDeleted()</text></g><g id="elem_GMN612"><path d="M128.5,1101 L128.5,1143.7031 A0,0 0 0 0 128.5,1143.7031 L447.5,1143.7031 A0,0 0 0 0 447.5,1143.7031 L447.5,1111 L437.5,1101 L286.16,1101 L223.07,892.5 L278.16,1101 L128.5,1101 A0,0 0 0 0 128.5,1101 " fill="#FEFFDD" style="stroke:#181818;stroke-width:0.5;"/><path d="M437.5,1101 L437.5,1111 L447.5,1111 L437.5,1101 " fill="#FEFFDD" style="stroke:#181818;stroke-width:0.5;"/><text fill="#000000" font-family="sans-serif" font-size="13" lengthAdjust="spacing" textLength="98" x="134.5" y="1119.4951">Set deletion time</text><text fill="#000000" font-family="sans-serif" font-size="13" lengthAdjust="spacing" textLength="298" x="134.5" y="1135.8467">This method marks that the entity has been deleted</text></g><!--MD5=[b3e0f8dcddb1b27f071a0303a68762bf]
class IGenericRepository--><g id="elem_IGenericRepository"><rect codeLine="3" fill="#F1F1F1" height="236.875" id="IGenericRepository" rx="2.5" ry="2.5" style="stroke:#181818;stroke-width:0.5;" width="920" x="887" y="741"/><ellipse cx="1251.25" cy="757" fill="#B4A7E5" rx="11" ry="11" style="stroke:#181818;stroke-width:1.0;"/><path d="M1252.2031,753.6406 L1252.2031,760.2969 L1253.9219,760.2969 Q1254.5313,760.2969 1254.7969,760.5313 Q1255.0625,760.7656 1255.0625,761.1563 Q1255.0625,761.5313 1254.7969,761.7656 Q1254.5313,762 1253.9219,762 L1248.7813,762 Q1248.1719,762 1247.9063,761.7656 Q1247.6406,761.5313 1247.6406,761.1406 Q1247.6406,760.7656 1247.9063,760.5313 Q1248.1719,760.2969 1248.7813,760.2969 L1250.5,760.2969 L1250.5,753.6406 L1248.7813,753.6406 Q1248.1719,753.6406 1247.9063,753.4063 Q1247.6406,753.1719 1247.6406,752.7813 Q1247.6406,752.4063 1247.9063,752.1719 Q1248.1719,751.9375 1248.7813,751.9375 L1253.9219,751.9375 Q1254.5313,751.9375 1254.7969,752.1719 Q1255.0625,752.4063 1255.0625,752.7813 Q1255.0625,753.1719 1254.7969,753.4063 Q1254.5313,753.6406 1253.9219,753.6406 L1252.2031,753.6406 Z " fill="#000000"/><text fill="#000000" font-family="sans-serif" font-size="14" font-style="italic" lengthAdjust="spacing" textLength="122" x="1271.75" y="762.7285">IGenericRepository</text><rect fill="#FFFFFF" height="17.0938" style="stroke:#000000;stroke-width:1.0;stroke-dasharray:2.0,2.0;" width="59" x="1751" y="738"/><text fill="#000000" font-family="sans-serif" font-size="12" font-style="italic" lengthAdjust="spacing" textLength="57" x="1752" y="751.457">EntityType</text><line style="stroke:#181818;stroke-width:0.5;" x1="888" x2="1806" y1="773" y2="773"/><ellipse cx="898" cy="784" fill="#84BE84" rx="3" ry="3" style="stroke:#038048;stroke-width:1.0;"/><text fill="#000000" font-family="sans-serif" font-size="14" lengthAdjust="spacing" textLength="894" x="907" y="791.5332">GetList(ctx context.Context, orderBy string, orderDirection string, page int, size int, queryBuilder interfaces.IQueryBuilder) (*[]EntityType, error)</text><line style="stroke:#181818;stroke-width:1.0;" x1="888" x2="1806" y1="798.6094" y2="798.6094"/><ellipse cx="898" cy="809.6094" fill="#84BE84" rx="3" ry="3" style="stroke:#038048;stroke-width:1.0;"/><text fill="#000000" font-family="sans-serif" font-size="14" lengthAdjust="spacing" textLength="494" x="907" y="817.1426">Count(ctx context.Context, queryBuilder interfaces.IQueryBuilder) (int64, error)</text><line style="stroke:#181818;stroke-width:1.0;" x1="888" x2="1806" y1="824.2188" y2="824.2188"/><ellipse cx="898" cy="835.2188" fill="#84BE84" rx="3" ry="3" style="stroke:#038048;stroke-width:1.0;"/><text fill="#000000" font-family="sans-serif" font-size="14" lengthAdjust="spacing" textLength="393" x="907" y="842.752">NewQueryBuilder(ctx context.Context) interfaces.IQueryBuilder</text><line style="stroke:#181818;stroke-width:1.0;" x1="888" x2="1806" y1="849.8281" y2="849.8281"/><ellipse cx="898" cy="860.8281" fill="#84BE84" rx="3" ry="3" style="stroke:#038048;stroke-width:1.0;"/><text fill="#000000" font-family="sans-serif" font-size="14" lengthAdjust="spacing" textLength="388" x="907" y="868.3613">GetById(ctx context.Context, id uuid.UUID) (*EntityType, error)</text><line style="stroke:#181818;stroke-width:1.0;" x1="888" x2="1806" y1="875.4375" y2="875.4375"/><ellipse cx="898" cy="886.4375" fill="#84BE84" rx="3" ry="3" style="stroke:#038048;stroke-width:1.0;"/><text fill="#000000" font-family="sans-serif" font-size="14" lengthAdjust="spacing" textLength="326" x="907" y="893.9707">Update(ctx context.Context, entity *EntityType) error</text><line style="stroke:#181818;stroke-width:1.0;" x1="888" x2="1806" y1="901.0469" y2="901.0469"/><ellipse cx="898" cy="912.0469" fill="#84BE84" rx="3" ry="3" style="stroke:#038048;stroke-width:1.0;"/><text fill="#000000" font-family="sans-serif" font-size="14" lengthAdjust="spacing" textLength="391" x="907" y="919.5801">Insert(ctx context.Context, entity EntityType) (uuid.UUID, error)</text><line style="stroke:#181818;stroke-width:1.0;" x1="888" x2="1806" y1="926.6563" y2="926.6563"/><ellipse cx="898" cy="937.6563" fill="#84BE84" rx="3" ry="3" style="stroke:#038048;stroke-width:1.0;"/><text fill="#000000" font-family="sans-serif" font-size="14" lengthAdjust="spacing" textLength="289" x="907" y="945.1895">Delete(ctx context.Context, id uuid.UUID) error</text><line style="stroke:#181818;stroke-width:1.0;" x1="888" x2="1806" y1="952.2656" y2="952.2656"/><ellipse cx="898" cy="963.2656" fill="#84BE84" rx="3" ry="3" style="stroke:#038048;stroke-width:1.0;"/><text fill="#000000" font-family="sans-serif" font-size="14" lengthAdjust="spacing" textLength="99" x="907" y="970.7988">CloseDb() error</text></g><path d="M508.5,714 L508.5,740.3516 A0,0 0 0 0 508.5,740.3516 L802.5,740.3516 A0,0 0 0 0 802.5,740.3516 L802.5,732 L891,785.8047 L802.5,724 L802.5,724 L792.5,714 L508.5,714 A0,0 0 0 0 508.5,714 " fill="#FEFFDD" style="stroke:#181818;stroke-width:0.5;"/><path d="M792.5,714 L792.5,724 L802.5,724 L792.5,714 " fill="#FEFFDD" style="stroke:#181818;stroke-width:0.5;"/><text fill="#000000" font-family="sans-serif" font-size="13" lengthAdjust="spacing" textLength="273" x="514.5" y="732.4951">Get list of elements with filtering and pagination</text><path d="M508.5,750.3516 L508.5,776.7031 A0,0 0 0 0 508.5,776.7031 L718.5,776.7031 A0,0 0 0 0 718.5,776.7031 L718.5,768.3516 L891,811.4141 L718.5,760.3516 L718.5,760.3516 L708.5,750.3516 L508.5,750.3516 A0,0 0 0 0 508.5,750.3516 " fill="#FEFFDD" style="stroke:#181818;stroke-width:0.5;"/><path d="M708.5,750.3516 L708.5,760.3516 L718.5,760.3516 L708.5,750.3516 " fill="#FEFFDD" style="stroke:#181818;stroke-width:0.5;"/><text fill="#000000" font-family="sans-serif" font-size="13" lengthAdjust="spacing" textLength="189" x="514.5" y="768.8467">Get count of entities with filtering</text><path d="M508.5,786.7031 L508.5,813.0547 A0,0 0 0 0 508.5,813.0547 L744.5,813.0547 A0,0 0 0 0 744.5,813.0547 L744.5,804.7031 L891,837.0234 L744.5,796.7031 L744.5,796.7031 L734.5,786.7031 L508.5,786.7031 A0,0 0 0 0 508.5,786.7031 " fill="#FEFFDD" style="stroke:#181818;stroke-width:0.5;"/><path d="M734.5,786.7031 L734.5,796.7031 L744.5,796.7031 L734.5,786.7031 " fill="#FEFFDD" style="stroke:#181818;stroke-width:0.5;"/><text fill="#000000" font-family="sans-serif" font-size="13" lengthAdjust="spacing" textLength="215" x="514.5" y="805.1982">Get new instance of the query builder</text><path d="M508.5,823.0547 L508.5,849.4063 A0,0 0 0 0 508.5,849.4063 L710.5,849.4063 A0,0 0 0 0 710.5,849.4063 L710.5,841.0547 L891,862.6328 L710.5,833.0547 L710.5,833.0547 L700.5,823.0547 L508.5,823.0547 A0,0 0 0 0 508.5,823.0547 " fill="#FEFFDD" style="stroke:#181818;stroke-width:0.5;"/><path d="M700.5,823.0547 L700.5,833.0547 L710.5,833.0547 L700.5,823.0547 " fill="#FEFFDD" style="stroke:#181818;stroke-width:0.5;"/><text fill="#000000" font-family="sans-serif" font-size="13" lengthAdjust="spacing" textLength="181" x="514.5" y="841.5498">Get entity by ID from repository</text><path d="M508.5,859.4063 L508.5,885.7578 A0,0 0 0 0 508.5,885.7578 L851.5,885.7578 A0,0 0 0 0 851.5,885.7578 L851.5,877.4063 L891,888.2422 L851.5,869.4063 L851.5,869.4063 L841.5,859.4063 L508.5,859.4063 A0,0 0 0 0 508.5,859.4063 " fill="#FEFFDD" style="stroke:#181818;stroke-width:0.5;"/><path d="M841.5,859.4063 L841.5,869.4063 L851.5,869.4063 L841.5,859.4063 " fill="#FEFFDD" style="stroke:#181818;stroke-width:0.5;"/><text fill="#000000" font-family="sans-serif" font-size="13" lengthAdjust="spacing" textLength="322" x="514.5" y="877.9014">Save the changes to the existing entity in the repository</text><path d="M508.5,895.7578 L508.5,922.1094 A0,0 0 0 0 508.5,922.1094 L686.5,922.1094 A0,0 0 0 0 686.5,922.1094 L686.5,913.7578 L891,913.8516 L686.5,905.7578 L686.5,905.7578 L676.5,895.7578 L508.5,895.7578 A0,0 0 0 0 508.5,895.7578 " fill="#FEFFDD" style="stroke:#181818;stroke-width:0.5;"/><path d="M676.5,895.7578 L676.5,905.7578 L686.5,905.7578 L676.5,895.7578 " fill="#FEFFDD" style="stroke:#181818;stroke-width:0.5;"/><text fill="#000000" font-family="sans-serif" font-size="13" lengthAdjust="spacing" textLength="157" x="514.5" y="914.2529">Add entity to the repository</text><path d="M508.5,932.1094 L508.5,958.4609 A0,0 0 0 0 508.5,958.4609 L710.5,958.4609 A0,0 0 0 0 710.5,958.4609 L710.5,950.1094 L891,939.4609 L710.5,942.1094 L710.5,942.1094 L700.5,932.1094 L508.5,932.1094 A0,0 0 0 0 508.5,932.1094 " fill="#FEFFDD" style="stroke:#181818;stroke-width:0.5;"/><path d="M700.5,932.1094 L700.5,942.1094 L710.5,942.1094 L700.5,932.1094 " fill="#FEFFDD" style="stroke:#181818;stroke-width:0.5;"/><text fill="#000000" font-family="sans-serif" font-size="13" lengthAdjust="spacing" textLength="181" x="514.5" y="950.6045">Delete entity from the database</text><path d="M508.5,968.4609 L508.5,994.8125 A0,0 0 0 0 508.5,994.8125 L737.5,994.8125 A0,0 0 0 0 737.5,994.8125 L737.5,986.4609 L891,965.0703 L737.5,978.4609 L737.5,978.4609 L727.5,968.4609 L508.5,968.4609 A0,0 0 0 0 508.5,968.4609 " fill="#FEFFDD" style="stroke:#181818;stroke-width:0.5;"/><path d="M727.5,968.4609 L727.5,978.4609 L737.5,978.4609 L727.5,968.4609 " fill="#FEFFDD" style="stroke:#181818;stroke-width:0.5;"/><text fill="#000000" font-family="sans-serif" font-size="13" lengthAdjust="spacing" textLength="208" x="514.5" y="986.9561">Closes current database connection</text><!--MD5=[c2fde9c784a62a3ac087d43827625e00]
class EthernetSwitchService--><g id="elem_EthernetSwitchService"><rect codeLine="9" fill="#F1F1F1" height="108.8281" id="EthernetSwitchService" rx="2.5" ry="2.5" style="stroke:#181818;stroke-width:0.5;" width="527" x="922.5" y="1069"/><ellipse cx="1111.25" cy="1085" fill="#ADD1B2" rx="11" ry="11" style="stroke:#181818;stroke-width:1.0;"/><path d="M1114.0156,1080.875 Q1114.1719,1080.6563 1114.3594,1080.5469 Q1114.5469,1080.4375 1114.7656,1080.4375 Q1115.1406,1080.4375 1115.375,1080.7031 Q1115.6094,1080.9531 1115.6094,1081.5625 L1115.6094,1083.0156 Q1115.6094,1083.625 1115.375,1083.8906 Q1115.1406,1084.1563 1114.7656,1084.1563 Q1114.4219,1084.1563 1114.2188,1083.9531 Q1114.0156,1083.7656 1113.9063,1083.25 Q1113.8594,1082.8906 1113.6719,1082.7031 Q1113.3438,1082.3281 1112.7344,1082.1094 Q1112.125,1081.8906 1111.5,1081.8906 Q1110.7344,1081.8906 1110.0938,1082.2188 Q1109.4688,1082.5469 1108.9688,1083.2969 Q1108.4844,1084.0469 1108.4844,1085.0781 L1108.4844,1086.1719 Q1108.4844,1087.4063 1109.375,1088.2344 Q1110.2656,1089.0469 1111.8594,1089.0469 Q1112.7969,1089.0469 1113.4531,1088.7969 Q1113.8438,1088.6406 1114.2656,1088.2031 Q1114.5313,1087.9375 1114.6719,1087.8594 Q1114.8281,1087.7813 1115.0313,1087.7813 Q1115.3594,1087.7813 1115.6094,1088.0469 Q1115.875,1088.2969 1115.875,1088.6406 Q1115.875,1088.9844 1115.5313,1089.3906 Q1115.0313,1089.9688 1114.2344,1090.2969 Q1113.1563,1090.75 1111.8594,1090.75 Q1110.3438,1090.75 1109.1406,1090.125 Q1108.1563,1089.625 1107.4688,1088.5625 Q1106.7813,1087.4844 1106.7813,1086.2031 L1106.7813,1085.0469 Q1106.7813,1083.7188 1107.3906,1082.5781 Q1108.0156,1081.4219 1109.1094,1080.8125 Q1110.2031,1080.1875 1111.4375,1080.1875 Q1112.1719,1080.1875 1112.8125,1080.3594 Q1113.4688,1080.5156 1114.0156,1080.875 Z " fill="#000000"/><text fill="#000000" font-family="sans-serif" font-size="14" lengthAdjust="spacing" textLength="141" x="1131.75" y="1090.7285">EthernetSwitchService</text><line style="stroke:#181818;stroke-width:0.5;" x1="923.5" x2="1448.5" y1="1101" y2="1101"/><rect fill="none" height="6" style="stroke:#C82930;stroke-width:1.0;" width="6" x="930.5" y="1109"/><text fill="#000000" font-family="sans-serif" font-size="14" lengthAdjust="spacing" textLength="298" x="942.5" y="1119.5332">repository IGenericRepository&lt;EthernetSwitch&gt;</text><line style="stroke:#181818;stroke-width:1.0;" x1="923.5" x2="1448.5" y1="1126.6094" y2="1126.6094"/><rect fill="none" height="6" style="stroke:#C82930;stroke-width:1.0;" width="6" x="930.5" y="1134.6094"/><text fill="#000000" font-family="sans-serif" font-size="14" lengthAdjust="spacing" textLength="501" x="942.5" y="1145.1426">switchPortRepository interfaces.IGenericRepository[domain.EthernetSwitchPort]</text><line style="stroke:#181818;stroke-width:1.0;" x1="923.5" x2="1448.5" y1="1152.2188" y2="1152.2188"/><ellipse cx="933.5" cy="1163.2188" fill="#84BE84" rx="3" ry="3" style="stroke:#038048;stroke-width:1.0;"/><text fill="#000000" font-family="sans-serif" font-size="14" lengthAdjust="spacing" textLength="144" x="942.5" y="1170.752">GetSupportedModels()</text></g><path d="M547,1086 L547,1112.3516 A0,0 0 0 0 547,1112.3516 L832,1112.3516 A0,0 0 0 0 832,1112.3516 L832,1104 L926.5,1139.4141 L832,1096 L832,1096 L822,1086 L547,1086 A0,0 0 0 0 547,1086 " fill="#FEFFDD" style="stroke:#181818;stroke-width:0.5;"/><path d="M822,1086 L822,1096 L832,1096 L822,1086 " fill="#FEFFDD" style="stroke:#181818;stroke-width:0.5;"/><text fill="#000000" font-family="sans-serif" font-size="13" lengthAdjust="spacing" textLength="264" x="553" y="1104.4951">Used to remove ports when removing a switch</text><path d="M547,1122.3516 L547,1148.7031 A0,0 0 0 0 547,1148.7031 L879,1148.7031 A0,0 0 0 0 879,1148.7031 L879,1140.3516 L926.5,1165.0234 L879,1132.3516 L879,1132.3516 L869,1122.3516 L547,1122.3516 A0,0 0 0 0 547,1122.3516 " fill="#FEFFDD" style="stroke:#181818;stroke-width:0.5;"/><path d="M869,1122.3516 L869,1132.3516 L879,1132.3516 L869,1122.3516 " fill="#FEFFDD" style="stroke:#181818;stroke-width:0.5;"/><text fill="#000000" font-family="sans-serif" font-size="13" lengthAdjust="spacing" textLength="311" x="553" y="1140.8467">Get ethernet switch models that supported by system</text><g id="elem_GMN662"><path d="M1493,1085 L1493,1118.5 L1457.88,1122.5 L1493,1126.5 L1493,1160.4063 A0,0 0 0 0 1493,1160.4063 L1807,1160.4063 A0,0 0 0 0 1807,1160.4063 L1807,1095 L1797,1085 L1493,1085 A0,0 0 0 0 1493,1085 " fill="#FEFFDD" style="stroke:#181818;stroke-width:0.5;"/><path d="M1797,1085 L1797,1095 L1807,1095 L1797,1085 " fill="#FEFFDD" style="stroke:#181818;stroke-width:0.5;"/><text fill="#000000" font-family="sans-serif" font-size="13" lengthAdjust="spacing" textLength="293" x="1499" y="1103.4951">Advanced business logic for EthernetSwitch entity:</text><text fill="#000000" font-family="sans-serif" font-size="13" lengthAdjust="spacing" textLength="87" x="1499" y="1119.8467">DTO Validation</text><text fill="#000000" font-family="sans-serif" font-size="13" lengthAdjust="spacing" textLength="249" x="1499" y="1136.1982">Checking the uniqueness of serial numbers</text><text fill="#000000" font-family="sans-serif" font-size="13" lengthAdjust="spacing" textLength="224" x="1499" y="1152.5498">Checking the uniqueness of addresses</text></g><g id="elem_EthernetSwitchServiceTypes"><path d="M1529.5,1240 L1529.5,1315.4063 L1806.5,1315.4063 L1806.5,1250 L1796.5,1240 L1529.5,1240 " fill="#FEFFDD" style="stroke:#181818;stroke-width:0.5;"/><path d="M1796.5,1240 L1796.5,1250 L1806.5,1250 L1796.5,1240 " fill="#FEFFDD" style="stroke:#181818;stroke-width:1.0;"/><text fill="#000000" font-family="sans-serif" font-size="13" lengthAdjust="spacing" textLength="168" x="1535.5" y="1258.4951">EntityType is EthernetSwitch</text><text fill="#000000" font-family="sans-serif" font-size="13" lengthAdjust="spacing" textLength="250" x="1535.5" y="1274.8467">CreateDtoType is EthernetSwitchCreateDto</text><text fill="#000000" font-family="sans-serif" font-size="13" lengthAdjust="spacing" textLength="256" x="1535.5" y="1291.1982">UpdateDtoType is EthernetSwitchUpdateDto</text><text fill="#000000" font-family="sans-serif" font-size="13" lengthAdjust="spacing" textLength="174" x="1535.5" y="1307.5498">DtoType is EthernetSwitchDto</text></g><!--MD5=[be996cdb8e6bf2fc7cb89c555f2cd144]
class Entity--><g id="elem_Entity"><rect codeLine="6" fill="#F1F1F1" height="134.4375" id="Entity" rx="2.5" ry="2.5" style="stroke:#181818;stroke-width:0.5;" width="250" x="293" y="396"/><ellipse cx="396.25" cy="412" fill="#ADD1B2" rx="11" ry="11" style="stroke:#181818;stroke-width:1.0;"/><path d="M399.0156,407.875 Q399.1719,407.6563 399.3594,407.5469 Q399.5469,407.4375 399.7656,407.4375 Q400.1406,407.4375 400.375,407.7031 Q400.6094,407.9531 400.6094,408.5625 L400.6094,410.0156 Q400.6094,410.625 400.375,410.8906 Q400.1406,411.1563 399.7656,411.1563 Q399.4219,411.1563 399.2188,410.9531 Q399.0156,410.7656 398.9063,410.25 Q398.8594,409.8906 398.6719,409.7031 Q398.3438,409.3281 397.7344,409.1094 Q397.125,408.8906 396.5,408.8906 Q395.7344,408.8906 395.0938,409.2188 Q394.4688,409.5469 393.9688,410.2969 Q393.4844,411.0469 393.4844,412.0781 L393.4844,413.1719 Q393.4844,414.4063 394.375,415.2344 Q395.2656,416.0469 396.8594,416.0469 Q397.7969,416.0469 398.4531,415.7969 Q398.8438,415.6406 399.2656,415.2031 Q399.5313,414.9375 399.6719,414.8594 Q399.8281,414.7813 400.0313,414.7813 Q400.3594,414.7813 400.6094,415.0469 Q400.875,415.2969 400.875,415.6406 Q400.875,415.9844 400.5313,416.3906 Q400.0313,416.9688 399.2344,417.2969 Q398.1563,417.75 396.8594,417.75 Q395.3438,417.75 394.1406,417.125 Q393.1563,416.625 392.4688,415.5625 Q391.7813,414.4844 391.7813,413.2031 L391.7813,412.0469 Q391.7813,410.7188 392.3906,409.5781 Q393.0156,408.4219 394.1094,407.8125 Q395.2031,407.1875 396.4375,407.1875 Q397.1719,407.1875 397.8125,407.3594 Q398.4688,407.5156 399.0156,407.875 Z " fill="#000000"/><text fill="#000000" font-family="sans-serif" font-size="14" lengthAdjust="spacing" textLength="35" x="416.75" y="417.7285">Entity</text><line style="stroke:#181818;stroke-width:0.5;" x1="294" x2="542" y1="428" y2="428"/><ellipse cx="304" cy="439" fill="none" rx="3" ry="3" style="stroke:#038048;stroke-width:1.0;"/><text fill="#000000" font-family="sans-serif" font-size="14" lengthAdjust="spacing" textLength="208" x="313" y="446.5332">ID uuid.UUID `gorm:"primarykey"`</text><line style="stroke:#181818;stroke-width:1.0;" x1="294" x2="542" y1="453.6094" y2="453.6094"/><ellipse cx="304" cy="464.6094" fill="none" rx="3" ry="3" style="stroke:#038048;stroke-width:1.0;"/><text fill="#000000" font-family="sans-serif" font-size="14" lengthAdjust="spacing" textLength="222" x="313" y="472.1426">CreatedAt time.Time `gorm:"index"`</text><line style="stroke:#181818;stroke-width:1.0;" x1="294" x2="542" y1="479.2188" y2="479.2188"/><ellipse cx="304" cy="490.2188" fill="none" rx="3" ry="3" style="stroke:#038048;stroke-width:1.0;"/><text fill="#000000" font-family="sans-serif" font-size="14" lengthAdjust="spacing" textLength="224" x="313" y="497.752">UpdatedAt time.Time `gorm:"index"`</text><line style="stroke:#181818;stroke-width:1.0;" x1="294" x2="542" y1="504.8281" y2="504.8281"/><ellipse cx="304" cy="515.8281" fill="none" rx="3" ry="3" style="stroke:#038048;stroke-width:1.0;"/><text fill="#000000" font-family="sans-serif" font-size="14" lengthAdjust="spacing" textLength="220" x="313" y="523.3613">DeletedAt time.Time `gorm:"index"`</text></g><!--MD5=[0e6027363d26940633b9df7c844e683a]
class EthernetSwitch--><g id="elem_EthernetSwitch"><rect codeLine="5" fill="#F1F1F1" height="185.6563" id="EthernetSwitch" rx="2.5" ry="2.5" style="stroke:#181818;stroke-width:0.5;" width="143" x="750.5" y="150"/><ellipse cx="773.15" cy="166" fill="#ADD1B2" rx="11" ry="11" style="stroke:#181818;stroke-width:1.0;"/><path d="M775.9156,161.875 Q776.0719,161.6563 776.2594,161.5469 Q776.4469,161.4375 776.6656,161.4375 Q777.0406,161.4375 777.275,161.7031 Q777.5094,161.9531 777.5094,162.5625 L777.5094,164.0156 Q777.5094,164.625 777.275,164.8906 Q777.0406,165.1563 776.6656,165.1563 Q776.3219,165.1563 776.1188,164.9531 Q775.9156,164.7656 775.8063,164.25 Q775.7594,163.8906 775.5719,163.7031 Q775.2438,163.3281 774.6344,163.1094 Q774.025,162.8906 773.4,162.8906 Q772.6344,162.8906 771.9938,163.2188 Q771.3688,163.5469 770.8688,164.2969 Q770.3844,165.0469 770.3844,166.0781 L770.3844,167.1719 Q770.3844,168.4063 771.275,169.2344 Q772.1656,170.0469 773.7594,170.0469 Q774.6969,170.0469 775.3531,169.7969 Q775.7438,169.6406 776.1656,169.2031 Q776.4313,168.9375 776.5719,168.8594 Q776.7281,168.7813 776.9313,168.7813 Q777.2594,168.7813 777.5094,169.0469 Q777.775,169.2969 777.775,169.6406 Q777.775,169.9844 777.4313,170.3906 Q776.9313,170.9688 776.1344,171.2969 Q775.0563,171.75 773.7594,171.75 Q772.2438,171.75 771.0406,171.125 Q770.0563,170.625 769.3688,169.5625 Q768.6813,168.4844 768.6813,167.2031 L768.6813,166.0469 Q768.6813,164.7188 769.2906,163.5781 Q769.9156,162.4219 771.0094,161.8125 Q772.1031,161.1875 773.3375,161.1875 Q774.0719,161.1875 774.7125,161.3594 Q775.3688,161.5156 775.9156,161.875 Z " fill="#000000"/><text fill="#000000" font-family="sans-serif" font-size="14" lengthAdjust="spacing" textLength="94" x="788.85" y="171.7285">EthernetSwitch</text><line style="stroke:#181818;stroke-width:0.5;" x1="751.5" x2="892.5" y1="182" y2="182"/><ellipse cx="761.5" cy="193" fill="none" rx="3" ry="3" style="stroke:#038048;stroke-width:1.0;"/><text fill="#000000" font-family="sans-serif" font-size="14" lengthAdjust="spacing" textLength="75" x="770.5" y="200.5332">Name string</text><line style="stroke:#181818;stroke-width:1.0;" x1="751.5" x2="892.5" y1="207.6094" y2="207.6094"/><ellipse cx="761.5" cy="218.6094" fill="none" rx="3" ry="3" style="stroke:#038048;stroke-width:1.0;"/><text fill="#000000" font-family="sans-serif" font-size="14" lengthAdjust="spacing" textLength="75" x="770.5" y="226.1426">Serial string</text><line style="stroke:#181818;stroke-width:1.0;" x1="751.5" x2="892.5" y1="233.2188" y2="233.2188"/><ellipse cx="761.5" cy="244.2188" fill="none" rx="3" ry="3" style="stroke:#038048;stroke-width:1.0;"/><text fill="#000000" font-family="sans-serif" font-size="14" lengthAdjust="spacing" textLength="117" x="770.5" y="251.752">SwitchModel string</text><line style="stroke:#181818;stroke-width:1.0;" x1="751.5" x2="892.5" y1="258.8281" y2="258.8281"/><ellipse cx="761.5" cy="269.8281" fill="none" rx="3" ry="3" style="stroke:#038048;stroke-width:1.0;"/><text fill="#000000" font-family="sans-serif" font-size="14" lengthAdjust="spacing" textLength="91" x="770.5" y="277.3613">Address string</text><line style="stroke:#181818;stroke-width:1.0;" x1="751.5" x2="892.5" y1="284.4375" y2="284.4375"/><ellipse cx="761.5" cy="295.4375" fill="none" rx="3" ry="3" style="stroke:#038048;stroke-width:1.0;"/><text fill="#000000" font-family="sans-serif" font-size="14" lengthAdjust="spacing" textLength="103" x="770.5" y="302.9707">Username string</text><line style="stroke:#181818;stroke-width:1.0;" x1="751.5" x2="892.5" y1="310.0469" y2="310.0469"/><ellipse cx="761.5" cy="321.0469" fill="none" rx="3" ry="3" style="stroke:#038048;stroke-width:1.0;"/><text fill="#000000" font-family="sans-serif" font-size="14" lengthAdjust="spacing" textLength="100" x="770.5" y="328.5801">Password string</text></g><path d="M557,198.5 L557,224.8516 A0,0 0 0 0 557,224.8516 L618,224.8516 A0,0 0 0 0 618,224.8516 L618,216.5 L754.5,220.4141 L618,208.5 L618,208.5 L608,198.5 L557,198.5 A0,0 0 0 0 557,198.5 " fill="#FEFFDD" style="stroke:#181818;stroke-width:0.5;"/><path d="M608,198.5 L608,208.5 L618,208.5 L608,198.5 " fill="#FEFFDD" style="stroke:#181818;stroke-width:0.5;"/><text fill="#000000" font-family="sans-serif" font-size="13" lengthAdjust="spacing" textLength="40" x="563" y="216.9951">Unique</text><path d="M557,234.8516 L557,277.5547 A0,0 0 0 0 557,277.5547 L715,277.5547 A0,0 0 0 0 715,277.5547 L715,260.2031 L754.5,271.6328 L715,252.2031 L715,244.8516 L705,234.8516 L557,234.8516 A0,0 0 0 0 557,234.8516 " fill="#FEFFDD" style="stroke:#181818;stroke-width:0.5;"/><path d="M705,234.8516 L705,244.8516 L715,244.8516 L705,234.8516 " fill="#FEFFDD" style="stroke:#181818;stroke-width:0.5;"/><text fill="#000000" font-family="sans-serif" font-size="13" lengthAdjust="spacing" textLength="40" x="563" y="253.3467">Unique</text><text fill="#000000" font-family="sans-serif" font-size="13" lengthAdjust="spacing" textLength="137" x="563" y="269.6982">Ip address of the switch</text><!--MD5=[a0c76383944e982ee35488825d35b1c9]
class EthernetSwitchPort--><g id="elem_EthernetSwitchPort"><rect codeLine="5" fill="#F1F1F1" height="108.8281" id="EthernetSwitchPort" rx="2.5" ry="2.5" style="stroke:#181818;stroke-width:0.5;" width="197" x="324.5" y="188.5"/><ellipse cx="359.75" cy="204.5" fill="#ADD1B2" rx="11" ry="11" style="stroke:#181818;stroke-width:1.0;"/><path d="M362.5156,200.375 Q362.6719,200.1563 362.8594,200.0469 Q363.0469,199.9375 363.2656,199.9375 Q363.6406,199.9375 363.875,200.2031 Q364.1094,200.4531 364.1094,201.0625 L364.1094,202.5156 Q364.1094,203.125 363.875,203.3906 Q363.6406,203.6563 363.2656,203.6563 Q362.9219,203.6563 362.7188,203.4531 Q362.5156,203.2656 362.4063,202.75 Q362.3594,202.3906 362.1719,202.2031 Q361.8438,201.8281 361.2344,201.6094 Q360.625,201.3906 360,201.3906 Q359.2344,201.3906 358.5938,201.7188 Q357.9688,202.0469 357.4688,202.7969 Q356.9844,203.5469 356.9844,204.5781 L356.9844,205.6719 Q356.9844,206.9063 357.875,207.7344 Q358.7656,208.5469 360.3594,208.5469 Q361.2969,208.5469 361.9531,208.2969 Q362.3438,208.1406 362.7656,207.7031 Q363.0313,207.4375 363.1719,207.3594 Q363.3281,207.2813 363.5313,207.2813 Q363.8594,207.2813 364.1094,207.5469 Q364.375,207.7969 364.375,208.1406 Q364.375,208.4844 364.0313,208.8906 Q363.5313,209.4688 362.7344,209.7969 Q361.6563,210.25 360.3594,210.25 Q358.8438,210.25 357.6406,209.625 Q356.6563,209.125 355.9688,208.0625 Q355.2813,206.9844 355.2813,205.7031 L355.2813,204.5469 Q355.2813,203.2188 355.8906,202.0781 Q356.5156,200.9219 357.6094,200.3125 Q358.7031,199.6875 359.9375,199.6875 Q360.6719,199.6875 361.3125,199.8594 Q361.9688,200.0156 362.5156,200.375 Z " fill="#000000"/><text fill="#000000" font-family="sans-serif" font-size="14" lengthAdjust="spacing" textLength="120" x="378.25" y="210.2285">EthernetSwitchPort</text><line style="stroke:#181818;stroke-width:0.5;" x1="325.5" x2="520.5" y1="220.5" y2="220.5"/><ellipse cx="335.5" cy="231.5" fill="none" rx="3" ry="3" style="stroke:#038048;stroke-width:1.0;"/><text fill="#000000" font-family="sans-serif" font-size="14" lengthAdjust="spacing" textLength="171" x="344.5" y="239.0332">EthernetSwitchId uuid.UUID</text><line style="stroke:#181818;stroke-width:1.0;" x1="325.5" x2="520.5" y1="246.1094" y2="246.1094"/><ellipse cx="335.5" cy="257.1094" fill="none" rx="3" ry="3" style="stroke:#038048;stroke-width:1.0;"/><text fill="#000000" font-family="sans-serif" font-size="14" lengthAdjust="spacing" textLength="100" x="344.5" y="264.6426">POEType string</text><line style="stroke:#181818;stroke-width:1.0;" x1="325.5" x2="520.5" y1="271.7188" y2="271.7188"/><ellipse cx="335.5" cy="282.7188" fill="none" rx="3" ry="3" style="stroke:#038048;stroke-width:1.0;"/><text fill="#000000" font-family="sans-serif" font-size="14" lengthAdjust="spacing" textLength="75" x="344.5" y="290.252">Name string</text></g><path d="M22.5,198.5 L22.5,241.2031 A0,0 0 0 0 22.5,241.2031 L289.5,241.2031 A0,0 0 0 0 289.5,241.2031 L289.5,223.8516 L328.5,258.9141 L289.5,215.8516 L289.5,208.5 L279.5,198.5 L22.5,198.5 A0,0 0 0 0 22.5,198.5 " fill="#FEFFDD" style="stroke:#181818;stroke-width:0.5;"/><path d="M279.5,198.5 L279.5,208.5 L289.5,208.5 L279.5,198.5 " fill="#FEFFDD" style="stroke:#181818;stroke-width:0.5;"/><text fill="#000000" font-family="sans-serif" font-size="13" lengthAdjust="spacing" textLength="83" x="28.5" y="216.9951">POE port type</text><text fill="#000000" font-family="sans-serif" font-size="13" lengthAdjust="spacing" textLength="246" x="28.5" y="233.3467">can be: "poe", "poe+", "passive24", "none"</text><path d="M22.5,251.2031 L22.5,277.5547 A0,0 0 0 0 22.5,277.5547 L172.5,277.5547 A0,0 0 0 0 172.5,277.5547 L172.5,269.2031 L328.5,284.5234 L172.5,261.2031 L172.5,261.2031 L162.5,251.2031 L22.5,251.2031 A0,0 0 0 0 22.5,251.2031 " fill="#FEFFDD" style="stroke:#181818;stroke-width:0.5;"/><path d="M162.5,251.2031 L162.5,261.2031 L172.5,261.2031 L162.5,251.2031 " fill="#FEFFDD" style="stroke:#181818;stroke-width:0.5;"/><text fill="#000000" font-family="sans-serif" font-size="13" lengthAdjust="spacing" textLength="129" x="28.5" y="269.6982">Unique within 1 switch</text><!--MD5=[27abfb56f32eefa7f07c83348fb1ee32]
class GormGenericRepository--><g id="elem_GormGenericRepository"><rect codeLine="5" fill="#F1F1F1" height="48" id="GormGenericRepository" rx="2.5" ry="2.5" style="stroke:#181818;stroke-width:0.5;" width="246" x="1224" y="590"/><ellipse cx="1239" cy="606" fill="#ADD1B2" rx="11" ry="11" style="stroke:#181818;stroke-width:1.0;"/><path d="M1241.7656,601.875 Q1241.9219,601.6563 1242.1094,601.5469 Q1242.2969,601.4375 1242.5156,601.4375 Q1242.8906,601.4375 1243.125,601.7031 Q1243.3594,601.9531 1243.3594,602.5625 L1243.3594,604.0156 Q1243.3594,604.625 1243.125,604.8906 Q1242.8906,605.1563 1242.5156,605.1563 Q1242.1719,605.1563 1241.9688,604.9531 Q1241.7656,604.7656 1241.6563,604.25 Q1241.6094,603.8906 1241.4219,603.7031 Q1241.0938,603.3281 1240.4844,603.1094 Q1239.875,602.8906 1239.25,602.8906 Q1238.4844,602.8906 1237.8438,603.2188 Q1237.2188,603.5469 1236.7188,604.2969 Q1236.2344,605.0469 1236.2344,606.0781 L1236.2344,607.1719 Q1236.2344,608.4063 1237.125,609.2344 Q1238.0156,610.0469 1239.6094,610.0469 Q1240.5469,610.0469 1241.2031,609.7969 Q1241.5938,609.6406 1242.0156,609.2031 Q1242.2813,608.9375 1242.4219,608.8594 Q1242.5781,608.7813 1242.7813,608.7813 Q1243.1094,608.7813 1243.3594,609.0469 Q1243.625,609.2969 1243.625,609.6406 Q1243.625,609.9844 1243.2813,610.3906 Q1242.7813,610.9688 1241.9844,611.2969 Q1240.9063,611.75 1239.6094,611.75 Q1238.0938,611.75 1236.8906,611.125 Q1235.9063,610.625 1235.2188,609.5625 Q1234.5313,608.4844 1234.5313,607.2031 L1234.5313,606.0469 Q1234.5313,604.7188 1235.1406,603.5781 Q1235.7656,602.4219 1236.8594,601.8125 Q1237.9531,601.1875 1239.1875,601.1875 Q1239.9219,601.1875 1240.5625,601.3594 Q1241.2188,601.5156 1241.7656,601.875 Z " fill="#000000"/><text fill="#000000" font-family="sans-serif" font-size="14" lengthAdjust="spacing" textLength="153" x="1253" y="611.7285">GormGenericRepository</text><rect fill="#FFFFFF" height="17.0938" style="stroke:#000000;stroke-width:1.0;stroke-dasharray:2.0,2.0;" width="59" x="1414" y="587"/><text fill="#000000" font-family="sans-serif" font-size="12" font-style="italic" lengthAdjust="spacing" textLength="57" x="1415" y="600.457">EntityType</text><line style="stroke:#181818;stroke-width:0.5;" x1="1225" x2="1469" y1="622" y2="622"/><line style="stroke:#181818;stroke-width:0.5;" x1="1225" x2="1469" y1="630" y2="630"/></g><!--MD5=[44d95913ec2b3ba897526465ba0cec4b]
class EthernetSwitchRepository--><g id="elem_EthernetSwitchRepository"><rect codeLine="6" fill="#F1F1F1" height="48" id="EthernetSwitchRepository" rx="2.5" ry="2.5" style="stroke:#181818;stroke-width:0.5;" width="194" x="1304" y="219"/><ellipse cx="1319" cy="235" fill="#ADD1B2" rx="11" ry="11" style="stroke:#181818;stroke-width:1.0;"/><path d="M1321.7656,230.875 Q1321.9219,230.6563 1322.1094,230.5469 Q1322.2969,230.4375 1322.5156,230.4375 Q1322.8906,230.4375 1323.125,230.7031 Q1323.3594,230.9531 1323.3594,231.5625 L1323.3594,233.0156 Q1323.3594,233.625 1323.125,233.8906 Q1322.8906,234.1563 1322.5156,234.1563 Q1322.1719,234.1563 1321.9688,233.9531 Q1321.7656,233.7656 1321.6563,233.25 Q1321.6094,232.8906 1321.4219,232.7031 Q1321.0938,232.3281 1320.4844,232.1094 Q1319.875,231.8906 1319.25,231.8906 Q1318.4844,231.8906 1317.8438,232.2188 Q1317.2188,232.5469 1316.7188,233.2969 Q1316.2344,234.0469 1316.2344,235.0781 L1316.2344,236.1719 Q1316.2344,237.4063 1317.125,238.2344 Q1318.0156,239.0469 1319.6094,239.0469 Q1320.5469,239.0469 1321.2031,238.7969 Q1321.5938,238.6406 1322.0156,238.2031 Q1322.2813,237.9375 1322.4219,237.8594 Q1322.5781,237.7813 1322.7813,237.7813 Q1323.1094,237.7813 1323.3594,238.0469 Q1323.625,238.2969 1323.625,238.6406 Q1323.625,238.9844 1323.2813,239.3906 Q1322.7813,239.9688 1321.9844,240.2969 Q1320.9063,240.75 1319.6094,240.75 Q1318.0938,240.75 1316.8906,240.125 Q1315.9063,239.625 1315.2188,238.5625 Q1314.5313,237.4844 1314.5313,236.2031 L1314.5313,235.0469 Q1314.5313,233.7188 1315.1406,232.5781 Q1315.7656,231.4219 1316.8594,230.8125 Q1317.9531,230.1875 1319.1875,230.1875 Q1319.9219,230.1875 1320.5625,230.3594 Q1321.2188,230.5156 1321.7656,230.875 Z " fill="#000000"/><text fill="#000000" font-family="sans-serif" font-size="14" lengthAdjust="spacing" textLength="162" x="1333" y="240.7285">EthernetSwitchRepository</text><line style="stroke:#181818;stroke-width:0.5;" x1="1305" x2="1497" y1="251" y2="251"/><line style="stroke:#181818;stroke-width:0.5;" x1="1305" x2="1497" y1="259" y2="259"/></g><g id="elem_EthernetSwitchTypeNote"><path d="M1234.5,450 L1234.5,476.3516 L1423.5,476.3516 L1423.5,460 L1413.5,450 L1234.5,450 " fill="#FEFFDD" style="stroke:#181818;stroke-width:0.5;"/><path d="M1413.5,450 L1413.5,460 L1423.5,460 L1413.5,450 " fill="#FEFFDD" style="stroke:#181818;stroke-width:1.0;"/><text fill="#000000" font-family="sans-serif" font-size="13" lengthAdjust="spacing" textLength="168" x="1240.5" y="468.4951">EntityType is EthernetSwitch</text></g><!--MD5=[08ca7a30bf9989fb15c0f21009c8ae57]
class EthernetSwitchPortRepository--><g id="elem_EthernetSwitchPortRepository"><rect codeLine="6" fill="#F1F1F1" height="48" id="EthernetSwitchPortRepository" rx="2.5" ry="2.5" style="stroke:#181818;stroke-width:0.5;" width="220" x="1218" y="42"/><ellipse cx="1233" cy="58" fill="#ADD1B2" rx="11" ry="11" style="stroke:#181818;stroke-width:1.0;"/><path d="M1235.7656,53.875 Q1235.9219,53.6563 1236.1094,53.5469 Q1236.2969,53.4375 1236.5156,53.4375 Q1236.8906,53.4375 1237.125,53.7031 Q1237.3594,53.9531 1237.3594,54.5625 L1237.3594,56.0156 Q1237.3594,56.625 1237.125,56.8906 Q1236.8906,57.1563 1236.5156,57.1563 Q1236.1719,57.1563 1235.9688,56.9531 Q1235.7656,56.7656 1235.6563,56.25 Q1235.6094,55.8906 1235.4219,55.7031 Q1235.0938,55.3281 1234.4844,55.1094 Q1233.875,54.8906 1233.25,54.8906 Q1232.4844,54.8906 1231.8438,55.2188 Q1231.2188,55.5469 1230.7188,56.2969 Q1230.2344,57.0469 1230.2344,58.0781 L1230.2344,59.1719 Q1230.2344,60.4063 1231.125,61.2344 Q1232.0156,62.0469 1233.6094,62.0469 Q1234.5469,62.0469 1235.2031,61.7969 Q1235.5938,61.6406 1236.0156,61.2031 Q1236.2813,60.9375 1236.4219,60.8594 Q1236.5781,60.7813 1236.7813,60.7813 Q1237.1094,60.7813 1237.3594,61.0469 Q1237.625,61.2969 1237.625,61.6406 Q1237.625,61.9844 1237.2813,62.3906 Q1236.7813,62.9688 1235.9844,63.2969 Q1234.9063,63.75 1233.6094,63.75 Q1232.0938,63.75 1230.8906,63.125 Q1229.9063,62.625 1229.2188,61.5625 Q1228.5313,60.4844 1228.5313,59.2031 L1228.5313,58.0469 Q1228.5313,56.7188 1229.1406,55.5781 Q1229.7656,54.4219 1230.8594,53.8125 Q1231.9531,53.1875 1233.1875,53.1875 Q1233.9219,53.1875 1234.5625,53.3594 Q1235.2188,53.5156 1235.7656,53.875 Z " fill="#000000"/><text fill="#000000" font-family="sans-serif" font-size="14" lengthAdjust="spacing" textLength="188" x="1247" y="63.7285">EthernetSwitchPortRepository</text><line style="stroke:#181818;stroke-width:0.5;" x1="1219" x2="1437" y1="74" y2="74"/><line style="stroke:#181818;stroke-width:0.5;" x1="1219" x2="1437" y1="82" y2="82"/></g><g id="elem_EthernetSwitchPortTypeNote"><path d="M986.5,450 L986.5,476.3516 L1199.5,476.3516 L1199.5,460 L1189.5,450 L986.5,450 " fill="#FEFFDD" style="stroke:#181818;stroke-width:0.5;"/><path d="M1189.5,450 L1189.5,460 L1199.5,460 L1189.5,450 " fill="#FEFFDD" style="stroke:#181818;stroke-width:1.0;"/><text fill="#000000" font-family="sans-serif" font-size="13" lengthAdjust="spacing" textLength="192" x="992.5" y="468.4951">EntityType is EthernetSwitchPort</text></g><!--MD5=[4f15965369cf1e2d28449fc0d2ee4583]
class EthernetSwitchBaseDto--><g id="elem_EthernetSwitchBaseDto"><rect codeLine="3" fill="#F1F1F1" height="160.0469" id="EthernetSwitchBaseDto" rx="2.5" ry="2.5" style="stroke:#181818;stroke-width:0.5;" width="180" x="2093" y="1555"/><ellipse cx="2108" cy="1571" fill="#ADD1B2" rx="11" ry="11" style="stroke:#181818;stroke-width:1.0;"/><path d="M2110.7656,1566.875 Q2110.9219,1566.6563 2111.1094,1566.5469 Q2111.2969,1566.4375 2111.5156,1566.4375 Q2111.8906,1566.4375 2112.125,1566.7031 Q2112.3594,1566.9531 2112.3594,1567.5625 L2112.3594,1569.0156 Q2112.3594,1569.625 2112.125,1569.8906 Q2111.8906,1570.1563 2111.5156,1570.1563 Q2111.1719,1570.1563 2110.9688,1569.9531 Q2110.7656,1569.7656 2110.6563,1569.25 Q2110.6094,1568.8906 2110.4219,1568.7031 Q2110.0938,1568.3281 2109.4844,1568.1094 Q2108.875,1567.8906 2108.25,1567.8906 Q2107.4844,1567.8906 2106.8438,1568.2188 Q2106.2188,1568.5469 2105.7188,1569.2969 Q2105.2344,1570.0469 2105.2344,1571.0781 L2105.2344,1572.1719 Q2105.2344,1573.4063 2106.125,1574.2344 Q2107.0156,1575.0469 2108.6094,1575.0469 Q2109.5469,1575.0469 2110.2031,1574.7969 Q2110.5938,1574.6406 2111.0156,1574.2031 Q2111.2813,1573.9375 2111.4219,1573.8594 Q2111.5781,1573.7813 2111.7813,1573.7813 Q2112.1094,1573.7813 2112.3594,1574.0469 Q2112.625,1574.2969 2112.625,1574.6406 Q2112.625,1574.9844 2112.2813,1575.3906 Q2111.7813,1575.9688 2110.9844,1576.2969 Q2109.9063,1576.75 2108.6094,1576.75 Q2107.0938,1576.75 2105.8906,1576.125 Q2104.9063,1575.625 2104.2188,1574.5625 Q2103.5313,1573.4844 2103.5313,1572.2031 L2103.5313,1571.0469 Q2103.5313,1569.7188 2104.1406,1568.5781 Q2104.7656,1567.4219 2105.8594,1566.8125 Q2106.9531,1566.1875 2108.1875,1566.1875 Q2108.9219,1566.1875 2109.5625,1566.3594 Q2110.2188,1566.5156 2110.7656,1566.875 Z " fill="#000000"/><text fill="#000000" font-family="sans-serif" font-size="14" lengthAdjust="spacing" textLength="148" x="2122" y="1576.7285">EthernetSwitchBaseDto</text><line style="stroke:#181818;stroke-width:0.5;" x1="2094" x2="2272" y1="1587" y2="1587"/><ellipse cx="2104" cy="1598" fill="none" rx="3" ry="3" style="stroke:#038048;stroke-width:1.0;"/><text fill="#000000" font-family="sans-serif" font-size="14" lengthAdjust="spacing" textLength="75" x="2113" y="1605.5332">Name string</text><line style="stroke:#181818;stroke-width:1.0;" x1="2094" x2="2272" y1="1612.6094" y2="1612.6094"/><ellipse cx="2104" cy="1623.6094" fill="none" rx="3" ry="3" style="stroke:#038048;stroke-width:1.0;"/><text fill="#000000" font-family="sans-serif" font-size="14" lengthAdjust="spacing" textLength="75" x="2113" y="1631.1426">Serial string</text><line style="stroke:#181818;stroke-width:1.0;" x1="2094" x2="2272" y1="1638.2188" y2="1638.2188"/><ellipse cx="2104" cy="1649.2188" fill="none" rx="3" ry="3" style="stroke:#038048;stroke-width:1.0;"/><text fill="#000000" font-family="sans-serif" font-size="14" lengthAdjust="spacing" textLength="117" x="2113" y="1656.752">SwitchModel string</text><line style="stroke:#181818;stroke-width:1.0;" x1="2094" x2="2272" y1="1663.8281" y2="1663.8281"/><ellipse cx="2104" cy="1674.8281" fill="none" rx="3" ry="3" style="stroke:#038048;stroke-width:1.0;"/><text fill="#000000" font-family="sans-serif" font-size="14" lengthAdjust="spacing" textLength="91" x="2113" y="1682.3613">Address string</text><line style="stroke:#181818;stroke-width:1.0;" x1="2094" x2="2272" y1="1689.4375" y2="1689.4375"/><ellipse cx="2104" cy="1700.4375" fill="none" rx="3" ry="3" style="stroke:#038048;stroke-width:1.0;"/><text fill="#000000" font-family="sans-serif" font-size="14" lengthAdjust="spacing" textLength="103" x="2113" y="1707.9707">Username string</text></g><!--MD5=[b5f51fede5412d5c08046421531bde8a]
class EthernetSwitchCreateDto--><g id="elem_EthernetSwitchCreateDto"><rect codeLine="5" fill="#F1F1F1" height="65.6094" id="EthernetSwitchCreateDto" rx="2.5" ry="2.5" style="stroke:#181818;stroke-width:0.5;" width="191" x="1863.5" y="1396.5"/><ellipse cx="1878.5" cy="1412.5" fill="#ADD1B2" rx="11" ry="11" style="stroke:#181818;stroke-width:1.0;"/><path d="M1881.2656,1408.375 Q1881.4219,1408.1563 1881.6094,1408.0469 Q1881.7969,1407.9375 1882.0156,1407.9375 Q1882.3906,1407.9375 1882.625,1408.2031 Q1882.8594,1408.4531 1882.8594,1409.0625 L1882.8594,1410.5156 Q1882.8594,1411.125 1882.625,1411.3906 Q1882.3906,1411.6563 1882.0156,1411.6563 Q1881.6719,1411.6563 1881.4688,1411.4531 Q1881.2656,1411.2656 1881.1563,1410.75 Q1881.1094,1410.3906 1880.9219,1410.2031 Q1880.5938,1409.8281 1879.9844,1409.6094 Q1879.375,1409.3906 1878.75,1409.3906 Q1877.9844,1409.3906 1877.3438,1409.7188 Q1876.7188,1410.0469 1876.2188,1410.7969 Q1875.7344,1411.5469 1875.7344,1412.5781 L1875.7344,1413.6719 Q1875.7344,1414.9063 1876.625,1415.7344 Q1877.5156,1416.5469 1879.1094,1416.5469 Q1880.0469,1416.5469 1880.7031,1416.2969 Q1881.0938,1416.1406 1881.5156,1415.7031 Q1881.7813,1415.4375 1881.9219,1415.3594 Q1882.0781,1415.2813 1882.2813,1415.2813 Q1882.6094,1415.2813 1882.8594,1415.5469 Q1883.125,1415.7969 1883.125,1416.1406 Q1883.125,1416.4844 1882.7813,1416.8906 Q1882.2813,1417.4688 1881.4844,1417.7969 Q1880.4063,1418.25 1879.1094,1418.25 Q1877.5938,1418.25 1876.3906,1417.625 Q1875.4063,1417.125 1874.7188,1416.0625 Q1874.0313,1414.9844 1874.0313,1413.7031 L1874.0313,1412.5469 Q1874.0313,1411.2188 1874.6406,1410.0781 Q1875.2656,1408.9219 1876.3594,1408.3125 Q1877.4531,1407.6875 1878.6875,1407.6875 Q1879.4219,1407.6875 1880.0625,1407.8594 Q1880.7188,1408.0156 1881.2656,1408.375 Z " fill="#000000"/><text fill="#000000" font-family="sans-serif" font-size="14" lengthAdjust="spacing" textLength="159" x="1892.5" y="1418.2285">EthernetSwitchCreateDto</text><line style="stroke:#181818;stroke-width:0.5;" x1="1864.5" x2="2053.5" y1="1428.5" y2="1428.5"/><ellipse cx="1874.5" cy="1439.5" fill="none" rx="3" ry="3" style="stroke:#038048;stroke-width:1.0;"/><text fill="#000000" font-family="sans-serif" font-size="14" lengthAdjust="spacing" textLength="100" x="1883.5" y="1447.0332">Password string</text><line style="stroke:#181818;stroke-width:0.5;" x1="1864.5" x2="2053.5" y1="1454.1094" y2="1454.1094"/></g><!--MD5=[c34e1a9004d5b1340cd98967367dc0c0]
class EthernetSwitchUpdateDto--><g id="elem_EthernetSwitchUpdateDto"><rect codeLine="5" fill="#F1F1F1" height="65.6094" id="EthernetSwitchUpdateDto" rx="2.5" ry="2.5" style="stroke:#181818;stroke-width:0.5;" width="193" x="2089.5" y="1396.5"/><ellipse cx="2104.5" cy="1412.5" fill="#ADD1B2" rx="11" ry="11" style="stroke:#181818;stroke-width:1.0;"/><path d="M2107.2656,1408.375 Q2107.4219,1408.1563 2107.6094,1408.0469 Q2107.7969,1407.9375 2108.0156,1407.9375 Q2108.3906,1407.9375 2108.625,1408.2031 Q2108.8594,1408.4531 2108.8594,1409.0625 L2108.8594,1410.5156 Q2108.8594,1411.125 2108.625,1411.3906 Q2108.3906,1411.6563 2108.0156,1411.6563 Q2107.6719,1411.6563 2107.4688,1411.4531 Q2107.2656,1411.2656 2107.1563,1410.75 Q2107.1094,1410.3906 2106.9219,1410.2031 Q2106.5938,1409.8281 2105.9844,1409.6094 Q2105.375,1409.3906 2104.75,1409.3906 Q2103.9844,1409.3906 2103.3438,1409.7188 Q2102.7188,1410.0469 2102.2188,1410.7969 Q2101.7344,1411.5469 2101.7344,1412.5781 L2101.7344,1413.6719 Q2101.7344,1414.9063 2102.625,1415.7344 Q2103.5156,1416.5469 2105.1094,1416.5469 Q2106.0469,1416.5469 2106.7031,1416.2969 Q2107.0938,1416.1406 2107.5156,1415.7031 Q2107.7813,1415.4375 2107.9219,1415.3594 Q2108.0781,1415.2813 2108.2813,1415.2813 Q2108.6094,1415.2813 2108.8594,1415.5469 Q2109.125,1415.7969 2109.125,1416.1406 Q2109.125,1416.4844 2108.7813,1416.8906 Q2108.2813,1417.4688 2107.4844,1417.7969 Q2106.4063,1418.25 2105.1094,1418.25 Q2103.5938,1418.25 2102.3906,1417.625 Q2101.4063,1417.125 2100.7188,1416.0625 Q2100.0313,1414.9844 2100.0313,1413.7031 L2100.0313,1412.5469 Q2100.0313,1411.2188 2100.6406,1410.0781 Q2101.2656,1408.9219 2102.3594,1408.3125 Q2103.4531,1407.6875 2104.6875,1407.6875 Q2105.4219,1407.6875 2106.0625,1407.8594 Q2106.7188,1408.0156 2107.2656,1408.375 Z " fill="#000000"/><text fill="#000000" font-family="sans-serif" font-size="14" lengthAdjust="spacing" textLength="161" x="2118.5" y="1418.2285">EthernetSwitchUpdateDto</text><line style="stroke:#181818;stroke-width:0.5;" x1="2090.5" x2="2281.5" y1="1428.5" y2="1428.5"/><ellipse cx="2100.5" cy="1439.5" fill="none" rx="3" ry="3" style="stroke:#038048;stroke-width:1.0;"/><text fill="#000000" font-family="sans-serif" font-size="14" lengthAdjust="spacing" textLength="100" x="2109.5" y="1447.0332">Password string</text><line style="stroke:#181818;stroke-width:0.5;" x1="2090.5" x2="2281.5" y1="1454.1094" y2="1454.1094"/></g><!--MD5=[a203eca1f0769929ae1344e0135bff6b]
class BaseDto--><g id="elem_BaseDto"><rect codeLine="3" fill="#F1F1F1" height="108.8281" id="BaseDto" rx="2.5" ry="2.5" style="stroke:#181818;stroke-width:0.5;" width="157" x="2308.5" y="1580.5"/><ellipse cx="2355.75" cy="1596.5" fill="#ADD1B2" rx="11" ry="11" style="stroke:#181818;stroke-width:1.0;"/><path d="M2358.5156,1592.375 Q2358.6719,1592.1563 2358.8594,1592.0469 Q2359.0469,1591.9375 2359.2656,1591.9375 Q2359.6406,1591.9375 2359.875,1592.2031 Q2360.1094,1592.4531 2360.1094,1593.0625 L2360.1094,1594.5156 Q2360.1094,1595.125 2359.875,1595.3906 Q2359.6406,1595.6563 2359.2656,1595.6563 Q2358.9219,1595.6563 2358.7188,1595.4531 Q2358.5156,1595.2656 2358.4063,1594.75 Q2358.3594,1594.3906 2358.1719,1594.2031 Q2357.8438,1593.8281 2357.2344,1593.6094 Q2356.625,1593.3906 2356,1593.3906 Q2355.2344,1593.3906 2354.5938,1593.7188 Q2353.9688,1594.0469 2353.4688,1594.7969 Q2352.9844,1595.5469 2352.9844,1596.5781 L2352.9844,1597.6719 Q2352.9844,1598.9063 2353.875,1599.7344 Q2354.7656,1600.5469 2356.3594,1600.5469 Q2357.2969,1600.5469 2357.9531,1600.2969 Q2358.3438,1600.1406 2358.7656,1599.7031 Q2359.0313,1599.4375 2359.1719,1599.3594 Q2359.3281,1599.2813 2359.5313,1599.2813 Q2359.8594,1599.2813 2360.1094,1599.5469 Q2360.375,1599.7969 2360.375,1600.1406 Q2360.375,1600.4844 2360.0313,1600.8906 Q2359.5313,1601.4688 2358.7344,1601.7969 Q2357.6563,1602.25 2356.3594,1602.25 Q2354.8438,1602.25 2353.6406,1601.625 Q2352.6563,1601.125 2351.9688,1600.0625 Q2351.2813,1598.9844 2351.2813,1597.7031 L2351.2813,1596.5469 Q2351.2813,1595.2188 2351.8906,1594.0781 Q2352.5156,1592.9219 2353.6094,1592.3125 Q2354.7031,1591.6875 2355.9375,1591.6875 Q2356.6719,1591.6875 2357.3125,1591.8594 Q2357.9688,1592.0156 2358.5156,1592.375 Z " fill="#000000"/><text fill="#000000" font-family="sans-serif" font-size="14" lengthAdjust="spacing" textLength="54" x="2376.25" y="1602.2285">BaseDto</text><line style="stroke:#181818;stroke-width:0.5;" x1="2309.5" x2="2464.5" y1="1612.5" y2="1612.5"/><ellipse cx="2319.5" cy="1623.5" fill="none" rx="3" ry="3" style="stroke:#038048;stroke-width:1.0;"/><text fill="#000000" font-family="sans-serif" font-size="14" lengthAdjust="spacing" textLength="79" x="2328.5" y="1631.0332">ID uuid.UUID</text><line style="stroke:#181818;stroke-width:1.0;" x1="2309.5" x2="2464.5" y1="1638.1094" y2="1638.1094"/><ellipse cx="2319.5" cy="1649.1094" fill="none" rx="3" ry="3" style="stroke:#038048;stroke-width:1.0;"/><text fill="#000000" font-family="sans-serif" font-size="14" lengthAdjust="spacing" textLength="129" x="2328.5" y="1656.6426">CreatedAt time.Time</text><line style="stroke:#181818;stroke-width:1.0;" x1="2309.5" x2="2464.5" y1="1663.7188" y2="1663.7188"/><ellipse cx="2319.5" cy="1674.7188" fill="none" rx="3" ry="3" style="stroke:#038048;stroke-width:1.0;"/><text fill="#000000" font-family="sans-serif" font-size="14" lengthAdjust="spacing" textLength="131" x="2328.5" y="1682.252">UpdatedAt time.Time</text></g><!--MD5=[b580cc5ff93fe4dac06272a8d0848e45]
class EthernetSwitchDto--><g id="elem_EthernetSwitchDto"><rect codeLine="6" fill="#F1F1F1" height="48" id="EthernetSwitchDto" rx="2.5" ry="2.5" style="stroke:#181818;stroke-width:0.5;" width="148" x="2318" y="1405.5"/><ellipse cx="2333" cy="1421.5" fill="#ADD1B2" rx="11" ry="11" style="stroke:#181818;stroke-width:1.0;"/><path d="M2335.7656,1417.375 Q2335.9219,1417.1563 2336.1094,1417.0469 Q2336.2969,1416.9375 2336.5156,1416.9375 Q2336.8906,1416.9375 2337.125,1417.2031 Q2337.3594,1417.4531 2337.3594,1418.0625 L2337.3594,1419.5156 Q2337.3594,1420.125 2337.125,1420.3906 Q2336.8906,1420.6563 2336.5156,1420.6563 Q2336.1719,1420.6563 2335.9688,1420.4531 Q2335.7656,1420.2656 2335.6563,1419.75 Q2335.6094,1419.3906 2335.4219,1419.2031 Q2335.0938,1418.8281 2334.4844,1418.6094 Q2333.875,1418.3906 2333.25,1418.3906 Q2332.4844,1418.3906 2331.8438,1418.7188 Q2331.2188,1419.0469 2330.7188,1419.7969 Q2330.2344,1420.5469 2330.2344,1421.5781 L2330.2344,1422.6719 Q2330.2344,1423.9063 2331.125,1424.7344 Q2332.0156,1425.5469 2333.6094,1425.5469 Q2334.5469,1425.5469 2335.2031,1425.2969 Q2335.5938,1425.1406 2336.0156,1424.7031 Q2336.2813,1424.4375 2336.4219,1424.3594 Q2336.5781,1424.2813 2336.7813,1424.2813 Q2337.1094,1424.2813 2337.3594,1424.5469 Q2337.625,1424.7969 2337.625,1425.1406 Q2337.625,1425.4844 2337.2813,1425.8906 Q2336.7813,1426.4688 2335.9844,1426.7969 Q2334.9063,1427.25 2333.6094,1427.25 Q2332.0938,1427.25 2330.8906,1426.625 Q2329.9063,1426.125 2329.2188,1425.0625 Q2328.5313,1423.9844 2328.5313,1422.7031 L2328.5313,1421.5469 Q2328.5313,1420.2188 2329.1406,1419.0781 Q2329.7656,1417.9219 2330.8594,1417.3125 Q2331.9531,1416.6875 2333.1875,1416.6875 Q2333.9219,1416.6875 2334.5625,1416.8594 Q2335.2188,1417.0156 2335.7656,1417.375 Z " fill="#000000"/><text fill="#000000" font-family="sans-serif" font-size="14" lengthAdjust="spacing" textLength="116" x="2347" y="1427.2285">EthernetSwitchDto</text><line style="stroke:#181818;stroke-width:0.5;" x1="2319" x2="2465" y1="1437.5" y2="1437.5"/><line style="stroke:#181818;stroke-width:0.5;" x1="2319" x2="2465" y1="1445.5" y2="1445.5"/></g><!--MD5=[56424cb3f8ebacad4e8ce83d86c39ad6]
link GenericService to IGenericService--><g id="link_GenericService_IGenericService"><path codeLine="11" d="M1289,1484.23 C1289,1499.72 1289,1517.14 1289,1534.47 " fill="none" id="GenericService-to-IGenericService" style="stroke:#181818;stroke-width:1.0;stroke-dasharray:7.0,7.0;"/><polygon fill="none" points="1296,1534.65,1289,1554.65,1282,1534.65,1296,1534.65" style="stroke:#181818;stroke-width:1.0;"/></g><!--MD5=[2557b70de049790e1c1a4cc262bbdad6]
link Entity to IEntityModelDeletedAt--><g id="link_Entity_IEntityModelDeletedAt"><path codeLine="15" d="M383.85,530.03 C343.33,608.39 276.67,737.32 240.07,808.09 " fill="none" id="Entity-to-IEntityModelDeletedAt" style="stroke:#181818;stroke-width:1.0;stroke-dasharray:7.0,7.0;"/><polygon fill="none" points="246.21,811.46,230.8,826.01,233.77,805.03,246.21,811.46" style="stroke:#181818;stroke-width:1.0;"/></g><!--MD5=[a6c7a0eda5b041e127f539f1664bb96a]
link Entity to IEntityModel--><g id="link_Entity_IEntityModel"><path codeLine="16" d="M415.66,530.03 C412.91,607.56 408.4,734.57 405.87,805.81 " fill="none" id="Entity-to-IEntityModel" style="stroke:#181818;stroke-width:1.0;stroke-dasharray:7.0,7.0;"/><polygon fill="none" points="412.86,806.27,405.15,826.01,398.87,805.77,412.86,806.27" style="stroke:#181818;stroke-width:1.0;"/></g><!--MD5=[9772157d24c033f2fd4659808d74f7d7]
link IEntityModelDeletedAt to IEntityModel--><!--MD5=[28ddc57433616ceaae86c7f76015305a]
link EthernetSwitch to Entity--><g id="link_EthernetSwitch_Entity"><path codeLine="27" d="M750.33,322.26 C744.36,327.2 738.22,331.84 732,336 C678.31,371.87 612.82,400.17 555.58,420.79 " fill="none" id="EthernetSwitch-to-Entity" style="stroke:#181818;stroke-width:1.0;"/><polygon fill="#181818" points="543.12,425.2,550.1114,426.9665,554.431,421.1924,547.4396,419.4258,543.12,425.2" style="stroke:#181818;stroke-width:1.0;"/></g><!--MD5=[1b84833638557571905b03f54e842c8c]
link GormGenericRepository to IGenericRepository--><g id="link_GormGenericRepository_IGenericRepository"><path codeLine="7" d="M1347,638.35 C1347,658.31 1347,688.81 1347,720.81 " fill="none" id="GormGenericRepository-to-IGenericRepository" style="stroke:#181818;stroke-width:1.0;stroke-dasharray:7.0,7.0;"/><polygon fill="none" points="1354,720.84,1347,740.84,1340,720.84,1354,720.84" style="stroke:#181818;stroke-width:1.0;"/></g><!--MD5=[bbe412936ca4b95a00b9eb94a916dd4a]
link EthernetSwitchRepository to GormGenericRepository--><g id="link_EthernetSwitchRepository_GormGenericRepository"><path codeLine="8" d="M1416.95,267.38 C1451.99,321.9 1527.99,459.94 1469,554 C1461.44,566.06 1450.64,575.71 1438.56,583.42 " fill="none" id="EthernetSwitchRepository-to-GormGenericRepository" style="stroke:#181818;stroke-width:1.0;"/><polygon fill="#181818" points="1427.15,589.97,1434.345,590.4514,1437.5567,583.995,1430.3617,583.5136,1427.15,589.97" style="stroke:#181818;stroke-width:1.0;"/></g><!--MD5=[97e973a2e17e2fdf95a657100781ecd2]
link EthernetSwitchRepository to EthernetSwitchTypeNote--><g id="link_EthernetSwitchRepository_EthernetSwitchTypeNote"><path codeLine="13" d="M1393.29,267.33 C1378.06,313.46 1344.55,414.9 1333.01,449.87 " fill="none" id="EthernetSwitchRepository-EthernetSwitchTypeNote" style="stroke:#181818;stroke-width:1.0;stroke-dasharray:7.0,7.0;"/></g><!--MD5=[9f5125094d565c097065cae25f7e2c84]
link EthernetSwitchTypeNote to GormGenericRepository--><g id="link_EthernetSwitchTypeNote_GormGenericRepository"><path codeLine="14" d="M1330.47,476.19 C1333.32,499.75 1339.64,552.05 1343.58,584.73 " fill="none" id="EthernetSwitchTypeNote-to-GormGenericRepository" style="stroke:#181818;stroke-width:1.0;stroke-dasharray:7.0,7.0;"/><polygon fill="#181818" points="1344.2,589.8,1347.0896,580.3846,1343.5992,584.8362,1339.1475,581.3459,1344.2,589.8" style="stroke:#181818;stroke-width:1.0;"/></g><!--MD5=[e4dc094716afb2924cadfdc3ab207821]
link EthernetSwitch to EthernetSwitchTypeNote--><g id="link_EthernetSwitch_EthernetSwitchTypeNote"><path codeLine="15" d="M893.66,294.92 C917.14,309.83 943.91,325.06 970,336 C1074.17,379.7 1112.32,353.53 1217,396 C1252.76,410.51 1290.72,435.08 1311.99,449.8 " fill="none" id="EthernetSwitch-EthernetSwitchTypeNote" style="stroke:#181818;stroke-width:1.0;stroke-dasharray:7.0,7.0;"/></g><!--MD5=[afd672b6d7a853cadad0fa5e76e30a74]
link EthernetSwitchPort to Entity--><g id="link_EthernetSwitchPort_Entity"><path codeLine="13" d="M421.77,297.61 C421.18,323.18 420.47,354.3 419.82,382.55 " fill="none" id="EthernetSwitchPort-to-Entity" style="stroke:#181818;stroke-width:1.0;"/><polygon fill="#181818" points="419.52,395.73,423.6574,389.8239,419.7968,383.7332,415.6595,389.6393,419.52,395.73" style="stroke:#181818;stroke-width:1.0;"/></g><!--MD5=[1762f5c7af981631210025ef4f9c269e]
link EthernetSwitchPortRepository to GormGenericRepository--><g id="link_EthernetSwitchPortRepository_GormGenericRepository"><path codeLine="8" d="M1297.59,90.16 C1293.28,94.9 1289.48,100.22 1287,106 C1246.7,199.94 1229.31,251.61 1287,336 C1328.45,396.64 1399.55,335.36 1441,396 C1460.81,424.99 1457.99,523.27 1441,554 C1434.71,565.38 1425.2,574.86 1414.6,582.65 " fill="none" id="EthernetSwitchPortRepository-to-GormGenericRepository" style="stroke:#181818;stroke-width:1.0;"/><polygon fill="#181818" points="1403.73,589.89,1410.9411,589.8988,1413.7227,583.2458,1406.5116,583.237,1403.73,589.89" style="stroke:#181818;stroke-width:1.0;"/></g><!--MD5=[fe4788a4e689d7fb18894f4eb70a548f]
link EthernetSwitchPortRepository to EthernetSwitchPortTypeNote--><g id="link_EthernetSwitchPortRepository_EthernetSwitchPortTypeNote"><path codeLine="13" d="M1278.1,90.15 C1271.15,94.75 1264.51,100.04 1259,106 C1156.91,216.4 1107.53,400.73 1095.8,449.73 " fill="none" id="EthernetSwitchPortRepository-EthernetSwitchPortTypeNote" style="stroke:#181818;stroke-width:1.0;stroke-dasharray:7.0,7.0;"/></g><!--MD5=[db6d18f36f875cfdbc509bcef396f1a5]
link EthernetSwitchPortTypeNote to GormGenericRepository--><g id="link_EthernetSwitchPortTypeNote_GormGenericRepository"><path codeLine="14" d="M1107.6,476.11 C1130.13,494.44 1175.15,529.65 1217,554 C1238.5,566.51 1263.12,578.28 1285.12,587.96 " fill="none" id="EthernetSwitchPortTypeNote-to-GormGenericRepository" style="stroke:#181818;stroke-width:1.0;stroke-dasharray:7.0,7.0;"/><polygon fill="#181818" points="1289.77,590,1283.1386,582.7182,1285.1922,587.9892,1279.9212,590.0428,1289.77,590" style="stroke:#181818;stroke-width:1.0;"/></g><!--MD5=[9c0460ae0ce9578d5fd891f7c11771f8]
link EthernetSwitchPort to EthernetSwitchPortTypeNote--><g id="link_EthernetSwitchPort_EthernetSwitchPortTypeNote"><path codeLine="15" d="M478.78,297.63 C496.76,312.21 517.6,326.56 539,336 C691.82,403.41 748.3,354.15 910,396 C966.07,410.51 1029.15,435.2 1064.68,449.92 " fill="none" id="EthernetSwitchPort-EthernetSwitchPortTypeNote" style="stroke:#181818;stroke-width:1.0;stroke-dasharray:7.0,7.0;"/></g><!--MD5=[f0bd9206a4dd631190c7c77769e5e372]
link EthernetSwitchCreateDto to EthernetSwitchBaseDto--><g id="link_EthernetSwitchCreateDto_EthernetSwitchBaseDto"><path codeLine="9" d="M1994.49,1462.75 C2019.2,1485.19 2053.42,1516.28 2085.94,1545.82 " fill="none" id="EthernetSwitchCreateDto-to-EthernetSwitchBaseDto" style="stroke:#181818;stroke-width:1.0;"/><polygon fill="#181818" points="2095.96,1554.92,2094.2121,1547.9239,2087.0819,1546.8466,2088.8298,1553.8427,2095.96,1554.92" style="stroke:#181818;stroke-width:1.0;"/></g><!--MD5=[cd18a63401ba994ebd33ffac90db2cbb]
link EthernetSwitchUpdateDto to EthernetSwitchBaseDto--><g id="link_EthernetSwitchUpdateDto_EthernetSwitchBaseDto"><path codeLine="9" d="M2185.52,1462.75 C2185.21,1484.13 2184.78,1513.35 2184.36,1541.61 " fill="none" id="EthernetSwitchUpdateDto-to-EthernetSwitchBaseDto" style="stroke:#181818;stroke-width:1.0;"/><polygon fill="#181818" points="2184.17,1554.92,2188.2553,1548.9777,2184.3414,1542.9212,2180.2561,1548.8635,2184.17,1554.92" style="stroke:#181818;stroke-width:1.0;"/></g><!--MD5=[3caa607ff050ff5d17b319ae4460501c]
link EthernetSwitchDto to EthernetSwitchBaseDto--><g id="link_EthernetSwitchDto_EthernetSwitchBaseDto"><path codeLine="9" d="M2368.03,1453.84 C2344.9,1476.37 2308.41,1511.89 2273.93,1545.46 " fill="none" id="EthernetSwitchDto-to-EthernetSwitchBaseDto" style="stroke:#181818;stroke-width:1.0;"/><polygon fill="#181818" points="2264.27,1554.87,2271.3591,1553.5493,2272.8666,1546.4975,2265.7775,1547.8182,2264.27,1554.87" style="stroke:#181818;stroke-width:1.0;"/></g><!--MD5=[ce3a7074c5a166c0fec412a5219a65db]
link EthernetSwitchDto to BaseDto--><g id="link_EthernetSwitchDto_BaseDto"><path codeLine="10" d="M2391.43,1453.84 C2390.75,1481.27 2389.61,1527.97 2388.65,1566.95 " fill="none" id="EthernetSwitchDto-to-BaseDto" style="stroke:#181818;stroke-width:1.0;"/><polygon fill="#181818" points="2388.32,1580.1,2392.464,1574.1985,2388.6103,1568.1035,2384.4663,1574.005,2388.32,1580.1" style="stroke:#181818;stroke-width:1.0;"/></g><!--MD5=[00a7b3c6cedcc857f096e4343d7ccaca]
link EthernetSwitchRepository to EthernetSwitchService--><g id="link_EthernetSwitchRepository_EthernetSwitchService"><path codeLine="31" d="M1439.23,267.07 C1527.61,322.95 1744.67,475.41 1825,670 C1881.82,807.62 1920.95,891.15 1825,1005 C1723.58,1125.35 1602.94,971.95 1476,1065 C1456.44,1079.34 1475.25,1113.5 1451,1113.5 " fill="none" id="EthernetSwitchRepository-EthernetSwitchService" style="stroke:#181818;stroke-width:1.0;"/></g><!--MD5=[7eb08d8b4260e68a2df9b03110170485]
link EthernetSwitchPortRepository to EthernetSwitchService--><g id="link_EthernetSwitchPortRepository_EthernetSwitchService"><path codeLine="32" d="M1438.46,80.28 C1464.73,86.02 1492.07,94.24 1516,106 C1734.1,213.18 1931,218.99 1931,462 C1931,462 1931,462 1931,615 C1931,789.81 2002.53,880.32 1880,1005 C1752.76,1134.47 1615.16,948.44 1476,1065 C1449.23,1087.43 1485.93,1139.5 1451,1139.5 " fill="none" id="EthernetSwitchPortRepository-EthernetSwitchService" style="stroke:#181818;stroke-width:1.0;"/></g><!--MD5=[54ca8e7a2d2a15c54ed4e724ebc9a450]
link EthernetSwitchService to GenericService--><g id="link_EthernetSwitchService_GenericService"><path codeLine="33" d="M1205.13,1180.15 C1222.56,1231.75 1248.29,1307.96 1266.65,1362.33 " fill="none" id="EthernetSwitchService-to-GenericService" style="stroke:#181818;stroke-width:1.0;"/><polygon fill="#181818" points="1270.92,1374.96,1272.7908,1367.9958,1267.0818,1363.5904,1265.211,1370.5546,1270.92,1374.96" style="stroke:#181818;stroke-width:1.0;"/></g><!--MD5=[20602760d8e2622c2f34a54a1a95e3af]
link IGenericRepository to EthernetSwitchService--><!--MD5=[10f60970fbbaee124124fe840932bcf7]
link EthernetSwitchPortRepository to EthernetSwitchRepository--><!--MD5=[1150ff4a2de42a70bfddf29dbe9f1355]
link EthernetSwitchService to EthernetSwitchServiceTypes--><g id="link_EthernetSwitchService_EthernetSwitchServiceTypes"><path codeLine="45" d="M1364.11,1180.04 C1427.13,1200.04 1496.32,1222 1552.74,1239.91 " fill="none" id="EthernetSwitchService-EthernetSwitchServiceTypes" style="stroke:#181818;stroke-width:1.0;stroke-dasharray:7.0,7.0;"/></g><!--MD5=[19f9161d2c2c10c9e943f6499734ed1d]
link EthernetSwitchServiceTypes to GenericService--><g id="link_EthernetSwitchServiceTypes_GenericService"><path codeLine="46" d="M1575.77,1315 C1531.73,1332.43 1478.06,1353.67 1429.12,1373.04 " fill="none" id="EthernetSwitchServiceTypes-to-GenericService" style="stroke:#181818;stroke-width:1.0;stroke-dasharray:7.0,7.0;"/><polygon fill="#181818" points="1424.4,1374.91,1434.2393,1375.344,1429.0541,1373.0826,1431.3155,1367.8974,1424.4,1374.91" style="stroke:#181818;stroke-width:1.0;"/></g><!--MD5=[b0f7fe5f31df835059ab1c194901a7fe]
link EthernetSwitchServiceTypes to EthernetSwitchCreateDto--><g id="link_EthernetSwitchServiceTypes_EthernetSwitchCreateDto"><path codeLine="48" d="M1747.33,1315.18 C1771.76,1326.79 1798.63,1339.89 1823,1352.5 C1849.78,1366.36 1879.04,1382.56 1903.53,1396.44 " fill="none" id="EthernetSwitchServiceTypes-EthernetSwitchCreateDto" style="stroke:#181818;stroke-width:1.0;stroke-dasharray:7.0,7.0;"/></g><!--MD5=[7856b62c62afd124a133667fc83a018f]
link EthernetSwitchServiceTypes to EthernetSwitchUpdateDto--><g id="link_EthernetSwitchServiceTypes_EthernetSwitchUpdateDto"><path codeLine="49" d="M1806.55,1289.82 C1886.4,1299.76 1987.4,1318.26 2072,1352.5 C2098.68,1363.3 2125.61,1380.87 2146.59,1396.39 " fill="none" id="EthernetSwitchServiceTypes-EthernetSwitchUpdateDto" style="stroke:#181818;stroke-width:1.0;stroke-dasharray:7.0,7.0;"/></g><!--MD5=[8b781ed27e3c4292de80ef1c58982566]
link EthernetSwitchServiceTypes to EthernetSwitchDto--><g id="link_EthernetSwitchServiceTypes_EthernetSwitchDto"><path codeLine="50" d="M1806.56,1285.57 C1965.12,1295.25 2213.96,1315.77 2300,1352.5 C2328.01,1364.46 2354.19,1387.74 2371.4,1405.4 " fill="none" id="EthernetSwitchServiceTypes-EthernetSwitchDto" style="stroke:#181818;stroke-width:1.0;stroke-dasharray:7.0,7.0;"/></g><!--MD5=[115f63cc99054b2958986a1b13412846]
@startuml
!include GenericService.puml
!include ../repositories/EthernetSwitchRepository.puml
!include ../repositories/EthernetSwitchPortRepository.puml
!include ../dto/EthernetSwitch/EthernetSwitchCreateDto.puml
!include ../dto/EthernetSwitch/EthernetSwitchUpdateDto.puml
!include ../dto/EthernetSwitch/EthernetSwitchDto.puml

package app {
    class EthernetSwitchService {
        -repository IGenericRepository<EthernetSwitch>
        - -
        -switchPortRepository interfaces.IGenericRepository[domain.EthernetSwitchPort]
        - -
        +GetSupportedModels()
    }
    note left of EthernetSwitchService::switchPortRepository
    Used to remove ports when removing a switch
    end note

    note left of EthernetSwitchService::GetSupportedModels
    Get ethernet switch models that supported by system
    end note

    note right of EthernetSwitchService
        Advanced business logic for EthernetSwitch entity:
        DTO Validation
        Checking the uniqueness of serial numbers
        Checking the uniqueness of addresses
    end note

    EthernetSwitchRepository -right- EthernetSwitchService::repository
    EthernetSwitchPortRepository -right- EthernetSwitchService::switchPortRepository
    GenericService *-up- EthernetSwitchService

    EthernetSwitchService .[hidden]up. IGenericRepository
    EthernetSwitchPortRepository .[hidden]down. EthernetSwitchRepository

    note as EthernetSwitchServiceTypes
    EntityType is EthernetSwitch
    CreateDtoType is EthernetSwitchCreateDto
    UpdateDtoType is EthernetSwitchUpdateDto
    DtoType is EthernetSwitchDto
    end note

    EthernetSwitchService .down. EthernetSwitchServiceTypes
    GenericService <.up. EthernetSwitchServiceTypes

    EthernetSwitchServiceTypes .. EthernetSwitchCreateDto
    EthernetSwitchServiceTypes .. EthernetSwitchUpdateDto
    EthernetSwitchServiceTypes .. EthernetSwitchDto

}
@enduml

@startuml

package app {
    interface IGenericService<EntityType, CreateDtoType, UpdateDtoType, DtoType> {
        +GetList(ctx context.Context, search, orderBy, orderDirection string, page, pageSize int) (*dtos.PaginatedListDto[DtoType], error)
        - -
        +GetById(ctx context.Context, id uuid.UUID) (*DtoType, error)
        - -
        +Update(ctx context.Context, updateDto UpdateDtoType, id uuid.UUID) error
        - -
        +Create(ctx context.Context, createDto CreateDtoType) (uuid.UUID, error)
        - -
        +Delete(ctx context.Context, id uuid.UUID) error
    }
    note left of IGenericService::GetList
        Get list of elements with search and pagination
    end note

    note left of IGenericService::GetById
        Get entity by ID from service
    end note

    note left of IGenericService::Update
        Save the changes to the existing entity in the service
    end note

    note left of IGenericService::Create
        Add entity to the service
    end note

    note left of IGenericService::Delete
        Mark an entity as deleted
    end note
}


package app {
    class GenericService<EntityType, CreateDtoType, UpdateDtoType, DtoType> {
        -repository IGenericRepository<EntityType>
        - -
        -logger *logrus.Logger
        - -
        -logSourceName string
    }
    GenericService .down.|> IGenericService
}





package app {
    interface IEntityModel {
        +GetID() uuid.UUID
    }
}


package app {
    interface IEntityModelDeletedAt {
        +SetDeleted()
    }
    note bottom of IEntityModelDeletedAt
        Set deletion time
        This method marks that the entity has been deleted
    end note
}


package domain {
    class Entity {
        +ID uuid.UUID `gorm:"primarykey"`
        - -
        +CreatedAt time.Time `gorm:"index"`
        - -
        +UpdatedAt time.Time `gorm:"index"`
        - -
        +DeletedAt time.Time `gorm:"index"`
    }
    Entity .down.|> IEntityModelDeletedAt
    Entity .down.|> IEntityModel

    IEntityModel .left[hidden]. IEntityModelDeletedAt
}


package domain {
    class EthernetSwitch {
        +Name string
        - -
        +Serial string
        - -
        +SwitchModel string
        - -
        +Address string
        - -
        +Username string
        - -
        +Password string
    }
    note left of EthernetSwitch::Serial
    Unique
    end note

    note left of EthernetSwitch::Address
    Unique
    Ip address of the switch
    end note

    EthernetSwitch -down-* Entity
}



package app {
    interface IGenericRepository<EntityType> {
        +GetList(ctx context.Context, orderBy string, orderDirection string, page int, size int, queryBuilder interfaces.IQueryBuilder) (*[]EntityType, error)
        - -
        +Count(ctx context.Context, queryBuilder interfaces.IQueryBuilder) (int64, error)
        - -
        +NewQueryBuilder(ctx context.Context) interfaces.IQueryBuilder
        - -
        +GetById(ctx context.Context, id uuid.UUID) (*EntityType, error)
        - -
        +Update(ctx context.Context, entity *EntityType) error
        - -
        +Insert(ctx context.Context, entity EntityType) (uuid.UUID, error)
        - -
        +Delete(ctx context.Context, id uuid.UUID) error
        - -
        +CloseDb() error
    }
    note left of IGenericRepository::GetList
      Get list of elements with filtering and pagination
    end note

    note left of IGenericRepository::Count
      Get count of entities with filtering
    end note

    note left of IGenericRepository::NewQueryBuilder
      Get new instance of the query builder
    end note

    note left of IGenericRepository::GetById
      Get entity by ID from repository
    end note

    note left of IGenericRepository::Update
      Save the changes to the existing entity in the repository
    end note

    note left of IGenericRepository::Insert
      Add entity to the repository
    end note

    note left of IGenericRepository::Delete
      Delete entity from the database
    end note

    note left of IGenericRepository::CloseDb
      Closes current database connection
    end note
}


package infrastructure {
    class GormGenericRepository<EntityType>

    GormGenericRepository .down.|> IGenericRepository
}


package infrastructure {
    class EthernetSwitchRepository

    EthernetSwitchRepository -down-* GormGenericRepository


    note "EntityType is EthernetSwitch" as EthernetSwitchTypeNote

    EthernetSwitchRepository .down. EthernetSwitchTypeNote
    GormGenericRepository <.up. EthernetSwitchTypeNote
    EthernetSwitch .. EthernetSwitchTypeNote
}




package domain {
    class EthernetSwitchPort {
        +EthernetSwitchId uuid.UUID
        - -
        +POEType string
        - -
        +Name string
    }

    EthernetSwitchPort -down-* Entity

    note left of EthernetSwitchPort::POEType
      POE port type
      can be: "poe", "poe+", "passive24", "none"
    end note

    note left of EthernetSwitchPort::Name
      Unique within 1 switch
    end note
}


package infrastructure {
    class EthernetSwitchPortRepository

    EthernetSwitchPortRepository -down-* GormGenericRepository


    note "EntityType is EthernetSwitchPort" as EthernetSwitchPortTypeNote

    EthernetSwitchPortRepository .down. EthernetSwitchPortTypeNote
    GormGenericRepository <.up. EthernetSwitchPortTypeNote
    EthernetSwitchPort .. EthernetSwitchPortTypeNote
}




package dtos {
    class EthernetSwitchBaseDto {
        +Name string
        - -
        +Serial string
        - -
        +SwitchModel string
        - -
        +Address string
        - -
        +Username string
    }
}


package dtos {
    class EthernetSwitchCreateDto {
        +Password string
    }

    EthernetSwitchCreateDto - -* EthernetSwitchBaseDto
}



package dtos {
    class EthernetSwitchUpdateDto {
        +Password string
    }

    EthernetSwitchUpdateDto - -* EthernetSwitchBaseDto
}



package dtos {
    class BaseDto {
        +ID uuid.UUID
        - -
        +CreatedAt time.Time
        - -
        +UpdatedAt time.Time
    }
}


package dtos {
    class EthernetSwitchDto {

    }
    EthernetSwitchDto - -* EthernetSwitchBaseDto
    EthernetSwitchDto - -* BaseDto
}


package app {
    class EthernetSwitchService {
        -repository IGenericRepository<EthernetSwitch>
        - -
        -switchPortRepository interfaces.IGenericRepository[domain.EthernetSwitchPort]
        - -
        +GetSupportedModels()
    }
    note left of EthernetSwitchService::switchPortRepository
    Used to remove ports when removing a switch
    end note

    note left of EthernetSwitchService::GetSupportedModels
    Get ethernet switch models that supported by system
    end note

    note right of EthernetSwitchService
        Advanced business logic for EthernetSwitch entity:
        DTO Validation
        Checking the uniqueness of serial numbers
        Checking the uniqueness of addresses
    end note

    EthernetSwitchRepository -right- EthernetSwitchService::repository
    EthernetSwitchPortRepository -right- EthernetSwitchService::switchPortRepository
    GenericService *-up- EthernetSwitchService

    EthernetSwitchService .[hidden]up. IGenericRepository
    EthernetSwitchPortRepository .[hidden]down. EthernetSwitchRepository

    note as EthernetSwitchServiceTypes
    EntityType is EthernetSwitch
    CreateDtoType is EthernetSwitchCreateDto
    UpdateDtoType is EthernetSwitchUpdateDto
    DtoType is EthernetSwitchDto
    end note

    EthernetSwitchService .down. EthernetSwitchServiceTypes
    GenericService <.up. EthernetSwitchServiceTypes

    EthernetSwitchServiceTypes .. EthernetSwitchCreateDto
    EthernetSwitchServiceTypes .. EthernetSwitchUpdateDto
    EthernetSwitchServiceTypes .. EthernetSwitchDto

}
@enduml

PlantUML version 1.2022.6(Tue Jun 21 20:34:49 MSK 2022)
(GPL source distribution)
Java Runtime: OpenJDK Runtime Environment
JVM: OpenJDK 64-Bit Server VM
Default Encoding: Cp1251
Language: ru
Country: RU
--></g></svg>