<?xml version="1.0" encoding="UTF-8" standalone="no"?><svg xmlns="http://www.w3.org/2000/svg" xmlns:xlink="http://www.w3.org/1999/xlink" contentStyleType="text/css" height="1749px" preserveAspectRatio="none" style="width:2171px;height:1749px;background:#FFFFFF;" version="1.1" viewBox="0 0 2171 1749" width="2171px" zoomAndPan="magnify"><defs/><g><!--MD5=[d5ac3844f66b12d9e08170e47495e096]
cluster app--><g id="cluster_app"><path d="M8.5,678 L35.5,678 A3.75,3.75 0 0 1 38,680.5 L45,701.6094 L1502.5,701.6094 A2.5,2.5 0 0 1 1505,704.1094 L1505,1739.5 A2.5,2.5 0 0 1 1502.5,1742 L8.5,1742 A2.5,2.5 0 0 1 6,1739.5 L6,680.5 A2.5,2.5 0 0 1 8.5,678 " style="stroke:#000000;stroke-width:1.5;fill:none;"/><line style="stroke:#000000;stroke-width:1.5;fill:none;" x1="6" x2="45" y1="701.6094" y2="701.6094"/><text fill="#000000" font-family="sans-serif" font-size="14" font-weight="bold" lengthAdjust="spacing" textLength="26" x="10" y="694.5332">app</text></g><!--MD5=[27f772719433d509ddbc20ff768eba08]
cluster domain--><g id="cluster_domain"><path d="M21.5,114 L73.5,114 A3.75,3.75 0 0 1 76,116.5 L83,137.6094 L920.5,137.6094 A2.5,2.5 0 0 1 923,140.1094 L923,543.5 A2.5,2.5 0 0 1 920.5,546 L21.5,546 A2.5,2.5 0 0 1 19,543.5 L19,116.5 A2.5,2.5 0 0 1 21.5,114 " style="stroke:#000000;stroke-width:1.5;fill:none;"/><line style="stroke:#000000;stroke-width:1.5;fill:none;" x1="19" x2="83" y1="137.6094" y2="137.6094"/><text fill="#000000" font-family="sans-serif" font-size="14" font-weight="bold" lengthAdjust="spacing" textLength="51" x="23" y="130.5332">domain</text></g><!--MD5=[77349be1bd27b81b697a0f9b3aded3c8]
cluster infrastructure--><g id="cluster_infrastructure"><path d="M949.5,6 L1047.5,6 A3.75,3.75 0 0 1 1050,8.5 L1057,29.6094 L1489.5,29.6094 A2.5,2.5 0 0 1 1492,32.1094 L1492,651.5 A2.5,2.5 0 0 1 1489.5,654 L949.5,654 A2.5,2.5 0 0 1 947,651.5 L947,8.5 A2.5,2.5 0 0 1 949.5,6 " style="stroke:#000000;stroke-width:1.5;fill:none;"/><line style="stroke:#000000;stroke-width:1.5;fill:none;" x1="947" x2="1057" y1="29.6094" y2="29.6094"/><text fill="#000000" font-family="sans-serif" font-size="14" font-weight="bold" lengthAdjust="spacing" textLength="97" x="951" y="22.5332">infrastructure</text></g><!--MD5=[ac65c812e7532cbcd7b9effd958b962e]
cluster dtos--><g id="cluster_dtos"><path d="M1531.5,1360.5 L1563.5,1360.5 A3.75,3.75 0 0 1 1566,1363 L1573,1384.1094 L2161.5,1384.1094 A2.5,2.5 0 0 1 2164,1386.6094 L2164,1728.5 A2.5,2.5 0 0 1 2161.5,1731 L1531.5,1731 A2.5,2.5 0 0 1 1529,1728.5 L1529,1363 A2.5,2.5 0 0 1 1531.5,1360.5 " style="stroke:#000000;stroke-width:1.5;fill:none;"/><line style="stroke:#000000;stroke-width:1.5;fill:none;" x1="1529" x2="1573" y1="1384.1094" y2="1384.1094"/><text fill="#000000" font-family="sans-serif" font-size="14" font-weight="bold" lengthAdjust="spacing" textLength="31" x="1533" y="1377.0332">dtos</text></g><!--MD5=[7c0ed5f9a527ab221a5373ebedcc681c]
class IGenericService--><g id="elem_IGenericService"><rect codeLine="3" fill="#F1F1F1" height="160.0469" id="IGenericService" rx="2.5" ry="2.5" style="stroke:#181818;stroke-width:0.5;" width="835" x="552.5" y="1555"/><ellipse cx="768.75" cy="1571" fill="#B4A7E5" rx="11" ry="11" style="stroke:#181818;stroke-width:1.0;"/><path d="M769.7031,1567.6406 L769.7031,1574.2969 L771.4219,1574.2969 Q772.0313,1574.2969 772.2969,1574.5313 Q772.5625,1574.7656 772.5625,1575.1563 Q772.5625,1575.5313 772.2969,1575.7656 Q772.0313,1576 771.4219,1576 L766.2813,1576 Q765.6719,1576 765.4063,1575.7656 Q765.1406,1575.5313 765.1406,1575.1406 Q765.1406,1574.7656 765.4063,1574.5313 Q765.6719,1574.2969 766.2813,1574.2969 L768,1574.2969 L768,1567.6406 L766.2813,1567.6406 Q765.6719,1567.6406 765.4063,1567.4063 Q765.1406,1567.1719 765.1406,1566.7813 Q765.1406,1566.4063 765.4063,1566.1719 Q765.6719,1565.9375 766.2813,1565.9375 L771.4219,1565.9375 Q772.0313,1565.9375 772.2969,1566.1719 Q772.5625,1566.4063 772.5625,1566.7813 Q772.5625,1567.1719 772.2969,1567.4063 Q772.0313,1567.6406 771.4219,1567.6406 L769.7031,1567.6406 Z " fill="#000000"/><text fill="#000000" font-family="sans-serif" font-size="14" font-style="italic" lengthAdjust="spacing" textLength="100" x="789.25" y="1576.7285">IGenericService</text><rect fill="#FFFFFF" height="17.0938" style="stroke:#000000;stroke-width:1.0;stroke-dasharray:2.0,2.0;" width="292" x="1098.5" y="1552"/><text fill="#000000" font-family="sans-serif" font-size="12" font-style="italic" lengthAdjust="spacing" textLength="290" x="1099.5" y="1565.457">EntityType, CreateDtoType, UpdateDtoType, DtoType</text><line style="stroke:#181818;stroke-width:0.5;" x1="553.5" x2="1386.5" y1="1587" y2="1587"/><ellipse cx="563.5" cy="1598" fill="#84BE84" rx="3" ry="3" style="stroke:#038048;stroke-width:1.0;"/><text fill="#000000" font-family="sans-serif" font-size="14" lengthAdjust="spacing" textLength="809" x="572.5" y="1605.5332">GetList(ctx context.Context, search, orderBy, orderDirection string, page, pageSize int) (dtos.PaginatedItemsDto[DtoType], error)</text><line style="stroke:#181818;stroke-width:1.0;" x1="553.5" x2="1386.5" y1="1612.6094" y2="1612.6094"/><ellipse cx="563.5" cy="1623.6094" fill="#84BE84" rx="3" ry="3" style="stroke:#038048;stroke-width:1.0;"/><text fill="#000000" font-family="sans-serif" font-size="14" lengthAdjust="spacing" textLength="370" x="572.5" y="1631.1426">GetById(ctx context.Context, id uuid.UUID) (DtoType, error)</text><line style="stroke:#181818;stroke-width:1.0;" x1="553.5" x2="1386.5" y1="1638.2188" y2="1638.2188"/><ellipse cx="563.5" cy="1649.2188" fill="#84BE84" rx="3" ry="3" style="stroke:#038048;stroke-width:1.0;"/><text fill="#000000" font-family="sans-serif" font-size="14" lengthAdjust="spacing" textLength="542" x="572.5" y="1656.752">Update(ctx context.Context, updateDto UpdateDtoType, id uuid.UUID) (DtoType, error)</text><line style="stroke:#181818;stroke-width:1.0;" x1="553.5" x2="1386.5" y1="1663.8281" y2="1663.8281"/><ellipse cx="563.5" cy="1674.8281" fill="#84BE84" rx="3" ry="3" style="stroke:#038048;stroke-width:1.0;"/><text fill="#000000" font-family="sans-serif" font-size="14" lengthAdjust="spacing" textLength="449" x="572.5" y="1682.3613">Create(ctx context.Context, createDto CreateDtoType) (DtoType, error)</text><line style="stroke:#181818;stroke-width:1.0;" x1="553.5" x2="1386.5" y1="1689.4375" y2="1689.4375"/><ellipse cx="563.5" cy="1700.4375" fill="#84BE84" rx="3" ry="3" style="stroke:#038048;stroke-width:1.0;"/><text fill="#000000" font-family="sans-serif" font-size="14" lengthAdjust="spacing" textLength="289" x="572.5" y="1707.9707">Delete(ctx context.Context, id uuid.UUID) error</text></g><path d="M191,1544 L191,1570.3516 A0,0 0 0 0 191,1570.3516 L483,1570.3516 A0,0 0 0 0 483,1570.3516 L483,1562 L556.5,1599.8047 L483,1554 L483,1554 L473,1544 L191,1544 A0,0 0 0 0 191,1544 " fill="#FEFFDD" style="stroke:#181818;stroke-width:0.5;"/><path d="M473,1544 L473,1554 L483,1554 L473,1544 " fill="#FEFFDD" style="stroke:#181818;stroke-width:0.5;"/><text fill="#000000" font-family="sans-serif" font-size="13" lengthAdjust="spacing" textLength="271" x="197" y="1562.4951">Get list of elements with search and pagination</text><path d="M191,1580.3516 L191,1606.7031 A0,0 0 0 0 191,1606.7031 L376,1606.7031 A0,0 0 0 0 376,1606.7031 L376,1598.3516 L556.5,1625.4141 L376,1590.3516 L376,1590.3516 L366,1580.3516 L191,1580.3516 A0,0 0 0 0 191,1580.3516 " fill="#FEFFDD" style="stroke:#181818;stroke-width:0.5;"/><path d="M366,1580.3516 L366,1590.3516 L376,1590.3516 L366,1580.3516 " fill="#FEFFDD" style="stroke:#181818;stroke-width:0.5;"/><text fill="#000000" font-family="sans-serif" font-size="13" lengthAdjust="spacing" textLength="164" x="197" y="1598.8467">Get entity by ID from service</text><path d="M191,1616.7031 L191,1643.0547 A0,0 0 0 0 191,1643.0547 L517,1643.0547 A0,0 0 0 0 517,1643.0547 L517,1634.7031 L556.5,1651.0234 L517,1626.7031 L517,1626.7031 L507,1616.7031 L191,1616.7031 A0,0 0 0 0 191,1616.7031 " fill="#FEFFDD" style="stroke:#181818;stroke-width:0.5;"/><path d="M507,1616.7031 L507,1626.7031 L517,1626.7031 L507,1616.7031 " fill="#FEFFDD" style="stroke:#181818;stroke-width:0.5;"/><text fill="#000000" font-family="sans-serif" font-size="13" lengthAdjust="spacing" textLength="305" x="197" y="1635.1982">Save the changes to the existing entity in the service</text><path d="M191,1653.0547 L191,1679.4063 A0,0 0 0 0 191,1679.4063 L352,1679.4063 A0,0 0 0 0 352,1679.4063 L352,1671.0547 L556.5,1676.6328 L352,1663.0547 L352,1663.0547 L342,1653.0547 L191,1653.0547 A0,0 0 0 0 191,1653.0547 " fill="#FEFFDD" style="stroke:#181818;stroke-width:0.5;"/><path d="M342,1653.0547 L342,1663.0547 L352,1663.0547 L342,1653.0547 " fill="#FEFFDD" style="stroke:#181818;stroke-width:0.5;"/><text fill="#000000" font-family="sans-serif" font-size="13" lengthAdjust="spacing" textLength="140" x="197" y="1671.5498">Add entity to the service</text><path d="M191,1689.4063 L191,1715.7578 A0,0 0 0 0 191,1715.7578 L359,1715.7578 A0,0 0 0 0 359,1715.7578 L359,1707.4063 L556.5,1702.2422 L359,1699.4063 L359,1699.4063 L349,1689.4063 L191,1689.4063 A0,0 0 0 0 191,1689.4063 " fill="#FEFFDD" style="stroke:#181818;stroke-width:0.5;"/><path d="M349,1689.4063 L349,1699.4063 L359,1699.4063 L349,1689.4063 " fill="#FEFFDD" style="stroke:#181818;stroke-width:0.5;"/><text fill="#000000" font-family="sans-serif" font-size="13" lengthAdjust="spacing" textLength="147" x="197" y="1707.9014">Mark an entity as deleted</text><!--MD5=[356bca08515a5260142359877c3882a6]
class GenericService--><g id="elem_GenericService"><rect codeLine="4" fill="#F1F1F1" height="108.8281" id="GenericService" rx="2.5" ry="2.5" style="stroke:#181818;stroke-width:0.5;" width="423" x="758.5" y="1375"/><ellipse cx="773.5" cy="1391" fill="#ADD1B2" rx="11" ry="11" style="stroke:#181818;stroke-width:1.0;"/><path d="M776.2656,1386.875 Q776.4219,1386.6563 776.6094,1386.5469 Q776.7969,1386.4375 777.0156,1386.4375 Q777.3906,1386.4375 777.625,1386.7031 Q777.8594,1386.9531 777.8594,1387.5625 L777.8594,1389.0156 Q777.8594,1389.625 777.625,1389.8906 Q777.3906,1390.1563 777.0156,1390.1563 Q776.6719,1390.1563 776.4688,1389.9531 Q776.2656,1389.7656 776.1563,1389.25 Q776.1094,1388.8906 775.9219,1388.7031 Q775.5938,1388.3281 774.9844,1388.1094 Q774.375,1387.8906 773.75,1387.8906 Q772.9844,1387.8906 772.3438,1388.2188 Q771.7188,1388.5469 771.2188,1389.2969 Q770.7344,1390.0469 770.7344,1391.0781 L770.7344,1392.1719 Q770.7344,1393.4063 771.625,1394.2344 Q772.5156,1395.0469 774.1094,1395.0469 Q775.0469,1395.0469 775.7031,1394.7969 Q776.0938,1394.6406 776.5156,1394.2031 Q776.7813,1393.9375 776.9219,1393.8594 Q777.0781,1393.7813 777.2813,1393.7813 Q777.6094,1393.7813 777.8594,1394.0469 Q778.125,1394.2969 778.125,1394.6406 Q778.125,1394.9844 777.7813,1395.3906 Q777.2813,1395.9688 776.4844,1396.2969 Q775.4063,1396.75 774.1094,1396.75 Q772.5938,1396.75 771.3906,1396.125 Q770.4063,1395.625 769.7188,1394.5625 Q769.0313,1393.4844 769.0313,1392.2031 L769.0313,1391.0469 Q769.0313,1389.7188 769.6406,1388.5781 Q770.2656,1387.4219 771.3594,1386.8125 Q772.4531,1386.1875 773.6875,1386.1875 Q774.4219,1386.1875 775.0625,1386.3594 Q775.7188,1386.5156 776.2656,1386.875 Z " fill="#000000"/><text fill="#000000" font-family="sans-serif" font-size="14" lengthAdjust="spacing" textLength="97" x="787.5" y="1396.7285">GenericService</text><rect fill="#FFFFFF" height="17.0938" style="stroke:#000000;stroke-width:1.0;stroke-dasharray:2.0,2.0;" width="292" x="892.5" y="1372"/><text fill="#000000" font-family="sans-serif" font-size="12" font-style="italic" lengthAdjust="spacing" textLength="290" x="893.5" y="1385.457">EntityType, CreateDtoType, UpdateDtoType, DtoType</text><line style="stroke:#181818;stroke-width:0.5;" x1="759.5" x2="1180.5" y1="1407" y2="1407"/><rect fill="none" height="6" style="stroke:#C82930;stroke-width:1.0;" width="6" x="766.5" y="1415"/><text fill="#000000" font-family="sans-serif" font-size="14" lengthAdjust="spacing" textLength="271" x="778.5" y="1425.5332">repository IGenericRepository&lt;EntityType&gt;</text><line style="stroke:#181818;stroke-width:1.0;" x1="759.5" x2="1180.5" y1="1432.6094" y2="1432.6094"/><rect fill="none" height="6" style="stroke:#C82930;stroke-width:1.0;" width="6" x="766.5" y="1440.6094"/><text fill="#000000" font-family="sans-serif" font-size="14" lengthAdjust="spacing" textLength="137" x="778.5" y="1451.1426">logger *logrus.Logger</text><line style="stroke:#181818;stroke-width:1.0;" x1="759.5" x2="1180.5" y1="1458.2188" y2="1458.2188"/><rect fill="none" height="6" style="stroke:#C82930;stroke-width:1.0;" width="6" x="766.5" y="1466.2188"/><text fill="#000000" font-family="sans-serif" font-size="14" lengthAdjust="spacing" textLength="139" x="778.5" y="1476.752">logSourceName string</text></g><!--MD5=[2a39a5be1cc24ddddd6e6286e4ece992]
class IEntityModel--><g id="elem_IEntityModel"><rect codeLine="3" fill="#F1F1F1" height="65.6094" id="IEntityModel" rx="2.5" ry="2.5" style="stroke:#181818;stroke-width:0.5;" width="138" x="22" y="826.5"/><ellipse cx="49.6" cy="842.5" fill="#B4A7E5" rx="11" ry="11" style="stroke:#181818;stroke-width:1.0;"/><path d="M50.5531,839.1406 L50.5531,845.7969 L52.2719,845.7969 Q52.8813,845.7969 53.1469,846.0313 Q53.4125,846.2656 53.4125,846.6563 Q53.4125,847.0313 53.1469,847.2656 Q52.8813,847.5 52.2719,847.5 L47.1313,847.5 Q46.5219,847.5 46.2563,847.2656 Q45.9906,847.0313 45.9906,846.6406 Q45.9906,846.2656 46.2563,846.0313 Q46.5219,845.7969 47.1313,845.7969 L48.85,845.7969 L48.85,839.1406 L47.1313,839.1406 Q46.5219,839.1406 46.2563,838.9063 Q45.9906,838.6719 45.9906,838.2813 Q45.9906,837.9063 46.2563,837.6719 Q46.5219,837.4375 47.1313,837.4375 L52.2719,837.4375 Q52.8813,837.4375 53.1469,837.6719 Q53.4125,837.9063 53.4125,838.2813 Q53.4125,838.6719 53.1469,838.9063 Q52.8813,839.1406 52.2719,839.1406 L50.5531,839.1406 Z " fill="#000000"/><text fill="#000000" font-family="sans-serif" font-size="14" font-style="italic" lengthAdjust="spacing" textLength="78" x="66.4" y="848.2285">IEntityModel</text><line style="stroke:#181818;stroke-width:0.5;" x1="23" x2="159" y1="858.5" y2="858.5"/><line style="stroke:#181818;stroke-width:0.5;" x1="23" x2="159" y1="866.5" y2="866.5"/><ellipse cx="33" cy="877.5" fill="#84BE84" rx="3" ry="3" style="stroke:#038048;stroke-width:1.0;"/><text fill="#000000" font-family="sans-serif" font-size="14" lengthAdjust="spacing" textLength="112" x="42" y="885.0332">GetID() uuid.UUID</text></g><!--MD5=[b3e0f8dcddb1b27f071a0303a68762bf]
class IGenericRepository--><g id="elem_IGenericRepository"><rect codeLine="3" fill="#F1F1F1" height="236.875" id="IGenericRepository" rx="2.5" ry="2.5" style="stroke:#181818;stroke-width:0.5;" width="915" x="573.5" y="741"/><ellipse cx="935.25" cy="757" fill="#B4A7E5" rx="11" ry="11" style="stroke:#181818;stroke-width:1.0;"/><path d="M936.2031,753.6406 L936.2031,760.2969 L937.9219,760.2969 Q938.5313,760.2969 938.7969,760.5313 Q939.0625,760.7656 939.0625,761.1563 Q939.0625,761.5313 938.7969,761.7656 Q938.5313,762 937.9219,762 L932.7813,762 Q932.1719,762 931.9063,761.7656 Q931.6406,761.5313 931.6406,761.1406 Q931.6406,760.7656 931.9063,760.5313 Q932.1719,760.2969 932.7813,760.2969 L934.5,760.2969 L934.5,753.6406 L932.7813,753.6406 Q932.1719,753.6406 931.9063,753.4063 Q931.6406,753.1719 931.6406,752.7813 Q931.6406,752.4063 931.9063,752.1719 Q932.1719,751.9375 932.7813,751.9375 L937.9219,751.9375 Q938.5313,751.9375 938.7969,752.1719 Q939.0625,752.4063 939.0625,752.7813 Q939.0625,753.1719 938.7969,753.4063 Q938.5313,753.6406 937.9219,753.6406 L936.2031,753.6406 Z " fill="#000000"/><text fill="#000000" font-family="sans-serif" font-size="14" font-style="italic" lengthAdjust="spacing" textLength="122" x="955.75" y="762.7285">IGenericRepository</text><rect fill="#FFFFFF" height="17.0938" style="stroke:#000000;stroke-width:1.0;stroke-dasharray:2.0,2.0;" width="59" x="1432.5" y="738"/><text fill="#000000" font-family="sans-serif" font-size="12" font-style="italic" lengthAdjust="spacing" textLength="57" x="1433.5" y="751.457">EntityType</text><line style="stroke:#181818;stroke-width:0.5;" x1="574.5" x2="1487.5" y1="773" y2="773"/><ellipse cx="584.5" cy="784" fill="#84BE84" rx="3" ry="3" style="stroke:#038048;stroke-width:1.0;"/><text fill="#000000" font-family="sans-serif" font-size="14" lengthAdjust="spacing" textLength="889" x="593.5" y="791.5332">GetList(ctx context.Context, orderBy string, orderDirection string, page int, size int, queryBuilder interfaces.IQueryBuilder) ([]EntityType, error)</text><line style="stroke:#181818;stroke-width:1.0;" x1="574.5" x2="1487.5" y1="798.6094" y2="798.6094"/><ellipse cx="584.5" cy="809.6094" fill="#84BE84" rx="3" ry="3" style="stroke:#038048;stroke-width:1.0;"/><text fill="#000000" font-family="sans-serif" font-size="14" lengthAdjust="spacing" textLength="494" x="593.5" y="817.1426">Count(ctx context.Context, queryBuilder interfaces.IQueryBuilder) (int64, error)</text><line style="stroke:#181818;stroke-width:1.0;" x1="574.5" x2="1487.5" y1="824.2188" y2="824.2188"/><ellipse cx="584.5" cy="835.2188" fill="#84BE84" rx="3" ry="3" style="stroke:#038048;stroke-width:1.0;"/><text fill="#000000" font-family="sans-serif" font-size="14" lengthAdjust="spacing" textLength="393" x="593.5" y="842.752">NewQueryBuilder(ctx context.Context) interfaces.IQueryBuilder</text><line style="stroke:#181818;stroke-width:1.0;" x1="574.5" x2="1487.5" y1="849.8281" y2="849.8281"/><ellipse cx="584.5" cy="860.8281" fill="#84BE84" rx="3" ry="3" style="stroke:#038048;stroke-width:1.0;"/><text fill="#000000" font-family="sans-serif" font-size="14" lengthAdjust="spacing" textLength="383" x="593.5" y="868.3613">GetById(ctx context.Context, id uuid.UUID) (EntityType, error)</text><line style="stroke:#181818;stroke-width:1.0;" x1="574.5" x2="1487.5" y1="875.4375" y2="875.4375"/><ellipse cx="584.5" cy="886.4375" fill="#84BE84" rx="3" ry="3" style="stroke:#038048;stroke-width:1.0;"/><text fill="#000000" font-family="sans-serif" font-size="14" lengthAdjust="spacing" textLength="406" x="593.5" y="893.9707">Update(ctx context.Context, entity EntityType) (EntityType, error)</text><line style="stroke:#181818;stroke-width:1.0;" x1="574.5" x2="1487.5" y1="901.0469" y2="901.0469"/><ellipse cx="584.5" cy="912.0469" fill="#84BE84" rx="3" ry="3" style="stroke:#038048;stroke-width:1.0;"/><text fill="#000000" font-family="sans-serif" font-size="14" lengthAdjust="spacing" textLength="396" x="593.5" y="919.5801">Insert(ctx context.Context, entity EntityType) (EntityType, error)</text><line style="stroke:#181818;stroke-width:1.0;" x1="574.5" x2="1487.5" y1="926.6563" y2="926.6563"/><ellipse cx="584.5" cy="937.6563" fill="#84BE84" rx="3" ry="3" style="stroke:#038048;stroke-width:1.0;"/><text fill="#000000" font-family="sans-serif" font-size="14" lengthAdjust="spacing" textLength="289" x="593.5" y="945.1895">Delete(ctx context.Context, id uuid.UUID) error</text><line style="stroke:#181818;stroke-width:1.0;" x1="574.5" x2="1487.5" y1="952.2656" y2="952.2656"/><ellipse cx="584.5" cy="963.2656" fill="#84BE84" rx="3" ry="3" style="stroke:#038048;stroke-width:1.0;"/><text fill="#000000" font-family="sans-serif" font-size="14" lengthAdjust="spacing" textLength="99" x="593.5" y="970.7988">CloseDb() error</text></g><path d="M195.5,714 L195.5,740.3516 A0,0 0 0 0 195.5,740.3516 L489.5,740.3516 A0,0 0 0 0 489.5,740.3516 L489.5,732 L577.5,785.8047 L489.5,724 L489.5,724 L479.5,714 L195.5,714 A0,0 0 0 0 195.5,714 " fill="#FEFFDD" style="stroke:#181818;stroke-width:0.5;"/><path d="M479.5,714 L479.5,724 L489.5,724 L479.5,714 " fill="#FEFFDD" style="stroke:#181818;stroke-width:0.5;"/><text fill="#000000" font-family="sans-serif" font-size="13" lengthAdjust="spacing" textLength="273" x="201.5" y="732.4951">Get list of elements with filtering and pagination</text><path d="M195.5,750.3516 L195.5,776.7031 A0,0 0 0 0 195.5,776.7031 L405.5,776.7031 A0,0 0 0 0 405.5,776.7031 L405.5,768.3516 L577.5,811.4141 L405.5,760.3516 L405.5,760.3516 L395.5,750.3516 L195.5,750.3516 A0,0 0 0 0 195.5,750.3516 " fill="#FEFFDD" style="stroke:#181818;stroke-width:0.5;"/><path d="M395.5,750.3516 L395.5,760.3516 L405.5,760.3516 L395.5,750.3516 " fill="#FEFFDD" style="stroke:#181818;stroke-width:0.5;"/><text fill="#000000" font-family="sans-serif" font-size="13" lengthAdjust="spacing" textLength="189" x="201.5" y="768.8467">Get count of entities with filtering</text><path d="M195.5,786.7031 L195.5,813.0547 A0,0 0 0 0 195.5,813.0547 L431.5,813.0547 A0,0 0 0 0 431.5,813.0547 L431.5,804.7031 L577.5,837.0234 L431.5,796.7031 L431.5,796.7031 L421.5,786.7031 L195.5,786.7031 A0,0 0 0 0 195.5,786.7031 " fill="#FEFFDD" style="stroke:#181818;stroke-width:0.5;"/><path d="M421.5,786.7031 L421.5,796.7031 L431.5,796.7031 L421.5,786.7031 " fill="#FEFFDD" style="stroke:#181818;stroke-width:0.5;"/><text fill="#000000" font-family="sans-serif" font-size="13" lengthAdjust="spacing" textLength="215" x="201.5" y="805.1982">Get new instance of the query builder</text><path d="M195.5,823.0547 L195.5,849.4063 A0,0 0 0 0 195.5,849.4063 L397.5,849.4063 A0,0 0 0 0 397.5,849.4063 L397.5,841.0547 L577.5,862.6328 L397.5,833.0547 L397.5,833.0547 L387.5,823.0547 L195.5,823.0547 A0,0 0 0 0 195.5,823.0547 " fill="#FEFFDD" style="stroke:#181818;stroke-width:0.5;"/><path d="M387.5,823.0547 L387.5,833.0547 L397.5,833.0547 L387.5,823.0547 " fill="#FEFFDD" style="stroke:#181818;stroke-width:0.5;"/><text fill="#000000" font-family="sans-serif" font-size="13" lengthAdjust="spacing" textLength="181" x="201.5" y="841.5498">Get entity by ID from repository</text><path d="M195.5,859.4063 L195.5,885.7578 A0,0 0 0 0 195.5,885.7578 L538.5,885.7578 A0,0 0 0 0 538.5,885.7578 L538.5,877.4063 L577.5,888.2422 L538.5,869.4063 L538.5,869.4063 L528.5,859.4063 L195.5,859.4063 A0,0 0 0 0 195.5,859.4063 " fill="#FEFFDD" style="stroke:#181818;stroke-width:0.5;"/><path d="M528.5,859.4063 L528.5,869.4063 L538.5,869.4063 L528.5,859.4063 " fill="#FEFFDD" style="stroke:#181818;stroke-width:0.5;"/><text fill="#000000" font-family="sans-serif" font-size="13" lengthAdjust="spacing" textLength="322" x="201.5" y="877.9014">Save the changes to the existing entity in the repository</text><path d="M195.5,895.7578 L195.5,922.1094 A0,0 0 0 0 195.5,922.1094 L373.5,922.1094 A0,0 0 0 0 373.5,922.1094 L373.5,913.7578 L577.5,913.8516 L373.5,905.7578 L373.5,905.7578 L363.5,895.7578 L195.5,895.7578 A0,0 0 0 0 195.5,895.7578 " fill="#FEFFDD" style="stroke:#181818;stroke-width:0.5;"/><path d="M363.5,895.7578 L363.5,905.7578 L373.5,905.7578 L363.5,895.7578 " fill="#FEFFDD" style="stroke:#181818;stroke-width:0.5;"/><text fill="#000000" font-family="sans-serif" font-size="13" lengthAdjust="spacing" textLength="157" x="201.5" y="914.2529">Add entity to the repository</text><path d="M195.5,932.1094 L195.5,958.4609 A0,0 0 0 0 195.5,958.4609 L397.5,958.4609 A0,0 0 0 0 397.5,958.4609 L397.5,950.1094 L577.5,939.4609 L397.5,942.1094 L397.5,942.1094 L387.5,932.1094 L195.5,932.1094 A0,0 0 0 0 195.5,932.1094 " fill="#FEFFDD" style="stroke:#181818;stroke-width:0.5;"/><path d="M387.5,932.1094 L387.5,942.1094 L397.5,942.1094 L387.5,932.1094 " fill="#FEFFDD" style="stroke:#181818;stroke-width:0.5;"/><text fill="#000000" font-family="sans-serif" font-size="13" lengthAdjust="spacing" textLength="181" x="201.5" y="950.6045">Delete entity from the database</text><path d="M195.5,968.4609 L195.5,994.8125 A0,0 0 0 0 195.5,994.8125 L424.5,994.8125 A0,0 0 0 0 424.5,994.8125 L424.5,986.4609 L577.5,965.0703 L424.5,978.4609 L424.5,978.4609 L414.5,968.4609 L195.5,968.4609 A0,0 0 0 0 195.5,968.4609 " fill="#FEFFDD" style="stroke:#181818;stroke-width:0.5;"/><path d="M414.5,968.4609 L414.5,978.4609 L424.5,978.4609 L414.5,968.4609 " fill="#FEFFDD" style="stroke:#181818;stroke-width:0.5;"/><text fill="#000000" font-family="sans-serif" font-size="13" lengthAdjust="spacing" textLength="208" x="201.5" y="986.9561">Closes current database connection</text><!--MD5=[c2fde9c784a62a3ac087d43827625e00]
class EthernetSwitchService--><g id="elem_EthernetSwitchService"><rect codeLine="9" fill="#F1F1F1" height="108.8281" id="EthernetSwitchService" rx="2.5" ry="2.5" style="stroke:#181818;stroke-width:0.5;" width="527" x="604.5" y="1069"/><ellipse cx="793.25" cy="1085" fill="#ADD1B2" rx="11" ry="11" style="stroke:#181818;stroke-width:1.0;"/><path d="M796.0156,1080.875 Q796.1719,1080.6563 796.3594,1080.5469 Q796.5469,1080.4375 796.7656,1080.4375 Q797.1406,1080.4375 797.375,1080.7031 Q797.6094,1080.9531 797.6094,1081.5625 L797.6094,1083.0156 Q797.6094,1083.625 797.375,1083.8906 Q797.1406,1084.1563 796.7656,1084.1563 Q796.4219,1084.1563 796.2188,1083.9531 Q796.0156,1083.7656 795.9063,1083.25 Q795.8594,1082.8906 795.6719,1082.7031 Q795.3438,1082.3281 794.7344,1082.1094 Q794.125,1081.8906 793.5,1081.8906 Q792.7344,1081.8906 792.0938,1082.2188 Q791.4688,1082.5469 790.9688,1083.2969 Q790.4844,1084.0469 790.4844,1085.0781 L790.4844,1086.1719 Q790.4844,1087.4063 791.375,1088.2344 Q792.2656,1089.0469 793.8594,1089.0469 Q794.7969,1089.0469 795.4531,1088.7969 Q795.8438,1088.6406 796.2656,1088.2031 Q796.5313,1087.9375 796.6719,1087.8594 Q796.8281,1087.7813 797.0313,1087.7813 Q797.3594,1087.7813 797.6094,1088.0469 Q797.875,1088.2969 797.875,1088.6406 Q797.875,1088.9844 797.5313,1089.3906 Q797.0313,1089.9688 796.2344,1090.2969 Q795.1563,1090.75 793.8594,1090.75 Q792.3438,1090.75 791.1406,1090.125 Q790.1563,1089.625 789.4688,1088.5625 Q788.7813,1087.4844 788.7813,1086.2031 L788.7813,1085.0469 Q788.7813,1083.7188 789.3906,1082.5781 Q790.0156,1081.4219 791.1094,1080.8125 Q792.2031,1080.1875 793.4375,1080.1875 Q794.1719,1080.1875 794.8125,1080.3594 Q795.4688,1080.5156 796.0156,1080.875 Z " fill="#000000"/><text fill="#000000" font-family="sans-serif" font-size="14" lengthAdjust="spacing" textLength="141" x="813.75" y="1090.7285">EthernetSwitchService</text><line style="stroke:#181818;stroke-width:0.5;" x1="605.5" x2="1130.5" y1="1101" y2="1101"/><rect fill="none" height="6" style="stroke:#C82930;stroke-width:1.0;" width="6" x="612.5" y="1109"/><text fill="#000000" font-family="sans-serif" font-size="14" lengthAdjust="spacing" textLength="298" x="624.5" y="1119.5332">repository IGenericRepository&lt;EthernetSwitch&gt;</text><line style="stroke:#181818;stroke-width:1.0;" x1="605.5" x2="1130.5" y1="1126.6094" y2="1126.6094"/><rect fill="none" height="6" style="stroke:#C82930;stroke-width:1.0;" width="6" x="612.5" y="1134.6094"/><text fill="#000000" font-family="sans-serif" font-size="14" lengthAdjust="spacing" textLength="501" x="624.5" y="1145.1426">switchPortRepository interfaces.IGenericRepository[domain.EthernetSwitchPort]</text><line style="stroke:#181818;stroke-width:1.0;" x1="605.5" x2="1130.5" y1="1152.2188" y2="1152.2188"/><ellipse cx="615.5" cy="1163.2188" fill="#84BE84" rx="3" ry="3" style="stroke:#038048;stroke-width:1.0;"/><text fill="#000000" font-family="sans-serif" font-size="14" lengthAdjust="spacing" textLength="144" x="624.5" y="1170.752">GetSupportedModels()</text></g><path d="M229,1086 L229,1112.3516 A0,0 0 0 0 229,1112.3516 L514,1112.3516 A0,0 0 0 0 514,1112.3516 L514,1104 L608.5,1139.4141 L514,1096 L514,1096 L504,1086 L229,1086 A0,0 0 0 0 229,1086 " fill="#FEFFDD" style="stroke:#181818;stroke-width:0.5;"/><path d="M504,1086 L504,1096 L514,1096 L504,1086 " fill="#FEFFDD" style="stroke:#181818;stroke-width:0.5;"/><text fill="#000000" font-family="sans-serif" font-size="13" lengthAdjust="spacing" textLength="264" x="235" y="1104.4951">Used to remove ports when removing a switch</text><path d="M229,1122.3516 L229,1148.7031 A0,0 0 0 0 229,1148.7031 L561,1148.7031 A0,0 0 0 0 561,1148.7031 L561,1140.3516 L608.5,1165.0234 L561,1132.3516 L561,1132.3516 L551,1122.3516 L229,1122.3516 A0,0 0 0 0 229,1122.3516 " fill="#FEFFDD" style="stroke:#181818;stroke-width:0.5;"/><path d="M551,1122.3516 L551,1132.3516 L561,1132.3516 L551,1122.3516 " fill="#FEFFDD" style="stroke:#181818;stroke-width:0.5;"/><text fill="#000000" font-family="sans-serif" font-size="13" lengthAdjust="spacing" textLength="311" x="235" y="1140.8467">Get ethernet switch models that supported by system</text><g id="elem_GMN724"><path d="M1175,1085 L1175,1118.5 L1139.88,1122.5 L1175,1126.5 L1175,1160.4063 A0,0 0 0 0 1175,1160.4063 L1489,1160.4063 A0,0 0 0 0 1489,1160.4063 L1489,1095 L1479,1085 L1175,1085 A0,0 0 0 0 1175,1085 " fill="#FEFFDD" style="stroke:#181818;stroke-width:0.5;"/><path d="M1479,1085 L1479,1095 L1489,1095 L1479,1085 " fill="#FEFFDD" style="stroke:#181818;stroke-width:0.5;"/><text fill="#000000" font-family="sans-serif" font-size="13" lengthAdjust="spacing" textLength="293" x="1181" y="1103.4951">Advanced business logic for EthernetSwitch entity:</text><text fill="#000000" font-family="sans-serif" font-size="13" lengthAdjust="spacing" textLength="87" x="1181" y="1119.8467">DTO Validation</text><text fill="#000000" font-family="sans-serif" font-size="13" lengthAdjust="spacing" textLength="249" x="1181" y="1136.1982">Checking the uniqueness of serial numbers</text><text fill="#000000" font-family="sans-serif" font-size="13" lengthAdjust="spacing" textLength="224" x="1181" y="1152.5498">Checking the uniqueness of addresses</text></g><g id="elem_EthernetSwitchServiceTypes"><path d="M1211.5,1240 L1211.5,1315.4063 L1488.5,1315.4063 L1488.5,1250 L1478.5,1240 L1211.5,1240 " fill="#FEFFDD" style="stroke:#181818;stroke-width:0.5;"/><path d="M1478.5,1240 L1478.5,1250 L1488.5,1250 L1478.5,1240 " fill="#FEFFDD" style="stroke:#181818;stroke-width:1.0;"/><text fill="#000000" font-family="sans-serif" font-size="13" lengthAdjust="spacing" textLength="168" x="1217.5" y="1258.4951">EntityType is EthernetSwitch</text><text fill="#000000" font-family="sans-serif" font-size="13" lengthAdjust="spacing" textLength="250" x="1217.5" y="1274.8467">CreateDtoType is EthernetSwitchCreateDto</text><text fill="#000000" font-family="sans-serif" font-size="13" lengthAdjust="spacing" textLength="256" x="1217.5" y="1291.1982">UpdateDtoType is EthernetSwitchUpdateDto</text><text fill="#000000" font-family="sans-serif" font-size="13" lengthAdjust="spacing" textLength="174" x="1217.5" y="1307.5498">DtoType is EthernetSwitchDto</text></g><!--MD5=[be996cdb8e6bf2fc7cb89c555f2cd144]
class Entity--><g id="elem_Entity"><rect codeLine="5" fill="#F1F1F1" height="134.4375" id="Entity" rx="2.5" ry="2.5" style="stroke:#181818;stroke-width:0.5;" width="283" x="294.5" y="396"/><ellipse cx="414.25" cy="412" fill="#ADD1B2" rx="11" ry="11" style="stroke:#181818;stroke-width:1.0;"/><path d="M417.0156,407.875 Q417.1719,407.6563 417.3594,407.5469 Q417.5469,407.4375 417.7656,407.4375 Q418.1406,407.4375 418.375,407.7031 Q418.6094,407.9531 418.6094,408.5625 L418.6094,410.0156 Q418.6094,410.625 418.375,410.8906 Q418.1406,411.1563 417.7656,411.1563 Q417.4219,411.1563 417.2188,410.9531 Q417.0156,410.7656 416.9063,410.25 Q416.8594,409.8906 416.6719,409.7031 Q416.3438,409.3281 415.7344,409.1094 Q415.125,408.8906 414.5,408.8906 Q413.7344,408.8906 413.0938,409.2188 Q412.4688,409.5469 411.9688,410.2969 Q411.4844,411.0469 411.4844,412.0781 L411.4844,413.1719 Q411.4844,414.4063 412.375,415.2344 Q413.2656,416.0469 414.8594,416.0469 Q415.7969,416.0469 416.4531,415.7969 Q416.8438,415.6406 417.2656,415.2031 Q417.5313,414.9375 417.6719,414.8594 Q417.8281,414.7813 418.0313,414.7813 Q418.3594,414.7813 418.6094,415.0469 Q418.875,415.2969 418.875,415.6406 Q418.875,415.9844 418.5313,416.3906 Q418.0313,416.9688 417.2344,417.2969 Q416.1563,417.75 414.8594,417.75 Q413.3438,417.75 412.1406,417.125 Q411.1563,416.625 410.4688,415.5625 Q409.7813,414.4844 409.7813,413.2031 L409.7813,412.0469 Q409.7813,410.7188 410.3906,409.5781 Q411.0156,408.4219 412.1094,407.8125 Q413.2031,407.1875 414.4375,407.1875 Q415.1719,407.1875 415.8125,407.3594 Q416.4688,407.5156 417.0156,407.875 Z " fill="#000000"/><text fill="#000000" font-family="sans-serif" font-size="14" lengthAdjust="spacing" textLength="35" x="434.75" y="417.7285">Entity</text><line style="stroke:#181818;stroke-width:0.5;" x1="295.5" x2="576.5" y1="428" y2="428"/><ellipse cx="305.5" cy="439" fill="none" rx="3" ry="3" style="stroke:#038048;stroke-width:1.0;"/><text fill="#000000" font-family="sans-serif" font-size="14" lengthAdjust="spacing" textLength="208" x="314.5" y="446.5332">ID uuid.UUID `gorm:"primarykey"`</text><line style="stroke:#181818;stroke-width:1.0;" x1="295.5" x2="576.5" y1="453.6094" y2="453.6094"/><ellipse cx="305.5" cy="464.6094" fill="none" rx="3" ry="3" style="stroke:#038048;stroke-width:1.0;"/><text fill="#000000" font-family="sans-serif" font-size="14" lengthAdjust="spacing" textLength="222" x="314.5" y="472.1426">CreatedAt time.Time `gorm:"index"`</text><line style="stroke:#181818;stroke-width:1.0;" x1="295.5" x2="576.5" y1="479.2188" y2="479.2188"/><ellipse cx="305.5" cy="490.2188" fill="none" rx="3" ry="3" style="stroke:#038048;stroke-width:1.0;"/><text fill="#000000" font-family="sans-serif" font-size="14" lengthAdjust="spacing" textLength="224" x="314.5" y="497.752">UpdatedAt time.Time `gorm:"index"`</text><line style="stroke:#181818;stroke-width:1.0;" x1="295.5" x2="576.5" y1="504.8281" y2="504.8281"/><ellipse cx="305.5" cy="515.8281" fill="none" rx="3" ry="3" style="stroke:#038048;stroke-width:1.0;"/><text fill="#000000" font-family="sans-serif" font-size="14" lengthAdjust="spacing" textLength="257" x="314.5" y="523.3613">DeletedAt gorm.DeletedAt `gorm:"index"`</text></g><!--MD5=[0e6027363d26940633b9df7c844e683a]
class EthernetSwitch--><g id="elem_EthernetSwitch"><rect codeLine="5" fill="#F1F1F1" height="185.6563" id="EthernetSwitch" rx="2.5" ry="2.5" style="stroke:#181818;stroke-width:0.5;" width="143" x="763.5" y="150"/><ellipse cx="786.15" cy="166" fill="#ADD1B2" rx="11" ry="11" style="stroke:#181818;stroke-width:1.0;"/><path d="M788.9156,161.875 Q789.0719,161.6563 789.2594,161.5469 Q789.4469,161.4375 789.6656,161.4375 Q790.0406,161.4375 790.275,161.7031 Q790.5094,161.9531 790.5094,162.5625 L790.5094,164.0156 Q790.5094,164.625 790.275,164.8906 Q790.0406,165.1563 789.6656,165.1563 Q789.3219,165.1563 789.1188,164.9531 Q788.9156,164.7656 788.8063,164.25 Q788.7594,163.8906 788.5719,163.7031 Q788.2438,163.3281 787.6344,163.1094 Q787.025,162.8906 786.4,162.8906 Q785.6344,162.8906 784.9938,163.2188 Q784.3688,163.5469 783.8688,164.2969 Q783.3844,165.0469 783.3844,166.0781 L783.3844,167.1719 Q783.3844,168.4063 784.275,169.2344 Q785.1656,170.0469 786.7594,170.0469 Q787.6969,170.0469 788.3531,169.7969 Q788.7438,169.6406 789.1656,169.2031 Q789.4313,168.9375 789.5719,168.8594 Q789.7281,168.7813 789.9313,168.7813 Q790.2594,168.7813 790.5094,169.0469 Q790.775,169.2969 790.775,169.6406 Q790.775,169.9844 790.4313,170.3906 Q789.9313,170.9688 789.1344,171.2969 Q788.0563,171.75 786.7594,171.75 Q785.2438,171.75 784.0406,171.125 Q783.0563,170.625 782.3688,169.5625 Q781.6813,168.4844 781.6813,167.2031 L781.6813,166.0469 Q781.6813,164.7188 782.2906,163.5781 Q782.9156,162.4219 784.0094,161.8125 Q785.1031,161.1875 786.3375,161.1875 Q787.0719,161.1875 787.7125,161.3594 Q788.3688,161.5156 788.9156,161.875 Z " fill="#000000"/><text fill="#000000" font-family="sans-serif" font-size="14" lengthAdjust="spacing" textLength="94" x="801.85" y="171.7285">EthernetSwitch</text><line style="stroke:#181818;stroke-width:0.5;" x1="764.5" x2="905.5" y1="182" y2="182"/><ellipse cx="774.5" cy="193" fill="none" rx="3" ry="3" style="stroke:#038048;stroke-width:1.0;"/><text fill="#000000" font-family="sans-serif" font-size="14" lengthAdjust="spacing" textLength="75" x="783.5" y="200.5332">Name string</text><line style="stroke:#181818;stroke-width:1.0;" x1="764.5" x2="905.5" y1="207.6094" y2="207.6094"/><ellipse cx="774.5" cy="218.6094" fill="none" rx="3" ry="3" style="stroke:#038048;stroke-width:1.0;"/><text fill="#000000" font-family="sans-serif" font-size="14" lengthAdjust="spacing" textLength="75" x="783.5" y="226.1426">Serial string</text><line style="stroke:#181818;stroke-width:1.0;" x1="764.5" x2="905.5" y1="233.2188" y2="233.2188"/><ellipse cx="774.5" cy="244.2188" fill="none" rx="3" ry="3" style="stroke:#038048;stroke-width:1.0;"/><text fill="#000000" font-family="sans-serif" font-size="14" lengthAdjust="spacing" textLength="117" x="783.5" y="251.752">SwitchModel string</text><line style="stroke:#181818;stroke-width:1.0;" x1="764.5" x2="905.5" y1="258.8281" y2="258.8281"/><ellipse cx="774.5" cy="269.8281" fill="none" rx="3" ry="3" style="stroke:#038048;stroke-width:1.0;"/><text fill="#000000" font-family="sans-serif" font-size="14" lengthAdjust="spacing" textLength="91" x="783.5" y="277.3613">Address string</text><line style="stroke:#181818;stroke-width:1.0;" x1="764.5" x2="905.5" y1="284.4375" y2="284.4375"/><ellipse cx="774.5" cy="295.4375" fill="none" rx="3" ry="3" style="stroke:#038048;stroke-width:1.0;"/><text fill="#000000" font-family="sans-serif" font-size="14" lengthAdjust="spacing" textLength="103" x="783.5" y="302.9707">Username string</text><line style="stroke:#181818;stroke-width:1.0;" x1="764.5" x2="905.5" y1="310.0469" y2="310.0469"/><ellipse cx="774.5" cy="321.0469" fill="none" rx="3" ry="3" style="stroke:#038048;stroke-width:1.0;"/><text fill="#000000" font-family="sans-serif" font-size="14" lengthAdjust="spacing" textLength="100" x="783.5" y="328.5801">Password string</text></g><path d="M570,198.5 L570,224.8516 A0,0 0 0 0 570,224.8516 L631,224.8516 A0,0 0 0 0 631,224.8516 L631,216.5 L767.5,220.4141 L631,208.5 L631,208.5 L621,198.5 L570,198.5 A0,0 0 0 0 570,198.5 " fill="#FEFFDD" style="stroke:#181818;stroke-width:0.5;"/><path d="M621,198.5 L621,208.5 L631,208.5 L621,198.5 " fill="#FEFFDD" style="stroke:#181818;stroke-width:0.5;"/><text fill="#000000" font-family="sans-serif" font-size="13" lengthAdjust="spacing" textLength="40" x="576" y="216.9951">Unique</text><path d="M570,234.8516 L570,277.5547 A0,0 0 0 0 570,277.5547 L728,277.5547 A0,0 0 0 0 728,277.5547 L728,260.2031 L767.5,271.6328 L728,252.2031 L728,244.8516 L718,234.8516 L570,234.8516 A0,0 0 0 0 570,234.8516 " fill="#FEFFDD" style="stroke:#181818;stroke-width:0.5;"/><path d="M718,234.8516 L718,244.8516 L728,244.8516 L718,234.8516 " fill="#FEFFDD" style="stroke:#181818;stroke-width:0.5;"/><text fill="#000000" font-family="sans-serif" font-size="13" lengthAdjust="spacing" textLength="40" x="576" y="253.3467">Unique</text><text fill="#000000" font-family="sans-serif" font-size="13" lengthAdjust="spacing" textLength="137" x="576" y="269.6982">Ip address of the switch</text><!--MD5=[a0c76383944e982ee35488825d35b1c9]
class EthernetSwitchPort--><g id="elem_EthernetSwitchPort"><rect codeLine="5" fill="#F1F1F1" height="108.8281" id="EthernetSwitchPort" rx="2.5" ry="2.5" style="stroke:#181818;stroke-width:0.5;" width="197" x="337.5" y="188.5"/><ellipse cx="372.75" cy="204.5" fill="#ADD1B2" rx="11" ry="11" style="stroke:#181818;stroke-width:1.0;"/><path d="M375.5156,200.375 Q375.6719,200.1563 375.8594,200.0469 Q376.0469,199.9375 376.2656,199.9375 Q376.6406,199.9375 376.875,200.2031 Q377.1094,200.4531 377.1094,201.0625 L377.1094,202.5156 Q377.1094,203.125 376.875,203.3906 Q376.6406,203.6563 376.2656,203.6563 Q375.9219,203.6563 375.7188,203.4531 Q375.5156,203.2656 375.4063,202.75 Q375.3594,202.3906 375.1719,202.2031 Q374.8438,201.8281 374.2344,201.6094 Q373.625,201.3906 373,201.3906 Q372.2344,201.3906 371.5938,201.7188 Q370.9688,202.0469 370.4688,202.7969 Q369.9844,203.5469 369.9844,204.5781 L369.9844,205.6719 Q369.9844,206.9063 370.875,207.7344 Q371.7656,208.5469 373.3594,208.5469 Q374.2969,208.5469 374.9531,208.2969 Q375.3438,208.1406 375.7656,207.7031 Q376.0313,207.4375 376.1719,207.3594 Q376.3281,207.2813 376.5313,207.2813 Q376.8594,207.2813 377.1094,207.5469 Q377.375,207.7969 377.375,208.1406 Q377.375,208.4844 377.0313,208.8906 Q376.5313,209.4688 375.7344,209.7969 Q374.6563,210.25 373.3594,210.25 Q371.8438,210.25 370.6406,209.625 Q369.6563,209.125 368.9688,208.0625 Q368.2813,206.9844 368.2813,205.7031 L368.2813,204.5469 Q368.2813,203.2188 368.8906,202.0781 Q369.5156,200.9219 370.6094,200.3125 Q371.7031,199.6875 372.9375,199.6875 Q373.6719,199.6875 374.3125,199.8594 Q374.9688,200.0156 375.5156,200.375 Z " fill="#000000"/><text fill="#000000" font-family="sans-serif" font-size="14" lengthAdjust="spacing" textLength="120" x="391.25" y="210.2285">EthernetSwitchPort</text><line style="stroke:#181818;stroke-width:0.5;" x1="338.5" x2="533.5" y1="220.5" y2="220.5"/><ellipse cx="348.5" cy="231.5" fill="none" rx="3" ry="3" style="stroke:#038048;stroke-width:1.0;"/><text fill="#000000" font-family="sans-serif" font-size="14" lengthAdjust="spacing" textLength="171" x="357.5" y="239.0332">EthernetSwitchId uuid.UUID</text><line style="stroke:#181818;stroke-width:1.0;" x1="338.5" x2="533.5" y1="246.1094" y2="246.1094"/><ellipse cx="348.5" cy="257.1094" fill="none" rx="3" ry="3" style="stroke:#038048;stroke-width:1.0;"/><text fill="#000000" font-family="sans-serif" font-size="14" lengthAdjust="spacing" textLength="100" x="357.5" y="264.6426">POEType string</text><line style="stroke:#181818;stroke-width:1.0;" x1="338.5" x2="533.5" y1="271.7188" y2="271.7188"/><ellipse cx="348.5" cy="282.7188" fill="none" rx="3" ry="3" style="stroke:#038048;stroke-width:1.0;"/><text fill="#000000" font-family="sans-serif" font-size="14" lengthAdjust="spacing" textLength="75" x="357.5" y="290.252">Name string</text></g><path d="M35.5,198.5 L35.5,241.2031 A0,0 0 0 0 35.5,241.2031 L302.5,241.2031 A0,0 0 0 0 302.5,241.2031 L302.5,223.8516 L341.5,258.9141 L302.5,215.8516 L302.5,208.5 L292.5,198.5 L35.5,198.5 A0,0 0 0 0 35.5,198.5 " fill="#FEFFDD" style="stroke:#181818;stroke-width:0.5;"/><path d="M292.5,198.5 L292.5,208.5 L302.5,208.5 L292.5,198.5 " fill="#FEFFDD" style="stroke:#181818;stroke-width:0.5;"/><text fill="#000000" font-family="sans-serif" font-size="13" lengthAdjust="spacing" textLength="83" x="41.5" y="216.9951">POE port type</text><text fill="#000000" font-family="sans-serif" font-size="13" lengthAdjust="spacing" textLength="246" x="41.5" y="233.3467">can be: "poe", "poe+", "passive24", "none"</text><path d="M35.5,251.2031 L35.5,277.5547 A0,0 0 0 0 35.5,277.5547 L185.5,277.5547 A0,0 0 0 0 185.5,277.5547 L185.5,269.2031 L341.5,284.5234 L185.5,261.2031 L185.5,261.2031 L175.5,251.2031 L35.5,251.2031 A0,0 0 0 0 35.5,251.2031 " fill="#FEFFDD" style="stroke:#181818;stroke-width:0.5;"/><path d="M175.5,251.2031 L175.5,261.2031 L185.5,261.2031 L175.5,251.2031 " fill="#FEFFDD" style="stroke:#181818;stroke-width:0.5;"/><text fill="#000000" font-family="sans-serif" font-size="13" lengthAdjust="spacing" textLength="129" x="41.5" y="269.6982">Unique within 1 switch</text><!--MD5=[27abfb56f32eefa7f07c83348fb1ee32]
class GormGenericRepository--><g id="elem_GormGenericRepository"><rect codeLine="5" fill="#F1F1F1" height="48" id="GormGenericRepository" rx="2.5" ry="2.5" style="stroke:#181818;stroke-width:0.5;" width="246" x="1090" y="590"/><ellipse cx="1105" cy="606" fill="#ADD1B2" rx="11" ry="11" style="stroke:#181818;stroke-width:1.0;"/><path d="M1107.7656,601.875 Q1107.9219,601.6563 1108.1094,601.5469 Q1108.2969,601.4375 1108.5156,601.4375 Q1108.8906,601.4375 1109.125,601.7031 Q1109.3594,601.9531 1109.3594,602.5625 L1109.3594,604.0156 Q1109.3594,604.625 1109.125,604.8906 Q1108.8906,605.1563 1108.5156,605.1563 Q1108.1719,605.1563 1107.9688,604.9531 Q1107.7656,604.7656 1107.6563,604.25 Q1107.6094,603.8906 1107.4219,603.7031 Q1107.0938,603.3281 1106.4844,603.1094 Q1105.875,602.8906 1105.25,602.8906 Q1104.4844,602.8906 1103.8438,603.2188 Q1103.2188,603.5469 1102.7188,604.2969 Q1102.2344,605.0469 1102.2344,606.0781 L1102.2344,607.1719 Q1102.2344,608.4063 1103.125,609.2344 Q1104.0156,610.0469 1105.6094,610.0469 Q1106.5469,610.0469 1107.2031,609.7969 Q1107.5938,609.6406 1108.0156,609.2031 Q1108.2813,608.9375 1108.4219,608.8594 Q1108.5781,608.7813 1108.7813,608.7813 Q1109.1094,608.7813 1109.3594,609.0469 Q1109.625,609.2969 1109.625,609.6406 Q1109.625,609.9844 1109.2813,610.3906 Q1108.7813,610.9688 1107.9844,611.2969 Q1106.9063,611.75 1105.6094,611.75 Q1104.0938,611.75 1102.8906,611.125 Q1101.9063,610.625 1101.2188,609.5625 Q1100.5313,608.4844 1100.5313,607.2031 L1100.5313,606.0469 Q1100.5313,604.7188 1101.1406,603.5781 Q1101.7656,602.4219 1102.8594,601.8125 Q1103.9531,601.1875 1105.1875,601.1875 Q1105.9219,601.1875 1106.5625,601.3594 Q1107.2188,601.5156 1107.7656,601.875 Z " fill="#000000"/><text fill="#000000" font-family="sans-serif" font-size="14" lengthAdjust="spacing" textLength="153" x="1119" y="611.7285">GormGenericRepository</text><rect fill="#FFFFFF" height="17.0938" style="stroke:#000000;stroke-width:1.0;stroke-dasharray:2.0,2.0;" width="59" x="1280" y="587"/><text fill="#000000" font-family="sans-serif" font-size="12" font-style="italic" lengthAdjust="spacing" textLength="57" x="1281" y="600.457">EntityType</text><line style="stroke:#181818;stroke-width:0.5;" x1="1091" x2="1335" y1="622" y2="622"/><line style="stroke:#181818;stroke-width:0.5;" x1="1091" x2="1335" y1="630" y2="630"/></g><!--MD5=[44d95913ec2b3ba897526465ba0cec4b]
class EthernetSwitchRepository--><g id="elem_EthernetSwitchRepository"><rect codeLine="6" fill="#F1F1F1" height="48" id="EthernetSwitchRepository" rx="2.5" ry="2.5" style="stroke:#181818;stroke-width:0.5;" width="194" x="1266" y="219"/><ellipse cx="1281" cy="235" fill="#ADD1B2" rx="11" ry="11" style="stroke:#181818;stroke-width:1.0;"/><path d="M1283.7656,230.875 Q1283.9219,230.6563 1284.1094,230.5469 Q1284.2969,230.4375 1284.5156,230.4375 Q1284.8906,230.4375 1285.125,230.7031 Q1285.3594,230.9531 1285.3594,231.5625 L1285.3594,233.0156 Q1285.3594,233.625 1285.125,233.8906 Q1284.8906,234.1563 1284.5156,234.1563 Q1284.1719,234.1563 1283.9688,233.9531 Q1283.7656,233.7656 1283.6563,233.25 Q1283.6094,232.8906 1283.4219,232.7031 Q1283.0938,232.3281 1282.4844,232.1094 Q1281.875,231.8906 1281.25,231.8906 Q1280.4844,231.8906 1279.8438,232.2188 Q1279.2188,232.5469 1278.7188,233.2969 Q1278.2344,234.0469 1278.2344,235.0781 L1278.2344,236.1719 Q1278.2344,237.4063 1279.125,238.2344 Q1280.0156,239.0469 1281.6094,239.0469 Q1282.5469,239.0469 1283.2031,238.7969 Q1283.5938,238.6406 1284.0156,238.2031 Q1284.2813,237.9375 1284.4219,237.8594 Q1284.5781,237.7813 1284.7813,237.7813 Q1285.1094,237.7813 1285.3594,238.0469 Q1285.625,238.2969 1285.625,238.6406 Q1285.625,238.9844 1285.2813,239.3906 Q1284.7813,239.9688 1283.9844,240.2969 Q1282.9063,240.75 1281.6094,240.75 Q1280.0938,240.75 1278.8906,240.125 Q1277.9063,239.625 1277.2188,238.5625 Q1276.5313,237.4844 1276.5313,236.2031 L1276.5313,235.0469 Q1276.5313,233.7188 1277.1406,232.5781 Q1277.7656,231.4219 1278.8594,230.8125 Q1279.9531,230.1875 1281.1875,230.1875 Q1281.9219,230.1875 1282.5625,230.3594 Q1283.2188,230.5156 1283.7656,230.875 Z " fill="#000000"/><text fill="#000000" font-family="sans-serif" font-size="14" lengthAdjust="spacing" textLength="162" x="1295" y="240.7285">EthernetSwitchRepository</text><line style="stroke:#181818;stroke-width:0.5;" x1="1267" x2="1459" y1="251" y2="251"/><line style="stroke:#181818;stroke-width:0.5;" x1="1267" x2="1459" y1="259" y2="259"/></g><g id="elem_EthernetSwitchTypeNote"><path d="M1249.5,450 L1249.5,476.3516 L1438.5,476.3516 L1438.5,460 L1428.5,450 L1249.5,450 " fill="#FEFFDD" style="stroke:#181818;stroke-width:0.5;"/><path d="M1428.5,450 L1428.5,460 L1438.5,460 L1428.5,450 " fill="#FEFFDD" style="stroke:#181818;stroke-width:1.0;"/><text fill="#000000" font-family="sans-serif" font-size="13" lengthAdjust="spacing" textLength="168" x="1255.5" y="468.4951">EntityType is EthernetSwitch</text></g><!--MD5=[08ca7a30bf9989fb15c0f21009c8ae57]
class EthernetSwitchPortRepository--><g id="elem_EthernetSwitchPortRepository"><rect codeLine="6" fill="#F1F1F1" height="48" id="EthernetSwitchPortRepository" rx="2.5" ry="2.5" style="stroke:#181818;stroke-width:0.5;" width="220" x="1179" y="42"/><ellipse cx="1194" cy="58" fill="#ADD1B2" rx="11" ry="11" style="stroke:#181818;stroke-width:1.0;"/><path d="M1196.7656,53.875 Q1196.9219,53.6563 1197.1094,53.5469 Q1197.2969,53.4375 1197.5156,53.4375 Q1197.8906,53.4375 1198.125,53.7031 Q1198.3594,53.9531 1198.3594,54.5625 L1198.3594,56.0156 Q1198.3594,56.625 1198.125,56.8906 Q1197.8906,57.1563 1197.5156,57.1563 Q1197.1719,57.1563 1196.9688,56.9531 Q1196.7656,56.7656 1196.6563,56.25 Q1196.6094,55.8906 1196.4219,55.7031 Q1196.0938,55.3281 1195.4844,55.1094 Q1194.875,54.8906 1194.25,54.8906 Q1193.4844,54.8906 1192.8438,55.2188 Q1192.2188,55.5469 1191.7188,56.2969 Q1191.2344,57.0469 1191.2344,58.0781 L1191.2344,59.1719 Q1191.2344,60.4063 1192.125,61.2344 Q1193.0156,62.0469 1194.6094,62.0469 Q1195.5469,62.0469 1196.2031,61.7969 Q1196.5938,61.6406 1197.0156,61.2031 Q1197.2813,60.9375 1197.4219,60.8594 Q1197.5781,60.7813 1197.7813,60.7813 Q1198.1094,60.7813 1198.3594,61.0469 Q1198.625,61.2969 1198.625,61.6406 Q1198.625,61.9844 1198.2813,62.3906 Q1197.7813,62.9688 1196.9844,63.2969 Q1195.9063,63.75 1194.6094,63.75 Q1193.0938,63.75 1191.8906,63.125 Q1190.9063,62.625 1190.2188,61.5625 Q1189.5313,60.4844 1189.5313,59.2031 L1189.5313,58.0469 Q1189.5313,56.7188 1190.1406,55.5781 Q1190.7656,54.4219 1191.8594,53.8125 Q1192.9531,53.1875 1194.1875,53.1875 Q1194.9219,53.1875 1195.5625,53.3594 Q1196.2188,53.5156 1196.7656,53.875 Z " fill="#000000"/><text fill="#000000" font-family="sans-serif" font-size="14" lengthAdjust="spacing" textLength="188" x="1208" y="63.7285">EthernetSwitchPortRepository</text><line style="stroke:#181818;stroke-width:0.5;" x1="1180" x2="1398" y1="74" y2="74"/><line style="stroke:#181818;stroke-width:0.5;" x1="1180" x2="1398" y1="82" y2="82"/></g><g id="elem_EthernetSwitchPortTypeNote"><path d="M963.5,450 L963.5,476.3516 L1176.5,476.3516 L1176.5,460 L1166.5,450 L963.5,450 " fill="#FEFFDD" style="stroke:#181818;stroke-width:0.5;"/><path d="M1166.5,450 L1166.5,460 L1176.5,460 L1166.5,450 " fill="#FEFFDD" style="stroke:#181818;stroke-width:1.0;"/><text fill="#000000" font-family="sans-serif" font-size="13" lengthAdjust="spacing" textLength="192" x="969.5" y="468.4951">EntityType is EthernetSwitchPort</text></g><!--MD5=[4f15965369cf1e2d28449fc0d2ee4583]
class EthernetSwitchBaseDto--><g id="elem_EthernetSwitchBaseDto"><rect codeLine="3" fill="#F1F1F1" height="160.0469" id="EthernetSwitchBaseDto" rx="2.5" ry="2.5" style="stroke:#181818;stroke-width:0.5;" width="180" x="1775" y="1555"/><ellipse cx="1790" cy="1571" fill="#ADD1B2" rx="11" ry="11" style="stroke:#181818;stroke-width:1.0;"/><path d="M1792.7656,1566.875 Q1792.9219,1566.6563 1793.1094,1566.5469 Q1793.2969,1566.4375 1793.5156,1566.4375 Q1793.8906,1566.4375 1794.125,1566.7031 Q1794.3594,1566.9531 1794.3594,1567.5625 L1794.3594,1569.0156 Q1794.3594,1569.625 1794.125,1569.8906 Q1793.8906,1570.1563 1793.5156,1570.1563 Q1793.1719,1570.1563 1792.9688,1569.9531 Q1792.7656,1569.7656 1792.6563,1569.25 Q1792.6094,1568.8906 1792.4219,1568.7031 Q1792.0938,1568.3281 1791.4844,1568.1094 Q1790.875,1567.8906 1790.25,1567.8906 Q1789.4844,1567.8906 1788.8438,1568.2188 Q1788.2188,1568.5469 1787.7188,1569.2969 Q1787.2344,1570.0469 1787.2344,1571.0781 L1787.2344,1572.1719 Q1787.2344,1573.4063 1788.125,1574.2344 Q1789.0156,1575.0469 1790.6094,1575.0469 Q1791.5469,1575.0469 1792.2031,1574.7969 Q1792.5938,1574.6406 1793.0156,1574.2031 Q1793.2813,1573.9375 1793.4219,1573.8594 Q1793.5781,1573.7813 1793.7813,1573.7813 Q1794.1094,1573.7813 1794.3594,1574.0469 Q1794.625,1574.2969 1794.625,1574.6406 Q1794.625,1574.9844 1794.2813,1575.3906 Q1793.7813,1575.9688 1792.9844,1576.2969 Q1791.9063,1576.75 1790.6094,1576.75 Q1789.0938,1576.75 1787.8906,1576.125 Q1786.9063,1575.625 1786.2188,1574.5625 Q1785.5313,1573.4844 1785.5313,1572.2031 L1785.5313,1571.0469 Q1785.5313,1569.7188 1786.1406,1568.5781 Q1786.7656,1567.4219 1787.8594,1566.8125 Q1788.9531,1566.1875 1790.1875,1566.1875 Q1790.9219,1566.1875 1791.5625,1566.3594 Q1792.2188,1566.5156 1792.7656,1566.875 Z " fill="#000000"/><text fill="#000000" font-family="sans-serif" font-size="14" lengthAdjust="spacing" textLength="148" x="1804" y="1576.7285">EthernetSwitchBaseDto</text><line style="stroke:#181818;stroke-width:0.5;" x1="1776" x2="1954" y1="1587" y2="1587"/><ellipse cx="1786" cy="1598" fill="none" rx="3" ry="3" style="stroke:#038048;stroke-width:1.0;"/><text fill="#000000" font-family="sans-serif" font-size="14" lengthAdjust="spacing" textLength="75" x="1795" y="1605.5332">Name string</text><line style="stroke:#181818;stroke-width:1.0;" x1="1776" x2="1954" y1="1612.6094" y2="1612.6094"/><ellipse cx="1786" cy="1623.6094" fill="none" rx="3" ry="3" style="stroke:#038048;stroke-width:1.0;"/><text fill="#000000" font-family="sans-serif" font-size="14" lengthAdjust="spacing" textLength="75" x="1795" y="1631.1426">Serial string</text><line style="stroke:#181818;stroke-width:1.0;" x1="1776" x2="1954" y1="1638.2188" y2="1638.2188"/><ellipse cx="1786" cy="1649.2188" fill="none" rx="3" ry="3" style="stroke:#038048;stroke-width:1.0;"/><text fill="#000000" font-family="sans-serif" font-size="14" lengthAdjust="spacing" textLength="117" x="1795" y="1656.752">SwitchModel string</text><line style="stroke:#181818;stroke-width:1.0;" x1="1776" x2="1954" y1="1663.8281" y2="1663.8281"/><ellipse cx="1786" cy="1674.8281" fill="none" rx="3" ry="3" style="stroke:#038048;stroke-width:1.0;"/><text fill="#000000" font-family="sans-serif" font-size="14" lengthAdjust="spacing" textLength="91" x="1795" y="1682.3613">Address string</text><line style="stroke:#181818;stroke-width:1.0;" x1="1776" x2="1954" y1="1689.4375" y2="1689.4375"/><ellipse cx="1786" cy="1700.4375" fill="none" rx="3" ry="3" style="stroke:#038048;stroke-width:1.0;"/><text fill="#000000" font-family="sans-serif" font-size="14" lengthAdjust="spacing" textLength="103" x="1795" y="1707.9707">Username string</text></g><!--MD5=[b5f51fede5412d5c08046421531bde8a]
class EthernetSwitchCreateDto--><g id="elem_EthernetSwitchCreateDto"><rect codeLine="5" fill="#F1F1F1" height="65.6094" id="EthernetSwitchCreateDto" rx="2.5" ry="2.5" style="stroke:#181818;stroke-width:0.5;" width="191" x="1545.5" y="1396.5"/><ellipse cx="1560.5" cy="1412.5" fill="#ADD1B2" rx="11" ry="11" style="stroke:#181818;stroke-width:1.0;"/><path d="M1563.2656,1408.375 Q1563.4219,1408.1563 1563.6094,1408.0469 Q1563.7969,1407.9375 1564.0156,1407.9375 Q1564.3906,1407.9375 1564.625,1408.2031 Q1564.8594,1408.4531 1564.8594,1409.0625 L1564.8594,1410.5156 Q1564.8594,1411.125 1564.625,1411.3906 Q1564.3906,1411.6563 1564.0156,1411.6563 Q1563.6719,1411.6563 1563.4688,1411.4531 Q1563.2656,1411.2656 1563.1563,1410.75 Q1563.1094,1410.3906 1562.9219,1410.2031 Q1562.5938,1409.8281 1561.9844,1409.6094 Q1561.375,1409.3906 1560.75,1409.3906 Q1559.9844,1409.3906 1559.3438,1409.7188 Q1558.7188,1410.0469 1558.2188,1410.7969 Q1557.7344,1411.5469 1557.7344,1412.5781 L1557.7344,1413.6719 Q1557.7344,1414.9063 1558.625,1415.7344 Q1559.5156,1416.5469 1561.1094,1416.5469 Q1562.0469,1416.5469 1562.7031,1416.2969 Q1563.0938,1416.1406 1563.5156,1415.7031 Q1563.7813,1415.4375 1563.9219,1415.3594 Q1564.0781,1415.2813 1564.2813,1415.2813 Q1564.6094,1415.2813 1564.8594,1415.5469 Q1565.125,1415.7969 1565.125,1416.1406 Q1565.125,1416.4844 1564.7813,1416.8906 Q1564.2813,1417.4688 1563.4844,1417.7969 Q1562.4063,1418.25 1561.1094,1418.25 Q1559.5938,1418.25 1558.3906,1417.625 Q1557.4063,1417.125 1556.7188,1416.0625 Q1556.0313,1414.9844 1556.0313,1413.7031 L1556.0313,1412.5469 Q1556.0313,1411.2188 1556.6406,1410.0781 Q1557.2656,1408.9219 1558.3594,1408.3125 Q1559.4531,1407.6875 1560.6875,1407.6875 Q1561.4219,1407.6875 1562.0625,1407.8594 Q1562.7188,1408.0156 1563.2656,1408.375 Z " fill="#000000"/><text fill="#000000" font-family="sans-serif" font-size="14" lengthAdjust="spacing" textLength="159" x="1574.5" y="1418.2285">EthernetSwitchCreateDto</text><line style="stroke:#181818;stroke-width:0.5;" x1="1546.5" x2="1735.5" y1="1428.5" y2="1428.5"/><ellipse cx="1556.5" cy="1439.5" fill="none" rx="3" ry="3" style="stroke:#038048;stroke-width:1.0;"/><text fill="#000000" font-family="sans-serif" font-size="14" lengthAdjust="spacing" textLength="100" x="1565.5" y="1447.0332">Password string</text><line style="stroke:#181818;stroke-width:0.5;" x1="1546.5" x2="1735.5" y1="1454.1094" y2="1454.1094"/></g><!--MD5=[c34e1a9004d5b1340cd98967367dc0c0]
class EthernetSwitchUpdateDto--><g id="elem_EthernetSwitchUpdateDto"><rect codeLine="5" fill="#F1F1F1" height="65.6094" id="EthernetSwitchUpdateDto" rx="2.5" ry="2.5" style="stroke:#181818;stroke-width:0.5;" width="193" x="1771.5" y="1396.5"/><ellipse cx="1786.5" cy="1412.5" fill="#ADD1B2" rx="11" ry="11" style="stroke:#181818;stroke-width:1.0;"/><path d="M1789.2656,1408.375 Q1789.4219,1408.1563 1789.6094,1408.0469 Q1789.7969,1407.9375 1790.0156,1407.9375 Q1790.3906,1407.9375 1790.625,1408.2031 Q1790.8594,1408.4531 1790.8594,1409.0625 L1790.8594,1410.5156 Q1790.8594,1411.125 1790.625,1411.3906 Q1790.3906,1411.6563 1790.0156,1411.6563 Q1789.6719,1411.6563 1789.4688,1411.4531 Q1789.2656,1411.2656 1789.1563,1410.75 Q1789.1094,1410.3906 1788.9219,1410.2031 Q1788.5938,1409.8281 1787.9844,1409.6094 Q1787.375,1409.3906 1786.75,1409.3906 Q1785.9844,1409.3906 1785.3438,1409.7188 Q1784.7188,1410.0469 1784.2188,1410.7969 Q1783.7344,1411.5469 1783.7344,1412.5781 L1783.7344,1413.6719 Q1783.7344,1414.9063 1784.625,1415.7344 Q1785.5156,1416.5469 1787.1094,1416.5469 Q1788.0469,1416.5469 1788.7031,1416.2969 Q1789.0938,1416.1406 1789.5156,1415.7031 Q1789.7813,1415.4375 1789.9219,1415.3594 Q1790.0781,1415.2813 1790.2813,1415.2813 Q1790.6094,1415.2813 1790.8594,1415.5469 Q1791.125,1415.7969 1791.125,1416.1406 Q1791.125,1416.4844 1790.7813,1416.8906 Q1790.2813,1417.4688 1789.4844,1417.7969 Q1788.4063,1418.25 1787.1094,1418.25 Q1785.5938,1418.25 1784.3906,1417.625 Q1783.4063,1417.125 1782.7188,1416.0625 Q1782.0313,1414.9844 1782.0313,1413.7031 L1782.0313,1412.5469 Q1782.0313,1411.2188 1782.6406,1410.0781 Q1783.2656,1408.9219 1784.3594,1408.3125 Q1785.4531,1407.6875 1786.6875,1407.6875 Q1787.4219,1407.6875 1788.0625,1407.8594 Q1788.7188,1408.0156 1789.2656,1408.375 Z " fill="#000000"/><text fill="#000000" font-family="sans-serif" font-size="14" lengthAdjust="spacing" textLength="161" x="1800.5" y="1418.2285">EthernetSwitchUpdateDto</text><line style="stroke:#181818;stroke-width:0.5;" x1="1772.5" x2="1963.5" y1="1428.5" y2="1428.5"/><ellipse cx="1782.5" cy="1439.5" fill="none" rx="3" ry="3" style="stroke:#038048;stroke-width:1.0;"/><text fill="#000000" font-family="sans-serif" font-size="14" lengthAdjust="spacing" textLength="100" x="1791.5" y="1447.0332">Password string</text><line style="stroke:#181818;stroke-width:0.5;" x1="1772.5" x2="1963.5" y1="1454.1094" y2="1454.1094"/></g><!--MD5=[a203eca1f0769929ae1344e0135bff6b]
class BaseDto--><g id="elem_BaseDto"><rect codeLine="3" fill="#F1F1F1" height="108.8281" id="BaseDto" rx="2.5" ry="2.5" style="stroke:#181818;stroke-width:0.5;" width="157" x="1990.5" y="1580.5"/><ellipse cx="2037.75" cy="1596.5" fill="#ADD1B2" rx="11" ry="11" style="stroke:#181818;stroke-width:1.0;"/><path d="M2040.5156,1592.375 Q2040.6719,1592.1563 2040.8594,1592.0469 Q2041.0469,1591.9375 2041.2656,1591.9375 Q2041.6406,1591.9375 2041.875,1592.2031 Q2042.1094,1592.4531 2042.1094,1593.0625 L2042.1094,1594.5156 Q2042.1094,1595.125 2041.875,1595.3906 Q2041.6406,1595.6563 2041.2656,1595.6563 Q2040.9219,1595.6563 2040.7188,1595.4531 Q2040.5156,1595.2656 2040.4063,1594.75 Q2040.3594,1594.3906 2040.1719,1594.2031 Q2039.8438,1593.8281 2039.2344,1593.6094 Q2038.625,1593.3906 2038,1593.3906 Q2037.2344,1593.3906 2036.5938,1593.7188 Q2035.9688,1594.0469 2035.4688,1594.7969 Q2034.9844,1595.5469 2034.9844,1596.5781 L2034.9844,1597.6719 Q2034.9844,1598.9063 2035.875,1599.7344 Q2036.7656,1600.5469 2038.3594,1600.5469 Q2039.2969,1600.5469 2039.9531,1600.2969 Q2040.3438,1600.1406 2040.7656,1599.7031 Q2041.0313,1599.4375 2041.1719,1599.3594 Q2041.3281,1599.2813 2041.5313,1599.2813 Q2041.8594,1599.2813 2042.1094,1599.5469 Q2042.375,1599.7969 2042.375,1600.1406 Q2042.375,1600.4844 2042.0313,1600.8906 Q2041.5313,1601.4688 2040.7344,1601.7969 Q2039.6563,1602.25 2038.3594,1602.25 Q2036.8438,1602.25 2035.6406,1601.625 Q2034.6563,1601.125 2033.9688,1600.0625 Q2033.2813,1598.9844 2033.2813,1597.7031 L2033.2813,1596.5469 Q2033.2813,1595.2188 2033.8906,1594.0781 Q2034.5156,1592.9219 2035.6094,1592.3125 Q2036.7031,1591.6875 2037.9375,1591.6875 Q2038.6719,1591.6875 2039.3125,1591.8594 Q2039.9688,1592.0156 2040.5156,1592.375 Z " fill="#000000"/><text fill="#000000" font-family="sans-serif" font-size="14" lengthAdjust="spacing" textLength="54" x="2058.25" y="1602.2285">BaseDto</text><line style="stroke:#181818;stroke-width:0.5;" x1="1991.5" x2="2146.5" y1="1612.5" y2="1612.5"/><ellipse cx="2001.5" cy="1623.5" fill="none" rx="3" ry="3" style="stroke:#038048;stroke-width:1.0;"/><text fill="#000000" font-family="sans-serif" font-size="14" lengthAdjust="spacing" textLength="79" x="2010.5" y="1631.0332">ID uuid.UUID</text><line style="stroke:#181818;stroke-width:1.0;" x1="1991.5" x2="2146.5" y1="1638.1094" y2="1638.1094"/><ellipse cx="2001.5" cy="1649.1094" fill="none" rx="3" ry="3" style="stroke:#038048;stroke-width:1.0;"/><text fill="#000000" font-family="sans-serif" font-size="14" lengthAdjust="spacing" textLength="129" x="2010.5" y="1656.6426">CreatedAt time.Time</text><line style="stroke:#181818;stroke-width:1.0;" x1="1991.5" x2="2146.5" y1="1663.7188" y2="1663.7188"/><ellipse cx="2001.5" cy="1674.7188" fill="none" rx="3" ry="3" style="stroke:#038048;stroke-width:1.0;"/><text fill="#000000" font-family="sans-serif" font-size="14" lengthAdjust="spacing" textLength="131" x="2010.5" y="1682.252">UpdatedAt time.Time</text></g><!--MD5=[b580cc5ff93fe4dac06272a8d0848e45]
class EthernetSwitchDto--><g id="elem_EthernetSwitchDto"><rect codeLine="6" fill="#F1F1F1" height="48" id="EthernetSwitchDto" rx="2.5" ry="2.5" style="stroke:#181818;stroke-width:0.5;" width="148" x="2000" y="1405.5"/><ellipse cx="2015" cy="1421.5" fill="#ADD1B2" rx="11" ry="11" style="stroke:#181818;stroke-width:1.0;"/><path d="M2017.7656,1417.375 Q2017.9219,1417.1563 2018.1094,1417.0469 Q2018.2969,1416.9375 2018.5156,1416.9375 Q2018.8906,1416.9375 2019.125,1417.2031 Q2019.3594,1417.4531 2019.3594,1418.0625 L2019.3594,1419.5156 Q2019.3594,1420.125 2019.125,1420.3906 Q2018.8906,1420.6563 2018.5156,1420.6563 Q2018.1719,1420.6563 2017.9688,1420.4531 Q2017.7656,1420.2656 2017.6563,1419.75 Q2017.6094,1419.3906 2017.4219,1419.2031 Q2017.0938,1418.8281 2016.4844,1418.6094 Q2015.875,1418.3906 2015.25,1418.3906 Q2014.4844,1418.3906 2013.8438,1418.7188 Q2013.2188,1419.0469 2012.7188,1419.7969 Q2012.2344,1420.5469 2012.2344,1421.5781 L2012.2344,1422.6719 Q2012.2344,1423.9063 2013.125,1424.7344 Q2014.0156,1425.5469 2015.6094,1425.5469 Q2016.5469,1425.5469 2017.2031,1425.2969 Q2017.5938,1425.1406 2018.0156,1424.7031 Q2018.2813,1424.4375 2018.4219,1424.3594 Q2018.5781,1424.2813 2018.7813,1424.2813 Q2019.1094,1424.2813 2019.3594,1424.5469 Q2019.625,1424.7969 2019.625,1425.1406 Q2019.625,1425.4844 2019.2813,1425.8906 Q2018.7813,1426.4688 2017.9844,1426.7969 Q2016.9063,1427.25 2015.6094,1427.25 Q2014.0938,1427.25 2012.8906,1426.625 Q2011.9063,1426.125 2011.2188,1425.0625 Q2010.5313,1423.9844 2010.5313,1422.7031 L2010.5313,1421.5469 Q2010.5313,1420.2188 2011.1406,1419.0781 Q2011.7656,1417.9219 2012.8594,1417.3125 Q2013.9531,1416.6875 2015.1875,1416.6875 Q2015.9219,1416.6875 2016.5625,1416.8594 Q2017.2188,1417.0156 2017.7656,1417.375 Z " fill="#000000"/><text fill="#000000" font-family="sans-serif" font-size="14" lengthAdjust="spacing" textLength="116" x="2029" y="1427.2285">EthernetSwitchDto</text><line style="stroke:#181818;stroke-width:0.5;" x1="2001" x2="2147" y1="1437.5" y2="1437.5"/><line style="stroke:#181818;stroke-width:0.5;" x1="2001" x2="2147" y1="1445.5" y2="1445.5"/></g><!--MD5=[56424cb3f8ebacad4e8ce83d86c39ad6]
link GenericService to IGenericService--><g id="link_GenericService_IGenericService"><path codeLine="11" d="M970,1484.23 C970,1499.72 970,1517.14 970,1534.47 " fill="none" id="GenericService-to-IGenericService" style="stroke:#181818;stroke-width:1.0;stroke-dasharray:7.0,7.0;"/><polygon fill="none" points="977,1534.65,970,1554.65,963,1534.65,977,1534.65" style="stroke:#181818;stroke-width:1.0;"/></g><!--MD5=[a6c7a0eda5b041e127f539f1664bb96a]
link Entity to IEntityModel--><g id="link_Entity_IEntityModel"><path codeLine="14" d="M331.8,530.12 C280.51,566.61 220.69,615.52 178,670 C145.46,711.53 121.69,767.19 107.29,807.25 " fill="none" id="Entity-to-IEntityModel" style="stroke:#181818;stroke-width:1.0;stroke-dasharray:7.0,7.0;"/><polygon fill="none" points="113.85,809.72,100.72,826.35,100.61,805.16,113.85,809.72" style="stroke:#181818;stroke-width:1.0;"/></g><!--MD5=[28ddc57433616ceaae86c7f76015305a]
link EthernetSwitch to Entity--><g id="link_EthernetSwitch_Entity"><path codeLine="27" d="M763.36,322.9 C757.7,327.6 751.89,332.02 746,336 C698.64,367.98 641.91,393.99 590,413.89 " fill="none" id="EthernetSwitch-to-Entity" style="stroke:#181818;stroke-width:1.0;"/><polygon fill="#181818" points="577.62,418.56,584.6456,420.185,588.8478,414.3248,581.8222,412.6998,577.62,418.56" style="stroke:#181818;stroke-width:1.0;"/></g><!--MD5=[1b84833638557571905b03f54e842c8c]
link GormGenericRepository to IGenericRepository--><g id="link_GormGenericRepository_IGenericRepository"><path codeLine="7" d="M1195.55,638.35 C1180.07,659.06 1156.1,691.13 1131.2,724.44 " fill="none" id="GormGenericRepository-to-IGenericRepository" style="stroke:#181818;stroke-width:1.0;stroke-dasharray:7.0,7.0;"/><polygon fill="none" points="1136.52,729.02,1118.94,740.84,1125.31,720.63,1136.52,729.02" style="stroke:#181818;stroke-width:1.0;"/></g><!--MD5=[bbe412936ca4b95a00b9eb94a916dd4a]
link EthernetSwitchRepository to GormGenericRepository--><g id="link_EthernetSwitchRepository_GormGenericRepository"><path codeLine="8" d="M1382.7,267.24 C1427.2,322.65 1526.33,464.55 1456,554 C1441.62,572.29 1396.69,585.6 1349.31,594.91 " fill="none" id="EthernetSwitchRepository-to-GormGenericRepository" style="stroke:#181818;stroke-width:1.0;"/><polygon fill="#181818" points="1336.24,597.36,1342.8755,600.1831,1348.0336,595.1438,1341.398,592.3207,1336.24,597.36" style="stroke:#181818;stroke-width:1.0;"/></g><!--MD5=[97e973a2e17e2fdf95a657100781ecd2]
link EthernetSwitchRepository to EthernetSwitchTypeNote--><g id="link_EthernetSwitchRepository_EthernetSwitchTypeNote"><path codeLine="13" d="M1360.97,267.33 C1356.95,313.46 1348.1,414.9 1345.06,449.87 " fill="none" id="EthernetSwitchRepository-EthernetSwitchTypeNote" style="stroke:#181818;stroke-width:1.0;stroke-dasharray:7.0,7.0;"/></g><!--MD5=[9f5125094d565c097065cae25f7e2c84]
link EthernetSwitchTypeNote to GormGenericRepository--><g id="link_EthernetSwitchTypeNote_GormGenericRepository"><path codeLine="14" d="M1333.28,476.19 C1312.32,500.04 1265.45,553.35 1236.8,585.93 " fill="none" id="EthernetSwitchTypeNote-to-GormGenericRepository" style="stroke:#181818;stroke-width:1.0;stroke-dasharray:7.0,7.0;"/><polygon fill="#181818" points="1233.4,589.8,1242.3524,585.6946,1236.7067,586.0496,1236.3517,580.4039,1233.4,589.8" style="stroke:#181818;stroke-width:1.0;"/></g><!--MD5=[e4dc094716afb2924cadfdc3ab207821]
link EthernetSwitch to EthernetSwitchTypeNote--><g id="link_EthernetSwitch_EthernetSwitchTypeNote"><path codeLine="15" d="M906.74,310.65 C919.5,320.19 933.15,329.09 947,336 C1048.08,386.45 1086.99,359.78 1194,396 C1239.81,411.51 1290.93,435.52 1320.1,449.91 " fill="none" id="EthernetSwitch-EthernetSwitchTypeNote" style="stroke:#181818;stroke-width:1.0;stroke-dasharray:7.0,7.0;"/></g><!--MD5=[afd672b6d7a853cadad0fa5e76e30a74]
link EthernetSwitchPort to Entity--><g id="link_EthernetSwitchPort_Entity"><path codeLine="13" d="M436,297.61 C436,323.18 436,354.3 436,382.55 " fill="none" id="EthernetSwitchPort-to-Entity" style="stroke:#181818;stroke-width:1.0;"/><polygon fill="#181818" points="436,395.73,440,389.73,436,383.73,432,389.73,436,395.73" style="stroke:#181818;stroke-width:1.0;"/></g><!--MD5=[1762f5c7af981631210025ef4f9c269e]
link EthernetSwitchPortRepository to GormGenericRepository--><g id="link_EthernetSwitchPortRepository_GormGenericRepository"><path codeLine="8" d="M1259.66,90.4 C1255.42,95.12 1251.61,100.37 1249,106 C1173.88,267.88 1194.98,490.41 1207.16,576.73 " fill="none" id="EthernetSwitchPortRepository-to-GormGenericRepository" style="stroke:#181818;stroke-width:1.0;"/><polygon fill="#181818" points="1209.09,589.85,1212.1709,583.3302,1207.3376,577.9786,1204.2567,584.4984,1209.09,589.85" style="stroke:#181818;stroke-width:1.0;"/></g><!--MD5=[fe4788a4e689d7fb18894f4eb70a548f]
link EthernetSwitchPortRepository to EthernetSwitchPortTypeNote--><g id="link_EthernetSwitchPortRepository_EthernetSwitchPortTypeNote"><path codeLine="13" d="M1224.06,90.06 C1216.68,94.55 1209.76,99.82 1204,106 C1104.48,212.76 1076.92,400.5 1071.25,449.84 " fill="none" id="EthernetSwitchPortRepository-EthernetSwitchPortTypeNote" style="stroke:#181818;stroke-width:1.0;stroke-dasharray:7.0,7.0;"/></g><!--MD5=[db6d18f36f875cfdbc509bcef396f1a5]
link EthernetSwitchPortTypeNote to GormGenericRepository--><g id="link_EthernetSwitchPortTypeNote_GormGenericRepository"><path codeLine="14" d="M1081.7,476.19 C1104.59,500.04 1155.75,553.35 1187.02,585.93 " fill="none" id="EthernetSwitchPortTypeNote-to-GormGenericRepository" style="stroke:#181818;stroke-width:1.0;stroke-dasharray:7.0,7.0;"/><polygon fill="#181818" points="1190.73,589.8,1187.3812,580.5379,1187.2667,586.1936,1181.611,586.0791,1190.73,589.8" style="stroke:#181818;stroke-width:1.0;"/></g><!--MD5=[9c0460ae0ce9578d5fd891f7c11771f8]
link EthernetSwitchPort to EthernetSwitchPortTypeNote--><g id="link_EthernetSwitchPort_EthernetSwitchPortTypeNote"><path codeLine="15" d="M491.78,297.63 C509.76,312.21 530.6,326.56 552,336 C704.82,403.41 763,348.05 923,396 C969.09,409.81 1019.61,434.86 1047.79,449.81 " fill="none" id="EthernetSwitchPort-EthernetSwitchPortTypeNote" style="stroke:#181818;stroke-width:1.0;stroke-dasharray:7.0,7.0;"/></g><!--MD5=[f0bd9206a4dd631190c7c77769e5e372]
link EthernetSwitchCreateDto to EthernetSwitchBaseDto--><g id="link_EthernetSwitchCreateDto_EthernetSwitchBaseDto"><path codeLine="9" d="M1676.49,1462.75 C1701.2,1485.19 1735.42,1516.28 1767.94,1545.82 " fill="none" id="EthernetSwitchCreateDto-to-EthernetSwitchBaseDto" style="stroke:#181818;stroke-width:1.0;"/><polygon fill="#181818" points="1777.96,1554.92,1776.2121,1547.9239,1769.0819,1546.8466,1770.8298,1553.8427,1777.96,1554.92" style="stroke:#181818;stroke-width:1.0;"/></g><!--MD5=[cd18a63401ba994ebd33ffac90db2cbb]
link EthernetSwitchUpdateDto to EthernetSwitchBaseDto--><g id="link_EthernetSwitchUpdateDto_EthernetSwitchBaseDto"><path codeLine="9" d="M1867.52,1462.75 C1867.21,1484.13 1866.78,1513.35 1866.36,1541.61 " fill="none" id="EthernetSwitchUpdateDto-to-EthernetSwitchBaseDto" style="stroke:#181818;stroke-width:1.0;"/><polygon fill="#181818" points="1866.17,1554.92,1870.2553,1548.9777,1866.3414,1542.9212,1862.2561,1548.8635,1866.17,1554.92" style="stroke:#181818;stroke-width:1.0;"/></g><!--MD5=[3caa607ff050ff5d17b319ae4460501c]
link EthernetSwitchDto to EthernetSwitchBaseDto--><g id="link_EthernetSwitchDto_EthernetSwitchBaseDto"><path codeLine="9" d="M2050.03,1453.84 C2026.9,1476.37 1990.41,1511.89 1955.93,1545.46 " fill="none" id="EthernetSwitchDto-to-EthernetSwitchBaseDto" style="stroke:#181818;stroke-width:1.0;"/><polygon fill="#181818" points="1946.27,1554.87,1953.3591,1553.5493,1954.8666,1546.4975,1947.7775,1547.8182,1946.27,1554.87" style="stroke:#181818;stroke-width:1.0;"/></g><!--MD5=[ce3a7074c5a166c0fec412a5219a65db]
link EthernetSwitchDto to BaseDto--><g id="link_EthernetSwitchDto_BaseDto"><path codeLine="10" d="M2073.43,1453.84 C2072.75,1481.27 2071.61,1527.97 2070.65,1566.95 " fill="none" id="EthernetSwitchDto-to-BaseDto" style="stroke:#181818;stroke-width:1.0;"/><polygon fill="#181818" points="2070.32,1580.1,2074.464,1574.1985,2070.6103,1568.1035,2066.4663,1574.005,2070.32,1580.1" style="stroke:#181818;stroke-width:1.0;"/></g><!--MD5=[00a7b3c6cedcc857f096e4343d7ccaca]
link EthernetSwitchRepository to EthernetSwitchService--><g id="link_EthernetSwitchRepository_EthernetSwitchService"><path codeLine="31" d="M1386.97,267.25 C1413.97,295.08 1456.73,344.42 1477,396 C1526.56,522.1 1593.29,901.38 1506,1005 C1404.89,1125.04 1284.56,972.18 1158,1065 C1138.44,1079.34 1157.25,1113.5 1133,1113.5 " fill="none" id="EthernetSwitchRepository-EthernetSwitchService" style="stroke:#181818;stroke-width:1.0;"/></g><!--MD5=[7eb08d8b4260e68a2df9b03110170485]
link EthernetSwitchPortRepository to EthernetSwitchService--><g id="link_EthernetSwitchPortRepository_EthernetSwitchService"><path codeLine="32" d="M1399.05,80.55 C1433.15,86.68 1465.16,95.05 1478,106 C1606.78,215.78 1613,292.78 1613,462 C1613,462 1613,462 1613,615 C1613,790.37 1677.13,881.11 1553,1005 C1427.32,1130.44 1293.94,950.76 1158,1065 C1131.26,1087.47 1167.93,1139.5 1133,1139.5 " fill="none" id="EthernetSwitchPortRepository-EthernetSwitchService" style="stroke:#181818;stroke-width:1.0;"/></g><!--MD5=[54ca8e7a2d2a15c54ed4e724ebc9a450]
link EthernetSwitchService to GenericService--><g id="link_EthernetSwitchService_GenericService"><path codeLine="33" d="M886.95,1180.15 C904.2,1231.75 929.69,1307.96 947.87,1362.33 " fill="none" id="EthernetSwitchService-to-GenericService" style="stroke:#181818;stroke-width:1.0;"/><polygon fill="#181818" points="952.1,1374.96,953.9877,1368.0004,948.2894,1363.5811,946.4018,1370.5407,952.1,1374.96" style="stroke:#181818;stroke-width:1.0;"/></g><!--MD5=[20602760d8e2622c2f34a54a1a95e3af]
link IGenericRepository to EthernetSwitchService--><!--MD5=[10f60970fbbaee124124fe840932bcf7]
link EthernetSwitchPortRepository to EthernetSwitchRepository--><!--MD5=[1150ff4a2de42a70bfddf29dbe9f1355]
link EthernetSwitchService to EthernetSwitchServiceTypes--><g id="link_EthernetSwitchService_EthernetSwitchServiceTypes"><path codeLine="45" d="M1046.11,1180.04 C1109.13,1200.04 1178.32,1222 1234.74,1239.91 " fill="none" id="EthernetSwitchService-EthernetSwitchServiceTypes" style="stroke:#181818;stroke-width:1.0;stroke-dasharray:7.0,7.0;"/></g><!--MD5=[19f9161d2c2c10c9e943f6499734ed1d]
link EthernetSwitchServiceTypes to GenericService--><g id="link_EthernetSwitchServiceTypes_GenericService"><path codeLine="46" d="M1257.53,1315 C1213.37,1332.43 1159.56,1353.67 1110.49,1373.04 " fill="none" id="EthernetSwitchServiceTypes-to-GenericService" style="stroke:#181818;stroke-width:1.0;stroke-dasharray:7.0,7.0;"/><polygon fill="#181818" points="1105.76,1374.91,1115.5997,1375.3337,1110.4122,1373.0778,1112.6681,1367.8902,1105.76,1374.91" style="stroke:#181818;stroke-width:1.0;"/></g><!--MD5=[b0f7fe5f31df835059ab1c194901a7fe]
link EthernetSwitchServiceTypes to EthernetSwitchCreateDto--><g id="link_EthernetSwitchServiceTypes_EthernetSwitchCreateDto"><path codeLine="48" d="M1429.33,1315.18 C1453.76,1326.79 1480.63,1339.89 1505,1352.5 C1531.78,1366.36 1561.04,1382.56 1585.53,1396.44 " fill="none" id="EthernetSwitchServiceTypes-EthernetSwitchCreateDto" style="stroke:#181818;stroke-width:1.0;stroke-dasharray:7.0,7.0;"/></g><!--MD5=[7856b62c62afd124a133667fc83a018f]
link EthernetSwitchServiceTypes to EthernetSwitchUpdateDto--><g id="link_EthernetSwitchServiceTypes_EthernetSwitchUpdateDto"><path codeLine="49" d="M1488.55,1289.82 C1568.4,1299.76 1669.4,1318.26 1754,1352.5 C1780.68,1363.3 1807.61,1380.87 1828.59,1396.39 " fill="none" id="EthernetSwitchServiceTypes-EthernetSwitchUpdateDto" style="stroke:#181818;stroke-width:1.0;stroke-dasharray:7.0,7.0;"/></g><!--MD5=[8b781ed27e3c4292de80ef1c58982566]
link EthernetSwitchServiceTypes to EthernetSwitchDto--><g id="link_EthernetSwitchServiceTypes_EthernetSwitchDto"><path codeLine="50" d="M1488.56,1285.57 C1647.12,1295.25 1895.96,1315.77 1982,1352.5 C2010.01,1364.46 2036.19,1387.74 2053.4,1405.4 " fill="none" id="EthernetSwitchServiceTypes-EthernetSwitchDto" style="stroke:#181818;stroke-width:1.0;stroke-dasharray:7.0,7.0;"/></g><!--MD5=[b524ff196832bb1457d2a340f4d1450a]
@startuml
!include GenericService.puml
!include ../repositories/EthernetSwitchRepository.puml
!include ../repositories/EthernetSwitchPortRepository.puml
!include ../dto/EthernetSwitch/EthernetSwitchCreateDto.puml
!include ../dto/EthernetSwitch/EthernetSwitchUpdateDto.puml
!include ../dto/EthernetSwitch/EthernetSwitchDto.puml

package app {
    class EthernetSwitchService {
        -repository IGenericRepository<EthernetSwitch>
        - -
        -switchPortRepository interfaces.IGenericRepository[domain.EthernetSwitchPort]
        - -
        +GetSupportedModels()
    }
    note left of EthernetSwitchService::switchPortRepository
    Used to remove ports when removing a switch
    end note

    note left of EthernetSwitchService::GetSupportedModels
    Get ethernet switch models that supported by system
    end note

    note right of EthernetSwitchService
        Advanced business logic for EthernetSwitch entity:
        DTO Validation
        Checking the uniqueness of serial numbers
        Checking the uniqueness of addresses
    end note

    EthernetSwitchRepository -right- EthernetSwitchService::repository
    EthernetSwitchPortRepository -right- EthernetSwitchService::switchPortRepository
    GenericService *-up- EthernetSwitchService

    EthernetSwitchService .[hidden]up. IGenericRepository
    EthernetSwitchPortRepository .[hidden]down. EthernetSwitchRepository

    note as EthernetSwitchServiceTypes
    EntityType is EthernetSwitch
    CreateDtoType is EthernetSwitchCreateDto
    UpdateDtoType is EthernetSwitchUpdateDto
    DtoType is EthernetSwitchDto
    end note

    EthernetSwitchService .down. EthernetSwitchServiceTypes
    GenericService <.up. EthernetSwitchServiceTypes

    EthernetSwitchServiceTypes .. EthernetSwitchCreateDto
    EthernetSwitchServiceTypes .. EthernetSwitchUpdateDto
    EthernetSwitchServiceTypes .. EthernetSwitchDto

}
@enduml

@startuml

package app {
    interface IGenericService<EntityType, CreateDtoType, UpdateDtoType, DtoType> {
        +GetList(ctx context.Context, search, orderBy, orderDirection string, page, pageSize int) (dtos.PaginatedItemsDto[DtoType], error)
        - -
        +GetById(ctx context.Context, id uuid.UUID) (DtoType, error)
        - -
        +Update(ctx context.Context, updateDto UpdateDtoType, id uuid.UUID) (DtoType, error)
        - -
        +Create(ctx context.Context, createDto CreateDtoType) (DtoType, error)
        - -
        +Delete(ctx context.Context, id uuid.UUID) error
    }
    note left of IGenericService::GetList
        Get list of elements with search and pagination
    end note

    note left of IGenericService::GetById
        Get entity by ID from service
    end note

    note left of IGenericService::Update
        Save the changes to the existing entity in the service
    end note

    note left of IGenericService::Create
        Add entity to the service
    end note

    note left of IGenericService::Delete
        Mark an entity as deleted
    end note
}


package app {
    class GenericService<EntityType, CreateDtoType, UpdateDtoType, DtoType> {
        -repository IGenericRepository<EntityType>
        - -
        -logger *logrus.Logger
        - -
        -logSourceName string
    }
    GenericService .down.|> IGenericService
}





package app {
    interface IEntityModel {
        +GetID() uuid.UUID
    }
}


package domain {
    class Entity {
        +ID uuid.UUID `gorm:"primarykey"`
        - -
        +CreatedAt time.Time `gorm:"index"`
        - -
        +UpdatedAt time.Time `gorm:"index"`
        - -
        +DeletedAt gorm.DeletedAt `gorm:"index"`
    }
    Entity .down.|> IEntityModel
}


package domain {
    class EthernetSwitch {
        +Name string
        - -
        +Serial string
        - -
        +SwitchModel string
        - -
        +Address string
        - -
        +Username string
        - -
        +Password string
    }
    note left of EthernetSwitch::Serial
    Unique
    end note

    note left of EthernetSwitch::Address
    Unique
    Ip address of the switch
    end note

    EthernetSwitch -down-* Entity
}



package app {
    interface IGenericRepository<EntityType> {
        +GetList(ctx context.Context, orderBy string, orderDirection string, page int, size int, queryBuilder interfaces.IQueryBuilder) ([]EntityType, error)
        - -
        +Count(ctx context.Context, queryBuilder interfaces.IQueryBuilder) (int64, error)
        - -
        +NewQueryBuilder(ctx context.Context) interfaces.IQueryBuilder
        - -
        +GetById(ctx context.Context, id uuid.UUID) (EntityType, error)
        - -
        +Update(ctx context.Context, entity EntityType) (EntityType, error)
        - -
        +Insert(ctx context.Context, entity EntityType) (EntityType, error)
        - -
        +Delete(ctx context.Context, id uuid.UUID) error
        - -
        +CloseDb() error
    }
    note left of IGenericRepository::GetList
      Get list of elements with filtering and pagination
    end note

    note left of IGenericRepository::Count
      Get count of entities with filtering
    end note

    note left of IGenericRepository::NewQueryBuilder
      Get new instance of the query builder
    end note

    note left of IGenericRepository::GetById
      Get entity by ID from repository
    end note

    note left of IGenericRepository::Update
      Save the changes to the existing entity in the repository
    end note

    note left of IGenericRepository::Insert
      Add entity to the repository
    end note

    note left of IGenericRepository::Delete
      Delete entity from the database
    end note

    note left of IGenericRepository::CloseDb
      Closes current database connection
    end note
}


package infrastructure {
    class GormGenericRepository<EntityType>

    GormGenericRepository .down.|> IGenericRepository
}


package infrastructure {
    class EthernetSwitchRepository

    EthernetSwitchRepository -down-* GormGenericRepository


    note "EntityType is EthernetSwitch" as EthernetSwitchTypeNote

    EthernetSwitchRepository .down. EthernetSwitchTypeNote
    GormGenericRepository <.up. EthernetSwitchTypeNote
    EthernetSwitch .. EthernetSwitchTypeNote
}




package domain {
    class EthernetSwitchPort {
        +EthernetSwitchId uuid.UUID
        - -
        +POEType string
        - -
        +Name string
    }

    EthernetSwitchPort -down-* Entity

    note left of EthernetSwitchPort::POEType
      POE port type
      can be: "poe", "poe+", "passive24", "none"
    end note

    note left of EthernetSwitchPort::Name
      Unique within 1 switch
    end note
}


package infrastructure {
    class EthernetSwitchPortRepository

    EthernetSwitchPortRepository -down-* GormGenericRepository


    note "EntityType is EthernetSwitchPort" as EthernetSwitchPortTypeNote

    EthernetSwitchPortRepository .down. EthernetSwitchPortTypeNote
    GormGenericRepository <.up. EthernetSwitchPortTypeNote
    EthernetSwitchPort .. EthernetSwitchPortTypeNote
}




package dtos {
    class EthernetSwitchBaseDto {
        +Name string
        - -
        +Serial string
        - -
        +SwitchModel string
        - -
        +Address string
        - -
        +Username string
    }
}


package dtos {
    class EthernetSwitchCreateDto {
        +Password string
    }

    EthernetSwitchCreateDto - -* EthernetSwitchBaseDto
}



package dtos {
    class EthernetSwitchUpdateDto {
        +Password string
    }

    EthernetSwitchUpdateDto - -* EthernetSwitchBaseDto
}



package dtos {
    class BaseDto {
        +ID uuid.UUID
        - -
        +CreatedAt time.Time
        - -
        +UpdatedAt time.Time
    }
}


package dtos {
    class EthernetSwitchDto {

    }
    EthernetSwitchDto - -* EthernetSwitchBaseDto
    EthernetSwitchDto - -* BaseDto
}


package app {
    class EthernetSwitchService {
        -repository IGenericRepository<EthernetSwitch>
        - -
        -switchPortRepository interfaces.IGenericRepository[domain.EthernetSwitchPort]
        - -
        +GetSupportedModels()
    }
    note left of EthernetSwitchService::switchPortRepository
    Used to remove ports when removing a switch
    end note

    note left of EthernetSwitchService::GetSupportedModels
    Get ethernet switch models that supported by system
    end note

    note right of EthernetSwitchService
        Advanced business logic for EthernetSwitch entity:
        DTO Validation
        Checking the uniqueness of serial numbers
        Checking the uniqueness of addresses
    end note

    EthernetSwitchRepository -right- EthernetSwitchService::repository
    EthernetSwitchPortRepository -right- EthernetSwitchService::switchPortRepository
    GenericService *-up- EthernetSwitchService

    EthernetSwitchService .[hidden]up. IGenericRepository
    EthernetSwitchPortRepository .[hidden]down. EthernetSwitchRepository

    note as EthernetSwitchServiceTypes
    EntityType is EthernetSwitch
    CreateDtoType is EthernetSwitchCreateDto
    UpdateDtoType is EthernetSwitchUpdateDto
    DtoType is EthernetSwitchDto
    end note

    EthernetSwitchService .down. EthernetSwitchServiceTypes
    GenericService <.up. EthernetSwitchServiceTypes

    EthernetSwitchServiceTypes .. EthernetSwitchCreateDto
    EthernetSwitchServiceTypes .. EthernetSwitchUpdateDto
    EthernetSwitchServiceTypes .. EthernetSwitchDto

}
@enduml

PlantUML version 1.2022.6(Tue Jun 21 20:34:49 MSK 2022)
(GPL source distribution)
Java Runtime: OpenJDK Runtime Environment
JVM: OpenJDK 64-Bit Server VM
Default Encoding: Cp1251
Language: ru
Country: RU
--></g></svg>