<?xml version="1.0" encoding="UTF-8" standalone="no"?><svg xmlns="http://www.w3.org/2000/svg" xmlns:xlink="http://www.w3.org/1999/xlink" contentStyleType="text/css" height="1928px" preserveAspectRatio="none" style="width:3463px;height:1928px;background:#FFFFFF;" version="1.1" viewBox="0 0 3463 1928" width="3463px" zoomAndPan="magnify"><defs/><g><!--MD5=[d5ac3844f66b12d9e08170e47495e096]
cluster app--><g id="cluster_app"><path d="M8.5,678 L35.5,678 A3.75,3.75 0 0 1 38,680.5 L45,701.6094 L1857.5,701.6094 A2.5,2.5 0 0 1 1860,704.1094 L1860,1698.5 A2.5,2.5 0 0 1 1857.5,1701 L8.5,1701 A2.5,2.5 0 0 1 6,1698.5 L6,680.5 A2.5,2.5 0 0 1 8.5,678 " style="stroke:#000000;stroke-width:1.5;fill:none;"/><line style="stroke:#000000;stroke-width:1.5;fill:none;" x1="6" x2="45" y1="701.6094" y2="701.6094"/><text fill="#000000" font-family="sans-serif" font-size="14" font-weight="bold" lengthAdjust="spacing" textLength="26" x="10" y="694.5332">app</text></g><!--MD5=[27f772719433d509ddbc20ff768eba08]
cluster domain--><g id="cluster_domain"><path d="M22.5,114 L74.5,114 A3.75,3.75 0 0 1 77,116.5 L84,137.6094 L921.5,137.6094 A2.5,2.5 0 0 1 924,140.1094 L924,543.5 A2.5,2.5 0 0 1 921.5,546 L22.5,546 A2.5,2.5 0 0 1 20,543.5 L20,116.5 A2.5,2.5 0 0 1 22.5,114 " style="stroke:#000000;stroke-width:1.5;fill:none;"/><line style="stroke:#000000;stroke-width:1.5;fill:none;" x1="20" x2="84" y1="137.6094" y2="137.6094"/><text fill="#000000" font-family="sans-serif" font-size="14" font-weight="bold" lengthAdjust="spacing" textLength="51" x="24" y="130.5332">domain</text></g><!--MD5=[77349be1bd27b81b697a0f9b3aded3c8]
cluster infrastructure--><g id="cluster_infrastructure"><path d="M950.5,6 L1048.5,6 A3.75,3.75 0 0 1 1051,8.5 L1058,29.6094 L1489.5,29.6094 A2.5,2.5 0 0 1 1492,32.1094 L1492,651.5 A2.5,2.5 0 0 1 1489.5,654 L950.5,654 A2.5,2.5 0 0 1 948,651.5 L948,8.5 A2.5,2.5 0 0 1 950.5,6 " style="stroke:#000000;stroke-width:1.5;fill:none;"/><line style="stroke:#000000;stroke-width:1.5;fill:none;" x1="948" x2="1058" y1="29.6094" y2="29.6094"/><text fill="#000000" font-family="sans-serif" font-size="14" font-weight="bold" lengthAdjust="spacing" textLength="97" x="952" y="22.5332">infrastructure</text></g><!--MD5=[ac65c812e7532cbcd7b9effd958b962e]
cluster dtos--><g id="cluster_dtos"><path d="M1886.5,1503.5 L1918.5,1503.5 A3.75,3.75 0 0 1 1921,1506 L1928,1527.1094 L3453.5,1527.1094 A2.5,2.5 0 0 1 3456,1529.6094 L3456,1918.5 A2.5,2.5 0 0 1 3453.5,1921 L1886.5,1921 A2.5,2.5 0 0 1 1884,1918.5 L1884,1506 A2.5,2.5 0 0 1 1886.5,1503.5 " style="stroke:#000000;stroke-width:1.5;fill:none;"/><line style="stroke:#000000;stroke-width:1.5;fill:none;" x1="1884" x2="1928" y1="1527.1094" y2="1527.1094"/><text fill="#000000" font-family="sans-serif" font-size="14" font-weight="bold" lengthAdjust="spacing" textLength="31" x="1888" y="1520.0332">dtos</text></g><!--MD5=[7c0ed5f9a527ab221a5373ebedcc681c]
class IGenericService--><g id="elem_IGenericService"><rect codeLine="3" fill="#F1F1F1" height="160.0469" id="IGenericService" rx="2.5" ry="2.5" style="stroke:#181818;stroke-width:0.5;" width="835" x="974.5" y="1514"/><ellipse cx="1190.75" cy="1530" fill="#B4A7E5" rx="11" ry="11" style="stroke:#181818;stroke-width:1.0;"/><path d="M1191.7031,1526.6406 L1191.7031,1533.2969 L1193.4219,1533.2969 Q1194.0313,1533.2969 1194.2969,1533.5313 Q1194.5625,1533.7656 1194.5625,1534.1563 Q1194.5625,1534.5313 1194.2969,1534.7656 Q1194.0313,1535 1193.4219,1535 L1188.2813,1535 Q1187.6719,1535 1187.4063,1534.7656 Q1187.1406,1534.5313 1187.1406,1534.1406 Q1187.1406,1533.7656 1187.4063,1533.5313 Q1187.6719,1533.2969 1188.2813,1533.2969 L1190,1533.2969 L1190,1526.6406 L1188.2813,1526.6406 Q1187.6719,1526.6406 1187.4063,1526.4063 Q1187.1406,1526.1719 1187.1406,1525.7813 Q1187.1406,1525.4063 1187.4063,1525.1719 Q1187.6719,1524.9375 1188.2813,1524.9375 L1193.4219,1524.9375 Q1194.0313,1524.9375 1194.2969,1525.1719 Q1194.5625,1525.4063 1194.5625,1525.7813 Q1194.5625,1526.1719 1194.2969,1526.4063 Q1194.0313,1526.6406 1193.4219,1526.6406 L1191.7031,1526.6406 Z " fill="#000000"/><text fill="#000000" font-family="sans-serif" font-size="14" font-style="italic" lengthAdjust="spacing" textLength="100" x="1211.25" y="1535.7285">IGenericService</text><rect fill="#FFFFFF" height="17.0938" style="stroke:#000000;stroke-width:1.0;stroke-dasharray:2.0,2.0;" width="292" x="1520.5" y="1511"/><text fill="#000000" font-family="sans-serif" font-size="12" font-style="italic" lengthAdjust="spacing" textLength="290" x="1521.5" y="1524.457">EntityType, CreateDtoType, UpdateDtoType, DtoType</text><line style="stroke:#181818;stroke-width:0.5;" x1="975.5" x2="1808.5" y1="1546" y2="1546"/><ellipse cx="985.5" cy="1557" fill="#84BE84" rx="3" ry="3" style="stroke:#038048;stroke-width:1.0;"/><text fill="#000000" font-family="sans-serif" font-size="14" lengthAdjust="spacing" textLength="809" x="994.5" y="1564.5332">GetList(ctx context.Context, search, orderBy, orderDirection string, page, pageSize int) (dtos.PaginatedItemsDto[DtoType], error)</text><line style="stroke:#181818;stroke-width:1.0;" x1="975.5" x2="1808.5" y1="1571.6094" y2="1571.6094"/><ellipse cx="985.5" cy="1582.6094" fill="#84BE84" rx="3" ry="3" style="stroke:#038048;stroke-width:1.0;"/><text fill="#000000" font-family="sans-serif" font-size="14" lengthAdjust="spacing" textLength="370" x="994.5" y="1590.1426">GetById(ctx context.Context, id uuid.UUID) (DtoType, error)</text><line style="stroke:#181818;stroke-width:1.0;" x1="975.5" x2="1808.5" y1="1597.2188" y2="1597.2188"/><ellipse cx="985.5" cy="1608.2188" fill="#84BE84" rx="3" ry="3" style="stroke:#038048;stroke-width:1.0;"/><text fill="#000000" font-family="sans-serif" font-size="14" lengthAdjust="spacing" textLength="542" x="994.5" y="1615.752">Update(ctx context.Context, updateDto UpdateDtoType, id uuid.UUID) (DtoType, error)</text><line style="stroke:#181818;stroke-width:1.0;" x1="975.5" x2="1808.5" y1="1622.8281" y2="1622.8281"/><ellipse cx="985.5" cy="1633.8281" fill="#84BE84" rx="3" ry="3" style="stroke:#038048;stroke-width:1.0;"/><text fill="#000000" font-family="sans-serif" font-size="14" lengthAdjust="spacing" textLength="449" x="994.5" y="1641.3613">Create(ctx context.Context, createDto CreateDtoType) (DtoType, error)</text><line style="stroke:#181818;stroke-width:1.0;" x1="975.5" x2="1808.5" y1="1648.4375" y2="1648.4375"/><ellipse cx="985.5" cy="1659.4375" fill="#84BE84" rx="3" ry="3" style="stroke:#038048;stroke-width:1.0;"/><text fill="#000000" font-family="sans-serif" font-size="14" lengthAdjust="spacing" textLength="289" x="994.5" y="1666.9707">Delete(ctx context.Context, id uuid.UUID) error</text></g><path d="M613,1503 L613,1529.3516 A0,0 0 0 0 613,1529.3516 L905,1529.3516 A0,0 0 0 0 905,1529.3516 L905,1521 L978.5,1558.8047 L905,1513 L905,1513 L895,1503 L613,1503 A0,0 0 0 0 613,1503 " fill="#FEFFDD" style="stroke:#181818;stroke-width:0.5;"/><path d="M895,1503 L895,1513 L905,1513 L895,1503 " fill="#FEFFDD" style="stroke:#181818;stroke-width:0.5;"/><text fill="#000000" font-family="sans-serif" font-size="13" lengthAdjust="spacing" textLength="271" x="619" y="1521.4951">Get list of elements with search and pagination</text><path d="M613,1539.3516 L613,1565.7031 A0,0 0 0 0 613,1565.7031 L798,1565.7031 A0,0 0 0 0 798,1565.7031 L798,1557.3516 L978.5,1584.4141 L798,1549.3516 L798,1549.3516 L788,1539.3516 L613,1539.3516 A0,0 0 0 0 613,1539.3516 " fill="#FEFFDD" style="stroke:#181818;stroke-width:0.5;"/><path d="M788,1539.3516 L788,1549.3516 L798,1549.3516 L788,1539.3516 " fill="#FEFFDD" style="stroke:#181818;stroke-width:0.5;"/><text fill="#000000" font-family="sans-serif" font-size="13" lengthAdjust="spacing" textLength="164" x="619" y="1557.8467">Get entity by ID from service</text><path d="M613,1575.7031 L613,1602.0547 A0,0 0 0 0 613,1602.0547 L939,1602.0547 A0,0 0 0 0 939,1602.0547 L939,1593.7031 L978.5,1610.0234 L939,1585.7031 L939,1585.7031 L929,1575.7031 L613,1575.7031 A0,0 0 0 0 613,1575.7031 " fill="#FEFFDD" style="stroke:#181818;stroke-width:0.5;"/><path d="M929,1575.7031 L929,1585.7031 L939,1585.7031 L929,1575.7031 " fill="#FEFFDD" style="stroke:#181818;stroke-width:0.5;"/><text fill="#000000" font-family="sans-serif" font-size="13" lengthAdjust="spacing" textLength="305" x="619" y="1594.1982">Save the changes to the existing entity in the service</text><path d="M613,1612.0547 L613,1638.4063 A0,0 0 0 0 613,1638.4063 L774,1638.4063 A0,0 0 0 0 774,1638.4063 L774,1630.0547 L978.5,1635.6328 L774,1622.0547 L774,1622.0547 L764,1612.0547 L613,1612.0547 A0,0 0 0 0 613,1612.0547 " fill="#FEFFDD" style="stroke:#181818;stroke-width:0.5;"/><path d="M764,1612.0547 L764,1622.0547 L774,1622.0547 L764,1612.0547 " fill="#FEFFDD" style="stroke:#181818;stroke-width:0.5;"/><text fill="#000000" font-family="sans-serif" font-size="13" lengthAdjust="spacing" textLength="140" x="619" y="1630.5498">Add entity to the service</text><path d="M613,1648.4063 L613,1674.7578 A0,0 0 0 0 613,1674.7578 L781,1674.7578 A0,0 0 0 0 781,1674.7578 L781,1666.4063 L978.5,1661.2422 L781,1658.4063 L781,1658.4063 L771,1648.4063 L613,1648.4063 A0,0 0 0 0 613,1648.4063 " fill="#FEFFDD" style="stroke:#181818;stroke-width:0.5;"/><path d="M771,1648.4063 L771,1658.4063 L781,1658.4063 L771,1648.4063 " fill="#FEFFDD" style="stroke:#181818;stroke-width:0.5;"/><text fill="#000000" font-family="sans-serif" font-size="13" lengthAdjust="spacing" textLength="147" x="619" y="1666.9014">Mark an entity as deleted</text><!--MD5=[2a39a5be1cc24ddddd6e6286e4ece992]
class IEntityModel--><g id="elem_IEntityModel"><rect codeLine="3" fill="#F1F1F1" height="65.6094" id="IEntityModel" rx="2.5" ry="2.5" style="stroke:#181818;stroke-width:0.5;" width="138" x="22" y="826.5"/><ellipse cx="49.6" cy="842.5" fill="#B4A7E5" rx="11" ry="11" style="stroke:#181818;stroke-width:1.0;"/><path d="M50.5531,839.1406 L50.5531,845.7969 L52.2719,845.7969 Q52.8813,845.7969 53.1469,846.0313 Q53.4125,846.2656 53.4125,846.6563 Q53.4125,847.0313 53.1469,847.2656 Q52.8813,847.5 52.2719,847.5 L47.1313,847.5 Q46.5219,847.5 46.2563,847.2656 Q45.9906,847.0313 45.9906,846.6406 Q45.9906,846.2656 46.2563,846.0313 Q46.5219,845.7969 47.1313,845.7969 L48.85,845.7969 L48.85,839.1406 L47.1313,839.1406 Q46.5219,839.1406 46.2563,838.9063 Q45.9906,838.6719 45.9906,838.2813 Q45.9906,837.9063 46.2563,837.6719 Q46.5219,837.4375 47.1313,837.4375 L52.2719,837.4375 Q52.8813,837.4375 53.1469,837.6719 Q53.4125,837.9063 53.4125,838.2813 Q53.4125,838.6719 53.1469,838.9063 Q52.8813,839.1406 52.2719,839.1406 L50.5531,839.1406 Z " fill="#000000"/><text fill="#000000" font-family="sans-serif" font-size="14" font-style="italic" lengthAdjust="spacing" textLength="78" x="66.4" y="848.2285">IEntityModel</text><line style="stroke:#181818;stroke-width:0.5;" x1="23" x2="159" y1="858.5" y2="858.5"/><line style="stroke:#181818;stroke-width:0.5;" x1="23" x2="159" y1="866.5" y2="866.5"/><ellipse cx="33" cy="877.5" fill="#84BE84" rx="3" ry="3" style="stroke:#038048;stroke-width:1.0;"/><text fill="#000000" font-family="sans-serif" font-size="14" lengthAdjust="spacing" textLength="112" x="42" y="885.0332">GetID() uuid.UUID</text></g><!--MD5=[b3e0f8dcddb1b27f071a0303a68762bf]
class IGenericRepository--><g id="elem_IGenericRepository"><rect codeLine="3" fill="#F1F1F1" height="236.875" id="IGenericRepository" rx="2.5" ry="2.5" style="stroke:#181818;stroke-width:0.5;" width="915" x="573.5" y="741"/><ellipse cx="935.25" cy="757" fill="#B4A7E5" rx="11" ry="11" style="stroke:#181818;stroke-width:1.0;"/><path d="M936.2031,753.6406 L936.2031,760.2969 L937.9219,760.2969 Q938.5313,760.2969 938.7969,760.5313 Q939.0625,760.7656 939.0625,761.1563 Q939.0625,761.5313 938.7969,761.7656 Q938.5313,762 937.9219,762 L932.7813,762 Q932.1719,762 931.9063,761.7656 Q931.6406,761.5313 931.6406,761.1406 Q931.6406,760.7656 931.9063,760.5313 Q932.1719,760.2969 932.7813,760.2969 L934.5,760.2969 L934.5,753.6406 L932.7813,753.6406 Q932.1719,753.6406 931.9063,753.4063 Q931.6406,753.1719 931.6406,752.7813 Q931.6406,752.4063 931.9063,752.1719 Q932.1719,751.9375 932.7813,751.9375 L937.9219,751.9375 Q938.5313,751.9375 938.7969,752.1719 Q939.0625,752.4063 939.0625,752.7813 Q939.0625,753.1719 938.7969,753.4063 Q938.5313,753.6406 937.9219,753.6406 L936.2031,753.6406 Z " fill="#000000"/><text fill="#000000" font-family="sans-serif" font-size="14" font-style="italic" lengthAdjust="spacing" textLength="122" x="955.75" y="762.7285">IGenericRepository</text><rect fill="#FFFFFF" height="17.0938" style="stroke:#000000;stroke-width:1.0;stroke-dasharray:2.0,2.0;" width="59" x="1432.5" y="738"/><text fill="#000000" font-family="sans-serif" font-size="12" font-style="italic" lengthAdjust="spacing" textLength="57" x="1433.5" y="751.457">EntityType</text><line style="stroke:#181818;stroke-width:0.5;" x1="574.5" x2="1487.5" y1="773" y2="773"/><ellipse cx="584.5" cy="784" fill="#84BE84" rx="3" ry="3" style="stroke:#038048;stroke-width:1.0;"/><text fill="#000000" font-family="sans-serif" font-size="14" lengthAdjust="spacing" textLength="889" x="593.5" y="791.5332">GetList(ctx context.Context, orderBy string, orderDirection string, page int, size int, queryBuilder interfaces.IQueryBuilder) ([]EntityType, error)</text><line style="stroke:#181818;stroke-width:1.0;" x1="574.5" x2="1487.5" y1="798.6094" y2="798.6094"/><ellipse cx="584.5" cy="809.6094" fill="#84BE84" rx="3" ry="3" style="stroke:#038048;stroke-width:1.0;"/><text fill="#000000" font-family="sans-serif" font-size="14" lengthAdjust="spacing" textLength="494" x="593.5" y="817.1426">Count(ctx context.Context, queryBuilder interfaces.IQueryBuilder) (int64, error)</text><line style="stroke:#181818;stroke-width:1.0;" x1="574.5" x2="1487.5" y1="824.2188" y2="824.2188"/><ellipse cx="584.5" cy="835.2188" fill="#84BE84" rx="3" ry="3" style="stroke:#038048;stroke-width:1.0;"/><text fill="#000000" font-family="sans-serif" font-size="14" lengthAdjust="spacing" textLength="393" x="593.5" y="842.752">NewQueryBuilder(ctx context.Context) interfaces.IQueryBuilder</text><line style="stroke:#181818;stroke-width:1.0;" x1="574.5" x2="1487.5" y1="849.8281" y2="849.8281"/><ellipse cx="584.5" cy="860.8281" fill="#84BE84" rx="3" ry="3" style="stroke:#038048;stroke-width:1.0;"/><text fill="#000000" font-family="sans-serif" font-size="14" lengthAdjust="spacing" textLength="383" x="593.5" y="868.3613">GetById(ctx context.Context, id uuid.UUID) (EntityType, error)</text><line style="stroke:#181818;stroke-width:1.0;" x1="574.5" x2="1487.5" y1="875.4375" y2="875.4375"/><ellipse cx="584.5" cy="886.4375" fill="#84BE84" rx="3" ry="3" style="stroke:#038048;stroke-width:1.0;"/><text fill="#000000" font-family="sans-serif" font-size="14" lengthAdjust="spacing" textLength="406" x="593.5" y="893.9707">Update(ctx context.Context, entity EntityType) (EntityType, error)</text><line style="stroke:#181818;stroke-width:1.0;" x1="574.5" x2="1487.5" y1="901.0469" y2="901.0469"/><ellipse cx="584.5" cy="912.0469" fill="#84BE84" rx="3" ry="3" style="stroke:#038048;stroke-width:1.0;"/><text fill="#000000" font-family="sans-serif" font-size="14" lengthAdjust="spacing" textLength="396" x="593.5" y="919.5801">Insert(ctx context.Context, entity EntityType) (EntityType, error)</text><line style="stroke:#181818;stroke-width:1.0;" x1="574.5" x2="1487.5" y1="926.6563" y2="926.6563"/><ellipse cx="584.5" cy="937.6563" fill="#84BE84" rx="3" ry="3" style="stroke:#038048;stroke-width:1.0;"/><text fill="#000000" font-family="sans-serif" font-size="14" lengthAdjust="spacing" textLength="289" x="593.5" y="945.1895">Delete(ctx context.Context, id uuid.UUID) error</text><line style="stroke:#181818;stroke-width:1.0;" x1="574.5" x2="1487.5" y1="952.2656" y2="952.2656"/><ellipse cx="584.5" cy="963.2656" fill="#84BE84" rx="3" ry="3" style="stroke:#038048;stroke-width:1.0;"/><text fill="#000000" font-family="sans-serif" font-size="14" lengthAdjust="spacing" textLength="99" x="593.5" y="970.7988">CloseDb() error</text></g><path d="M195.5,714 L195.5,740.3516 A0,0 0 0 0 195.5,740.3516 L489.5,740.3516 A0,0 0 0 0 489.5,740.3516 L489.5,732 L577.5,785.8047 L489.5,724 L489.5,724 L479.5,714 L195.5,714 A0,0 0 0 0 195.5,714 " fill="#FEFFDD" style="stroke:#181818;stroke-width:0.5;"/><path d="M479.5,714 L479.5,724 L489.5,724 L479.5,714 " fill="#FEFFDD" style="stroke:#181818;stroke-width:0.5;"/><text fill="#000000" font-family="sans-serif" font-size="13" lengthAdjust="spacing" textLength="273" x="201.5" y="732.4951">Get list of elements with filtering and pagination</text><path d="M195.5,750.3516 L195.5,776.7031 A0,0 0 0 0 195.5,776.7031 L405.5,776.7031 A0,0 0 0 0 405.5,776.7031 L405.5,768.3516 L577.5,811.4141 L405.5,760.3516 L405.5,760.3516 L395.5,750.3516 L195.5,750.3516 A0,0 0 0 0 195.5,750.3516 " fill="#FEFFDD" style="stroke:#181818;stroke-width:0.5;"/><path d="M395.5,750.3516 L395.5,760.3516 L405.5,760.3516 L395.5,750.3516 " fill="#FEFFDD" style="stroke:#181818;stroke-width:0.5;"/><text fill="#000000" font-family="sans-serif" font-size="13" lengthAdjust="spacing" textLength="189" x="201.5" y="768.8467">Get count of entities with filtering</text><path d="M195.5,786.7031 L195.5,813.0547 A0,0 0 0 0 195.5,813.0547 L431.5,813.0547 A0,0 0 0 0 431.5,813.0547 L431.5,804.7031 L577.5,837.0234 L431.5,796.7031 L431.5,796.7031 L421.5,786.7031 L195.5,786.7031 A0,0 0 0 0 195.5,786.7031 " fill="#FEFFDD" style="stroke:#181818;stroke-width:0.5;"/><path d="M421.5,786.7031 L421.5,796.7031 L431.5,796.7031 L421.5,786.7031 " fill="#FEFFDD" style="stroke:#181818;stroke-width:0.5;"/><text fill="#000000" font-family="sans-serif" font-size="13" lengthAdjust="spacing" textLength="215" x="201.5" y="805.1982">Get new instance of the query builder</text><path d="M195.5,823.0547 L195.5,849.4063 A0,0 0 0 0 195.5,849.4063 L397.5,849.4063 A0,0 0 0 0 397.5,849.4063 L397.5,841.0547 L577.5,862.6328 L397.5,833.0547 L397.5,833.0547 L387.5,823.0547 L195.5,823.0547 A0,0 0 0 0 195.5,823.0547 " fill="#FEFFDD" style="stroke:#181818;stroke-width:0.5;"/><path d="M387.5,823.0547 L387.5,833.0547 L397.5,833.0547 L387.5,823.0547 " fill="#FEFFDD" style="stroke:#181818;stroke-width:0.5;"/><text fill="#000000" font-family="sans-serif" font-size="13" lengthAdjust="spacing" textLength="181" x="201.5" y="841.5498">Get entity by ID from repository</text><path d="M195.5,859.4063 L195.5,885.7578 A0,0 0 0 0 195.5,885.7578 L538.5,885.7578 A0,0 0 0 0 538.5,885.7578 L538.5,877.4063 L577.5,888.2422 L538.5,869.4063 L538.5,869.4063 L528.5,859.4063 L195.5,859.4063 A0,0 0 0 0 195.5,859.4063 " fill="#FEFFDD" style="stroke:#181818;stroke-width:0.5;"/><path d="M528.5,859.4063 L528.5,869.4063 L538.5,869.4063 L528.5,859.4063 " fill="#FEFFDD" style="stroke:#181818;stroke-width:0.5;"/><text fill="#000000" font-family="sans-serif" font-size="13" lengthAdjust="spacing" textLength="322" x="201.5" y="877.9014">Save the changes to the existing entity in the repository</text><path d="M195.5,895.7578 L195.5,922.1094 A0,0 0 0 0 195.5,922.1094 L373.5,922.1094 A0,0 0 0 0 373.5,922.1094 L373.5,913.7578 L577.5,913.8516 L373.5,905.7578 L373.5,905.7578 L363.5,895.7578 L195.5,895.7578 A0,0 0 0 0 195.5,895.7578 " fill="#FEFFDD" style="stroke:#181818;stroke-width:0.5;"/><path d="M363.5,895.7578 L363.5,905.7578 L373.5,905.7578 L363.5,895.7578 " fill="#FEFFDD" style="stroke:#181818;stroke-width:0.5;"/><text fill="#000000" font-family="sans-serif" font-size="13" lengthAdjust="spacing" textLength="157" x="201.5" y="914.2529">Add entity to the repository</text><path d="M195.5,932.1094 L195.5,958.4609 A0,0 0 0 0 195.5,958.4609 L397.5,958.4609 A0,0 0 0 0 397.5,958.4609 L397.5,950.1094 L577.5,939.4609 L397.5,942.1094 L397.5,942.1094 L387.5,932.1094 L195.5,932.1094 A0,0 0 0 0 195.5,932.1094 " fill="#FEFFDD" style="stroke:#181818;stroke-width:0.5;"/><path d="M387.5,932.1094 L387.5,942.1094 L397.5,942.1094 L387.5,932.1094 " fill="#FEFFDD" style="stroke:#181818;stroke-width:0.5;"/><text fill="#000000" font-family="sans-serif" font-size="13" lengthAdjust="spacing" textLength="181" x="201.5" y="950.6045">Delete entity from the database</text><path d="M195.5,968.4609 L195.5,994.8125 A0,0 0 0 0 195.5,994.8125 L424.5,994.8125 A0,0 0 0 0 424.5,994.8125 L424.5,986.4609 L577.5,965.0703 L424.5,978.4609 L424.5,978.4609 L414.5,968.4609 L195.5,968.4609 A0,0 0 0 0 195.5,968.4609 " fill="#FEFFDD" style="stroke:#181818;stroke-width:0.5;"/><path d="M414.5,968.4609 L414.5,978.4609 L424.5,978.4609 L414.5,968.4609 " fill="#FEFFDD" style="stroke:#181818;stroke-width:0.5;"/><text fill="#000000" font-family="sans-serif" font-size="13" lengthAdjust="spacing" textLength="208" x="201.5" y="986.9561">Closes current database connection</text><!--MD5=[c2fde9c784a62a3ac087d43827625e00]
class EthernetSwitchService--><g id="elem_EthernetSwitchService"><rect codeLine="13" fill="#F1F1F1" height="236.875" id="EthernetSwitchService" rx="2.5" ry="2.5" style="stroke:#181818;stroke-width:0.5;" width="1090" x="746" y="1069"/><ellipse cx="1216.25" cy="1085" fill="#ADD1B2" rx="11" ry="11" style="stroke:#181818;stroke-width:1.0;"/><path d="M1219.0156,1080.875 Q1219.1719,1080.6563 1219.3594,1080.5469 Q1219.5469,1080.4375 1219.7656,1080.4375 Q1220.1406,1080.4375 1220.375,1080.7031 Q1220.6094,1080.9531 1220.6094,1081.5625 L1220.6094,1083.0156 Q1220.6094,1083.625 1220.375,1083.8906 Q1220.1406,1084.1563 1219.7656,1084.1563 Q1219.4219,1084.1563 1219.2188,1083.9531 Q1219.0156,1083.7656 1218.9063,1083.25 Q1218.8594,1082.8906 1218.6719,1082.7031 Q1218.3438,1082.3281 1217.7344,1082.1094 Q1217.125,1081.8906 1216.5,1081.8906 Q1215.7344,1081.8906 1215.0938,1082.2188 Q1214.4688,1082.5469 1213.9688,1083.2969 Q1213.4844,1084.0469 1213.4844,1085.0781 L1213.4844,1086.1719 Q1213.4844,1087.4063 1214.375,1088.2344 Q1215.2656,1089.0469 1216.8594,1089.0469 Q1217.7969,1089.0469 1218.4531,1088.7969 Q1218.8438,1088.6406 1219.2656,1088.2031 Q1219.5313,1087.9375 1219.6719,1087.8594 Q1219.8281,1087.7813 1220.0313,1087.7813 Q1220.3594,1087.7813 1220.6094,1088.0469 Q1220.875,1088.2969 1220.875,1088.6406 Q1220.875,1088.9844 1220.5313,1089.3906 Q1220.0313,1089.9688 1219.2344,1090.2969 Q1218.1563,1090.75 1216.8594,1090.75 Q1215.3438,1090.75 1214.1406,1090.125 Q1213.1563,1089.625 1212.4688,1088.5625 Q1211.7813,1087.4844 1211.7813,1086.2031 L1211.7813,1085.0469 Q1211.7813,1083.7188 1212.3906,1082.5781 Q1213.0156,1081.4219 1214.1094,1080.8125 Q1215.2031,1080.1875 1216.4375,1080.1875 Q1217.1719,1080.1875 1217.8125,1080.3594 Q1218.4688,1080.5156 1219.0156,1080.875 Z " fill="#000000"/><text fill="#000000" font-family="sans-serif" font-size="14" lengthAdjust="spacing" textLength="141" x="1236.75" y="1090.7285">EthernetSwitchService</text><line style="stroke:#181818;stroke-width:0.5;" x1="747" x2="1835" y1="1101" y2="1101"/><rect fill="none" height="6" style="stroke:#C82930;stroke-width:1.0;" width="6" x="754" y="1109"/><text fill="#000000" font-family="sans-serif" font-size="14" lengthAdjust="spacing" textLength="415" x="766" y="1119.5332">switchRepo interfaces.IGenericRepository[domain.EthernetSwitch]</text><line style="stroke:#181818;stroke-width:1.0;" x1="747" x2="1835" y1="1126.6094" y2="1126.6094"/><rect fill="none" height="6" style="stroke:#C82930;stroke-width:1.0;" width="6" x="754" y="1134.6094"/><text fill="#000000" font-family="sans-serif" font-size="14" lengthAdjust="spacing" textLength="428" x="766" y="1145.1426">portRepo interfaces.IGenericRepository[domain.EthernetSwitchPort]</text><line style="stroke:#181818;stroke-width:1.0;" x1="747" x2="1835" y1="1152.2188" y2="1152.2188"/><ellipse cx="757" cy="1163.2188" fill="#84BE84" rx="3" ry="3" style="stroke:#038048;stroke-width:1.0;"/><text fill="#000000" font-family="sans-serif" font-size="14" lengthAdjust="spacing" textLength="341" x="766" y="1170.752">GetSupportedModels() []dtos.EthernetSwitchModelDto</text><line style="stroke:#181818;stroke-width:1.0;" x1="747" x2="1835" y1="1177.8281" y2="1177.8281"/><ellipse cx="757" cy="1188.8281" fill="#84BE84" rx="3" ry="3" style="stroke:#038048;stroke-width:1.0;"/><text fill="#000000" font-family="sans-serif" font-size="14" lengthAdjust="spacing" textLength="576" x="766" y="1196.3613">GetPortByID(ctx context.Context, switchID, id uuid.UUID) (dtos.EthernetSwitchPortDto, error)</text><line style="stroke:#181818;stroke-width:1.0;" x1="747" x2="1835" y1="1203.4375" y2="1203.4375"/><ellipse cx="757" cy="1214.4375" fill="#84BE84" rx="3" ry="3" style="stroke:#038048;stroke-width:1.0;"/><text fill="#000000" font-family="sans-serif" font-size="14" lengthAdjust="spacing" textLength="838" x="766" y="1221.9707">CreatePort(ctx context.Context, switchID uuid.UUID, createDto dtos.EthernetSwitchPortCreateDto) (dtos.EthernetSwitchPortDto, error)</text><line style="stroke:#181818;stroke-width:1.0;" x1="747" x2="1835" y1="1229.0469" y2="1229.0469"/><ellipse cx="757" cy="1240.0469" fill="#84BE84" rx="3" ry="3" style="stroke:#038048;stroke-width:1.0;"/><text fill="#000000" font-family="sans-serif" font-size="14" lengthAdjust="spacing" textLength="865" x="766" y="1247.5801">UpdatePort(ctx context.Context, switchID, id uuid.UUID, updateDto dtos.EthernetSwitchPortUpdateDto) (dtos.EthernetSwitchPortDto, error)</text><line style="stroke:#181818;stroke-width:1.0;" x1="747" x2="1835" y1="1254.6563" y2="1254.6563"/><ellipse cx="757" cy="1265.6563" fill="#84BE84" rx="3" ry="3" style="stroke:#038048;stroke-width:1.0;"/><text fill="#000000" font-family="sans-serif" font-size="14" lengthAdjust="spacing" textLength="1064" x="766" y="1273.1895">GetPorts(ctx context.Context, switchID uuid.UUID, search, orderBy, orderDirection string, page, pageSize int) (dtos.PaginatedItemsDto[dtos.EthernetSwitchPortDto], error)</text><line style="stroke:#181818;stroke-width:1.0;" x1="747" x2="1835" y1="1280.2656" y2="1280.2656"/><ellipse cx="757" cy="1291.2656" fill="#84BE84" rx="3" ry="3" style="stroke:#038048;stroke-width:1.0;"/><text fill="#000000" font-family="sans-serif" font-size="14" lengthAdjust="spacing" textLength="374" x="766" y="1298.7988">DeletePort(ctx context.Context, switchID, id uuid.UUID) error</text></g><path d="M371,1168.5 L371,1194.8516 A0,0 0 0 0 371,1194.8516 L703,1194.8516 A0,0 0 0 0 703,1194.8516 L703,1186.5 L750,1165.0234 L703,1178.5 L703,1178.5 L693,1168.5 L371,1168.5 A0,0 0 0 0 371,1168.5 " fill="#FEFFDD" style="stroke:#181818;stroke-width:0.5;"/><path d="M693,1168.5 L693,1178.5 L703,1178.5 L693,1168.5 " fill="#FEFFDD" style="stroke:#181818;stroke-width:0.5;"/><text fill="#000000" font-family="sans-serif" font-size="13" lengthAdjust="spacing" textLength="311" x="377" y="1186.9951">Get ethernet switch models that supported by system</text><g id="elem_GMN689"><path d="M22,1149 L22,1224.4063 L336,1224.4063 L336,1159 L326,1149 L22,1149 " fill="#FEFFDD" style="stroke:#181818;stroke-width:0.5;"/><path d="M326,1149 L326,1159 L336,1159 L326,1149 " fill="#FEFFDD" style="stroke:#181818;stroke-width:1.0;"/><text fill="#000000" font-family="sans-serif" font-size="13" lengthAdjust="spacing" textLength="293" x="28" y="1167.4951">Advanced business logic for EthernetSwitch entity:</text><text fill="#000000" font-family="sans-serif" font-size="13" lengthAdjust="spacing" textLength="87" x="28" y="1183.8467">DTO Validation</text><text fill="#000000" font-family="sans-serif" font-size="13" lengthAdjust="spacing" textLength="249" x="28" y="1200.1982">Checking the uniqueness of serial numbers</text><text fill="#000000" font-family="sans-serif" font-size="13" lengthAdjust="spacing" textLength="224" x="28" y="1216.5498">Checking the uniqueness of addresses</text></g><g id="elem_EthernetSwitchServiceTypes"><path d="M1566.5,1368 L1566.5,1443.4063 L1843.5,1443.4063 L1843.5,1378 L1833.5,1368 L1566.5,1368 " fill="#FEFFDD" style="stroke:#181818;stroke-width:0.5;"/><path d="M1833.5,1368 L1833.5,1378 L1843.5,1378 L1833.5,1368 " fill="#FEFFDD" style="stroke:#181818;stroke-width:1.0;"/><text fill="#000000" font-family="sans-serif" font-size="13" lengthAdjust="spacing" textLength="168" x="1572.5" y="1386.4951">EntityType is EthernetSwitch</text><text fill="#000000" font-family="sans-serif" font-size="13" lengthAdjust="spacing" textLength="250" x="1572.5" y="1402.8467">CreateDtoType is EthernetSwitchCreateDto</text><text fill="#000000" font-family="sans-serif" font-size="13" lengthAdjust="spacing" textLength="256" x="1572.5" y="1419.1982">UpdateDtoType is EthernetSwitchUpdateDto</text><text fill="#000000" font-family="sans-serif" font-size="13" lengthAdjust="spacing" textLength="174" x="1572.5" y="1435.5498">DtoType is EthernetSwitchDto</text></g><!--MD5=[be996cdb8e6bf2fc7cb89c555f2cd144]
class Entity--><g id="elem_Entity"><rect codeLine="5" fill="#F1F1F1" height="134.4375" id="Entity" rx="2.5" ry="2.5" style="stroke:#181818;stroke-width:0.5;" width="283" x="295.5" y="396"/><ellipse cx="415.25" cy="412" fill="#ADD1B2" rx="11" ry="11" style="stroke:#181818;stroke-width:1.0;"/><path d="M418.0156,407.875 Q418.1719,407.6563 418.3594,407.5469 Q418.5469,407.4375 418.7656,407.4375 Q419.1406,407.4375 419.375,407.7031 Q419.6094,407.9531 419.6094,408.5625 L419.6094,410.0156 Q419.6094,410.625 419.375,410.8906 Q419.1406,411.1563 418.7656,411.1563 Q418.4219,411.1563 418.2188,410.9531 Q418.0156,410.7656 417.9063,410.25 Q417.8594,409.8906 417.6719,409.7031 Q417.3438,409.3281 416.7344,409.1094 Q416.125,408.8906 415.5,408.8906 Q414.7344,408.8906 414.0938,409.2188 Q413.4688,409.5469 412.9688,410.2969 Q412.4844,411.0469 412.4844,412.0781 L412.4844,413.1719 Q412.4844,414.4063 413.375,415.2344 Q414.2656,416.0469 415.8594,416.0469 Q416.7969,416.0469 417.4531,415.7969 Q417.8438,415.6406 418.2656,415.2031 Q418.5313,414.9375 418.6719,414.8594 Q418.8281,414.7813 419.0313,414.7813 Q419.3594,414.7813 419.6094,415.0469 Q419.875,415.2969 419.875,415.6406 Q419.875,415.9844 419.5313,416.3906 Q419.0313,416.9688 418.2344,417.2969 Q417.1563,417.75 415.8594,417.75 Q414.3438,417.75 413.1406,417.125 Q412.1563,416.625 411.4688,415.5625 Q410.7813,414.4844 410.7813,413.2031 L410.7813,412.0469 Q410.7813,410.7188 411.3906,409.5781 Q412.0156,408.4219 413.1094,407.8125 Q414.2031,407.1875 415.4375,407.1875 Q416.1719,407.1875 416.8125,407.3594 Q417.4688,407.5156 418.0156,407.875 Z " fill="#000000"/><text fill="#000000" font-family="sans-serif" font-size="14" lengthAdjust="spacing" textLength="35" x="435.75" y="417.7285">Entity</text><line style="stroke:#181818;stroke-width:0.5;" x1="296.5" x2="577.5" y1="428" y2="428"/><ellipse cx="306.5" cy="439" fill="none" rx="3" ry="3" style="stroke:#038048;stroke-width:1.0;"/><text fill="#000000" font-family="sans-serif" font-size="14" lengthAdjust="spacing" textLength="208" x="315.5" y="446.5332">ID uuid.UUID `gorm:"primarykey"`</text><line style="stroke:#181818;stroke-width:1.0;" x1="296.5" x2="577.5" y1="453.6094" y2="453.6094"/><ellipse cx="306.5" cy="464.6094" fill="none" rx="3" ry="3" style="stroke:#038048;stroke-width:1.0;"/><text fill="#000000" font-family="sans-serif" font-size="14" lengthAdjust="spacing" textLength="222" x="315.5" y="472.1426">CreatedAt time.Time `gorm:"index"`</text><line style="stroke:#181818;stroke-width:1.0;" x1="296.5" x2="577.5" y1="479.2188" y2="479.2188"/><ellipse cx="306.5" cy="490.2188" fill="none" rx="3" ry="3" style="stroke:#038048;stroke-width:1.0;"/><text fill="#000000" font-family="sans-serif" font-size="14" lengthAdjust="spacing" textLength="224" x="315.5" y="497.752">UpdatedAt time.Time `gorm:"index"`</text><line style="stroke:#181818;stroke-width:1.0;" x1="296.5" x2="577.5" y1="504.8281" y2="504.8281"/><ellipse cx="306.5" cy="515.8281" fill="none" rx="3" ry="3" style="stroke:#038048;stroke-width:1.0;"/><text fill="#000000" font-family="sans-serif" font-size="14" lengthAdjust="spacing" textLength="257" x="315.5" y="523.3613">DeletedAt gorm.DeletedAt `gorm:"index"`</text></g><!--MD5=[0e6027363d26940633b9df7c844e683a]
class EthernetSwitch--><g id="elem_EthernetSwitch"><rect codeLine="5" fill="#F1F1F1" height="185.6563" id="EthernetSwitch" rx="2.5" ry="2.5" style="stroke:#181818;stroke-width:0.5;" width="143" x="764.5" y="150"/><ellipse cx="787.15" cy="166" fill="#ADD1B2" rx="11" ry="11" style="stroke:#181818;stroke-width:1.0;"/><path d="M789.9156,161.875 Q790.0719,161.6563 790.2594,161.5469 Q790.4469,161.4375 790.6656,161.4375 Q791.0406,161.4375 791.275,161.7031 Q791.5094,161.9531 791.5094,162.5625 L791.5094,164.0156 Q791.5094,164.625 791.275,164.8906 Q791.0406,165.1563 790.6656,165.1563 Q790.3219,165.1563 790.1188,164.9531 Q789.9156,164.7656 789.8063,164.25 Q789.7594,163.8906 789.5719,163.7031 Q789.2438,163.3281 788.6344,163.1094 Q788.025,162.8906 787.4,162.8906 Q786.6344,162.8906 785.9938,163.2188 Q785.3688,163.5469 784.8688,164.2969 Q784.3844,165.0469 784.3844,166.0781 L784.3844,167.1719 Q784.3844,168.4063 785.275,169.2344 Q786.1656,170.0469 787.7594,170.0469 Q788.6969,170.0469 789.3531,169.7969 Q789.7438,169.6406 790.1656,169.2031 Q790.4313,168.9375 790.5719,168.8594 Q790.7281,168.7813 790.9313,168.7813 Q791.2594,168.7813 791.5094,169.0469 Q791.775,169.2969 791.775,169.6406 Q791.775,169.9844 791.4313,170.3906 Q790.9313,170.9688 790.1344,171.2969 Q789.0563,171.75 787.7594,171.75 Q786.2438,171.75 785.0406,171.125 Q784.0563,170.625 783.3688,169.5625 Q782.6813,168.4844 782.6813,167.2031 L782.6813,166.0469 Q782.6813,164.7188 783.2906,163.5781 Q783.9156,162.4219 785.0094,161.8125 Q786.1031,161.1875 787.3375,161.1875 Q788.0719,161.1875 788.7125,161.3594 Q789.3688,161.5156 789.9156,161.875 Z " fill="#000000"/><text fill="#000000" font-family="sans-serif" font-size="14" lengthAdjust="spacing" textLength="94" x="802.85" y="171.7285">EthernetSwitch</text><line style="stroke:#181818;stroke-width:0.5;" x1="765.5" x2="906.5" y1="182" y2="182"/><ellipse cx="775.5" cy="193" fill="none" rx="3" ry="3" style="stroke:#038048;stroke-width:1.0;"/><text fill="#000000" font-family="sans-serif" font-size="14" lengthAdjust="spacing" textLength="75" x="784.5" y="200.5332">Name string</text><line style="stroke:#181818;stroke-width:1.0;" x1="765.5" x2="906.5" y1="207.6094" y2="207.6094"/><ellipse cx="775.5" cy="218.6094" fill="none" rx="3" ry="3" style="stroke:#038048;stroke-width:1.0;"/><text fill="#000000" font-family="sans-serif" font-size="14" lengthAdjust="spacing" textLength="75" x="784.5" y="226.1426">Serial string</text><line style="stroke:#181818;stroke-width:1.0;" x1="765.5" x2="906.5" y1="233.2188" y2="233.2188"/><ellipse cx="775.5" cy="244.2188" fill="none" rx="3" ry="3" style="stroke:#038048;stroke-width:1.0;"/><text fill="#000000" font-family="sans-serif" font-size="14" lengthAdjust="spacing" textLength="117" x="784.5" y="251.752">SwitchModel string</text><line style="stroke:#181818;stroke-width:1.0;" x1="765.5" x2="906.5" y1="258.8281" y2="258.8281"/><ellipse cx="775.5" cy="269.8281" fill="none" rx="3" ry="3" style="stroke:#038048;stroke-width:1.0;"/><text fill="#000000" font-family="sans-serif" font-size="14" lengthAdjust="spacing" textLength="91" x="784.5" y="277.3613">Address string</text><line style="stroke:#181818;stroke-width:1.0;" x1="765.5" x2="906.5" y1="284.4375" y2="284.4375"/><ellipse cx="775.5" cy="295.4375" fill="none" rx="3" ry="3" style="stroke:#038048;stroke-width:1.0;"/><text fill="#000000" font-family="sans-serif" font-size="14" lengthAdjust="spacing" textLength="103" x="784.5" y="302.9707">Username string</text><line style="stroke:#181818;stroke-width:1.0;" x1="765.5" x2="906.5" y1="310.0469" y2="310.0469"/><ellipse cx="775.5" cy="321.0469" fill="none" rx="3" ry="3" style="stroke:#038048;stroke-width:1.0;"/><text fill="#000000" font-family="sans-serif" font-size="14" lengthAdjust="spacing" textLength="100" x="784.5" y="328.5801">Password string</text></g><path d="M571,198.5 L571,224.8516 A0,0 0 0 0 571,224.8516 L632,224.8516 A0,0 0 0 0 632,224.8516 L632,216.5 L768.5,220.4141 L632,208.5 L632,208.5 L622,198.5 L571,198.5 A0,0 0 0 0 571,198.5 " fill="#FEFFDD" style="stroke:#181818;stroke-width:0.5;"/><path d="M622,198.5 L622,208.5 L632,208.5 L622,198.5 " fill="#FEFFDD" style="stroke:#181818;stroke-width:0.5;"/><text fill="#000000" font-family="sans-serif" font-size="13" lengthAdjust="spacing" textLength="40" x="577" y="216.9951">Unique</text><path d="M571,234.8516 L571,277.5547 A0,0 0 0 0 571,277.5547 L729,277.5547 A0,0 0 0 0 729,277.5547 L729,260.2031 L768.5,271.6328 L729,252.2031 L729,244.8516 L719,234.8516 L571,234.8516 A0,0 0 0 0 571,234.8516 " fill="#FEFFDD" style="stroke:#181818;stroke-width:0.5;"/><path d="M719,234.8516 L719,244.8516 L729,244.8516 L719,234.8516 " fill="#FEFFDD" style="stroke:#181818;stroke-width:0.5;"/><text fill="#000000" font-family="sans-serif" font-size="13" lengthAdjust="spacing" textLength="40" x="577" y="253.3467">Unique</text><text fill="#000000" font-family="sans-serif" font-size="13" lengthAdjust="spacing" textLength="137" x="577" y="269.6982">Ip address of the switch</text><!--MD5=[a0c76383944e982ee35488825d35b1c9]
class EthernetSwitchPort--><g id="elem_EthernetSwitchPort"><rect codeLine="5" fill="#F1F1F1" height="108.8281" id="EthernetSwitchPort" rx="2.5" ry="2.5" style="stroke:#181818;stroke-width:0.5;" width="197" x="338.5" y="188.5"/><ellipse cx="373.75" cy="204.5" fill="#ADD1B2" rx="11" ry="11" style="stroke:#181818;stroke-width:1.0;"/><path d="M376.5156,200.375 Q376.6719,200.1563 376.8594,200.0469 Q377.0469,199.9375 377.2656,199.9375 Q377.6406,199.9375 377.875,200.2031 Q378.1094,200.4531 378.1094,201.0625 L378.1094,202.5156 Q378.1094,203.125 377.875,203.3906 Q377.6406,203.6563 377.2656,203.6563 Q376.9219,203.6563 376.7188,203.4531 Q376.5156,203.2656 376.4063,202.75 Q376.3594,202.3906 376.1719,202.2031 Q375.8438,201.8281 375.2344,201.6094 Q374.625,201.3906 374,201.3906 Q373.2344,201.3906 372.5938,201.7188 Q371.9688,202.0469 371.4688,202.7969 Q370.9844,203.5469 370.9844,204.5781 L370.9844,205.6719 Q370.9844,206.9063 371.875,207.7344 Q372.7656,208.5469 374.3594,208.5469 Q375.2969,208.5469 375.9531,208.2969 Q376.3438,208.1406 376.7656,207.7031 Q377.0313,207.4375 377.1719,207.3594 Q377.3281,207.2813 377.5313,207.2813 Q377.8594,207.2813 378.1094,207.5469 Q378.375,207.7969 378.375,208.1406 Q378.375,208.4844 378.0313,208.8906 Q377.5313,209.4688 376.7344,209.7969 Q375.6563,210.25 374.3594,210.25 Q372.8438,210.25 371.6406,209.625 Q370.6563,209.125 369.9688,208.0625 Q369.2813,206.9844 369.2813,205.7031 L369.2813,204.5469 Q369.2813,203.2188 369.8906,202.0781 Q370.5156,200.9219 371.6094,200.3125 Q372.7031,199.6875 373.9375,199.6875 Q374.6719,199.6875 375.3125,199.8594 Q375.9688,200.0156 376.5156,200.375 Z " fill="#000000"/><text fill="#000000" font-family="sans-serif" font-size="14" lengthAdjust="spacing" textLength="120" x="392.25" y="210.2285">EthernetSwitchPort</text><line style="stroke:#181818;stroke-width:0.5;" x1="339.5" x2="534.5" y1="220.5" y2="220.5"/><ellipse cx="349.5" cy="231.5" fill="none" rx="3" ry="3" style="stroke:#038048;stroke-width:1.0;"/><text fill="#000000" font-family="sans-serif" font-size="14" lengthAdjust="spacing" textLength="171" x="358.5" y="239.0332">EthernetSwitchId uuid.UUID</text><line style="stroke:#181818;stroke-width:1.0;" x1="339.5" x2="534.5" y1="246.1094" y2="246.1094"/><ellipse cx="349.5" cy="257.1094" fill="none" rx="3" ry="3" style="stroke:#038048;stroke-width:1.0;"/><text fill="#000000" font-family="sans-serif" font-size="14" lengthAdjust="spacing" textLength="100" x="358.5" y="264.6426">POEType string</text><line style="stroke:#181818;stroke-width:1.0;" x1="339.5" x2="534.5" y1="271.7188" y2="271.7188"/><ellipse cx="349.5" cy="282.7188" fill="none" rx="3" ry="3" style="stroke:#038048;stroke-width:1.0;"/><text fill="#000000" font-family="sans-serif" font-size="14" lengthAdjust="spacing" textLength="75" x="358.5" y="290.252">Name string</text></g><path d="M36.5,198.5 L36.5,241.2031 A0,0 0 0 0 36.5,241.2031 L303.5,241.2031 A0,0 0 0 0 303.5,241.2031 L303.5,223.8516 L342.5,258.9141 L303.5,215.8516 L303.5,208.5 L293.5,198.5 L36.5,198.5 A0,0 0 0 0 36.5,198.5 " fill="#FEFFDD" style="stroke:#181818;stroke-width:0.5;"/><path d="M293.5,198.5 L293.5,208.5 L303.5,208.5 L293.5,198.5 " fill="#FEFFDD" style="stroke:#181818;stroke-width:0.5;"/><text fill="#000000" font-family="sans-serif" font-size="13" lengthAdjust="spacing" textLength="83" x="42.5" y="216.9951">POE port type</text><text fill="#000000" font-family="sans-serif" font-size="13" lengthAdjust="spacing" textLength="246" x="42.5" y="233.3467">can be: "poe", "poe+", "passive24", "none"</text><path d="M36.5,251.2031 L36.5,277.5547 A0,0 0 0 0 36.5,277.5547 L186.5,277.5547 A0,0 0 0 0 186.5,277.5547 L186.5,269.2031 L342.5,284.5234 L186.5,261.2031 L186.5,261.2031 L176.5,251.2031 L36.5,251.2031 A0,0 0 0 0 36.5,251.2031 " fill="#FEFFDD" style="stroke:#181818;stroke-width:0.5;"/><path d="M176.5,251.2031 L176.5,261.2031 L186.5,261.2031 L176.5,251.2031 " fill="#FEFFDD" style="stroke:#181818;stroke-width:0.5;"/><text fill="#000000" font-family="sans-serif" font-size="13" lengthAdjust="spacing" textLength="129" x="42.5" y="269.6982">Unique within 1 switch</text><!--MD5=[27abfb56f32eefa7f07c83348fb1ee32]
class GormGenericRepository--><g id="elem_GormGenericRepository"><rect codeLine="5" fill="#F1F1F1" height="48" id="GormGenericRepository" rx="2.5" ry="2.5" style="stroke:#181818;stroke-width:0.5;" width="246" x="1184" y="590"/><ellipse cx="1199" cy="606" fill="#ADD1B2" rx="11" ry="11" style="stroke:#181818;stroke-width:1.0;"/><path d="M1201.7656,601.875 Q1201.9219,601.6563 1202.1094,601.5469 Q1202.2969,601.4375 1202.5156,601.4375 Q1202.8906,601.4375 1203.125,601.7031 Q1203.3594,601.9531 1203.3594,602.5625 L1203.3594,604.0156 Q1203.3594,604.625 1203.125,604.8906 Q1202.8906,605.1563 1202.5156,605.1563 Q1202.1719,605.1563 1201.9688,604.9531 Q1201.7656,604.7656 1201.6563,604.25 Q1201.6094,603.8906 1201.4219,603.7031 Q1201.0938,603.3281 1200.4844,603.1094 Q1199.875,602.8906 1199.25,602.8906 Q1198.4844,602.8906 1197.8438,603.2188 Q1197.2188,603.5469 1196.7188,604.2969 Q1196.2344,605.0469 1196.2344,606.0781 L1196.2344,607.1719 Q1196.2344,608.4063 1197.125,609.2344 Q1198.0156,610.0469 1199.6094,610.0469 Q1200.5469,610.0469 1201.2031,609.7969 Q1201.5938,609.6406 1202.0156,609.2031 Q1202.2813,608.9375 1202.4219,608.8594 Q1202.5781,608.7813 1202.7813,608.7813 Q1203.1094,608.7813 1203.3594,609.0469 Q1203.625,609.2969 1203.625,609.6406 Q1203.625,609.9844 1203.2813,610.3906 Q1202.7813,610.9688 1201.9844,611.2969 Q1200.9063,611.75 1199.6094,611.75 Q1198.0938,611.75 1196.8906,611.125 Q1195.9063,610.625 1195.2188,609.5625 Q1194.5313,608.4844 1194.5313,607.2031 L1194.5313,606.0469 Q1194.5313,604.7188 1195.1406,603.5781 Q1195.7656,602.4219 1196.8594,601.8125 Q1197.9531,601.1875 1199.1875,601.1875 Q1199.9219,601.1875 1200.5625,601.3594 Q1201.2188,601.5156 1201.7656,601.875 Z " fill="#000000"/><text fill="#000000" font-family="sans-serif" font-size="14" lengthAdjust="spacing" textLength="153" x="1213" y="611.7285">GormGenericRepository</text><rect fill="#FFFFFF" height="17.0938" style="stroke:#000000;stroke-width:1.0;stroke-dasharray:2.0,2.0;" width="59" x="1374" y="587"/><text fill="#000000" font-family="sans-serif" font-size="12" font-style="italic" lengthAdjust="spacing" textLength="57" x="1375" y="600.457">EntityType</text><line style="stroke:#181818;stroke-width:0.5;" x1="1185" x2="1429" y1="622" y2="622"/><line style="stroke:#181818;stroke-width:0.5;" x1="1185" x2="1429" y1="630" y2="630"/></g><!--MD5=[44d95913ec2b3ba897526465ba0cec4b]
class EthernetSwitchRepository--><g id="elem_EthernetSwitchRepository"><rect codeLine="6" fill="#F1F1F1" height="48" id="EthernetSwitchRepository" rx="2.5" ry="2.5" style="stroke:#181818;stroke-width:0.5;" width="194" x="1282" y="219"/><ellipse cx="1297" cy="235" fill="#ADD1B2" rx="11" ry="11" style="stroke:#181818;stroke-width:1.0;"/><path d="M1299.7656,230.875 Q1299.9219,230.6563 1300.1094,230.5469 Q1300.2969,230.4375 1300.5156,230.4375 Q1300.8906,230.4375 1301.125,230.7031 Q1301.3594,230.9531 1301.3594,231.5625 L1301.3594,233.0156 Q1301.3594,233.625 1301.125,233.8906 Q1300.8906,234.1563 1300.5156,234.1563 Q1300.1719,234.1563 1299.9688,233.9531 Q1299.7656,233.7656 1299.6563,233.25 Q1299.6094,232.8906 1299.4219,232.7031 Q1299.0938,232.3281 1298.4844,232.1094 Q1297.875,231.8906 1297.25,231.8906 Q1296.4844,231.8906 1295.8438,232.2188 Q1295.2188,232.5469 1294.7188,233.2969 Q1294.2344,234.0469 1294.2344,235.0781 L1294.2344,236.1719 Q1294.2344,237.4063 1295.125,238.2344 Q1296.0156,239.0469 1297.6094,239.0469 Q1298.5469,239.0469 1299.2031,238.7969 Q1299.5938,238.6406 1300.0156,238.2031 Q1300.2813,237.9375 1300.4219,237.8594 Q1300.5781,237.7813 1300.7813,237.7813 Q1301.1094,237.7813 1301.3594,238.0469 Q1301.625,238.2969 1301.625,238.6406 Q1301.625,238.9844 1301.2813,239.3906 Q1300.7813,239.9688 1299.9844,240.2969 Q1298.9063,240.75 1297.6094,240.75 Q1296.0938,240.75 1294.8906,240.125 Q1293.9063,239.625 1293.2188,238.5625 Q1292.5313,237.4844 1292.5313,236.2031 L1292.5313,235.0469 Q1292.5313,233.7188 1293.1406,232.5781 Q1293.7656,231.4219 1294.8594,230.8125 Q1295.9531,230.1875 1297.1875,230.1875 Q1297.9219,230.1875 1298.5625,230.3594 Q1299.2188,230.5156 1299.7656,230.875 Z " fill="#000000"/><text fill="#000000" font-family="sans-serif" font-size="14" lengthAdjust="spacing" textLength="162" x="1311" y="240.7285">EthernetSwitchRepository</text><line style="stroke:#181818;stroke-width:0.5;" x1="1283" x2="1475" y1="251" y2="251"/><line style="stroke:#181818;stroke-width:0.5;" x1="1283" x2="1475" y1="259" y2="259"/></g><g id="elem_EthernetSwitchTypeNote"><path d="M1212.5,450 L1212.5,476.3516 L1401.5,476.3516 L1401.5,460 L1391.5,450 L1212.5,450 " fill="#FEFFDD" style="stroke:#181818;stroke-width:0.5;"/><path d="M1391.5,450 L1391.5,460 L1401.5,460 L1391.5,450 " fill="#FEFFDD" style="stroke:#181818;stroke-width:1.0;"/><text fill="#000000" font-family="sans-serif" font-size="13" lengthAdjust="spacing" textLength="168" x="1218.5" y="468.4951">EntityType is EthernetSwitch</text></g><!--MD5=[08ca7a30bf9989fb15c0f21009c8ae57]
class EthernetSwitchPortRepository--><g id="elem_EthernetSwitchPortRepository"><rect codeLine="6" fill="#F1F1F1" height="48" id="EthernetSwitchPortRepository" rx="2.5" ry="2.5" style="stroke:#181818;stroke-width:0.5;" width="220" x="1196" y="42"/><ellipse cx="1211" cy="58" fill="#ADD1B2" rx="11" ry="11" style="stroke:#181818;stroke-width:1.0;"/><path d="M1213.7656,53.875 Q1213.9219,53.6563 1214.1094,53.5469 Q1214.2969,53.4375 1214.5156,53.4375 Q1214.8906,53.4375 1215.125,53.7031 Q1215.3594,53.9531 1215.3594,54.5625 L1215.3594,56.0156 Q1215.3594,56.625 1215.125,56.8906 Q1214.8906,57.1563 1214.5156,57.1563 Q1214.1719,57.1563 1213.9688,56.9531 Q1213.7656,56.7656 1213.6563,56.25 Q1213.6094,55.8906 1213.4219,55.7031 Q1213.0938,55.3281 1212.4844,55.1094 Q1211.875,54.8906 1211.25,54.8906 Q1210.4844,54.8906 1209.8438,55.2188 Q1209.2188,55.5469 1208.7188,56.2969 Q1208.2344,57.0469 1208.2344,58.0781 L1208.2344,59.1719 Q1208.2344,60.4063 1209.125,61.2344 Q1210.0156,62.0469 1211.6094,62.0469 Q1212.5469,62.0469 1213.2031,61.7969 Q1213.5938,61.6406 1214.0156,61.2031 Q1214.2813,60.9375 1214.4219,60.8594 Q1214.5781,60.7813 1214.7813,60.7813 Q1215.1094,60.7813 1215.3594,61.0469 Q1215.625,61.2969 1215.625,61.6406 Q1215.625,61.9844 1215.2813,62.3906 Q1214.7813,62.9688 1213.9844,63.2969 Q1212.9063,63.75 1211.6094,63.75 Q1210.0938,63.75 1208.8906,63.125 Q1207.9063,62.625 1207.2188,61.5625 Q1206.5313,60.4844 1206.5313,59.2031 L1206.5313,58.0469 Q1206.5313,56.7188 1207.1406,55.5781 Q1207.7656,54.4219 1208.8594,53.8125 Q1209.9531,53.1875 1211.1875,53.1875 Q1211.9219,53.1875 1212.5625,53.3594 Q1213.2188,53.5156 1213.7656,53.875 Z " fill="#000000"/><text fill="#000000" font-family="sans-serif" font-size="14" lengthAdjust="spacing" textLength="188" x="1225" y="63.7285">EthernetSwitchPortRepository</text><line style="stroke:#181818;stroke-width:0.5;" x1="1197" x2="1415" y1="74" y2="74"/><line style="stroke:#181818;stroke-width:0.5;" x1="1197" x2="1415" y1="82" y2="82"/></g><g id="elem_EthernetSwitchPortTypeNote"><path d="M964.5,450 L964.5,476.3516 L1177.5,476.3516 L1177.5,460 L1167.5,450 L964.5,450 " fill="#FEFFDD" style="stroke:#181818;stroke-width:0.5;"/><path d="M1167.5,450 L1167.5,460 L1177.5,460 L1167.5,450 " fill="#FEFFDD" style="stroke:#181818;stroke-width:1.0;"/><text fill="#000000" font-family="sans-serif" font-size="13" lengthAdjust="spacing" textLength="192" x="970.5" y="468.4951">EntityType is EthernetSwitchPort</text></g><!--MD5=[4f15965369cf1e2d28449fc0d2ee4583]
class EthernetSwitchBaseDto--><g id="elem_EthernetSwitchBaseDto"><rect codeLine="3" fill="#F1F1F1" height="160.0469" id="EthernetSwitchBaseDto" rx="2.5" ry="2.5" style="stroke:#181818;stroke-width:0.5;" width="180" x="3027" y="1745"/><ellipse cx="3042" cy="1761" fill="#ADD1B2" rx="11" ry="11" style="stroke:#181818;stroke-width:1.0;"/><path d="M3044.7656,1756.875 Q3044.9219,1756.6563 3045.1094,1756.5469 Q3045.2969,1756.4375 3045.5156,1756.4375 Q3045.8906,1756.4375 3046.125,1756.7031 Q3046.3594,1756.9531 3046.3594,1757.5625 L3046.3594,1759.0156 Q3046.3594,1759.625 3046.125,1759.8906 Q3045.8906,1760.1563 3045.5156,1760.1563 Q3045.1719,1760.1563 3044.9688,1759.9531 Q3044.7656,1759.7656 3044.6563,1759.25 Q3044.6094,1758.8906 3044.4219,1758.7031 Q3044.0938,1758.3281 3043.4844,1758.1094 Q3042.875,1757.8906 3042.25,1757.8906 Q3041.4844,1757.8906 3040.8438,1758.2188 Q3040.2188,1758.5469 3039.7188,1759.2969 Q3039.2344,1760.0469 3039.2344,1761.0781 L3039.2344,1762.1719 Q3039.2344,1763.4063 3040.125,1764.2344 Q3041.0156,1765.0469 3042.6094,1765.0469 Q3043.5469,1765.0469 3044.2031,1764.7969 Q3044.5938,1764.6406 3045.0156,1764.2031 Q3045.2813,1763.9375 3045.4219,1763.8594 Q3045.5781,1763.7813 3045.7813,1763.7813 Q3046.1094,1763.7813 3046.3594,1764.0469 Q3046.625,1764.2969 3046.625,1764.6406 Q3046.625,1764.9844 3046.2813,1765.3906 Q3045.7813,1765.9688 3044.9844,1766.2969 Q3043.9063,1766.75 3042.6094,1766.75 Q3041.0938,1766.75 3039.8906,1766.125 Q3038.9063,1765.625 3038.2188,1764.5625 Q3037.5313,1763.4844 3037.5313,1762.2031 L3037.5313,1761.0469 Q3037.5313,1759.7188 3038.1406,1758.5781 Q3038.7656,1757.4219 3039.8594,1756.8125 Q3040.9531,1756.1875 3042.1875,1756.1875 Q3042.9219,1756.1875 3043.5625,1756.3594 Q3044.2188,1756.5156 3044.7656,1756.875 Z " fill="#000000"/><text fill="#000000" font-family="sans-serif" font-size="14" lengthAdjust="spacing" textLength="148" x="3056" y="1766.7285">EthernetSwitchBaseDto</text><line style="stroke:#181818;stroke-width:0.5;" x1="3028" x2="3206" y1="1777" y2="1777"/><ellipse cx="3038" cy="1788" fill="none" rx="3" ry="3" style="stroke:#038048;stroke-width:1.0;"/><text fill="#000000" font-family="sans-serif" font-size="14" lengthAdjust="spacing" textLength="75" x="3047" y="1795.5332">Name string</text><line style="stroke:#181818;stroke-width:1.0;" x1="3028" x2="3206" y1="1802.6094" y2="1802.6094"/><ellipse cx="3038" cy="1813.6094" fill="none" rx="3" ry="3" style="stroke:#038048;stroke-width:1.0;"/><text fill="#000000" font-family="sans-serif" font-size="14" lengthAdjust="spacing" textLength="75" x="3047" y="1821.1426">Serial string</text><line style="stroke:#181818;stroke-width:1.0;" x1="3028" x2="3206" y1="1828.2188" y2="1828.2188"/><ellipse cx="3038" cy="1839.2188" fill="none" rx="3" ry="3" style="stroke:#038048;stroke-width:1.0;"/><text fill="#000000" font-family="sans-serif" font-size="14" lengthAdjust="spacing" textLength="117" x="3047" y="1846.752">SwitchModel string</text><line style="stroke:#181818;stroke-width:1.0;" x1="3028" x2="3206" y1="1853.8281" y2="1853.8281"/><ellipse cx="3038" cy="1864.8281" fill="none" rx="3" ry="3" style="stroke:#038048;stroke-width:1.0;"/><text fill="#000000" font-family="sans-serif" font-size="14" lengthAdjust="spacing" textLength="91" x="3047" y="1872.3613">Address string</text><line style="stroke:#181818;stroke-width:1.0;" x1="3028" x2="3206" y1="1879.4375" y2="1879.4375"/><ellipse cx="3038" cy="1890.4375" fill="none" rx="3" ry="3" style="stroke:#038048;stroke-width:1.0;"/><text fill="#000000" font-family="sans-serif" font-size="14" lengthAdjust="spacing" textLength="103" x="3047" y="1897.9707">Username string</text></g><!--MD5=[b5f51fede5412d5c08046421531bde8a]
class EthernetSwitchCreateDto--><g id="elem_EthernetSwitchCreateDto"><rect codeLine="5" fill="#F1F1F1" height="65.6094" id="EthernetSwitchCreateDto" rx="2.5" ry="2.5" style="stroke:#181818;stroke-width:0.5;" width="191" x="3248.5" y="1561"/><ellipse cx="3263.5" cy="1577" fill="#ADD1B2" rx="11" ry="11" style="stroke:#181818;stroke-width:1.0;"/><path d="M3266.2656,1572.875 Q3266.4219,1572.6563 3266.6094,1572.5469 Q3266.7969,1572.4375 3267.0156,1572.4375 Q3267.3906,1572.4375 3267.625,1572.7031 Q3267.8594,1572.9531 3267.8594,1573.5625 L3267.8594,1575.0156 Q3267.8594,1575.625 3267.625,1575.8906 Q3267.3906,1576.1563 3267.0156,1576.1563 Q3266.6719,1576.1563 3266.4688,1575.9531 Q3266.2656,1575.7656 3266.1563,1575.25 Q3266.1094,1574.8906 3265.9219,1574.7031 Q3265.5938,1574.3281 3264.9844,1574.1094 Q3264.375,1573.8906 3263.75,1573.8906 Q3262.9844,1573.8906 3262.3438,1574.2188 Q3261.7188,1574.5469 3261.2188,1575.2969 Q3260.7344,1576.0469 3260.7344,1577.0781 L3260.7344,1578.1719 Q3260.7344,1579.4063 3261.625,1580.2344 Q3262.5156,1581.0469 3264.1094,1581.0469 Q3265.0469,1581.0469 3265.7031,1580.7969 Q3266.0938,1580.6406 3266.5156,1580.2031 Q3266.7813,1579.9375 3266.9219,1579.8594 Q3267.0781,1579.7813 3267.2813,1579.7813 Q3267.6094,1579.7813 3267.8594,1580.0469 Q3268.125,1580.2969 3268.125,1580.6406 Q3268.125,1580.9844 3267.7813,1581.3906 Q3267.2813,1581.9688 3266.4844,1582.2969 Q3265.4063,1582.75 3264.1094,1582.75 Q3262.5938,1582.75 3261.3906,1582.125 Q3260.4063,1581.625 3259.7188,1580.5625 Q3259.0313,1579.4844 3259.0313,1578.2031 L3259.0313,1577.0469 Q3259.0313,1575.7188 3259.6406,1574.5781 Q3260.2656,1573.4219 3261.3594,1572.8125 Q3262.4531,1572.1875 3263.6875,1572.1875 Q3264.4219,1572.1875 3265.0625,1572.3594 Q3265.7188,1572.5156 3266.2656,1572.875 Z " fill="#000000"/><text fill="#000000" font-family="sans-serif" font-size="14" lengthAdjust="spacing" textLength="159" x="3277.5" y="1582.7285">EthernetSwitchCreateDto</text><line style="stroke:#181818;stroke-width:0.5;" x1="3249.5" x2="3438.5" y1="1593" y2="1593"/><ellipse cx="3259.5" cy="1604" fill="none" rx="3" ry="3" style="stroke:#038048;stroke-width:1.0;"/><text fill="#000000" font-family="sans-serif" font-size="14" lengthAdjust="spacing" textLength="100" x="3268.5" y="1611.5332">Password string</text><line style="stroke:#181818;stroke-width:0.5;" x1="3249.5" x2="3438.5" y1="1618.6094" y2="1618.6094"/></g><!--MD5=[c34e1a9004d5b1340cd98967367dc0c0]
class EthernetSwitchUpdateDto--><g id="elem_EthernetSwitchUpdateDto"><rect codeLine="5" fill="#F1F1F1" height="65.6094" id="EthernetSwitchUpdateDto" rx="2.5" ry="2.5" style="stroke:#181818;stroke-width:0.5;" width="193" x="3020.5" y="1561"/><ellipse cx="3035.5" cy="1577" fill="#ADD1B2" rx="11" ry="11" style="stroke:#181818;stroke-width:1.0;"/><path d="M3038.2656,1572.875 Q3038.4219,1572.6563 3038.6094,1572.5469 Q3038.7969,1572.4375 3039.0156,1572.4375 Q3039.3906,1572.4375 3039.625,1572.7031 Q3039.8594,1572.9531 3039.8594,1573.5625 L3039.8594,1575.0156 Q3039.8594,1575.625 3039.625,1575.8906 Q3039.3906,1576.1563 3039.0156,1576.1563 Q3038.6719,1576.1563 3038.4688,1575.9531 Q3038.2656,1575.7656 3038.1563,1575.25 Q3038.1094,1574.8906 3037.9219,1574.7031 Q3037.5938,1574.3281 3036.9844,1574.1094 Q3036.375,1573.8906 3035.75,1573.8906 Q3034.9844,1573.8906 3034.3438,1574.2188 Q3033.7188,1574.5469 3033.2188,1575.2969 Q3032.7344,1576.0469 3032.7344,1577.0781 L3032.7344,1578.1719 Q3032.7344,1579.4063 3033.625,1580.2344 Q3034.5156,1581.0469 3036.1094,1581.0469 Q3037.0469,1581.0469 3037.7031,1580.7969 Q3038.0938,1580.6406 3038.5156,1580.2031 Q3038.7813,1579.9375 3038.9219,1579.8594 Q3039.0781,1579.7813 3039.2813,1579.7813 Q3039.6094,1579.7813 3039.8594,1580.0469 Q3040.125,1580.2969 3040.125,1580.6406 Q3040.125,1580.9844 3039.7813,1581.3906 Q3039.2813,1581.9688 3038.4844,1582.2969 Q3037.4063,1582.75 3036.1094,1582.75 Q3034.5938,1582.75 3033.3906,1582.125 Q3032.4063,1581.625 3031.7188,1580.5625 Q3031.0313,1579.4844 3031.0313,1578.2031 L3031.0313,1577.0469 Q3031.0313,1575.7188 3031.6406,1574.5781 Q3032.2656,1573.4219 3033.3594,1572.8125 Q3034.4531,1572.1875 3035.6875,1572.1875 Q3036.4219,1572.1875 3037.0625,1572.3594 Q3037.7188,1572.5156 3038.2656,1572.875 Z " fill="#000000"/><text fill="#000000" font-family="sans-serif" font-size="14" lengthAdjust="spacing" textLength="161" x="3049.5" y="1582.7285">EthernetSwitchUpdateDto</text><line style="stroke:#181818;stroke-width:0.5;" x1="3021.5" x2="3212.5" y1="1593" y2="1593"/><ellipse cx="3031.5" cy="1604" fill="none" rx="3" ry="3" style="stroke:#038048;stroke-width:1.0;"/><text fill="#000000" font-family="sans-serif" font-size="14" lengthAdjust="spacing" textLength="100" x="3040.5" y="1611.5332">Password string</text><line style="stroke:#181818;stroke-width:0.5;" x1="3021.5" x2="3212.5" y1="1618.6094" y2="1618.6094"/></g><!--MD5=[a203eca1f0769929ae1344e0135bff6b]
class BaseDto--><g id="elem_BaseDto"><rect codeLine="3" fill="#F1F1F1" height="108.8281" id="BaseDto" rx="2.5" ry="2.5" style="stroke:#181818;stroke-width:0.5;" width="157" x="2623.5" y="1770.5"/><ellipse cx="2670.75" cy="1786.5" fill="#ADD1B2" rx="11" ry="11" style="stroke:#181818;stroke-width:1.0;"/><path d="M2673.5156,1782.375 Q2673.6719,1782.1563 2673.8594,1782.0469 Q2674.0469,1781.9375 2674.2656,1781.9375 Q2674.6406,1781.9375 2674.875,1782.2031 Q2675.1094,1782.4531 2675.1094,1783.0625 L2675.1094,1784.5156 Q2675.1094,1785.125 2674.875,1785.3906 Q2674.6406,1785.6563 2674.2656,1785.6563 Q2673.9219,1785.6563 2673.7188,1785.4531 Q2673.5156,1785.2656 2673.4063,1784.75 Q2673.3594,1784.3906 2673.1719,1784.2031 Q2672.8438,1783.8281 2672.2344,1783.6094 Q2671.625,1783.3906 2671,1783.3906 Q2670.2344,1783.3906 2669.5938,1783.7188 Q2668.9688,1784.0469 2668.4688,1784.7969 Q2667.9844,1785.5469 2667.9844,1786.5781 L2667.9844,1787.6719 Q2667.9844,1788.9063 2668.875,1789.7344 Q2669.7656,1790.5469 2671.3594,1790.5469 Q2672.2969,1790.5469 2672.9531,1790.2969 Q2673.3438,1790.1406 2673.7656,1789.7031 Q2674.0313,1789.4375 2674.1719,1789.3594 Q2674.3281,1789.2813 2674.5313,1789.2813 Q2674.8594,1789.2813 2675.1094,1789.5469 Q2675.375,1789.7969 2675.375,1790.1406 Q2675.375,1790.4844 2675.0313,1790.8906 Q2674.5313,1791.4688 2673.7344,1791.7969 Q2672.6563,1792.25 2671.3594,1792.25 Q2669.8438,1792.25 2668.6406,1791.625 Q2667.6563,1791.125 2666.9688,1790.0625 Q2666.2813,1788.9844 2666.2813,1787.7031 L2666.2813,1786.5469 Q2666.2813,1785.2188 2666.8906,1784.0781 Q2667.5156,1782.9219 2668.6094,1782.3125 Q2669.7031,1781.6875 2670.9375,1781.6875 Q2671.6719,1781.6875 2672.3125,1781.8594 Q2672.9688,1782.0156 2673.5156,1782.375 Z " fill="#000000"/><text fill="#000000" font-family="sans-serif" font-size="14" lengthAdjust="spacing" textLength="54" x="2691.25" y="1792.2285">BaseDto</text><line style="stroke:#181818;stroke-width:0.5;" x1="2624.5" x2="2779.5" y1="1802.5" y2="1802.5"/><ellipse cx="2634.5" cy="1813.5" fill="none" rx="3" ry="3" style="stroke:#038048;stroke-width:1.0;"/><text fill="#000000" font-family="sans-serif" font-size="14" lengthAdjust="spacing" textLength="79" x="2643.5" y="1821.0332">ID uuid.UUID</text><line style="stroke:#181818;stroke-width:1.0;" x1="2624.5" x2="2779.5" y1="1828.1094" y2="1828.1094"/><ellipse cx="2634.5" cy="1839.1094" fill="none" rx="3" ry="3" style="stroke:#038048;stroke-width:1.0;"/><text fill="#000000" font-family="sans-serif" font-size="14" lengthAdjust="spacing" textLength="129" x="2643.5" y="1846.6426">CreatedAt time.Time</text><line style="stroke:#181818;stroke-width:1.0;" x1="2624.5" x2="2779.5" y1="1853.7188" y2="1853.7188"/><ellipse cx="2634.5" cy="1864.7188" fill="none" rx="3" ry="3" style="stroke:#038048;stroke-width:1.0;"/><text fill="#000000" font-family="sans-serif" font-size="14" lengthAdjust="spacing" textLength="131" x="2643.5" y="1872.252">UpdatedAt time.Time</text></g><!--MD5=[b580cc5ff93fe4dac06272a8d0848e45]
class EthernetSwitchDto--><g id="elem_EthernetSwitchDto"><rect codeLine="6" fill="#F1F1F1" height="48" id="EthernetSwitchDto" rx="2.5" ry="2.5" style="stroke:#181818;stroke-width:0.5;" width="148" x="2837" y="1570"/><ellipse cx="2852" cy="1586" fill="#ADD1B2" rx="11" ry="11" style="stroke:#181818;stroke-width:1.0;"/><path d="M2854.7656,1581.875 Q2854.9219,1581.6563 2855.1094,1581.5469 Q2855.2969,1581.4375 2855.5156,1581.4375 Q2855.8906,1581.4375 2856.125,1581.7031 Q2856.3594,1581.9531 2856.3594,1582.5625 L2856.3594,1584.0156 Q2856.3594,1584.625 2856.125,1584.8906 Q2855.8906,1585.1563 2855.5156,1585.1563 Q2855.1719,1585.1563 2854.9688,1584.9531 Q2854.7656,1584.7656 2854.6563,1584.25 Q2854.6094,1583.8906 2854.4219,1583.7031 Q2854.0938,1583.3281 2853.4844,1583.1094 Q2852.875,1582.8906 2852.25,1582.8906 Q2851.4844,1582.8906 2850.8438,1583.2188 Q2850.2188,1583.5469 2849.7188,1584.2969 Q2849.2344,1585.0469 2849.2344,1586.0781 L2849.2344,1587.1719 Q2849.2344,1588.4063 2850.125,1589.2344 Q2851.0156,1590.0469 2852.6094,1590.0469 Q2853.5469,1590.0469 2854.2031,1589.7969 Q2854.5938,1589.6406 2855.0156,1589.2031 Q2855.2813,1588.9375 2855.4219,1588.8594 Q2855.5781,1588.7813 2855.7813,1588.7813 Q2856.1094,1588.7813 2856.3594,1589.0469 Q2856.625,1589.2969 2856.625,1589.6406 Q2856.625,1589.9844 2856.2813,1590.3906 Q2855.7813,1590.9688 2854.9844,1591.2969 Q2853.9063,1591.75 2852.6094,1591.75 Q2851.0938,1591.75 2849.8906,1591.125 Q2848.9063,1590.625 2848.2188,1589.5625 Q2847.5313,1588.4844 2847.5313,1587.2031 L2847.5313,1586.0469 Q2847.5313,1584.7188 2848.1406,1583.5781 Q2848.7656,1582.4219 2849.8594,1581.8125 Q2850.9531,1581.1875 2852.1875,1581.1875 Q2852.9219,1581.1875 2853.5625,1581.3594 Q2854.2188,1581.5156 2854.7656,1581.875 Z " fill="#000000"/><text fill="#000000" font-family="sans-serif" font-size="14" lengthAdjust="spacing" textLength="116" x="2866" y="1591.7285">EthernetSwitchDto</text><line style="stroke:#181818;stroke-width:0.5;" x1="2838" x2="2984" y1="1602" y2="1602"/><line style="stroke:#181818;stroke-width:0.5;" x1="2838" x2="2984" y1="1610" y2="1610"/></g><!--MD5=[bbce04f7454f410b3cc381ebd1a304a3]
class EthernetSwitchModelDto--><g id="elem_EthernetSwitchModelDto"><rect codeLine="3" fill="#F1F1F1" height="108.8281" id="EthernetSwitchModelDto" rx="2.5" ry="2.5" style="stroke:#181818;stroke-width:0.5;" width="186" x="2616" y="1539.5"/><ellipse cx="2631" cy="1555.5" fill="#ADD1B2" rx="11" ry="11" style="stroke:#181818;stroke-width:1.0;"/><path d="M2633.7656,1551.375 Q2633.9219,1551.1563 2634.1094,1551.0469 Q2634.2969,1550.9375 2634.5156,1550.9375 Q2634.8906,1550.9375 2635.125,1551.2031 Q2635.3594,1551.4531 2635.3594,1552.0625 L2635.3594,1553.5156 Q2635.3594,1554.125 2635.125,1554.3906 Q2634.8906,1554.6563 2634.5156,1554.6563 Q2634.1719,1554.6563 2633.9688,1554.4531 Q2633.7656,1554.2656 2633.6563,1553.75 Q2633.6094,1553.3906 2633.4219,1553.2031 Q2633.0938,1552.8281 2632.4844,1552.6094 Q2631.875,1552.3906 2631.25,1552.3906 Q2630.4844,1552.3906 2629.8438,1552.7188 Q2629.2188,1553.0469 2628.7188,1553.7969 Q2628.2344,1554.5469 2628.2344,1555.5781 L2628.2344,1556.6719 Q2628.2344,1557.9063 2629.125,1558.7344 Q2630.0156,1559.5469 2631.6094,1559.5469 Q2632.5469,1559.5469 2633.2031,1559.2969 Q2633.5938,1559.1406 2634.0156,1558.7031 Q2634.2813,1558.4375 2634.4219,1558.3594 Q2634.5781,1558.2813 2634.7813,1558.2813 Q2635.1094,1558.2813 2635.3594,1558.5469 Q2635.625,1558.7969 2635.625,1559.1406 Q2635.625,1559.4844 2635.2813,1559.8906 Q2634.7813,1560.4688 2633.9844,1560.7969 Q2632.9063,1561.25 2631.6094,1561.25 Q2630.0938,1561.25 2628.8906,1560.625 Q2627.9063,1560.125 2627.2188,1559.0625 Q2626.5313,1557.9844 2626.5313,1556.7031 L2626.5313,1555.5469 Q2626.5313,1554.2188 2627.1406,1553.0781 Q2627.7656,1551.9219 2628.8594,1551.3125 Q2629.9531,1550.6875 2631.1875,1550.6875 Q2631.9219,1550.6875 2632.5625,1550.8594 Q2633.2188,1551.0156 2633.7656,1551.375 Z " fill="#000000"/><text fill="#000000" font-family="sans-serif" font-size="14" lengthAdjust="spacing" textLength="154" x="2645" y="1561.2285">EthernetSwitchModelDto</text><line style="stroke:#181818;stroke-width:0.5;" x1="2617" x2="2801" y1="1571.5" y2="1571.5"/><ellipse cx="2627" cy="1582.5" fill="none" rx="3" ry="3" style="stroke:#038048;stroke-width:1.0;"/><text fill="#000000" font-family="sans-serif" font-size="14" lengthAdjust="spacing" textLength="73" x="2636" y="1590.0332">Code string</text><line style="stroke:#181818;stroke-width:1.0;" x1="2617" x2="2801" y1="1597.1094" y2="1597.1094"/><ellipse cx="2627" cy="1608.1094" fill="none" rx="3" ry="3" style="stroke:#038048;stroke-width:1.0;"/><text fill="#000000" font-family="sans-serif" font-size="14" lengthAdjust="spacing" textLength="123" x="2636" y="1615.6426">Manufacturer string</text><line style="stroke:#181818;stroke-width:1.0;" x1="2617" x2="2801" y1="1622.7188" y2="1622.7188"/><ellipse cx="2627" cy="1633.7188" fill="none" rx="3" ry="3" style="stroke:#038048;stroke-width:1.0;"/><text fill="#000000" font-family="sans-serif" font-size="14" lengthAdjust="spacing" textLength="77" x="2636" y="1641.252">Model string</text></g><!--MD5=[ab50d7b8d52645a88dbd59d4662cb3d5]
class EthernetSwitchPortBaseDto--><g id="elem_EthernetSwitchPortBaseDto"><rect codeLine="3" fill="#F1F1F1" height="83.2188" id="EthernetSwitchPortBaseDto" rx="2.5" ry="2.5" style="stroke:#181818;stroke-width:0.5;" width="206" x="2160" y="1783.5"/><ellipse cx="2175" cy="1799.5" fill="#ADD1B2" rx="11" ry="11" style="stroke:#181818;stroke-width:1.0;"/><path d="M2177.7656,1795.375 Q2177.9219,1795.1563 2178.1094,1795.0469 Q2178.2969,1794.9375 2178.5156,1794.9375 Q2178.8906,1794.9375 2179.125,1795.2031 Q2179.3594,1795.4531 2179.3594,1796.0625 L2179.3594,1797.5156 Q2179.3594,1798.125 2179.125,1798.3906 Q2178.8906,1798.6563 2178.5156,1798.6563 Q2178.1719,1798.6563 2177.9688,1798.4531 Q2177.7656,1798.2656 2177.6563,1797.75 Q2177.6094,1797.3906 2177.4219,1797.2031 Q2177.0938,1796.8281 2176.4844,1796.6094 Q2175.875,1796.3906 2175.25,1796.3906 Q2174.4844,1796.3906 2173.8438,1796.7188 Q2173.2188,1797.0469 2172.7188,1797.7969 Q2172.2344,1798.5469 2172.2344,1799.5781 L2172.2344,1800.6719 Q2172.2344,1801.9063 2173.125,1802.7344 Q2174.0156,1803.5469 2175.6094,1803.5469 Q2176.5469,1803.5469 2177.2031,1803.2969 Q2177.5938,1803.1406 2178.0156,1802.7031 Q2178.2813,1802.4375 2178.4219,1802.3594 Q2178.5781,1802.2813 2178.7813,1802.2813 Q2179.1094,1802.2813 2179.3594,1802.5469 Q2179.625,1802.7969 2179.625,1803.1406 Q2179.625,1803.4844 2179.2813,1803.8906 Q2178.7813,1804.4688 2177.9844,1804.7969 Q2176.9063,1805.25 2175.6094,1805.25 Q2174.0938,1805.25 2172.8906,1804.625 Q2171.9063,1804.125 2171.2188,1803.0625 Q2170.5313,1801.9844 2170.5313,1800.7031 L2170.5313,1799.5469 Q2170.5313,1798.2188 2171.1406,1797.0781 Q2171.7656,1795.9219 2172.8594,1795.3125 Q2173.9531,1794.6875 2175.1875,1794.6875 Q2175.9219,1794.6875 2176.5625,1794.8594 Q2177.2188,1795.0156 2177.7656,1795.375 Z " fill="#000000"/><text fill="#000000" font-family="sans-serif" font-size="14" lengthAdjust="spacing" textLength="174" x="2189" y="1805.2285">EthernetSwitchPortBaseDto</text><line style="stroke:#181818;stroke-width:0.5;" x1="2161" x2="2365" y1="1815.5" y2="1815.5"/><ellipse cx="2171" cy="1826.5" fill="none" rx="3" ry="3" style="stroke:#038048;stroke-width:1.0;"/><text fill="#000000" font-family="sans-serif" font-size="14" lengthAdjust="spacing" textLength="100" x="2180" y="1834.0332">POEType string</text><line style="stroke:#181818;stroke-width:1.0;" x1="2161" x2="2365" y1="1841.1094" y2="1841.1094"/><ellipse cx="2171" cy="1852.1094" fill="none" rx="3" ry="3" style="stroke:#038048;stroke-width:1.0;"/><text fill="#000000" font-family="sans-serif" font-size="14" lengthAdjust="spacing" textLength="75" x="2180" y="1859.6426">Name string</text></g><!--MD5=[67cf17d19949dc16e4e1206335fb789d]
class EthernetSwitchPortCreateDto--><g id="elem_EthernetSwitchPortCreateDto"><rect codeLine="5" fill="#F1F1F1" height="48" id="EthernetSwitchPortCreateDto" rx="2.5" ry="2.5" style="stroke:#181818;stroke-width:0.5;" width="217" x="2154.5" y="1570"/><ellipse cx="2169.5" cy="1586" fill="#ADD1B2" rx="11" ry="11" style="stroke:#181818;stroke-width:1.0;"/><path d="M2172.2656,1581.875 Q2172.4219,1581.6563 2172.6094,1581.5469 Q2172.7969,1581.4375 2173.0156,1581.4375 Q2173.3906,1581.4375 2173.625,1581.7031 Q2173.8594,1581.9531 2173.8594,1582.5625 L2173.8594,1584.0156 Q2173.8594,1584.625 2173.625,1584.8906 Q2173.3906,1585.1563 2173.0156,1585.1563 Q2172.6719,1585.1563 2172.4688,1584.9531 Q2172.2656,1584.7656 2172.1563,1584.25 Q2172.1094,1583.8906 2171.9219,1583.7031 Q2171.5938,1583.3281 2170.9844,1583.1094 Q2170.375,1582.8906 2169.75,1582.8906 Q2168.9844,1582.8906 2168.3438,1583.2188 Q2167.7188,1583.5469 2167.2188,1584.2969 Q2166.7344,1585.0469 2166.7344,1586.0781 L2166.7344,1587.1719 Q2166.7344,1588.4063 2167.625,1589.2344 Q2168.5156,1590.0469 2170.1094,1590.0469 Q2171.0469,1590.0469 2171.7031,1589.7969 Q2172.0938,1589.6406 2172.5156,1589.2031 Q2172.7813,1588.9375 2172.9219,1588.8594 Q2173.0781,1588.7813 2173.2813,1588.7813 Q2173.6094,1588.7813 2173.8594,1589.0469 Q2174.125,1589.2969 2174.125,1589.6406 Q2174.125,1589.9844 2173.7813,1590.3906 Q2173.2813,1590.9688 2172.4844,1591.2969 Q2171.4063,1591.75 2170.1094,1591.75 Q2168.5938,1591.75 2167.3906,1591.125 Q2166.4063,1590.625 2165.7188,1589.5625 Q2165.0313,1588.4844 2165.0313,1587.2031 L2165.0313,1586.0469 Q2165.0313,1584.7188 2165.6406,1583.5781 Q2166.2656,1582.4219 2167.3594,1581.8125 Q2168.4531,1581.1875 2169.6875,1581.1875 Q2170.4219,1581.1875 2171.0625,1581.3594 Q2171.7188,1581.5156 2172.2656,1581.875 Z " fill="#000000"/><text fill="#000000" font-family="sans-serif" font-size="14" lengthAdjust="spacing" textLength="185" x="2183.5" y="1591.7285">EthernetSwitchPortCreateDto</text><line style="stroke:#181818;stroke-width:0.5;" x1="2155.5" x2="2370.5" y1="1602" y2="1602"/><line style="stroke:#181818;stroke-width:0.5;" x1="2155.5" x2="2370.5" y1="1610" y2="1610"/></g><!--MD5=[139f8f6c9a1355c9e9aa2a809fcec224]
class EthernetSwitchPortUpdateDto--><g id="elem_EthernetSwitchPortUpdateDto"><rect codeLine="5" fill="#F1F1F1" height="48" id="EthernetSwitchPortUpdateDto" rx="2.5" ry="2.5" style="stroke:#181818;stroke-width:0.5;" width="219" x="1900.5" y="1570"/><ellipse cx="1915.5" cy="1586" fill="#ADD1B2" rx="11" ry="11" style="stroke:#181818;stroke-width:1.0;"/><path d="M1918.2656,1581.875 Q1918.4219,1581.6563 1918.6094,1581.5469 Q1918.7969,1581.4375 1919.0156,1581.4375 Q1919.3906,1581.4375 1919.625,1581.7031 Q1919.8594,1581.9531 1919.8594,1582.5625 L1919.8594,1584.0156 Q1919.8594,1584.625 1919.625,1584.8906 Q1919.3906,1585.1563 1919.0156,1585.1563 Q1918.6719,1585.1563 1918.4688,1584.9531 Q1918.2656,1584.7656 1918.1563,1584.25 Q1918.1094,1583.8906 1917.9219,1583.7031 Q1917.5938,1583.3281 1916.9844,1583.1094 Q1916.375,1582.8906 1915.75,1582.8906 Q1914.9844,1582.8906 1914.3438,1583.2188 Q1913.7188,1583.5469 1913.2188,1584.2969 Q1912.7344,1585.0469 1912.7344,1586.0781 L1912.7344,1587.1719 Q1912.7344,1588.4063 1913.625,1589.2344 Q1914.5156,1590.0469 1916.1094,1590.0469 Q1917.0469,1590.0469 1917.7031,1589.7969 Q1918.0938,1589.6406 1918.5156,1589.2031 Q1918.7813,1588.9375 1918.9219,1588.8594 Q1919.0781,1588.7813 1919.2813,1588.7813 Q1919.6094,1588.7813 1919.8594,1589.0469 Q1920.125,1589.2969 1920.125,1589.6406 Q1920.125,1589.9844 1919.7813,1590.3906 Q1919.2813,1590.9688 1918.4844,1591.2969 Q1917.4063,1591.75 1916.1094,1591.75 Q1914.5938,1591.75 1913.3906,1591.125 Q1912.4063,1590.625 1911.7188,1589.5625 Q1911.0313,1588.4844 1911.0313,1587.2031 L1911.0313,1586.0469 Q1911.0313,1584.7188 1911.6406,1583.5781 Q1912.2656,1582.4219 1913.3594,1581.8125 Q1914.4531,1581.1875 1915.6875,1581.1875 Q1916.4219,1581.1875 1917.0625,1581.3594 Q1917.7188,1581.5156 1918.2656,1581.875 Z " fill="#000000"/><text fill="#000000" font-family="sans-serif" font-size="14" lengthAdjust="spacing" textLength="187" x="1929.5" y="1591.7285">EthernetSwitchPortUpdateDto</text><line style="stroke:#181818;stroke-width:0.5;" x1="1901.5" x2="2118.5" y1="1602" y2="1602"/><line style="stroke:#181818;stroke-width:0.5;" x1="1901.5" x2="2118.5" y1="1610" y2="1610"/></g><!--MD5=[486b5bedf9dc6f69fa62dd2fa97f75c6]
class EthernetSwitchPortDto--><g id="elem_EthernetSwitchPortDto"><rect codeLine="6" fill="#F1F1F1" height="48" id="EthernetSwitchPortDto" rx="2.5" ry="2.5" style="stroke:#181818;stroke-width:0.5;" width="174" x="2407" y="1570"/><ellipse cx="2422" cy="1586" fill="#ADD1B2" rx="11" ry="11" style="stroke:#181818;stroke-width:1.0;"/><path d="M2424.7656,1581.875 Q2424.9219,1581.6563 2425.1094,1581.5469 Q2425.2969,1581.4375 2425.5156,1581.4375 Q2425.8906,1581.4375 2426.125,1581.7031 Q2426.3594,1581.9531 2426.3594,1582.5625 L2426.3594,1584.0156 Q2426.3594,1584.625 2426.125,1584.8906 Q2425.8906,1585.1563 2425.5156,1585.1563 Q2425.1719,1585.1563 2424.9688,1584.9531 Q2424.7656,1584.7656 2424.6563,1584.25 Q2424.6094,1583.8906 2424.4219,1583.7031 Q2424.0938,1583.3281 2423.4844,1583.1094 Q2422.875,1582.8906 2422.25,1582.8906 Q2421.4844,1582.8906 2420.8438,1583.2188 Q2420.2188,1583.5469 2419.7188,1584.2969 Q2419.2344,1585.0469 2419.2344,1586.0781 L2419.2344,1587.1719 Q2419.2344,1588.4063 2420.125,1589.2344 Q2421.0156,1590.0469 2422.6094,1590.0469 Q2423.5469,1590.0469 2424.2031,1589.7969 Q2424.5938,1589.6406 2425.0156,1589.2031 Q2425.2813,1588.9375 2425.4219,1588.8594 Q2425.5781,1588.7813 2425.7813,1588.7813 Q2426.1094,1588.7813 2426.3594,1589.0469 Q2426.625,1589.2969 2426.625,1589.6406 Q2426.625,1589.9844 2426.2813,1590.3906 Q2425.7813,1590.9688 2424.9844,1591.2969 Q2423.9063,1591.75 2422.6094,1591.75 Q2421.0938,1591.75 2419.8906,1591.125 Q2418.9063,1590.625 2418.2188,1589.5625 Q2417.5313,1588.4844 2417.5313,1587.2031 L2417.5313,1586.0469 Q2417.5313,1584.7188 2418.1406,1583.5781 Q2418.7656,1582.4219 2419.8594,1581.8125 Q2420.9531,1581.1875 2422.1875,1581.1875 Q2422.9219,1581.1875 2423.5625,1581.3594 Q2424.2188,1581.5156 2424.7656,1581.875 Z " fill="#000000"/><text fill="#000000" font-family="sans-serif" font-size="14" lengthAdjust="spacing" textLength="142" x="2436" y="1591.7285">EthernetSwitchPortDto</text><line style="stroke:#181818;stroke-width:0.5;" x1="2408" x2="2580" y1="1602" y2="1602"/><line style="stroke:#181818;stroke-width:0.5;" x1="2408" x2="2580" y1="1610" y2="1610"/></g><!--MD5=[a6c7a0eda5b041e127f539f1664bb96a]
link Entity to IEntityModel--><g id="link_Entity_IEntityModel"><path codeLine="14" d="M332.39,530.05 C280.89,566.51 220.84,615.44 178,670 C145.42,711.5 121.65,767.17 107.27,807.24 " fill="none" id="Entity-to-IEntityModel" style="stroke:#181818;stroke-width:1.0;stroke-dasharray:7.0,7.0;"/><polygon fill="none" points="113.83,809.7,100.7,826.34,100.59,805.15,113.83,809.7" style="stroke:#181818;stroke-width:1.0;"/></g><!--MD5=[28ddc57433616ceaae86c7f76015305a]
link EthernetSwitch to Entity--><g id="link_EthernetSwitch_Entity"><path codeLine="27" d="M764.3,322.22 C758.34,327.17 752.21,331.82 746,336 C698.93,367.64 642.67,393.51 591.13,413.39 " fill="none" id="EthernetSwitch-to-Entity" style="stroke:#181818;stroke-width:1.0;"/><polygon fill="#181818" points="578.83,418.06,585.8589,419.6706,590.0491,413.8018,583.0201,412.1912,578.83,418.06" style="stroke:#181818;stroke-width:1.0;"/></g><!--MD5=[1b84833638557571905b03f54e842c8c]
link GormGenericRepository to IGenericRepository--><g id="link_GormGenericRepository_IGenericRepository"><path codeLine="7" d="M1280.54,638.35 C1256.36,659.67 1218.55,693.03 1179.61,727.39 " fill="none" id="GormGenericRepository-to-IGenericRepository" style="stroke:#181818;stroke-width:1.0;stroke-dasharray:7.0,7.0;"/><polygon fill="none" points="1183.99,732.86,1164.36,740.84,1174.73,722.36,1183.99,732.86" style="stroke:#181818;stroke-width:1.0;"/></g><!--MD5=[bbe412936ca4b95a00b9eb94a916dd4a]
link EthernetSwitchRepository to GormGenericRepository--><g id="link_EthernetSwitchRepository_GormGenericRepository"><path codeLine="8" d="M1395.02,267.18 C1430.63,321.87 1508.55,461.27 1447,554 C1438.96,566.11 1427.89,575.75 1415.47,583.4 " fill="none" id="EthernetSwitchRepository-to-GormGenericRepository" style="stroke:#181818;stroke-width:1.0;"/><polygon fill="#181818" points="1403.73,589.9,1410.9165,590.495,1414.2298,584.0902,1407.0433,583.4952,1403.73,589.9" style="stroke:#181818;stroke-width:1.0;"/></g><!--MD5=[97e973a2e17e2fdf95a657100781ecd2]
link EthernetSwitchRepository to EthernetSwitchTypeNote--><g id="link_EthernetSwitchRepository_EthernetSwitchTypeNote"><path codeLine="13" d="M1371.29,267.33 C1356.06,313.46 1322.55,414.9 1311.01,449.87 " fill="none" id="EthernetSwitchRepository-EthernetSwitchTypeNote" style="stroke:#181818;stroke-width:1.0;stroke-dasharray:7.0,7.0;"/></g><!--MD5=[9f5125094d565c097065cae25f7e2c84]
link EthernetSwitchTypeNote to GormGenericRepository--><g id="link_EthernetSwitchTypeNote_GormGenericRepository"><path codeLine="14" d="M1307,476.19 C1307,499.75 1307,552.05 1307,584.73 " fill="none" id="EthernetSwitchTypeNote-to-GormGenericRepository" style="stroke:#181818;stroke-width:1.0;stroke-dasharray:7.0,7.0;"/><polygon fill="#181818" points="1307,589.8,1311,580.8,1307,584.8,1303,580.8,1307,589.8" style="stroke:#181818;stroke-width:1.0;"/></g><!--MD5=[e4dc094716afb2924cadfdc3ab207821]
link EthernetSwitch to EthernetSwitchTypeNote--><g id="link_EthernetSwitch_EthernetSwitchTypeNote"><path codeLine="15" d="M907.74,310.65 C920.5,320.19 934.15,329.09 948,336 C1049.08,386.45 1090.32,353.53 1195,396 C1230.76,410.51 1268.72,435.08 1289.99,449.8 " fill="none" id="EthernetSwitch-EthernetSwitchTypeNote" style="stroke:#181818;stroke-width:1.0;stroke-dasharray:7.0,7.0;"/></g><!--MD5=[afd672b6d7a853cadad0fa5e76e30a74]
link EthernetSwitchPort to Entity--><g id="link_EthernetSwitchPort_Entity"><path codeLine="13" d="M437,297.61 C437,323.18 437,354.3 437,382.55 " fill="none" id="EthernetSwitchPort-to-Entity" style="stroke:#181818;stroke-width:1.0;"/><polygon fill="#181818" points="437,395.73,441,389.73,437,383.73,433,389.73,437,395.73" style="stroke:#181818;stroke-width:1.0;"/></g><!--MD5=[1762f5c7af981631210025ef4f9c269e]
link EthernetSwitchPortRepository to GormGenericRepository--><g id="link_EthernetSwitchPortRepository_GormGenericRepository"><path codeLine="8" d="M1274.86,90.06 C1270.44,94.81 1266.55,100.16 1264,106 C1223.14,199.7 1206.22,251.67 1264,336 C1305.75,396.94 1377.25,335.06 1419,396 C1438.85,424.96 1437.14,523.94 1419,554 C1411.86,565.84 1401.46,575.42 1389.85,583.14 " fill="none" id="EthernetSwitchPortRepository-to-GormGenericRepository" style="stroke:#181818;stroke-width:1.0;"/><polygon fill="#181818" points="1378.4,589.98,1385.6024,590.3339,1388.6992,583.8216,1381.4968,583.4677,1378.4,589.98" style="stroke:#181818;stroke-width:1.0;"/></g><!--MD5=[fe4788a4e689d7fb18894f4eb70a548f]
link EthernetSwitchPortRepository to EthernetSwitchPortTypeNote--><g id="link_EthernetSwitchPortRepository_EthernetSwitchPortTypeNote"><path codeLine="13" d="M1256.1,90.15 C1249.15,94.75 1242.51,100.04 1237,106 C1134.91,216.4 1085.53,400.73 1073.8,449.73 " fill="none" id="EthernetSwitchPortRepository-EthernetSwitchPortTypeNote" style="stroke:#181818;stroke-width:1.0;stroke-dasharray:7.0,7.0;"/></g><!--MD5=[db6d18f36f875cfdbc509bcef396f1a5]
link EthernetSwitchPortTypeNote to GormGenericRepository--><g id="link_EthernetSwitchPortTypeNote_GormGenericRepository"><path codeLine="14" d="M1086.17,476.1 C1109.06,494.11 1154.11,528.57 1195,554 C1214.01,565.82 1235.63,577.58 1254.76,587.45 " fill="none" id="EthernetSwitchPortTypeNote-to-GormGenericRepository" style="stroke:#181818;stroke-width:1.0;stroke-dasharray:7.0,7.0;"/><polygon fill="#181818" points="1259.57,589.92,1253.3774,582.2616,1255.1181,587.6439,1249.7357,589.3846,1259.57,589.92" style="stroke:#181818;stroke-width:1.0;"/></g><!--MD5=[9c0460ae0ce9578d5fd891f7c11771f8]
link EthernetSwitchPort to EthernetSwitchPortTypeNote--><g id="link_EthernetSwitchPort_EthernetSwitchPortTypeNote"><path codeLine="15" d="M492.78,297.63 C510.76,312.21 531.6,326.56 553,336 C705.82,403.41 764,348.05 924,396 C970.09,409.81 1020.61,434.86 1048.79,449.81 " fill="none" id="EthernetSwitchPort-EthernetSwitchPortTypeNote" style="stroke:#181818;stroke-width:1.0;stroke-dasharray:7.0,7.0;"/></g><!--MD5=[f0bd9206a4dd631190c7c77769e5e372]
link EthernetSwitchCreateDto to EthernetSwitchBaseDto--><g id="link_EthernetSwitchCreateDto_EthernetSwitchBaseDto"><path codeLine="9" d="M3311.96,1627.32 C3284.13,1655.4 3242.49,1697.4 3204.84,1735.39 " fill="none" id="EthernetSwitchCreateDto-to-EthernetSwitchBaseDto" style="stroke:#181818;stroke-width:1.0;"/><polygon fill="#181818" points="3195.36,1744.95,3202.4244,1743.5028,3203.8056,1736.4252,3196.7412,1737.8724,3195.36,1744.95" style="stroke:#181818;stroke-width:1.0;"/></g><!--MD5=[cd18a63401ba994ebd33ffac90db2cbb]
link EthernetSwitchUpdateDto to EthernetSwitchBaseDto--><g id="link_EthernetSwitchUpdateDto_EthernetSwitchBaseDto"><path codeLine="9" d="M3117,1627.32 C3117,1654.45 3117,1694.57 3117,1731.51 " fill="none" id="EthernetSwitchUpdateDto-to-EthernetSwitchBaseDto" style="stroke:#181818;stroke-width:1.0;"/><polygon fill="#181818" points="3117,1744.95,3121,1738.95,3117,1732.95,3113,1738.95,3117,1744.95" style="stroke:#181818;stroke-width:1.0;"/></g><!--MD5=[3caa607ff050ff5d17b319ae4460501c]
link EthernetSwitchDto to EthernetSwitchBaseDto--><g id="link_EthernetSwitchDto_EthernetSwitchBaseDto"><path codeLine="9" d="M2928.66,1618.28 C2946.71,1641.73 2975.86,1678.68 3003,1709 C3010.78,1717.69 3019.03,1726.59 3027.4,1735.39 " fill="none" id="EthernetSwitchDto-to-EthernetSwitchBaseDto" style="stroke:#181818;stroke-width:1.0;"/><polygon fill="#181818" points="3036.51,1744.9,3035.2444,1737.8008,3028.2046,1736.2386,3029.4702,1743.3378,3036.51,1744.9" style="stroke:#181818;stroke-width:1.0;"/></g><!--MD5=[ce3a7074c5a166c0fec412a5219a65db]
link EthernetSwitchDto to BaseDto--><g id="link_EthernetSwitchDto_BaseDto"><path codeLine="10" d="M2893.68,1618.4 C2875.95,1641.95 2847.2,1678.97 2820,1709 C2804.27,1726.37 2786.52,1744.4 2769.66,1760.89 " fill="none" id="EthernetSwitchDto-to-BaseDto" style="stroke:#181818;stroke-width:1.0;"/><polygon fill="#181818" points="2759.86,1770.4,2766.9522,1769.0959,2768.4762,1762.0477,2761.384,1763.3518,2759.86,1770.4" style="stroke:#181818;stroke-width:1.0;"/></g><!--MD5=[0491fbc6da365083a29d7a8e7e945746]
link EthernetSwitchPortCreateDto to EthernetSwitchPortBaseDto--><g id="link_EthernetSwitchPortCreateDto_EthernetSwitchPortBaseDto"><path codeLine="7" d="M2263,1618.22 C2263,1653.66 2263,1722.21 2263,1770.43 " fill="none" id="EthernetSwitchPortCreateDto-to-EthernetSwitchPortBaseDto" style="stroke:#181818;stroke-width:1.0;"/><polygon fill="#181818" points="2263,1783.45,2267,1777.45,2263,1771.45,2259,1777.45,2263,1783.45" style="stroke:#181818;stroke-width:1.0;"/></g><!--MD5=[2fcc325da75b2fc129bfba6a96942222]
link EthernetSwitchPortUpdateDto to EthernetSwitchPortBaseDto--><g id="link_EthernetSwitchPortUpdateDto_EthernetSwitchPortBaseDto"><path codeLine="7" d="M2035.65,1618.22 C2075.98,1654.72 2155.11,1726.35 2208.53,1774.7 " fill="none" id="EthernetSwitchPortUpdateDto-to-EthernetSwitchPortBaseDto" style="stroke:#181818;stroke-width:1.0;"/><polygon fill="#181818" points="2218.2,1783.45,2216.4361,1776.458,2209.3034,1775.397,2211.0674,1782.389,2218.2,1783.45" style="stroke:#181818;stroke-width:1.0;"/></g><!--MD5=[2bd7b37e42cf9e4eaa6b8a37cf7d31d1]
link EthernetSwitchPortDto to BaseDto--><g id="link_EthernetSwitchPortDto_BaseDto"><path codeLine="8" d="M2515.09,1618.22 C2545.08,1651.23 2601.16,1712.98 2644.1,1760.25 " fill="none" id="EthernetSwitchPortDto-to-BaseDto" style="stroke:#181818;stroke-width:1.0;"/><polygon fill="#181818" points="2653.05,1770.11,2651.9837,1762.9782,2644.9904,1761.2194,2646.0567,1768.3512,2653.05,1770.11" style="stroke:#181818;stroke-width:1.0;"/></g><!--MD5=[01d9922c5c9f2a20159ae4795159725a]
link EthernetSwitchPortDto to EthernetSwitchPortBaseDto--><g id="link_EthernetSwitchPortDto_EthernetSwitchPortBaseDto"><path codeLine="9" d="M2473.65,1618.26 C2452.9,1641.69 2419.51,1678.63 2389,1709 C2366.79,1731.11 2341.42,1754.58 2319.29,1774.52 " fill="none" id="EthernetSwitchPortDto-to-EthernetSwitchPortBaseDto" style="stroke:#181818;stroke-width:1.0;"/><polygon fill="#181818" points="2309.38,1783.41,2316.5176,1782.3828,2318.3146,1775.3992,2311.177,1776.4264,2309.38,1783.41" style="stroke:#181818;stroke-width:1.0;"/></g><!--MD5=[65128cb63a89bf260dc6223225a79aea]
link EthernetSwitchService to IGenericService--><g id="link_EthernetSwitchService_IGenericService"><path codeLine="30" d="M1321.03,1308.07 C1335.82,1367.45 1353.43,1438.17 1367.41,1494.29 " fill="none" id="EthernetSwitchService-to-IGenericService" style="stroke:#181818;stroke-width:1.0;stroke-dasharray:7.0,7.0;"/><polygon fill="none" points="1374.25,1492.77,1372.29,1513.87,1360.67,1496.16,1374.25,1492.77" style="stroke:#181818;stroke-width:1.0;"/></g><!--MD5=[52e58282c6a01c4a733671c9ae5d2c96]
link GMN689 to EthernetSwitchService--><g id="link_GMN689_EthernetSwitchService"><path d="M211.91,1148.66 C246.91,1111.56 306.03,1057.42 370.5,1035 C509.87,986.54 556.11,1016.46 702.5,1035 C757.84,1042.01 815.43,1052.59 871.97,1064.96 " fill="none" id="GMN689-EthernetSwitchService" style="stroke:#181818;stroke-width:1.0;stroke-dasharray:7.0,7.0;"/></g><!--MD5=[00a7b3c6cedcc857f096e4343d7ccaca]
link EthernetSwitchRepository to EthernetSwitchService--><g id="link_EthernetSwitchRepository_EthernetSwitchService"><path codeLine="43" d="M1395.59,267 C1415.55,295.77 1448.65,347.19 1467,396 C1491.27,460.55 1539.26,955.22 1587,1005 C1665.79,1087.16 1764.65,976.31 1836,1065 C1849.51,1081.8 1858.56,1113.5 1837,1113.5 " fill="none" id="EthernetSwitchRepository-EthernetSwitchService" style="stroke:#181818;stroke-width:1.0;"/></g><!--MD5=[7eb08d8b4260e68a2df9b03110170485]
link EthernetSwitchPortRepository to EthernetSwitchService--><g id="link_EthernetSwitchPortRepository_EthernetSwitchService"><path codeLine="44" d="M1416.22,80.42 C1449.97,86.52 1481.51,94.9 1494,106 C1618.72,216.8 1613,295.17 1613,462 C1613,462 1613,462 1613,615 C1613,868.07 2090.07,1138.5 1837,1138.5 " fill="none" id="EthernetSwitchPortRepository-EthernetSwitchService" style="stroke:#181818;stroke-width:1.0;"/></g><!--MD5=[20602760d8e2622c2f34a54a1a95e3af]
link IGenericRepository to EthernetSwitchService--><!--MD5=[10f60970fbbaee124124fe840932bcf7]
link EthernetSwitchPortRepository to EthernetSwitchRepository--><!--MD5=[1150ff4a2de42a70bfddf29dbe9f1355]
link EthernetSwitchService to EthernetSwitchServiceTypes--><g id="link_EthernetSwitchService_EthernetSwitchServiceTypes"><path codeLine="56" d="M1521,1308.06 C1562.51,1329.81 1602.76,1350.91 1634.98,1367.8 " fill="none" id="EthernetSwitchService-EthernetSwitchServiceTypes" style="stroke:#181818;stroke-width:1.0;stroke-dasharray:7.0,7.0;"/></g><!--MD5=[58d8cbeb050a5bf3e7f4a2cd3f18a6d7]
link EthernetSwitchServiceTypes to IGenericService--><g id="link_EthernetSwitchServiceTypes_IGenericService"><path codeLine="57" d="M1643.53,1443.12 C1610.81,1462.62 1569.17,1487.44 1529.22,1511.24 " fill="none" id="EthernetSwitchServiceTypes-to-IGenericService" style="stroke:#181818;stroke-width:1.0;stroke-dasharray:7.0,7.0;"/><polygon fill="#181818" points="1524.86,1513.83,1534.64,1512.6678,1529.1575,1511.2743,1530.551,1505.7918,1524.86,1513.83" style="stroke:#181818;stroke-width:1.0;"/></g><!--MD5=[b0f7fe5f31df835059ab1c194901a7fe]
link EthernetSwitchServiceTypes to EthernetSwitchCreateDto--><g id="link_EthernetSwitchServiceTypes_EthernetSwitchCreateDto"><path codeLine="59" d="M1843.68,1409.51 C2195.61,1417.88 3104.49,1444.22 3231,1495.5 C3265.34,1509.42 3296.57,1538.21 3317.46,1560.92 " fill="none" id="EthernetSwitchServiceTypes-EthernetSwitchCreateDto" style="stroke:#181818;stroke-width:1.0;stroke-dasharray:7.0,7.0;"/></g><!--MD5=[7856b62c62afd124a133667fc83a018f]
link EthernetSwitchServiceTypes to EthernetSwitchUpdateDto--><g id="link_EthernetSwitchServiceTypes_EthernetSwitchUpdateDto"><path codeLine="60" d="M1843.57,1411.08 C2156.29,1422.13 2897.84,1452.52 3003,1495.5 C3037.23,1509.49 3068.56,1537.96 3089.68,1560.54 " fill="none" id="EthernetSwitchServiceTypes-EthernetSwitchUpdateDto" style="stroke:#181818;stroke-width:1.0;stroke-dasharray:7.0,7.0;"/></g><!--MD5=[8b781ed27e3c4292de80ef1c58982566]
link EthernetSwitchServiceTypes to EthernetSwitchDto--><g id="link_EthernetSwitchServiceTypes_EthernetSwitchDto"><path codeLine="61" d="M1843.51,1411.96 C2122.75,1423.77 2734.06,1454.01 2820,1495.5 C2853.78,1511.81 2881.25,1546.52 2896.87,1569.81 " fill="none" id="EthernetSwitchServiceTypes-EthernetSwitchDto" style="stroke:#181818;stroke-width:1.0;stroke-dasharray:7.0,7.0;"/></g><!--MD5=[a17fcdfb3af5132ff1732f7676663b97]
@startuml
!include ../interfaces/IGenericService.puml
!include ../repositories/EthernetSwitchRepository.puml
!include ../repositories/EthernetSwitchPortRepository.puml
!include ../dto/EthernetSwitch/EthernetSwitchCreateDto.puml
!include ../dto/EthernetSwitch/EthernetSwitchUpdateDto.puml
!include ../dto/EthernetSwitch/EthernetSwitchDto.puml
!include ../dto/EthernetSwitch/EthernetSwitchModelDto.puml
!include ../dto/EthernetSwitchPort/EthernetSwitchPortCreateDto.puml
!include ../dto/EthernetSwitchPort/EthernetSwitchPortUpdateDto.puml
!include ../dto/EthernetSwitchPort/EthernetSwitchPortDto.puml

package app {
    class EthernetSwitchService {
        -switchRepo interfaces.IGenericRepository[domain.EthernetSwitch]
        - -
        -portRepo interfaces.IGenericRepository[domain.EthernetSwitchPort]
        - -
        +GetSupportedModels() []dtos.EthernetSwitchModelDto
        - -
        +GetPortByID(ctx context.Context, switchID, id uuid.UUID) (dtos.EthernetSwitchPortDto, error)
        - -
        +CreatePort(ctx context.Context, switchID uuid.UUID, createDto dtos.EthernetSwitchPortCreateDto) (dtos.EthernetSwitchPortDto, error)
        - -
        +UpdatePort(ctx context.Context, switchID, id uuid.UUID, updateDto dtos.EthernetSwitchPortUpdateDto) (dtos.EthernetSwitchPortDto, error)
        - -
        +GetPorts(ctx context.Context, switchID uuid.UUID, search, orderBy, orderDirection string, page, pageSize int) (dtos.PaginatedItemsDto[dtos.EthernetSwitchPortDto], error)
        - -
        +DeletePort(ctx context.Context, switchID, id uuid.UUID) error
    }
    EthernetSwitchService .down.|> IGenericService

    note left of EthernetSwitchService::GetSupportedModels
    Get ethernet switch models that supported by system
    end note

    note left of EthernetSwitchService
        Advanced business logic for EthernetSwitch entity:
        DTO Validation
        Checking the uniqueness of serial numbers
        Checking the uniqueness of addresses
    end note

    EthernetSwitchRepository -right- EthernetSwitchService::switchRepo
    EthernetSwitchPortRepository -right- EthernetSwitchService::portRepo

    EthernetSwitchService .[hidden]up. IGenericRepository
    EthernetSwitchPortRepository .[hidden]down. EthernetSwitchRepository

    note as EthernetSwitchServiceTypes
    EntityType is EthernetSwitch
    CreateDtoType is EthernetSwitchCreateDto
    UpdateDtoType is EthernetSwitchUpdateDto
    DtoType is EthernetSwitchDto
    end note

    EthernetSwitchService .down. EthernetSwitchServiceTypes
    IGenericService <.up. EthernetSwitchServiceTypes

    EthernetSwitchServiceTypes .. EthernetSwitchCreateDto
    EthernetSwitchServiceTypes .. EthernetSwitchUpdateDto
    EthernetSwitchServiceTypes .. EthernetSwitchDto

}
@enduml

@startuml

package app {
    interface IGenericService<EntityType, CreateDtoType, UpdateDtoType, DtoType> {
        +GetList(ctx context.Context, search, orderBy, orderDirection string, page, pageSize int) (dtos.PaginatedItemsDto[DtoType], error)
        - -
        +GetById(ctx context.Context, id uuid.UUID) (DtoType, error)
        - -
        +Update(ctx context.Context, updateDto UpdateDtoType, id uuid.UUID) (DtoType, error)
        - -
        +Create(ctx context.Context, createDto CreateDtoType) (DtoType, error)
        - -
        +Delete(ctx context.Context, id uuid.UUID) error
    }
    note left of IGenericService::GetList
        Get list of elements with search and pagination
    end note

    note left of IGenericService::GetById
        Get entity by ID from service
    end note

    note left of IGenericService::Update
        Save the changes to the existing entity in the service
    end note

    note left of IGenericService::Create
        Add entity to the service
    end note

    note left of IGenericService::Delete
        Mark an entity as deleted
    end note
}





package app {
    interface IEntityModel {
        +GetID() uuid.UUID
    }
}


package domain {
    class Entity {
        +ID uuid.UUID `gorm:"primarykey"`
        - -
        +CreatedAt time.Time `gorm:"index"`
        - -
        +UpdatedAt time.Time `gorm:"index"`
        - -
        +DeletedAt gorm.DeletedAt `gorm:"index"`
    }
    Entity .down.|> IEntityModel
}


package domain {
    class EthernetSwitch {
        +Name string
        - -
        +Serial string
        - -
        +SwitchModel string
        - -
        +Address string
        - -
        +Username string
        - -
        +Password string
    }
    note left of EthernetSwitch::Serial
    Unique
    end note

    note left of EthernetSwitch::Address
    Unique
    Ip address of the switch
    end note

    EthernetSwitch -down-* Entity
}



package app {
    interface IGenericRepository<EntityType> {
        +GetList(ctx context.Context, orderBy string, orderDirection string, page int, size int, queryBuilder interfaces.IQueryBuilder) ([]EntityType, error)
        - -
        +Count(ctx context.Context, queryBuilder interfaces.IQueryBuilder) (int64, error)
        - -
        +NewQueryBuilder(ctx context.Context) interfaces.IQueryBuilder
        - -
        +GetById(ctx context.Context, id uuid.UUID) (EntityType, error)
        - -
        +Update(ctx context.Context, entity EntityType) (EntityType, error)
        - -
        +Insert(ctx context.Context, entity EntityType) (EntityType, error)
        - -
        +Delete(ctx context.Context, id uuid.UUID) error
        - -
        +CloseDb() error
    }
    note left of IGenericRepository::GetList
      Get list of elements with filtering and pagination
    end note

    note left of IGenericRepository::Count
      Get count of entities with filtering
    end note

    note left of IGenericRepository::NewQueryBuilder
      Get new instance of the query builder
    end note

    note left of IGenericRepository::GetById
      Get entity by ID from repository
    end note

    note left of IGenericRepository::Update
      Save the changes to the existing entity in the repository
    end note

    note left of IGenericRepository::Insert
      Add entity to the repository
    end note

    note left of IGenericRepository::Delete
      Delete entity from the database
    end note

    note left of IGenericRepository::CloseDb
      Closes current database connection
    end note
}


package infrastructure {
    class GormGenericRepository<EntityType>

    GormGenericRepository .down.|> IGenericRepository
}


package infrastructure {
    class EthernetSwitchRepository

    EthernetSwitchRepository -down-* GormGenericRepository


    note "EntityType is EthernetSwitch" as EthernetSwitchTypeNote

    EthernetSwitchRepository .down. EthernetSwitchTypeNote
    GormGenericRepository <.up. EthernetSwitchTypeNote
    EthernetSwitch .. EthernetSwitchTypeNote
}




package domain {
    class EthernetSwitchPort {
        +EthernetSwitchId uuid.UUID
        - -
        +POEType string
        - -
        +Name string
    }

    EthernetSwitchPort -down-* Entity

    note left of EthernetSwitchPort::POEType
      POE port type
      can be: "poe", "poe+", "passive24", "none"
    end note

    note left of EthernetSwitchPort::Name
      Unique within 1 switch
    end note
}


package infrastructure {
    class EthernetSwitchPortRepository

    EthernetSwitchPortRepository -down-* GormGenericRepository


    note "EntityType is EthernetSwitchPort" as EthernetSwitchPortTypeNote

    EthernetSwitchPortRepository .down. EthernetSwitchPortTypeNote
    GormGenericRepository <.up. EthernetSwitchPortTypeNote
    EthernetSwitchPort .. EthernetSwitchPortTypeNote
}




package dtos {
    class EthernetSwitchBaseDto {
        +Name string
        - -
        +Serial string
        - -
        +SwitchModel string
        - -
        +Address string
        - -
        +Username string
    }
}


package dtos {
    class EthernetSwitchCreateDto {
        +Password string
    }

    EthernetSwitchCreateDto - -* EthernetSwitchBaseDto
}



package dtos {
    class EthernetSwitchUpdateDto {
        +Password string
    }

    EthernetSwitchUpdateDto - -* EthernetSwitchBaseDto
}



package dtos {
    class BaseDto {
        +ID uuid.UUID
        - -
        +CreatedAt time.Time
        - -
        +UpdatedAt time.Time
    }
}


package dtos {
    class EthernetSwitchDto {

    }
    EthernetSwitchDto - -* EthernetSwitchBaseDto
    EthernetSwitchDto - -* BaseDto
}


package dtos {
    class EthernetSwitchModelDto {
        +Code string
        - -
        +Manufacturer string
        - -
        +Model string
    }
}



package dtos {
    class EthernetSwitchPortBaseDto {
        +POEType string
        - -
        +Name string
    }
}


package dtos {
    class EthernetSwitchPortCreateDto

    EthernetSwitchPortCreateDto - -* EthernetSwitchPortBaseDto
}



package dtos {
    class EthernetSwitchPortUpdateDto

    EthernetSwitchPortUpdateDto - -* EthernetSwitchPortBaseDto
}



package dtos {
    class EthernetSwitchPortDto

    EthernetSwitchPortDto - -* BaseDto
    EthernetSwitchPortDto - -* EthernetSwitchPortBaseDto
}


package app {
    class EthernetSwitchService {
        -switchRepo interfaces.IGenericRepository[domain.EthernetSwitch]
        - -
        -portRepo interfaces.IGenericRepository[domain.EthernetSwitchPort]
        - -
        +GetSupportedModels() []dtos.EthernetSwitchModelDto
        - -
        +GetPortByID(ctx context.Context, switchID, id uuid.UUID) (dtos.EthernetSwitchPortDto, error)
        - -
        +CreatePort(ctx context.Context, switchID uuid.UUID, createDto dtos.EthernetSwitchPortCreateDto) (dtos.EthernetSwitchPortDto, error)
        - -
        +UpdatePort(ctx context.Context, switchID, id uuid.UUID, updateDto dtos.EthernetSwitchPortUpdateDto) (dtos.EthernetSwitchPortDto, error)
        - -
        +GetPorts(ctx context.Context, switchID uuid.UUID, search, orderBy, orderDirection string, page, pageSize int) (dtos.PaginatedItemsDto[dtos.EthernetSwitchPortDto], error)
        - -
        +DeletePort(ctx context.Context, switchID, id uuid.UUID) error
    }
    EthernetSwitchService .down.|> IGenericService

    note left of EthernetSwitchService::GetSupportedModels
    Get ethernet switch models that supported by system
    end note

    note left of EthernetSwitchService
        Advanced business logic for EthernetSwitch entity:
        DTO Validation
        Checking the uniqueness of serial numbers
        Checking the uniqueness of addresses
    end note

    EthernetSwitchRepository -right- EthernetSwitchService::switchRepo
    EthernetSwitchPortRepository -right- EthernetSwitchService::portRepo

    EthernetSwitchService .[hidden]up. IGenericRepository
    EthernetSwitchPortRepository .[hidden]down. EthernetSwitchRepository

    note as EthernetSwitchServiceTypes
    EntityType is EthernetSwitch
    CreateDtoType is EthernetSwitchCreateDto
    UpdateDtoType is EthernetSwitchUpdateDto
    DtoType is EthernetSwitchDto
    end note

    EthernetSwitchService .down. EthernetSwitchServiceTypes
    IGenericService <.up. EthernetSwitchServiceTypes

    EthernetSwitchServiceTypes .. EthernetSwitchCreateDto
    EthernetSwitchServiceTypes .. EthernetSwitchUpdateDto
    EthernetSwitchServiceTypes .. EthernetSwitchDto

}
@enduml

PlantUML version 1.2022.6(Tue Jun 21 20:34:49 MSK 2022)
(GPL source distribution)
Java Runtime: OpenJDK Runtime Environment
JVM: OpenJDK 64-Bit Server VM
Default Encoding: Cp1251
Language: ru
Country: RU
--></g></svg>