<?xml version="1.0" encoding="UTF-8" standalone="no"?><svg xmlns="http://www.w3.org/2000/svg" xmlns:xlink="http://www.w3.org/1999/xlink" contentStyleType="text/css" height="1999px" preserveAspectRatio="none" style="width:1970px;height:1999px;background:#FFFFFF;" version="1.1" viewBox="0 0 1970 1999" width="1970px" zoomAndPan="magnify"><defs/><g><!--MD5=[d5ac3844f66b12d9e08170e47495e096]
cluster app--><g id="cluster_app"><path d="M8.5,678 L35.5,678 A3.75,3.75 0 0 1 38,680.5 L45,701.6094 L1857.5,701.6094 A2.5,2.5 0 0 1 1860,704.1094 L1860,1584.5 A2.5,2.5 0 0 1 1857.5,1587 L8.5,1587 A2.5,2.5 0 0 1 6,1584.5 L6,680.5 A2.5,2.5 0 0 1 8.5,678 " style="stroke:#000000;stroke-width:1.5;fill:none;"/><line style="stroke:#000000;stroke-width:1.5;fill:none;" x1="6" x2="45" y1="701.6094" y2="701.6094"/><text fill="#000000" font-family="sans-serif" font-size="14" font-weight="bold" lengthAdjust="spacing" textLength="26" x="10" y="694.5332">app</text></g><!--MD5=[27f772719433d509ddbc20ff768eba08]
cluster domain--><g id="cluster_domain"><path d="M22.5,114 L74.5,114 A3.75,3.75 0 0 1 77,116.5 L84,137.6094 L921.5,137.6094 A2.5,2.5 0 0 1 924,140.1094 L924,543.5 A2.5,2.5 0 0 1 921.5,546 L22.5,546 A2.5,2.5 0 0 1 20,543.5 L20,116.5 A2.5,2.5 0 0 1 22.5,114 " style="stroke:#000000;stroke-width:1.5;fill:none;"/><line style="stroke:#000000;stroke-width:1.5;fill:none;" x1="20" x2="84" y1="137.6094" y2="137.6094"/><text fill="#000000" font-family="sans-serif" font-size="14" font-weight="bold" lengthAdjust="spacing" textLength="51" x="24" y="130.5332">domain</text></g><!--MD5=[77349be1bd27b81b697a0f9b3aded3c8]
cluster infrastructure--><g id="cluster_infrastructure"><path d="M950.5,6 L1048.5,6 A3.75,3.75 0 0 1 1051,8.5 L1058,29.6094 L1489.5,29.6094 A2.5,2.5 0 0 1 1492,32.1094 L1492,651.5 A2.5,2.5 0 0 1 1489.5,654 L950.5,654 A2.5,2.5 0 0 1 948,651.5 L948,8.5 A2.5,2.5 0 0 1 950.5,6 " style="stroke:#000000;stroke-width:1.5;fill:none;"/><line style="stroke:#000000;stroke-width:1.5;fill:none;" x1="948" x2="1058" y1="29.6094" y2="29.6094"/><text fill="#000000" font-family="sans-serif" font-size="14" font-weight="bold" lengthAdjust="spacing" textLength="97" x="952" y="22.5332">infrastructure</text></g><!--MD5=[ac65c812e7532cbcd7b9effd958b962e]
cluster dtos--><g id="cluster_dtos"><path d="M60.5,1611 L92.5,1611 A3.75,3.75 0 0 1 95,1613.5 L102,1634.6094 L1627.5,1634.6094 A2.5,2.5 0 0 1 1630,1637.1094 L1630,1989.5 A2.5,2.5 0 0 1 1627.5,1992 L60.5,1992 A2.5,2.5 0 0 1 58,1989.5 L58,1613.5 A2.5,2.5 0 0 1 60.5,1611 " style="stroke:#000000;stroke-width:1.5;fill:none;"/><line style="stroke:#000000;stroke-width:1.5;fill:none;" x1="58" x2="102" y1="1634.6094" y2="1634.6094"/><text fill="#000000" font-family="sans-serif" font-size="14" font-weight="bold" lengthAdjust="spacing" textLength="31" x="62" y="1627.5332">dtos</text></g><!--MD5=[2a39a5be1cc24ddddd6e6286e4ece992]
class IEntityModel--><g id="elem_IEntityModel"><rect codeLine="3" fill="#F1F1F1" height="65.6094" id="IEntityModel" rx="2.5" ry="2.5" style="stroke:#181818;stroke-width:0.5;" width="138" x="22" y="826.5"/><ellipse cx="49.6" cy="842.5" fill="#B4A7E5" rx="11" ry="11" style="stroke:#181818;stroke-width:1.0;"/><path d="M50.5531,839.1406 L50.5531,845.7969 L52.2719,845.7969 Q52.8813,845.7969 53.1469,846.0313 Q53.4125,846.2656 53.4125,846.6563 Q53.4125,847.0313 53.1469,847.2656 Q52.8813,847.5 52.2719,847.5 L47.1313,847.5 Q46.5219,847.5 46.2563,847.2656 Q45.9906,847.0313 45.9906,846.6406 Q45.9906,846.2656 46.2563,846.0313 Q46.5219,845.7969 47.1313,845.7969 L48.85,845.7969 L48.85,839.1406 L47.1313,839.1406 Q46.5219,839.1406 46.2563,838.9063 Q45.9906,838.6719 45.9906,838.2813 Q45.9906,837.9063 46.2563,837.6719 Q46.5219,837.4375 47.1313,837.4375 L52.2719,837.4375 Q52.8813,837.4375 53.1469,837.6719 Q53.4125,837.9063 53.4125,838.2813 Q53.4125,838.6719 53.1469,838.9063 Q52.8813,839.1406 52.2719,839.1406 L50.5531,839.1406 Z " fill="#000000"/><text fill="#000000" font-family="sans-serif" font-size="14" font-style="italic" lengthAdjust="spacing" textLength="78" x="66.4" y="848.2285">IEntityModel</text><line style="stroke:#181818;stroke-width:0.5;" x1="23" x2="159" y1="858.5" y2="858.5"/><line style="stroke:#181818;stroke-width:0.5;" x1="23" x2="159" y1="866.5" y2="866.5"/><ellipse cx="33" cy="877.5" fill="#84BE84" rx="3" ry="3" style="stroke:#038048;stroke-width:1.0;"/><text fill="#000000" font-family="sans-serif" font-size="14" lengthAdjust="spacing" textLength="112" x="42" y="885.0332">GetID() uuid.UUID</text></g><!--MD5=[b3e0f8dcddb1b27f071a0303a68762bf]
class IGenericRepository--><g id="elem_IGenericRepository"><rect codeLine="3" fill="#F1F1F1" height="236.875" id="IGenericRepository" rx="2.5" ry="2.5" style="stroke:#181818;stroke-width:0.5;" width="915" x="573.5" y="741"/><ellipse cx="935.25" cy="757" fill="#B4A7E5" rx="11" ry="11" style="stroke:#181818;stroke-width:1.0;"/><path d="M936.2031,753.6406 L936.2031,760.2969 L937.9219,760.2969 Q938.5313,760.2969 938.7969,760.5313 Q939.0625,760.7656 939.0625,761.1563 Q939.0625,761.5313 938.7969,761.7656 Q938.5313,762 937.9219,762 L932.7813,762 Q932.1719,762 931.9063,761.7656 Q931.6406,761.5313 931.6406,761.1406 Q931.6406,760.7656 931.9063,760.5313 Q932.1719,760.2969 932.7813,760.2969 L934.5,760.2969 L934.5,753.6406 L932.7813,753.6406 Q932.1719,753.6406 931.9063,753.4063 Q931.6406,753.1719 931.6406,752.7813 Q931.6406,752.4063 931.9063,752.1719 Q932.1719,751.9375 932.7813,751.9375 L937.9219,751.9375 Q938.5313,751.9375 938.7969,752.1719 Q939.0625,752.4063 939.0625,752.7813 Q939.0625,753.1719 938.7969,753.4063 Q938.5313,753.6406 937.9219,753.6406 L936.2031,753.6406 Z " fill="#000000"/><text fill="#000000" font-family="sans-serif" font-size="14" font-style="italic" lengthAdjust="spacing" textLength="122" x="955.75" y="762.7285">IGenericRepository</text><rect fill="#FFFFFF" height="17.0938" style="stroke:#000000;stroke-width:1.0;stroke-dasharray:2.0,2.0;" width="59" x="1432.5" y="738"/><text fill="#000000" font-family="sans-serif" font-size="12" font-style="italic" lengthAdjust="spacing" textLength="57" x="1433.5" y="751.457">EntityType</text><line style="stroke:#181818;stroke-width:0.5;" x1="574.5" x2="1487.5" y1="773" y2="773"/><ellipse cx="584.5" cy="784" fill="#84BE84" rx="3" ry="3" style="stroke:#038048;stroke-width:1.0;"/><text fill="#000000" font-family="sans-serif" font-size="14" lengthAdjust="spacing" textLength="889" x="593.5" y="791.5332">GetList(ctx context.Context, orderBy string, orderDirection string, page int, size int, queryBuilder interfaces.IQueryBuilder) ([]EntityType, error)</text><line style="stroke:#181818;stroke-width:1.0;" x1="574.5" x2="1487.5" y1="798.6094" y2="798.6094"/><ellipse cx="584.5" cy="809.6094" fill="#84BE84" rx="3" ry="3" style="stroke:#038048;stroke-width:1.0;"/><text fill="#000000" font-family="sans-serif" font-size="14" lengthAdjust="spacing" textLength="494" x="593.5" y="817.1426">Count(ctx context.Context, queryBuilder interfaces.IQueryBuilder) (int64, error)</text><line style="stroke:#181818;stroke-width:1.0;" x1="574.5" x2="1487.5" y1="824.2188" y2="824.2188"/><ellipse cx="584.5" cy="835.2188" fill="#84BE84" rx="3" ry="3" style="stroke:#038048;stroke-width:1.0;"/><text fill="#000000" font-family="sans-serif" font-size="14" lengthAdjust="spacing" textLength="393" x="593.5" y="842.752">NewQueryBuilder(ctx context.Context) interfaces.IQueryBuilder</text><line style="stroke:#181818;stroke-width:1.0;" x1="574.5" x2="1487.5" y1="849.8281" y2="849.8281"/><ellipse cx="584.5" cy="860.8281" fill="#84BE84" rx="3" ry="3" style="stroke:#038048;stroke-width:1.0;"/><text fill="#000000" font-family="sans-serif" font-size="14" lengthAdjust="spacing" textLength="383" x="593.5" y="868.3613">GetById(ctx context.Context, id uuid.UUID) (EntityType, error)</text><line style="stroke:#181818;stroke-width:1.0;" x1="574.5" x2="1487.5" y1="875.4375" y2="875.4375"/><ellipse cx="584.5" cy="886.4375" fill="#84BE84" rx="3" ry="3" style="stroke:#038048;stroke-width:1.0;"/><text fill="#000000" font-family="sans-serif" font-size="14" lengthAdjust="spacing" textLength="406" x="593.5" y="893.9707">Update(ctx context.Context, entity EntityType) (EntityType, error)</text><line style="stroke:#181818;stroke-width:1.0;" x1="574.5" x2="1487.5" y1="901.0469" y2="901.0469"/><ellipse cx="584.5" cy="912.0469" fill="#84BE84" rx="3" ry="3" style="stroke:#038048;stroke-width:1.0;"/><text fill="#000000" font-family="sans-serif" font-size="14" lengthAdjust="spacing" textLength="396" x="593.5" y="919.5801">Insert(ctx context.Context, entity EntityType) (EntityType, error)</text><line style="stroke:#181818;stroke-width:1.0;" x1="574.5" x2="1487.5" y1="926.6563" y2="926.6563"/><ellipse cx="584.5" cy="937.6563" fill="#84BE84" rx="3" ry="3" style="stroke:#038048;stroke-width:1.0;"/><text fill="#000000" font-family="sans-serif" font-size="14" lengthAdjust="spacing" textLength="289" x="593.5" y="945.1895">Delete(ctx context.Context, id uuid.UUID) error</text><line style="stroke:#181818;stroke-width:1.0;" x1="574.5" x2="1487.5" y1="952.2656" y2="952.2656"/><ellipse cx="584.5" cy="963.2656" fill="#84BE84" rx="3" ry="3" style="stroke:#038048;stroke-width:1.0;"/><text fill="#000000" font-family="sans-serif" font-size="14" lengthAdjust="spacing" textLength="99" x="593.5" y="970.7988">CloseDb() error</text></g><path d="M195.5,714 L195.5,740.3516 A0,0 0 0 0 195.5,740.3516 L489.5,740.3516 A0,0 0 0 0 489.5,740.3516 L489.5,732 L577.5,785.8047 L489.5,724 L489.5,724 L479.5,714 L195.5,714 A0,0 0 0 0 195.5,714 " fill="#FEFFDD" style="stroke:#181818;stroke-width:0.5;"/><path d="M479.5,714 L479.5,724 L489.5,724 L479.5,714 " fill="#FEFFDD" style="stroke:#181818;stroke-width:0.5;"/><text fill="#000000" font-family="sans-serif" font-size="13" lengthAdjust="spacing" textLength="273" x="201.5" y="732.4951">Get list of elements with filtering and pagination</text><path d="M195.5,750.3516 L195.5,776.7031 A0,0 0 0 0 195.5,776.7031 L405.5,776.7031 A0,0 0 0 0 405.5,776.7031 L405.5,768.3516 L577.5,811.4141 L405.5,760.3516 L405.5,760.3516 L395.5,750.3516 L195.5,750.3516 A0,0 0 0 0 195.5,750.3516 " fill="#FEFFDD" style="stroke:#181818;stroke-width:0.5;"/><path d="M395.5,750.3516 L395.5,760.3516 L405.5,760.3516 L395.5,750.3516 " fill="#FEFFDD" style="stroke:#181818;stroke-width:0.5;"/><text fill="#000000" font-family="sans-serif" font-size="13" lengthAdjust="spacing" textLength="189" x="201.5" y="768.8467">Get count of entities with filtering</text><path d="M195.5,786.7031 L195.5,813.0547 A0,0 0 0 0 195.5,813.0547 L431.5,813.0547 A0,0 0 0 0 431.5,813.0547 L431.5,804.7031 L577.5,837.0234 L431.5,796.7031 L431.5,796.7031 L421.5,786.7031 L195.5,786.7031 A0,0 0 0 0 195.5,786.7031 " fill="#FEFFDD" style="stroke:#181818;stroke-width:0.5;"/><path d="M421.5,786.7031 L421.5,796.7031 L431.5,796.7031 L421.5,786.7031 " fill="#FEFFDD" style="stroke:#181818;stroke-width:0.5;"/><text fill="#000000" font-family="sans-serif" font-size="13" lengthAdjust="spacing" textLength="215" x="201.5" y="805.1982">Get new instance of the query builder</text><path d="M195.5,823.0547 L195.5,849.4063 A0,0 0 0 0 195.5,849.4063 L397.5,849.4063 A0,0 0 0 0 397.5,849.4063 L397.5,841.0547 L577.5,862.6328 L397.5,833.0547 L397.5,833.0547 L387.5,823.0547 L195.5,823.0547 A0,0 0 0 0 195.5,823.0547 " fill="#FEFFDD" style="stroke:#181818;stroke-width:0.5;"/><path d="M387.5,823.0547 L387.5,833.0547 L397.5,833.0547 L387.5,823.0547 " fill="#FEFFDD" style="stroke:#181818;stroke-width:0.5;"/><text fill="#000000" font-family="sans-serif" font-size="13" lengthAdjust="spacing" textLength="181" x="201.5" y="841.5498">Get entity by ID from repository</text><path d="M195.5,859.4063 L195.5,885.7578 A0,0 0 0 0 195.5,885.7578 L538.5,885.7578 A0,0 0 0 0 538.5,885.7578 L538.5,877.4063 L577.5,888.2422 L538.5,869.4063 L538.5,869.4063 L528.5,859.4063 L195.5,859.4063 A0,0 0 0 0 195.5,859.4063 " fill="#FEFFDD" style="stroke:#181818;stroke-width:0.5;"/><path d="M528.5,859.4063 L528.5,869.4063 L538.5,869.4063 L528.5,859.4063 " fill="#FEFFDD" style="stroke:#181818;stroke-width:0.5;"/><text fill="#000000" font-family="sans-serif" font-size="13" lengthAdjust="spacing" textLength="322" x="201.5" y="877.9014">Save the changes to the existing entity in the repository</text><path d="M195.5,895.7578 L195.5,922.1094 A0,0 0 0 0 195.5,922.1094 L373.5,922.1094 A0,0 0 0 0 373.5,922.1094 L373.5,913.7578 L577.5,913.8516 L373.5,905.7578 L373.5,905.7578 L363.5,895.7578 L195.5,895.7578 A0,0 0 0 0 195.5,895.7578 " fill="#FEFFDD" style="stroke:#181818;stroke-width:0.5;"/><path d="M363.5,895.7578 L363.5,905.7578 L373.5,905.7578 L363.5,895.7578 " fill="#FEFFDD" style="stroke:#181818;stroke-width:0.5;"/><text fill="#000000" font-family="sans-serif" font-size="13" lengthAdjust="spacing" textLength="157" x="201.5" y="914.2529">Add entity to the repository</text><path d="M195.5,932.1094 L195.5,958.4609 A0,0 0 0 0 195.5,958.4609 L397.5,958.4609 A0,0 0 0 0 397.5,958.4609 L397.5,950.1094 L577.5,939.4609 L397.5,942.1094 L397.5,942.1094 L387.5,932.1094 L195.5,932.1094 A0,0 0 0 0 195.5,932.1094 " fill="#FEFFDD" style="stroke:#181818;stroke-width:0.5;"/><path d="M387.5,932.1094 L387.5,942.1094 L397.5,942.1094 L387.5,932.1094 " fill="#FEFFDD" style="stroke:#181818;stroke-width:0.5;"/><text fill="#000000" font-family="sans-serif" font-size="13" lengthAdjust="spacing" textLength="181" x="201.5" y="950.6045">Delete entity from the database</text><path d="M195.5,968.4609 L195.5,994.8125 A0,0 0 0 0 195.5,994.8125 L424.5,994.8125 A0,0 0 0 0 424.5,994.8125 L424.5,986.4609 L577.5,965.0703 L424.5,978.4609 L424.5,978.4609 L414.5,968.4609 L195.5,968.4609 A0,0 0 0 0 195.5,968.4609 " fill="#FEFFDD" style="stroke:#181818;stroke-width:0.5;"/><path d="M414.5,968.4609 L414.5,978.4609 L424.5,978.4609 L414.5,968.4609 " fill="#FEFFDD" style="stroke:#181818;stroke-width:0.5;"/><text fill="#000000" font-family="sans-serif" font-size="13" lengthAdjust="spacing" textLength="208" x="201.5" y="986.9561">Closes current database connection</text><!--MD5=[c2fde9c784a62a3ac087d43827625e00]
class EthernetSwitchService--><g id="elem_EthernetSwitchService"><rect codeLine="12" fill="#F1F1F1" height="364.9219" id="EthernetSwitchService" rx="2.5" ry="2.5" style="stroke:#181818;stroke-width:0.5;" width="1090" x="746" y="1069"/><ellipse cx="1216.25" cy="1085" fill="#ADD1B2" rx="11" ry="11" style="stroke:#181818;stroke-width:1.0;"/><path d="M1219.0156,1080.875 Q1219.1719,1080.6563 1219.3594,1080.5469 Q1219.5469,1080.4375 1219.7656,1080.4375 Q1220.1406,1080.4375 1220.375,1080.7031 Q1220.6094,1080.9531 1220.6094,1081.5625 L1220.6094,1083.0156 Q1220.6094,1083.625 1220.375,1083.8906 Q1220.1406,1084.1563 1219.7656,1084.1563 Q1219.4219,1084.1563 1219.2188,1083.9531 Q1219.0156,1083.7656 1218.9063,1083.25 Q1218.8594,1082.8906 1218.6719,1082.7031 Q1218.3438,1082.3281 1217.7344,1082.1094 Q1217.125,1081.8906 1216.5,1081.8906 Q1215.7344,1081.8906 1215.0938,1082.2188 Q1214.4688,1082.5469 1213.9688,1083.2969 Q1213.4844,1084.0469 1213.4844,1085.0781 L1213.4844,1086.1719 Q1213.4844,1087.4063 1214.375,1088.2344 Q1215.2656,1089.0469 1216.8594,1089.0469 Q1217.7969,1089.0469 1218.4531,1088.7969 Q1218.8438,1088.6406 1219.2656,1088.2031 Q1219.5313,1087.9375 1219.6719,1087.8594 Q1219.8281,1087.7813 1220.0313,1087.7813 Q1220.3594,1087.7813 1220.6094,1088.0469 Q1220.875,1088.2969 1220.875,1088.6406 Q1220.875,1088.9844 1220.5313,1089.3906 Q1220.0313,1089.9688 1219.2344,1090.2969 Q1218.1563,1090.75 1216.8594,1090.75 Q1215.3438,1090.75 1214.1406,1090.125 Q1213.1563,1089.625 1212.4688,1088.5625 Q1211.7813,1087.4844 1211.7813,1086.2031 L1211.7813,1085.0469 Q1211.7813,1083.7188 1212.3906,1082.5781 Q1213.0156,1081.4219 1214.1094,1080.8125 Q1215.2031,1080.1875 1216.4375,1080.1875 Q1217.1719,1080.1875 1217.8125,1080.3594 Q1218.4688,1080.5156 1219.0156,1080.875 Z " fill="#000000"/><text fill="#000000" font-family="sans-serif" font-size="14" lengthAdjust="spacing" textLength="141" x="1236.75" y="1090.7285">EthernetSwitchService</text><line style="stroke:#181818;stroke-width:0.5;" x1="747" x2="1835" y1="1101" y2="1101"/><rect fill="none" height="6" style="stroke:#C82930;stroke-width:1.0;" width="6" x="754" y="1109"/><text fill="#000000" font-family="sans-serif" font-size="14" lengthAdjust="spacing" textLength="415" x="766" y="1119.5332">switchRepo interfaces.IGenericRepository[domain.EthernetSwitch]</text><line style="stroke:#181818;stroke-width:1.0;" x1="747" x2="1835" y1="1126.6094" y2="1126.6094"/><rect fill="none" height="6" style="stroke:#C82930;stroke-width:1.0;" width="6" x="754" y="1134.6094"/><text fill="#000000" font-family="sans-serif" font-size="14" lengthAdjust="spacing" textLength="428" x="766" y="1145.1426">portRepo interfaces.IGenericRepository[domain.EthernetSwitchPort]</text><line style="stroke:#181818;stroke-width:1.0;" x1="747" x2="1835" y1="1152.2188" y2="1152.2188"/><ellipse cx="757" cy="1163.2188" fill="#84BE84" rx="3" ry="3" style="stroke:#038048;stroke-width:1.0;"/><text fill="#000000" font-family="sans-serif" font-size="14" lengthAdjust="spacing" textLength="902" x="766" y="1170.752">GetList(ctx context.Context, search, orderBy, orderDirection string, page, pageSize int) (dtos.PaginatedItemsDto[dtos.EthernetSwitchDto], error)</text><line style="stroke:#181818;stroke-width:1.0;" x1="747" x2="1835" y1="1177.8281" y2="1177.8281"/><ellipse cx="757" cy="1188.8281" fill="#84BE84" rx="3" ry="3" style="stroke:#038048;stroke-width:1.0;"/><text fill="#000000" font-family="sans-serif" font-size="14" lengthAdjust="spacing" textLength="465" x="766" y="1196.3613">GetByID(ctx context.Context, id uuid.UUID) (dtos.EthernetSwitchDto, error)</text><line style="stroke:#181818;stroke-width:1.0;" x1="747" x2="1835" y1="1203.4375" y2="1203.4375"/><ellipse cx="757" cy="1214.4375" fill="#84BE84" rx="3" ry="3" style="stroke:#038048;stroke-width:1.0;"/><text fill="#000000" font-family="sans-serif" font-size="14" lengthAdjust="spacing" textLength="635" x="766" y="1221.9707">Create(ctx context.Context, createDto dtos.EthernetSwitchCreateDto) (dtos.EthernetSwitchDto, error)</text><line style="stroke:#181818;stroke-width:1.0;" x1="747" x2="1835" y1="1229.0469" y2="1229.0469"/><ellipse cx="757" cy="1240.0469" fill="#84BE84" rx="3" ry="3" style="stroke:#038048;stroke-width:1.0;"/><text fill="#000000" font-family="sans-serif" font-size="14" lengthAdjust="spacing" textLength="728" x="766" y="1247.5801">Update(ctx context.Context, updateDto dtos.EthernetSwitchUpdateDto, id uuid.UUID) (dtos.EthernetSwitchDto, error)</text><line style="stroke:#181818;stroke-width:1.0;" x1="747" x2="1835" y1="1254.6563" y2="1254.6563"/><ellipse cx="757" cy="1265.6563" fill="#84BE84" rx="3" ry="3" style="stroke:#038048;stroke-width:1.0;"/><text fill="#000000" font-family="sans-serif" font-size="14" lengthAdjust="spacing" textLength="289" x="766" y="1273.1895">Delete(ctx context.Context, id uuid.UUID) error</text><line style="stroke:#181818;stroke-width:1.0;" x1="747" x2="1835" y1="1280.2656" y2="1280.2656"/><ellipse cx="757" cy="1291.2656" fill="#84BE84" rx="3" ry="3" style="stroke:#038048;stroke-width:1.0;"/><text fill="#000000" font-family="sans-serif" font-size="14" lengthAdjust="spacing" textLength="341" x="766" y="1298.7988">GetSupportedModels() []dtos.EthernetSwitchModelDto</text><line style="stroke:#181818;stroke-width:1.0;" x1="747" x2="1835" y1="1305.875" y2="1305.875"/><ellipse cx="757" cy="1316.875" fill="#84BE84" rx="3" ry="3" style="stroke:#038048;stroke-width:1.0;"/><text fill="#000000" font-family="sans-serif" font-size="14" lengthAdjust="spacing" textLength="576" x="766" y="1324.4082">GetPortByID(ctx context.Context, switchID, id uuid.UUID) (dtos.EthernetSwitchPortDto, error)</text><line style="stroke:#181818;stroke-width:1.0;" x1="747" x2="1835" y1="1331.4844" y2="1331.4844"/><ellipse cx="757" cy="1342.4844" fill="#84BE84" rx="3" ry="3" style="stroke:#038048;stroke-width:1.0;"/><text fill="#000000" font-family="sans-serif" font-size="14" lengthAdjust="spacing" textLength="838" x="766" y="1350.0176">CreatePort(ctx context.Context, switchID uuid.UUID, createDto dtos.EthernetSwitchPortCreateDto) (dtos.EthernetSwitchPortDto, error)</text><line style="stroke:#181818;stroke-width:1.0;" x1="747" x2="1835" y1="1357.0938" y2="1357.0938"/><ellipse cx="757" cy="1368.0938" fill="#84BE84" rx="3" ry="3" style="stroke:#038048;stroke-width:1.0;"/><text fill="#000000" font-family="sans-serif" font-size="14" lengthAdjust="spacing" textLength="865" x="766" y="1375.627">UpdatePort(ctx context.Context, switchID, id uuid.UUID, updateDto dtos.EthernetSwitchPortUpdateDto) (dtos.EthernetSwitchPortDto, error)</text><line style="stroke:#181818;stroke-width:1.0;" x1="747" x2="1835" y1="1382.7031" y2="1382.7031"/><ellipse cx="757" cy="1393.7031" fill="#84BE84" rx="3" ry="3" style="stroke:#038048;stroke-width:1.0;"/><text fill="#000000" font-family="sans-serif" font-size="14" lengthAdjust="spacing" textLength="1064" x="766" y="1401.2363">GetPorts(ctx context.Context, switchID uuid.UUID, search, orderBy, orderDirection string, page, pageSize int) (dtos.PaginatedItemsDto[dtos.EthernetSwitchPortDto], error)</text><line style="stroke:#181818;stroke-width:1.0;" x1="747" x2="1835" y1="1408.3125" y2="1408.3125"/><ellipse cx="757" cy="1419.3125" fill="#84BE84" rx="3" ry="3" style="stroke:#038048;stroke-width:1.0;"/><text fill="#000000" font-family="sans-serif" font-size="14" lengthAdjust="spacing" textLength="374" x="766" y="1426.8457">DeletePort(ctx context.Context, switchID, id uuid.UUID) error</text></g><path d="M371,1232.5 L371,1258.8516 A0,0 0 0 0 371,1258.8516 L703,1258.8516 A0,0 0 0 0 703,1258.8516 L703,1250.5 L750,1293.0703 L703,1242.5 L703,1242.5 L693,1232.5 L371,1232.5 A0,0 0 0 0 371,1232.5 " fill="#FEFFDD" style="stroke:#181818;stroke-width:0.5;"/><path d="M693,1232.5 L693,1242.5 L703,1242.5 L693,1232.5 " fill="#FEFFDD" style="stroke:#181818;stroke-width:0.5;"/><text fill="#000000" font-family="sans-serif" font-size="13" lengthAdjust="spacing" textLength="311" x="377" y="1250.9951">Get ethernet switch models that supported by system</text><g id="elem_GMN651"><path d="M22,1213 L22,1288.4063 L336,1288.4063 L336,1223 L326,1213 L22,1213 " fill="#FEFFDD" style="stroke:#181818;stroke-width:0.5;"/><path d="M326,1213 L326,1223 L336,1223 L326,1213 " fill="#FEFFDD" style="stroke:#181818;stroke-width:1.0;"/><text fill="#000000" font-family="sans-serif" font-size="13" lengthAdjust="spacing" textLength="293" x="28" y="1231.4951">Advanced business logic for EthernetSwitch entity:</text><text fill="#000000" font-family="sans-serif" font-size="13" lengthAdjust="spacing" textLength="87" x="28" y="1247.8467">DTO Validation</text><text fill="#000000" font-family="sans-serif" font-size="13" lengthAdjust="spacing" textLength="249" x="28" y="1264.1982">Checking the uniqueness of serial numbers</text><text fill="#000000" font-family="sans-serif" font-size="13" lengthAdjust="spacing" textLength="224" x="28" y="1280.5498">Checking the uniqueness of addresses</text></g><g id="elem_EthernetSwitchServiceTypes"><path d="M1152.5,1496 L1152.5,1571.4063 L1429.5,1571.4063 L1429.5,1506 L1419.5,1496 L1152.5,1496 " fill="#FEFFDD" style="stroke:#181818;stroke-width:0.5;"/><path d="M1419.5,1496 L1419.5,1506 L1429.5,1506 L1419.5,1496 " fill="#FEFFDD" style="stroke:#181818;stroke-width:1.0;"/><text fill="#000000" font-family="sans-serif" font-size="13" lengthAdjust="spacing" textLength="168" x="1158.5" y="1514.4951">EntityType is EthernetSwitch</text><text fill="#000000" font-family="sans-serif" font-size="13" lengthAdjust="spacing" textLength="250" x="1158.5" y="1530.8467">CreateDtoType is EthernetSwitchCreateDto</text><text fill="#000000" font-family="sans-serif" font-size="13" lengthAdjust="spacing" textLength="256" x="1158.5" y="1547.1982">UpdateDtoType is EthernetSwitchUpdateDto</text><text fill="#000000" font-family="sans-serif" font-size="13" lengthAdjust="spacing" textLength="174" x="1158.5" y="1563.5498">DtoType is EthernetSwitchDto</text></g><!--MD5=[be996cdb8e6bf2fc7cb89c555f2cd144]
class Entity--><g id="elem_Entity"><rect codeLine="5" fill="#F1F1F1" height="134.4375" id="Entity" rx="2.5" ry="2.5" style="stroke:#181818;stroke-width:0.5;" width="283" x="295.5" y="396"/><ellipse cx="415.25" cy="412" fill="#ADD1B2" rx="11" ry="11" style="stroke:#181818;stroke-width:1.0;"/><path d="M418.0156,407.875 Q418.1719,407.6563 418.3594,407.5469 Q418.5469,407.4375 418.7656,407.4375 Q419.1406,407.4375 419.375,407.7031 Q419.6094,407.9531 419.6094,408.5625 L419.6094,410.0156 Q419.6094,410.625 419.375,410.8906 Q419.1406,411.1563 418.7656,411.1563 Q418.4219,411.1563 418.2188,410.9531 Q418.0156,410.7656 417.9063,410.25 Q417.8594,409.8906 417.6719,409.7031 Q417.3438,409.3281 416.7344,409.1094 Q416.125,408.8906 415.5,408.8906 Q414.7344,408.8906 414.0938,409.2188 Q413.4688,409.5469 412.9688,410.2969 Q412.4844,411.0469 412.4844,412.0781 L412.4844,413.1719 Q412.4844,414.4063 413.375,415.2344 Q414.2656,416.0469 415.8594,416.0469 Q416.7969,416.0469 417.4531,415.7969 Q417.8438,415.6406 418.2656,415.2031 Q418.5313,414.9375 418.6719,414.8594 Q418.8281,414.7813 419.0313,414.7813 Q419.3594,414.7813 419.6094,415.0469 Q419.875,415.2969 419.875,415.6406 Q419.875,415.9844 419.5313,416.3906 Q419.0313,416.9688 418.2344,417.2969 Q417.1563,417.75 415.8594,417.75 Q414.3438,417.75 413.1406,417.125 Q412.1563,416.625 411.4688,415.5625 Q410.7813,414.4844 410.7813,413.2031 L410.7813,412.0469 Q410.7813,410.7188 411.3906,409.5781 Q412.0156,408.4219 413.1094,407.8125 Q414.2031,407.1875 415.4375,407.1875 Q416.1719,407.1875 416.8125,407.3594 Q417.4688,407.5156 418.0156,407.875 Z " fill="#000000"/><text fill="#000000" font-family="sans-serif" font-size="14" lengthAdjust="spacing" textLength="35" x="435.75" y="417.7285">Entity</text><line style="stroke:#181818;stroke-width:0.5;" x1="296.5" x2="577.5" y1="428" y2="428"/><ellipse cx="306.5" cy="439" fill="none" rx="3" ry="3" style="stroke:#038048;stroke-width:1.0;"/><text fill="#000000" font-family="sans-serif" font-size="14" lengthAdjust="spacing" textLength="208" x="315.5" y="446.5332">ID uuid.UUID `gorm:"primarykey"`</text><line style="stroke:#181818;stroke-width:1.0;" x1="296.5" x2="577.5" y1="453.6094" y2="453.6094"/><ellipse cx="306.5" cy="464.6094" fill="none" rx="3" ry="3" style="stroke:#038048;stroke-width:1.0;"/><text fill="#000000" font-family="sans-serif" font-size="14" lengthAdjust="spacing" textLength="222" x="315.5" y="472.1426">CreatedAt time.Time `gorm:"index"`</text><line style="stroke:#181818;stroke-width:1.0;" x1="296.5" x2="577.5" y1="479.2188" y2="479.2188"/><ellipse cx="306.5" cy="490.2188" fill="none" rx="3" ry="3" style="stroke:#038048;stroke-width:1.0;"/><text fill="#000000" font-family="sans-serif" font-size="14" lengthAdjust="spacing" textLength="224" x="315.5" y="497.752">UpdatedAt time.Time `gorm:"index"`</text><line style="stroke:#181818;stroke-width:1.0;" x1="296.5" x2="577.5" y1="504.8281" y2="504.8281"/><ellipse cx="306.5" cy="515.8281" fill="none" rx="3" ry="3" style="stroke:#038048;stroke-width:1.0;"/><text fill="#000000" font-family="sans-serif" font-size="14" lengthAdjust="spacing" textLength="257" x="315.5" y="523.3613">DeletedAt gorm.DeletedAt `gorm:"index"`</text></g><!--MD5=[0e6027363d26940633b9df7c844e683a]
class EthernetSwitch--><g id="elem_EthernetSwitch"><rect codeLine="5" fill="#F1F1F1" height="185.6563" id="EthernetSwitch" rx="2.5" ry="2.5" style="stroke:#181818;stroke-width:0.5;" width="143" x="764.5" y="150"/><ellipse cx="787.15" cy="166" fill="#ADD1B2" rx="11" ry="11" style="stroke:#181818;stroke-width:1.0;"/><path d="M789.9156,161.875 Q790.0719,161.6563 790.2594,161.5469 Q790.4469,161.4375 790.6656,161.4375 Q791.0406,161.4375 791.275,161.7031 Q791.5094,161.9531 791.5094,162.5625 L791.5094,164.0156 Q791.5094,164.625 791.275,164.8906 Q791.0406,165.1563 790.6656,165.1563 Q790.3219,165.1563 790.1188,164.9531 Q789.9156,164.7656 789.8063,164.25 Q789.7594,163.8906 789.5719,163.7031 Q789.2438,163.3281 788.6344,163.1094 Q788.025,162.8906 787.4,162.8906 Q786.6344,162.8906 785.9938,163.2188 Q785.3688,163.5469 784.8688,164.2969 Q784.3844,165.0469 784.3844,166.0781 L784.3844,167.1719 Q784.3844,168.4063 785.275,169.2344 Q786.1656,170.0469 787.7594,170.0469 Q788.6969,170.0469 789.3531,169.7969 Q789.7438,169.6406 790.1656,169.2031 Q790.4313,168.9375 790.5719,168.8594 Q790.7281,168.7813 790.9313,168.7813 Q791.2594,168.7813 791.5094,169.0469 Q791.775,169.2969 791.775,169.6406 Q791.775,169.9844 791.4313,170.3906 Q790.9313,170.9688 790.1344,171.2969 Q789.0563,171.75 787.7594,171.75 Q786.2438,171.75 785.0406,171.125 Q784.0563,170.625 783.3688,169.5625 Q782.6813,168.4844 782.6813,167.2031 L782.6813,166.0469 Q782.6813,164.7188 783.2906,163.5781 Q783.9156,162.4219 785.0094,161.8125 Q786.1031,161.1875 787.3375,161.1875 Q788.0719,161.1875 788.7125,161.3594 Q789.3688,161.5156 789.9156,161.875 Z " fill="#000000"/><text fill="#000000" font-family="sans-serif" font-size="14" lengthAdjust="spacing" textLength="94" x="802.85" y="171.7285">EthernetSwitch</text><line style="stroke:#181818;stroke-width:0.5;" x1="765.5" x2="906.5" y1="182" y2="182"/><ellipse cx="775.5" cy="193" fill="none" rx="3" ry="3" style="stroke:#038048;stroke-width:1.0;"/><text fill="#000000" font-family="sans-serif" font-size="14" lengthAdjust="spacing" textLength="75" x="784.5" y="200.5332">Name string</text><line style="stroke:#181818;stroke-width:1.0;" x1="765.5" x2="906.5" y1="207.6094" y2="207.6094"/><ellipse cx="775.5" cy="218.6094" fill="none" rx="3" ry="3" style="stroke:#038048;stroke-width:1.0;"/><text fill="#000000" font-family="sans-serif" font-size="14" lengthAdjust="spacing" textLength="75" x="784.5" y="226.1426">Serial string</text><line style="stroke:#181818;stroke-width:1.0;" x1="765.5" x2="906.5" y1="233.2188" y2="233.2188"/><ellipse cx="775.5" cy="244.2188" fill="none" rx="3" ry="3" style="stroke:#038048;stroke-width:1.0;"/><text fill="#000000" font-family="sans-serif" font-size="14" lengthAdjust="spacing" textLength="117" x="784.5" y="251.752">SwitchModel string</text><line style="stroke:#181818;stroke-width:1.0;" x1="765.5" x2="906.5" y1="258.8281" y2="258.8281"/><ellipse cx="775.5" cy="269.8281" fill="none" rx="3" ry="3" style="stroke:#038048;stroke-width:1.0;"/><text fill="#000000" font-family="sans-serif" font-size="14" lengthAdjust="spacing" textLength="91" x="784.5" y="277.3613">Address string</text><line style="stroke:#181818;stroke-width:1.0;" x1="765.5" x2="906.5" y1="284.4375" y2="284.4375"/><ellipse cx="775.5" cy="295.4375" fill="none" rx="3" ry="3" style="stroke:#038048;stroke-width:1.0;"/><text fill="#000000" font-family="sans-serif" font-size="14" lengthAdjust="spacing" textLength="103" x="784.5" y="302.9707">Username string</text><line style="stroke:#181818;stroke-width:1.0;" x1="765.5" x2="906.5" y1="310.0469" y2="310.0469"/><ellipse cx="775.5" cy="321.0469" fill="none" rx="3" ry="3" style="stroke:#038048;stroke-width:1.0;"/><text fill="#000000" font-family="sans-serif" font-size="14" lengthAdjust="spacing" textLength="100" x="784.5" y="328.5801">Password string</text></g><path d="M571,198.5 L571,224.8516 A0,0 0 0 0 571,224.8516 L632,224.8516 A0,0 0 0 0 632,224.8516 L632,216.5 L768.5,220.4141 L632,208.5 L632,208.5 L622,198.5 L571,198.5 A0,0 0 0 0 571,198.5 " fill="#FEFFDD" style="stroke:#181818;stroke-width:0.5;"/><path d="M622,198.5 L622,208.5 L632,208.5 L622,198.5 " fill="#FEFFDD" style="stroke:#181818;stroke-width:0.5;"/><text fill="#000000" font-family="sans-serif" font-size="13" lengthAdjust="spacing" textLength="40" x="577" y="216.9951">Unique</text><path d="M571,234.8516 L571,277.5547 A0,0 0 0 0 571,277.5547 L729,277.5547 A0,0 0 0 0 729,277.5547 L729,260.2031 L768.5,271.6328 L729,252.2031 L729,244.8516 L719,234.8516 L571,234.8516 A0,0 0 0 0 571,234.8516 " fill="#FEFFDD" style="stroke:#181818;stroke-width:0.5;"/><path d="M719,234.8516 L719,244.8516 L729,244.8516 L719,234.8516 " fill="#FEFFDD" style="stroke:#181818;stroke-width:0.5;"/><text fill="#000000" font-family="sans-serif" font-size="13" lengthAdjust="spacing" textLength="40" x="577" y="253.3467">Unique</text><text fill="#000000" font-family="sans-serif" font-size="13" lengthAdjust="spacing" textLength="137" x="577" y="269.6982">Ip address of the switch</text><!--MD5=[a0c76383944e982ee35488825d35b1c9]
class EthernetSwitchPort--><g id="elem_EthernetSwitchPort"><rect codeLine="5" fill="#F1F1F1" height="108.8281" id="EthernetSwitchPort" rx="2.5" ry="2.5" style="stroke:#181818;stroke-width:0.5;" width="197" x="338.5" y="188.5"/><ellipse cx="373.75" cy="204.5" fill="#ADD1B2" rx="11" ry="11" style="stroke:#181818;stroke-width:1.0;"/><path d="M376.5156,200.375 Q376.6719,200.1563 376.8594,200.0469 Q377.0469,199.9375 377.2656,199.9375 Q377.6406,199.9375 377.875,200.2031 Q378.1094,200.4531 378.1094,201.0625 L378.1094,202.5156 Q378.1094,203.125 377.875,203.3906 Q377.6406,203.6563 377.2656,203.6563 Q376.9219,203.6563 376.7188,203.4531 Q376.5156,203.2656 376.4063,202.75 Q376.3594,202.3906 376.1719,202.2031 Q375.8438,201.8281 375.2344,201.6094 Q374.625,201.3906 374,201.3906 Q373.2344,201.3906 372.5938,201.7188 Q371.9688,202.0469 371.4688,202.7969 Q370.9844,203.5469 370.9844,204.5781 L370.9844,205.6719 Q370.9844,206.9063 371.875,207.7344 Q372.7656,208.5469 374.3594,208.5469 Q375.2969,208.5469 375.9531,208.2969 Q376.3438,208.1406 376.7656,207.7031 Q377.0313,207.4375 377.1719,207.3594 Q377.3281,207.2813 377.5313,207.2813 Q377.8594,207.2813 378.1094,207.5469 Q378.375,207.7969 378.375,208.1406 Q378.375,208.4844 378.0313,208.8906 Q377.5313,209.4688 376.7344,209.7969 Q375.6563,210.25 374.3594,210.25 Q372.8438,210.25 371.6406,209.625 Q370.6563,209.125 369.9688,208.0625 Q369.2813,206.9844 369.2813,205.7031 L369.2813,204.5469 Q369.2813,203.2188 369.8906,202.0781 Q370.5156,200.9219 371.6094,200.3125 Q372.7031,199.6875 373.9375,199.6875 Q374.6719,199.6875 375.3125,199.8594 Q375.9688,200.0156 376.5156,200.375 Z " fill="#000000"/><text fill="#000000" font-family="sans-serif" font-size="14" lengthAdjust="spacing" textLength="120" x="392.25" y="210.2285">EthernetSwitchPort</text><line style="stroke:#181818;stroke-width:0.5;" x1="339.5" x2="534.5" y1="220.5" y2="220.5"/><ellipse cx="349.5" cy="231.5" fill="none" rx="3" ry="3" style="stroke:#038048;stroke-width:1.0;"/><text fill="#000000" font-family="sans-serif" font-size="14" lengthAdjust="spacing" textLength="171" x="358.5" y="239.0332">EthernetSwitchId uuid.UUID</text><line style="stroke:#181818;stroke-width:1.0;" x1="339.5" x2="534.5" y1="246.1094" y2="246.1094"/><ellipse cx="349.5" cy="257.1094" fill="none" rx="3" ry="3" style="stroke:#038048;stroke-width:1.0;"/><text fill="#000000" font-family="sans-serif" font-size="14" lengthAdjust="spacing" textLength="100" x="358.5" y="264.6426">POEType string</text><line style="stroke:#181818;stroke-width:1.0;" x1="339.5" x2="534.5" y1="271.7188" y2="271.7188"/><ellipse cx="349.5" cy="282.7188" fill="none" rx="3" ry="3" style="stroke:#038048;stroke-width:1.0;"/><text fill="#000000" font-family="sans-serif" font-size="14" lengthAdjust="spacing" textLength="75" x="358.5" y="290.252">Name string</text></g><path d="M36.5,198.5 L36.5,241.2031 A0,0 0 0 0 36.5,241.2031 L303.5,241.2031 A0,0 0 0 0 303.5,241.2031 L303.5,223.8516 L342.5,258.9141 L303.5,215.8516 L303.5,208.5 L293.5,198.5 L36.5,198.5 A0,0 0 0 0 36.5,198.5 " fill="#FEFFDD" style="stroke:#181818;stroke-width:0.5;"/><path d="M293.5,198.5 L293.5,208.5 L303.5,208.5 L293.5,198.5 " fill="#FEFFDD" style="stroke:#181818;stroke-width:0.5;"/><text fill="#000000" font-family="sans-serif" font-size="13" lengthAdjust="spacing" textLength="83" x="42.5" y="216.9951">POE port type</text><text fill="#000000" font-family="sans-serif" font-size="13" lengthAdjust="spacing" textLength="246" x="42.5" y="233.3467">can be: "poe", "poe+", "passive24", "none"</text><path d="M36.5,251.2031 L36.5,277.5547 A0,0 0 0 0 36.5,277.5547 L186.5,277.5547 A0,0 0 0 0 186.5,277.5547 L186.5,269.2031 L342.5,284.5234 L186.5,261.2031 L186.5,261.2031 L176.5,251.2031 L36.5,251.2031 A0,0 0 0 0 36.5,251.2031 " fill="#FEFFDD" style="stroke:#181818;stroke-width:0.5;"/><path d="M176.5,251.2031 L176.5,261.2031 L186.5,261.2031 L176.5,251.2031 " fill="#FEFFDD" style="stroke:#181818;stroke-width:0.5;"/><text fill="#000000" font-family="sans-serif" font-size="13" lengthAdjust="spacing" textLength="129" x="42.5" y="269.6982">Unique within 1 switch</text><!--MD5=[27abfb56f32eefa7f07c83348fb1ee32]
class GormGenericRepository--><g id="elem_GormGenericRepository"><rect codeLine="5" fill="#F1F1F1" height="48" id="GormGenericRepository" rx="2.5" ry="2.5" style="stroke:#181818;stroke-width:0.5;" width="246" x="1184" y="590"/><ellipse cx="1199" cy="606" fill="#ADD1B2" rx="11" ry="11" style="stroke:#181818;stroke-width:1.0;"/><path d="M1201.7656,601.875 Q1201.9219,601.6563 1202.1094,601.5469 Q1202.2969,601.4375 1202.5156,601.4375 Q1202.8906,601.4375 1203.125,601.7031 Q1203.3594,601.9531 1203.3594,602.5625 L1203.3594,604.0156 Q1203.3594,604.625 1203.125,604.8906 Q1202.8906,605.1563 1202.5156,605.1563 Q1202.1719,605.1563 1201.9688,604.9531 Q1201.7656,604.7656 1201.6563,604.25 Q1201.6094,603.8906 1201.4219,603.7031 Q1201.0938,603.3281 1200.4844,603.1094 Q1199.875,602.8906 1199.25,602.8906 Q1198.4844,602.8906 1197.8438,603.2188 Q1197.2188,603.5469 1196.7188,604.2969 Q1196.2344,605.0469 1196.2344,606.0781 L1196.2344,607.1719 Q1196.2344,608.4063 1197.125,609.2344 Q1198.0156,610.0469 1199.6094,610.0469 Q1200.5469,610.0469 1201.2031,609.7969 Q1201.5938,609.6406 1202.0156,609.2031 Q1202.2813,608.9375 1202.4219,608.8594 Q1202.5781,608.7813 1202.7813,608.7813 Q1203.1094,608.7813 1203.3594,609.0469 Q1203.625,609.2969 1203.625,609.6406 Q1203.625,609.9844 1203.2813,610.3906 Q1202.7813,610.9688 1201.9844,611.2969 Q1200.9063,611.75 1199.6094,611.75 Q1198.0938,611.75 1196.8906,611.125 Q1195.9063,610.625 1195.2188,609.5625 Q1194.5313,608.4844 1194.5313,607.2031 L1194.5313,606.0469 Q1194.5313,604.7188 1195.1406,603.5781 Q1195.7656,602.4219 1196.8594,601.8125 Q1197.9531,601.1875 1199.1875,601.1875 Q1199.9219,601.1875 1200.5625,601.3594 Q1201.2188,601.5156 1201.7656,601.875 Z " fill="#000000"/><text fill="#000000" font-family="sans-serif" font-size="14" lengthAdjust="spacing" textLength="153" x="1213" y="611.7285">GormGenericRepository</text><rect fill="#FFFFFF" height="17.0938" style="stroke:#000000;stroke-width:1.0;stroke-dasharray:2.0,2.0;" width="59" x="1374" y="587"/><text fill="#000000" font-family="sans-serif" font-size="12" font-style="italic" lengthAdjust="spacing" textLength="57" x="1375" y="600.457">EntityType</text><line style="stroke:#181818;stroke-width:0.5;" x1="1185" x2="1429" y1="622" y2="622"/><line style="stroke:#181818;stroke-width:0.5;" x1="1185" x2="1429" y1="630" y2="630"/></g><!--MD5=[44d95913ec2b3ba897526465ba0cec4b]
class EthernetSwitchRepository--><g id="elem_EthernetSwitchRepository"><rect codeLine="6" fill="#F1F1F1" height="48" id="EthernetSwitchRepository" rx="2.5" ry="2.5" style="stroke:#181818;stroke-width:0.5;" width="194" x="1282" y="219"/><ellipse cx="1297" cy="235" fill="#ADD1B2" rx="11" ry="11" style="stroke:#181818;stroke-width:1.0;"/><path d="M1299.7656,230.875 Q1299.9219,230.6563 1300.1094,230.5469 Q1300.2969,230.4375 1300.5156,230.4375 Q1300.8906,230.4375 1301.125,230.7031 Q1301.3594,230.9531 1301.3594,231.5625 L1301.3594,233.0156 Q1301.3594,233.625 1301.125,233.8906 Q1300.8906,234.1563 1300.5156,234.1563 Q1300.1719,234.1563 1299.9688,233.9531 Q1299.7656,233.7656 1299.6563,233.25 Q1299.6094,232.8906 1299.4219,232.7031 Q1299.0938,232.3281 1298.4844,232.1094 Q1297.875,231.8906 1297.25,231.8906 Q1296.4844,231.8906 1295.8438,232.2188 Q1295.2188,232.5469 1294.7188,233.2969 Q1294.2344,234.0469 1294.2344,235.0781 L1294.2344,236.1719 Q1294.2344,237.4063 1295.125,238.2344 Q1296.0156,239.0469 1297.6094,239.0469 Q1298.5469,239.0469 1299.2031,238.7969 Q1299.5938,238.6406 1300.0156,238.2031 Q1300.2813,237.9375 1300.4219,237.8594 Q1300.5781,237.7813 1300.7813,237.7813 Q1301.1094,237.7813 1301.3594,238.0469 Q1301.625,238.2969 1301.625,238.6406 Q1301.625,238.9844 1301.2813,239.3906 Q1300.7813,239.9688 1299.9844,240.2969 Q1298.9063,240.75 1297.6094,240.75 Q1296.0938,240.75 1294.8906,240.125 Q1293.9063,239.625 1293.2188,238.5625 Q1292.5313,237.4844 1292.5313,236.2031 L1292.5313,235.0469 Q1292.5313,233.7188 1293.1406,232.5781 Q1293.7656,231.4219 1294.8594,230.8125 Q1295.9531,230.1875 1297.1875,230.1875 Q1297.9219,230.1875 1298.5625,230.3594 Q1299.2188,230.5156 1299.7656,230.875 Z " fill="#000000"/><text fill="#000000" font-family="sans-serif" font-size="14" lengthAdjust="spacing" textLength="162" x="1311" y="240.7285">EthernetSwitchRepository</text><line style="stroke:#181818;stroke-width:0.5;" x1="1283" x2="1475" y1="251" y2="251"/><line style="stroke:#181818;stroke-width:0.5;" x1="1283" x2="1475" y1="259" y2="259"/></g><g id="elem_EthernetSwitchTypeNote"><path d="M1212.5,450 L1212.5,476.3516 L1401.5,476.3516 L1401.5,460 L1391.5,450 L1212.5,450 " fill="#FEFFDD" style="stroke:#181818;stroke-width:0.5;"/><path d="M1391.5,450 L1391.5,460 L1401.5,460 L1391.5,450 " fill="#FEFFDD" style="stroke:#181818;stroke-width:1.0;"/><text fill="#000000" font-family="sans-serif" font-size="13" lengthAdjust="spacing" textLength="168" x="1218.5" y="468.4951">EntityType is EthernetSwitch</text></g><!--MD5=[08ca7a30bf9989fb15c0f21009c8ae57]
class EthernetSwitchPortRepository--><g id="elem_EthernetSwitchPortRepository"><rect codeLine="6" fill="#F1F1F1" height="48" id="EthernetSwitchPortRepository" rx="2.5" ry="2.5" style="stroke:#181818;stroke-width:0.5;" width="220" x="1196" y="42"/><ellipse cx="1211" cy="58" fill="#ADD1B2" rx="11" ry="11" style="stroke:#181818;stroke-width:1.0;"/><path d="M1213.7656,53.875 Q1213.9219,53.6563 1214.1094,53.5469 Q1214.2969,53.4375 1214.5156,53.4375 Q1214.8906,53.4375 1215.125,53.7031 Q1215.3594,53.9531 1215.3594,54.5625 L1215.3594,56.0156 Q1215.3594,56.625 1215.125,56.8906 Q1214.8906,57.1563 1214.5156,57.1563 Q1214.1719,57.1563 1213.9688,56.9531 Q1213.7656,56.7656 1213.6563,56.25 Q1213.6094,55.8906 1213.4219,55.7031 Q1213.0938,55.3281 1212.4844,55.1094 Q1211.875,54.8906 1211.25,54.8906 Q1210.4844,54.8906 1209.8438,55.2188 Q1209.2188,55.5469 1208.7188,56.2969 Q1208.2344,57.0469 1208.2344,58.0781 L1208.2344,59.1719 Q1208.2344,60.4063 1209.125,61.2344 Q1210.0156,62.0469 1211.6094,62.0469 Q1212.5469,62.0469 1213.2031,61.7969 Q1213.5938,61.6406 1214.0156,61.2031 Q1214.2813,60.9375 1214.4219,60.8594 Q1214.5781,60.7813 1214.7813,60.7813 Q1215.1094,60.7813 1215.3594,61.0469 Q1215.625,61.2969 1215.625,61.6406 Q1215.625,61.9844 1215.2813,62.3906 Q1214.7813,62.9688 1213.9844,63.2969 Q1212.9063,63.75 1211.6094,63.75 Q1210.0938,63.75 1208.8906,63.125 Q1207.9063,62.625 1207.2188,61.5625 Q1206.5313,60.4844 1206.5313,59.2031 L1206.5313,58.0469 Q1206.5313,56.7188 1207.1406,55.5781 Q1207.7656,54.4219 1208.8594,53.8125 Q1209.9531,53.1875 1211.1875,53.1875 Q1211.9219,53.1875 1212.5625,53.3594 Q1213.2188,53.5156 1213.7656,53.875 Z " fill="#000000"/><text fill="#000000" font-family="sans-serif" font-size="14" lengthAdjust="spacing" textLength="188" x="1225" y="63.7285">EthernetSwitchPortRepository</text><line style="stroke:#181818;stroke-width:0.5;" x1="1197" x2="1415" y1="74" y2="74"/><line style="stroke:#181818;stroke-width:0.5;" x1="1197" x2="1415" y1="82" y2="82"/></g><g id="elem_EthernetSwitchPortTypeNote"><path d="M964.5,450 L964.5,476.3516 L1177.5,476.3516 L1177.5,460 L1167.5,450 L964.5,450 " fill="#FEFFDD" style="stroke:#181818;stroke-width:0.5;"/><path d="M1167.5,450 L1167.5,460 L1177.5,460 L1167.5,450 " fill="#FEFFDD" style="stroke:#181818;stroke-width:1.0;"/><text fill="#000000" font-family="sans-serif" font-size="13" lengthAdjust="spacing" textLength="192" x="970.5" y="468.4951">EntityType is EthernetSwitchPort</text></g><!--MD5=[4f15965369cf1e2d28449fc0d2ee4583]
class EthernetSwitchBaseDto--><g id="elem_EthernetSwitchBaseDto"><rect codeLine="3" fill="#F1F1F1" height="160.0469" id="EthernetSwitchBaseDto" rx="2.5" ry="2.5" style="stroke:#181818;stroke-width:0.5;" width="180" x="1201" y="1816"/><ellipse cx="1216" cy="1832" fill="#ADD1B2" rx="11" ry="11" style="stroke:#181818;stroke-width:1.0;"/><path d="M1218.7656,1827.875 Q1218.9219,1827.6563 1219.1094,1827.5469 Q1219.2969,1827.4375 1219.5156,1827.4375 Q1219.8906,1827.4375 1220.125,1827.7031 Q1220.3594,1827.9531 1220.3594,1828.5625 L1220.3594,1830.0156 Q1220.3594,1830.625 1220.125,1830.8906 Q1219.8906,1831.1563 1219.5156,1831.1563 Q1219.1719,1831.1563 1218.9688,1830.9531 Q1218.7656,1830.7656 1218.6563,1830.25 Q1218.6094,1829.8906 1218.4219,1829.7031 Q1218.0938,1829.3281 1217.4844,1829.1094 Q1216.875,1828.8906 1216.25,1828.8906 Q1215.4844,1828.8906 1214.8438,1829.2188 Q1214.2188,1829.5469 1213.7188,1830.2969 Q1213.2344,1831.0469 1213.2344,1832.0781 L1213.2344,1833.1719 Q1213.2344,1834.4063 1214.125,1835.2344 Q1215.0156,1836.0469 1216.6094,1836.0469 Q1217.5469,1836.0469 1218.2031,1835.7969 Q1218.5938,1835.6406 1219.0156,1835.2031 Q1219.2813,1834.9375 1219.4219,1834.8594 Q1219.5781,1834.7813 1219.7813,1834.7813 Q1220.1094,1834.7813 1220.3594,1835.0469 Q1220.625,1835.2969 1220.625,1835.6406 Q1220.625,1835.9844 1220.2813,1836.3906 Q1219.7813,1836.9688 1218.9844,1837.2969 Q1217.9063,1837.75 1216.6094,1837.75 Q1215.0938,1837.75 1213.8906,1837.125 Q1212.9063,1836.625 1212.2188,1835.5625 Q1211.5313,1834.4844 1211.5313,1833.2031 L1211.5313,1832.0469 Q1211.5313,1830.7188 1212.1406,1829.5781 Q1212.7656,1828.4219 1213.8594,1827.8125 Q1214.9531,1827.1875 1216.1875,1827.1875 Q1216.9219,1827.1875 1217.5625,1827.3594 Q1218.2188,1827.5156 1218.7656,1827.875 Z " fill="#000000"/><text fill="#000000" font-family="sans-serif" font-size="14" lengthAdjust="spacing" textLength="148" x="1230" y="1837.7285">EthernetSwitchBaseDto</text><line style="stroke:#181818;stroke-width:0.5;" x1="1202" x2="1380" y1="1848" y2="1848"/><ellipse cx="1212" cy="1859" fill="none" rx="3" ry="3" style="stroke:#038048;stroke-width:1.0;"/><text fill="#000000" font-family="sans-serif" font-size="14" lengthAdjust="spacing" textLength="75" x="1221" y="1866.5332">Name string</text><line style="stroke:#181818;stroke-width:1.0;" x1="1202" x2="1380" y1="1873.6094" y2="1873.6094"/><ellipse cx="1212" cy="1884.6094" fill="none" rx="3" ry="3" style="stroke:#038048;stroke-width:1.0;"/><text fill="#000000" font-family="sans-serif" font-size="14" lengthAdjust="spacing" textLength="75" x="1221" y="1892.1426">Serial string</text><line style="stroke:#181818;stroke-width:1.0;" x1="1202" x2="1380" y1="1899.2188" y2="1899.2188"/><ellipse cx="1212" cy="1910.2188" fill="none" rx="3" ry="3" style="stroke:#038048;stroke-width:1.0;"/><text fill="#000000" font-family="sans-serif" font-size="14" lengthAdjust="spacing" textLength="117" x="1221" y="1917.752">SwitchModel string</text><line style="stroke:#181818;stroke-width:1.0;" x1="1202" x2="1380" y1="1924.8281" y2="1924.8281"/><ellipse cx="1212" cy="1935.8281" fill="none" rx="3" ry="3" style="stroke:#038048;stroke-width:1.0;"/><text fill="#000000" font-family="sans-serif" font-size="14" lengthAdjust="spacing" textLength="91" x="1221" y="1943.3613">Address string</text><line style="stroke:#181818;stroke-width:1.0;" x1="1202" x2="1380" y1="1950.4375" y2="1950.4375"/><ellipse cx="1212" cy="1961.4375" fill="none" rx="3" ry="3" style="stroke:#038048;stroke-width:1.0;"/><text fill="#000000" font-family="sans-serif" font-size="14" lengthAdjust="spacing" textLength="103" x="1221" y="1968.9707">Username string</text></g><!--MD5=[b5f51fede5412d5c08046421531bde8a]
class EthernetSwitchCreateDto--><g id="elem_EthernetSwitchCreateDto"><rect codeLine="5" fill="#F1F1F1" height="65.6094" id="EthernetSwitchCreateDto" rx="2.5" ry="2.5" style="stroke:#181818;stroke-width:0.5;" width="191" x="1422.5" y="1668.5"/><ellipse cx="1437.5" cy="1684.5" fill="#ADD1B2" rx="11" ry="11" style="stroke:#181818;stroke-width:1.0;"/><path d="M1440.2656,1680.375 Q1440.4219,1680.1563 1440.6094,1680.0469 Q1440.7969,1679.9375 1441.0156,1679.9375 Q1441.3906,1679.9375 1441.625,1680.2031 Q1441.8594,1680.4531 1441.8594,1681.0625 L1441.8594,1682.5156 Q1441.8594,1683.125 1441.625,1683.3906 Q1441.3906,1683.6563 1441.0156,1683.6563 Q1440.6719,1683.6563 1440.4688,1683.4531 Q1440.2656,1683.2656 1440.1563,1682.75 Q1440.1094,1682.3906 1439.9219,1682.2031 Q1439.5938,1681.8281 1438.9844,1681.6094 Q1438.375,1681.3906 1437.75,1681.3906 Q1436.9844,1681.3906 1436.3438,1681.7188 Q1435.7188,1682.0469 1435.2188,1682.7969 Q1434.7344,1683.5469 1434.7344,1684.5781 L1434.7344,1685.6719 Q1434.7344,1686.9063 1435.625,1687.7344 Q1436.5156,1688.5469 1438.1094,1688.5469 Q1439.0469,1688.5469 1439.7031,1688.2969 Q1440.0938,1688.1406 1440.5156,1687.7031 Q1440.7813,1687.4375 1440.9219,1687.3594 Q1441.0781,1687.2813 1441.2813,1687.2813 Q1441.6094,1687.2813 1441.8594,1687.5469 Q1442.125,1687.7969 1442.125,1688.1406 Q1442.125,1688.4844 1441.7813,1688.8906 Q1441.2813,1689.4688 1440.4844,1689.7969 Q1439.4063,1690.25 1438.1094,1690.25 Q1436.5938,1690.25 1435.3906,1689.625 Q1434.4063,1689.125 1433.7188,1688.0625 Q1433.0313,1686.9844 1433.0313,1685.7031 L1433.0313,1684.5469 Q1433.0313,1683.2188 1433.6406,1682.0781 Q1434.2656,1680.9219 1435.3594,1680.3125 Q1436.4531,1679.6875 1437.6875,1679.6875 Q1438.4219,1679.6875 1439.0625,1679.8594 Q1439.7188,1680.0156 1440.2656,1680.375 Z " fill="#000000"/><text fill="#000000" font-family="sans-serif" font-size="14" lengthAdjust="spacing" textLength="159" x="1451.5" y="1690.2285">EthernetSwitchCreateDto</text><line style="stroke:#181818;stroke-width:0.5;" x1="1423.5" x2="1612.5" y1="1700.5" y2="1700.5"/><ellipse cx="1433.5" cy="1711.5" fill="none" rx="3" ry="3" style="stroke:#038048;stroke-width:1.0;"/><text fill="#000000" font-family="sans-serif" font-size="14" lengthAdjust="spacing" textLength="100" x="1442.5" y="1719.0332">Password string</text><line style="stroke:#181818;stroke-width:0.5;" x1="1423.5" x2="1612.5" y1="1726.1094" y2="1726.1094"/></g><!--MD5=[c34e1a9004d5b1340cd98967367dc0c0]
class EthernetSwitchUpdateDto--><g id="elem_EthernetSwitchUpdateDto"><rect codeLine="5" fill="#F1F1F1" height="65.6094" id="EthernetSwitchUpdateDto" rx="2.5" ry="2.5" style="stroke:#181818;stroke-width:0.5;" width="193" x="1194.5" y="1668.5"/><ellipse cx="1209.5" cy="1684.5" fill="#ADD1B2" rx="11" ry="11" style="stroke:#181818;stroke-width:1.0;"/><path d="M1212.2656,1680.375 Q1212.4219,1680.1563 1212.6094,1680.0469 Q1212.7969,1679.9375 1213.0156,1679.9375 Q1213.3906,1679.9375 1213.625,1680.2031 Q1213.8594,1680.4531 1213.8594,1681.0625 L1213.8594,1682.5156 Q1213.8594,1683.125 1213.625,1683.3906 Q1213.3906,1683.6563 1213.0156,1683.6563 Q1212.6719,1683.6563 1212.4688,1683.4531 Q1212.2656,1683.2656 1212.1563,1682.75 Q1212.1094,1682.3906 1211.9219,1682.2031 Q1211.5938,1681.8281 1210.9844,1681.6094 Q1210.375,1681.3906 1209.75,1681.3906 Q1208.9844,1681.3906 1208.3438,1681.7188 Q1207.7188,1682.0469 1207.2188,1682.7969 Q1206.7344,1683.5469 1206.7344,1684.5781 L1206.7344,1685.6719 Q1206.7344,1686.9063 1207.625,1687.7344 Q1208.5156,1688.5469 1210.1094,1688.5469 Q1211.0469,1688.5469 1211.7031,1688.2969 Q1212.0938,1688.1406 1212.5156,1687.7031 Q1212.7813,1687.4375 1212.9219,1687.3594 Q1213.0781,1687.2813 1213.2813,1687.2813 Q1213.6094,1687.2813 1213.8594,1687.5469 Q1214.125,1687.7969 1214.125,1688.1406 Q1214.125,1688.4844 1213.7813,1688.8906 Q1213.2813,1689.4688 1212.4844,1689.7969 Q1211.4063,1690.25 1210.1094,1690.25 Q1208.5938,1690.25 1207.3906,1689.625 Q1206.4063,1689.125 1205.7188,1688.0625 Q1205.0313,1686.9844 1205.0313,1685.7031 L1205.0313,1684.5469 Q1205.0313,1683.2188 1205.6406,1682.0781 Q1206.2656,1680.9219 1207.3594,1680.3125 Q1208.4531,1679.6875 1209.6875,1679.6875 Q1210.4219,1679.6875 1211.0625,1679.8594 Q1211.7188,1680.0156 1212.2656,1680.375 Z " fill="#000000"/><text fill="#000000" font-family="sans-serif" font-size="14" lengthAdjust="spacing" textLength="161" x="1223.5" y="1690.2285">EthernetSwitchUpdateDto</text><line style="stroke:#181818;stroke-width:0.5;" x1="1195.5" x2="1386.5" y1="1700.5" y2="1700.5"/><ellipse cx="1205.5" cy="1711.5" fill="none" rx="3" ry="3" style="stroke:#038048;stroke-width:1.0;"/><text fill="#000000" font-family="sans-serif" font-size="14" lengthAdjust="spacing" textLength="100" x="1214.5" y="1719.0332">Password string</text><line style="stroke:#181818;stroke-width:0.5;" x1="1195.5" x2="1386.5" y1="1726.1094" y2="1726.1094"/></g><!--MD5=[a203eca1f0769929ae1344e0135bff6b]
class BaseDto--><g id="elem_BaseDto"><rect codeLine="3" fill="#F1F1F1" height="108.8281" id="BaseDto" rx="2.5" ry="2.5" style="stroke:#181818;stroke-width:0.5;" width="157" x="797.5" y="1841.5"/><ellipse cx="844.75" cy="1857.5" fill="#ADD1B2" rx="11" ry="11" style="stroke:#181818;stroke-width:1.0;"/><path d="M847.5156,1853.375 Q847.6719,1853.1563 847.8594,1853.0469 Q848.0469,1852.9375 848.2656,1852.9375 Q848.6406,1852.9375 848.875,1853.2031 Q849.1094,1853.4531 849.1094,1854.0625 L849.1094,1855.5156 Q849.1094,1856.125 848.875,1856.3906 Q848.6406,1856.6563 848.2656,1856.6563 Q847.9219,1856.6563 847.7188,1856.4531 Q847.5156,1856.2656 847.4063,1855.75 Q847.3594,1855.3906 847.1719,1855.2031 Q846.8438,1854.8281 846.2344,1854.6094 Q845.625,1854.3906 845,1854.3906 Q844.2344,1854.3906 843.5938,1854.7188 Q842.9688,1855.0469 842.4688,1855.7969 Q841.9844,1856.5469 841.9844,1857.5781 L841.9844,1858.6719 Q841.9844,1859.9063 842.875,1860.7344 Q843.7656,1861.5469 845.3594,1861.5469 Q846.2969,1861.5469 846.9531,1861.2969 Q847.3438,1861.1406 847.7656,1860.7031 Q848.0313,1860.4375 848.1719,1860.3594 Q848.3281,1860.2813 848.5313,1860.2813 Q848.8594,1860.2813 849.1094,1860.5469 Q849.375,1860.7969 849.375,1861.1406 Q849.375,1861.4844 849.0313,1861.8906 Q848.5313,1862.4688 847.7344,1862.7969 Q846.6563,1863.25 845.3594,1863.25 Q843.8438,1863.25 842.6406,1862.625 Q841.6563,1862.125 840.9688,1861.0625 Q840.2813,1859.9844 840.2813,1858.7031 L840.2813,1857.5469 Q840.2813,1856.2188 840.8906,1855.0781 Q841.5156,1853.9219 842.6094,1853.3125 Q843.7031,1852.6875 844.9375,1852.6875 Q845.6719,1852.6875 846.3125,1852.8594 Q846.9688,1853.0156 847.5156,1853.375 Z " fill="#000000"/><text fill="#000000" font-family="sans-serif" font-size="14" lengthAdjust="spacing" textLength="54" x="865.25" y="1863.2285">BaseDto</text><line style="stroke:#181818;stroke-width:0.5;" x1="798.5" x2="953.5" y1="1873.5" y2="1873.5"/><ellipse cx="808.5" cy="1884.5" fill="none" rx="3" ry="3" style="stroke:#038048;stroke-width:1.0;"/><text fill="#000000" font-family="sans-serif" font-size="14" lengthAdjust="spacing" textLength="79" x="817.5" y="1892.0332">ID uuid.UUID</text><line style="stroke:#181818;stroke-width:1.0;" x1="798.5" x2="953.5" y1="1899.1094" y2="1899.1094"/><ellipse cx="808.5" cy="1910.1094" fill="none" rx="3" ry="3" style="stroke:#038048;stroke-width:1.0;"/><text fill="#000000" font-family="sans-serif" font-size="14" lengthAdjust="spacing" textLength="129" x="817.5" y="1917.6426">CreatedAt time.Time</text><line style="stroke:#181818;stroke-width:1.0;" x1="798.5" x2="953.5" y1="1924.7188" y2="1924.7188"/><ellipse cx="808.5" cy="1935.7188" fill="none" rx="3" ry="3" style="stroke:#038048;stroke-width:1.0;"/><text fill="#000000" font-family="sans-serif" font-size="14" lengthAdjust="spacing" textLength="131" x="817.5" y="1943.252">UpdatedAt time.Time</text></g><!--MD5=[b580cc5ff93fe4dac06272a8d0848e45]
class EthernetSwitchDto--><g id="elem_EthernetSwitchDto"><rect codeLine="6" fill="#F1F1F1" height="48" id="EthernetSwitchDto" rx="2.5" ry="2.5" style="stroke:#181818;stroke-width:0.5;" width="148" x="1011" y="1677.5"/><ellipse cx="1026" cy="1693.5" fill="#ADD1B2" rx="11" ry="11" style="stroke:#181818;stroke-width:1.0;"/><path d="M1028.7656,1689.375 Q1028.9219,1689.1563 1029.1094,1689.0469 Q1029.2969,1688.9375 1029.5156,1688.9375 Q1029.8906,1688.9375 1030.125,1689.2031 Q1030.3594,1689.4531 1030.3594,1690.0625 L1030.3594,1691.5156 Q1030.3594,1692.125 1030.125,1692.3906 Q1029.8906,1692.6563 1029.5156,1692.6563 Q1029.1719,1692.6563 1028.9688,1692.4531 Q1028.7656,1692.2656 1028.6563,1691.75 Q1028.6094,1691.3906 1028.4219,1691.2031 Q1028.0938,1690.8281 1027.4844,1690.6094 Q1026.875,1690.3906 1026.25,1690.3906 Q1025.4844,1690.3906 1024.8438,1690.7188 Q1024.2188,1691.0469 1023.7188,1691.7969 Q1023.2344,1692.5469 1023.2344,1693.5781 L1023.2344,1694.6719 Q1023.2344,1695.9063 1024.125,1696.7344 Q1025.0156,1697.5469 1026.6094,1697.5469 Q1027.5469,1697.5469 1028.2031,1697.2969 Q1028.5938,1697.1406 1029.0156,1696.7031 Q1029.2813,1696.4375 1029.4219,1696.3594 Q1029.5781,1696.2813 1029.7813,1696.2813 Q1030.1094,1696.2813 1030.3594,1696.5469 Q1030.625,1696.7969 1030.625,1697.1406 Q1030.625,1697.4844 1030.2813,1697.8906 Q1029.7813,1698.4688 1028.9844,1698.7969 Q1027.9063,1699.25 1026.6094,1699.25 Q1025.0938,1699.25 1023.8906,1698.625 Q1022.9063,1698.125 1022.2188,1697.0625 Q1021.5313,1695.9844 1021.5313,1694.7031 L1021.5313,1693.5469 Q1021.5313,1692.2188 1022.1406,1691.0781 Q1022.7656,1689.9219 1023.8594,1689.3125 Q1024.9531,1688.6875 1026.1875,1688.6875 Q1026.9219,1688.6875 1027.5625,1688.8594 Q1028.2188,1689.0156 1028.7656,1689.375 Z " fill="#000000"/><text fill="#000000" font-family="sans-serif" font-size="14" lengthAdjust="spacing" textLength="116" x="1040" y="1699.2285">EthernetSwitchDto</text><line style="stroke:#181818;stroke-width:0.5;" x1="1012" x2="1158" y1="1709.5" y2="1709.5"/><line style="stroke:#181818;stroke-width:0.5;" x1="1012" x2="1158" y1="1717.5" y2="1717.5"/></g><!--MD5=[bbce04f7454f410b3cc381ebd1a304a3]
class EthernetSwitchModelDto--><g id="elem_EthernetSwitchModelDto"><rect codeLine="3" fill="#F1F1F1" height="108.8281" id="EthernetSwitchModelDto" rx="2.5" ry="2.5" style="stroke:#181818;stroke-width:0.5;" width="186" x="790" y="1647"/><ellipse cx="805" cy="1663" fill="#ADD1B2" rx="11" ry="11" style="stroke:#181818;stroke-width:1.0;"/><path d="M807.7656,1658.875 Q807.9219,1658.6563 808.1094,1658.5469 Q808.2969,1658.4375 808.5156,1658.4375 Q808.8906,1658.4375 809.125,1658.7031 Q809.3594,1658.9531 809.3594,1659.5625 L809.3594,1661.0156 Q809.3594,1661.625 809.125,1661.8906 Q808.8906,1662.1563 808.5156,1662.1563 Q808.1719,1662.1563 807.9688,1661.9531 Q807.7656,1661.7656 807.6563,1661.25 Q807.6094,1660.8906 807.4219,1660.7031 Q807.0938,1660.3281 806.4844,1660.1094 Q805.875,1659.8906 805.25,1659.8906 Q804.4844,1659.8906 803.8438,1660.2188 Q803.2188,1660.5469 802.7188,1661.2969 Q802.2344,1662.0469 802.2344,1663.0781 L802.2344,1664.1719 Q802.2344,1665.4063 803.125,1666.2344 Q804.0156,1667.0469 805.6094,1667.0469 Q806.5469,1667.0469 807.2031,1666.7969 Q807.5938,1666.6406 808.0156,1666.2031 Q808.2813,1665.9375 808.4219,1665.8594 Q808.5781,1665.7813 808.7813,1665.7813 Q809.1094,1665.7813 809.3594,1666.0469 Q809.625,1666.2969 809.625,1666.6406 Q809.625,1666.9844 809.2813,1667.3906 Q808.7813,1667.9688 807.9844,1668.2969 Q806.9063,1668.75 805.6094,1668.75 Q804.0938,1668.75 802.8906,1668.125 Q801.9063,1667.625 801.2188,1666.5625 Q800.5313,1665.4844 800.5313,1664.2031 L800.5313,1663.0469 Q800.5313,1661.7188 801.1406,1660.5781 Q801.7656,1659.4219 802.8594,1658.8125 Q803.9531,1658.1875 805.1875,1658.1875 Q805.9219,1658.1875 806.5625,1658.3594 Q807.2188,1658.5156 807.7656,1658.875 Z " fill="#000000"/><text fill="#000000" font-family="sans-serif" font-size="14" lengthAdjust="spacing" textLength="154" x="819" y="1668.7285">EthernetSwitchModelDto</text><line style="stroke:#181818;stroke-width:0.5;" x1="791" x2="975" y1="1679" y2="1679"/><ellipse cx="801" cy="1690" fill="none" rx="3" ry="3" style="stroke:#038048;stroke-width:1.0;"/><text fill="#000000" font-family="sans-serif" font-size="14" lengthAdjust="spacing" textLength="73" x="810" y="1697.5332">Code string</text><line style="stroke:#181818;stroke-width:1.0;" x1="791" x2="975" y1="1704.6094" y2="1704.6094"/><ellipse cx="801" cy="1715.6094" fill="none" rx="3" ry="3" style="stroke:#038048;stroke-width:1.0;"/><text fill="#000000" font-family="sans-serif" font-size="14" lengthAdjust="spacing" textLength="123" x="810" y="1723.1426">Manufacturer string</text><line style="stroke:#181818;stroke-width:1.0;" x1="791" x2="975" y1="1730.2188" y2="1730.2188"/><ellipse cx="801" cy="1741.2188" fill="none" rx="3" ry="3" style="stroke:#038048;stroke-width:1.0;"/><text fill="#000000" font-family="sans-serif" font-size="14" lengthAdjust="spacing" textLength="77" x="810" y="1748.752">Model string</text></g><!--MD5=[ab50d7b8d52645a88dbd59d4662cb3d5]
class EthernetSwitchPortBaseDto--><g id="elem_EthernetSwitchPortBaseDto"><rect codeLine="3" fill="#F1F1F1" height="83.2188" id="EthernetSwitchPortBaseDto" rx="2.5" ry="2.5" style="stroke:#181818;stroke-width:0.5;" width="206" x="334" y="1854.5"/><ellipse cx="349" cy="1870.5" fill="#ADD1B2" rx="11" ry="11" style="stroke:#181818;stroke-width:1.0;"/><path d="M351.7656,1866.375 Q351.9219,1866.1563 352.1094,1866.0469 Q352.2969,1865.9375 352.5156,1865.9375 Q352.8906,1865.9375 353.125,1866.2031 Q353.3594,1866.4531 353.3594,1867.0625 L353.3594,1868.5156 Q353.3594,1869.125 353.125,1869.3906 Q352.8906,1869.6563 352.5156,1869.6563 Q352.1719,1869.6563 351.9688,1869.4531 Q351.7656,1869.2656 351.6563,1868.75 Q351.6094,1868.3906 351.4219,1868.2031 Q351.0938,1867.8281 350.4844,1867.6094 Q349.875,1867.3906 349.25,1867.3906 Q348.4844,1867.3906 347.8438,1867.7188 Q347.2188,1868.0469 346.7188,1868.7969 Q346.2344,1869.5469 346.2344,1870.5781 L346.2344,1871.6719 Q346.2344,1872.9063 347.125,1873.7344 Q348.0156,1874.5469 349.6094,1874.5469 Q350.5469,1874.5469 351.2031,1874.2969 Q351.5938,1874.1406 352.0156,1873.7031 Q352.2813,1873.4375 352.4219,1873.3594 Q352.5781,1873.2813 352.7813,1873.2813 Q353.1094,1873.2813 353.3594,1873.5469 Q353.625,1873.7969 353.625,1874.1406 Q353.625,1874.4844 353.2813,1874.8906 Q352.7813,1875.4688 351.9844,1875.7969 Q350.9063,1876.25 349.6094,1876.25 Q348.0938,1876.25 346.8906,1875.625 Q345.9063,1875.125 345.2188,1874.0625 Q344.5313,1872.9844 344.5313,1871.7031 L344.5313,1870.5469 Q344.5313,1869.2188 345.1406,1868.0781 Q345.7656,1866.9219 346.8594,1866.3125 Q347.9531,1865.6875 349.1875,1865.6875 Q349.9219,1865.6875 350.5625,1865.8594 Q351.2188,1866.0156 351.7656,1866.375 Z " fill="#000000"/><text fill="#000000" font-family="sans-serif" font-size="14" lengthAdjust="spacing" textLength="174" x="363" y="1876.2285">EthernetSwitchPortBaseDto</text><line style="stroke:#181818;stroke-width:0.5;" x1="335" x2="539" y1="1886.5" y2="1886.5"/><ellipse cx="345" cy="1897.5" fill="none" rx="3" ry="3" style="stroke:#038048;stroke-width:1.0;"/><text fill="#000000" font-family="sans-serif" font-size="14" lengthAdjust="spacing" textLength="100" x="354" y="1905.0332">POEType string</text><line style="stroke:#181818;stroke-width:1.0;" x1="335" x2="539" y1="1912.1094" y2="1912.1094"/><ellipse cx="345" cy="1923.1094" fill="none" rx="3" ry="3" style="stroke:#038048;stroke-width:1.0;"/><text fill="#000000" font-family="sans-serif" font-size="14" lengthAdjust="spacing" textLength="75" x="354" y="1930.6426">Name string</text></g><!--MD5=[67cf17d19949dc16e4e1206335fb789d]
class EthernetSwitchPortCreateDto--><g id="elem_EthernetSwitchPortCreateDto"><rect codeLine="5" fill="#F1F1F1" height="48" id="EthernetSwitchPortCreateDto" rx="2.5" ry="2.5" style="stroke:#181818;stroke-width:0.5;" width="217" x="328.5" y="1677.5"/><ellipse cx="343.5" cy="1693.5" fill="#ADD1B2" rx="11" ry="11" style="stroke:#181818;stroke-width:1.0;"/><path d="M346.2656,1689.375 Q346.4219,1689.1563 346.6094,1689.0469 Q346.7969,1688.9375 347.0156,1688.9375 Q347.3906,1688.9375 347.625,1689.2031 Q347.8594,1689.4531 347.8594,1690.0625 L347.8594,1691.5156 Q347.8594,1692.125 347.625,1692.3906 Q347.3906,1692.6563 347.0156,1692.6563 Q346.6719,1692.6563 346.4688,1692.4531 Q346.2656,1692.2656 346.1563,1691.75 Q346.1094,1691.3906 345.9219,1691.2031 Q345.5938,1690.8281 344.9844,1690.6094 Q344.375,1690.3906 343.75,1690.3906 Q342.9844,1690.3906 342.3438,1690.7188 Q341.7188,1691.0469 341.2188,1691.7969 Q340.7344,1692.5469 340.7344,1693.5781 L340.7344,1694.6719 Q340.7344,1695.9063 341.625,1696.7344 Q342.5156,1697.5469 344.1094,1697.5469 Q345.0469,1697.5469 345.7031,1697.2969 Q346.0938,1697.1406 346.5156,1696.7031 Q346.7813,1696.4375 346.9219,1696.3594 Q347.0781,1696.2813 347.2813,1696.2813 Q347.6094,1696.2813 347.8594,1696.5469 Q348.125,1696.7969 348.125,1697.1406 Q348.125,1697.4844 347.7813,1697.8906 Q347.2813,1698.4688 346.4844,1698.7969 Q345.4063,1699.25 344.1094,1699.25 Q342.5938,1699.25 341.3906,1698.625 Q340.4063,1698.125 339.7188,1697.0625 Q339.0313,1695.9844 339.0313,1694.7031 L339.0313,1693.5469 Q339.0313,1692.2188 339.6406,1691.0781 Q340.2656,1689.9219 341.3594,1689.3125 Q342.4531,1688.6875 343.6875,1688.6875 Q344.4219,1688.6875 345.0625,1688.8594 Q345.7188,1689.0156 346.2656,1689.375 Z " fill="#000000"/><text fill="#000000" font-family="sans-serif" font-size="14" lengthAdjust="spacing" textLength="185" x="357.5" y="1699.2285">EthernetSwitchPortCreateDto</text><line style="stroke:#181818;stroke-width:0.5;" x1="329.5" x2="544.5" y1="1709.5" y2="1709.5"/><line style="stroke:#181818;stroke-width:0.5;" x1="329.5" x2="544.5" y1="1717.5" y2="1717.5"/></g><!--MD5=[139f8f6c9a1355c9e9aa2a809fcec224]
class EthernetSwitchPortUpdateDto--><g id="elem_EthernetSwitchPortUpdateDto"><rect codeLine="5" fill="#F1F1F1" height="48" id="EthernetSwitchPortUpdateDto" rx="2.5" ry="2.5" style="stroke:#181818;stroke-width:0.5;" width="219" x="74.5" y="1677.5"/><ellipse cx="89.5" cy="1693.5" fill="#ADD1B2" rx="11" ry="11" style="stroke:#181818;stroke-width:1.0;"/><path d="M92.2656,1689.375 Q92.4219,1689.1563 92.6094,1689.0469 Q92.7969,1688.9375 93.0156,1688.9375 Q93.3906,1688.9375 93.625,1689.2031 Q93.8594,1689.4531 93.8594,1690.0625 L93.8594,1691.5156 Q93.8594,1692.125 93.625,1692.3906 Q93.3906,1692.6563 93.0156,1692.6563 Q92.6719,1692.6563 92.4688,1692.4531 Q92.2656,1692.2656 92.1563,1691.75 Q92.1094,1691.3906 91.9219,1691.2031 Q91.5938,1690.8281 90.9844,1690.6094 Q90.375,1690.3906 89.75,1690.3906 Q88.9844,1690.3906 88.3438,1690.7188 Q87.7188,1691.0469 87.2188,1691.7969 Q86.7344,1692.5469 86.7344,1693.5781 L86.7344,1694.6719 Q86.7344,1695.9063 87.625,1696.7344 Q88.5156,1697.5469 90.1094,1697.5469 Q91.0469,1697.5469 91.7031,1697.2969 Q92.0938,1697.1406 92.5156,1696.7031 Q92.7813,1696.4375 92.9219,1696.3594 Q93.0781,1696.2813 93.2813,1696.2813 Q93.6094,1696.2813 93.8594,1696.5469 Q94.125,1696.7969 94.125,1697.1406 Q94.125,1697.4844 93.7813,1697.8906 Q93.2813,1698.4688 92.4844,1698.7969 Q91.4063,1699.25 90.1094,1699.25 Q88.5938,1699.25 87.3906,1698.625 Q86.4063,1698.125 85.7188,1697.0625 Q85.0313,1695.9844 85.0313,1694.7031 L85.0313,1693.5469 Q85.0313,1692.2188 85.6406,1691.0781 Q86.2656,1689.9219 87.3594,1689.3125 Q88.4531,1688.6875 89.6875,1688.6875 Q90.4219,1688.6875 91.0625,1688.8594 Q91.7188,1689.0156 92.2656,1689.375 Z " fill="#000000"/><text fill="#000000" font-family="sans-serif" font-size="14" lengthAdjust="spacing" textLength="187" x="103.5" y="1699.2285">EthernetSwitchPortUpdateDto</text><line style="stroke:#181818;stroke-width:0.5;" x1="75.5" x2="292.5" y1="1709.5" y2="1709.5"/><line style="stroke:#181818;stroke-width:0.5;" x1="75.5" x2="292.5" y1="1717.5" y2="1717.5"/></g><!--MD5=[486b5bedf9dc6f69fa62dd2fa97f75c6]
class EthernetSwitchPortDto--><g id="elem_EthernetSwitchPortDto"><rect codeLine="6" fill="#F1F1F1" height="48" id="EthernetSwitchPortDto" rx="2.5" ry="2.5" style="stroke:#181818;stroke-width:0.5;" width="174" x="581" y="1677.5"/><ellipse cx="596" cy="1693.5" fill="#ADD1B2" rx="11" ry="11" style="stroke:#181818;stroke-width:1.0;"/><path d="M598.7656,1689.375 Q598.9219,1689.1563 599.1094,1689.0469 Q599.2969,1688.9375 599.5156,1688.9375 Q599.8906,1688.9375 600.125,1689.2031 Q600.3594,1689.4531 600.3594,1690.0625 L600.3594,1691.5156 Q600.3594,1692.125 600.125,1692.3906 Q599.8906,1692.6563 599.5156,1692.6563 Q599.1719,1692.6563 598.9688,1692.4531 Q598.7656,1692.2656 598.6563,1691.75 Q598.6094,1691.3906 598.4219,1691.2031 Q598.0938,1690.8281 597.4844,1690.6094 Q596.875,1690.3906 596.25,1690.3906 Q595.4844,1690.3906 594.8438,1690.7188 Q594.2188,1691.0469 593.7188,1691.7969 Q593.2344,1692.5469 593.2344,1693.5781 L593.2344,1694.6719 Q593.2344,1695.9063 594.125,1696.7344 Q595.0156,1697.5469 596.6094,1697.5469 Q597.5469,1697.5469 598.2031,1697.2969 Q598.5938,1697.1406 599.0156,1696.7031 Q599.2813,1696.4375 599.4219,1696.3594 Q599.5781,1696.2813 599.7813,1696.2813 Q600.1094,1696.2813 600.3594,1696.5469 Q600.625,1696.7969 600.625,1697.1406 Q600.625,1697.4844 600.2813,1697.8906 Q599.7813,1698.4688 598.9844,1698.7969 Q597.9063,1699.25 596.6094,1699.25 Q595.0938,1699.25 593.8906,1698.625 Q592.9063,1698.125 592.2188,1697.0625 Q591.5313,1695.9844 591.5313,1694.7031 L591.5313,1693.5469 Q591.5313,1692.2188 592.1406,1691.0781 Q592.7656,1689.9219 593.8594,1689.3125 Q594.9531,1688.6875 596.1875,1688.6875 Q596.9219,1688.6875 597.5625,1688.8594 Q598.2188,1689.0156 598.7656,1689.375 Z " fill="#000000"/><text fill="#000000" font-family="sans-serif" font-size="14" lengthAdjust="spacing" textLength="142" x="610" y="1699.2285">EthernetSwitchPortDto</text><line style="stroke:#181818;stroke-width:0.5;" x1="582" x2="754" y1="1709.5" y2="1709.5"/><line style="stroke:#181818;stroke-width:0.5;" x1="582" x2="754" y1="1717.5" y2="1717.5"/></g><!--MD5=[a6c7a0eda5b041e127f539f1664bb96a]
link Entity to IEntityModel--><g id="link_Entity_IEntityModel"><path codeLine="14" d="M332.39,530.05 C280.89,566.51 220.84,615.44 178,670 C145.42,711.5 121.65,767.17 107.27,807.24 " fill="none" id="Entity-to-IEntityModel" style="stroke:#181818;stroke-width:1.0;stroke-dasharray:7.0,7.0;"/><polygon fill="none" points="113.83,809.7,100.7,826.34,100.59,805.15,113.83,809.7" style="stroke:#181818;stroke-width:1.0;"/></g><!--MD5=[28ddc57433616ceaae86c7f76015305a]
link EthernetSwitch to Entity--><g id="link_EthernetSwitch_Entity"><path codeLine="27" d="M764.3,322.22 C758.34,327.17 752.21,331.82 746,336 C698.93,367.64 642.67,393.51 591.13,413.39 " fill="none" id="EthernetSwitch-to-Entity" style="stroke:#181818;stroke-width:1.0;"/><polygon fill="#181818" points="578.83,418.06,585.8589,419.6706,590.0491,413.8018,583.0201,412.1912,578.83,418.06" style="stroke:#181818;stroke-width:1.0;"/></g><!--MD5=[1b84833638557571905b03f54e842c8c]
link GormGenericRepository to IGenericRepository--><g id="link_GormGenericRepository_IGenericRepository"><path codeLine="7" d="M1280.54,638.35 C1256.36,659.67 1218.55,693.03 1179.61,727.39 " fill="none" id="GormGenericRepository-to-IGenericRepository" style="stroke:#181818;stroke-width:1.0;stroke-dasharray:7.0,7.0;"/><polygon fill="none" points="1183.99,732.86,1164.36,740.84,1174.73,722.36,1183.99,732.86" style="stroke:#181818;stroke-width:1.0;"/></g><!--MD5=[bbe412936ca4b95a00b9eb94a916dd4a]
link EthernetSwitchRepository to GormGenericRepository--><g id="link_EthernetSwitchRepository_GormGenericRepository"><path codeLine="8" d="M1395.02,267.18 C1430.63,321.87 1508.55,461.27 1447,554 C1438.96,566.11 1427.89,575.75 1415.47,583.4 " fill="none" id="EthernetSwitchRepository-to-GormGenericRepository" style="stroke:#181818;stroke-width:1.0;"/><polygon fill="#181818" points="1403.73,589.9,1410.9165,590.495,1414.2298,584.0902,1407.0433,583.4952,1403.73,589.9" style="stroke:#181818;stroke-width:1.0;"/></g><!--MD5=[97e973a2e17e2fdf95a657100781ecd2]
link EthernetSwitchRepository to EthernetSwitchTypeNote--><g id="link_EthernetSwitchRepository_EthernetSwitchTypeNote"><path codeLine="13" d="M1371.29,267.33 C1356.06,313.46 1322.55,414.9 1311.01,449.87 " fill="none" id="EthernetSwitchRepository-EthernetSwitchTypeNote" style="stroke:#181818;stroke-width:1.0;stroke-dasharray:7.0,7.0;"/></g><!--MD5=[9f5125094d565c097065cae25f7e2c84]
link EthernetSwitchTypeNote to GormGenericRepository--><g id="link_EthernetSwitchTypeNote_GormGenericRepository"><path codeLine="14" d="M1307,476.19 C1307,499.75 1307,552.05 1307,584.73 " fill="none" id="EthernetSwitchTypeNote-to-GormGenericRepository" style="stroke:#181818;stroke-width:1.0;stroke-dasharray:7.0,7.0;"/><polygon fill="#181818" points="1307,589.8,1311,580.8,1307,584.8,1303,580.8,1307,589.8" style="stroke:#181818;stroke-width:1.0;"/></g><!--MD5=[e4dc094716afb2924cadfdc3ab207821]
link EthernetSwitch to EthernetSwitchTypeNote--><g id="link_EthernetSwitch_EthernetSwitchTypeNote"><path codeLine="15" d="M907.74,310.65 C920.5,320.19 934.15,329.09 948,336 C1049.08,386.45 1090.32,353.53 1195,396 C1230.76,410.51 1268.72,435.08 1289.99,449.8 " fill="none" id="EthernetSwitch-EthernetSwitchTypeNote" style="stroke:#181818;stroke-width:1.0;stroke-dasharray:7.0,7.0;"/></g><!--MD5=[afd672b6d7a853cadad0fa5e76e30a74]
link EthernetSwitchPort to Entity--><g id="link_EthernetSwitchPort_Entity"><path codeLine="13" d="M437,297.61 C437,323.18 437,354.3 437,382.55 " fill="none" id="EthernetSwitchPort-to-Entity" style="stroke:#181818;stroke-width:1.0;"/><polygon fill="#181818" points="437,395.73,441,389.73,437,383.73,433,389.73,437,395.73" style="stroke:#181818;stroke-width:1.0;"/></g><!--MD5=[1762f5c7af981631210025ef4f9c269e]
link EthernetSwitchPortRepository to GormGenericRepository--><g id="link_EthernetSwitchPortRepository_GormGenericRepository"><path codeLine="8" d="M1274.86,90.06 C1270.44,94.81 1266.55,100.16 1264,106 C1223.14,199.7 1206.22,251.67 1264,336 C1305.75,396.94 1377.25,335.06 1419,396 C1438.85,424.96 1437.14,523.94 1419,554 C1411.86,565.84 1401.46,575.42 1389.85,583.14 " fill="none" id="EthernetSwitchPortRepository-to-GormGenericRepository" style="stroke:#181818;stroke-width:1.0;"/><polygon fill="#181818" points="1378.4,589.98,1385.6024,590.3339,1388.6992,583.8216,1381.4968,583.4677,1378.4,589.98" style="stroke:#181818;stroke-width:1.0;"/></g><!--MD5=[fe4788a4e689d7fb18894f4eb70a548f]
link EthernetSwitchPortRepository to EthernetSwitchPortTypeNote--><g id="link_EthernetSwitchPortRepository_EthernetSwitchPortTypeNote"><path codeLine="13" d="M1256.1,90.15 C1249.15,94.75 1242.51,100.04 1237,106 C1134.91,216.4 1085.53,400.73 1073.8,449.73 " fill="none" id="EthernetSwitchPortRepository-EthernetSwitchPortTypeNote" style="stroke:#181818;stroke-width:1.0;stroke-dasharray:7.0,7.0;"/></g><!--MD5=[db6d18f36f875cfdbc509bcef396f1a5]
link EthernetSwitchPortTypeNote to GormGenericRepository--><g id="link_EthernetSwitchPortTypeNote_GormGenericRepository"><path codeLine="14" d="M1086.17,476.1 C1109.06,494.11 1154.11,528.57 1195,554 C1214.01,565.82 1235.63,577.58 1254.76,587.45 " fill="none" id="EthernetSwitchPortTypeNote-to-GormGenericRepository" style="stroke:#181818;stroke-width:1.0;stroke-dasharray:7.0,7.0;"/><polygon fill="#181818" points="1259.57,589.92,1253.3774,582.2616,1255.1181,587.6439,1249.7357,589.3846,1259.57,589.92" style="stroke:#181818;stroke-width:1.0;"/></g><!--MD5=[9c0460ae0ce9578d5fd891f7c11771f8]
link EthernetSwitchPort to EthernetSwitchPortTypeNote--><g id="link_EthernetSwitchPort_EthernetSwitchPortTypeNote"><path codeLine="15" d="M492.78,297.63 C510.76,312.21 531.6,326.56 553,336 C705.82,403.41 764,348.05 924,396 C970.09,409.81 1020.61,434.86 1048.79,449.81 " fill="none" id="EthernetSwitchPort-EthernetSwitchPortTypeNote" style="stroke:#181818;stroke-width:1.0;stroke-dasharray:7.0,7.0;"/></g><!--MD5=[f0bd9206a4dd631190c7c77769e5e372]
link EthernetSwitchCreateDto to EthernetSwitchBaseDto--><g id="link_EthernetSwitchCreateDto_EthernetSwitchBaseDto"><path codeLine="9" d="M1480.26,1734.5 C1455.92,1755.15 1423.01,1783.05 1391.47,1809.8 " fill="none" id="EthernetSwitchCreateDto-to-EthernetSwitchBaseDto" style="stroke:#181818;stroke-width:1.0;"/><polygon fill="#181818" points="1381.29,1818.43,1388.4529,1817.5973,1390.4391,1810.6651,1383.2763,1811.4978,1381.29,1818.43" style="stroke:#181818;stroke-width:1.0;"/></g><!--MD5=[cd18a63401ba994ebd33ffac90db2cbb]
link EthernetSwitchUpdateDto to EthernetSwitchBaseDto--><g id="link_EthernetSwitchUpdateDto_EthernetSwitchBaseDto"><path codeLine="9" d="M1291,1734.72 C1291,1753.5 1291,1778.23 1291,1802.63 " fill="none" id="EthernetSwitchUpdateDto-to-EthernetSwitchBaseDto" style="stroke:#181818;stroke-width:1.0;"/><polygon fill="#181818" points="1291,1815.72,1295,1809.72,1291,1803.72,1287,1809.72,1291,1815.72" style="stroke:#181818;stroke-width:1.0;"/></g><!--MD5=[3caa607ff050ff5d17b319ae4460501c]
link EthernetSwitchDto to EthernetSwitchBaseDto--><g id="link_EthernetSwitchDto_EthernetSwitchBaseDto"><path codeLine="9" d="M1109.85,1725.72 C1131.57,1746.02 1164.55,1776.83 1196.43,1806.63 " fill="none" id="EthernetSwitchDto-to-EthernetSwitchBaseDto" style="stroke:#181818;stroke-width:1.0;"/><polygon fill="#181818" points="1206.28,1815.83,1204.6248,1808.8114,1197.5095,1807.6398,1199.1647,1814.6584,1206.28,1815.83" style="stroke:#181818;stroke-width:1.0;"/></g><!--MD5=[ce3a7074c5a166c0fec412a5219a65db]
link EthernetSwitchDto to BaseDto--><g id="link_EthernetSwitchDto_BaseDto"><path codeLine="10" d="M1059.79,1725.72 C1031.2,1752.05 983.42,1796.06 943.73,1832.61 " fill="none" id="EthernetSwitchDto-to-BaseDto" style="stroke:#181818;stroke-width:1.0;"/><polygon fill="#181818" points="934.1,1841.49,941.2242,1840.3737,942.9338,1833.3682,935.8096,1834.4845,934.1,1841.49" style="stroke:#181818;stroke-width:1.0;"/></g><!--MD5=[0491fbc6da365083a29d7a8e7e945746]
link EthernetSwitchPortCreateDto to EthernetSwitchPortBaseDto--><g id="link_EthernetSwitchPortCreateDto_EthernetSwitchPortBaseDto"><path codeLine="7" d="M437,1725.72 C437,1754.04 437,1802.83 437,1840.77 " fill="none" id="EthernetSwitchPortCreateDto-to-EthernetSwitchPortBaseDto" style="stroke:#181818;stroke-width:1.0;"/><polygon fill="#181818" points="437,1854.2,441,1848.2,437,1842.2,433,1848.2,437,1854.2" style="stroke:#181818;stroke-width:1.0;"/></g><!--MD5=[2fcc325da75b2fc129bfba6a96942222]
link EthernetSwitchPortUpdateDto to EthernetSwitchPortBaseDto--><g id="link_EthernetSwitchPortUpdateDto_EthernetSwitchPortBaseDto"><path codeLine="7" d="M214.27,1725.53 C253.33,1755.25 322.31,1807.73 373.18,1846.44 " fill="none" id="EthernetSwitchPortUpdateDto-to-EthernetSwitchPortBaseDto" style="stroke:#181818;stroke-width:1.0;"/><polygon fill="#181818" points="383.75,1854.48,381.3979,1847.6633,374.2009,1847.2126,376.553,1854.0294,383.75,1854.48" style="stroke:#181818;stroke-width:1.0;"/></g><!--MD5=[2bd7b37e42cf9e4eaa6b8a37cf7d31d1]
link EthernetSwitchPortDto to BaseDto--><g id="link_EthernetSwitchPortDto_BaseDto"><path codeLine="8" d="M693.09,1725.72 C721.54,1752.05 769.1,1796.06 808.59,1832.61 " fill="none" id="EthernetSwitchPortDto-to-BaseDto" style="stroke:#181818;stroke-width:1.0;"/><polygon fill="#181818" points="818.18,1841.49,816.4921,1834.4792,809.3715,1833.3408,811.0593,1840.3516,818.18,1841.49" style="stroke:#181818;stroke-width:1.0;"/></g><!--MD5=[01d9922c5c9f2a20159ae4795159725a]
link EthernetSwitchPortDto to EthernetSwitchPortBaseDto--><g id="link_EthernetSwitchPortDto_EthernetSwitchPortBaseDto"><path codeLine="9" d="M640.14,1725.72 C604.66,1755.28 542.42,1807.15 496.16,1845.7 " fill="none" id="EthernetSwitchPortDto-to-EthernetSwitchPortBaseDto" style="stroke:#181818;stroke-width:1.0;"/><polygon fill="#181818" points="485.96,1854.2,493.1297,1853.4288,495.1754,1846.5139,488.0057,1847.2851,485.96,1854.2" style="stroke:#181818;stroke-width:1.0;"/></g><!--MD5=[6a0219449f6ccdbf03164197ad35a9b7]
link GMN651 to EthernetSwitchService--><g id="link_GMN651_EthernetSwitchService"><path d="M198.87,1212.84 C228.39,1161.43 289.23,1071.5 370.5,1035 C437.8,1004.77 629.86,1022.12 702.5,1035 C744.82,1042.5 788.09,1052.82 831.01,1064.91 " fill="none" id="GMN651-EthernetSwitchService" style="stroke:#181818;stroke-width:1.0;stroke-dasharray:7.0,7.0;"/></g><!--MD5=[00a7b3c6cedcc857f096e4343d7ccaca]
link EthernetSwitchRepository to EthernetSwitchService--><g id="link_EthernetSwitchRepository_EthernetSwitchService"><path codeLine="51" d="M1395.59,267 C1415.55,295.77 1448.65,347.19 1467,396 C1491.27,460.55 1539.26,955.22 1587,1005 C1665.79,1087.16 1764.65,976.31 1836,1065 C1849.51,1081.8 1858.56,1113.5 1837,1113.5 " fill="none" id="EthernetSwitchRepository-EthernetSwitchService" style="stroke:#181818;stroke-width:1.0;"/></g><!--MD5=[7eb08d8b4260e68a2df9b03110170485]
link EthernetSwitchPortRepository to EthernetSwitchService--><g id="link_EthernetSwitchPortRepository_EthernetSwitchService"><path codeLine="52" d="M1416.22,80.42 C1449.97,86.52 1481.51,94.9 1494,106 C1618.72,216.8 1613,295.17 1613,462 C1613,462 1613,462 1613,615 C1613,741.54 1963.54,1138.5 1837,1138.5 " fill="none" id="EthernetSwitchPortRepository-EthernetSwitchService" style="stroke:#181818;stroke-width:1.0;"/></g><!--MD5=[20602760d8e2622c2f34a54a1a95e3af]
link IGenericRepository to EthernetSwitchService--><!--MD5=[10f60970fbbaee124124fe840932bcf7]
link EthernetSwitchPortRepository to EthernetSwitchRepository--><!--MD5=[1150ff4a2de42a70bfddf29dbe9f1355]
link EthernetSwitchService to EthernetSwitchServiceTypes--><g id="link_EthernetSwitchService_EthernetSwitchServiceTypes"><path codeLine="64" d="M1291,1436.19 C1291,1458.67 1291,1479.46 1291,1495.93 " fill="none" id="EthernetSwitchService-EthernetSwitchServiceTypes" style="stroke:#181818;stroke-width:1.0;stroke-dasharray:7.0,7.0;"/></g><!--MD5=[b0f7fe5f31df835059ab1c194901a7fe]
link EthernetSwitchServiceTypes to EthernetSwitchCreateDto--><g id="link_EthernetSwitchServiceTypes_EthernetSwitchCreateDto"><path codeLine="66" d="M1356.15,1571.03 C1372.45,1580.88 1389.66,1591.9 1405,1603 C1432.71,1623.05 1461.88,1648.35 1483.65,1668.15 " fill="none" id="EthernetSwitchServiceTypes-EthernetSwitchCreateDto" style="stroke:#181818;stroke-width:1.0;stroke-dasharray:7.0,7.0;"/></g><!--MD5=[7856b62c62afd124a133667fc83a018f]
link EthernetSwitchServiceTypes to EthernetSwitchUpdateDto--><g id="link_EthernetSwitchServiceTypes_EthernetSwitchUpdateDto"><path codeLine="67" d="M1291,1571.34 C1291,1600.38 1291,1640.47 1291,1668.25 " fill="none" id="EthernetSwitchServiceTypes-EthernetSwitchUpdateDto" style="stroke:#181818;stroke-width:1.0;stroke-dasharray:7.0,7.0;"/></g><!--MD5=[8b781ed27e3c4292de80ef1c58982566]
link EthernetSwitchServiceTypes to EthernetSwitchDto--><g id="link_EthernetSwitchServiceTypes_EthernetSwitchDto"><path codeLine="68" d="M1223.25,1571.05 C1207.51,1580.66 1191.21,1591.56 1177,1603 C1149.08,1625.47 1121.46,1656.19 1103.88,1677.1 " fill="none" id="EthernetSwitchServiceTypes-EthernetSwitchDto" style="stroke:#181818;stroke-width:1.0;stroke-dasharray:7.0,7.0;"/></g><!--MD5=[3d23c21b5c57a9e6738af21ac811c5b4]
@startuml
!include ../repositories/EthernetSwitchRepository.puml
!include ../repositories/EthernetSwitchPortRepository.puml
!include ../dto/EthernetSwitch/EthernetSwitchCreateDto.puml
!include ../dto/EthernetSwitch/EthernetSwitchUpdateDto.puml
!include ../dto/EthernetSwitch/EthernetSwitchDto.puml
!include ../dto/EthernetSwitch/EthernetSwitchModelDto.puml
!include ../dto/EthernetSwitchPort/EthernetSwitchPortCreateDto.puml
!include ../dto/EthernetSwitchPort/EthernetSwitchPortUpdateDto.puml
!include ../dto/EthernetSwitchPort/EthernetSwitchPortDto.puml

package app {
    class EthernetSwitchService {
        -switchRepo interfaces.IGenericRepository[domain.EthernetSwitch]
        - -
        -portRepo interfaces.IGenericRepository[domain.EthernetSwitchPort]
        - -
        +GetList(ctx context.Context, search, orderBy, orderDirection string, page, pageSize int) (dtos.PaginatedItemsDto[dtos.EthernetSwitchDto], error)
        - -
        +GetByID(ctx context.Context, id uuid.UUID) (dtos.EthernetSwitchDto, error)
        - -
        +Create(ctx context.Context, createDto dtos.EthernetSwitchCreateDto) (dtos.EthernetSwitchDto, error)
        - -
        +Update(ctx context.Context, updateDto dtos.EthernetSwitchUpdateDto, id uuid.UUID) (dtos.EthernetSwitchDto, error)
        - -
        +Delete(ctx context.Context, id uuid.UUID) error
        - -
        +GetSupportedModels() []dtos.EthernetSwitchModelDto
        - -
        +GetPortByID(ctx context.Context, switchID, id uuid.UUID) (dtos.EthernetSwitchPortDto, error)
        - -
        +CreatePort(ctx context.Context, switchID uuid.UUID, createDto dtos.EthernetSwitchPortCreateDto) (dtos.EthernetSwitchPortDto, error)
        - -
        +UpdatePort(ctx context.Context, switchID, id uuid.UUID, updateDto dtos.EthernetSwitchPortUpdateDto) (dtos.EthernetSwitchPortDto, error)
        - -
        +GetPorts(ctx context.Context, switchID uuid.UUID, search, orderBy, orderDirection string, page, pageSize int) (dtos.PaginatedItemsDto[dtos.EthernetSwitchPortDto], error)
        - -
        +DeletePort(ctx context.Context, switchID, id uuid.UUID) error
    }

    note left of EthernetSwitchService::GetSupportedModels
    Get ethernet switch models that supported by system
    end note

    note left of EthernetSwitchService
        Advanced business logic for EthernetSwitch entity:
        DTO Validation
        Checking the uniqueness of serial numbers
        Checking the uniqueness of addresses
    end note

    EthernetSwitchRepository -right- EthernetSwitchService::switchRepo
    EthernetSwitchPortRepository -right- EthernetSwitchService::portRepo

    EthernetSwitchService .[hidden]up. IGenericRepository
    EthernetSwitchPortRepository .[hidden]down. EthernetSwitchRepository

    note as EthernetSwitchServiceTypes
    EntityType is EthernetSwitch
    CreateDtoType is EthernetSwitchCreateDto
    UpdateDtoType is EthernetSwitchUpdateDto
    DtoType is EthernetSwitchDto
    end note

    EthernetSwitchService .down. EthernetSwitchServiceTypes

    EthernetSwitchServiceTypes .. EthernetSwitchCreateDto
    EthernetSwitchServiceTypes .. EthernetSwitchUpdateDto
    EthernetSwitchServiceTypes .. EthernetSwitchDto

}
@enduml

@startuml




package app {
    interface IEntityModel {
        +GetID() uuid.UUID
    }
}


package domain {
    class Entity {
        +ID uuid.UUID `gorm:"primarykey"`
        - -
        +CreatedAt time.Time `gorm:"index"`
        - -
        +UpdatedAt time.Time `gorm:"index"`
        - -
        +DeletedAt gorm.DeletedAt `gorm:"index"`
    }
    Entity .down.|> IEntityModel
}


package domain {
    class EthernetSwitch {
        +Name string
        - -
        +Serial string
        - -
        +SwitchModel string
        - -
        +Address string
        - -
        +Username string
        - -
        +Password string
    }
    note left of EthernetSwitch::Serial
    Unique
    end note

    note left of EthernetSwitch::Address
    Unique
    Ip address of the switch
    end note

    EthernetSwitch -down-* Entity
}



package app {
    interface IGenericRepository<EntityType> {
        +GetList(ctx context.Context, orderBy string, orderDirection string, page int, size int, queryBuilder interfaces.IQueryBuilder) ([]EntityType, error)
        - -
        +Count(ctx context.Context, queryBuilder interfaces.IQueryBuilder) (int64, error)
        - -
        +NewQueryBuilder(ctx context.Context) interfaces.IQueryBuilder
        - -
        +GetById(ctx context.Context, id uuid.UUID) (EntityType, error)
        - -
        +Update(ctx context.Context, entity EntityType) (EntityType, error)
        - -
        +Insert(ctx context.Context, entity EntityType) (EntityType, error)
        - -
        +Delete(ctx context.Context, id uuid.UUID) error
        - -
        +CloseDb() error
    }
    note left of IGenericRepository::GetList
      Get list of elements with filtering and pagination
    end note

    note left of IGenericRepository::Count
      Get count of entities with filtering
    end note

    note left of IGenericRepository::NewQueryBuilder
      Get new instance of the query builder
    end note

    note left of IGenericRepository::GetById
      Get entity by ID from repository
    end note

    note left of IGenericRepository::Update
      Save the changes to the existing entity in the repository
    end note

    note left of IGenericRepository::Insert
      Add entity to the repository
    end note

    note left of IGenericRepository::Delete
      Delete entity from the database
    end note

    note left of IGenericRepository::CloseDb
      Closes current database connection
    end note
}


package infrastructure {
    class GormGenericRepository<EntityType>

    GormGenericRepository .down.|> IGenericRepository
}


package infrastructure {
    class EthernetSwitchRepository

    EthernetSwitchRepository -down-* GormGenericRepository


    note "EntityType is EthernetSwitch" as EthernetSwitchTypeNote

    EthernetSwitchRepository .down. EthernetSwitchTypeNote
    GormGenericRepository <.up. EthernetSwitchTypeNote
    EthernetSwitch .. EthernetSwitchTypeNote
}




package domain {
    class EthernetSwitchPort {
        +EthernetSwitchId uuid.UUID
        - -
        +POEType string
        - -
        +Name string
    }

    EthernetSwitchPort -down-* Entity

    note left of EthernetSwitchPort::POEType
      POE port type
      can be: "poe", "poe+", "passive24", "none"
    end note

    note left of EthernetSwitchPort::Name
      Unique within 1 switch
    end note
}


package infrastructure {
    class EthernetSwitchPortRepository

    EthernetSwitchPortRepository -down-* GormGenericRepository


    note "EntityType is EthernetSwitchPort" as EthernetSwitchPortTypeNote

    EthernetSwitchPortRepository .down. EthernetSwitchPortTypeNote
    GormGenericRepository <.up. EthernetSwitchPortTypeNote
    EthernetSwitchPort .. EthernetSwitchPortTypeNote
}




package dtos {
    class EthernetSwitchBaseDto {
        +Name string
        - -
        +Serial string
        - -
        +SwitchModel string
        - -
        +Address string
        - -
        +Username string
    }
}


package dtos {
    class EthernetSwitchCreateDto {
        +Password string
    }

    EthernetSwitchCreateDto - -* EthernetSwitchBaseDto
}



package dtos {
    class EthernetSwitchUpdateDto {
        +Password string
    }

    EthernetSwitchUpdateDto - -* EthernetSwitchBaseDto
}



package dtos {
    class BaseDto {
        +ID uuid.UUID
        - -
        +CreatedAt time.Time
        - -
        +UpdatedAt time.Time
    }
}


package dtos {
    class EthernetSwitchDto {

    }
    EthernetSwitchDto - -* EthernetSwitchBaseDto
    EthernetSwitchDto - -* BaseDto
}


package dtos {
    class EthernetSwitchModelDto {
        +Code string
        - -
        +Manufacturer string
        - -
        +Model string
    }
}



package dtos {
    class EthernetSwitchPortBaseDto {
        +POEType string
        - -
        +Name string
    }
}


package dtos {
    class EthernetSwitchPortCreateDto

    EthernetSwitchPortCreateDto - -* EthernetSwitchPortBaseDto
}



package dtos {
    class EthernetSwitchPortUpdateDto

    EthernetSwitchPortUpdateDto - -* EthernetSwitchPortBaseDto
}



package dtos {
    class EthernetSwitchPortDto

    EthernetSwitchPortDto - -* BaseDto
    EthernetSwitchPortDto - -* EthernetSwitchPortBaseDto
}


package app {
    class EthernetSwitchService {
        -switchRepo interfaces.IGenericRepository[domain.EthernetSwitch]
        - -
        -portRepo interfaces.IGenericRepository[domain.EthernetSwitchPort]
        - -
        +GetList(ctx context.Context, search, orderBy, orderDirection string, page, pageSize int) (dtos.PaginatedItemsDto[dtos.EthernetSwitchDto], error)
        - -
        +GetByID(ctx context.Context, id uuid.UUID) (dtos.EthernetSwitchDto, error)
        - -
        +Create(ctx context.Context, createDto dtos.EthernetSwitchCreateDto) (dtos.EthernetSwitchDto, error)
        - -
        +Update(ctx context.Context, updateDto dtos.EthernetSwitchUpdateDto, id uuid.UUID) (dtos.EthernetSwitchDto, error)
        - -
        +Delete(ctx context.Context, id uuid.UUID) error
        - -
        +GetSupportedModels() []dtos.EthernetSwitchModelDto
        - -
        +GetPortByID(ctx context.Context, switchID, id uuid.UUID) (dtos.EthernetSwitchPortDto, error)
        - -
        +CreatePort(ctx context.Context, switchID uuid.UUID, createDto dtos.EthernetSwitchPortCreateDto) (dtos.EthernetSwitchPortDto, error)
        - -
        +UpdatePort(ctx context.Context, switchID, id uuid.UUID, updateDto dtos.EthernetSwitchPortUpdateDto) (dtos.EthernetSwitchPortDto, error)
        - -
        +GetPorts(ctx context.Context, switchID uuid.UUID, search, orderBy, orderDirection string, page, pageSize int) (dtos.PaginatedItemsDto[dtos.EthernetSwitchPortDto], error)
        - -
        +DeletePort(ctx context.Context, switchID, id uuid.UUID) error
    }

    note left of EthernetSwitchService::GetSupportedModels
    Get ethernet switch models that supported by system
    end note

    note left of EthernetSwitchService
        Advanced business logic for EthernetSwitch entity:
        DTO Validation
        Checking the uniqueness of serial numbers
        Checking the uniqueness of addresses
    end note

    EthernetSwitchRepository -right- EthernetSwitchService::switchRepo
    EthernetSwitchPortRepository -right- EthernetSwitchService::portRepo

    EthernetSwitchService .[hidden]up. IGenericRepository
    EthernetSwitchPortRepository .[hidden]down. EthernetSwitchRepository

    note as EthernetSwitchServiceTypes
    EntityType is EthernetSwitch
    CreateDtoType is EthernetSwitchCreateDto
    UpdateDtoType is EthernetSwitchUpdateDto
    DtoType is EthernetSwitchDto
    end note

    EthernetSwitchService .down. EthernetSwitchServiceTypes

    EthernetSwitchServiceTypes .. EthernetSwitchCreateDto
    EthernetSwitchServiceTypes .. EthernetSwitchUpdateDto
    EthernetSwitchServiceTypes .. EthernetSwitchDto

}
@enduml

PlantUML version 1.2022.6(Tue Jun 21 20:34:49 MSK 2022)
(GPL source distribution)
Java Runtime: OpenJDK Runtime Environment
JVM: OpenJDK 64-Bit Server VM
Default Encoding: Cp1251
Language: ru
Country: RU
--></g></svg>