<?xml version="1.0" encoding="UTF-8" standalone="no"?><svg xmlns="http://www.w3.org/2000/svg" xmlns:xlink="http://www.w3.org/1999/xlink" contentStyleType="text/css" height="416px" preserveAspectRatio="none" style="width:1242px;height:416px;background:#FFFFFF;" version="1.1" viewBox="0 0 1242 416" width="1242px" zoomAndPan="magnify"><defs/><g><!--MD5=[d5ac3844f66b12d9e08170e47495e096]
cluster app--><g id="cluster_app"><path d="M8.5,6 L35.5,6 A3.75,3.75 0 0 1 38,8.5 L45,29.6094 L1232.5,29.6094 A2.5,2.5 0 0 1 1235,32.1094 L1235,406.5 A2.5,2.5 0 0 1 1232.5,409 L8.5,409 A2.5,2.5 0 0 1 6,406.5 L6,8.5 A2.5,2.5 0 0 1 8.5,6 " style="stroke:#000000;stroke-width:1.5;fill:none;"/><line style="stroke:#000000;stroke-width:1.5;fill:none;" x1="6" x2="45" y1="29.6094" y2="29.6094"/><text fill="#000000" font-family="sans-serif" font-size="14" font-weight="bold" lengthAdjust="spacing" textLength="26" x="10" y="22.5332">app</text></g><!--MD5=[7c0ed5f9a527ab221a5373ebedcc681c]
class IGenericService--><g id="elem_IGenericService"><rect codeLine="3" fill="#F1F1F1" height="160.0469" id="IGenericService" rx="2.5" ry="2.5" style="stroke:#181818;stroke-width:0.5;" width="835" x="383.5" y="222"/><ellipse cx="599.75" cy="238" fill="#B4A7E5" rx="11" ry="11" style="stroke:#181818;stroke-width:1.0;"/><path d="M600.7031,234.6406 L600.7031,241.2969 L602.4219,241.2969 Q603.0313,241.2969 603.2969,241.5313 Q603.5625,241.7656 603.5625,242.1563 Q603.5625,242.5313 603.2969,242.7656 Q603.0313,243 602.4219,243 L597.2813,243 Q596.6719,243 596.4063,242.7656 Q596.1406,242.5313 596.1406,242.1406 Q596.1406,241.7656 596.4063,241.5313 Q596.6719,241.2969 597.2813,241.2969 L599,241.2969 L599,234.6406 L597.2813,234.6406 Q596.6719,234.6406 596.4063,234.4063 Q596.1406,234.1719 596.1406,233.7813 Q596.1406,233.4063 596.4063,233.1719 Q596.6719,232.9375 597.2813,232.9375 L602.4219,232.9375 Q603.0313,232.9375 603.2969,233.1719 Q603.5625,233.4063 603.5625,233.7813 Q603.5625,234.1719 603.2969,234.4063 Q603.0313,234.6406 602.4219,234.6406 L600.7031,234.6406 Z " fill="#000000"/><text fill="#000000" font-family="sans-serif" font-size="14" font-style="italic" lengthAdjust="spacing" textLength="100" x="620.25" y="243.7285">IGenericService</text><rect fill="#FFFFFF" height="17.0938" style="stroke:#000000;stroke-width:1.0;stroke-dasharray:2.0,2.0;" width="292" x="929.5" y="219"/><text fill="#000000" font-family="sans-serif" font-size="12" font-style="italic" lengthAdjust="spacing" textLength="290" x="930.5" y="232.457">EntityType, CreateDtoType, UpdateDtoType, DtoType</text><line style="stroke:#181818;stroke-width:0.5;" x1="384.5" x2="1217.5" y1="254" y2="254"/><ellipse cx="394.5" cy="265" fill="#84BE84" rx="3" ry="3" style="stroke:#038048;stroke-width:1.0;"/><text fill="#000000" font-family="sans-serif" font-size="14" lengthAdjust="spacing" textLength="809" x="403.5" y="272.5332">GetList(ctx context.Context, search, orderBy, orderDirection string, page, pageSize int) (dtos.PaginatedItemsDto[DtoType], error)</text><line style="stroke:#181818;stroke-width:1.0;" x1="384.5" x2="1217.5" y1="279.6094" y2="279.6094"/><ellipse cx="394.5" cy="290.6094" fill="#84BE84" rx="3" ry="3" style="stroke:#038048;stroke-width:1.0;"/><text fill="#000000" font-family="sans-serif" font-size="14" lengthAdjust="spacing" textLength="370" x="403.5" y="298.1426">GetById(ctx context.Context, id uuid.UUID) (DtoType, error)</text><line style="stroke:#181818;stroke-width:1.0;" x1="384.5" x2="1217.5" y1="305.2188" y2="305.2188"/><ellipse cx="394.5" cy="316.2188" fill="#84BE84" rx="3" ry="3" style="stroke:#038048;stroke-width:1.0;"/><text fill="#000000" font-family="sans-serif" font-size="14" lengthAdjust="spacing" textLength="542" x="403.5" y="323.752">Update(ctx context.Context, updateDto UpdateDtoType, id uuid.UUID) (DtoType, error)</text><line style="stroke:#181818;stroke-width:1.0;" x1="384.5" x2="1217.5" y1="330.8281" y2="330.8281"/><ellipse cx="394.5" cy="341.8281" fill="#84BE84" rx="3" ry="3" style="stroke:#038048;stroke-width:1.0;"/><text fill="#000000" font-family="sans-serif" font-size="14" lengthAdjust="spacing" textLength="449" x="403.5" y="349.3613">Create(ctx context.Context, createDto CreateDtoType) (DtoType, error)</text><line style="stroke:#181818;stroke-width:1.0;" x1="384.5" x2="1217.5" y1="356.4375" y2="356.4375"/><ellipse cx="394.5" cy="367.4375" fill="#84BE84" rx="3" ry="3" style="stroke:#038048;stroke-width:1.0;"/><text fill="#000000" font-family="sans-serif" font-size="14" lengthAdjust="spacing" textLength="289" x="403.5" y="374.9707">Delete(ctx context.Context, id uuid.UUID) error</text></g><path d="M22,211 L22,237.3516 A0,0 0 0 0 22,237.3516 L314,237.3516 A0,0 0 0 0 314,237.3516 L314,229 L387.5,266.8047 L314,221 L314,221 L304,211 L22,211 A0,0 0 0 0 22,211 " fill="#FEFFDD" style="stroke:#181818;stroke-width:0.5;"/><path d="M304,211 L304,221 L314,221 L304,211 " fill="#FEFFDD" style="stroke:#181818;stroke-width:0.5;"/><text fill="#000000" font-family="sans-serif" font-size="13" lengthAdjust="spacing" textLength="271" x="28" y="229.4951">Get list of elements with search and pagination</text><path d="M22,247.3516 L22,273.7031 A0,0 0 0 0 22,273.7031 L207,273.7031 A0,0 0 0 0 207,273.7031 L207,265.3516 L387.5,292.4141 L207,257.3516 L207,257.3516 L197,247.3516 L22,247.3516 A0,0 0 0 0 22,247.3516 " fill="#FEFFDD" style="stroke:#181818;stroke-width:0.5;"/><path d="M197,247.3516 L197,257.3516 L207,257.3516 L197,247.3516 " fill="#FEFFDD" style="stroke:#181818;stroke-width:0.5;"/><text fill="#000000" font-family="sans-serif" font-size="13" lengthAdjust="spacing" textLength="164" x="28" y="265.8467">Get entity by ID from service</text><path d="M22,283.7031 L22,310.0547 A0,0 0 0 0 22,310.0547 L348,310.0547 A0,0 0 0 0 348,310.0547 L348,301.7031 L387.5,318.0234 L348,293.7031 L348,293.7031 L338,283.7031 L22,283.7031 A0,0 0 0 0 22,283.7031 " fill="#FEFFDD" style="stroke:#181818;stroke-width:0.5;"/><path d="M338,283.7031 L338,293.7031 L348,293.7031 L338,283.7031 " fill="#FEFFDD" style="stroke:#181818;stroke-width:0.5;"/><text fill="#000000" font-family="sans-serif" font-size="13" lengthAdjust="spacing" textLength="305" x="28" y="302.1982">Save the changes to the existing entity in the service</text><path d="M22,320.0547 L22,346.4063 A0,0 0 0 0 22,346.4063 L183,346.4063 A0,0 0 0 0 183,346.4063 L183,338.0547 L387.5,343.6328 L183,330.0547 L183,330.0547 L173,320.0547 L22,320.0547 A0,0 0 0 0 22,320.0547 " fill="#FEFFDD" style="stroke:#181818;stroke-width:0.5;"/><path d="M173,320.0547 L173,330.0547 L183,330.0547 L173,320.0547 " fill="#FEFFDD" style="stroke:#181818;stroke-width:0.5;"/><text fill="#000000" font-family="sans-serif" font-size="13" lengthAdjust="spacing" textLength="140" x="28" y="338.5498">Add entity to the service</text><path d="M22,356.4063 L22,382.7578 A0,0 0 0 0 22,382.7578 L190,382.7578 A0,0 0 0 0 190,382.7578 L190,374.4063 L387.5,369.2422 L190,366.4063 L190,366.4063 L180,356.4063 L22,356.4063 A0,0 0 0 0 22,356.4063 " fill="#FEFFDD" style="stroke:#181818;stroke-width:0.5;"/><path d="M180,356.4063 L180,366.4063 L190,366.4063 L180,356.4063 " fill="#FEFFDD" style="stroke:#181818;stroke-width:0.5;"/><text fill="#000000" font-family="sans-serif" font-size="13" lengthAdjust="spacing" textLength="147" x="28" y="374.9014">Mark an entity as deleted</text><!--MD5=[356bca08515a5260142359877c3882a6]
class GenericService--><g id="elem_GenericService"><rect codeLine="4" fill="#F1F1F1" height="108.8281" id="GenericService" rx="2.5" ry="2.5" style="stroke:#181818;stroke-width:0.5;" width="423" x="589.5" y="42"/><ellipse cx="604.5" cy="58" fill="#ADD1B2" rx="11" ry="11" style="stroke:#181818;stroke-width:1.0;"/><path d="M607.2656,53.875 Q607.4219,53.6563 607.6094,53.5469 Q607.7969,53.4375 608.0156,53.4375 Q608.3906,53.4375 608.625,53.7031 Q608.8594,53.9531 608.8594,54.5625 L608.8594,56.0156 Q608.8594,56.625 608.625,56.8906 Q608.3906,57.1563 608.0156,57.1563 Q607.6719,57.1563 607.4688,56.9531 Q607.2656,56.7656 607.1563,56.25 Q607.1094,55.8906 606.9219,55.7031 Q606.5938,55.3281 605.9844,55.1094 Q605.375,54.8906 604.75,54.8906 Q603.9844,54.8906 603.3438,55.2188 Q602.7188,55.5469 602.2188,56.2969 Q601.7344,57.0469 601.7344,58.0781 L601.7344,59.1719 Q601.7344,60.4063 602.625,61.2344 Q603.5156,62.0469 605.1094,62.0469 Q606.0469,62.0469 606.7031,61.7969 Q607.0938,61.6406 607.5156,61.2031 Q607.7813,60.9375 607.9219,60.8594 Q608.0781,60.7813 608.2813,60.7813 Q608.6094,60.7813 608.8594,61.0469 Q609.125,61.2969 609.125,61.6406 Q609.125,61.9844 608.7813,62.3906 Q608.2813,62.9688 607.4844,63.2969 Q606.4063,63.75 605.1094,63.75 Q603.5938,63.75 602.3906,63.125 Q601.4063,62.625 600.7188,61.5625 Q600.0313,60.4844 600.0313,59.2031 L600.0313,58.0469 Q600.0313,56.7188 600.6406,55.5781 Q601.2656,54.4219 602.3594,53.8125 Q603.4531,53.1875 604.6875,53.1875 Q605.4219,53.1875 606.0625,53.3594 Q606.7188,53.5156 607.2656,53.875 Z " fill="#000000"/><text fill="#000000" font-family="sans-serif" font-size="14" lengthAdjust="spacing" textLength="97" x="618.5" y="63.7285">GenericService</text><rect fill="#FFFFFF" height="17.0938" style="stroke:#000000;stroke-width:1.0;stroke-dasharray:2.0,2.0;" width="292" x="723.5" y="39"/><text fill="#000000" font-family="sans-serif" font-size="12" font-style="italic" lengthAdjust="spacing" textLength="290" x="724.5" y="52.457">EntityType, CreateDtoType, UpdateDtoType, DtoType</text><line style="stroke:#181818;stroke-width:0.5;" x1="590.5" x2="1011.5" y1="74" y2="74"/><rect fill="none" height="6" style="stroke:#C82930;stroke-width:1.0;" width="6" x="597.5" y="82"/><text fill="#000000" font-family="sans-serif" font-size="14" lengthAdjust="spacing" textLength="271" x="609.5" y="92.5332">repository IGenericRepository&lt;EntityType&gt;</text><line style="stroke:#181818;stroke-width:1.0;" x1="590.5" x2="1011.5" y1="99.6094" y2="99.6094"/><rect fill="none" height="6" style="stroke:#C82930;stroke-width:1.0;" width="6" x="597.5" y="107.6094"/><text fill="#000000" font-family="sans-serif" font-size="14" lengthAdjust="spacing" textLength="137" x="609.5" y="118.1426">logger *logrus.Logger</text><line style="stroke:#181818;stroke-width:1.0;" x1="590.5" x2="1011.5" y1="125.2188" y2="125.2188"/><rect fill="none" height="6" style="stroke:#C82930;stroke-width:1.0;" width="6" x="597.5" y="133.2188"/><text fill="#000000" font-family="sans-serif" font-size="14" lengthAdjust="spacing" textLength="139" x="609.5" y="143.752">logSourceName string</text></g><!--MD5=[56424cb3f8ebacad4e8ce83d86c39ad6]
link GenericService to IGenericService--><g id="link_GenericService_IGenericService"><path codeLine="11" d="M801,151.23 C801,166.72 801,184.14 801,201.47 " fill="none" id="GenericService-to-IGenericService" style="stroke:#181818;stroke-width:1.0;stroke-dasharray:7.0,7.0;"/><polygon fill="none" points="808,201.65,801,221.65,794,201.65,808,201.65" style="stroke:#181818;stroke-width:1.0;"/></g><!--MD5=[026f9cc1aacec84f3cd2e03e39eef7ff]
@startuml
!include ../interfaces/IGenericService.puml

package app {
    class GenericService<EntityType, CreateDtoType, UpdateDtoType, DtoType> {
        -repository IGenericRepository<EntityType>
        - -
        -logger *logrus.Logger
        - -
        -logSourceName string
    }
    GenericService .down.|> IGenericService
}

@enduml

@startuml

package app {
    interface IGenericService<EntityType, CreateDtoType, UpdateDtoType, DtoType> {
        +GetList(ctx context.Context, search, orderBy, orderDirection string, page, pageSize int) (dtos.PaginatedItemsDto[DtoType], error)
        - -
        +GetById(ctx context.Context, id uuid.UUID) (DtoType, error)
        - -
        +Update(ctx context.Context, updateDto UpdateDtoType, id uuid.UUID) (DtoType, error)
        - -
        +Create(ctx context.Context, createDto CreateDtoType) (DtoType, error)
        - -
        +Delete(ctx context.Context, id uuid.UUID) error
    }
    note left of IGenericService::GetList
        Get list of elements with search and pagination
    end note

    note left of IGenericService::GetById
        Get entity by ID from service
    end note

    note left of IGenericService::Update
        Save the changes to the existing entity in the service
    end note

    note left of IGenericService::Create
        Add entity to the service
    end note

    note left of IGenericService::Delete
        Mark an entity as deleted
    end note
}


package app {
    class GenericService<EntityType, CreateDtoType, UpdateDtoType, DtoType> {
        -repository IGenericRepository<EntityType>
        - -
        -logger *logrus.Logger
        - -
        -logSourceName string
    }
    GenericService .down.|> IGenericService
}

@enduml

PlantUML version 1.2022.6(Tue Jun 21 20:34:49 MSK 2022)
(GPL source distribution)
Java Runtime: OpenJDK Runtime Environment
JVM: OpenJDK 64-Bit Server VM
Default Encoding: Cp1251
Language: ru
Country: RU
--></g></svg>