<?xml version="1.0" encoding="UTF-8" standalone="no"?><svg xmlns="http://www.w3.org/2000/svg" xmlns:xlink="http://www.w3.org/1999/xlink" contentStyleType="text/css" height="416px" preserveAspectRatio="none" style="width:1236px;height:416px;background:#FFFFFF;" version="1.1" viewBox="0 0 1236 416" width="1236px" zoomAndPan="magnify"><defs/><g><!--MD5=[d5ac3844f66b12d9e08170e47495e096]
cluster app--><g id="cluster_app"><path d="M8.5,6 L35.5,6 A3.75,3.75 0 0 1 38,8.5 L45,29.6094 L1226.5,29.6094 A2.5,2.5 0 0 1 1229,32.1094 L1229,406.5 A2.5,2.5 0 0 1 1226.5,409 L8.5,409 A2.5,2.5 0 0 1 6,406.5 L6,8.5 A2.5,2.5 0 0 1 8.5,6 " style="stroke:#000000;stroke-width:1.5;fill:none;"/><line style="stroke:#000000;stroke-width:1.5;fill:none;" x1="6" x2="45" y1="29.6094" y2="29.6094"/><text fill="#000000" font-family="sans-serif" font-size="14" font-weight="bold" lengthAdjust="spacing" textLength="26" x="10" y="22.5332">app</text></g><!--MD5=[7c0ed5f9a527ab221a5373ebedcc681c]
class IGenericService--><g id="elem_IGenericService"><rect codeLine="3" fill="#F1F1F1" height="160.0469" id="IGenericService" rx="2.5" ry="2.5" style="stroke:#181818;stroke-width:0.5;" width="829" x="383.5" y="222"/><ellipse cx="596.75" cy="238" fill="#B4A7E5" rx="11" ry="11" style="stroke:#181818;stroke-width:1.0;"/><path d="M597.7031,234.6406 L597.7031,241.2969 L599.4219,241.2969 Q600.0313,241.2969 600.2969,241.5313 Q600.5625,241.7656 600.5625,242.1563 Q600.5625,242.5313 600.2969,242.7656 Q600.0313,243 599.4219,243 L594.2813,243 Q593.6719,243 593.4063,242.7656 Q593.1406,242.5313 593.1406,242.1406 Q593.1406,241.7656 593.4063,241.5313 Q593.6719,241.2969 594.2813,241.2969 L596,241.2969 L596,234.6406 L594.2813,234.6406 Q593.6719,234.6406 593.4063,234.4063 Q593.1406,234.1719 593.1406,233.7813 Q593.1406,233.4063 593.4063,233.1719 Q593.6719,232.9375 594.2813,232.9375 L599.4219,232.9375 Q600.0313,232.9375 600.2969,233.1719 Q600.5625,233.4063 600.5625,233.7813 Q600.5625,234.1719 600.2969,234.4063 Q600.0313,234.6406 599.4219,234.6406 L597.7031,234.6406 Z " fill="#000000"/><text fill="#000000" font-family="sans-serif" font-size="14" font-style="italic" lengthAdjust="spacing" textLength="100" x="617.25" y="243.7285">IGenericService</text><rect fill="#FFFFFF" height="17.0938" style="stroke:#000000;stroke-width:1.0;stroke-dasharray:2.0,2.0;" width="292" x="923.5" y="219"/><text fill="#000000" font-family="sans-serif" font-size="12" font-style="italic" lengthAdjust="spacing" textLength="290" x="924.5" y="232.457">EntityType, CreateDtoType, UpdateDtoType, DtoType</text><line style="stroke:#181818;stroke-width:0.5;" x1="384.5" x2="1211.5" y1="254" y2="254"/><ellipse cx="394.5" cy="265" fill="#84BE84" rx="3" ry="3" style="stroke:#038048;stroke-width:1.0;"/><text fill="#000000" font-family="sans-serif" font-size="14" lengthAdjust="spacing" textLength="803" x="403.5" y="272.5332">GetList(ctx context.Context, search, orderBy, orderDirection string, page, pageSize int) (*dtos.PaginatedListDto[DtoType], error)</text><line style="stroke:#181818;stroke-width:1.0;" x1="384.5" x2="1211.5" y1="279.6094" y2="279.6094"/><ellipse cx="394.5" cy="290.6094" fill="#84BE84" rx="3" ry="3" style="stroke:#038048;stroke-width:1.0;"/><text fill="#000000" font-family="sans-serif" font-size="14" lengthAdjust="spacing" textLength="375" x="403.5" y="298.1426">GetById(ctx context.Context, id uuid.UUID) (*DtoType, error)</text><line style="stroke:#181818;stroke-width:1.0;" x1="384.5" x2="1211.5" y1="305.2188" y2="305.2188"/><ellipse cx="394.5" cy="316.2188" fill="#84BE84" rx="3" ry="3" style="stroke:#038048;stroke-width:1.0;"/><text fill="#000000" font-family="sans-serif" font-size="14" lengthAdjust="spacing" textLength="470" x="403.5" y="323.752">Update(ctx context.Context, updateDto UpdateDtoType, id uuid.UUID) error</text><line style="stroke:#181818;stroke-width:1.0;" x1="384.5" x2="1211.5" y1="330.8281" y2="330.8281"/><ellipse cx="394.5" cy="341.8281" fill="#84BE84" rx="3" ry="3" style="stroke:#038048;stroke-width:1.0;"/><text fill="#000000" font-family="sans-serif" font-size="14" lengthAdjust="spacing" textLength="457" x="403.5" y="349.3613">Create(ctx context.Context, createDto CreateDtoType) (uuid.UUID, error)</text><line style="stroke:#181818;stroke-width:1.0;" x1="384.5" x2="1211.5" y1="356.4375" y2="356.4375"/><ellipse cx="394.5" cy="367.4375" fill="#84BE84" rx="3" ry="3" style="stroke:#038048;stroke-width:1.0;"/><text fill="#000000" font-family="sans-serif" font-size="14" lengthAdjust="spacing" textLength="289" x="403.5" y="374.9707">Delete(ctx context.Context, id uuid.UUID) error</text></g><path d="M22,211 L22,237.3516 A0,0 0 0 0 22,237.3516 L314,237.3516 A0,0 0 0 0 314,237.3516 L314,229 L387.5,266.8047 L314,221 L314,221 L304,211 L22,211 A0,0 0 0 0 22,211 " fill="#FEFFDD" style="stroke:#181818;stroke-width:0.5;"/><path d="M304,211 L304,221 L314,221 L304,211 " fill="#FEFFDD" style="stroke:#181818;stroke-width:0.5;"/><text fill="#000000" font-family="sans-serif" font-size="13" lengthAdjust="spacing" textLength="271" x="28" y="229.4951">Get list of elements with search and pagination</text><path d="M22,247.3516 L22,273.7031 A0,0 0 0 0 22,273.7031 L207,273.7031 A0,0 0 0 0 207,273.7031 L207,265.3516 L387.5,292.4141 L207,257.3516 L207,257.3516 L197,247.3516 L22,247.3516 A0,0 0 0 0 22,247.3516 " fill="#FEFFDD" style="stroke:#181818;stroke-width:0.5;"/><path d="M197,247.3516 L197,257.3516 L207,257.3516 L197,247.3516 " fill="#FEFFDD" style="stroke:#181818;stroke-width:0.5;"/><text fill="#000000" font-family="sans-serif" font-size="13" lengthAdjust="spacing" textLength="164" x="28" y="265.8467">Get entity by ID from service</text><path d="M22,283.7031 L22,310.0547 A0,0 0 0 0 22,310.0547 L348,310.0547 A0,0 0 0 0 348,310.0547 L348,301.7031 L387.5,318.0234 L348,293.7031 L348,293.7031 L338,283.7031 L22,283.7031 A0,0 0 0 0 22,283.7031 " fill="#FEFFDD" style="stroke:#181818;stroke-width:0.5;"/><path d="M338,283.7031 L338,293.7031 L348,293.7031 L338,283.7031 " fill="#FEFFDD" style="stroke:#181818;stroke-width:0.5;"/><text fill="#000000" font-family="sans-serif" font-size="13" lengthAdjust="spacing" textLength="305" x="28" y="302.1982">Save the changes to the existing entity in the service</text><path d="M22,320.0547 L22,346.4063 A0,0 0 0 0 22,346.4063 L183,346.4063 A0,0 0 0 0 183,346.4063 L183,338.0547 L387.5,343.6328 L183,330.0547 L183,330.0547 L173,320.0547 L22,320.0547 A0,0 0 0 0 22,320.0547 " fill="#FEFFDD" style="stroke:#181818;stroke-width:0.5;"/><path d="M173,320.0547 L173,330.0547 L183,330.0547 L173,320.0547 " fill="#FEFFDD" style="stroke:#181818;stroke-width:0.5;"/><text fill="#000000" font-family="sans-serif" font-size="13" lengthAdjust="spacing" textLength="140" x="28" y="338.5498">Add entity to the service</text><path d="M22,356.4063 L22,382.7578 A0,0 0 0 0 22,382.7578 L190,382.7578 A0,0 0 0 0 190,382.7578 L190,374.4063 L387.5,369.2422 L190,366.4063 L190,366.4063 L180,356.4063 L22,356.4063 A0,0 0 0 0 22,356.4063 " fill="#FEFFDD" style="stroke:#181818;stroke-width:0.5;"/><path d="M180,356.4063 L180,366.4063 L190,366.4063 L180,356.4063 " fill="#FEFFDD" style="stroke:#181818;stroke-width:0.5;"/><text fill="#000000" font-family="sans-serif" font-size="13" lengthAdjust="spacing" textLength="147" x="28" y="374.9014">Mark an entity as deleted</text><!--MD5=[356bca08515a5260142359877c3882a6]
class GenericService--><g id="elem_GenericService"><rect codeLine="4" fill="#F1F1F1" height="108.8281" id="GenericService" rx="2.5" ry="2.5" style="stroke:#181818;stroke-width:0.5;" width="423" x="586.5" y="42"/><ellipse cx="601.5" cy="58" fill="#ADD1B2" rx="11" ry="11" style="stroke:#181818;stroke-width:1.0;"/><path d="M604.2656,53.875 Q604.4219,53.6563 604.6094,53.5469 Q604.7969,53.4375 605.0156,53.4375 Q605.3906,53.4375 605.625,53.7031 Q605.8594,53.9531 605.8594,54.5625 L605.8594,56.0156 Q605.8594,56.625 605.625,56.8906 Q605.3906,57.1563 605.0156,57.1563 Q604.6719,57.1563 604.4688,56.9531 Q604.2656,56.7656 604.1563,56.25 Q604.1094,55.8906 603.9219,55.7031 Q603.5938,55.3281 602.9844,55.1094 Q602.375,54.8906 601.75,54.8906 Q600.9844,54.8906 600.3438,55.2188 Q599.7188,55.5469 599.2188,56.2969 Q598.7344,57.0469 598.7344,58.0781 L598.7344,59.1719 Q598.7344,60.4063 599.625,61.2344 Q600.5156,62.0469 602.1094,62.0469 Q603.0469,62.0469 603.7031,61.7969 Q604.0938,61.6406 604.5156,61.2031 Q604.7813,60.9375 604.9219,60.8594 Q605.0781,60.7813 605.2813,60.7813 Q605.6094,60.7813 605.8594,61.0469 Q606.125,61.2969 606.125,61.6406 Q606.125,61.9844 605.7813,62.3906 Q605.2813,62.9688 604.4844,63.2969 Q603.4063,63.75 602.1094,63.75 Q600.5938,63.75 599.3906,63.125 Q598.4063,62.625 597.7188,61.5625 Q597.0313,60.4844 597.0313,59.2031 L597.0313,58.0469 Q597.0313,56.7188 597.6406,55.5781 Q598.2656,54.4219 599.3594,53.8125 Q600.4531,53.1875 601.6875,53.1875 Q602.4219,53.1875 603.0625,53.3594 Q603.7188,53.5156 604.2656,53.875 Z " fill="#000000"/><text fill="#000000" font-family="sans-serif" font-size="14" lengthAdjust="spacing" textLength="97" x="615.5" y="63.7285">GenericService</text><rect fill="#FFFFFF" height="17.0938" style="stroke:#000000;stroke-width:1.0;stroke-dasharray:2.0,2.0;" width="292" x="720.5" y="39"/><text fill="#000000" font-family="sans-serif" font-size="12" font-style="italic" lengthAdjust="spacing" textLength="290" x="721.5" y="52.457">EntityType, CreateDtoType, UpdateDtoType, DtoType</text><line style="stroke:#181818;stroke-width:0.5;" x1="587.5" x2="1008.5" y1="74" y2="74"/><rect fill="none" height="6" style="stroke:#C82930;stroke-width:1.0;" width="6" x="594.5" y="82"/><text fill="#000000" font-family="sans-serif" font-size="14" lengthAdjust="spacing" textLength="271" x="606.5" y="92.5332">repository IGenericRepository&lt;EntityType&gt;</text><line style="stroke:#181818;stroke-width:1.0;" x1="587.5" x2="1008.5" y1="99.6094" y2="99.6094"/><rect fill="none" height="6" style="stroke:#C82930;stroke-width:1.0;" width="6" x="594.5" y="107.6094"/><text fill="#000000" font-family="sans-serif" font-size="14" lengthAdjust="spacing" textLength="137" x="606.5" y="118.1426">logger *logrus.Logger</text><line style="stroke:#181818;stroke-width:1.0;" x1="587.5" x2="1008.5" y1="125.2188" y2="125.2188"/><rect fill="none" height="6" style="stroke:#C82930;stroke-width:1.0;" width="6" x="594.5" y="133.2188"/><text fill="#000000" font-family="sans-serif" font-size="14" lengthAdjust="spacing" textLength="139" x="606.5" y="143.752">logSourceName string</text></g><!--MD5=[56424cb3f8ebacad4e8ce83d86c39ad6]
link GenericService to IGenericService--><g id="link_GenericService_IGenericService"><path codeLine="11" d="M798,151.23 C798,166.72 798,184.14 798,201.47 " fill="none" id="GenericService-to-IGenericService" style="stroke:#181818;stroke-width:1.0;stroke-dasharray:7.0,7.0;"/><polygon fill="none" points="805,201.65,798,221.65,791,201.65,805,201.65" style="stroke:#181818;stroke-width:1.0;"/></g><!--MD5=[2c508704ad464f022b1da9ed52259d13]
@startuml
!include ../interfaces/IGenericService.puml

package app {
    class GenericService<EntityType, CreateDtoType, UpdateDtoType, DtoType> {
        -repository IGenericRepository<EntityType>
        - -
        -logger *logrus.Logger
        - -
        -logSourceName string
    }
    GenericService .down.|> IGenericService
}

@enduml

@startuml

package app {
    interface IGenericService<EntityType, CreateDtoType, UpdateDtoType, DtoType> {
        +GetList(ctx context.Context, search, orderBy, orderDirection string, page, pageSize int) (*dtos.PaginatedListDto[DtoType], error)
        - -
        +GetById(ctx context.Context, id uuid.UUID) (*DtoType, error)
        - -
        +Update(ctx context.Context, updateDto UpdateDtoType, id uuid.UUID) error
        - -
        +Create(ctx context.Context, createDto CreateDtoType) (uuid.UUID, error)
        - -
        +Delete(ctx context.Context, id uuid.UUID) error
    }
    note left of IGenericService::GetList
        Get list of elements with search and pagination
    end note

    note left of IGenericService::GetById
        Get entity by ID from service
    end note

    note left of IGenericService::Update
        Save the changes to the existing entity in the service
    end note

    note left of IGenericService::Create
        Add entity to the service
    end note

    note left of IGenericService::Delete
        Mark an entity as deleted
    end note
}


package app {
    class GenericService<EntityType, CreateDtoType, UpdateDtoType, DtoType> {
        -repository IGenericRepository<EntityType>
        - -
        -logger *logrus.Logger
        - -
        -logSourceName string
    }
    GenericService .down.|> IGenericService
}

@enduml

PlantUML version 1.2022.6(Tue Jun 21 20:34:49 MSK 2022)
(GPL source distribution)
Java Runtime: OpenJDK Runtime Environment
JVM: OpenJDK 64-Bit Server VM
Default Encoding: Cp1251
Language: ru
Country: RU
--></g></svg>