<?xml version="1.0" encoding="UTF-8" standalone="no"?><svg xmlns="http://www.w3.org/2000/svg" xmlns:xlink="http://www.w3.org/1999/xlink" contentStyleType="text/css" height="347px" preserveAspectRatio="none" style="width:1302px;height:347px;background:#FFFFFF;" version="1.1" viewBox="0 0 1302 347" width="1302px" zoomAndPan="magnify"><defs/><g><!--MD5=[7c0ed5f9a527ab221a5373ebedcc681c]
class IGenericService--><g id="elem_IGenericService"><rect codeLine="1" fill="#F1F1F1" height="153.4844" id="IGenericService" rx="2.5" ry="2.5" style="stroke:#181818;stroke-width:0.5;" width="890" x="401" y="186.5"/><ellipse cx="618.25" cy="202.5" fill="#B4A7E5" rx="11" ry="11" style="stroke:#181818;stroke-width:1.0;"/><path d="M614.1719,198.2656 L614.1719,196.1094 L621.5625,196.1094 L621.5625,198.2656 L619.0938,198.2656 L619.0938,206.3438 L621.5625,206.3438 L621.5625,208.5 L614.1719,208.5 L614.1719,206.3438 L616.6406,206.3438 L616.6406,198.2656 L614.1719,198.2656 Z " fill="#000000"/><text fill="#000000" font-family="sans-serif" font-size="14" font-style="italic" lengthAdjust="spacing" textLength="109" x="638.75" y="207.3467">IGenericService</text><rect fill="#FFFFFF" height="15.9688" style="stroke:#000000;stroke-width:1.0;stroke-dasharray:2.0,2.0;" width="336" x="958" y="183.5"/><text fill="#000000" font-family="sans-serif" font-size="12" font-style="italic" lengthAdjust="spacing" textLength="334" x="959" y="195.6387">EntityType, CreateDtoType, UpdateDtoType, DtoType</text><line style="stroke:#181818;stroke-width:0.5;" x1="402" x2="1290" y1="218.5" y2="218.5"/><text fill="#000000" font-family="sans-serif" font-size="14" lengthAdjust="spacing" textLength="878" x="407" y="235.4951">GetList(ctx context.Context, search, orderBy, orderDirection string, page, pageSize int) (*dtos.PaginatedListDto[DtoType], error)</text><line style="stroke:#181818;stroke-width:1.0;" x1="402" x2="1290" y1="242.7969" y2="242.7969"/><text fill="#000000" font-family="sans-serif" font-size="14" lengthAdjust="spacing" textLength="411" x="407" y="259.792">GetById(ctx context.Context, id uuid.UUID) (*DtoType, error)</text><line style="stroke:#181818;stroke-width:1.0;" x1="402" x2="1290" y1="267.0938" y2="267.0938"/><text fill="#000000" font-family="sans-serif" font-size="14" lengthAdjust="spacing" textLength="518" x="407" y="284.0889">Update(ctx context.Context, updateDto UpdateDtoType, id uuid.UUID) error</text><line style="stroke:#181818;stroke-width:1.0;" x1="402" x2="1290" y1="291.3906" y2="291.3906"/><text fill="#000000" font-family="sans-serif" font-size="14" lengthAdjust="spacing" textLength="499" x="407" y="308.3857">Create(ctx context.Context, createDto CreateDtoType) (uuid.UUID, error)</text><line style="stroke:#181818;stroke-width:1.0;" x1="402" x2="1290" y1="315.6875" y2="315.6875"/><text fill="#000000" font-family="sans-serif" font-size="14" lengthAdjust="spacing" textLength="319" x="407" y="332.6826">Delete(ctx context.Context, id uuid.UUID) error</text></g><path d="M6,175 L6,200.1328 A0,0 0 0 0 6,200.1328 L327,200.1328 A0,0 0 0 0 327,200.1328 L327,193 L405,230.6484 L327,185 L327,185 L317,175 L6,175 A0,0 0 0 0 6,175 " fill="#FEFFDD" style="stroke:#181818;stroke-width:0.5;"/><path d="M317,175 L317,185 L327,185 L317,175 " fill="#FEFFDD" style="stroke:#181818;stroke-width:0.5;"/><text fill="#000000" font-family="sans-serif" font-size="13" lengthAdjust="spacing" textLength="300" x="12" y="192.0669">Get list of elements with search and pagination</text><path d="M6,210.1328 L6,235.2656 A0,0 0 0 0 6,235.2656 L209,235.2656 A0,0 0 0 0 209,235.2656 L209,228.1328 L405,254.9453 L209,220.1328 L209,220.1328 L199,210.1328 L6,210.1328 A0,0 0 0 0 6,210.1328 " fill="#FEFFDD" style="stroke:#181818;stroke-width:0.5;"/><path d="M199,210.1328 L199,220.1328 L209,220.1328 L199,210.1328 " fill="#FEFFDD" style="stroke:#181818;stroke-width:0.5;"/><text fill="#000000" font-family="sans-serif" font-size="13" lengthAdjust="spacing" textLength="182" x="12" y="227.1997">Get entity by ID from service</text><path d="M6,245.2656 L6,270.3984 A0,0 0 0 0 6,270.3984 L366,270.3984 A0,0 0 0 0 366,270.3984 L366,263.2656 L405,279.2422 L366,255.2656 L366,255.2656 L356,245.2656 L6,245.2656 A0,0 0 0 0 6,245.2656 " fill="#FEFFDD" style="stroke:#181818;stroke-width:0.5;"/><path d="M356,245.2656 L356,255.2656 L366,255.2656 L356,245.2656 " fill="#FEFFDD" style="stroke:#181818;stroke-width:0.5;"/><text fill="#000000" font-family="sans-serif" font-size="13" lengthAdjust="spacing" textLength="339" x="12" y="262.3325">Save the changes to the existing entity in the service</text><path d="M6,280.3984 L6,305.5313 A0,0 0 0 0 6,305.5313 L183,305.5313 A0,0 0 0 0 183,305.5313 L183,298.3984 L405,303.5391 L183,290.3984 L183,290.3984 L173,280.3984 L6,280.3984 A0,0 0 0 0 6,280.3984 " fill="#FEFFDD" style="stroke:#181818;stroke-width:0.5;"/><path d="M173,280.3984 L173,290.3984 L183,290.3984 L173,280.3984 " fill="#FEFFDD" style="stroke:#181818;stroke-width:0.5;"/><text fill="#000000" font-family="sans-serif" font-size="13" lengthAdjust="spacing" textLength="156" x="12" y="297.4653">Add entity to the service</text><path d="M6,315.5313 L6,340.6641 A0,0 0 0 0 6,340.6641 L189,340.6641 A0,0 0 0 0 189,340.6641 L189,333.5313 L405,327.8359 L189,325.5313 L189,325.5313 L179,315.5313 L6,315.5313 A0,0 0 0 0 6,315.5313 " fill="#FEFFDD" style="stroke:#181818;stroke-width:0.5;"/><path d="M179,315.5313 L179,325.5313 L189,325.5313 L179,315.5313 " fill="#FEFFDD" style="stroke:#181818;stroke-width:0.5;"/><text fill="#000000" font-family="sans-serif" font-size="13" lengthAdjust="spacing" textLength="162" x="12" y="332.5981">Mark an entity as deleted</text><!--MD5=[356bca08515a5260142359877c3882a6]
class GenericService--><g id="elem_GenericService"><rect codeLine="3" fill="#F1F1F1" height="104.8906" id="GenericService" rx="2.5" ry="2.5" style="stroke:#181818;stroke-width:0.5;" width="474" x="609" y="10"/><ellipse cx="624" cy="26" fill="#ADD1B2" rx="11" ry="11" style="stroke:#181818;stroke-width:1.0;"/><path d="M626.9688,31.6406 Q626.3906,31.9375 625.75,32.0781 Q625.1094,32.2344 624.4063,32.2344 Q621.9063,32.2344 620.5781,30.5938 Q619.2656,28.9375 619.2656,25.8125 Q619.2656,22.6875 620.5781,21.0313 Q621.9063,19.375 624.4063,19.375 Q625.1094,19.375 625.75,19.5313 Q626.4063,19.6875 626.9688,19.9844 L626.9688,22.7031 Q626.3438,22.125 625.75,21.8594 Q625.1563,21.5781 624.5313,21.5781 Q623.1875,21.5781 622.5,22.6563 Q621.8125,23.7188 621.8125,25.8125 Q621.8125,27.9063 622.5,28.9844 Q623.1875,30.0469 624.5313,30.0469 Q625.1563,30.0469 625.75,29.7813 Q626.3438,29.5 626.9688,28.9219 L626.9688,31.6406 Z " fill="#000000"/><text fill="#000000" font-family="sans-serif" font-size="14" lengthAdjust="spacing" textLength="104" x="638" y="30.8467">GenericService</text><rect fill="#FFFFFF" height="15.9688" style="stroke:#000000;stroke-width:1.0;stroke-dasharray:2.0,2.0;" width="336" x="750" y="7"/><text fill="#000000" font-family="sans-serif" font-size="12" font-style="italic" lengthAdjust="spacing" textLength="334" x="751" y="19.1387">EntityType, CreateDtoType, UpdateDtoType, DtoType</text><line style="stroke:#181818;stroke-width:0.5;" x1="610" x2="1082" y1="42" y2="42"/><text fill="#000000" font-family="sans-serif" font-size="14" lengthAdjust="spacing" textLength="204" x="615" y="58.9951">repository IGenericRepository</text><line style="stroke:#181818;stroke-width:1.0;" x1="610" x2="1082" y1="66.2969" y2="66.2969"/><text fill="#000000" font-family="sans-serif" font-size="14" lengthAdjust="spacing" textLength="150" x="615" y="83.292">logger *logrus.Logger</text><line style="stroke:#181818;stroke-width:1.0;" x1="610" x2="1082" y1="90.5938" y2="90.5938"/><text fill="#000000" font-family="sans-serif" font-size="14" lengthAdjust="spacing" textLength="153" x="615" y="107.5889">logSourceName string</text></g><!--MD5=[62bd47cf3d4b7a45bad5b8f74f57b0fd]
reverse link GenericService to IGenericService--><g id="link_GenericService_IGenericService"><path codeLine="11" d="M846,135.37 C846,151.93 846,169.6 846,186.32 " fill="none" id="GenericService-backto-IGenericService" style="stroke:#181818;stroke-width:1.0;stroke-dasharray:7.0,7.0;"/><polygon fill="none" points="839,135.14,846,115.14,853,135.14,839,135.14" style="stroke:#181818;stroke-width:1.0;"/></g><!--MD5=[270236a516aac716bb411dcbd818b092]
@startuml
!include ../interfaces/generic/IGenericService.puml

class GenericService<EntityType, CreateDtoType, UpdateDtoType, DtoType> {
    repository IGenericRepository
    - -
    logger *logrus.Logger
    - -
    logSourceName string
}

GenericService <|.. IGenericService
@enduml

@startuml
interface IGenericService<EntityType, CreateDtoType, UpdateDtoType, DtoType> {
    GetList(ctx context.Context, search, orderBy, orderDirection string, page, pageSize int) (*dtos.PaginatedListDto[DtoType], error)
    - -
    GetById(ctx context.Context, id uuid.UUID) (*DtoType, error)
    - -
    Update(ctx context.Context, updateDto UpdateDtoType, id uuid.UUID) error
    - -
    Create(ctx context.Context, createDto CreateDtoType) (uuid.UUID, error)
    - -
    Delete(ctx context.Context, id uuid.UUID) error
}
note left of IGenericService::GetList
    Get list of elements with search and pagination
end note
note left of IGenericService::GetById
    Get entity by ID from service
end note
note left of IGenericService::Update
    Save the changes to the existing entity in the service
end note
note left of IGenericService::Create
    Add entity to the service
end note
note left of IGenericService::Delete
    Mark an entity as deleted
end note


class GenericService<EntityType, CreateDtoType, UpdateDtoType, DtoType> {
    repository IGenericRepository
    - -
    logger *logrus.Logger
    - -
    logSourceName string
}

GenericService <|.. IGenericService
@enduml

PlantUML version 1.2022.4(Sat Apr 09 13:29:17 UTC 2022)
(GPL source distribution)
Java Runtime: OpenJDK Runtime Environment
JVM: OpenJDK 64-Bit Server VM
Default Encoding: UTF-8
Language: en
Country: null
--></g></svg>