<?xml version="1.0" encoding="UTF-8" standalone="no"?><svg xmlns="http://www.w3.org/2000/svg" xmlns:xlink="http://www.w3.org/1999/xlink" contentStyleType="text/css" height="1102px" preserveAspectRatio="none" style="width:2809px;height:1102px;background:#FFFFFF;" version="1.1" viewBox="0 0 2809 1102" width="2809px" zoomAndPan="magnify"><defs/><g><!--MD5=[ac65c812e7532cbcd7b9effd958b962e]
cluster dtos--><g id="cluster_dtos"><path d="M1229.5,6 L1261.5,6 A3.75,3.75 0 0 1 1264,8.5 L1271,29.6094 L2368.5,29.6094 A2.5,2.5 0 0 1 2371,32.1094 L2371,332.5 A2.5,2.5 0 0 1 2368.5,335 L1229.5,335 A2.5,2.5 0 0 1 1227,332.5 L1227,8.5 A2.5,2.5 0 0 1 1229.5,6 " style="stroke:#000000;stroke-width:1.5;fill:none;"/><line style="stroke:#000000;stroke-width:1.5;fill:none;" x1="1227" x2="1271" y1="29.6094" y2="29.6094"/><text fill="#000000" font-family="sans-serif" font-size="14" font-weight="bold" lengthAdjust="spacing" textLength="31" x="1231" y="22.5332">dtos</text></g><!--MD5=[d5ac3844f66b12d9e08170e47495e096]
cluster app--><g id="cluster_app"><path d="M64.5,534.5 L91.5,534.5 A3.75,3.75 0 0 1 94,537 L101,558.1094 L2799.5,558.1094 A2.5,2.5 0 0 1 2802,560.6094 L2802,1093 A2.5,2.5 0 0 1 2799.5,1095.5 L64.5,1095.5 A2.5,2.5 0 0 1 62,1093 L62,537 A2.5,2.5 0 0 1 64.5,534.5 " style="stroke:#000000;stroke-width:1.5;fill:none;"/><line style="stroke:#000000;stroke-width:1.5;fill:none;" x1="62" x2="101" y1="558.1094" y2="558.1094"/><text fill="#000000" font-family="sans-serif" font-size="14" font-weight="bold" lengthAdjust="spacing" textLength="26" x="66" y="551.0332">app</text></g><!--MD5=[27f772719433d509ddbc20ff768eba08]
cluster domain--><g id="cluster_domain"><path d="M8.5,15.5 L60.5,15.5 A3.75,3.75 0 0 1 63,18 L70,39.1094 L770.5,39.1094 A2.5,2.5 0 0 1 773,41.6094 L773,508 A2.5,2.5 0 0 1 770.5,510.5 L8.5,510.5 A2.5,2.5 0 0 1 6,508 L6,18 A2.5,2.5 0 0 1 8.5,15.5 " style="stroke:#000000;stroke-width:1.5;fill:none;"/><line style="stroke:#000000;stroke-width:1.5;fill:none;" x1="6" x2="70" y1="39.1094" y2="39.1094"/><text fill="#000000" font-family="sans-serif" font-size="14" font-weight="bold" lengthAdjust="spacing" textLength="51" x="10" y="32.0332">domain</text></g><!--MD5=[77349be1bd27b81b697a0f9b3aded3c8]
cluster infrastructure--><g id="cluster_infrastructure"><path d="M1048.5,359 L1146.5,359 A3.75,3.75 0 0 1 1149,361.5 L1156,382.6094 L1718.5,382.6094 A2.5,2.5 0 0 1 1721,385.1094 L1721,498.5 A2.5,2.5 0 0 1 1718.5,501 L1048.5,501 A2.5,2.5 0 0 1 1046,498.5 L1046,361.5 A2.5,2.5 0 0 1 1048.5,359 " style="stroke:#000000;stroke-width:1.5;fill:none;"/><line style="stroke:#000000;stroke-width:1.5;fill:none;" x1="1046" x2="1156" y1="382.6094" y2="382.6094"/><text fill="#000000" font-family="sans-serif" font-size="14" font-weight="bold" lengthAdjust="spacing" textLength="97" x="1050" y="375.5332">infrastructure</text></g><!--MD5=[9e65b2396521abe67a0e24699b62cd97]
class HostNetworkVlanDto--><g id="elem_HostNetworkVlanDto"><rect codeLine="3" fill="#F1F1F1" height="134.4375" id="HostNetworkVlanDto" rx="2.5" ry="2.5" style="stroke:#181818;stroke-width:0.5;" width="160" x="1956" y="42"/><ellipse cx="1971" cy="58" fill="#ADD1B2" rx="11" ry="11" style="stroke:#181818;stroke-width:1.0;"/><path d="M1973.7656,53.875 Q1973.9219,53.6563 1974.1094,53.5469 Q1974.2969,53.4375 1974.5156,53.4375 Q1974.8906,53.4375 1975.125,53.7031 Q1975.3594,53.9531 1975.3594,54.5625 L1975.3594,56.0156 Q1975.3594,56.625 1975.125,56.8906 Q1974.8906,57.1563 1974.5156,57.1563 Q1974.1719,57.1563 1973.9688,56.9531 Q1973.7656,56.7656 1973.6563,56.25 Q1973.6094,55.8906 1973.4219,55.7031 Q1973.0938,55.3281 1972.4844,55.1094 Q1971.875,54.8906 1971.25,54.8906 Q1970.4844,54.8906 1969.8438,55.2188 Q1969.2188,55.5469 1968.7188,56.2969 Q1968.2344,57.0469 1968.2344,58.0781 L1968.2344,59.1719 Q1968.2344,60.4063 1969.125,61.2344 Q1970.0156,62.0469 1971.6094,62.0469 Q1972.5469,62.0469 1973.2031,61.7969 Q1973.5938,61.6406 1974.0156,61.2031 Q1974.2813,60.9375 1974.4219,60.8594 Q1974.5781,60.7813 1974.7813,60.7813 Q1975.1094,60.7813 1975.3594,61.0469 Q1975.625,61.2969 1975.625,61.6406 Q1975.625,61.9844 1975.2813,62.3906 Q1974.7813,62.9688 1973.9844,63.2969 Q1972.9063,63.75 1971.6094,63.75 Q1970.0938,63.75 1968.8906,63.125 Q1967.9063,62.625 1967.2188,61.5625 Q1966.5313,60.4844 1966.5313,59.2031 L1966.5313,58.0469 Q1966.5313,56.7188 1967.1406,55.5781 Q1967.7656,54.4219 1968.8594,53.8125 Q1969.9531,53.1875 1971.1875,53.1875 Q1971.9219,53.1875 1972.5625,53.3594 Q1973.2188,53.5156 1973.7656,53.875 Z " fill="#000000"/><text fill="#000000" font-family="sans-serif" font-size="14" lengthAdjust="spacing" textLength="128" x="1985" y="63.7285">HostNetworkVlanDto</text><line style="stroke:#181818;stroke-width:0.5;" x1="1957" x2="2115" y1="74" y2="74"/><ellipse cx="1967" cy="85" fill="none" rx="3" ry="3" style="stroke:#038048;stroke-width:1.0;"/><text fill="#000000" font-family="sans-serif" font-size="14" lengthAdjust="spacing" textLength="75" x="1976" y="92.5332">Name string</text><line style="stroke:#181818;stroke-width:1.0;" x1="1957" x2="2115" y1="99.6094" y2="99.6094"/><ellipse cx="1967" cy="110.6094" fill="none" rx="3" ry="3" style="stroke:#038048;stroke-width:1.0;"/><text fill="#000000" font-family="sans-serif" font-size="14" lengthAdjust="spacing" textLength="114" x="1976" y="118.1426">Addresses []string</text><line style="stroke:#181818;stroke-width:1.0;" x1="1957" x2="2115" y1="125.2188" y2="125.2188"/><ellipse cx="1967" cy="136.2188" fill="none" rx="3" ry="3" style="stroke:#038048;stroke-width:1.0;"/><text fill="#000000" font-family="sans-serif" font-size="14" lengthAdjust="spacing" textLength="60" x="1976" y="143.752">VlanID int</text><line style="stroke:#181818;stroke-width:1.0;" x1="1957" x2="2115" y1="150.8281" y2="150.8281"/><ellipse cx="1967" cy="161.8281" fill="none" rx="3" ry="3" style="stroke:#038048;stroke-width:1.0;"/><text fill="#000000" font-family="sans-serif" font-size="14" lengthAdjust="spacing" textLength="81" x="1976" y="169.3613">Parent string</text></g><!--MD5=[ae586694ec8944e3de5035463e31030f]
class HostNetworkVlanCreateDto--><g id="elem_HostNetworkVlanCreateDto"><rect codeLine="3" fill="#F1F1F1" height="108.8281" id="HostNetworkVlanCreateDto" rx="2.5" ry="2.5" style="stroke:#181818;stroke-width:0.5;" width="203" x="2151.5" y="54.5"/><ellipse cx="2166.5" cy="70.5" fill="#ADD1B2" rx="11" ry="11" style="stroke:#181818;stroke-width:1.0;"/><path d="M2169.2656,66.375 Q2169.4219,66.1563 2169.6094,66.0469 Q2169.7969,65.9375 2170.0156,65.9375 Q2170.3906,65.9375 2170.625,66.2031 Q2170.8594,66.4531 2170.8594,67.0625 L2170.8594,68.5156 Q2170.8594,69.125 2170.625,69.3906 Q2170.3906,69.6563 2170.0156,69.6563 Q2169.6719,69.6563 2169.4688,69.4531 Q2169.2656,69.2656 2169.1563,68.75 Q2169.1094,68.3906 2168.9219,68.2031 Q2168.5938,67.8281 2167.9844,67.6094 Q2167.375,67.3906 2166.75,67.3906 Q2165.9844,67.3906 2165.3438,67.7188 Q2164.7188,68.0469 2164.2188,68.7969 Q2163.7344,69.5469 2163.7344,70.5781 L2163.7344,71.6719 Q2163.7344,72.9063 2164.625,73.7344 Q2165.5156,74.5469 2167.1094,74.5469 Q2168.0469,74.5469 2168.7031,74.2969 Q2169.0938,74.1406 2169.5156,73.7031 Q2169.7813,73.4375 2169.9219,73.3594 Q2170.0781,73.2813 2170.2813,73.2813 Q2170.6094,73.2813 2170.8594,73.5469 Q2171.125,73.7969 2171.125,74.1406 Q2171.125,74.4844 2170.7813,74.8906 Q2170.2813,75.4688 2169.4844,75.7969 Q2168.4063,76.25 2167.1094,76.25 Q2165.5938,76.25 2164.3906,75.625 Q2163.4063,75.125 2162.7188,74.0625 Q2162.0313,72.9844 2162.0313,71.7031 L2162.0313,70.5469 Q2162.0313,69.2188 2162.6406,68.0781 Q2163.2656,66.9219 2164.3594,66.3125 Q2165.4531,65.6875 2166.6875,65.6875 Q2167.4219,65.6875 2168.0625,65.8594 Q2168.7188,66.0156 2169.2656,66.375 Z " fill="#000000"/><text fill="#000000" font-family="sans-serif" font-size="14" lengthAdjust="spacing" textLength="171" x="2180.5" y="76.2285">HostNetworkVlanCreateDto</text><line style="stroke:#181818;stroke-width:0.5;" x1="2152.5" x2="2353.5" y1="86.5" y2="86.5"/><ellipse cx="2162.5" cy="97.5" fill="none" rx="3" ry="3" style="stroke:#038048;stroke-width:1.0;"/><text fill="#000000" font-family="sans-serif" font-size="14" lengthAdjust="spacing" textLength="114" x="2171.5" y="105.0332">Addresses []string</text><line style="stroke:#181818;stroke-width:1.0;" x1="2152.5" x2="2353.5" y1="112.1094" y2="112.1094"/><ellipse cx="2162.5" cy="123.1094" fill="none" rx="3" ry="3" style="stroke:#038048;stroke-width:1.0;"/><text fill="#000000" font-family="sans-serif" font-size="14" lengthAdjust="spacing" textLength="60" x="2171.5" y="130.6426">VlanID int</text><line style="stroke:#181818;stroke-width:1.0;" x1="2152.5" x2="2353.5" y1="137.7188" y2="137.7188"/><ellipse cx="2162.5" cy="148.7188" fill="none" rx="3" ry="3" style="stroke:#038048;stroke-width:1.0;"/><text fill="#000000" font-family="sans-serif" font-size="14" lengthAdjust="spacing" textLength="81" x="2171.5" y="156.252">Parent string</text></g><!--MD5=[2b90e6aa41438807c1b2d791f97e652d]
class HostNetworkVlanUpdateDto--><g id="elem_HostNetworkVlanUpdateDto"><rect codeLine="3" fill="#F1F1F1" height="65.6094" id="HostNetworkVlanUpdateDto" rx="2.5" ry="2.5" style="stroke:#181818;stroke-width:0.5;" width="205" x="1933.5" y="244.5"/><ellipse cx="1948.5" cy="260.5" fill="#ADD1B2" rx="11" ry="11" style="stroke:#181818;stroke-width:1.0;"/><path d="M1951.2656,256.375 Q1951.4219,256.1563 1951.6094,256.0469 Q1951.7969,255.9375 1952.0156,255.9375 Q1952.3906,255.9375 1952.625,256.2031 Q1952.8594,256.4531 1952.8594,257.0625 L1952.8594,258.5156 Q1952.8594,259.125 1952.625,259.3906 Q1952.3906,259.6563 1952.0156,259.6563 Q1951.6719,259.6563 1951.4688,259.4531 Q1951.2656,259.2656 1951.1563,258.75 Q1951.1094,258.3906 1950.9219,258.2031 Q1950.5938,257.8281 1949.9844,257.6094 Q1949.375,257.3906 1948.75,257.3906 Q1947.9844,257.3906 1947.3438,257.7188 Q1946.7188,258.0469 1946.2188,258.7969 Q1945.7344,259.5469 1945.7344,260.5781 L1945.7344,261.6719 Q1945.7344,262.9063 1946.625,263.7344 Q1947.5156,264.5469 1949.1094,264.5469 Q1950.0469,264.5469 1950.7031,264.2969 Q1951.0938,264.1406 1951.5156,263.7031 Q1951.7813,263.4375 1951.9219,263.3594 Q1952.0781,263.2813 1952.2813,263.2813 Q1952.6094,263.2813 1952.8594,263.5469 Q1953.125,263.7969 1953.125,264.1406 Q1953.125,264.4844 1952.7813,264.8906 Q1952.2813,265.4688 1951.4844,265.7969 Q1950.4063,266.25 1949.1094,266.25 Q1947.5938,266.25 1946.3906,265.625 Q1945.4063,265.125 1944.7188,264.0625 Q1944.0313,262.9844 1944.0313,261.7031 L1944.0313,260.5469 Q1944.0313,259.2188 1944.6406,258.0781 Q1945.2656,256.9219 1946.3594,256.3125 Q1947.4531,255.6875 1948.6875,255.6875 Q1949.4219,255.6875 1950.0625,255.8594 Q1950.7188,256.0156 1951.2656,256.375 Z " fill="#000000"/><text fill="#000000" font-family="sans-serif" font-size="14" lengthAdjust="spacing" textLength="173" x="1962.5" y="266.2285">HostNetworkVlanUpdateDto</text><line style="stroke:#181818;stroke-width:0.5;" x1="1934.5" x2="2137.5" y1="276.5" y2="276.5"/><ellipse cx="1944.5" cy="287.5" fill="none" rx="3" ry="3" style="stroke:#038048;stroke-width:1.0;"/><text fill="#000000" font-family="sans-serif" font-size="14" lengthAdjust="spacing" textLength="114" x="1953.5" y="295.0332">Addresses []string</text><line style="stroke:#181818;stroke-width:0.5;" x1="1934.5" x2="2137.5" y1="302.1094" y2="302.1094"/></g><!--MD5=[2e53ace943225f2b23e15194d4a4abab]
class HostNetworkBridgeBaseDto--><g id="elem_HostNetworkBridgeBaseDto"><rect codeLine="3" fill="#F1F1F1" height="83.2188" id="HostNetworkBridgeBaseDto" rx="2.5" ry="2.5" style="stroke:#181818;stroke-width:0.5;" width="205" x="1501.5" y="236"/><ellipse cx="1516.5" cy="252" fill="#ADD1B2" rx="11" ry="11" style="stroke:#181818;stroke-width:1.0;"/><path d="M1519.2656,247.875 Q1519.4219,247.6563 1519.6094,247.5469 Q1519.7969,247.4375 1520.0156,247.4375 Q1520.3906,247.4375 1520.625,247.7031 Q1520.8594,247.9531 1520.8594,248.5625 L1520.8594,250.0156 Q1520.8594,250.625 1520.625,250.8906 Q1520.3906,251.1563 1520.0156,251.1563 Q1519.6719,251.1563 1519.4688,250.9531 Q1519.2656,250.7656 1519.1563,250.25 Q1519.1094,249.8906 1518.9219,249.7031 Q1518.5938,249.3281 1517.9844,249.1094 Q1517.375,248.8906 1516.75,248.8906 Q1515.9844,248.8906 1515.3438,249.2188 Q1514.7188,249.5469 1514.2188,250.2969 Q1513.7344,251.0469 1513.7344,252.0781 L1513.7344,253.1719 Q1513.7344,254.4063 1514.625,255.2344 Q1515.5156,256.0469 1517.1094,256.0469 Q1518.0469,256.0469 1518.7031,255.7969 Q1519.0938,255.6406 1519.5156,255.2031 Q1519.7813,254.9375 1519.9219,254.8594 Q1520.0781,254.7813 1520.2813,254.7813 Q1520.6094,254.7813 1520.8594,255.0469 Q1521.125,255.2969 1521.125,255.6406 Q1521.125,255.9844 1520.7813,256.3906 Q1520.2813,256.9688 1519.4844,257.2969 Q1518.4063,257.75 1517.1094,257.75 Q1515.5938,257.75 1514.3906,257.125 Q1513.4063,256.625 1512.7188,255.5625 Q1512.0313,254.4844 1512.0313,253.2031 L1512.0313,252.0469 Q1512.0313,250.7188 1512.6406,249.5781 Q1513.2656,248.4219 1514.3594,247.8125 Q1515.4531,247.1875 1516.6875,247.1875 Q1517.4219,247.1875 1518.0625,247.3594 Q1518.7188,247.5156 1519.2656,247.875 Z " fill="#000000"/><text fill="#000000" font-family="sans-serif" font-size="14" lengthAdjust="spacing" textLength="173" x="1530.5" y="257.7285">HostNetworkBridgeBaseDto</text><line style="stroke:#181818;stroke-width:0.5;" x1="1502.5" x2="1705.5" y1="268" y2="268"/><ellipse cx="1512.5" cy="279" fill="none" rx="3" ry="3" style="stroke:#038048;stroke-width:1.0;"/><text fill="#000000" font-family="sans-serif" font-size="14" lengthAdjust="spacing" textLength="114" x="1521.5" y="286.5332">Addresses []string</text><line style="stroke:#181818;stroke-width:1.0;" x1="1502.5" x2="1705.5" y1="293.6094" y2="293.6094"/><ellipse cx="1512.5" cy="304.6094" fill="none" rx="3" ry="3" style="stroke:#038048;stroke-width:1.0;"/><text fill="#000000" font-family="sans-serif" font-size="14" lengthAdjust="spacing" textLength="89" x="1521.5" y="312.1426">Slaves []string</text></g><!--MD5=[959d98ef48e520040c0e0004800f4c9e]
class HostNetworkBridgeDto--><g id="elem_HostNetworkBridgeDto"><rect codeLine="5" fill="#F1F1F1" height="65.6094" id="HostNetworkBridgeDto" rx="2.5" ry="2.5" style="stroke:#181818;stroke-width:0.5;" width="173" x="1747.5" y="76"/><ellipse cx="1762.5" cy="92" fill="#ADD1B2" rx="11" ry="11" style="stroke:#181818;stroke-width:1.0;"/><path d="M1765.2656,87.875 Q1765.4219,87.6563 1765.6094,87.5469 Q1765.7969,87.4375 1766.0156,87.4375 Q1766.3906,87.4375 1766.625,87.7031 Q1766.8594,87.9531 1766.8594,88.5625 L1766.8594,90.0156 Q1766.8594,90.625 1766.625,90.8906 Q1766.3906,91.1563 1766.0156,91.1563 Q1765.6719,91.1563 1765.4688,90.9531 Q1765.2656,90.7656 1765.1563,90.25 Q1765.1094,89.8906 1764.9219,89.7031 Q1764.5938,89.3281 1763.9844,89.1094 Q1763.375,88.8906 1762.75,88.8906 Q1761.9844,88.8906 1761.3438,89.2188 Q1760.7188,89.5469 1760.2188,90.2969 Q1759.7344,91.0469 1759.7344,92.0781 L1759.7344,93.1719 Q1759.7344,94.4063 1760.625,95.2344 Q1761.5156,96.0469 1763.1094,96.0469 Q1764.0469,96.0469 1764.7031,95.7969 Q1765.0938,95.6406 1765.5156,95.2031 Q1765.7813,94.9375 1765.9219,94.8594 Q1766.0781,94.7813 1766.2813,94.7813 Q1766.6094,94.7813 1766.8594,95.0469 Q1767.125,95.2969 1767.125,95.6406 Q1767.125,95.9844 1766.7813,96.3906 Q1766.2813,96.9688 1765.4844,97.2969 Q1764.4063,97.75 1763.1094,97.75 Q1761.5938,97.75 1760.3906,97.125 Q1759.4063,96.625 1758.7188,95.5625 Q1758.0313,94.4844 1758.0313,93.2031 L1758.0313,92.0469 Q1758.0313,90.7188 1758.6406,89.5781 Q1759.2656,88.4219 1760.3594,87.8125 Q1761.4531,87.1875 1762.6875,87.1875 Q1763.4219,87.1875 1764.0625,87.3594 Q1764.7188,87.5156 1765.2656,87.875 Z " fill="#000000"/><text fill="#000000" font-family="sans-serif" font-size="14" lengthAdjust="spacing" textLength="141" x="1776.5" y="97.7285">HostNetworkBridgeDto</text><line style="stroke:#181818;stroke-width:0.5;" x1="1748.5" x2="1919.5" y1="108" y2="108"/><ellipse cx="1758.5" cy="119" fill="none" rx="3" ry="3" style="stroke:#038048;stroke-width:1.0;"/><text fill="#000000" font-family="sans-serif" font-size="14" lengthAdjust="spacing" textLength="75" x="1767.5" y="126.5332">Name string</text><line style="stroke:#181818;stroke-width:0.5;" x1="1748.5" x2="1919.5" y1="133.6094" y2="133.6094"/></g><!--MD5=[be13ff517f65d25284e902b832f021d3]
class HostNetworkBridgeCreateDto--><g id="elem_HostNetworkBridgeCreateDto"><rect codeLine="5" fill="#F1F1F1" height="65.6094" id="HostNetworkBridgeCreateDto" rx="2.5" ry="2.5" style="stroke:#181818;stroke-width:0.5;" width="216" x="1496" y="76"/><ellipse cx="1511" cy="92" fill="#ADD1B2" rx="11" ry="11" style="stroke:#181818;stroke-width:1.0;"/><path d="M1513.7656,87.875 Q1513.9219,87.6563 1514.1094,87.5469 Q1514.2969,87.4375 1514.5156,87.4375 Q1514.8906,87.4375 1515.125,87.7031 Q1515.3594,87.9531 1515.3594,88.5625 L1515.3594,90.0156 Q1515.3594,90.625 1515.125,90.8906 Q1514.8906,91.1563 1514.5156,91.1563 Q1514.1719,91.1563 1513.9688,90.9531 Q1513.7656,90.7656 1513.6563,90.25 Q1513.6094,89.8906 1513.4219,89.7031 Q1513.0938,89.3281 1512.4844,89.1094 Q1511.875,88.8906 1511.25,88.8906 Q1510.4844,88.8906 1509.8438,89.2188 Q1509.2188,89.5469 1508.7188,90.2969 Q1508.2344,91.0469 1508.2344,92.0781 L1508.2344,93.1719 Q1508.2344,94.4063 1509.125,95.2344 Q1510.0156,96.0469 1511.6094,96.0469 Q1512.5469,96.0469 1513.2031,95.7969 Q1513.5938,95.6406 1514.0156,95.2031 Q1514.2813,94.9375 1514.4219,94.8594 Q1514.5781,94.7813 1514.7813,94.7813 Q1515.1094,94.7813 1515.3594,95.0469 Q1515.625,95.2969 1515.625,95.6406 Q1515.625,95.9844 1515.2813,96.3906 Q1514.7813,96.9688 1513.9844,97.2969 Q1512.9063,97.75 1511.6094,97.75 Q1510.0938,97.75 1508.8906,97.125 Q1507.9063,96.625 1507.2188,95.5625 Q1506.5313,94.4844 1506.5313,93.2031 L1506.5313,92.0469 Q1506.5313,90.7188 1507.1406,89.5781 Q1507.7656,88.4219 1508.8594,87.8125 Q1509.9531,87.1875 1511.1875,87.1875 Q1511.9219,87.1875 1512.5625,87.3594 Q1513.2188,87.5156 1513.7656,87.875 Z " fill="#000000"/><text fill="#000000" font-family="sans-serif" font-size="14" lengthAdjust="spacing" textLength="184" x="1525" y="97.7285">HostNetworkBridgeCreateDto</text><line style="stroke:#181818;stroke-width:0.5;" x1="1497" x2="1711" y1="108" y2="108"/><ellipse cx="1507" cy="119" fill="none" rx="3" ry="3" style="stroke:#038048;stroke-width:1.0;"/><text fill="#000000" font-family="sans-serif" font-size="14" lengthAdjust="spacing" textLength="75" x="1516" y="126.5332">Name string</text><line style="stroke:#181818;stroke-width:0.5;" x1="1497" x2="1711" y1="133.6094" y2="133.6094"/></g><!--MD5=[5546c94c66db65c343af19ea8c2c4263]
class HostNetworkBridgeUpdateDto--><g id="elem_HostNetworkBridgeUpdateDto"><rect codeLine="5" fill="#F1F1F1" height="48" id="HostNetworkBridgeUpdateDto" rx="2.5" ry="2.5" style="stroke:#181818;stroke-width:0.5;" width="218" x="1243" y="85"/><ellipse cx="1258" cy="101" fill="#ADD1B2" rx="11" ry="11" style="stroke:#181818;stroke-width:1.0;"/><path d="M1260.7656,96.875 Q1260.9219,96.6563 1261.1094,96.5469 Q1261.2969,96.4375 1261.5156,96.4375 Q1261.8906,96.4375 1262.125,96.7031 Q1262.3594,96.9531 1262.3594,97.5625 L1262.3594,99.0156 Q1262.3594,99.625 1262.125,99.8906 Q1261.8906,100.1563 1261.5156,100.1563 Q1261.1719,100.1563 1260.9688,99.9531 Q1260.7656,99.7656 1260.6563,99.25 Q1260.6094,98.8906 1260.4219,98.7031 Q1260.0938,98.3281 1259.4844,98.1094 Q1258.875,97.8906 1258.25,97.8906 Q1257.4844,97.8906 1256.8438,98.2188 Q1256.2188,98.5469 1255.7188,99.2969 Q1255.2344,100.0469 1255.2344,101.0781 L1255.2344,102.1719 Q1255.2344,103.4063 1256.125,104.2344 Q1257.0156,105.0469 1258.6094,105.0469 Q1259.5469,105.0469 1260.2031,104.7969 Q1260.5938,104.6406 1261.0156,104.2031 Q1261.2813,103.9375 1261.4219,103.8594 Q1261.5781,103.7813 1261.7813,103.7813 Q1262.1094,103.7813 1262.3594,104.0469 Q1262.625,104.2969 1262.625,104.6406 Q1262.625,104.9844 1262.2813,105.3906 Q1261.7813,105.9688 1260.9844,106.2969 Q1259.9063,106.75 1258.6094,106.75 Q1257.0938,106.75 1255.8906,106.125 Q1254.9063,105.625 1254.2188,104.5625 Q1253.5313,103.4844 1253.5313,102.2031 L1253.5313,101.0469 Q1253.5313,99.7188 1254.1406,98.5781 Q1254.7656,97.4219 1255.8594,96.8125 Q1256.9531,96.1875 1258.1875,96.1875 Q1258.9219,96.1875 1259.5625,96.3594 Q1260.2188,96.5156 1260.7656,96.875 Z " fill="#000000"/><text fill="#000000" font-family="sans-serif" font-size="14" lengthAdjust="spacing" textLength="186" x="1272" y="106.7285">HostNetworkBridgeUpdateDto</text><line style="stroke:#181818;stroke-width:0.5;" x1="1244" x2="1460" y1="117" y2="117"/><line style="stroke:#181818;stroke-width:0.5;" x1="1244" x2="1460" y1="125" y2="125"/></g><!--MD5=[7d972e8a870a7d3102e7596738050350]
class IHostNetworkLink--><g id="elem_IHostNetworkLink"><rect codeLine="3" fill="#F1F1F1" height="108.8281" id="IHostNetworkLink" rx="2.5" ry="2.5" style="stroke:#181818;stroke-width:0.5;" width="195" x="308.5" y="770.5"/><ellipse cx="346.45" cy="786.5" fill="#B4A7E5" rx="11" ry="11" style="stroke:#181818;stroke-width:1.0;"/><path d="M347.4031,783.1406 L347.4031,789.7969 L349.1219,789.7969 Q349.7313,789.7969 349.9969,790.0313 Q350.2625,790.2656 350.2625,790.6563 Q350.2625,791.0313 349.9969,791.2656 Q349.7313,791.5 349.1219,791.5 L343.9813,791.5 Q343.3719,791.5 343.1063,791.2656 Q342.8406,791.0313 342.8406,790.6406 Q342.8406,790.2656 343.1063,790.0313 Q343.3719,789.7969 343.9813,789.7969 L345.7,789.7969 L345.7,783.1406 L343.9813,783.1406 Q343.3719,783.1406 343.1063,782.9063 Q342.8406,782.6719 342.8406,782.2813 Q342.8406,781.9063 343.1063,781.6719 Q343.3719,781.4375 343.9813,781.4375 L349.1219,781.4375 Q349.7313,781.4375 349.9969,781.6719 Q350.2625,781.9063 350.2625,782.2813 Q350.2625,782.6719 349.9969,782.9063 Q349.7313,783.1406 349.1219,783.1406 L347.4031,783.1406 Z " fill="#000000"/><text fill="#000000" font-family="sans-serif" font-size="14" font-style="italic" lengthAdjust="spacing" textLength="112" x="365.55" y="792.2285">IHostNetworkLink</text><line style="stroke:#181818;stroke-width:0.5;" x1="309.5" x2="502.5" y1="802.5" y2="802.5"/><ellipse cx="319.5" cy="813.5" fill="#84BE84" rx="3" ry="3" style="stroke:#038048;stroke-width:1.0;"/><text fill="#000000" font-family="sans-serif" font-size="14" lengthAdjust="spacing" textLength="108" x="328.5" y="821.0332">GetName() string</text><line style="stroke:#181818;stroke-width:1.0;" x1="309.5" x2="502.5" y1="828.1094" y2="828.1094"/><ellipse cx="319.5" cy="839.1094" fill="#84BE84" rx="3" ry="3" style="stroke:#038048;stroke-width:1.0;"/><text fill="#000000" font-family="sans-serif" font-size="14" lengthAdjust="spacing" textLength="104" x="328.5" y="846.6426">GetType() string</text><line style="stroke:#181818;stroke-width:1.0;" x1="309.5" x2="502.5" y1="853.7188" y2="853.7188"/><ellipse cx="319.5" cy="864.7188" fill="#84BE84" rx="3" ry="3" style="stroke:#038048;stroke-width:1.0;"/><text fill="#000000" font-family="sans-serif" font-size="14" lengthAdjust="spacing" textLength="169" x="328.5" y="872.252">GetAddresses() []net.IPNet</text></g><path d="M78.5,770.5 L78.5,796.8516 A0,0 0 0 0 78.5,796.8516 L245.5,796.8516 A0,0 0 0 0 245.5,796.8516 L245.5,788.5 L312.5,815.3047 L245.5,780.5 L245.5,780.5 L235.5,770.5 L78.5,770.5 A0,0 0 0 0 78.5,770.5 " fill="#FEFFDD" style="stroke:#181818;stroke-width:0.5;"/><path d="M235.5,770.5 L235.5,780.5 L245.5,780.5 L235.5,770.5 " fill="#FEFFDD" style="stroke:#181818;stroke-width:0.5;"/><text fill="#000000" font-family="sans-serif" font-size="13" lengthAdjust="spacing" textLength="146" x="84.5" y="788.9951">Gets host interface name</text><path d="M78.5,806.8516 L78.5,833.2031 A0,0 0 0 0 78.5,833.2031 L238.5,833.2031 A0,0 0 0 0 238.5,833.2031 L238.5,824.8516 L312.5,840.9141 L238.5,816.8516 L238.5,816.8516 L228.5,806.8516 L78.5,806.8516 A0,0 0 0 0 78.5,806.8516 " fill="#FEFFDD" style="stroke:#181818;stroke-width:0.5;"/><path d="M228.5,806.8516 L228.5,816.8516 L238.5,816.8516 L228.5,806.8516 " fill="#FEFFDD" style="stroke:#181818;stroke-width:0.5;"/><text fill="#000000" font-family="sans-serif" font-size="13" lengthAdjust="spacing" textLength="139" x="84.5" y="825.3467">Gets host interface type</text><path d="M78.5,843.2031 L78.5,869.5547 A0,0 0 0 0 78.5,869.5547 L273.5,869.5547 A0,0 0 0 0 273.5,869.5547 L273.5,861.2031 L312.5,866.5234 L273.5,853.2031 L273.5,853.2031 L263.5,843.2031 L78.5,843.2031 A0,0 0 0 0 78.5,843.2031 " fill="#FEFFDD" style="stroke:#181818;stroke-width:0.5;"/><path d="M263.5,843.2031 L263.5,853.2031 L273.5,853.2031 L263.5,843.2031 " fill="#FEFFDD" style="stroke:#181818;stroke-width:0.5;"/><text fill="#000000" font-family="sans-serif" font-size="13" lengthAdjust="spacing" textLength="174" x="84.5" y="861.6982">Gets host interface addresses</text><!--MD5=[eee03abc33d997fda74f03d63bc5bd12]
class IHostNetworkManager--><g id="elem_IHostNetworkManager"><rect codeLine="5" fill="#F1F1F1" height="390.5313" id="IHostNetworkManager" rx="2.5" ry="2.5" style="stroke:#181818;stroke-width:0.5;" width="356" x="1339" y="629.5"/><ellipse cx="1441.75" cy="645.5" fill="#B4A7E5" rx="11" ry="11" style="stroke:#181818;stroke-width:1.0;"/><path d="M1442.7031,642.1406 L1442.7031,648.7969 L1444.4219,648.7969 Q1445.0313,648.7969 1445.2969,649.0313 Q1445.5625,649.2656 1445.5625,649.6563 Q1445.5625,650.0313 1445.2969,650.2656 Q1445.0313,650.5 1444.4219,650.5 L1439.2813,650.5 Q1438.6719,650.5 1438.4063,650.2656 Q1438.1406,650.0313 1438.1406,649.6406 Q1438.1406,649.2656 1438.4063,649.0313 Q1438.6719,648.7969 1439.2813,648.7969 L1441,648.7969 L1441,642.1406 L1439.2813,642.1406 Q1438.6719,642.1406 1438.4063,641.9063 Q1438.1406,641.6719 1438.1406,641.2813 Q1438.1406,640.9063 1438.4063,640.6719 Q1438.6719,640.4375 1439.2813,640.4375 L1444.4219,640.4375 Q1445.0313,640.4375 1445.2969,640.6719 Q1445.5625,640.9063 1445.5625,641.2813 Q1445.5625,641.6719 1445.2969,641.9063 Q1445.0313,642.1406 1444.4219,642.1406 L1442.7031,642.1406 Z " fill="#000000"/><text fill="#000000" font-family="sans-serif" font-size="14" font-style="italic" lengthAdjust="spacing" textLength="142" x="1462.25" y="651.2285">IHostNetworkManager</text><line style="stroke:#181818;stroke-width:0.5;" x1="1340" x2="1694" y1="661.5" y2="661.5"/><ellipse cx="1350" cy="672.5" fill="#84BE84" rx="3" ry="3" style="stroke:#038048;stroke-width:1.0;"/><text fill="#000000" font-family="sans-serif" font-size="14" lengthAdjust="spacing" textLength="223" x="1359" y="680.0332">GetList() ([]IHostNetworkLink, error)</text><line style="stroke:#181818;stroke-width:1.0;" x1="1340" x2="1694" y1="687.1094" y2="687.1094"/><ellipse cx="1350" cy="698.1094" fill="#84BE84" rx="3" ry="3" style="stroke:#038048;stroke-width:1.0;"/><text fill="#000000" font-family="sans-serif" font-size="14" lengthAdjust="spacing" textLength="319" x="1359" y="705.6426">GetByName(name string) (IHostNetworkLink, error)</text><line style="stroke:#181818;stroke-width:1.0;" x1="1340" x2="1694" y1="712.7188" y2="712.7188"/><ellipse cx="1350" cy="723.7188" fill="#84BE84" rx="3" ry="3" style="stroke:#038048;stroke-width:1.0;"/><text fill="#000000" font-family="sans-serif" font-size="14" lengthAdjust="spacing" textLength="317" x="1359" y="731.252">CreateVlan(master string, vlanID int) (string, error)</text><line style="stroke:#181818;stroke-width:1.0;" x1="1340" x2="1694" y1="738.3281" y2="738.3281"/><ellipse cx="1350" cy="749.3281" fill="#84BE84" rx="3" ry="3" style="stroke:#038048;stroke-width:1.0;"/><text fill="#000000" font-family="sans-serif" font-size="14" lengthAdjust="spacing" textLength="256" x="1359" y="756.8613">CreateBridge(name string) (string, error)</text><line style="stroke:#181818;stroke-width:1.0;" x1="1340" x2="1694" y1="763.9375" y2="763.9375"/><ellipse cx="1350" cy="774.9375" fill="#84BE84" rx="3" ry="3" style="stroke:#038048;stroke-width:1.0;"/><text fill="#000000" font-family="sans-serif" font-size="14" lengthAdjust="spacing" textLength="330" x="1359" y="782.4707">SetLinkMaster(slaveName, masterName string) error</text><line style="stroke:#181818;stroke-width:1.0;" x1="1340" x2="1694" y1="789.5469" y2="789.5469"/><ellipse cx="1350" cy="800.5469" fill="#84BE84" rx="3" ry="3" style="stroke:#038048;stroke-width:1.0;"/><text fill="#000000" font-family="sans-serif" font-size="14" lengthAdjust="spacing" textLength="246" x="1359" y="808.0801">UnsetLinkMaster(linkName string) error</text><line style="stroke:#181818;stroke-width:1.0;" x1="1340" x2="1694" y1="815.1563" y2="815.1563"/><ellipse cx="1350" cy="826.1563" fill="#84BE84" rx="3" ry="3" style="stroke:#038048;stroke-width:1.0;"/><text fill="#000000" font-family="sans-serif" font-size="14" lengthAdjust="spacing" textLength="205" x="1359" y="833.6895">SetLinkUp(linkName string) error</text><line style="stroke:#181818;stroke-width:1.0;" x1="1340" x2="1694" y1="840.7656" y2="840.7656"/><ellipse cx="1350" cy="851.7656" fill="#84BE84" rx="3" ry="3" style="stroke:#038048;stroke-width:1.0;"/><text fill="#000000" font-family="sans-serif" font-size="14" lengthAdjust="spacing" textLength="238" x="1359" y="859.2988">DeleteLinkByName(name string) error</text><line style="stroke:#181818;stroke-width:1.0;" x1="1340" x2="1694" y1="866.375" y2="866.375"/><ellipse cx="1350" cy="877.375" fill="#84BE84" rx="3" ry="3" style="stroke:#038048;stroke-width:1.0;"/><text fill="#000000" font-family="sans-serif" font-size="14" lengthAdjust="spacing" textLength="294" x="1359" y="884.9082">AddrAdd(linkName string, addr net.IPNet) error</text><line style="stroke:#181818;stroke-width:1.0;" x1="1340" x2="1694" y1="891.9844" y2="891.9844"/><ellipse cx="1350" cy="902.9844" fill="#84BE84" rx="3" ry="3" style="stroke:#038048;stroke-width:1.0;"/><text fill="#000000" font-family="sans-serif" font-size="14" lengthAdjust="spacing" textLength="310" x="1359" y="910.5176">AddrDelete(linkName string, addr net.IPNet) error</text><line style="stroke:#181818;stroke-width:1.0;" x1="1340" x2="1694" y1="917.5938" y2="917.5938"/><ellipse cx="1350" cy="928.5938" fill="#84BE84" rx="3" ry="3" style="stroke:#038048;stroke-width:1.0;"/><text fill="#000000" font-family="sans-serif" font-size="14" lengthAdjust="spacing" textLength="162" x="1359" y="936.127">SaveConfiguration() error</text><line style="stroke:#181818;stroke-width:1.0;" x1="1340" x2="1694" y1="943.2031" y2="943.2031"/><ellipse cx="1350" cy="954.2031" fill="#84BE84" rx="3" ry="3" style="stroke:#038048;stroke-width:1.0;"/><text fill="#000000" font-family="sans-serif" font-size="14" lengthAdjust="spacing" textLength="175" x="1359" y="961.7363">RestoreFromBackup() error</text><line style="stroke:#181818;stroke-width:1.0;" x1="1340" x2="1694" y1="968.8125" y2="968.8125"/><ellipse cx="1350" cy="979.8125" fill="#84BE84" rx="3" ry="3" style="stroke:#038048;stroke-width:1.0;"/><text fill="#000000" font-family="sans-serif" font-size="14" lengthAdjust="spacing" textLength="139" x="1359" y="987.3457">ResetChanges() error</text><line style="stroke:#181818;stroke-width:1.0;" x1="1340" x2="1694" y1="994.4219" y2="994.4219"/><ellipse cx="1350" cy="1005.4219" fill="#84BE84" rx="3" ry="3" style="stroke:#038048;stroke-width:1.0;"/><text fill="#000000" font-family="sans-serif" font-size="14" lengthAdjust="spacing" textLength="177" x="1359" y="1012.9551">HasUnsavedChanges() bool</text></g><path d="M942.5,570.5 L942.5,596.8516 A0,0 0 0 0 942.5,596.8516 L1164.5,596.8516 A0,0 0 0 0 1164.5,596.8516 L1164.5,588.5 L1343,674.3047 L1164.5,580.5 L1164.5,580.5 L1154.5,570.5 L942.5,570.5 A0,0 0 0 0 942.5,570.5 " fill="#FEFFDD" style="stroke:#181818;stroke-width:0.5;"/><path d="M1154.5,570.5 L1154.5,580.5 L1164.5,580.5 L1154.5,570.5 " fill="#FEFFDD" style="stroke:#181818;stroke-width:0.5;"/><text fill="#000000" font-family="sans-serif" font-size="13" lengthAdjust="spacing" textLength="201" x="948.5" y="588.9951">Gets list of host network interfaces</text><path d="M942.5,606.8516 L942.5,633.2031 A0,0 0 0 0 942.5,633.2031 L1194.5,633.2031 A0,0 0 0 0 1194.5,633.2031 L1194.5,624.8516 L1343,699.9141 L1194.5,616.8516 L1194.5,616.8516 L1184.5,606.8516 L942.5,606.8516 A0,0 0 0 0 942.5,606.8516 " fill="#FEFFDD" style="stroke:#181818;stroke-width:0.5;"/><path d="M1184.5,606.8516 L1184.5,616.8516 L1194.5,616.8516 L1184.5,606.8516 " fill="#FEFFDD" style="stroke:#181818;stroke-width:0.5;"/><text fill="#000000" font-family="sans-serif" font-size="13" lengthAdjust="spacing" textLength="231" x="948.5" y="625.3467">Gets host network interface by its name</text><path d="M942.5,643.2031 L942.5,669.5547 A0,0 0 0 0 942.5,669.5547 L1292.5,669.5547 A0,0 0 0 0 1292.5,669.5547 L1292.5,661.2031 L1343,725.5234 L1292.5,653.2031 L1292.5,653.2031 L1282.5,643.2031 L942.5,643.2031 A0,0 0 0 0 942.5,643.2031 " fill="#FEFFDD" style="stroke:#181818;stroke-width:0.5;"/><path d="M1282.5,643.2031 L1282.5,653.2031 L1292.5,653.2031 L1282.5,643.2031 " fill="#FEFFDD" style="stroke:#181818;stroke-width:0.5;"/><text fill="#000000" font-family="sans-serif" font-size="13" lengthAdjust="spacing" textLength="329" x="948.5" y="661.6982">Create host vlan interface with name rol.{Master}.{VlanID}</text><path d="M942.5,679.5547 L942.5,705.9063 A0,0 0 0 0 942.5,705.9063 L1264.5,705.9063 A0,0 0 0 0 1264.5,705.9063 L1264.5,697.5547 L1343,751.1328 L1264.5,689.5547 L1264.5,689.5547 L1254.5,679.5547 L942.5,679.5547 A0,0 0 0 0 942.5,679.5547 " fill="#FEFFDD" style="stroke:#181818;stroke-width:0.5;"/><path d="M1254.5,679.5547 L1254.5,689.5547 L1264.5,689.5547 L1254.5,679.5547 " fill="#FEFFDD" style="stroke:#181818;stroke-width:0.5;"/><text fill="#000000" font-family="sans-serif" font-size="13" lengthAdjust="spacing" textLength="301" x="948.5" y="698.0498">Create host bridge interface with name rol.br.{Name}</text><path d="M942.5,715.9063 L942.5,742.2578 A0,0 0 0 0 942.5,742.2578 L1069.5,742.2578 A0,0 0 0 0 1069.5,742.2578 L1069.5,733.9063 L1343,776.7422 L1069.5,725.9063 L1069.5,725.9063 L1059.5,715.9063 L942.5,715.9063 A0,0 0 0 0 942.5,715.9063 " fill="#FEFFDD" style="stroke:#181818;stroke-width:0.5;"/><path d="M1059.5,715.9063 L1059.5,725.9063 L1069.5,725.9063 L1059.5,715.9063 " fill="#FEFFDD" style="stroke:#181818;stroke-width:0.5;"/><text fill="#000000" font-family="sans-serif" font-size="13" lengthAdjust="spacing" textLength="106" x="948.5" y="734.4014">Set master for link</text><path d="M942.5,752.2578 L942.5,778.6094 A0,0 0 0 0 942.5,778.6094 L1142.5,778.6094 A0,0 0 0 0 1142.5,778.6094 L1142.5,770.2578 L1343,802.3516 L1142.5,762.2578 L1142.5,762.2578 L1132.5,752.2578 L942.5,752.2578 A0,0 0 0 0 942.5,752.2578 " fill="#FEFFDD" style="stroke:#181818;stroke-width:0.5;"/><path d="M1132.5,752.2578 L1132.5,762.2578 L1142.5,762.2578 L1132.5,752.2578 " fill="#FEFFDD" style="stroke:#181818;stroke-width:0.5;"/><text fill="#000000" font-family="sans-serif" font-size="13" lengthAdjust="spacing" textLength="179" x="948.5" y="770.7529">Removes the master of the link</text><path d="M942.5,788.6094 L942.5,814.9609 A0,0 0 0 0 942.5,814.9609 L1103.5,814.9609 A0,0 0 0 0 1103.5,814.9609 L1103.5,806.6094 L1343,827.9609 L1103.5,798.6094 L1103.5,798.6094 L1093.5,788.6094 L942.5,788.6094 A0,0 0 0 0 942.5,788.6094 " fill="#FEFFDD" style="stroke:#181818;stroke-width:0.5;"/><path d="M1093.5,788.6094 L1093.5,798.6094 L1103.5,798.6094 L1093.5,788.6094 " fill="#FEFFDD" style="stroke:#181818;stroke-width:0.5;"/><text fill="#000000" font-family="sans-serif" font-size="13" lengthAdjust="spacing" textLength="140" x="948.5" y="807.1045">Enables the link on host</text><path d="M942.5,824.9609 L942.5,851.3125 A0,0 0 0 0 942.5,851.3125 L1179.5,851.3125 A0,0 0 0 0 1179.5,851.3125 L1179.5,842.9609 L1343,853.5703 L1179.5,834.9609 L1179.5,834.9609 L1169.5,824.9609 L942.5,824.9609 A0,0 0 0 0 942.5,824.9609 " fill="#FEFFDD" style="stroke:#181818;stroke-width:0.5;"/><path d="M1169.5,824.9609 L1169.5,834.9609 L1179.5,834.9609 L1169.5,824.9609 " fill="#FEFFDD" style="stroke:#181818;stroke-width:0.5;"/><text fill="#000000" font-family="sans-serif" font-size="13" lengthAdjust="spacing" textLength="216" x="948.5" y="843.4561">Deletes interface on host by its name</text><path d="M942.5,861.3125 L942.5,887.6641 A0,0 0 0 0 942.5,887.6641 L1197.5,887.6641 A0,0 0 0 0 1197.5,887.6641 L1197.5,879.3125 L1343,879.1797 L1197.5,871.3125 L1197.5,871.3125 L1187.5,861.3125 L942.5,861.3125 A0,0 0 0 0 942.5,861.3125 " fill="#FEFFDD" style="stroke:#181818;stroke-width:0.5;"/><path d="M1187.5,861.3125 L1187.5,871.3125 L1197.5,871.3125 L1187.5,861.3125 " fill="#FEFFDD" style="stroke:#181818;stroke-width:0.5;"/><text fill="#000000" font-family="sans-serif" font-size="13" lengthAdjust="spacing" textLength="234" x="948.5" y="879.8076">Add new ip address for network interface</text><path d="M942.5,897.6641 L942.5,924.0156 A0,0 0 0 0 942.5,924.0156 L1184.5,924.0156 A0,0 0 0 0 1184.5,924.0156 L1184.5,915.6641 L1343,904.7891 L1184.5,907.6641 L1184.5,907.6641 L1174.5,897.6641 L942.5,897.6641 A0,0 0 0 0 942.5,897.6641 " fill="#FEFFDD" style="stroke:#181818;stroke-width:0.5;"/><path d="M1174.5,897.6641 L1174.5,907.6641 L1184.5,907.6641 L1174.5,897.6641 " fill="#FEFFDD" style="stroke:#181818;stroke-width:0.5;"/><text fill="#000000" font-family="sans-serif" font-size="13" lengthAdjust="spacing" textLength="221" x="948.5" y="916.1592">Delete ip address for network interface</text><path d="M942.5,934.0156 L942.5,960.3672 A0,0 0 0 0 942.5,960.3672 L1274.5,960.3672 A0,0 0 0 0 1274.5,960.3672 L1274.5,952.0156 L1343,930.3984 L1274.5,944.0156 L1274.5,944.0156 L1264.5,934.0156 L942.5,934.0156 A0,0 0 0 0 942.5,934.0156 " fill="#FEFFDD" style="stroke:#181818;stroke-width:0.5;"/><path d="M1264.5,934.0156 L1264.5,944.0156 L1274.5,944.0156 L1264.5,934.0156 " fill="#FEFFDD" style="stroke:#181818;stroke-width:0.5;"/><text fill="#000000" font-family="sans-serif" font-size="13" lengthAdjust="spacing" textLength="311" x="948.5" y="952.5107">Save current host network configuration to the storage</text><path d="M942.5,970.3672 L942.5,996.7188 A0,0 0 0 0 942.5,996.7188 L1298.5,996.7188 A0,0 0 0 0 1298.5,996.7188 L1298.5,988.3672 L1343,956.0078 L1298.5,980.3672 L1298.5,980.3672 L1288.5,970.3672 L942.5,970.3672 A0,0 0 0 0 942.5,970.3672 " fill="#FEFFDD" style="stroke:#181818;stroke-width:0.5;"/><path d="M1288.5,970.3672 L1288.5,980.3672 L1298.5,980.3672 L1288.5,970.3672 " fill="#FEFFDD" style="stroke:#181818;stroke-width:0.5;"/><text fill="#000000" font-family="sans-serif" font-size="13" lengthAdjust="spacing" textLength="335" x="948.5" y="988.8623">Restore and apply host network configuration from backup</text><path d="M942.5,1006.7188 L942.5,1033.0703 A0,0 0 0 0 942.5,1033.0703 L1303.5,1033.0703 A0,0 0 0 0 1303.5,1033.0703 L1303.5,1024.7188 L1343,981.6172 L1303.5,1016.7188 L1303.5,1016.7188 L1293.5,1006.7188 L942.5,1006.7188 A0,0 0 0 0 942.5,1006.7188 " fill="#FEFFDD" style="stroke:#181818;stroke-width:0.5;"/><path d="M1293.5,1006.7188 L1293.5,1016.7188 L1303.5,1016.7188 L1293.5,1006.7188 " fill="#FEFFDD" style="stroke:#181818;stroke-width:0.5;"/><text fill="#000000" font-family="sans-serif" font-size="13" lengthAdjust="spacing" textLength="340" x="948.5" y="1025.2139">Reset all applied changes to state from saved configuration</text><path d="M942.5,1043.0703 L942.5,1069.4219 A0,0 0 0 0 942.5,1069.4219 L1166.5,1069.4219 A0,0 0 0 0 1166.5,1069.4219 L1166.5,1061.0703 L1343,1007.2266 L1166.5,1053.0703 L1166.5,1053.0703 L1156.5,1043.0703 L942.5,1043.0703 A0,0 0 0 0 942.5,1043.0703 " fill="#FEFFDD" style="stroke:#181818;stroke-width:0.5;"/><path d="M1156.5,1043.0703 L1156.5,1053.0703 L1166.5,1053.0703 L1156.5,1043.0703 " fill="#FEFFDD" style="stroke:#181818;stroke-width:0.5;"/><text fill="#000000" font-family="sans-serif" font-size="13" lengthAdjust="spacing" textLength="203" x="948.5" y="1061.5654">Gets a flag about unsaved changes</text><!--MD5=[de944ecaefb171a2f705a3207091d9ac]
class IHostNetworkConfigStorage--><g id="elem_IHostNetworkConfigStorage"><rect codeLine="5" fill="#F1F1F1" height="108.8281" id="IHostNetworkConfigStorage" rx="2.5" ry="2.5" style="stroke:#181818;stroke-width:0.5;" width="369" x="538.5" y="770.5"/><ellipse cx="630.75" cy="786.5" fill="#B4A7E5" rx="11" ry="11" style="stroke:#181818;stroke-width:1.0;"/><path d="M631.7031,783.1406 L631.7031,789.7969 L633.4219,789.7969 Q634.0313,789.7969 634.2969,790.0313 Q634.5625,790.2656 634.5625,790.6563 Q634.5625,791.0313 634.2969,791.2656 Q634.0313,791.5 633.4219,791.5 L628.2813,791.5 Q627.6719,791.5 627.4063,791.2656 Q627.1406,791.0313 627.1406,790.6406 Q627.1406,790.2656 627.4063,790.0313 Q627.6719,789.7969 628.2813,789.7969 L630,789.7969 L630,783.1406 L628.2813,783.1406 Q627.6719,783.1406 627.4063,782.9063 Q627.1406,782.6719 627.1406,782.2813 Q627.1406,781.9063 627.4063,781.6719 Q627.6719,781.4375 628.2813,781.4375 L633.4219,781.4375 Q634.0313,781.4375 634.2969,781.6719 Q634.5625,781.9063 634.5625,782.2813 Q634.5625,782.6719 634.2969,782.9063 Q634.0313,783.1406 633.4219,783.1406 L631.7031,783.1406 Z " fill="#000000"/><text fill="#000000" font-family="sans-serif" font-size="14" font-style="italic" lengthAdjust="spacing" textLength="176" x="651.25" y="792.2285">IHostNetworkConfigStorage</text><line style="stroke:#181818;stroke-width:0.5;" x1="539.5" x2="906.5" y1="802.5" y2="802.5"/><ellipse cx="549.5" cy="813.5" fill="#84BE84" rx="3" ry="3" style="stroke:#038048;stroke-width:1.0;"/><text fill="#000000" font-family="sans-serif" font-size="14" lengthAdjust="spacing" textLength="329" x="558.5" y="821.0332">SaveConfig(config domain.HostNetworkConfig) error</text><line style="stroke:#181818;stroke-width:1.0;" x1="539.5" x2="906.5" y1="828.1094" y2="828.1094"/><ellipse cx="549.5" cy="839.1094" fill="#84BE84" rx="3" ry="3" style="stroke:#038048;stroke-width:1.0;"/><text fill="#000000" font-family="sans-serif" font-size="14" lengthAdjust="spacing" textLength="296" x="558.5" y="846.6426">GetConfig() (domain.HostNetworkConfig, error)</text><line style="stroke:#181818;stroke-width:1.0;" x1="539.5" x2="906.5" y1="853.7188" y2="853.7188"/><ellipse cx="549.5" cy="864.7188" fill="#84BE84" rx="3" ry="3" style="stroke:#038048;stroke-width:1.0;"/><text fill="#000000" font-family="sans-serif" font-size="14" lengthAdjust="spacing" textLength="343" x="558.5" y="872.252">GetBackupConfig() (domain.HostNetworkConfig, error)</text></g><!--MD5=[89e1dc34da2012e40760b5430ce1f530]
class HostNetworkService--><g id="elem_HostNetworkService"><rect codeLine="12" fill="#F1F1F1" height="313.7031" id="HostNetworkService" rx="2.5" ry="2.5" style="stroke:#181818;stroke-width:0.5;" width="757" x="1738.5" y="668.5"/><ellipse cx="2050.25" cy="684.5" fill="#ADD1B2" rx="11" ry="11" style="stroke:#181818;stroke-width:1.0;"/><path d="M2053.0156,680.375 Q2053.1719,680.1563 2053.3594,680.0469 Q2053.5469,679.9375 2053.7656,679.9375 Q2054.1406,679.9375 2054.375,680.2031 Q2054.6094,680.4531 2054.6094,681.0625 L2054.6094,682.5156 Q2054.6094,683.125 2054.375,683.3906 Q2054.1406,683.6563 2053.7656,683.6563 Q2053.4219,683.6563 2053.2188,683.4531 Q2053.0156,683.2656 2052.9063,682.75 Q2052.8594,682.3906 2052.6719,682.2031 Q2052.3438,681.8281 2051.7344,681.6094 Q2051.125,681.3906 2050.5,681.3906 Q2049.7344,681.3906 2049.0938,681.7188 Q2048.4688,682.0469 2047.9688,682.7969 Q2047.4844,683.5469 2047.4844,684.5781 L2047.4844,685.6719 Q2047.4844,686.9063 2048.375,687.7344 Q2049.2656,688.5469 2050.8594,688.5469 Q2051.7969,688.5469 2052.4531,688.2969 Q2052.8438,688.1406 2053.2656,687.7031 Q2053.5313,687.4375 2053.6719,687.3594 Q2053.8281,687.2813 2054.0313,687.2813 Q2054.3594,687.2813 2054.6094,687.5469 Q2054.875,687.7969 2054.875,688.1406 Q2054.875,688.4844 2054.5313,688.8906 Q2054.0313,689.4688 2053.2344,689.7969 Q2052.1563,690.25 2050.8594,690.25 Q2049.3438,690.25 2048.1406,689.625 Q2047.1563,689.125 2046.4688,688.0625 Q2045.7813,686.9844 2045.7813,685.7031 L2045.7813,684.5469 Q2045.7813,683.2188 2046.3906,682.0781 Q2047.0156,680.9219 2048.1094,680.3125 Q2049.2031,679.6875 2050.4375,679.6875 Q2051.1719,679.6875 2051.8125,679.8594 Q2052.4688,680.0156 2053.0156,680.375 Z " fill="#000000"/><text fill="#000000" font-family="sans-serif" font-size="14" lengthAdjust="spacing" textLength="125" x="2070.75" y="690.2285">HostNetworkService</text><line style="stroke:#181818;stroke-width:0.5;" x1="1739.5" x2="2494.5" y1="700.5" y2="700.5"/><rect fill="none" height="6" style="stroke:#C82930;stroke-width:1.0;" width="6" x="1746.5" y="708.5"/><text fill="#000000" font-family="sans-serif" font-size="14" lengthAdjust="spacing" textLength="197" x="1758.5" y="719.0332">manager IHostNetworkManager</text><line style="stroke:#181818;stroke-width:1.0;" x1="1739.5" x2="2494.5" y1="726.1094" y2="726.1094"/><ellipse cx="1749.5" cy="737.1094" fill="#84BE84" rx="3" ry="3" style="stroke:#038048;stroke-width:1.0;"/><text fill="#000000" font-family="sans-serif" font-size="14" lengthAdjust="spacing" textLength="272" x="1758.5" y="744.6426">GetVlanList() ([]HostNetworkVlanDto, error)</text><line style="stroke:#181818;stroke-width:1.0;" x1="1739.5" x2="2494.5" y1="751.7188" y2="751.7188"/><ellipse cx="1749.5" cy="762.7188" fill="#84BE84" rx="3" ry="3" style="stroke:#038048;stroke-width:1.0;"/><text fill="#000000" font-family="sans-serif" font-size="14" lengthAdjust="spacing" textLength="368" x="1758.5" y="770.252">GetVlanByName(name string) (HostNetworkVlanDto, error)</text><line style="stroke:#181818;stroke-width:1.0;" x1="1739.5" x2="2494.5" y1="777.3281" y2="777.3281"/><ellipse cx="1749.5" cy="788.3281" fill="#84BE84" rx="3" ry="3" style="stroke:#038048;stroke-width:1.0;"/><text fill="#000000" font-family="sans-serif" font-size="14" lengthAdjust="spacing" textLength="499" x="1758.5" y="795.8613">CreateVlan(createDto HostNetworkVlanCreateDto) (HostNetworkVlanDto, error)</text><line style="stroke:#181818;stroke-width:1.0;" x1="1739.5" x2="2494.5" y1="802.9375" y2="802.9375"/><ellipse cx="1749.5" cy="813.9375" fill="#84BE84" rx="3" ry="3" style="stroke:#038048;stroke-width:1.0;"/><text fill="#000000" font-family="sans-serif" font-size="14" lengthAdjust="spacing" textLength="589" x="1758.5" y="821.4707">UpdateVlan(name string, updateDto HostNetworkVlanUpdateDto) (HostNetworkVlanDto, error)</text><line style="stroke:#181818;stroke-width:1.0;" x1="1739.5" x2="2494.5" y1="828.5469" y2="828.5469"/><ellipse cx="1749.5" cy="839.5469" fill="#84BE84" rx="3" ry="3" style="stroke:#038048;stroke-width:1.0;"/><text fill="#000000" font-family="sans-serif" font-size="14" lengthAdjust="spacing" textLength="188" x="1758.5" y="847.0801">DeleteVlan(name string) error</text><line style="stroke:#181818;stroke-width:1.0;" x1="1739.5" x2="2494.5" y1="854.1563" y2="854.1563"/><ellipse cx="1749.5" cy="865.1563" fill="#84BE84" rx="3" ry="3" style="stroke:#038048;stroke-width:1.0;"/><text fill="#000000" font-family="sans-serif" font-size="14" lengthAdjust="spacing" textLength="298" x="1758.5" y="872.6895">GetBridgeList() ([]HostNetworkBridgeDto, error)</text><line style="stroke:#181818;stroke-width:1.0;" x1="1739.5" x2="2494.5" y1="879.7656" y2="879.7656"/><ellipse cx="1749.5" cy="890.7656" fill="#84BE84" rx="3" ry="3" style="stroke:#038048;stroke-width:1.0;"/><text fill="#000000" font-family="sans-serif" font-size="14" lengthAdjust="spacing" textLength="425" x="1758.5" y="898.2988">GetBridgeByName(name string) (dtos.HostNetworkBridgeDto, error)</text><line style="stroke:#181818;stroke-width:1.0;" x1="1739.5" x2="2494.5" y1="905.375" y2="905.375"/><ellipse cx="1749.5" cy="916.375" fill="#84BE84" rx="3" ry="3" style="stroke:#038048;stroke-width:1.0;"/><text fill="#000000" font-family="sans-serif" font-size="14" lengthAdjust="spacing" textLength="600" x="1758.5" y="923.9082">CreateBridge(createDto dtos.HostNetworkBridgeCreateDto) (dtos.HostNetworkBridgeDto, error)</text><line style="stroke:#181818;stroke-width:1.0;" x1="1739.5" x2="2494.5" y1="930.9844" y2="930.9844"/><ellipse cx="1749.5" cy="941.9844" fill="#84BE84" rx="3" ry="3" style="stroke:#038048;stroke-width:1.0;"/><text fill="#000000" font-family="sans-serif" font-size="14" lengthAdjust="spacing" textLength="731" x="1758.5" y="949.5176">UpdateBridge(bridgeName string, updateDto dtos.HostNetworkBridgeUpdateDto) (dtos.HostNetworkBridgeDto, error)</text><line style="stroke:#181818;stroke-width:1.0;" x1="1739.5" x2="2494.5" y1="956.5938" y2="956.5938"/><ellipse cx="1749.5" cy="967.5938" fill="#84BE84" rx="3" ry="3" style="stroke:#038048;stroke-width:1.0;"/><text fill="#000000" font-family="sans-serif" font-size="14" lengthAdjust="spacing" textLength="242" x="1758.5" y="975.127">DeleteBridge(bridgeName string) error</text></g><path d="M2538.5,643 L2538.5,652.1758 L2030.5,738.9141 L2538.5,660.1758 L2538.5,669.3516 A0,0 0 0 0 2538.5,669.3516 L2782.5,669.3516 A0,0 0 0 0 2782.5,669.3516 L2782.5,653 L2772.5,643 L2538.5,643 A0,0 0 0 0 2538.5,643 " fill="#FEFFDD" style="stroke:#181818;stroke-width:0.5;"/><path d="M2772.5,643 L2772.5,653 L2782.5,653 L2772.5,643 " fill="#FEFFDD" style="stroke:#181818;stroke-width:0.5;"/><text fill="#000000" font-family="sans-serif" font-size="13" lengthAdjust="spacing" textLength="223" x="2544.5" y="661.4951">Get list of VLAN interfaces on the host</text><path d="M2538.5,679.3516 L2538.5,688.5273 L2126.5,764.5234 L2538.5,696.5273 L2538.5,705.7031 A0,0 0 0 0 2538.5,705.7031 L2727.5,705.7031 A0,0 0 0 0 2727.5,705.7031 L2727.5,689.3516 L2717.5,679.3516 L2538.5,679.3516 A0,0 0 0 0 2538.5,679.3516 " fill="#FEFFDD" style="stroke:#181818;stroke-width:0.5;"/><path d="M2717.5,679.3516 L2717.5,689.3516 L2727.5,689.3516 L2717.5,679.3516 " fill="#FEFFDD" style="stroke:#181818;stroke-width:0.5;"/><text fill="#000000" font-family="sans-serif" font-size="13" lengthAdjust="spacing" textLength="168" x="2544.5" y="697.8467">Get VLAN interface by Name</text><path d="M2538.5,715.7031 L2538.5,724.8789 L2257.5,790.1328 L2538.5,732.8789 L2538.5,742.0547 A0,0 0 0 0 2538.5,742.0547 L2784.5,742.0547 A0,0 0 0 0 2784.5,742.0547 L2784.5,725.7031 L2774.5,715.7031 L2538.5,715.7031 A0,0 0 0 0 2538.5,715.7031 " fill="#FEFFDD" style="stroke:#181818;stroke-width:0.5;"/><path d="M2774.5,715.7031 L2774.5,725.7031 L2784.5,725.7031 L2774.5,715.7031 " fill="#FEFFDD" style="stroke:#181818;stroke-width:0.5;"/><text fill="#000000" font-family="sans-serif" font-size="13" lengthAdjust="spacing" textLength="225" x="2544.5" y="734.1982">Create new VLAN interface on the host</text><path d="M2538.5,752.0547 L2538.5,761.2305 L2347.5,815.7422 L2538.5,769.2305 L2538.5,778.4063 A0,0 0 0 0 2538.5,778.4063 L2760.5,778.4063 A0,0 0 0 0 2760.5,778.4063 L2760.5,762.0547 L2750.5,752.0547 L2538.5,752.0547 A0,0 0 0 0 2538.5,752.0547 " fill="#FEFFDD" style="stroke:#181818;stroke-width:0.5;"/><path d="M2750.5,752.0547 L2750.5,762.0547 L2760.5,762.0547 L2750.5,752.0547 " fill="#FEFFDD" style="stroke:#181818;stroke-width:0.5;"/><text fill="#000000" font-family="sans-serif" font-size="13" lengthAdjust="spacing" textLength="201" x="2544.5" y="770.5498">Update VLAN interface on the host</text><path d="M2538.5,788.4063 L2538.5,797.582 L1946.5,841.3516 L2538.5,805.582 L2538.5,814.7578 A0,0 0 0 0 2538.5,814.7578 L2745.5,814.7578 A0,0 0 0 0 2745.5,814.7578 L2745.5,798.4063 L2735.5,788.4063 L2538.5,788.4063 A0,0 0 0 0 2538.5,788.4063 " fill="#FEFFDD" style="stroke:#181818;stroke-width:0.5;"/><path d="M2735.5,788.4063 L2735.5,798.4063 L2745.5,798.4063 L2735.5,788.4063 " fill="#FEFFDD" style="stroke:#181818;stroke-width:0.5;"/><text fill="#000000" font-family="sans-serif" font-size="13" lengthAdjust="spacing" textLength="186" x="2544.5" y="806.9014">Delete VLAN interface from host</text><path d="M2538.5,824.7578 L2538.5,833.9336 L2056.5,866.9609 L2538.5,841.9336 L2538.5,851.1094 A0,0 0 0 0 2538.5,851.1094 L2783.5,851.1094 A0,0 0 0 0 2783.5,851.1094 L2783.5,834.7578 L2773.5,824.7578 L2538.5,824.7578 A0,0 0 0 0 2538.5,824.7578 " fill="#FEFFDD" style="stroke:#181818;stroke-width:0.5;"/><path d="M2773.5,824.7578 L2773.5,834.7578 L2783.5,834.7578 L2773.5,824.7578 " fill="#FEFFDD" style="stroke:#181818;stroke-width:0.5;"/><text fill="#000000" font-family="sans-serif" font-size="13" lengthAdjust="spacing" textLength="224" x="2544.5" y="843.2529">Get list of bridge interfaces on the host</text><path d="M2538.5,861.1094 L2538.5,870.2852 L2183.5,892.5703 L2538.5,878.2852 L2538.5,887.4609 A0,0 0 0 0 2538.5,887.4609 L2728.5,887.4609 A0,0 0 0 0 2728.5,887.4609 L2728.5,871.1094 L2718.5,861.1094 L2538.5,861.1094 A0,0 0 0 0 2538.5,861.1094 " fill="#FEFFDD" style="stroke:#181818;stroke-width:0.5;"/><path d="M2718.5,861.1094 L2718.5,871.1094 L2728.5,871.1094 L2718.5,861.1094 " fill="#FEFFDD" style="stroke:#181818;stroke-width:0.5;"/><text fill="#000000" font-family="sans-serif" font-size="13" lengthAdjust="spacing" textLength="169" x="2544.5" y="879.6045">Get bridge interface by Name</text><path d="M2538.5,897.4609 L2538.5,906.6367 L2358.5,918.1797 L2538.5,914.6367 L2538.5,923.8125 A0,0 0 0 0 2538.5,923.8125 L2785.5,923.8125 A0,0 0 0 0 2785.5,923.8125 L2785.5,907.4609 L2775.5,897.4609 L2538.5,897.4609 A0,0 0 0 0 2538.5,897.4609 " fill="#FEFFDD" style="stroke:#181818;stroke-width:0.5;"/><path d="M2775.5,897.4609 L2775.5,907.4609 L2785.5,907.4609 L2775.5,897.4609 " fill="#FEFFDD" style="stroke:#181818;stroke-width:0.5;"/><text fill="#000000" font-family="sans-serif" font-size="13" lengthAdjust="spacing" textLength="226" x="2544.5" y="915.9561">Create new bridge interface on the host</text><path d="M2538.5,933.8125 L2538.5,942.9883 L2489.5,943.7891 L2538.5,950.9883 L2538.5,960.1641 A0,0 0 0 0 2538.5,960.1641 L2761.5,960.1641 A0,0 0 0 0 2761.5,960.1641 L2761.5,943.8125 L2751.5,933.8125 L2538.5,933.8125 A0,0 0 0 0 2538.5,933.8125 " fill="#FEFFDD" style="stroke:#181818;stroke-width:0.5;"/><path d="M2751.5,933.8125 L2751.5,943.8125 L2761.5,943.8125 L2751.5,933.8125 " fill="#FEFFDD" style="stroke:#181818;stroke-width:0.5;"/><text fill="#000000" font-family="sans-serif" font-size="13" lengthAdjust="spacing" textLength="202" x="2544.5" y="952.3076">Update bridge interface on the host</text><path d="M2538.5,970.1641 L2538.5,979.3398 L2000.5,969.3984 L2538.5,987.3398 L2538.5,996.5156 A0,0 0 0 0 2538.5,996.5156 L2746.5,996.5156 A0,0 0 0 0 2746.5,996.5156 L2746.5,980.1641 L2736.5,970.1641 L2538.5,970.1641 A0,0 0 0 0 2538.5,970.1641 " fill="#FEFFDD" style="stroke:#181818;stroke-width:0.5;"/><path d="M2736.5,970.1641 L2736.5,980.1641 L2746.5,980.1641 L2736.5,970.1641 " fill="#FEFFDD" style="stroke:#181818;stroke-width:0.5;"/><text fill="#000000" font-family="sans-serif" font-size="13" lengthAdjust="spacing" textLength="187" x="2544.5" y="988.6592">Delete bridge interface from host</text><!--MD5=[e5fff6262f684687265fbe09f1b48075]
class HostNetworkLink--><g id="elem_HostNetworkLink"><rect codeLine="5" fill="#F1F1F1" height="108.8281" id="HostNetworkLink" rx="2.5" ry="2.5" style="stroke:#181818;stroke-width:0.5;" width="162" x="325" y="385.5"/><ellipse cx="351.7" cy="401.5" fill="#ADD1B2" rx="11" ry="11" style="stroke:#181818;stroke-width:1.0;"/><path d="M354.4656,397.375 Q354.6219,397.1563 354.8094,397.0469 Q354.9969,396.9375 355.2156,396.9375 Q355.5906,396.9375 355.825,397.2031 Q356.0594,397.4531 356.0594,398.0625 L356.0594,399.5156 Q356.0594,400.125 355.825,400.3906 Q355.5906,400.6563 355.2156,400.6563 Q354.8719,400.6563 354.6688,400.4531 Q354.4656,400.2656 354.3563,399.75 Q354.3094,399.3906 354.1219,399.2031 Q353.7938,398.8281 353.1844,398.6094 Q352.575,398.3906 351.95,398.3906 Q351.1844,398.3906 350.5438,398.7188 Q349.9188,399.0469 349.4188,399.7969 Q348.9344,400.5469 348.9344,401.5781 L348.9344,402.6719 Q348.9344,403.9063 349.825,404.7344 Q350.7156,405.5469 352.3094,405.5469 Q353.2469,405.5469 353.9031,405.2969 Q354.2938,405.1406 354.7156,404.7031 Q354.9813,404.4375 355.1219,404.3594 Q355.2781,404.2813 355.4813,404.2813 Q355.8094,404.2813 356.0594,404.5469 Q356.325,404.7969 356.325,405.1406 Q356.325,405.4844 355.9813,405.8906 Q355.4813,406.4688 354.6844,406.7969 Q353.6063,407.25 352.3094,407.25 Q350.7938,407.25 349.5906,406.625 Q348.6063,406.125 347.9188,405.0625 Q347.2313,403.9844 347.2313,402.7031 L347.2313,401.5469 Q347.2313,400.2188 347.8406,399.0781 Q348.4656,397.9219 349.5594,397.3125 Q350.6531,396.6875 351.8875,396.6875 Q352.6219,396.6875 353.2625,396.8594 Q353.9188,397.0156 354.4656,397.375 Z " fill="#000000"/><text fill="#000000" font-family="sans-serif" font-size="14" lengthAdjust="spacing" textLength="104" x="368.3" y="407.2285">HostNetworkLink</text><line style="stroke:#181818;stroke-width:0.5;" x1="326" x2="486" y1="417.5" y2="417.5"/><ellipse cx="336" cy="428.5" fill="none" rx="3" ry="3" style="stroke:#038048;stroke-width:1.0;"/><text fill="#000000" font-family="sans-serif" font-size="14" lengthAdjust="spacing" textLength="75" x="345" y="436.0332">Name string</text><line style="stroke:#181818;stroke-width:1.0;" x1="326" x2="486" y1="443.1094" y2="443.1094"/><ellipse cx="336" cy="454.1094" fill="none" rx="3" ry="3" style="stroke:#038048;stroke-width:1.0;"/><text fill="#000000" font-family="sans-serif" font-size="14" lengthAdjust="spacing" textLength="136" x="345" y="461.6426">Addresses []net.IPNet</text><line style="stroke:#181818;stroke-width:1.0;" x1="326" x2="486" y1="468.7188" y2="468.7188"/><ellipse cx="336" cy="479.7188" fill="none" rx="3" ry="3" style="stroke:#038048;stroke-width:1.0;"/><text fill="#000000" font-family="sans-serif" font-size="14" lengthAdjust="spacing" textLength="71" x="345" y="487.252">Type string</text></g><path d="M22.5,395.5 L22.5,421.8516 A0,0 0 0 0 22.5,421.8516 L257.5,421.8516 A0,0 0 0 0 257.5,421.8516 L257.5,413.5 L329,430.3047 L257.5,405.5 L257.5,405.5 L247.5,395.5 L22.5,395.5 A0,0 0 0 0 22.5,395.5 " fill="#FEFFDD" style="stroke:#181818;stroke-width:0.5;"/><path d="M247.5,395.5 L247.5,405.5 L257.5,405.5 L247.5,395.5 " fill="#FEFFDD" style="stroke:#181818;stroke-width:0.5;"/><text fill="#000000" font-family="sans-serif" font-size="13" lengthAdjust="spacing" textLength="214" x="28.5" y="413.9951">Unique name of the network interface</text><path d="M22.5,431.8516 L22.5,474.5547 A0,0 0 0 0 22.5,474.5547 L289.5,474.5547 A0,0 0 0 0 289.5,474.5547 L289.5,457.2031 L329,481.5234 L289.5,449.2031 L289.5,441.8516 L279.5,431.8516 L22.5,431.8516 A0,0 0 0 0 22.5,431.8516 " fill="#FEFFDD" style="stroke:#181818;stroke-width:0.5;"/><path d="M279.5,431.8516 L279.5,441.8516 L289.5,441.8516 L279.5,431.8516 " fill="#FEFFDD" style="stroke:#181818;stroke-width:0.5;"/><text fill="#000000" font-family="sans-serif" font-size="13" lengthAdjust="spacing" textLength="129" x="28.5" y="450.3467">Default value is "none"</text><text fill="#000000" font-family="sans-serif" font-size="13" lengthAdjust="spacing" textLength="246" x="28.5" y="466.6982">because HostNetworkLink is a basic class</text><!--MD5=[b17b81604319b97b33af23212dfcf2f4]
class HostNetworkDevice--><g id="elem_HostNetworkDevice"><rect codeLine="5" fill="#F1F1F1" height="48" id="HostNetworkDevice" rx="2.5" ry="2.5" style="stroke:#181818;stroke-width:0.5;" width="153" x="603.5" y="253.5"/><ellipse cx="618.5" cy="269.5" fill="#ADD1B2" rx="11" ry="11" style="stroke:#181818;stroke-width:1.0;"/><path d="M621.2656,265.375 Q621.4219,265.1563 621.6094,265.0469 Q621.7969,264.9375 622.0156,264.9375 Q622.3906,264.9375 622.625,265.2031 Q622.8594,265.4531 622.8594,266.0625 L622.8594,267.5156 Q622.8594,268.125 622.625,268.3906 Q622.3906,268.6563 622.0156,268.6563 Q621.6719,268.6563 621.4688,268.4531 Q621.2656,268.2656 621.1563,267.75 Q621.1094,267.3906 620.9219,267.2031 Q620.5938,266.8281 619.9844,266.6094 Q619.375,266.3906 618.75,266.3906 Q617.9844,266.3906 617.3438,266.7188 Q616.7188,267.0469 616.2188,267.7969 Q615.7344,268.5469 615.7344,269.5781 L615.7344,270.6719 Q615.7344,271.9063 616.625,272.7344 Q617.5156,273.5469 619.1094,273.5469 Q620.0469,273.5469 620.7031,273.2969 Q621.0938,273.1406 621.5156,272.7031 Q621.7813,272.4375 621.9219,272.3594 Q622.0781,272.2813 622.2813,272.2813 Q622.6094,272.2813 622.8594,272.5469 Q623.125,272.7969 623.125,273.1406 Q623.125,273.4844 622.7813,273.8906 Q622.2813,274.4688 621.4844,274.7969 Q620.4063,275.25 619.1094,275.25 Q617.5938,275.25 616.3906,274.625 Q615.4063,274.125 614.7188,273.0625 Q614.0313,271.9844 614.0313,270.7031 L614.0313,269.5469 Q614.0313,268.2188 614.6406,267.0781 Q615.2656,265.9219 616.3594,265.3125 Q617.4531,264.6875 618.6875,264.6875 Q619.4219,264.6875 620.0625,264.8594 Q620.7188,265.0156 621.2656,265.375 Z " fill="#000000"/><text fill="#000000" font-family="sans-serif" font-size="14" lengthAdjust="spacing" textLength="121" x="632.5" y="275.2285">HostNetworkDevice</text><line style="stroke:#181818;stroke-width:0.5;" x1="604.5" x2="755.5" y1="285.5" y2="285.5"/><line style="stroke:#181818;stroke-width:0.5;" x1="604.5" x2="755.5" y1="293.5" y2="293.5"/></g><!--MD5=[7708bf2b3811a61fdbad496487474248]
class HostNetworkVlan--><g id="elem_HostNetworkVlan"><rect codeLine="5" fill="#F1F1F1" height="83.2188" id="HostNetworkVlan" rx="2.5" ry="2.5" style="stroke:#181818;stroke-width:0.5;" width="138" x="209" y="236"/><ellipse cx="224" cy="252" fill="#ADD1B2" rx="11" ry="11" style="stroke:#181818;stroke-width:1.0;"/><path d="M226.7656,247.875 Q226.9219,247.6563 227.1094,247.5469 Q227.2969,247.4375 227.5156,247.4375 Q227.8906,247.4375 228.125,247.7031 Q228.3594,247.9531 228.3594,248.5625 L228.3594,250.0156 Q228.3594,250.625 228.125,250.8906 Q227.8906,251.1563 227.5156,251.1563 Q227.1719,251.1563 226.9688,250.9531 Q226.7656,250.7656 226.6563,250.25 Q226.6094,249.8906 226.4219,249.7031 Q226.0938,249.3281 225.4844,249.1094 Q224.875,248.8906 224.25,248.8906 Q223.4844,248.8906 222.8438,249.2188 Q222.2188,249.5469 221.7188,250.2969 Q221.2344,251.0469 221.2344,252.0781 L221.2344,253.1719 Q221.2344,254.4063 222.125,255.2344 Q223.0156,256.0469 224.6094,256.0469 Q225.5469,256.0469 226.2031,255.7969 Q226.5938,255.6406 227.0156,255.2031 Q227.2813,254.9375 227.4219,254.8594 Q227.5781,254.7813 227.7813,254.7813 Q228.1094,254.7813 228.3594,255.0469 Q228.625,255.2969 228.625,255.6406 Q228.625,255.9844 228.2813,256.3906 Q227.7813,256.9688 226.9844,257.2969 Q225.9063,257.75 224.6094,257.75 Q223.0938,257.75 221.8906,257.125 Q220.9063,256.625 220.2188,255.5625 Q219.5313,254.4844 219.5313,253.2031 L219.5313,252.0469 Q219.5313,250.7188 220.1406,249.5781 Q220.7656,248.4219 221.8594,247.8125 Q222.9531,247.1875 224.1875,247.1875 Q224.9219,247.1875 225.5625,247.3594 Q226.2188,247.5156 226.7656,247.875 Z " fill="#000000"/><text fill="#000000" font-family="sans-serif" font-size="14" lengthAdjust="spacing" textLength="106" x="238" y="257.7285">HostNetworkVlan</text><line style="stroke:#181818;stroke-width:0.5;" x1="210" x2="346" y1="268" y2="268"/><ellipse cx="220" cy="279" fill="none" rx="3" ry="3" style="stroke:#038048;stroke-width:1.0;"/><text fill="#000000" font-family="sans-serif" font-size="14" lengthAdjust="spacing" textLength="60" x="229" y="286.5332">VlanID int</text><line style="stroke:#181818;stroke-width:1.0;" x1="210" x2="346" y1="293.6094" y2="293.6094"/><ellipse cx="220" cy="304.6094" fill="none" rx="3" ry="3" style="stroke:#038048;stroke-width:1.0;"/><text fill="#000000" font-family="sans-serif" font-size="14" lengthAdjust="spacing" textLength="81" x="229" y="312.1426">Parent string</text></g><!--MD5=[bd56b3e5eb0134b68fc9951038656522]
class HostNetworkBridge--><g id="elem_HostNetworkBridge"><rect codeLine="5" fill="#F1F1F1" height="83.2188" id="HostNetworkBridge" rx="2.5" ry="2.5" style="stroke:#181818;stroke-width:0.5;" width="151" x="22.5" y="236"/><ellipse cx="37.5" cy="252" fill="#ADD1B2" rx="11" ry="11" style="stroke:#181818;stroke-width:1.0;"/><path d="M40.2656,247.875 Q40.4219,247.6563 40.6094,247.5469 Q40.7969,247.4375 41.0156,247.4375 Q41.3906,247.4375 41.625,247.7031 Q41.8594,247.9531 41.8594,248.5625 L41.8594,250.0156 Q41.8594,250.625 41.625,250.8906 Q41.3906,251.1563 41.0156,251.1563 Q40.6719,251.1563 40.4688,250.9531 Q40.2656,250.7656 40.1563,250.25 Q40.1094,249.8906 39.9219,249.7031 Q39.5938,249.3281 38.9844,249.1094 Q38.375,248.8906 37.75,248.8906 Q36.9844,248.8906 36.3438,249.2188 Q35.7188,249.5469 35.2188,250.2969 Q34.7344,251.0469 34.7344,252.0781 L34.7344,253.1719 Q34.7344,254.4063 35.625,255.2344 Q36.5156,256.0469 38.1094,256.0469 Q39.0469,256.0469 39.7031,255.7969 Q40.0938,255.6406 40.5156,255.2031 Q40.7813,254.9375 40.9219,254.8594 Q41.0781,254.7813 41.2813,254.7813 Q41.6094,254.7813 41.8594,255.0469 Q42.125,255.2969 42.125,255.6406 Q42.125,255.9844 41.7813,256.3906 Q41.2813,256.9688 40.4844,257.2969 Q39.4063,257.75 38.1094,257.75 Q36.5938,257.75 35.3906,257.125 Q34.4063,256.625 33.7188,255.5625 Q33.0313,254.4844 33.0313,253.2031 L33.0313,252.0469 Q33.0313,250.7188 33.6406,249.5781 Q34.2656,248.4219 35.3594,247.8125 Q36.4531,247.1875 37.6875,247.1875 Q38.4219,247.1875 39.0625,247.3594 Q39.7188,247.5156 40.2656,247.875 Z " fill="#000000"/><text fill="#000000" font-family="sans-serif" font-size="14" lengthAdjust="spacing" textLength="119" x="51.5" y="257.7285">HostNetworkBridge</text><line style="stroke:#181818;stroke-width:0.5;" x1="23.5" x2="172.5" y1="268" y2="268"/><ellipse cx="33.5" cy="279" fill="none" rx="3" ry="3" style="stroke:#038048;stroke-width:1.0;"/><text fill="#000000" font-family="sans-serif" font-size="14" lengthAdjust="spacing" textLength="89" x="42.5" y="286.5332">Slaves []string</text><line style="stroke:#181818;stroke-width:1.0;" x1="23.5" x2="172.5" y1="293.6094" y2="293.6094"/><ellipse cx="33.5" cy="304.6094" fill="#84BE84" rx="3" ry="3" style="stroke:#038048;stroke-width:1.0;"/><text fill="#000000" font-family="sans-serif" font-size="14" lengthAdjust="spacing" textLength="122" x="42.5" y="312.1426">GetSlaves() []string</text></g><path d="M382,259.5 L382,268.6758 L164.5,306.4141 L382,276.6758 L382,285.8516 A0,0 0 0 0 382,285.8516 L568,285.8516 A0,0 0 0 0 568,285.8516 L568,269.5 L558,259.5 L382,259.5 A0,0 0 0 0 382,259.5 " fill="#FEFFDD" style="stroke:#181818;stroke-width:0.5;"/><path d="M558,259.5 L558,269.5 L568,269.5 L558,259.5 " fill="#FEFFDD" style="stroke:#181818;stroke-width:0.5;"/><text fill="#000000" font-family="sans-serif" font-size="13" lengthAdjust="spacing" textLength="165" x="388" y="277.9951">Get an array of bridge slaves</text><!--MD5=[58987b0398bdf5010f5174b6a6feac3c]
class HostNetworkConfig--><g id="elem_HostNetworkConfig"><rect codeLine="7" fill="#F1F1F1" height="108.8281" id="HostNetworkConfig" rx="2.5" ry="2.5" style="stroke:#181818;stroke-width:0.5;" width="209" x="172.5" y="55.5"/><ellipse cx="213.6" cy="71.5" fill="#ADD1B2" rx="11" ry="11" style="stroke:#181818;stroke-width:1.0;"/><path d="M216.3656,67.375 Q216.5219,67.1563 216.7094,67.0469 Q216.8969,66.9375 217.1156,66.9375 Q217.4906,66.9375 217.725,67.2031 Q217.9594,67.4531 217.9594,68.0625 L217.9594,69.5156 Q217.9594,70.125 217.725,70.3906 Q217.4906,70.6563 217.1156,70.6563 Q216.7719,70.6563 216.5688,70.4531 Q216.3656,70.2656 216.2563,69.75 Q216.2094,69.3906 216.0219,69.2031 Q215.6938,68.8281 215.0844,68.6094 Q214.475,68.3906 213.85,68.3906 Q213.0844,68.3906 212.4438,68.7188 Q211.8188,69.0469 211.3188,69.7969 Q210.8344,70.5469 210.8344,71.5781 L210.8344,72.6719 Q210.8344,73.9063 211.725,74.7344 Q212.6156,75.5469 214.2094,75.5469 Q215.1469,75.5469 215.8031,75.2969 Q216.1938,75.1406 216.6156,74.7031 Q216.8813,74.4375 217.0219,74.3594 Q217.1781,74.2813 217.3813,74.2813 Q217.7094,74.2813 217.9594,74.5469 Q218.225,74.7969 218.225,75.1406 Q218.225,75.4844 217.8813,75.8906 Q217.3813,76.4688 216.5844,76.7969 Q215.5063,77.25 214.2094,77.25 Q212.6938,77.25 211.4906,76.625 Q210.5063,76.125 209.8188,75.0625 Q209.1313,73.9844 209.1313,72.7031 L209.1313,71.5469 Q209.1313,70.2188 209.7406,69.0781 Q210.3656,67.9219 211.4594,67.3125 Q212.5531,66.6875 213.7875,66.6875 Q214.5219,66.6875 215.1625,66.8594 Q215.8188,67.0156 216.3656,67.375 Z " fill="#000000"/><text fill="#000000" font-family="sans-serif" font-size="14" lengthAdjust="spacing" textLength="119" x="233.4" y="77.2285">HostNetworkConfig</text><line style="stroke:#181818;stroke-width:0.5;" x1="173.5" x2="380.5" y1="87.5" y2="87.5"/><ellipse cx="183.5" cy="98.5" fill="none" rx="3" ry="3" style="stroke:#038048;stroke-width:1.0;"/><text fill="#000000" font-family="sans-serif" font-size="14" lengthAdjust="spacing" textLength="183" x="192.5" y="106.0332">Devices []HostNetworkDevice</text><line style="stroke:#181818;stroke-width:1.0;" x1="173.5" x2="380.5" y1="113.1094" y2="113.1094"/><ellipse cx="183.5" cy="124.1094" fill="none" rx="3" ry="3" style="stroke:#038048;stroke-width:1.0;"/><text fill="#000000" font-family="sans-serif" font-size="14" lengthAdjust="spacing" textLength="161" x="192.5" y="131.6426">Vlans   []HostNetworkVlan</text><line style="stroke:#181818;stroke-width:1.0;" x1="173.5" x2="380.5" y1="138.7188" y2="138.7188"/><ellipse cx="183.5" cy="149.7188" fill="none" rx="3" ry="3" style="stroke:#038048;stroke-width:1.0;"/><text fill="#000000" font-family="sans-serif" font-size="14" lengthAdjust="spacing" textLength="179" x="192.5" y="157.252">Bridges []HostNetworkBridge</text></g><!--MD5=[0ef4b9020a0ab381891be386a00db524]
class YamlHostNetworkConfigStorage--><g id="elem_YamlHostNetworkConfigStorage"><rect codeLine="5" fill="#F1F1F1" height="65.6094" id="YamlHostNetworkConfigStorage" rx="2.5" ry="2.5" style="stroke:#181818;stroke-width:0.5;" width="232" x="1062" y="407"/><ellipse cx="1077" cy="423" fill="#ADD1B2" rx="11" ry="11" style="stroke:#181818;stroke-width:1.0;"/><path d="M1079.7656,418.875 Q1079.9219,418.6563 1080.1094,418.5469 Q1080.2969,418.4375 1080.5156,418.4375 Q1080.8906,418.4375 1081.125,418.7031 Q1081.3594,418.9531 1081.3594,419.5625 L1081.3594,421.0156 Q1081.3594,421.625 1081.125,421.8906 Q1080.8906,422.1563 1080.5156,422.1563 Q1080.1719,422.1563 1079.9688,421.9531 Q1079.7656,421.7656 1079.6563,421.25 Q1079.6094,420.8906 1079.4219,420.7031 Q1079.0938,420.3281 1078.4844,420.1094 Q1077.875,419.8906 1077.25,419.8906 Q1076.4844,419.8906 1075.8438,420.2188 Q1075.2188,420.5469 1074.7188,421.2969 Q1074.2344,422.0469 1074.2344,423.0781 L1074.2344,424.1719 Q1074.2344,425.4063 1075.125,426.2344 Q1076.0156,427.0469 1077.6094,427.0469 Q1078.5469,427.0469 1079.2031,426.7969 Q1079.5938,426.6406 1080.0156,426.2031 Q1080.2813,425.9375 1080.4219,425.8594 Q1080.5781,425.7813 1080.7813,425.7813 Q1081.1094,425.7813 1081.3594,426.0469 Q1081.625,426.2969 1081.625,426.6406 Q1081.625,426.9844 1081.2813,427.3906 Q1080.7813,427.9688 1079.9844,428.2969 Q1078.9063,428.75 1077.6094,428.75 Q1076.0938,428.75 1074.8906,428.125 Q1073.9063,427.625 1073.2188,426.5625 Q1072.5313,425.4844 1072.5313,424.2031 L1072.5313,423.0469 Q1072.5313,421.7188 1073.1406,420.5781 Q1073.7656,419.4219 1074.8594,418.8125 Q1075.9531,418.1875 1077.1875,418.1875 Q1077.9219,418.1875 1078.5625,418.3594 Q1079.2188,418.5156 1079.7656,418.875 Z " fill="#000000"/><text fill="#000000" font-family="sans-serif" font-size="14" lengthAdjust="spacing" textLength="200" x="1091" y="428.7285">YamlHostNetworkConfigStorage</text><line style="stroke:#181818;stroke-width:0.5;" x1="1063" x2="1293" y1="439" y2="439"/><rect fill="none" height="6" style="stroke:#C82930;stroke-width:1.0;" width="6" x="1070" y="447"/><text fill="#000000" font-family="sans-serif" font-size="14" lengthAdjust="spacing" textLength="129" x="1082" y="457.5332">configFilePath string</text><line style="stroke:#181818;stroke-width:0.5;" x1="1063" x2="1293" y1="464.6094" y2="464.6094"/></g><!--MD5=[9e1d7ce1192ca49e51cccbdad1af1931]
class HostNetworkManager--><g id="elem_HostNetworkManager"><rect codeLine="7" fill="#F1F1F1" height="83.2188" id="HostNetworkManager" rx="2.5" ry="2.5" style="stroke:#181818;stroke-width:0.5;" width="360" x="1337" y="399"/><ellipse cx="1445.75" cy="415" fill="#ADD1B2" rx="11" ry="11" style="stroke:#181818;stroke-width:1.0;"/><path d="M1448.5156,410.875 Q1448.6719,410.6563 1448.8594,410.5469 Q1449.0469,410.4375 1449.2656,410.4375 Q1449.6406,410.4375 1449.875,410.7031 Q1450.1094,410.9531 1450.1094,411.5625 L1450.1094,413.0156 Q1450.1094,413.625 1449.875,413.8906 Q1449.6406,414.1563 1449.2656,414.1563 Q1448.9219,414.1563 1448.7188,413.9531 Q1448.5156,413.7656 1448.4063,413.25 Q1448.3594,412.8906 1448.1719,412.7031 Q1447.8438,412.3281 1447.2344,412.1094 Q1446.625,411.8906 1446,411.8906 Q1445.2344,411.8906 1444.5938,412.2188 Q1443.9688,412.5469 1443.4688,413.2969 Q1442.9844,414.0469 1442.9844,415.0781 L1442.9844,416.1719 Q1442.9844,417.4063 1443.875,418.2344 Q1444.7656,419.0469 1446.3594,419.0469 Q1447.2969,419.0469 1447.9531,418.7969 Q1448.3438,418.6406 1448.7656,418.2031 Q1449.0313,417.9375 1449.1719,417.8594 Q1449.3281,417.7813 1449.5313,417.7813 Q1449.8594,417.7813 1450.1094,418.0469 Q1450.375,418.2969 1450.375,418.6406 Q1450.375,418.9844 1450.0313,419.3906 Q1449.5313,419.9688 1448.7344,420.2969 Q1447.6563,420.75 1446.3594,420.75 Q1444.8438,420.75 1443.6406,420.125 Q1442.6563,419.625 1441.9688,418.5625 Q1441.2813,417.4844 1441.2813,416.2031 L1441.2813,415.0469 Q1441.2813,413.7188 1441.8906,412.5781 Q1442.5156,411.4219 1443.6094,410.8125 Q1444.7031,410.1875 1445.9375,410.1875 Q1446.6719,410.1875 1447.3125,410.3594 Q1447.9688,410.5156 1448.5156,410.875 Z " fill="#000000"/><text fill="#000000" font-family="sans-serif" font-size="14" lengthAdjust="spacing" textLength="134" x="1466.25" y="420.7285">HostNetworkManager</text><line style="stroke:#181818;stroke-width:0.5;" x1="1338" x2="1696" y1="431" y2="431"/><rect fill="none" height="6" style="stroke:#C82930;stroke-width:1.0;" width="6" x="1345" y="439"/><text fill="#000000" font-family="sans-serif" font-size="14" lengthAdjust="spacing" textLength="334" x="1357" y="449.5332">configStorage  interfaces.IHostNetworkConfigStorage</text><line style="stroke:#181818;stroke-width:1.0;" x1="1338" x2="1696" y1="456.6094" y2="456.6094"/><rect fill="none" height="6" style="stroke:#C82930;stroke-width:1.0;" width="6" x="1345" y="464.6094"/><text fill="#000000" font-family="sans-serif" font-size="14" lengthAdjust="spacing" textLength="166" x="1357" y="475.1426">hasUnsavedChanges bool</text></g><!--MD5=[d88daa471e26b068a6e4189ed66f50d4]
link HostNetworkBridgeDto to HostNetworkBridgeBaseDto--><g id="link_HostNetworkBridgeDto_HostNetworkBridgeBaseDto"><path codeLine="8" d="M1789.65,142.1 C1755.89,166.55 1708.85,200.6 1670.57,228.31 " fill="none" id="HostNetworkBridgeDto-to-HostNetworkBridgeBaseDto" style="stroke:#181818;stroke-width:1.0;"/><polygon fill="#181818" points="1660.03,235.94,1667.236,235.6698,1669.7582,228.9141,1662.5521,229.1843,1660.03,235.94" style="stroke:#181818;stroke-width:1.0;"/></g><!--MD5=[fe0b0e021486c635104b475f09ef6f0f]
link HostNetworkBridgeCreateDto to HostNetworkBridgeBaseDto--><g id="link_HostNetworkBridgeCreateDto_HostNetworkBridgeBaseDto"><path codeLine="8" d="M1604,142.1 C1604,164.98 1604,196.27 1604,222.91 " fill="none" id="HostNetworkBridgeCreateDto-to-HostNetworkBridgeBaseDto" style="stroke:#181818;stroke-width:1.0;"/><polygon fill="#181818" points="1604,235.94,1608,229.94,1604,223.94,1600,229.94,1604,235.94" style="stroke:#181818;stroke-width:1.0;"/></g><!--MD5=[8de1a797b6669b5354d8a6292df9a65b]
link HostNetworkBridgeUpdateDto to HostNetworkBridgeBaseDto--><g id="link_HostNetworkBridgeUpdateDto_HostNetworkBridgeBaseDto"><path codeLine="6" d="M1387.04,133.15 C1424.3,157.77 1484.29,197.41 1531.76,228.77 " fill="none" id="HostNetworkBridgeUpdateDto-to-HostNetworkBridgeBaseDto" style="stroke:#181818;stroke-width:1.0;"/><polygon fill="#181818" points="1542.61,235.94,1539.8081,229.2955,1532.5971,229.3262,1535.399,235.9707,1542.61,235.94" style="stroke:#181818;stroke-width:1.0;"/></g><!--MD5=[c7ae537b1fb1fd62da54845b02126a57]
link HostNetworkLink to IHostNetworkLink--><g id="link_HostNetworkLink_IHostNetworkLink"><path codeLine="21" d="M406,494.66 C406,561.23 406,675.07 406,749.92 " fill="none" id="HostNetworkLink-to-IHostNetworkLink" style="stroke:#181818;stroke-width:1.0;"/><polygon fill="none" points="413,750.4,406,770.4,399,750.4,413,750.4" style="stroke:#181818;stroke-width:1.0;"/></g><!--MD5=[7c0130aaa2dc79170695f96da00ebff9]
link HostNetworkDevice to HostNetworkLink--><g id="link_HostNetworkDevice_HostNetworkLink"><path codeLine="7" d="M647.58,301.75 C629.47,314.41 606.32,330.1 585,343 C557.55,359.62 527,376.55 499.01,391.48 " fill="none" id="HostNetworkDevice-to-HostNetworkLink" style="stroke:#181818;stroke-width:1.0;"/><polygon fill="#181818" points="487.2,397.75,494.3745,398.4754,497.8035,392.1317,490.629,391.4063,487.2,397.75" style="stroke:#181818;stroke-width:1.0;"/></g><!--MD5=[f741d5613818e7c6a8b6721c8e9fb611]
link HostNetworkVlan to HostNetworkLink--><g id="link_HostNetworkVlan_HostNetworkLink"><path codeLine="11" d="M310.3,319 C323.86,336 339.96,356.19 355.05,375.11 " fill="none" id="HostNetworkVlan-to-HostNetworkLink" style="stroke:#181818;stroke-width:1.0;"/><polygon fill="#181818" points="363.31,385.47,362.6952,378.2852,355.8265,376.0893,356.4414,383.2741,363.31,385.47" style="stroke:#181818;stroke-width:1.0;"/></g><!--MD5=[dba085063a1d972b71adca959eac56ab]
link HostNetworkBridge to HostNetworkLink--><g id="link_HostNetworkBridge_HostNetworkLink"><path codeLine="11" d="M146.44,319.32 C160.06,328.71 175.43,337.53 191,343 C239.76,360.12 259.36,330.98 307,351 C321.66,357.16 335.62,366.41 348.19,376.63 " fill="none" id="HostNetworkBridge-to-HostNetworkLink" style="stroke:#181818;stroke-width:1.0;"/><polygon fill="#181818" points="358.41,385.4,356.4618,378.4571,349.3036,377.5851,351.2518,384.528,358.41,385.4" style="stroke:#181818;stroke-width:1.0;"/></g><!--MD5=[22922eb5c98d6328bffadf0fffe1f4a9]
link HostNetworkConfig to HostNetworkDevice--><g id="link_HostNetworkConfig_HostNetworkDevice"><path codeLine="15" d="M383,100 C501.76,100 614.48,205.58 659.46,253.43 " fill="none" id="HostNetworkConfig-HostNetworkDevice" style="stroke:#181818;stroke-width:1.0;"/></g><!--MD5=[3939eded06239bcaaa875b04c4955c10]
link HostNetworkConfig to HostNetworkVlan--><g id="link_HostNetworkConfig_HostNetworkVlan"><path codeLine="16" d="M383,126 C436.68,126 374.21,191.2 325.23,235.77 " fill="none" id="HostNetworkConfig-HostNetworkVlan" style="stroke:#181818;stroke-width:1.0;"/></g><!--MD5=[9daca89a698ab2c397b62c91a9aa8944]
link HostNetworkConfig to HostNetworkBridge--><g id="link_HostNetworkConfig_HostNetworkBridge"><path codeLine="17" d="M172,151 C131.91,151 113.1,199.11 104.58,235.75 " fill="none" id="HostNetworkConfig-HostNetworkBridge" style="stroke:#181818;stroke-width:1.0;"/></g><!--MD5=[4b27b58a3dcdc7721ce2906e479ec2a1]
link YamlHostNetworkConfigStorage to IHostNetworkConfigStorage--><g id="link_YamlHostNetworkConfigStorage_IHostNetworkConfigStorage"><path codeLine="9" d="M1061.74,463.39 C1015.88,476.33 964.77,496.26 925,526.5 C846.64,586.08 788.18,685.13 754.83,752.42 " fill="none" id="YamlHostNetworkConfigStorage-to-IHostNetworkConfigStorage" style="stroke:#181818;stroke-width:1.0;"/><polygon fill="none" points="761.1,755.54,746.09,770.5,748.49,749.45,761.1,755.54" style="stroke:#181818;stroke-width:1.0;"/></g><!--MD5=[5a77e35d18a67292d31d635cffa38ea2]
link HostNetworkManager to YamlHostNetworkConfigStorage--><g id="link_HostNetworkManager_YamlHostNetworkConfigStorage"><path codeLine="13" d="M1336,444 C1325.77,444 1315.17,443.91 1304.52,443.77 " fill="none" id="HostNetworkManager-YamlHostNetworkConfigStorage" style="stroke:#181818;stroke-width:1.0;"/><line style="stroke:#181818;stroke-width:1.0;" x1="1304.52" x2="1294.31" y1="443.77" y2="443.61"/></g><!--MD5=[8da93bdfc8a67e29cf06757d442ac4df]
link YamlHostNetworkConfigStorage to HostNetworkManager--><!--MD5=[3dcecfe70558689b84244a7b11eaea24]
link HostNetworkManager to IHostNetworkManager--><g id="link_HostNetworkManager_IHostNetworkManager"><path codeLine="14" d="M1517,485.31 C1517,516.93 1517,562.02 1517,609.03 " fill="none" id="HostNetworkManager-to-IHostNetworkManager" style="stroke:#181818;stroke-width:1.0;"/><polygon fill="none" points="1524,609.26,1517,629.26,1510,609.26,1524,609.26" style="stroke:#181818;stroke-width:1.0;"/></g><!--MD5=[5f9b85877b9bbf6a61ca701029692ffc]
link HostNetworkService to HostNetworkManager--><g id="link_HostNetworkService_HostNetworkManager"><path codeLine="35" d="M1738,713 C1696.18,713 1738.18,559.88 1713,526.5 C1700.26,509.61 1683.47,496 1665.07,485.05 " fill="none" id="HostNetworkService-HostNetworkManager" style="stroke:#181818;stroke-width:1.0;"/></g><!--MD5=[bcc8c8f6813ce5edcf0f3295849b4924]
@startuml

!include ../dto/HostNetworkVlan/HostNetworkVlanDto.puml
!include ../dto/HostNetworkVlan/HostNetworkVlanCreateDto.puml
!include ../dto/HostNetworkVlan/HostNetworkVlanUpdateDto.puml
!include ../dto/HostNetworkBridge/HostNetworkBridgeDto.puml
!include ../dto/HostNetworkBridge/HostNetworkBridgeCreateDto.puml
!include ../dto/HostNetworkBridge/HostNetworkBridgeUpdateDto.puml

!include ../managers/HostNetworkManager.puml

package app {
    class HostNetworkService {
        -manager IHostNetworkManager
        - -
        +GetVlanList() ([]HostNetworkVlanDto, error)
        - -
        +GetVlanByName(name string) (HostNetworkVlanDto, error)
        - -
        +CreateVlan(createDto HostNetworkVlanCreateDto) (HostNetworkVlanDto, error)
        - -
        +UpdateVlan(name string, updateDto HostNetworkVlanUpdateDto) (HostNetworkVlanDto, error)
        - -
        +DeleteVlan(name string) error
        - -
        +GetBridgeList() ([]HostNetworkBridgeDto, error)
        - -
        +GetBridgeByName(name string) (dtos.HostNetworkBridgeDto, error)
        - -
        +CreateBridge(createDto dtos.HostNetworkBridgeCreateDto) (dtos.HostNetworkBridgeDto, error)
        - -
        +UpdateBridge(bridgeName string, updateDto dtos.HostNetworkBridgeUpdateDto) (dtos.HostNetworkBridgeDto, error)
        - -
        +DeleteBridge(bridgeName string) error
    }
    HostNetworkService::manager - - HostNetworkManager

    note right of HostNetworkService::GetVlanList
        Get list of VLAN interfaces on the host
    end note

    note right of HostNetworkService::GetVlanByName
        Get VLAN interface by Name
    end note

    note right of HostNetworkService::CreateVlan
        Create new VLAN interface on the host
    end note

    note right of HostNetworkService::UpdateVlan
        Update VLAN interface on the host
    end note

    note right of HostNetworkService::DeleteVlan
        Delete VLAN interface from host
    end note

    note right of HostNetworkService::GetBridgeList
        Get list of bridge interfaces on the host
    end note

    note right of HostNetworkService::GetBridgeByName
        Get bridge interface by Name
    end note

    note right of HostNetworkService::CreateBridge
        Create new bridge interface on the host
    end note

    note right of HostNetworkService::UpdateBridge
        Update bridge interface on the host
    end note

    note right of HostNetworkService::DeleteBridge
        Delete bridge interface from host
    end note
}

@enduml

@startuml


package dtos {
    class HostNetworkVlanDto {
        +Name string
        - -
        +Addresses []string
        - -
        +VlanID int
        - -
        +Parent string
    }
}


package dtos {
    class HostNetworkVlanCreateDto {
        +Addresses []string
        - -
        +VlanID int
        - -
        +Parent string
    }
}



package dtos {
    class HostNetworkVlanUpdateDto {
        +Addresses []string
    }
}



package dtos {
    class HostNetworkBridgeBaseDto {
    +Addresses []string
    - -
    +Slaves []string
    }
}


package dtos {
    class HostNetworkBridgeDto {
        +Name string
    }
    HostNetworkBridgeDto - -* HostNetworkBridgeBaseDto
}



package dtos {
    class HostNetworkBridgeCreateDto {
        +Name string
    }
    HostNetworkBridgeCreateDto - -* HostNetworkBridgeBaseDto
}



package dtos {
    class HostNetworkBridgeUpdateDto {}
    HostNetworkBridgeUpdateDto - -* HostNetworkBridgeBaseDto
}







package app {
    interface IHostNetworkLink {
        +GetName() string
        - -
        +GetType() string
        - -
        +GetAddresses() []net.IPNet
    }

    note left of IHostNetworkLink::GetName
    Gets host interface name
    end note

    note left of IHostNetworkLink::GetType
    Gets host interface type
    end note

    note left of IHostNetworkLink::GetAddresses
    Gets host interface addresses
    end note
}


package domain {
    class HostNetworkLink {
        +Name string
        - -
        +Addresses []net.IPNet
        - -
        +Type string
    }
    note left of HostNetworkLink::Name
    Unique name of the network interface
    end note

    note left of HostNetworkLink::Type
    Default value is "none"
    because HostNetworkLink is a basic class
    end note

    HostNetworkLink - -|> IHostNetworkLink
}


package domain {
    class HostNetworkDevice

    HostNetworkDevice - -* HostNetworkLink
}



package domain {
    class HostNetworkVlan {
        +VlanID int
        - -
        +Parent string
    }

    HostNetworkVlan - -* HostNetworkLink
}



package domain {
    class HostNetworkBridge {
        +Slaves []string
        - -
        +GetSlaves() []string
    }

    HostNetworkBridge - -* HostNetworkLink

    note right of HostNetworkBridge::GetSlaves
        Get an array of bridge slaves
    end note
}




package domain {
    class HostNetworkConfig {
        +Devices []HostNetworkDevice
        - -
        +Vlans   []HostNetworkVlan
        - -
        +Bridges []HostNetworkBridge
    }

    HostNetworkConfig::Devices - - HostNetworkDevice
    HostNetworkConfig::Vlans - - HostNetworkVlan
    HostNetworkConfig::Bridges - - HostNetworkBridge
}



package app {
    interface IHostNetworkManager {
        +GetList() ([]IHostNetworkLink, error)
        - -
        +GetByName(name string) (IHostNetworkLink, error)
        - -
        +CreateVlan(master string, vlanID int) (string, error)
        - -
        +CreateBridge(name string) (string, error)
        - -
        +SetLinkMaster(slaveName, masterName string) error
        - -
        +UnsetLinkMaster(linkName string) error
        - -
        +SetLinkUp(linkName string) error
        - -
        +DeleteLinkByName(name string) error
        - -
        +AddrAdd(linkName string, addr net.IPNet) error
        - -
        +AddrDelete(linkName string, addr net.IPNet) error
        - -
        +SaveConfiguration() error
        - -
        +RestoreFromBackup() error
        - -
        +ResetChanges() error
        - -
        +HasUnsavedChanges() bool
    }

    note left of IHostNetworkManager::GetList
    Gets list of host network interfaces
    end note

    note left of IHostNetworkManager::GetByName
    Gets host network interface by its name
    end note

    note left of IHostNetworkManager::CreateVlan
    Create host vlan interface with name rol.{Master}.{VlanID}
    end note

    note left of IHostNetworkManager::CreateBridge
    Create host bridge interface with name rol.br.{Name}
    end note

    note left of IHostNetworkManager::SetLinkMaster
    Set master for link
    end note

    note left of IHostNetworkManager::UnsetLinkMaster
    Removes the master of the link
    end note

    note left of IHostNetworkManager::SetLinkUp
    Enables the link on host
    end note

    note left of IHostNetworkManager::DeleteLinkByName
    Deletes interface on host by its name
    end note

    note left of IHostNetworkManager::AddrAdd
    Add new ip address for network interface
    end note

    note left of IHostNetworkManager::AddrDelete
    Delete ip address for network interface
    end note

    note left of IHostNetworkManager::SaveConfiguration
    Save current host network configuration to the storage
    end note

    note left of IHostNetworkManager::RestoreFromBackup
    Restore and apply host network configuration from backup
    end note

    note left of IHostNetworkManager::ResetChanges
    Reset all applied changes to state from saved configuration
    end note

    note left of IHostNetworkManager::HasUnsavedChanges
    Gets a flag about unsaved changes
    end note
}




package app {
    interface IHostNetworkConfigStorage {
        +SaveConfig(config domain.HostNetworkConfig) error
        - -
        +GetConfig() (domain.HostNetworkConfig, error)
        - -
        +GetBackupConfig() (domain.HostNetworkConfig, error)
    }
}


package infrastructure {
    class YamlHostNetworkConfigStorage {
        -configFilePath string
    }

    YamlHostNetworkConfigStorage - -|> IHostNetworkConfigStorage
}


package infrastructure {
    class HostNetworkManager {
        -configStorage  interfaces.IHostNetworkConfigStorage
        - -
        -hasUnsavedChanges bool
    }

    HostNetworkManager::configStorage - - YamlHostNetworkConfigStorage
    HostNetworkManager -down-|> IHostNetworkManager
    HostNetworkManager -[hidden]left- YamlHostNetworkConfigStorage
}


package app {
    class HostNetworkService {
        -manager IHostNetworkManager
        - -
        +GetVlanList() ([]HostNetworkVlanDto, error)
        - -
        +GetVlanByName(name string) (HostNetworkVlanDto, error)
        - -
        +CreateVlan(createDto HostNetworkVlanCreateDto) (HostNetworkVlanDto, error)
        - -
        +UpdateVlan(name string, updateDto HostNetworkVlanUpdateDto) (HostNetworkVlanDto, error)
        - -
        +DeleteVlan(name string) error
        - -
        +GetBridgeList() ([]HostNetworkBridgeDto, error)
        - -
        +GetBridgeByName(name string) (dtos.HostNetworkBridgeDto, error)
        - -
        +CreateBridge(createDto dtos.HostNetworkBridgeCreateDto) (dtos.HostNetworkBridgeDto, error)
        - -
        +UpdateBridge(bridgeName string, updateDto dtos.HostNetworkBridgeUpdateDto) (dtos.HostNetworkBridgeDto, error)
        - -
        +DeleteBridge(bridgeName string) error
    }
    HostNetworkService::manager - - HostNetworkManager

    note right of HostNetworkService::GetVlanList
        Get list of VLAN interfaces on the host
    end note

    note right of HostNetworkService::GetVlanByName
        Get VLAN interface by Name
    end note

    note right of HostNetworkService::CreateVlan
        Create new VLAN interface on the host
    end note

    note right of HostNetworkService::UpdateVlan
        Update VLAN interface on the host
    end note

    note right of HostNetworkService::DeleteVlan
        Delete VLAN interface from host
    end note

    note right of HostNetworkService::GetBridgeList
        Get list of bridge interfaces on the host
    end note

    note right of HostNetworkService::GetBridgeByName
        Get bridge interface by Name
    end note

    note right of HostNetworkService::CreateBridge
        Create new bridge interface on the host
    end note

    note right of HostNetworkService::UpdateBridge
        Update bridge interface on the host
    end note

    note right of HostNetworkService::DeleteBridge
        Delete bridge interface from host
    end note
}

@enduml

PlantUML version 1.2022.6(Tue Jun 21 20:34:49 MSK 2022)
(GPL source distribution)
Java Runtime: OpenJDK Runtime Environment
JVM: OpenJDK 64-Bit Server VM
Default Encoding: Cp1251
Language: ru
Country: RU
--></g></svg>