<?xml version="1.0" encoding="UTF-8" standalone="no"?><svg xmlns="http://www.w3.org/2000/svg" xmlns:xlink="http://www.w3.org/1999/xlink" contentStyleType="text/css" height="1589px" preserveAspectRatio="none" style="width:1806px;height:1589px;background:#FFFFFF;" version="1.1" viewBox="0 0 1806 1589" width="1806px" zoomAndPan="magnify"><defs/><g><!--MD5=[d5ac3844f66b12d9e08170e47495e096]
cluster app--><g id="cluster_app"><path d="M8.5,518 L35.5,518 A3.75,3.75 0 0 1 38,520.5 L45,541.6094 L1502.5,541.6094 A2.5,2.5 0 0 1 1505,544.1094 L1505,1579.5 A2.5,2.5 0 0 1 1502.5,1582 L8.5,1582 A2.5,2.5 0 0 1 6,1579.5 L6,520.5 A2.5,2.5 0 0 1 8.5,518 " style="stroke:#000000;stroke-width:1.5;fill:none;"/><line style="stroke:#000000;stroke-width:1.5;fill:none;" x1="6" x2="45" y1="541.6094" y2="541.6094"/><text fill="#000000" font-family="sans-serif" font-size="14" font-weight="bold" lengthAdjust="spacing" textLength="26" x="10" y="534.5332">app</text></g><!--MD5=[27f772719433d509ddbc20ff768eba08]
cluster domain--><g id="cluster_domain"><path d="M281.5,6 L333.5,6 A3.75,3.75 0 0 1 336,8.5 L343,29.6094 L592.5,29.6094 A2.5,2.5 0 0 1 595,32.1094 L595,383.5 A2.5,2.5 0 0 1 592.5,386 L281.5,386 A2.5,2.5 0 0 1 279,383.5 L279,8.5 A2.5,2.5 0 0 1 281.5,6 " style="stroke:#000000;stroke-width:1.5;fill:none;"/><line style="stroke:#000000;stroke-width:1.5;fill:none;" x1="279" x2="343" y1="29.6094" y2="29.6094"/><text fill="#000000" font-family="sans-serif" font-size="14" font-weight="bold" lengthAdjust="spacing" textLength="51" x="283" y="22.5332">domain</text></g><!--MD5=[77349be1bd27b81b697a0f9b3aded3c8]
cluster infrastructure--><g id="cluster_infrastructure"><path d="M894.5,49 L992.5,49 A3.75,3.75 0 0 1 995,51.5 L1002,72.6094 L1167.5,72.6094 A2.5,2.5 0 0 1 1170,75.1094 L1170,491.5 A2.5,2.5 0 0 1 1167.5,494 L894.5,494 A2.5,2.5 0 0 1 892,491.5 L892,51.5 A2.5,2.5 0 0 1 894.5,49 " style="stroke:#000000;stroke-width:1.5;fill:none;"/><line style="stroke:#000000;stroke-width:1.5;fill:none;" x1="892" x2="1002" y1="72.6094" y2="72.6094"/><text fill="#000000" font-family="sans-serif" font-size="14" font-weight="bold" lengthAdjust="spacing" textLength="97" x="896" y="65.5332">infrastructure</text></g><!--MD5=[ac65c812e7532cbcd7b9effd958b962e]
cluster dtos--><g id="cluster_dtos"><path d="M1531.5,1154 L1563.5,1154 A3.75,3.75 0 0 1 1566,1156.5 L1573,1177.6094 L1796.5,1177.6094 A2.5,2.5 0 0 1 1799,1180.1094 L1799,1543 A2.5,2.5 0 0 1 1796.5,1545.5 L1531.5,1545.5 A2.5,2.5 0 0 1 1529,1543 L1529,1156.5 A2.5,2.5 0 0 1 1531.5,1154 " style="stroke:#000000;stroke-width:1.5;fill:none;"/><line style="stroke:#000000;stroke-width:1.5;fill:none;" x1="1529" x2="1573" y1="1177.6094" y2="1177.6094"/><text fill="#000000" font-family="sans-serif" font-size="14" font-weight="bold" lengthAdjust="spacing" textLength="31" x="1533" y="1170.5332">dtos</text></g><!--MD5=[7c0ed5f9a527ab221a5373ebedcc681c]
class IGenericService--><g id="elem_IGenericService"><rect codeLine="3" fill="#F1F1F1" height="160.0469" id="IGenericService" rx="2.5" ry="2.5" style="stroke:#181818;stroke-width:0.5;" width="835" x="653.5" y="1395"/><ellipse cx="869.75" cy="1411" fill="#B4A7E5" rx="11" ry="11" style="stroke:#181818;stroke-width:1.0;"/><path d="M870.7031,1407.6406 L870.7031,1414.2969 L872.4219,1414.2969 Q873.0313,1414.2969 873.2969,1414.5313 Q873.5625,1414.7656 873.5625,1415.1563 Q873.5625,1415.5313 873.2969,1415.7656 Q873.0313,1416 872.4219,1416 L867.2813,1416 Q866.6719,1416 866.4063,1415.7656 Q866.1406,1415.5313 866.1406,1415.1406 Q866.1406,1414.7656 866.4063,1414.5313 Q866.6719,1414.2969 867.2813,1414.2969 L869,1414.2969 L869,1407.6406 L867.2813,1407.6406 Q866.6719,1407.6406 866.4063,1407.4063 Q866.1406,1407.1719 866.1406,1406.7813 Q866.1406,1406.4063 866.4063,1406.1719 Q866.6719,1405.9375 867.2813,1405.9375 L872.4219,1405.9375 Q873.0313,1405.9375 873.2969,1406.1719 Q873.5625,1406.4063 873.5625,1406.7813 Q873.5625,1407.1719 873.2969,1407.4063 Q873.0313,1407.6406 872.4219,1407.6406 L870.7031,1407.6406 Z " fill="#000000"/><text fill="#000000" font-family="sans-serif" font-size="14" font-style="italic" lengthAdjust="spacing" textLength="100" x="890.25" y="1416.7285">IGenericService</text><rect fill="#FFFFFF" height="17.0938" style="stroke:#000000;stroke-width:1.0;stroke-dasharray:2.0,2.0;" width="292" x="1199.5" y="1392"/><text fill="#000000" font-family="sans-serif" font-size="12" font-style="italic" lengthAdjust="spacing" textLength="290" x="1200.5" y="1405.457">EntityType, CreateDtoType, UpdateDtoType, DtoType</text><line style="stroke:#181818;stroke-width:0.5;" x1="654.5" x2="1487.5" y1="1427" y2="1427"/><ellipse cx="664.5" cy="1438" fill="#84BE84" rx="3" ry="3" style="stroke:#038048;stroke-width:1.0;"/><text fill="#000000" font-family="sans-serif" font-size="14" lengthAdjust="spacing" textLength="809" x="673.5" y="1445.5332">GetList(ctx context.Context, search, orderBy, orderDirection string, page, pageSize int) (dtos.PaginatedItemsDto[DtoType], error)</text><line style="stroke:#181818;stroke-width:1.0;" x1="654.5" x2="1487.5" y1="1452.6094" y2="1452.6094"/><ellipse cx="664.5" cy="1463.6094" fill="#84BE84" rx="3" ry="3" style="stroke:#038048;stroke-width:1.0;"/><text fill="#000000" font-family="sans-serif" font-size="14" lengthAdjust="spacing" textLength="370" x="673.5" y="1471.1426">GetById(ctx context.Context, id uuid.UUID) (DtoType, error)</text><line style="stroke:#181818;stroke-width:1.0;" x1="654.5" x2="1487.5" y1="1478.2188" y2="1478.2188"/><ellipse cx="664.5" cy="1489.2188" fill="#84BE84" rx="3" ry="3" style="stroke:#038048;stroke-width:1.0;"/><text fill="#000000" font-family="sans-serif" font-size="14" lengthAdjust="spacing" textLength="542" x="673.5" y="1496.752">Update(ctx context.Context, updateDto UpdateDtoType, id uuid.UUID) (DtoType, error)</text><line style="stroke:#181818;stroke-width:1.0;" x1="654.5" x2="1487.5" y1="1503.8281" y2="1503.8281"/><ellipse cx="664.5" cy="1514.8281" fill="#84BE84" rx="3" ry="3" style="stroke:#038048;stroke-width:1.0;"/><text fill="#000000" font-family="sans-serif" font-size="14" lengthAdjust="spacing" textLength="449" x="673.5" y="1522.3613">Create(ctx context.Context, createDto CreateDtoType) (DtoType, error)</text><line style="stroke:#181818;stroke-width:1.0;" x1="654.5" x2="1487.5" y1="1529.4375" y2="1529.4375"/><ellipse cx="664.5" cy="1540.4375" fill="#84BE84" rx="3" ry="3" style="stroke:#038048;stroke-width:1.0;"/><text fill="#000000" font-family="sans-serif" font-size="14" lengthAdjust="spacing" textLength="289" x="673.5" y="1547.9707">Delete(ctx context.Context, id uuid.UUID) error</text></g><path d="M292,1384 L292,1410.3516 A0,0 0 0 0 292,1410.3516 L584,1410.3516 A0,0 0 0 0 584,1410.3516 L584,1402 L657.5,1439.8047 L584,1394 L584,1394 L574,1384 L292,1384 A0,0 0 0 0 292,1384 " fill="#FEFFDD" style="stroke:#181818;stroke-width:0.5;"/><path d="M574,1384 L574,1394 L584,1394 L574,1384 " fill="#FEFFDD" style="stroke:#181818;stroke-width:0.5;"/><text fill="#000000" font-family="sans-serif" font-size="13" lengthAdjust="spacing" textLength="271" x="298" y="1402.4951">Get list of elements with search and pagination</text><path d="M292,1420.3516 L292,1446.7031 A0,0 0 0 0 292,1446.7031 L477,1446.7031 A0,0 0 0 0 477,1446.7031 L477,1438.3516 L657.5,1465.4141 L477,1430.3516 L477,1430.3516 L467,1420.3516 L292,1420.3516 A0,0 0 0 0 292,1420.3516 " fill="#FEFFDD" style="stroke:#181818;stroke-width:0.5;"/><path d="M467,1420.3516 L467,1430.3516 L477,1430.3516 L467,1420.3516 " fill="#FEFFDD" style="stroke:#181818;stroke-width:0.5;"/><text fill="#000000" font-family="sans-serif" font-size="13" lengthAdjust="spacing" textLength="164" x="298" y="1438.8467">Get entity by ID from service</text><path d="M292,1456.7031 L292,1483.0547 A0,0 0 0 0 292,1483.0547 L618,1483.0547 A0,0 0 0 0 618,1483.0547 L618,1474.7031 L657.5,1491.0234 L618,1466.7031 L618,1466.7031 L608,1456.7031 L292,1456.7031 A0,0 0 0 0 292,1456.7031 " fill="#FEFFDD" style="stroke:#181818;stroke-width:0.5;"/><path d="M608,1456.7031 L608,1466.7031 L618,1466.7031 L608,1456.7031 " fill="#FEFFDD" style="stroke:#181818;stroke-width:0.5;"/><text fill="#000000" font-family="sans-serif" font-size="13" lengthAdjust="spacing" textLength="305" x="298" y="1475.1982">Save the changes to the existing entity in the service</text><path d="M292,1493.0547 L292,1519.4063 A0,0 0 0 0 292,1519.4063 L453,1519.4063 A0,0 0 0 0 453,1519.4063 L453,1511.0547 L657.5,1516.6328 L453,1503.0547 L453,1503.0547 L443,1493.0547 L292,1493.0547 A0,0 0 0 0 292,1493.0547 " fill="#FEFFDD" style="stroke:#181818;stroke-width:0.5;"/><path d="M443,1493.0547 L443,1503.0547 L453,1503.0547 L443,1493.0547 " fill="#FEFFDD" style="stroke:#181818;stroke-width:0.5;"/><text fill="#000000" font-family="sans-serif" font-size="13" lengthAdjust="spacing" textLength="140" x="298" y="1511.5498">Add entity to the service</text><path d="M292,1529.4063 L292,1555.7578 A0,0 0 0 0 292,1555.7578 L460,1555.7578 A0,0 0 0 0 460,1555.7578 L460,1547.4063 L657.5,1542.2422 L460,1539.4063 L460,1539.4063 L450,1529.4063 L292,1529.4063 A0,0 0 0 0 292,1529.4063 " fill="#FEFFDD" style="stroke:#181818;stroke-width:0.5;"/><path d="M450,1529.4063 L450,1539.4063 L460,1539.4063 L450,1529.4063 " fill="#FEFFDD" style="stroke:#181818;stroke-width:0.5;"/><text fill="#000000" font-family="sans-serif" font-size="13" lengthAdjust="spacing" textLength="147" x="298" y="1547.9014">Mark an entity as deleted</text><!--MD5=[356bca08515a5260142359877c3882a6]
class GenericService--><g id="elem_GenericService"><rect codeLine="4" fill="#F1F1F1" height="108.8281" id="GenericService" rx="2.5" ry="2.5" style="stroke:#181818;stroke-width:0.5;" width="423" x="945.5" y="1202.5"/><ellipse cx="960.5" cy="1218.5" fill="#ADD1B2" rx="11" ry="11" style="stroke:#181818;stroke-width:1.0;"/><path d="M963.2656,1214.375 Q963.4219,1214.1563 963.6094,1214.0469 Q963.7969,1213.9375 964.0156,1213.9375 Q964.3906,1213.9375 964.625,1214.2031 Q964.8594,1214.4531 964.8594,1215.0625 L964.8594,1216.5156 Q964.8594,1217.125 964.625,1217.3906 Q964.3906,1217.6563 964.0156,1217.6563 Q963.6719,1217.6563 963.4688,1217.4531 Q963.2656,1217.2656 963.1563,1216.75 Q963.1094,1216.3906 962.9219,1216.2031 Q962.5938,1215.8281 961.9844,1215.6094 Q961.375,1215.3906 960.75,1215.3906 Q959.9844,1215.3906 959.3438,1215.7188 Q958.7188,1216.0469 958.2188,1216.7969 Q957.7344,1217.5469 957.7344,1218.5781 L957.7344,1219.6719 Q957.7344,1220.9063 958.625,1221.7344 Q959.5156,1222.5469 961.1094,1222.5469 Q962.0469,1222.5469 962.7031,1222.2969 Q963.0938,1222.1406 963.5156,1221.7031 Q963.7813,1221.4375 963.9219,1221.3594 Q964.0781,1221.2813 964.2813,1221.2813 Q964.6094,1221.2813 964.8594,1221.5469 Q965.125,1221.7969 965.125,1222.1406 Q965.125,1222.4844 964.7813,1222.8906 Q964.2813,1223.4688 963.4844,1223.7969 Q962.4063,1224.25 961.1094,1224.25 Q959.5938,1224.25 958.3906,1223.625 Q957.4063,1223.125 956.7188,1222.0625 Q956.0313,1220.9844 956.0313,1219.7031 L956.0313,1218.5469 Q956.0313,1217.2188 956.6406,1216.0781 Q957.2656,1214.9219 958.3594,1214.3125 Q959.4531,1213.6875 960.6875,1213.6875 Q961.4219,1213.6875 962.0625,1213.8594 Q962.7188,1214.0156 963.2656,1214.375 Z " fill="#000000"/><text fill="#000000" font-family="sans-serif" font-size="14" lengthAdjust="spacing" textLength="97" x="974.5" y="1224.2285">GenericService</text><rect fill="#FFFFFF" height="17.0938" style="stroke:#000000;stroke-width:1.0;stroke-dasharray:2.0,2.0;" width="292" x="1079.5" y="1199.5"/><text fill="#000000" font-family="sans-serif" font-size="12" font-style="italic" lengthAdjust="spacing" textLength="290" x="1080.5" y="1212.957">EntityType, CreateDtoType, UpdateDtoType, DtoType</text><line style="stroke:#181818;stroke-width:0.5;" x1="946.5" x2="1367.5" y1="1234.5" y2="1234.5"/><rect fill="none" height="6" style="stroke:#C82930;stroke-width:1.0;" width="6" x="953.5" y="1242.5"/><text fill="#000000" font-family="sans-serif" font-size="14" lengthAdjust="spacing" textLength="271" x="965.5" y="1253.0332">repository IGenericRepository&lt;EntityType&gt;</text><line style="stroke:#181818;stroke-width:1.0;" x1="946.5" x2="1367.5" y1="1260.1094" y2="1260.1094"/><rect fill="none" height="6" style="stroke:#C82930;stroke-width:1.0;" width="6" x="953.5" y="1268.1094"/><text fill="#000000" font-family="sans-serif" font-size="14" lengthAdjust="spacing" textLength="137" x="965.5" y="1278.6426">logger *logrus.Logger</text><line style="stroke:#181818;stroke-width:1.0;" x1="946.5" x2="1367.5" y1="1285.7188" y2="1285.7188"/><rect fill="none" height="6" style="stroke:#C82930;stroke-width:1.0;" width="6" x="953.5" y="1293.7188"/><text fill="#000000" font-family="sans-serif" font-size="14" lengthAdjust="spacing" textLength="139" x="965.5" y="1304.252">logSourceName string</text></g><!--MD5=[2a39a5be1cc24ddddd6e6286e4ece992]
class IEntityModel--><g id="elem_IEntityModel"><rect codeLine="3" fill="#F1F1F1" height="65.6094" id="IEntityModel" rx="2.5" ry="2.5" style="stroke:#181818;stroke-width:0.5;" width="138" x="22" y="666.5"/><ellipse cx="49.6" cy="682.5" fill="#B4A7E5" rx="11" ry="11" style="stroke:#181818;stroke-width:1.0;"/><path d="M50.5531,679.1406 L50.5531,685.7969 L52.2719,685.7969 Q52.8813,685.7969 53.1469,686.0313 Q53.4125,686.2656 53.4125,686.6563 Q53.4125,687.0313 53.1469,687.2656 Q52.8813,687.5 52.2719,687.5 L47.1313,687.5 Q46.5219,687.5 46.2563,687.2656 Q45.9906,687.0313 45.9906,686.6406 Q45.9906,686.2656 46.2563,686.0313 Q46.5219,685.7969 47.1313,685.7969 L48.85,685.7969 L48.85,679.1406 L47.1313,679.1406 Q46.5219,679.1406 46.2563,678.9063 Q45.9906,678.6719 45.9906,678.2813 Q45.9906,677.9063 46.2563,677.6719 Q46.5219,677.4375 47.1313,677.4375 L52.2719,677.4375 Q52.8813,677.4375 53.1469,677.6719 Q53.4125,677.9063 53.4125,678.2813 Q53.4125,678.6719 53.1469,678.9063 Q52.8813,679.1406 52.2719,679.1406 L50.5531,679.1406 Z " fill="#000000"/><text fill="#000000" font-family="sans-serif" font-size="14" font-style="italic" lengthAdjust="spacing" textLength="78" x="66.4" y="688.2285">IEntityModel</text><line style="stroke:#181818;stroke-width:0.5;" x1="23" x2="159" y1="698.5" y2="698.5"/><line style="stroke:#181818;stroke-width:0.5;" x1="23" x2="159" y1="706.5" y2="706.5"/><ellipse cx="33" cy="717.5" fill="#84BE84" rx="3" ry="3" style="stroke:#038048;stroke-width:1.0;"/><text fill="#000000" font-family="sans-serif" font-size="14" lengthAdjust="spacing" textLength="112" x="42" y="725.0332">GetID() uuid.UUID</text></g><!--MD5=[b3e0f8dcddb1b27f071a0303a68762bf]
class IGenericRepository--><g id="elem_IGenericRepository"><rect codeLine="3" fill="#F1F1F1" height="236.875" id="IGenericRepository" rx="2.5" ry="2.5" style="stroke:#181818;stroke-width:0.5;" width="915" x="573.5" y="581"/><ellipse cx="935.25" cy="597" fill="#B4A7E5" rx="11" ry="11" style="stroke:#181818;stroke-width:1.0;"/><path d="M936.2031,593.6406 L936.2031,600.2969 L937.9219,600.2969 Q938.5313,600.2969 938.7969,600.5313 Q939.0625,600.7656 939.0625,601.1563 Q939.0625,601.5313 938.7969,601.7656 Q938.5313,602 937.9219,602 L932.7813,602 Q932.1719,602 931.9063,601.7656 Q931.6406,601.5313 931.6406,601.1406 Q931.6406,600.7656 931.9063,600.5313 Q932.1719,600.2969 932.7813,600.2969 L934.5,600.2969 L934.5,593.6406 L932.7813,593.6406 Q932.1719,593.6406 931.9063,593.4063 Q931.6406,593.1719 931.6406,592.7813 Q931.6406,592.4063 931.9063,592.1719 Q932.1719,591.9375 932.7813,591.9375 L937.9219,591.9375 Q938.5313,591.9375 938.7969,592.1719 Q939.0625,592.4063 939.0625,592.7813 Q939.0625,593.1719 938.7969,593.4063 Q938.5313,593.6406 937.9219,593.6406 L936.2031,593.6406 Z " fill="#000000"/><text fill="#000000" font-family="sans-serif" font-size="14" font-style="italic" lengthAdjust="spacing" textLength="122" x="955.75" y="602.7285">IGenericRepository</text><rect fill="#FFFFFF" height="17.0938" style="stroke:#000000;stroke-width:1.0;stroke-dasharray:2.0,2.0;" width="59" x="1432.5" y="578"/><text fill="#000000" font-family="sans-serif" font-size="12" font-style="italic" lengthAdjust="spacing" textLength="57" x="1433.5" y="591.457">EntityType</text><line style="stroke:#181818;stroke-width:0.5;" x1="574.5" x2="1487.5" y1="613" y2="613"/><ellipse cx="584.5" cy="624" fill="#84BE84" rx="3" ry="3" style="stroke:#038048;stroke-width:1.0;"/><text fill="#000000" font-family="sans-serif" font-size="14" lengthAdjust="spacing" textLength="889" x="593.5" y="631.5332">GetList(ctx context.Context, orderBy string, orderDirection string, page int, size int, queryBuilder interfaces.IQueryBuilder) ([]EntityType, error)</text><line style="stroke:#181818;stroke-width:1.0;" x1="574.5" x2="1487.5" y1="638.6094" y2="638.6094"/><ellipse cx="584.5" cy="649.6094" fill="#84BE84" rx="3" ry="3" style="stroke:#038048;stroke-width:1.0;"/><text fill="#000000" font-family="sans-serif" font-size="14" lengthAdjust="spacing" textLength="494" x="593.5" y="657.1426">Count(ctx context.Context, queryBuilder interfaces.IQueryBuilder) (int64, error)</text><line style="stroke:#181818;stroke-width:1.0;" x1="574.5" x2="1487.5" y1="664.2188" y2="664.2188"/><ellipse cx="584.5" cy="675.2188" fill="#84BE84" rx="3" ry="3" style="stroke:#038048;stroke-width:1.0;"/><text fill="#000000" font-family="sans-serif" font-size="14" lengthAdjust="spacing" textLength="393" x="593.5" y="682.752">NewQueryBuilder(ctx context.Context) interfaces.IQueryBuilder</text><line style="stroke:#181818;stroke-width:1.0;" x1="574.5" x2="1487.5" y1="689.8281" y2="689.8281"/><ellipse cx="584.5" cy="700.8281" fill="#84BE84" rx="3" ry="3" style="stroke:#038048;stroke-width:1.0;"/><text fill="#000000" font-family="sans-serif" font-size="14" lengthAdjust="spacing" textLength="383" x="593.5" y="708.3613">GetById(ctx context.Context, id uuid.UUID) (EntityType, error)</text><line style="stroke:#181818;stroke-width:1.0;" x1="574.5" x2="1487.5" y1="715.4375" y2="715.4375"/><ellipse cx="584.5" cy="726.4375" fill="#84BE84" rx="3" ry="3" style="stroke:#038048;stroke-width:1.0;"/><text fill="#000000" font-family="sans-serif" font-size="14" lengthAdjust="spacing" textLength="406" x="593.5" y="733.9707">Update(ctx context.Context, entity EntityType) (EntityType, error)</text><line style="stroke:#181818;stroke-width:1.0;" x1="574.5" x2="1487.5" y1="741.0469" y2="741.0469"/><ellipse cx="584.5" cy="752.0469" fill="#84BE84" rx="3" ry="3" style="stroke:#038048;stroke-width:1.0;"/><text fill="#000000" font-family="sans-serif" font-size="14" lengthAdjust="spacing" textLength="396" x="593.5" y="759.5801">Insert(ctx context.Context, entity EntityType) (EntityType, error)</text><line style="stroke:#181818;stroke-width:1.0;" x1="574.5" x2="1487.5" y1="766.6563" y2="766.6563"/><ellipse cx="584.5" cy="777.6563" fill="#84BE84" rx="3" ry="3" style="stroke:#038048;stroke-width:1.0;"/><text fill="#000000" font-family="sans-serif" font-size="14" lengthAdjust="spacing" textLength="289" x="593.5" y="785.1895">Delete(ctx context.Context, id uuid.UUID) error</text><line style="stroke:#181818;stroke-width:1.0;" x1="574.5" x2="1487.5" y1="792.2656" y2="792.2656"/><ellipse cx="584.5" cy="803.2656" fill="#84BE84" rx="3" ry="3" style="stroke:#038048;stroke-width:1.0;"/><text fill="#000000" font-family="sans-serif" font-size="14" lengthAdjust="spacing" textLength="99" x="593.5" y="810.7988">CloseDb() error</text></g><path d="M195.5,554 L195.5,580.3516 A0,0 0 0 0 195.5,580.3516 L489.5,580.3516 A0,0 0 0 0 489.5,580.3516 L489.5,572 L577.5,625.8047 L489.5,564 L489.5,564 L479.5,554 L195.5,554 A0,0 0 0 0 195.5,554 " fill="#FEFFDD" style="stroke:#181818;stroke-width:0.5;"/><path d="M479.5,554 L479.5,564 L489.5,564 L479.5,554 " fill="#FEFFDD" style="stroke:#181818;stroke-width:0.5;"/><text fill="#000000" font-family="sans-serif" font-size="13" lengthAdjust="spacing" textLength="273" x="201.5" y="572.4951">Get list of elements with filtering and pagination</text><path d="M195.5,590.3516 L195.5,616.7031 A0,0 0 0 0 195.5,616.7031 L405.5,616.7031 A0,0 0 0 0 405.5,616.7031 L405.5,608.3516 L577.5,651.4141 L405.5,600.3516 L405.5,600.3516 L395.5,590.3516 L195.5,590.3516 A0,0 0 0 0 195.5,590.3516 " fill="#FEFFDD" style="stroke:#181818;stroke-width:0.5;"/><path d="M395.5,590.3516 L395.5,600.3516 L405.5,600.3516 L395.5,590.3516 " fill="#FEFFDD" style="stroke:#181818;stroke-width:0.5;"/><text fill="#000000" font-family="sans-serif" font-size="13" lengthAdjust="spacing" textLength="189" x="201.5" y="608.8467">Get count of entities with filtering</text><path d="M195.5,626.7031 L195.5,653.0547 A0,0 0 0 0 195.5,653.0547 L431.5,653.0547 A0,0 0 0 0 431.5,653.0547 L431.5,644.7031 L577.5,677.0234 L431.5,636.7031 L431.5,636.7031 L421.5,626.7031 L195.5,626.7031 A0,0 0 0 0 195.5,626.7031 " fill="#FEFFDD" style="stroke:#181818;stroke-width:0.5;"/><path d="M421.5,626.7031 L421.5,636.7031 L431.5,636.7031 L421.5,626.7031 " fill="#FEFFDD" style="stroke:#181818;stroke-width:0.5;"/><text fill="#000000" font-family="sans-serif" font-size="13" lengthAdjust="spacing" textLength="215" x="201.5" y="645.1982">Get new instance of the query builder</text><path d="M195.5,663.0547 L195.5,689.4063 A0,0 0 0 0 195.5,689.4063 L397.5,689.4063 A0,0 0 0 0 397.5,689.4063 L397.5,681.0547 L577.5,702.6328 L397.5,673.0547 L397.5,673.0547 L387.5,663.0547 L195.5,663.0547 A0,0 0 0 0 195.5,663.0547 " fill="#FEFFDD" style="stroke:#181818;stroke-width:0.5;"/><path d="M387.5,663.0547 L387.5,673.0547 L397.5,673.0547 L387.5,663.0547 " fill="#FEFFDD" style="stroke:#181818;stroke-width:0.5;"/><text fill="#000000" font-family="sans-serif" font-size="13" lengthAdjust="spacing" textLength="181" x="201.5" y="681.5498">Get entity by ID from repository</text><path d="M195.5,699.4063 L195.5,725.7578 A0,0 0 0 0 195.5,725.7578 L538.5,725.7578 A0,0 0 0 0 538.5,725.7578 L538.5,717.4063 L577.5,728.2422 L538.5,709.4063 L538.5,709.4063 L528.5,699.4063 L195.5,699.4063 A0,0 0 0 0 195.5,699.4063 " fill="#FEFFDD" style="stroke:#181818;stroke-width:0.5;"/><path d="M528.5,699.4063 L528.5,709.4063 L538.5,709.4063 L528.5,699.4063 " fill="#FEFFDD" style="stroke:#181818;stroke-width:0.5;"/><text fill="#000000" font-family="sans-serif" font-size="13" lengthAdjust="spacing" textLength="322" x="201.5" y="717.9014">Save the changes to the existing entity in the repository</text><path d="M195.5,735.7578 L195.5,762.1094 A0,0 0 0 0 195.5,762.1094 L373.5,762.1094 A0,0 0 0 0 373.5,762.1094 L373.5,753.7578 L577.5,753.8516 L373.5,745.7578 L373.5,745.7578 L363.5,735.7578 L195.5,735.7578 A0,0 0 0 0 195.5,735.7578 " fill="#FEFFDD" style="stroke:#181818;stroke-width:0.5;"/><path d="M363.5,735.7578 L363.5,745.7578 L373.5,745.7578 L363.5,735.7578 " fill="#FEFFDD" style="stroke:#181818;stroke-width:0.5;"/><text fill="#000000" font-family="sans-serif" font-size="13" lengthAdjust="spacing" textLength="157" x="201.5" y="754.2529">Add entity to the repository</text><path d="M195.5,772.1094 L195.5,798.4609 A0,0 0 0 0 195.5,798.4609 L397.5,798.4609 A0,0 0 0 0 397.5,798.4609 L397.5,790.1094 L577.5,779.4609 L397.5,782.1094 L397.5,782.1094 L387.5,772.1094 L195.5,772.1094 A0,0 0 0 0 195.5,772.1094 " fill="#FEFFDD" style="stroke:#181818;stroke-width:0.5;"/><path d="M387.5,772.1094 L387.5,782.1094 L397.5,782.1094 L387.5,772.1094 " fill="#FEFFDD" style="stroke:#181818;stroke-width:0.5;"/><text fill="#000000" font-family="sans-serif" font-size="13" lengthAdjust="spacing" textLength="181" x="201.5" y="790.6045">Delete entity from the database</text><path d="M195.5,808.4609 L195.5,834.8125 A0,0 0 0 0 195.5,834.8125 L424.5,834.8125 A0,0 0 0 0 424.5,834.8125 L424.5,826.4609 L577.5,805.0703 L424.5,818.4609 L424.5,818.4609 L414.5,808.4609 L195.5,808.4609 A0,0 0 0 0 195.5,808.4609 " fill="#FEFFDD" style="stroke:#181818;stroke-width:0.5;"/><path d="M414.5,808.4609 L414.5,818.4609 L424.5,818.4609 L414.5,808.4609 " fill="#FEFFDD" style="stroke:#181818;stroke-width:0.5;"/><text fill="#000000" font-family="sans-serif" font-size="13" lengthAdjust="spacing" textLength="208" x="201.5" y="826.9561">Closes current database connection</text><!--MD5=[1a84540a21143f0caa8ee836a5a25a4f]
class LogService--><g id="elem_LogService"><rect codeLine="8" fill="#F1F1F1" height="65.6094" id="LogService" rx="2.5" ry="2.5" style="stroke:#181818;stroke-width:0.5;" width="214" x="1120" y="909"/><ellipse cx="1187.25" cy="925" fill="#ADD1B2" rx="11" ry="11" style="stroke:#181818;stroke-width:1.0;"/><path d="M1190.0156,920.875 Q1190.1719,920.6563 1190.3594,920.5469 Q1190.5469,920.4375 1190.7656,920.4375 Q1191.1406,920.4375 1191.375,920.7031 Q1191.6094,920.9531 1191.6094,921.5625 L1191.6094,923.0156 Q1191.6094,923.625 1191.375,923.8906 Q1191.1406,924.1563 1190.7656,924.1563 Q1190.4219,924.1563 1190.2188,923.9531 Q1190.0156,923.7656 1189.9063,923.25 Q1189.8594,922.8906 1189.6719,922.7031 Q1189.3438,922.3281 1188.7344,922.1094 Q1188.125,921.8906 1187.5,921.8906 Q1186.7344,921.8906 1186.0938,922.2188 Q1185.4688,922.5469 1184.9688,923.2969 Q1184.4844,924.0469 1184.4844,925.0781 L1184.4844,926.1719 Q1184.4844,927.4063 1185.375,928.2344 Q1186.2656,929.0469 1187.8594,929.0469 Q1188.7969,929.0469 1189.4531,928.7969 Q1189.8438,928.6406 1190.2656,928.2031 Q1190.5313,927.9375 1190.6719,927.8594 Q1190.8281,927.7813 1191.0313,927.7813 Q1191.3594,927.7813 1191.6094,928.0469 Q1191.875,928.2969 1191.875,928.6406 Q1191.875,928.9844 1191.5313,929.3906 Q1191.0313,929.9688 1190.2344,930.2969 Q1189.1563,930.75 1187.8594,930.75 Q1186.3438,930.75 1185.1406,930.125 Q1184.1563,929.625 1183.4688,928.5625 Q1182.7813,927.4844 1182.7813,926.2031 L1182.7813,925.0469 Q1182.7813,923.7188 1183.3906,922.5781 Q1184.0156,921.4219 1185.1094,920.8125 Q1186.2031,920.1875 1187.4375,920.1875 Q1188.1719,920.1875 1188.8125,920.3594 Q1189.4688,920.5156 1190.0156,920.875 Z " fill="#000000"/><text fill="#000000" font-family="sans-serif" font-size="14" lengthAdjust="spacing" textLength="71" x="1207.75" y="930.7285">LogService</text><line style="stroke:#181818;stroke-width:0.5;" x1="1121" x2="1333" y1="941" y2="941"/><rect fill="none" height="6" style="stroke:#C82930;stroke-width:1.0;" width="6" x="1128" y="949"/><text fill="#000000" font-family="sans-serif" font-size="14" lengthAdjust="spacing" textLength="188" x="1140" y="959.5332">repository IGenericRepository</text><line style="stroke:#181818;stroke-width:1.0;" x1="1121" x2="1333" y1="966.6094" y2="966.6094"/></g><g id="elem_GMN863"><path d="M833.5,928.5 L833.5,954.8516 A0,0 0 0 0 833.5,954.8516 L1076.5,954.8516 A0,0 0 0 0 1076.5,954.8516 L1076.5,946.5 L1111.89,941.5 L1076.5,938.5 L1076.5,938.5 L1066.5,928.5 L833.5,928.5 A0,0 0 0 0 833.5,928.5 " fill="#FEFFDD" style="stroke:#181818;stroke-width:0.5;"/><path d="M1066.5,928.5 L1066.5,938.5 L1076.5,938.5 L1066.5,928.5 " fill="#FEFFDD" style="stroke:#181818;stroke-width:0.5;"/><text fill="#000000" font-family="sans-serif" font-size="13" lengthAdjust="spacing" textLength="222" x="839.5" y="946.9951">Advanced business logic for Log entity</text></g><g id="elem_LogServiceTypes"><path d="M1193.5,1038 L1193.5,1129.7578 L1402.5,1129.7578 L1402.5,1048 L1392.5,1038 L1193.5,1038 " fill="#FEFFDD" style="stroke:#181818;stroke-width:0.5;"/><path d="M1392.5,1038 L1392.5,1048 L1402.5,1048 L1392.5,1038 " fill="#FEFFDD" style="stroke:#181818;stroke-width:1.0;"/><text fill="#000000" font-family="sans-serif" font-size="13" lengthAdjust="spacing" textLength="101" x="1199.5" y="1056.4951">EntityType is Log</text><text fill="#000000" font-family="sans-serif" font-size="13" lengthAdjust="spacing" textLength="145" x="1199.5" y="1072.8467">CreateDtoType is LogDto</text><text fill="#000000" font-family="sans-serif" font-size="13" lengthAdjust="spacing" textLength="148" x="1199.5" y="1089.1982">UpdateDtoType is LogDto</text><text fill="#000000" font-family="sans-serif" font-size="13" lengthAdjust="spacing" textLength="107" x="1199.5" y="1105.5498">DtoType is LogDto</text><text fill="#000000" font-family="sans-serif" font-size="13" lengthAdjust="spacing" textLength="188" x="1199.5" y="1121.9014">Because the service is read-only</text></g><!--MD5=[be996cdb8e6bf2fc7cb89c555f2cd144]
class Entity--><g id="elem_Entity"><rect codeLine="5" fill="#F1F1F1" height="134.4375" id="Entity" rx="2.5" ry="2.5" style="stroke:#181818;stroke-width:0.5;" width="283" x="295.5" y="236"/><ellipse cx="415.25" cy="252" fill="#ADD1B2" rx="11" ry="11" style="stroke:#181818;stroke-width:1.0;"/><path d="M418.0156,247.875 Q418.1719,247.6563 418.3594,247.5469 Q418.5469,247.4375 418.7656,247.4375 Q419.1406,247.4375 419.375,247.7031 Q419.6094,247.9531 419.6094,248.5625 L419.6094,250.0156 Q419.6094,250.625 419.375,250.8906 Q419.1406,251.1563 418.7656,251.1563 Q418.4219,251.1563 418.2188,250.9531 Q418.0156,250.7656 417.9063,250.25 Q417.8594,249.8906 417.6719,249.7031 Q417.3438,249.3281 416.7344,249.1094 Q416.125,248.8906 415.5,248.8906 Q414.7344,248.8906 414.0938,249.2188 Q413.4688,249.5469 412.9688,250.2969 Q412.4844,251.0469 412.4844,252.0781 L412.4844,253.1719 Q412.4844,254.4063 413.375,255.2344 Q414.2656,256.0469 415.8594,256.0469 Q416.7969,256.0469 417.4531,255.7969 Q417.8438,255.6406 418.2656,255.2031 Q418.5313,254.9375 418.6719,254.8594 Q418.8281,254.7813 419.0313,254.7813 Q419.3594,254.7813 419.6094,255.0469 Q419.875,255.2969 419.875,255.6406 Q419.875,255.9844 419.5313,256.3906 Q419.0313,256.9688 418.2344,257.2969 Q417.1563,257.75 415.8594,257.75 Q414.3438,257.75 413.1406,257.125 Q412.1563,256.625 411.4688,255.5625 Q410.7813,254.4844 410.7813,253.2031 L410.7813,252.0469 Q410.7813,250.7188 411.3906,249.5781 Q412.0156,248.4219 413.1094,247.8125 Q414.2031,247.1875 415.4375,247.1875 Q416.1719,247.1875 416.8125,247.3594 Q417.4688,247.5156 418.0156,247.875 Z " fill="#000000"/><text fill="#000000" font-family="sans-serif" font-size="14" lengthAdjust="spacing" textLength="35" x="435.75" y="257.7285">Entity</text><line style="stroke:#181818;stroke-width:0.5;" x1="296.5" x2="577.5" y1="268" y2="268"/><ellipse cx="306.5" cy="279" fill="none" rx="3" ry="3" style="stroke:#038048;stroke-width:1.0;"/><text fill="#000000" font-family="sans-serif" font-size="14" lengthAdjust="spacing" textLength="208" x="315.5" y="286.5332">ID uuid.UUID `gorm:"primarykey"`</text><line style="stroke:#181818;stroke-width:1.0;" x1="296.5" x2="577.5" y1="293.6094" y2="293.6094"/><ellipse cx="306.5" cy="304.6094" fill="none" rx="3" ry="3" style="stroke:#038048;stroke-width:1.0;"/><text fill="#000000" font-family="sans-serif" font-size="14" lengthAdjust="spacing" textLength="222" x="315.5" y="312.1426">CreatedAt time.Time `gorm:"index"`</text><line style="stroke:#181818;stroke-width:1.0;" x1="296.5" x2="577.5" y1="319.2188" y2="319.2188"/><ellipse cx="306.5" cy="330.2188" fill="none" rx="3" ry="3" style="stroke:#038048;stroke-width:1.0;"/><text fill="#000000" font-family="sans-serif" font-size="14" lengthAdjust="spacing" textLength="224" x="315.5" y="337.752">UpdatedAt time.Time `gorm:"index"`</text><line style="stroke:#181818;stroke-width:1.0;" x1="296.5" x2="577.5" y1="344.8281" y2="344.8281"/><ellipse cx="306.5" cy="355.8281" fill="none" rx="3" ry="3" style="stroke:#038048;stroke-width:1.0;"/><text fill="#000000" font-family="sans-serif" font-size="14" lengthAdjust="spacing" textLength="257" x="315.5" y="363.3613">DeletedAt gorm.DeletedAt `gorm:"index"`</text></g><!--MD5=[063d74e43144aaa0d0cf3aecd3794497]
class Log--><g id="elem_Log"><rect codeLine="5" fill="#F1F1F1" height="134.4375" id="Log" rx="2.5" ry="2.5" style="stroke:#181818;stroke-width:0.5;" width="237" x="329.5" y="42"/><ellipse cx="431.75" cy="58" fill="#ADD1B2" rx="11" ry="11" style="stroke:#181818;stroke-width:1.0;"/><path d="M434.5156,53.875 Q434.6719,53.6563 434.8594,53.5469 Q435.0469,53.4375 435.2656,53.4375 Q435.6406,53.4375 435.875,53.7031 Q436.1094,53.9531 436.1094,54.5625 L436.1094,56.0156 Q436.1094,56.625 435.875,56.8906 Q435.6406,57.1563 435.2656,57.1563 Q434.9219,57.1563 434.7188,56.9531 Q434.5156,56.7656 434.4063,56.25 Q434.3594,55.8906 434.1719,55.7031 Q433.8438,55.3281 433.2344,55.1094 Q432.625,54.8906 432,54.8906 Q431.2344,54.8906 430.5938,55.2188 Q429.9688,55.5469 429.4688,56.2969 Q428.9844,57.0469 428.9844,58.0781 L428.9844,59.1719 Q428.9844,60.4063 429.875,61.2344 Q430.7656,62.0469 432.3594,62.0469 Q433.2969,62.0469 433.9531,61.7969 Q434.3438,61.6406 434.7656,61.2031 Q435.0313,60.9375 435.1719,60.8594 Q435.3281,60.7813 435.5313,60.7813 Q435.8594,60.7813 436.1094,61.0469 Q436.375,61.2969 436.375,61.6406 Q436.375,61.9844 436.0313,62.3906 Q435.5313,62.9688 434.7344,63.2969 Q433.6563,63.75 432.3594,63.75 Q430.8438,63.75 429.6406,63.125 Q428.6563,62.625 427.9688,61.5625 Q427.2813,60.4844 427.2813,59.2031 L427.2813,58.0469 Q427.2813,56.7188 427.8906,55.5781 Q428.5156,54.4219 429.6094,53.8125 Q430.7031,53.1875 431.9375,53.1875 Q432.6719,53.1875 433.3125,53.3594 Q433.9688,53.5156 434.5156,53.875 Z " fill="#000000"/><text fill="#000000" font-family="sans-serif" font-size="14" lengthAdjust="spacing" textLength="24" x="452.25" y="63.7285">Log</text><line style="stroke:#181818;stroke-width:0.5;" x1="330.5" x2="565.5" y1="74" y2="74"/><ellipse cx="340.5" cy="85" fill="none" rx="3" ry="3" style="stroke:#038048;stroke-width:1.0;"/><text fill="#000000" font-family="sans-serif" font-size="14" lengthAdjust="spacing" textLength="211" x="349.5" y="92.5332">ActionID uuid.UUID `gorm:"index"`</text><line style="stroke:#181818;stroke-width:1.0;" x1="330.5" x2="565.5" y1="99.6094" y2="99.6094"/><ellipse cx="340.5" cy="110.6094" fill="none" rx="3" ry="3" style="stroke:#038048;stroke-width:1.0;"/><text fill="#000000" font-family="sans-serif" font-size="14" lengthAdjust="spacing" textLength="73" x="349.5" y="118.1426">Level string</text><line style="stroke:#181818;stroke-width:1.0;" x1="330.5" x2="565.5" y1="125.2188" y2="125.2188"/><ellipse cx="340.5" cy="136.2188" fill="none" rx="3" ry="3" style="stroke:#038048;stroke-width:1.0;"/><text fill="#000000" font-family="sans-serif" font-size="14" lengthAdjust="spacing" textLength="84" x="349.5" y="143.752">Source string</text><line style="stroke:#181818;stroke-width:1.0;" x1="330.5" x2="565.5" y1="150.8281" y2="150.8281"/><ellipse cx="340.5" cy="161.8281" fill="none" rx="3" ry="3" style="stroke:#038048;stroke-width:1.0;"/><text fill="#000000" font-family="sans-serif" font-size="14" lengthAdjust="spacing" textLength="96" x="349.5" y="169.3613">Message string</text></g><!--MD5=[27abfb56f32eefa7f07c83348fb1ee32]
class GormGenericRepository--><g id="elem_GormGenericRepository"><rect codeLine="5" fill="#F1F1F1" height="48" id="GormGenericRepository" rx="2.5" ry="2.5" style="stroke:#181818;stroke-width:0.5;" width="246" x="908" y="430"/><ellipse cx="923" cy="446" fill="#ADD1B2" rx="11" ry="11" style="stroke:#181818;stroke-width:1.0;"/><path d="M925.7656,441.875 Q925.9219,441.6563 926.1094,441.5469 Q926.2969,441.4375 926.5156,441.4375 Q926.8906,441.4375 927.125,441.7031 Q927.3594,441.9531 927.3594,442.5625 L927.3594,444.0156 Q927.3594,444.625 927.125,444.8906 Q926.8906,445.1563 926.5156,445.1563 Q926.1719,445.1563 925.9688,444.9531 Q925.7656,444.7656 925.6563,444.25 Q925.6094,443.8906 925.4219,443.7031 Q925.0938,443.3281 924.4844,443.1094 Q923.875,442.8906 923.25,442.8906 Q922.4844,442.8906 921.8438,443.2188 Q921.2188,443.5469 920.7188,444.2969 Q920.2344,445.0469 920.2344,446.0781 L920.2344,447.1719 Q920.2344,448.4063 921.125,449.2344 Q922.0156,450.0469 923.6094,450.0469 Q924.5469,450.0469 925.2031,449.7969 Q925.5938,449.6406 926.0156,449.2031 Q926.2813,448.9375 926.4219,448.8594 Q926.5781,448.7813 926.7813,448.7813 Q927.1094,448.7813 927.3594,449.0469 Q927.625,449.2969 927.625,449.6406 Q927.625,449.9844 927.2813,450.3906 Q926.7813,450.9688 925.9844,451.2969 Q924.9063,451.75 923.6094,451.75 Q922.0938,451.75 920.8906,451.125 Q919.9063,450.625 919.2188,449.5625 Q918.5313,448.4844 918.5313,447.2031 L918.5313,446.0469 Q918.5313,444.7188 919.1406,443.5781 Q919.7656,442.4219 920.8594,441.8125 Q921.9531,441.1875 923.1875,441.1875 Q923.9219,441.1875 924.5625,441.3594 Q925.2188,441.5156 925.7656,441.875 Z " fill="#000000"/><text fill="#000000" font-family="sans-serif" font-size="14" lengthAdjust="spacing" textLength="153" x="937" y="451.7285">GormGenericRepository</text><rect fill="#FFFFFF" height="17.0938" style="stroke:#000000;stroke-width:1.0;stroke-dasharray:2.0,2.0;" width="59" x="1098" y="427"/><text fill="#000000" font-family="sans-serif" font-size="12" font-style="italic" lengthAdjust="spacing" textLength="57" x="1099" y="440.457">EntityType</text><line style="stroke:#181818;stroke-width:0.5;" x1="909" x2="1153" y1="462" y2="462"/><line style="stroke:#181818;stroke-width:0.5;" x1="909" x2="1153" y1="470" y2="470"/></g><!--MD5=[8f4cc9c7b9b5dcc33f9071a0b0037015]
class LogRepository--><g id="elem_LogRepository"><rect codeLine="6" fill="#F1F1F1" height="48" id="LogRepository" rx="2.5" ry="2.5" style="stroke:#181818;stroke-width:0.5;" width="124" x="1017" y="85"/><ellipse cx="1032" cy="101" fill="#ADD1B2" rx="11" ry="11" style="stroke:#181818;stroke-width:1.0;"/><path d="M1034.7656,96.875 Q1034.9219,96.6563 1035.1094,96.5469 Q1035.2969,96.4375 1035.5156,96.4375 Q1035.8906,96.4375 1036.125,96.7031 Q1036.3594,96.9531 1036.3594,97.5625 L1036.3594,99.0156 Q1036.3594,99.625 1036.125,99.8906 Q1035.8906,100.1563 1035.5156,100.1563 Q1035.1719,100.1563 1034.9688,99.9531 Q1034.7656,99.7656 1034.6563,99.25 Q1034.6094,98.8906 1034.4219,98.7031 Q1034.0938,98.3281 1033.4844,98.1094 Q1032.875,97.8906 1032.25,97.8906 Q1031.4844,97.8906 1030.8438,98.2188 Q1030.2188,98.5469 1029.7188,99.2969 Q1029.2344,100.0469 1029.2344,101.0781 L1029.2344,102.1719 Q1029.2344,103.4063 1030.125,104.2344 Q1031.0156,105.0469 1032.6094,105.0469 Q1033.5469,105.0469 1034.2031,104.7969 Q1034.5938,104.6406 1035.0156,104.2031 Q1035.2813,103.9375 1035.4219,103.8594 Q1035.5781,103.7813 1035.7813,103.7813 Q1036.1094,103.7813 1036.3594,104.0469 Q1036.625,104.2969 1036.625,104.6406 Q1036.625,104.9844 1036.2813,105.3906 Q1035.7813,105.9688 1034.9844,106.2969 Q1033.9063,106.75 1032.6094,106.75 Q1031.0938,106.75 1029.8906,106.125 Q1028.9063,105.625 1028.2188,104.5625 Q1027.5313,103.4844 1027.5313,102.2031 L1027.5313,101.0469 Q1027.5313,99.7188 1028.1406,98.5781 Q1028.7656,97.4219 1029.8594,96.8125 Q1030.9531,96.1875 1032.1875,96.1875 Q1032.9219,96.1875 1033.5625,96.3594 Q1034.2188,96.5156 1034.7656,96.875 Z " fill="#000000"/><text fill="#000000" font-family="sans-serif" font-size="14" lengthAdjust="spacing" textLength="92" x="1046" y="106.7285">LogRepository</text><line style="stroke:#181818;stroke-width:0.5;" x1="1018" x2="1140" y1="117" y2="117"/><line style="stroke:#181818;stroke-width:0.5;" x1="1018" x2="1140" y1="125" y2="125"/></g><g id="elem_LogTypeNote"><path d="M921,290 L921,316.3516 L1043,316.3516 L1043,300 L1033,290 L921,290 " fill="#FEFFDD" style="stroke:#181818;stroke-width:0.5;"/><path d="M1033,290 L1033,300 L1043,300 L1033,290 " fill="#FEFFDD" style="stroke:#181818;stroke-width:1.0;"/><text fill="#000000" font-family="sans-serif" font-size="13" lengthAdjust="spacing" textLength="101" x="927" y="308.4951">EntityType is Log</text></g><!--MD5=[a203eca1f0769929ae1344e0135bff6b]
class BaseDto--><g id="elem_BaseDto"><rect codeLine="3" fill="#F1F1F1" height="108.8281" id="BaseDto" rx="2.5" ry="2.5" style="stroke:#181818;stroke-width:0.5;" width="157" x="1585.5" y="1420.5"/><ellipse cx="1632.75" cy="1436.5" fill="#ADD1B2" rx="11" ry="11" style="stroke:#181818;stroke-width:1.0;"/><path d="M1635.5156,1432.375 Q1635.6719,1432.1563 1635.8594,1432.0469 Q1636.0469,1431.9375 1636.2656,1431.9375 Q1636.6406,1431.9375 1636.875,1432.2031 Q1637.1094,1432.4531 1637.1094,1433.0625 L1637.1094,1434.5156 Q1637.1094,1435.125 1636.875,1435.3906 Q1636.6406,1435.6563 1636.2656,1435.6563 Q1635.9219,1435.6563 1635.7188,1435.4531 Q1635.5156,1435.2656 1635.4063,1434.75 Q1635.3594,1434.3906 1635.1719,1434.2031 Q1634.8438,1433.8281 1634.2344,1433.6094 Q1633.625,1433.3906 1633,1433.3906 Q1632.2344,1433.3906 1631.5938,1433.7188 Q1630.9688,1434.0469 1630.4688,1434.7969 Q1629.9844,1435.5469 1629.9844,1436.5781 L1629.9844,1437.6719 Q1629.9844,1438.9063 1630.875,1439.7344 Q1631.7656,1440.5469 1633.3594,1440.5469 Q1634.2969,1440.5469 1634.9531,1440.2969 Q1635.3438,1440.1406 1635.7656,1439.7031 Q1636.0313,1439.4375 1636.1719,1439.3594 Q1636.3281,1439.2813 1636.5313,1439.2813 Q1636.8594,1439.2813 1637.1094,1439.5469 Q1637.375,1439.7969 1637.375,1440.1406 Q1637.375,1440.4844 1637.0313,1440.8906 Q1636.5313,1441.4688 1635.7344,1441.7969 Q1634.6563,1442.25 1633.3594,1442.25 Q1631.8438,1442.25 1630.6406,1441.625 Q1629.6563,1441.125 1628.9688,1440.0625 Q1628.2813,1438.9844 1628.2813,1437.7031 L1628.2813,1436.5469 Q1628.2813,1435.2188 1628.8906,1434.0781 Q1629.5156,1432.9219 1630.6094,1432.3125 Q1631.7031,1431.6875 1632.9375,1431.6875 Q1633.6719,1431.6875 1634.3125,1431.8594 Q1634.9688,1432.0156 1635.5156,1432.375 Z " fill="#000000"/><text fill="#000000" font-family="sans-serif" font-size="14" lengthAdjust="spacing" textLength="54" x="1653.25" y="1442.2285">BaseDto</text><line style="stroke:#181818;stroke-width:0.5;" x1="1586.5" x2="1741.5" y1="1452.5" y2="1452.5"/><ellipse cx="1596.5" cy="1463.5" fill="none" rx="3" ry="3" style="stroke:#038048;stroke-width:1.0;"/><text fill="#000000" font-family="sans-serif" font-size="14" lengthAdjust="spacing" textLength="79" x="1605.5" y="1471.0332">ID uuid.UUID</text><line style="stroke:#181818;stroke-width:1.0;" x1="1586.5" x2="1741.5" y1="1478.1094" y2="1478.1094"/><ellipse cx="1596.5" cy="1489.1094" fill="none" rx="3" ry="3" style="stroke:#038048;stroke-width:1.0;"/><text fill="#000000" font-family="sans-serif" font-size="14" lengthAdjust="spacing" textLength="129" x="1605.5" y="1496.6426">CreatedAt time.Time</text><line style="stroke:#181818;stroke-width:1.0;" x1="1586.5" x2="1741.5" y1="1503.7188" y2="1503.7188"/><ellipse cx="1596.5" cy="1514.7188" fill="none" rx="3" ry="3" style="stroke:#038048;stroke-width:1.0;"/><text fill="#000000" font-family="sans-serif" font-size="14" lengthAdjust="spacing" textLength="131" x="1605.5" y="1522.252">UpdatedAt time.Time</text></g><!--MD5=[09eba51d36156165b60f5c384613b5fd]
class LogDto--><g id="elem_LogDto"><rect codeLine="5" fill="#F1F1F1" height="134.4375" id="LogDto" rx="2.5" ry="2.5" style="stroke:#181818;stroke-width:0.5;" width="237" x="1545.5" y="1190"/><ellipse cx="1636.75" cy="1206" fill="#ADD1B2" rx="11" ry="11" style="stroke:#181818;stroke-width:1.0;"/><path d="M1639.5156,1201.875 Q1639.6719,1201.6563 1639.8594,1201.5469 Q1640.0469,1201.4375 1640.2656,1201.4375 Q1640.6406,1201.4375 1640.875,1201.7031 Q1641.1094,1201.9531 1641.1094,1202.5625 L1641.1094,1204.0156 Q1641.1094,1204.625 1640.875,1204.8906 Q1640.6406,1205.1563 1640.2656,1205.1563 Q1639.9219,1205.1563 1639.7188,1204.9531 Q1639.5156,1204.7656 1639.4063,1204.25 Q1639.3594,1203.8906 1639.1719,1203.7031 Q1638.8438,1203.3281 1638.2344,1203.1094 Q1637.625,1202.8906 1637,1202.8906 Q1636.2344,1202.8906 1635.5938,1203.2188 Q1634.9688,1203.5469 1634.4688,1204.2969 Q1633.9844,1205.0469 1633.9844,1206.0781 L1633.9844,1207.1719 Q1633.9844,1208.4063 1634.875,1209.2344 Q1635.7656,1210.0469 1637.3594,1210.0469 Q1638.2969,1210.0469 1638.9531,1209.7969 Q1639.3438,1209.6406 1639.7656,1209.2031 Q1640.0313,1208.9375 1640.1719,1208.8594 Q1640.3281,1208.7813 1640.5313,1208.7813 Q1640.8594,1208.7813 1641.1094,1209.0469 Q1641.375,1209.2969 1641.375,1209.6406 Q1641.375,1209.9844 1641.0313,1210.3906 Q1640.5313,1210.9688 1639.7344,1211.2969 Q1638.6563,1211.75 1637.3594,1211.75 Q1635.8438,1211.75 1634.6406,1211.125 Q1633.6563,1210.625 1632.9688,1209.5625 Q1632.2813,1208.4844 1632.2813,1207.2031 L1632.2813,1206.0469 Q1632.2813,1204.7188 1632.8906,1203.5781 Q1633.5156,1202.4219 1634.6094,1201.8125 Q1635.7031,1201.1875 1636.9375,1201.1875 Q1637.6719,1201.1875 1638.3125,1201.3594 Q1638.9688,1201.5156 1639.5156,1201.875 Z " fill="#000000"/><text fill="#000000" font-family="sans-serif" font-size="14" lengthAdjust="spacing" textLength="46" x="1657.25" y="1211.7285">LogDto</text><line style="stroke:#181818;stroke-width:0.5;" x1="1546.5" x2="1781.5" y1="1222" y2="1222"/><ellipse cx="1556.5" cy="1233" fill="none" rx="3" ry="3" style="stroke:#038048;stroke-width:1.0;"/><text fill="#000000" font-family="sans-serif" font-size="14" lengthAdjust="spacing" textLength="211" x="1565.5" y="1240.5332">ActionID uuid.UUID `gorm:"index"`</text><line style="stroke:#181818;stroke-width:1.0;" x1="1546.5" x2="1781.5" y1="1247.6094" y2="1247.6094"/><ellipse cx="1556.5" cy="1258.6094" fill="none" rx="3" ry="3" style="stroke:#038048;stroke-width:1.0;"/><text fill="#000000" font-family="sans-serif" font-size="14" lengthAdjust="spacing" textLength="73" x="1565.5" y="1266.1426">Level string</text><line style="stroke:#181818;stroke-width:1.0;" x1="1546.5" x2="1781.5" y1="1273.2188" y2="1273.2188"/><ellipse cx="1556.5" cy="1284.2188" fill="none" rx="3" ry="3" style="stroke:#038048;stroke-width:1.0;"/><text fill="#000000" font-family="sans-serif" font-size="14" lengthAdjust="spacing" textLength="84" x="1565.5" y="1291.752">Source string</text><line style="stroke:#181818;stroke-width:1.0;" x1="1546.5" x2="1781.5" y1="1298.8281" y2="1298.8281"/><ellipse cx="1556.5" cy="1309.8281" fill="none" rx="3" ry="3" style="stroke:#038048;stroke-width:1.0;"/><text fill="#000000" font-family="sans-serif" font-size="14" lengthAdjust="spacing" textLength="96" x="1565.5" y="1317.3613">Message string</text></g><!--MD5=[56424cb3f8ebacad4e8ce83d86c39ad6]
link GenericService to IGenericService--><g id="link_GenericService_IGenericService"><path codeLine="11" d="M1135.63,1311.67 C1127.86,1331.19 1118.81,1353.92 1109.99,1376.07 " fill="none" id="GenericService-to-IGenericService" style="stroke:#181818;stroke-width:1.0;stroke-dasharray:7.0,7.0;"/><polygon fill="none" points="1116.4,1378.89,1102.5,1394.88,1103.4,1373.71,1116.4,1378.89" style="stroke:#181818;stroke-width:1.0;"/></g><!--MD5=[a6c7a0eda5b041e127f539f1664bb96a]
link Entity to IEntityModel--><g id="link_Entity_IEntityModel"><path codeLine="14" d="M332.39,370.05 C280.89,406.51 220.84,455.44 178,510 C145.42,551.5 121.65,607.17 107.27,647.24 " fill="none" id="Entity-to-IEntityModel" style="stroke:#181818;stroke-width:1.0;stroke-dasharray:7.0,7.0;"/><polygon fill="none" points="113.83,649.7,100.7,666.34,100.59,645.15,113.83,649.7" style="stroke:#181818;stroke-width:1.0;"/></g><!--MD5=[7ee9f8375b9805f735e207131896076f]
link Log to Entity--><g id="link_Log_Entity"><path codeLine="14" d="M444.21,176.08 C443.36,191.01 442.44,207.02 441.56,222.44 " fill="none" id="Log-to-Entity" style="stroke:#181818;stroke-width:1.0;"/><polygon fill="#181818" points="440.79,235.8,445.1261,230.0382,441.4753,223.8196,437.1392,229.5813,440.79,235.8" style="stroke:#181818;stroke-width:1.0;"/></g><!--MD5=[1b84833638557571905b03f54e842c8c]
link GormGenericRepository to IGenericRepository--><g id="link_GormGenericRepository_IGenericRepository"><path codeLine="7" d="M1031,478.35 C1031,498.31 1031,528.81 1031,560.81 " fill="none" id="GormGenericRepository-to-IGenericRepository" style="stroke:#181818;stroke-width:1.0;stroke-dasharray:7.0,7.0;"/><polygon fill="none" points="1038,560.84,1031,580.84,1024,560.84,1038,560.84" style="stroke:#181818;stroke-width:1.0;"/></g><!--MD5=[ed01c4b1a8d821a1dbde2673473bf9b3]
link LogRepository to GormGenericRepository--><g id="link_LogRepository_GormGenericRepository"><path codeLine="8" d="M1080.66,133.34 C1083.49,182.55 1086.66,300.12 1061,394 C1058.77,402.15 1055.35,410.48 1051.61,418.22 " fill="none" id="LogRepository-to-GormGenericRepository" style="stroke:#181818;stroke-width:1.0;"/><polygon fill="#181818" points="1045.58,429.78,1051.9016,426.3105,1051.1303,419.1407,1044.8088,422.6103,1045.58,429.78" style="stroke:#181818;stroke-width:1.0;"/></g><!--MD5=[2680ff3055d62c142b1e8960e0bcb605]
link LogRepository to LogTypeNote--><g id="link_LogRepository_LogTypeNote"><path codeLine="12" d="M1067.3,133.16 C1046.54,174.25 1003.96,258.54 988.11,289.9 " fill="none" id="LogRepository-LogTypeNote" style="stroke:#181818;stroke-width:1.0;stroke-dasharray:7.0,7.0;"/></g><!--MD5=[266e0e8d93667542f4664d160686c449]
link LogTypeNote to GormGenericRepository--><g id="link_LogTypeNote_GormGenericRepository"><path codeLine="13" d="M986.01,316.19 C993.76,339.75 1010.96,392.05 1021.7,424.73 " fill="none" id="LogTypeNote-to-GormGenericRepository" style="stroke:#181818;stroke-width:1.0;stroke-dasharray:7.0,7.0;"/><polygon fill="#181818" points="1023.37,429.8,1024.3364,419.9987,1021.7974,425.0537,1016.7424,422.5148,1023.37,429.8" style="stroke:#181818;stroke-width:1.0;"/></g><!--MD5=[a521aad7a4a356c7d00008639251d028]
link Log to LogTypeNote--><g id="link_Log_LogTypeNote"><path codeLine="14" d="M566.51,152.61 C689.27,196.75 873.42,262.96 948.42,289.92 " fill="none" id="Log-LogTypeNote" style="stroke:#181818;stroke-width:1.0;stroke-dasharray:7.0,7.0;"/></g><!--MD5=[99c3d6a0707ae2e21e56012feecd5420]
link LogDto to BaseDto--><g id="link_LogDto_BaseDto"><path codeLine="14" d="M1664,1324.28 C1664,1350.46 1664,1380.52 1664,1406.8 " fill="none" id="LogDto-to-BaseDto" style="stroke:#181818;stroke-width:1.0;"/><polygon fill="#181818" points="1664,1420.16,1668,1414.16,1664,1408.16,1660,1414.16,1664,1420.16" style="stroke:#181818;stroke-width:1.0;"/></g><!--MD5=[2cf5d3f3b6ad37a9ab1e735663d9c52e]
link IGenericRepository to LogService--><!--MD5=[a2f59372f56ea5a978dd4b72f4f881df]
link LogRepository to LogService--><g id="link_LogRepository_LogService"><path codeLine="15" d="M1121.12,133.08 C1212.18,185.7 1425.61,324.53 1506,510 C1590.18,704.21 1546.67,954.5 1335,954.5 " fill="none" id="LogRepository-LogService" style="stroke:#181818;stroke-width:1.0;"/></g><!--MD5=[36748fca8402e6e2a308bd424f492506]
link LogService to GenericService--><g id="link_LogService_GenericService"><path codeLine="16" d="M1203.49,978.19 C1193.26,995.53 1182.21,1017.1 1176,1038 C1161.34,1087.34 1156.88,1145.52 1155.92,1189.35 " fill="none" id="LogService-to-GenericService" style="stroke:#181818;stroke-width:1.0;"/><polygon fill="#181818" points="1155.73,1202.47,1159.8153,1196.5277,1155.9014,1190.4712,1151.8161,1196.4135,1155.73,1202.47" style="stroke:#181818;stroke-width:1.0;"/></g><!--MD5=[7a2e0ee865758cbea6424c539a13f730]
link LogService to LogServiceTypes--><g id="link_LogService_LogServiceTypes"><path codeLine="30" d="M1245.1,978.32 C1254.26,996.45 1265.48,1018.64 1275.22,1037.92 " fill="none" id="LogService-LogServiceTypes" style="stroke:#181818;stroke-width:1.0;stroke-dasharray:7.0,7.0;"/></g><!--MD5=[deaa3cf027e91ee54102b48c37a2f231]
link LogServiceTypes to GenericService--><g id="link_LogServiceTypes_GenericService"><path codeLine="31" d="M1260.58,1130.38 C1243.46,1151.15 1222.96,1176.01 1204.74,1198.11 " fill="none" id="LogServiceTypes-to-GenericService" style="stroke:#181818;stroke-width:1.0;stroke-dasharray:7.0,7.0;"/><polygon fill="#181818" points="1201.36,1202.2,1210.1754,1197.808,1204.544,1198.3449,1204.0072,1192.7136,1201.36,1202.2" style="stroke:#181818;stroke-width:1.0;"/></g><!--MD5=[21705672f3a4a551bc81d2028513cc81]
link LogServiceTypes to LogDto--><g id="link_LogServiceTypes_LogDto"><path codeLine="33" d="M1402.54,1108.82 C1436.1,1118.29 1472.89,1130.65 1505,1146 C1530.29,1158.09 1555.99,1173.99 1579.16,1189.94 " fill="none" id="LogServiceTypes-LogDto" style="stroke:#181818;stroke-width:1.0;stroke-dasharray:7.0,7.0;"/></g><!--MD5=[472a3527c13c5134b38b9022b8ed6cfe]
@startuml

!include GenericService.puml
!include ../repositories/LogRepository.puml
!include ../dto/Log/LogDto.puml
!include ../entities/Log.puml

package app {
    class LogService {
        -repository IGenericRepository
        - -
    }

    LogService .[hidden]up. IGenericRepository

    LogRepository -right- LogService::repository
    GenericService *-up- LogService

    note left of LogService
        Advanced business logic for Log entity
    end note

    note as LogServiceTypes
        EntityType is Log
        CreateDtoType is LogDto
        UpdateDtoType is LogDto
        DtoType is LogDto
        Because the service is read-only
    end note

    LogService .down. LogServiceTypes
    GenericService <.up. LogServiceTypes

    LogServiceTypes .. LogDto
}

@enduml

@startuml


package app {
    interface IGenericService<EntityType, CreateDtoType, UpdateDtoType, DtoType> {
        +GetList(ctx context.Context, search, orderBy, orderDirection string, page, pageSize int) (dtos.PaginatedItemsDto[DtoType], error)
        - -
        +GetById(ctx context.Context, id uuid.UUID) (DtoType, error)
        - -
        +Update(ctx context.Context, updateDto UpdateDtoType, id uuid.UUID) (DtoType, error)
        - -
        +Create(ctx context.Context, createDto CreateDtoType) (DtoType, error)
        - -
        +Delete(ctx context.Context, id uuid.UUID) error
    }
    note left of IGenericService::GetList
        Get list of elements with search and pagination
    end note

    note left of IGenericService::GetById
        Get entity by ID from service
    end note

    note left of IGenericService::Update
        Save the changes to the existing entity in the service
    end note

    note left of IGenericService::Create
        Add entity to the service
    end note

    note left of IGenericService::Delete
        Mark an entity as deleted
    end note
}


package app {
    class GenericService<EntityType, CreateDtoType, UpdateDtoType, DtoType> {
        -repository IGenericRepository<EntityType>
        - -
        -logger *logrus.Logger
        - -
        -logSourceName string
    }
    GenericService .down.|> IGenericService
}





package app {
    interface IEntityModel {
        +GetID() uuid.UUID
    }
}


package domain {
    class Entity {
        +ID uuid.UUID `gorm:"primarykey"`
        - -
        +CreatedAt time.Time `gorm:"index"`
        - -
        +UpdatedAt time.Time `gorm:"index"`
        - -
        +DeletedAt gorm.DeletedAt `gorm:"index"`
    }
    Entity .down.|> IEntityModel
}


package domain {
    class Log {
        +ActionID uuid.UUID `gorm:"index"`
        - -
        +Level string
        - -
        +Source string
        - -
        +Message string
    }
    Log -down-* Entity
}



package app {
    interface IGenericRepository<EntityType> {
        +GetList(ctx context.Context, orderBy string, orderDirection string, page int, size int, queryBuilder interfaces.IQueryBuilder) ([]EntityType, error)
        - -
        +Count(ctx context.Context, queryBuilder interfaces.IQueryBuilder) (int64, error)
        - -
        +NewQueryBuilder(ctx context.Context) interfaces.IQueryBuilder
        - -
        +GetById(ctx context.Context, id uuid.UUID) (EntityType, error)
        - -
        +Update(ctx context.Context, entity EntityType) (EntityType, error)
        - -
        +Insert(ctx context.Context, entity EntityType) (EntityType, error)
        - -
        +Delete(ctx context.Context, id uuid.UUID) error
        - -
        +CloseDb() error
    }
    note left of IGenericRepository::GetList
      Get list of elements with filtering and pagination
    end note

    note left of IGenericRepository::Count
      Get count of entities with filtering
    end note

    note left of IGenericRepository::NewQueryBuilder
      Get new instance of the query builder
    end note

    note left of IGenericRepository::GetById
      Get entity by ID from repository
    end note

    note left of IGenericRepository::Update
      Save the changes to the existing entity in the repository
    end note

    note left of IGenericRepository::Insert
      Add entity to the repository
    end note

    note left of IGenericRepository::Delete
      Delete entity from the database
    end note

    note left of IGenericRepository::CloseDb
      Closes current database connection
    end note
}


package infrastructure {
    class GormGenericRepository<EntityType>

    GormGenericRepository .down.|> IGenericRepository
}


package infrastructure {
    class LogRepository

    LogRepository -down-* GormGenericRepository

    note "EntityType is Log" as LogTypeNote

    LogRepository .down. LogTypeNote
    GormGenericRepository <.up. LogTypeNote
    Log .. LogTypeNote
}


package dtos {
    class BaseDto {
        +ID uuid.UUID
        - -
        +CreatedAt time.Time
        - -
        +UpdatedAt time.Time
    }
}


package dtos {
    class LogDto {
        +ActionID uuid.UUID `gorm:"index"`
        - -
        +Level string
        - -
        +Source string
        - -
        +Message string
    }
    LogDto - -* BaseDto
}


package app {
    class LogService {
        -repository IGenericRepository
        - -
    }

    LogService .[hidden]up. IGenericRepository

    LogRepository -right- LogService::repository
    GenericService *-up- LogService

    note left of LogService
        Advanced business logic for Log entity
    end note

    note as LogServiceTypes
        EntityType is Log
        CreateDtoType is LogDto
        UpdateDtoType is LogDto
        DtoType is LogDto
        Because the service is read-only
    end note

    LogService .down. LogServiceTypes
    GenericService <.up. LogServiceTypes

    LogServiceTypes .. LogDto
}

@enduml

PlantUML version 1.2022.6(Tue Jun 21 20:34:49 MSK 2022)
(GPL source distribution)
Java Runtime: OpenJDK Runtime Environment
JVM: OpenJDK 64-Bit Server VM
Default Encoding: Cp1251
Language: ru
Country: RU
--></g></svg>