<?xml version="1.0" encoding="UTF-8" standalone="no"?><svg xmlns="http://www.w3.org/2000/svg" xmlns:xlink="http://www.w3.org/1999/xlink" contentStyleType="text/css" height="1044px" preserveAspectRatio="none" style="width:1853px;height:1044px;background:#FFFFFF;" version="1.1" viewBox="0 0 1853 1044" width="1853px" zoomAndPan="magnify"><defs/><g><!--MD5=[d5ac3844f66b12d9e08170e47495e096]
cluster app--><g id="cluster_app"><path d="M104.14,518 L131.14,518 A3.75,3.75 0 0 1 133.64,520.5 L140.64,541.6094 L1598.14,541.6094 A2.5,2.5 0 0 1 1600.64,544.1094 L1600.64,1034.5 A2.5,2.5 0 0 1 1598.14,1037 L104.14,1037 A2.5,2.5 0 0 1 101.64,1034.5 L101.64,520.5 A2.5,2.5 0 0 1 104.14,518 " style="stroke:#000000;stroke-width:1.5;fill:none;"/><line style="stroke:#000000;stroke-width:1.5;fill:none;" x1="101.64" x2="140.64" y1="541.6094" y2="541.6094"/><text fill="#000000" font-family="sans-serif" font-size="14" font-weight="bold" lengthAdjust="spacing" textLength="26" x="105.64" y="534.5332">app</text></g><!--MD5=[27f772719433d509ddbc20ff768eba08]
cluster domain--><g id="cluster_domain"><path d="M1239.14,6 L1291.14,6 A3.75,3.75 0 0 1 1293.64,8.5 L1300.64,29.6094 L1550.14,29.6094 A2.5,2.5 0 0 1 1552.64,32.1094 L1552.64,383.5 A2.5,2.5 0 0 1 1550.14,386 L1239.14,386 A2.5,2.5 0 0 1 1236.64,383.5 L1236.64,8.5 A2.5,2.5 0 0 1 1239.14,6 " style="stroke:#000000;stroke-width:1.5;fill:none;"/><line style="stroke:#000000;stroke-width:1.5;fill:none;" x1="1236.64" x2="1300.64" y1="29.6094" y2="29.6094"/><text fill="#000000" font-family="sans-serif" font-size="14" font-weight="bold" lengthAdjust="spacing" textLength="51" x="1240.64" y="22.5332">domain</text></g><!--MD5=[77349be1bd27b81b697a0f9b3aded3c8]
cluster infrastructure--><g id="cluster_infrastructure"><path d="M817.14,49 L915.14,49 A3.75,3.75 0 0 1 917.64,51.5 L924.64,72.6094 L1090.14,72.6094 A2.5,2.5 0 0 1 1092.64,75.1094 L1092.64,491.5 A2.5,2.5 0 0 1 1090.14,494 L817.14,494 A2.5,2.5 0 0 1 814.64,491.5 L814.64,51.5 A2.5,2.5 0 0 1 817.14,49 " style="stroke:#000000;stroke-width:1.5;fill:none;"/><line style="stroke:#000000;stroke-width:1.5;fill:none;" x1="814.64" x2="924.64" y1="72.6094" y2="72.6094"/><text fill="#000000" font-family="sans-serif" font-size="14" font-weight="bold" lengthAdjust="spacing" textLength="97" x="818.64" y="65.5332">infrastructure</text></g><!--MD5=[ac65c812e7532cbcd7b9effd958b962e]
cluster dtos--><g id="cluster_dtos"><path d="M1579.14,6 L1611.14,6 A3.75,3.75 0 0 1 1613.64,8.5 L1620.64,29.6094 L1844.14,29.6094 A2.5,2.5 0 0 1 1846.64,32.1094 L1846.64,371 A2.5,2.5 0 0 1 1844.14,373.5 L1579.14,373.5 A2.5,2.5 0 0 1 1576.64,371 L1576.64,8.5 A2.5,2.5 0 0 1 1579.14,6 " style="stroke:#000000;stroke-width:1.5;fill:none;"/><line style="stroke:#000000;stroke-width:1.5;fill:none;" x1="1576.64" x2="1620.64" y1="29.6094" y2="29.6094"/><text fill="#000000" font-family="sans-serif" font-size="14" font-weight="bold" lengthAdjust="spacing" textLength="31" x="1580.64" y="22.5332">dtos</text></g><!--MD5=[2a39a5be1cc24ddddd6e6286e4ece992]
class IEntityModel--><g id="elem_IEntityModel"><rect codeLine="3" fill="#F1F1F1" height="65.6094" id="IEntityModel" rx="2.5" ry="2.5" style="stroke:#181818;stroke-width:0.5;" width="138" x="1446.64" y="666.5"/><ellipse cx="1474.24" cy="682.5" fill="#B4A7E5" rx="11" ry="11" style="stroke:#181818;stroke-width:1.0;"/><path d="M1475.1931,679.1406 L1475.1931,685.7969 L1476.9119,685.7969 Q1477.5213,685.7969 1477.7869,686.0313 Q1478.0525,686.2656 1478.0525,686.6563 Q1478.0525,687.0313 1477.7869,687.2656 Q1477.5213,687.5 1476.9119,687.5 L1471.7713,687.5 Q1471.1619,687.5 1470.8963,687.2656 Q1470.6306,687.0313 1470.6306,686.6406 Q1470.6306,686.2656 1470.8963,686.0313 Q1471.1619,685.7969 1471.7713,685.7969 L1473.49,685.7969 L1473.49,679.1406 L1471.7713,679.1406 Q1471.1619,679.1406 1470.8963,678.9063 Q1470.6306,678.6719 1470.6306,678.2813 Q1470.6306,677.9063 1470.8963,677.6719 Q1471.1619,677.4375 1471.7713,677.4375 L1476.9119,677.4375 Q1477.5213,677.4375 1477.7869,677.6719 Q1478.0525,677.9063 1478.0525,678.2813 Q1478.0525,678.6719 1477.7869,678.9063 Q1477.5213,679.1406 1476.9119,679.1406 L1475.1931,679.1406 Z " fill="#000000"/><text fill="#000000" font-family="sans-serif" font-size="14" font-style="italic" lengthAdjust="spacing" textLength="78" x="1491.04" y="688.2285">IEntityModel</text><line style="stroke:#181818;stroke-width:0.5;" x1="1447.64" x2="1583.64" y1="698.5" y2="698.5"/><line style="stroke:#181818;stroke-width:0.5;" x1="1447.64" x2="1583.64" y1="706.5" y2="706.5"/><ellipse cx="1457.64" cy="717.5" fill="#84BE84" rx="3" ry="3" style="stroke:#038048;stroke-width:1.0;"/><text fill="#000000" font-family="sans-serif" font-size="14" lengthAdjust="spacing" textLength="112" x="1466.64" y="725.0332">GetID() uuid.UUID</text></g><!--MD5=[b3e0f8dcddb1b27f071a0303a68762bf]
class IGenericRepository--><g id="elem_IGenericRepository"><rect codeLine="3" fill="#F1F1F1" height="236.875" id="IGenericRepository" rx="2.5" ry="2.5" style="stroke:#181818;stroke-width:0.5;" width="915" x="496.14" y="581"/><ellipse cx="857.89" cy="597" fill="#B4A7E5" rx="11" ry="11" style="stroke:#181818;stroke-width:1.0;"/><path d="M858.8431,593.6406 L858.8431,600.2969 L860.5619,600.2969 Q861.1713,600.2969 861.4369,600.5313 Q861.7025,600.7656 861.7025,601.1563 Q861.7025,601.5313 861.4369,601.7656 Q861.1713,602 860.5619,602 L855.4213,602 Q854.8119,602 854.5463,601.7656 Q854.2806,601.5313 854.2806,601.1406 Q854.2806,600.7656 854.5463,600.5313 Q854.8119,600.2969 855.4213,600.2969 L857.14,600.2969 L857.14,593.6406 L855.4213,593.6406 Q854.8119,593.6406 854.5463,593.4063 Q854.2806,593.1719 854.2806,592.7813 Q854.2806,592.4063 854.5463,592.1719 Q854.8119,591.9375 855.4213,591.9375 L860.5619,591.9375 Q861.1713,591.9375 861.4369,592.1719 Q861.7025,592.4063 861.7025,592.7813 Q861.7025,593.1719 861.4369,593.4063 Q861.1713,593.6406 860.5619,593.6406 L858.8431,593.6406 Z " fill="#000000"/><text fill="#000000" font-family="sans-serif" font-size="14" font-style="italic" lengthAdjust="spacing" textLength="122" x="878.39" y="602.7285">IGenericRepository</text><rect fill="#FFFFFF" height="17.0938" style="stroke:#000000;stroke-width:1.0;stroke-dasharray:2.0,2.0;" width="59" x="1355.14" y="578"/><text fill="#000000" font-family="sans-serif" font-size="12" font-style="italic" lengthAdjust="spacing" textLength="57" x="1356.14" y="591.457">EntityType</text><line style="stroke:#181818;stroke-width:0.5;" x1="497.14" x2="1410.14" y1="613" y2="613"/><ellipse cx="507.14" cy="624" fill="#84BE84" rx="3" ry="3" style="stroke:#038048;stroke-width:1.0;"/><text fill="#000000" font-family="sans-serif" font-size="14" lengthAdjust="spacing" textLength="889" x="516.14" y="631.5332">GetList(ctx context.Context, orderBy string, orderDirection string, page int, size int, queryBuilder interfaces.IQueryBuilder) ([]EntityType, error)</text><line style="stroke:#181818;stroke-width:1.0;" x1="497.14" x2="1410.14" y1="638.6094" y2="638.6094"/><ellipse cx="507.14" cy="649.6094" fill="#84BE84" rx="3" ry="3" style="stroke:#038048;stroke-width:1.0;"/><text fill="#000000" font-family="sans-serif" font-size="14" lengthAdjust="spacing" textLength="494" x="516.14" y="657.1426">Count(ctx context.Context, queryBuilder interfaces.IQueryBuilder) (int64, error)</text><line style="stroke:#181818;stroke-width:1.0;" x1="497.14" x2="1410.14" y1="664.2188" y2="664.2188"/><ellipse cx="507.14" cy="675.2188" fill="#84BE84" rx="3" ry="3" style="stroke:#038048;stroke-width:1.0;"/><text fill="#000000" font-family="sans-serif" font-size="14" lengthAdjust="spacing" textLength="393" x="516.14" y="682.752">NewQueryBuilder(ctx context.Context) interfaces.IQueryBuilder</text><line style="stroke:#181818;stroke-width:1.0;" x1="497.14" x2="1410.14" y1="689.8281" y2="689.8281"/><ellipse cx="507.14" cy="700.8281" fill="#84BE84" rx="3" ry="3" style="stroke:#038048;stroke-width:1.0;"/><text fill="#000000" font-family="sans-serif" font-size="14" lengthAdjust="spacing" textLength="383" x="516.14" y="708.3613">GetById(ctx context.Context, id uuid.UUID) (EntityType, error)</text><line style="stroke:#181818;stroke-width:1.0;" x1="497.14" x2="1410.14" y1="715.4375" y2="715.4375"/><ellipse cx="507.14" cy="726.4375" fill="#84BE84" rx="3" ry="3" style="stroke:#038048;stroke-width:1.0;"/><text fill="#000000" font-family="sans-serif" font-size="14" lengthAdjust="spacing" textLength="406" x="516.14" y="733.9707">Update(ctx context.Context, entity EntityType) (EntityType, error)</text><line style="stroke:#181818;stroke-width:1.0;" x1="497.14" x2="1410.14" y1="741.0469" y2="741.0469"/><ellipse cx="507.14" cy="752.0469" fill="#84BE84" rx="3" ry="3" style="stroke:#038048;stroke-width:1.0;"/><text fill="#000000" font-family="sans-serif" font-size="14" lengthAdjust="spacing" textLength="396" x="516.14" y="759.5801">Insert(ctx context.Context, entity EntityType) (EntityType, error)</text><line style="stroke:#181818;stroke-width:1.0;" x1="497.14" x2="1410.14" y1="766.6563" y2="766.6563"/><ellipse cx="507.14" cy="777.6563" fill="#84BE84" rx="3" ry="3" style="stroke:#038048;stroke-width:1.0;"/><text fill="#000000" font-family="sans-serif" font-size="14" lengthAdjust="spacing" textLength="289" x="516.14" y="785.1895">Delete(ctx context.Context, id uuid.UUID) error</text><line style="stroke:#181818;stroke-width:1.0;" x1="497.14" x2="1410.14" y1="792.2656" y2="792.2656"/><ellipse cx="507.14" cy="803.2656" fill="#84BE84" rx="3" ry="3" style="stroke:#038048;stroke-width:1.0;"/><text fill="#000000" font-family="sans-serif" font-size="14" lengthAdjust="spacing" textLength="99" x="516.14" y="810.7988">CloseDb() error</text></g><path d="M118.14,554 L118.14,580.3516 A0,0 0 0 0 118.14,580.3516 L412.14,580.3516 A0,0 0 0 0 412.14,580.3516 L412.14,572 L500.14,625.8047 L412.14,564 L412.14,564 L402.14,554 L118.14,554 A0,0 0 0 0 118.14,554 " fill="#FEFFDD" style="stroke:#181818;stroke-width:0.5;"/><path d="M402.14,554 L402.14,564 L412.14,564 L402.14,554 " fill="#FEFFDD" style="stroke:#181818;stroke-width:0.5;"/><text fill="#000000" font-family="sans-serif" font-size="13" lengthAdjust="spacing" textLength="273" x="124.14" y="572.4951">Get list of elements with filtering and pagination</text><path d="M118.14,590.3516 L118.14,616.7031 A0,0 0 0 0 118.14,616.7031 L328.14,616.7031 A0,0 0 0 0 328.14,616.7031 L328.14,608.3516 L500.14,651.4141 L328.14,600.3516 L328.14,600.3516 L318.14,590.3516 L118.14,590.3516 A0,0 0 0 0 118.14,590.3516 " fill="#FEFFDD" style="stroke:#181818;stroke-width:0.5;"/><path d="M318.14,590.3516 L318.14,600.3516 L328.14,600.3516 L318.14,590.3516 " fill="#FEFFDD" style="stroke:#181818;stroke-width:0.5;"/><text fill="#000000" font-family="sans-serif" font-size="13" lengthAdjust="spacing" textLength="189" x="124.14" y="608.8467">Get count of entities with filtering</text><path d="M118.14,626.7031 L118.14,653.0547 A0,0 0 0 0 118.14,653.0547 L354.14,653.0547 A0,0 0 0 0 354.14,653.0547 L354.14,644.7031 L500.14,677.0234 L354.14,636.7031 L354.14,636.7031 L344.14,626.7031 L118.14,626.7031 A0,0 0 0 0 118.14,626.7031 " fill="#FEFFDD" style="stroke:#181818;stroke-width:0.5;"/><path d="M344.14,626.7031 L344.14,636.7031 L354.14,636.7031 L344.14,626.7031 " fill="#FEFFDD" style="stroke:#181818;stroke-width:0.5;"/><text fill="#000000" font-family="sans-serif" font-size="13" lengthAdjust="spacing" textLength="215" x="124.14" y="645.1982">Get new instance of the query builder</text><path d="M118.14,663.0547 L118.14,689.4063 A0,0 0 0 0 118.14,689.4063 L320.14,689.4063 A0,0 0 0 0 320.14,689.4063 L320.14,681.0547 L500.14,702.6328 L320.14,673.0547 L320.14,673.0547 L310.14,663.0547 L118.14,663.0547 A0,0 0 0 0 118.14,663.0547 " fill="#FEFFDD" style="stroke:#181818;stroke-width:0.5;"/><path d="M310.14,663.0547 L310.14,673.0547 L320.14,673.0547 L310.14,663.0547 " fill="#FEFFDD" style="stroke:#181818;stroke-width:0.5;"/><text fill="#000000" font-family="sans-serif" font-size="13" lengthAdjust="spacing" textLength="181" x="124.14" y="681.5498">Get entity by ID from repository</text><path d="M118.14,699.4063 L118.14,725.7578 A0,0 0 0 0 118.14,725.7578 L461.14,725.7578 A0,0 0 0 0 461.14,725.7578 L461.14,717.4063 L500.14,728.2422 L461.14,709.4063 L461.14,709.4063 L451.14,699.4063 L118.14,699.4063 A0,0 0 0 0 118.14,699.4063 " fill="#FEFFDD" style="stroke:#181818;stroke-width:0.5;"/><path d="M451.14,699.4063 L451.14,709.4063 L461.14,709.4063 L451.14,699.4063 " fill="#FEFFDD" style="stroke:#181818;stroke-width:0.5;"/><text fill="#000000" font-family="sans-serif" font-size="13" lengthAdjust="spacing" textLength="322" x="124.14" y="717.9014">Save the changes to the existing entity in the repository</text><path d="M118.14,735.7578 L118.14,762.1094 A0,0 0 0 0 118.14,762.1094 L296.14,762.1094 A0,0 0 0 0 296.14,762.1094 L296.14,753.7578 L500.14,753.8516 L296.14,745.7578 L296.14,745.7578 L286.14,735.7578 L118.14,735.7578 A0,0 0 0 0 118.14,735.7578 " fill="#FEFFDD" style="stroke:#181818;stroke-width:0.5;"/><path d="M286.14,735.7578 L286.14,745.7578 L296.14,745.7578 L286.14,735.7578 " fill="#FEFFDD" style="stroke:#181818;stroke-width:0.5;"/><text fill="#000000" font-family="sans-serif" font-size="13" lengthAdjust="spacing" textLength="157" x="124.14" y="754.2529">Add entity to the repository</text><path d="M118.14,772.1094 L118.14,798.4609 A0,0 0 0 0 118.14,798.4609 L320.14,798.4609 A0,0 0 0 0 320.14,798.4609 L320.14,790.1094 L500.14,779.4609 L320.14,782.1094 L320.14,782.1094 L310.14,772.1094 L118.14,772.1094 A0,0 0 0 0 118.14,772.1094 " fill="#FEFFDD" style="stroke:#181818;stroke-width:0.5;"/><path d="M310.14,772.1094 L310.14,782.1094 L320.14,782.1094 L310.14,772.1094 " fill="#FEFFDD" style="stroke:#181818;stroke-width:0.5;"/><text fill="#000000" font-family="sans-serif" font-size="13" lengthAdjust="spacing" textLength="181" x="124.14" y="790.6045">Delete entity from the database</text><path d="M118.14,808.4609 L118.14,834.8125 A0,0 0 0 0 118.14,834.8125 L347.14,834.8125 A0,0 0 0 0 347.14,834.8125 L347.14,826.4609 L500.14,805.0703 L347.14,818.4609 L347.14,818.4609 L337.14,808.4609 L118.14,808.4609 A0,0 0 0 0 118.14,808.4609 " fill="#FEFFDD" style="stroke:#181818;stroke-width:0.5;"/><path d="M337.14,808.4609 L337.14,818.4609 L347.14,818.4609 L337.14,808.4609 " fill="#FEFFDD" style="stroke:#181818;stroke-width:0.5;"/><text fill="#000000" font-family="sans-serif" font-size="13" lengthAdjust="spacing" textLength="208" x="124.14" y="826.9561">Closes current database connection</text><!--MD5=[1a84540a21143f0caa8ee836a5a25a4f]
class LogService--><g id="elem_LogService"><rect codeLine="6" fill="#F1F1F1" height="108.8281" id="LogService" rx="2.5" ry="2.5" style="stroke:#181818;stroke-width:0.5;" width="980" x="433.64" y="909"/><ellipse cx="883.89" cy="925" fill="#ADD1B2" rx="11" ry="11" style="stroke:#181818;stroke-width:1.0;"/><path d="M886.6556,920.875 Q886.8119,920.6563 886.9994,920.5469 Q887.1869,920.4375 887.4056,920.4375 Q887.7806,920.4375 888.015,920.7031 Q888.2494,920.9531 888.2494,921.5625 L888.2494,923.0156 Q888.2494,923.625 888.015,923.8906 Q887.7806,924.1563 887.4056,924.1563 Q887.0619,924.1563 886.8588,923.9531 Q886.6556,923.7656 886.5463,923.25 Q886.4994,922.8906 886.3119,922.7031 Q885.9838,922.3281 885.3744,922.1094 Q884.765,921.8906 884.14,921.8906 Q883.3744,921.8906 882.7338,922.2188 Q882.1088,922.5469 881.6088,923.2969 Q881.1244,924.0469 881.1244,925.0781 L881.1244,926.1719 Q881.1244,927.4063 882.015,928.2344 Q882.9056,929.0469 884.4994,929.0469 Q885.4369,929.0469 886.0931,928.7969 Q886.4838,928.6406 886.9056,928.2031 Q887.1713,927.9375 887.3119,927.8594 Q887.4681,927.7813 887.6713,927.7813 Q887.9994,927.7813 888.2494,928.0469 Q888.515,928.2969 888.515,928.6406 Q888.515,928.9844 888.1713,929.3906 Q887.6713,929.9688 886.8744,930.2969 Q885.7963,930.75 884.4994,930.75 Q882.9838,930.75 881.7806,930.125 Q880.7963,929.625 880.1088,928.5625 Q879.4213,927.4844 879.4213,926.2031 L879.4213,925.0469 Q879.4213,923.7188 880.0306,922.5781 Q880.6556,921.4219 881.7494,920.8125 Q882.8431,920.1875 884.0775,920.1875 Q884.8119,920.1875 885.4525,920.3594 Q886.1088,920.5156 886.6556,920.875 Z " fill="#000000"/><text fill="#000000" font-family="sans-serif" font-size="14" lengthAdjust="spacing" textLength="71" x="904.39" y="930.7285">LogService</text><line style="stroke:#181818;stroke-width:0.5;" x1="434.64" x2="1412.64" y1="941" y2="941"/><rect fill="none" height="6" style="stroke:#C82930;stroke-width:1.0;" width="6" x="441.64" y="949"/><text fill="#000000" font-family="sans-serif" font-size="14" lengthAdjust="spacing" textLength="188" x="453.64" y="959.5332">repository IGenericRepository</text><line style="stroke:#181818;stroke-width:1.0;" x1="434.64" x2="1412.64" y1="966.6094" y2="966.6094"/><ellipse cx="444.64" cy="977.6094" fill="#84BE84" rx="3" ry="3" style="stroke:#038048;stroke-width:1.0;"/><text fill="#000000" font-family="sans-serif" font-size="14" lengthAdjust="spacing" textLength="954" x="453.64" y="985.1426">GetList(ctx context.Context, search string, orderBy string, orderDirection string, page int, pageSize int) (dtos.PaginatedItemsDto[dtos.AppLogDto], error)</text><line style="stroke:#181818;stroke-width:1.0;" x1="434.64" x2="1412.64" y1="992.2188" y2="992.2188"/><ellipse cx="444.64" cy="1003.2188" fill="#84BE84" rx="3" ry="3" style="stroke:#038048;stroke-width:1.0;"/><text fill="#000000" font-family="sans-serif" font-size="14" lengthAdjust="spacing" textLength="420" x="453.64" y="1010.752">GetByID(ctx context.Context, id uuid.UUID) (dtos.AppLogDto, error)</text></g><g id="elem_GMN761"><path d="M147.14,950 L147.14,976.3516 A0,0 0 0 0 147.14,976.3516 L390.14,976.3516 A0,0 0 0 0 390.14,976.3516 L390.14,968 L425.6,963 L390.14,960 L390.14,960 L380.14,950 L147.14,950 A0,0 0 0 0 147.14,950 " fill="#FEFFDD" style="stroke:#181818;stroke-width:0.5;"/><path d="M380.14,950 L380.14,960 L390.14,960 L380.14,950 " fill="#FEFFDD" style="stroke:#181818;stroke-width:0.5;"/><text fill="#000000" font-family="sans-serif" font-size="13" lengthAdjust="spacing" textLength="222" x="153.14" y="968.4951">Advanced business logic for Log entity</text></g><!--MD5=[be996cdb8e6bf2fc7cb89c555f2cd144]
class Entity--><g id="elem_Entity"><rect codeLine="5" fill="#F1F1F1" height="134.4375" id="Entity" rx="2.5" ry="2.5" style="stroke:#181818;stroke-width:0.5;" width="283" x="1253.14" y="236"/><ellipse cx="1372.89" cy="252" fill="#ADD1B2" rx="11" ry="11" style="stroke:#181818;stroke-width:1.0;"/><path d="M1375.6556,247.875 Q1375.8119,247.6563 1375.9994,247.5469 Q1376.1869,247.4375 1376.4056,247.4375 Q1376.7806,247.4375 1377.015,247.7031 Q1377.2494,247.9531 1377.2494,248.5625 L1377.2494,250.0156 Q1377.2494,250.625 1377.015,250.8906 Q1376.7806,251.1563 1376.4056,251.1563 Q1376.0619,251.1563 1375.8588,250.9531 Q1375.6556,250.7656 1375.5463,250.25 Q1375.4994,249.8906 1375.3119,249.7031 Q1374.9838,249.3281 1374.3744,249.1094 Q1373.765,248.8906 1373.14,248.8906 Q1372.3744,248.8906 1371.7338,249.2188 Q1371.1088,249.5469 1370.6088,250.2969 Q1370.1244,251.0469 1370.1244,252.0781 L1370.1244,253.1719 Q1370.1244,254.4063 1371.015,255.2344 Q1371.9056,256.0469 1373.4994,256.0469 Q1374.4369,256.0469 1375.0931,255.7969 Q1375.4838,255.6406 1375.9056,255.2031 Q1376.1713,254.9375 1376.3119,254.8594 Q1376.4681,254.7813 1376.6713,254.7813 Q1376.9994,254.7813 1377.2494,255.0469 Q1377.515,255.2969 1377.515,255.6406 Q1377.515,255.9844 1377.1713,256.3906 Q1376.6713,256.9688 1375.8744,257.2969 Q1374.7963,257.75 1373.4994,257.75 Q1371.9838,257.75 1370.7806,257.125 Q1369.7963,256.625 1369.1088,255.5625 Q1368.4213,254.4844 1368.4213,253.2031 L1368.4213,252.0469 Q1368.4213,250.7188 1369.0306,249.5781 Q1369.6556,248.4219 1370.7494,247.8125 Q1371.8431,247.1875 1373.0775,247.1875 Q1373.8119,247.1875 1374.4525,247.3594 Q1375.1088,247.5156 1375.6556,247.875 Z " fill="#000000"/><text fill="#000000" font-family="sans-serif" font-size="14" lengthAdjust="spacing" textLength="35" x="1393.39" y="257.7285">Entity</text><line style="stroke:#181818;stroke-width:0.5;" x1="1254.14" x2="1535.14" y1="268" y2="268"/><ellipse cx="1264.14" cy="279" fill="none" rx="3" ry="3" style="stroke:#038048;stroke-width:1.0;"/><text fill="#000000" font-family="sans-serif" font-size="14" lengthAdjust="spacing" textLength="208" x="1273.14" y="286.5332">ID uuid.UUID `gorm:"primarykey"`</text><line style="stroke:#181818;stroke-width:1.0;" x1="1254.14" x2="1535.14" y1="293.6094" y2="293.6094"/><ellipse cx="1264.14" cy="304.6094" fill="none" rx="3" ry="3" style="stroke:#038048;stroke-width:1.0;"/><text fill="#000000" font-family="sans-serif" font-size="14" lengthAdjust="spacing" textLength="222" x="1273.14" y="312.1426">CreatedAt time.Time `gorm:"index"`</text><line style="stroke:#181818;stroke-width:1.0;" x1="1254.14" x2="1535.14" y1="319.2188" y2="319.2188"/><ellipse cx="1264.14" cy="330.2188" fill="none" rx="3" ry="3" style="stroke:#038048;stroke-width:1.0;"/><text fill="#000000" font-family="sans-serif" font-size="14" lengthAdjust="spacing" textLength="224" x="1273.14" y="337.752">UpdatedAt time.Time `gorm:"index"`</text><line style="stroke:#181818;stroke-width:1.0;" x1="1254.14" x2="1535.14" y1="344.8281" y2="344.8281"/><ellipse cx="1264.14" cy="355.8281" fill="none" rx="3" ry="3" style="stroke:#038048;stroke-width:1.0;"/><text fill="#000000" font-family="sans-serif" font-size="14" lengthAdjust="spacing" textLength="257" x="1273.14" y="363.3613">DeletedAt gorm.DeletedAt `gorm:"index"`</text></g><!--MD5=[063d74e43144aaa0d0cf3aecd3794497]
class Log--><g id="elem_Log"><rect codeLine="5" fill="#F1F1F1" height="134.4375" id="Log" rx="2.5" ry="2.5" style="stroke:#181818;stroke-width:0.5;" width="237" x="1264.14" y="42"/><ellipse cx="1366.39" cy="58" fill="#ADD1B2" rx="11" ry="11" style="stroke:#181818;stroke-width:1.0;"/><path d="M1369.1556,53.875 Q1369.3119,53.6563 1369.4994,53.5469 Q1369.6869,53.4375 1369.9056,53.4375 Q1370.2806,53.4375 1370.515,53.7031 Q1370.7494,53.9531 1370.7494,54.5625 L1370.7494,56.0156 Q1370.7494,56.625 1370.515,56.8906 Q1370.2806,57.1563 1369.9056,57.1563 Q1369.5619,57.1563 1369.3588,56.9531 Q1369.1556,56.7656 1369.0463,56.25 Q1368.9994,55.8906 1368.8119,55.7031 Q1368.4838,55.3281 1367.8744,55.1094 Q1367.265,54.8906 1366.64,54.8906 Q1365.8744,54.8906 1365.2338,55.2188 Q1364.6088,55.5469 1364.1088,56.2969 Q1363.6244,57.0469 1363.6244,58.0781 L1363.6244,59.1719 Q1363.6244,60.4063 1364.515,61.2344 Q1365.4056,62.0469 1366.9994,62.0469 Q1367.9369,62.0469 1368.5931,61.7969 Q1368.9838,61.6406 1369.4056,61.2031 Q1369.6713,60.9375 1369.8119,60.8594 Q1369.9681,60.7813 1370.1713,60.7813 Q1370.4994,60.7813 1370.7494,61.0469 Q1371.015,61.2969 1371.015,61.6406 Q1371.015,61.9844 1370.6713,62.3906 Q1370.1713,62.9688 1369.3744,63.2969 Q1368.2963,63.75 1366.9994,63.75 Q1365.4838,63.75 1364.2806,63.125 Q1363.2963,62.625 1362.6088,61.5625 Q1361.9213,60.4844 1361.9213,59.2031 L1361.9213,58.0469 Q1361.9213,56.7188 1362.5306,55.5781 Q1363.1556,54.4219 1364.2494,53.8125 Q1365.3431,53.1875 1366.5775,53.1875 Q1367.3119,53.1875 1367.9525,53.3594 Q1368.6088,53.5156 1369.1556,53.875 Z " fill="#000000"/><text fill="#000000" font-family="sans-serif" font-size="14" lengthAdjust="spacing" textLength="24" x="1386.89" y="63.7285">Log</text><line style="stroke:#181818;stroke-width:0.5;" x1="1265.14" x2="1500.14" y1="74" y2="74"/><ellipse cx="1275.14" cy="85" fill="none" rx="3" ry="3" style="stroke:#038048;stroke-width:1.0;"/><text fill="#000000" font-family="sans-serif" font-size="14" lengthAdjust="spacing" textLength="211" x="1284.14" y="92.5332">ActionID uuid.UUID `gorm:"index"`</text><line style="stroke:#181818;stroke-width:1.0;" x1="1265.14" x2="1500.14" y1="99.6094" y2="99.6094"/><ellipse cx="1275.14" cy="110.6094" fill="none" rx="3" ry="3" style="stroke:#038048;stroke-width:1.0;"/><text fill="#000000" font-family="sans-serif" font-size="14" lengthAdjust="spacing" textLength="73" x="1284.14" y="118.1426">Level string</text><line style="stroke:#181818;stroke-width:1.0;" x1="1265.14" x2="1500.14" y1="125.2188" y2="125.2188"/><ellipse cx="1275.14" cy="136.2188" fill="none" rx="3" ry="3" style="stroke:#038048;stroke-width:1.0;"/><text fill="#000000" font-family="sans-serif" font-size="14" lengthAdjust="spacing" textLength="84" x="1284.14" y="143.752">Source string</text><line style="stroke:#181818;stroke-width:1.0;" x1="1265.14" x2="1500.14" y1="150.8281" y2="150.8281"/><ellipse cx="1275.14" cy="161.8281" fill="none" rx="3" ry="3" style="stroke:#038048;stroke-width:1.0;"/><text fill="#000000" font-family="sans-serif" font-size="14" lengthAdjust="spacing" textLength="96" x="1284.14" y="169.3613">Message string</text></g><!--MD5=[27abfb56f32eefa7f07c83348fb1ee32]
class GormGenericRepository--><g id="elem_GormGenericRepository"><rect codeLine="5" fill="#F1F1F1" height="48" id="GormGenericRepository" rx="2.5" ry="2.5" style="stroke:#181818;stroke-width:0.5;" width="246" x="830.64" y="430"/><ellipse cx="845.64" cy="446" fill="#ADD1B2" rx="11" ry="11" style="stroke:#181818;stroke-width:1.0;"/><path d="M848.4056,441.875 Q848.5619,441.6563 848.7494,441.5469 Q848.9369,441.4375 849.1556,441.4375 Q849.5306,441.4375 849.765,441.7031 Q849.9994,441.9531 849.9994,442.5625 L849.9994,444.0156 Q849.9994,444.625 849.765,444.8906 Q849.5306,445.1563 849.1556,445.1563 Q848.8119,445.1563 848.6088,444.9531 Q848.4056,444.7656 848.2963,444.25 Q848.2494,443.8906 848.0619,443.7031 Q847.7338,443.3281 847.1244,443.1094 Q846.515,442.8906 845.89,442.8906 Q845.1244,442.8906 844.4838,443.2188 Q843.8588,443.5469 843.3588,444.2969 Q842.8744,445.0469 842.8744,446.0781 L842.8744,447.1719 Q842.8744,448.4063 843.765,449.2344 Q844.6556,450.0469 846.2494,450.0469 Q847.1869,450.0469 847.8431,449.7969 Q848.2338,449.6406 848.6556,449.2031 Q848.9213,448.9375 849.0619,448.8594 Q849.2181,448.7813 849.4213,448.7813 Q849.7494,448.7813 849.9994,449.0469 Q850.265,449.2969 850.265,449.6406 Q850.265,449.9844 849.9213,450.3906 Q849.4213,450.9688 848.6244,451.2969 Q847.5463,451.75 846.2494,451.75 Q844.7338,451.75 843.5306,451.125 Q842.5463,450.625 841.8588,449.5625 Q841.1713,448.4844 841.1713,447.2031 L841.1713,446.0469 Q841.1713,444.7188 841.7806,443.5781 Q842.4056,442.4219 843.4994,441.8125 Q844.5931,441.1875 845.8275,441.1875 Q846.5619,441.1875 847.2025,441.3594 Q847.8588,441.5156 848.4056,441.875 Z " fill="#000000"/><text fill="#000000" font-family="sans-serif" font-size="14" lengthAdjust="spacing" textLength="153" x="859.64" y="451.7285">GormGenericRepository</text><rect fill="#FFFFFF" height="17.0938" style="stroke:#000000;stroke-width:1.0;stroke-dasharray:2.0,2.0;" width="59" x="1020.64" y="427"/><text fill="#000000" font-family="sans-serif" font-size="12" font-style="italic" lengthAdjust="spacing" textLength="57" x="1021.64" y="440.457">EntityType</text><line style="stroke:#181818;stroke-width:0.5;" x1="831.64" x2="1075.64" y1="462" y2="462"/><line style="stroke:#181818;stroke-width:0.5;" x1="831.64" x2="1075.64" y1="470" y2="470"/></g><!--MD5=[8f4cc9c7b9b5dcc33f9071a0b0037015]
class LogRepository--><g id="elem_LogRepository"><rect codeLine="6" fill="#F1F1F1" height="48" id="LogRepository" rx="2.5" ry="2.5" style="stroke:#181818;stroke-width:0.5;" width="124" x="843.64" y="85"/><ellipse cx="858.64" cy="101" fill="#ADD1B2" rx="11" ry="11" style="stroke:#181818;stroke-width:1.0;"/><path d="M861.4056,96.875 Q861.5619,96.6563 861.7494,96.5469 Q861.9369,96.4375 862.1556,96.4375 Q862.5306,96.4375 862.765,96.7031 Q862.9994,96.9531 862.9994,97.5625 L862.9994,99.0156 Q862.9994,99.625 862.765,99.8906 Q862.5306,100.1563 862.1556,100.1563 Q861.8119,100.1563 861.6088,99.9531 Q861.4056,99.7656 861.2963,99.25 Q861.2494,98.8906 861.0619,98.7031 Q860.7338,98.3281 860.1244,98.1094 Q859.515,97.8906 858.89,97.8906 Q858.1244,97.8906 857.4838,98.2188 Q856.8588,98.5469 856.3588,99.2969 Q855.8744,100.0469 855.8744,101.0781 L855.8744,102.1719 Q855.8744,103.4063 856.765,104.2344 Q857.6556,105.0469 859.2494,105.0469 Q860.1869,105.0469 860.8431,104.7969 Q861.2338,104.6406 861.6556,104.2031 Q861.9213,103.9375 862.0619,103.8594 Q862.2181,103.7813 862.4213,103.7813 Q862.7494,103.7813 862.9994,104.0469 Q863.265,104.2969 863.265,104.6406 Q863.265,104.9844 862.9213,105.3906 Q862.4213,105.9688 861.6244,106.2969 Q860.5463,106.75 859.2494,106.75 Q857.7338,106.75 856.5306,106.125 Q855.5463,105.625 854.8588,104.5625 Q854.1713,103.4844 854.1713,102.2031 L854.1713,101.0469 Q854.1713,99.7188 854.7806,98.5781 Q855.4056,97.4219 856.4994,96.8125 Q857.5931,96.1875 858.8275,96.1875 Q859.5619,96.1875 860.2025,96.3594 Q860.8588,96.5156 861.4056,96.875 Z " fill="#000000"/><text fill="#000000" font-family="sans-serif" font-size="14" lengthAdjust="spacing" textLength="92" x="872.64" y="106.7285">LogRepository</text><line style="stroke:#181818;stroke-width:0.5;" x1="844.64" x2="966.64" y1="117" y2="117"/><line style="stroke:#181818;stroke-width:0.5;" x1="844.64" x2="966.64" y1="125" y2="125"/></g><g id="elem_LogTypeNote"><path d="M941.64,290 L941.64,316.3516 L1063.64,316.3516 L1063.64,300 L1053.64,290 L941.64,290 " fill="#FEFFDD" style="stroke:#181818;stroke-width:0.5;"/><path d="M1053.64,290 L1053.64,300 L1063.64,300 L1053.64,290 " fill="#FEFFDD" style="stroke:#181818;stroke-width:1.0;"/><text fill="#000000" font-family="sans-serif" font-size="13" lengthAdjust="spacing" textLength="101" x="947.64" y="308.4951">EntityType is Log</text></g><!--MD5=[a203eca1f0769929ae1344e0135bff6b]
class BaseDto--><g id="elem_BaseDto"><rect codeLine="3" fill="#F1F1F1" height="108.8281" id="BaseDto" rx="2.5" ry="2.5" style="stroke:#181818;stroke-width:0.5;" width="157" x="1633.14" y="248.5"/><ellipse cx="1680.39" cy="264.5" fill="#ADD1B2" rx="11" ry="11" style="stroke:#181818;stroke-width:1.0;"/><path d="M1683.1556,260.375 Q1683.3119,260.1563 1683.4994,260.0469 Q1683.6869,259.9375 1683.9056,259.9375 Q1684.2806,259.9375 1684.515,260.2031 Q1684.7494,260.4531 1684.7494,261.0625 L1684.7494,262.5156 Q1684.7494,263.125 1684.515,263.3906 Q1684.2806,263.6563 1683.9056,263.6563 Q1683.5619,263.6563 1683.3588,263.4531 Q1683.1556,263.2656 1683.0463,262.75 Q1682.9994,262.3906 1682.8119,262.2031 Q1682.4838,261.8281 1681.8744,261.6094 Q1681.265,261.3906 1680.64,261.3906 Q1679.8744,261.3906 1679.2338,261.7188 Q1678.6088,262.0469 1678.1088,262.7969 Q1677.6244,263.5469 1677.6244,264.5781 L1677.6244,265.6719 Q1677.6244,266.9063 1678.515,267.7344 Q1679.4056,268.5469 1680.9994,268.5469 Q1681.9369,268.5469 1682.5931,268.2969 Q1682.9838,268.1406 1683.4056,267.7031 Q1683.6713,267.4375 1683.8119,267.3594 Q1683.9681,267.2813 1684.1713,267.2813 Q1684.4994,267.2813 1684.7494,267.5469 Q1685.015,267.7969 1685.015,268.1406 Q1685.015,268.4844 1684.6713,268.8906 Q1684.1713,269.4688 1683.3744,269.7969 Q1682.2963,270.25 1680.9994,270.25 Q1679.4838,270.25 1678.2806,269.625 Q1677.2963,269.125 1676.6088,268.0625 Q1675.9213,266.9844 1675.9213,265.7031 L1675.9213,264.5469 Q1675.9213,263.2188 1676.5306,262.0781 Q1677.1556,260.9219 1678.2494,260.3125 Q1679.3431,259.6875 1680.5775,259.6875 Q1681.3119,259.6875 1681.9525,259.8594 Q1682.6088,260.0156 1683.1556,260.375 Z " fill="#000000"/><text fill="#000000" font-family="sans-serif" font-size="14" lengthAdjust="spacing" textLength="54" x="1700.89" y="270.2285">BaseDto</text><line style="stroke:#181818;stroke-width:0.5;" x1="1634.14" x2="1789.14" y1="280.5" y2="280.5"/><ellipse cx="1644.14" cy="291.5" fill="none" rx="3" ry="3" style="stroke:#038048;stroke-width:1.0;"/><text fill="#000000" font-family="sans-serif" font-size="14" lengthAdjust="spacing" textLength="79" x="1653.14" y="299.0332">ID uuid.UUID</text><line style="stroke:#181818;stroke-width:1.0;" x1="1634.14" x2="1789.14" y1="306.1094" y2="306.1094"/><ellipse cx="1644.14" cy="317.1094" fill="none" rx="3" ry="3" style="stroke:#038048;stroke-width:1.0;"/><text fill="#000000" font-family="sans-serif" font-size="14" lengthAdjust="spacing" textLength="129" x="1653.14" y="324.6426">CreatedAt time.Time</text><line style="stroke:#181818;stroke-width:1.0;" x1="1634.14" x2="1789.14" y1="331.7188" y2="331.7188"/><ellipse cx="1644.14" cy="342.7188" fill="none" rx="3" ry="3" style="stroke:#038048;stroke-width:1.0;"/><text fill="#000000" font-family="sans-serif" font-size="14" lengthAdjust="spacing" textLength="131" x="1653.14" y="350.252">UpdatedAt time.Time</text></g><!--MD5=[09eba51d36156165b60f5c384613b5fd]
class LogDto--><g id="elem_LogDto"><rect codeLine="5" fill="#F1F1F1" height="134.4375" id="LogDto" rx="2.5" ry="2.5" style="stroke:#181818;stroke-width:0.5;" width="237" x="1593.14" y="42"/><ellipse cx="1684.39" cy="58" fill="#ADD1B2" rx="11" ry="11" style="stroke:#181818;stroke-width:1.0;"/><path d="M1687.1556,53.875 Q1687.3119,53.6563 1687.4994,53.5469 Q1687.6869,53.4375 1687.9056,53.4375 Q1688.2806,53.4375 1688.515,53.7031 Q1688.7494,53.9531 1688.7494,54.5625 L1688.7494,56.0156 Q1688.7494,56.625 1688.515,56.8906 Q1688.2806,57.1563 1687.9056,57.1563 Q1687.5619,57.1563 1687.3588,56.9531 Q1687.1556,56.7656 1687.0463,56.25 Q1686.9994,55.8906 1686.8119,55.7031 Q1686.4838,55.3281 1685.8744,55.1094 Q1685.265,54.8906 1684.64,54.8906 Q1683.8744,54.8906 1683.2338,55.2188 Q1682.6088,55.5469 1682.1088,56.2969 Q1681.6244,57.0469 1681.6244,58.0781 L1681.6244,59.1719 Q1681.6244,60.4063 1682.515,61.2344 Q1683.4056,62.0469 1684.9994,62.0469 Q1685.9369,62.0469 1686.5931,61.7969 Q1686.9838,61.6406 1687.4056,61.2031 Q1687.6713,60.9375 1687.8119,60.8594 Q1687.9681,60.7813 1688.1713,60.7813 Q1688.4994,60.7813 1688.7494,61.0469 Q1689.015,61.2969 1689.015,61.6406 Q1689.015,61.9844 1688.6713,62.3906 Q1688.1713,62.9688 1687.3744,63.2969 Q1686.2963,63.75 1684.9994,63.75 Q1683.4838,63.75 1682.2806,63.125 Q1681.2963,62.625 1680.6088,61.5625 Q1679.9213,60.4844 1679.9213,59.2031 L1679.9213,58.0469 Q1679.9213,56.7188 1680.5306,55.5781 Q1681.1556,54.4219 1682.2494,53.8125 Q1683.3431,53.1875 1684.5775,53.1875 Q1685.3119,53.1875 1685.9525,53.3594 Q1686.6088,53.5156 1687.1556,53.875 Z " fill="#000000"/><text fill="#000000" font-family="sans-serif" font-size="14" lengthAdjust="spacing" textLength="46" x="1704.89" y="63.7285">LogDto</text><line style="stroke:#181818;stroke-width:0.5;" x1="1594.14" x2="1829.14" y1="74" y2="74"/><ellipse cx="1604.14" cy="85" fill="none" rx="3" ry="3" style="stroke:#038048;stroke-width:1.0;"/><text fill="#000000" font-family="sans-serif" font-size="14" lengthAdjust="spacing" textLength="211" x="1613.14" y="92.5332">ActionID uuid.UUID `gorm:"index"`</text><line style="stroke:#181818;stroke-width:1.0;" x1="1594.14" x2="1829.14" y1="99.6094" y2="99.6094"/><ellipse cx="1604.14" cy="110.6094" fill="none" rx="3" ry="3" style="stroke:#038048;stroke-width:1.0;"/><text fill="#000000" font-family="sans-serif" font-size="14" lengthAdjust="spacing" textLength="73" x="1613.14" y="118.1426">Level string</text><line style="stroke:#181818;stroke-width:1.0;" x1="1594.14" x2="1829.14" y1="125.2188" y2="125.2188"/><ellipse cx="1604.14" cy="136.2188" fill="none" rx="3" ry="3" style="stroke:#038048;stroke-width:1.0;"/><text fill="#000000" font-family="sans-serif" font-size="14" lengthAdjust="spacing" textLength="84" x="1613.14" y="143.752">Source string</text><line style="stroke:#181818;stroke-width:1.0;" x1="1594.14" x2="1829.14" y1="150.8281" y2="150.8281"/><ellipse cx="1604.14" cy="161.8281" fill="none" rx="3" ry="3" style="stroke:#038048;stroke-width:1.0;"/><text fill="#000000" font-family="sans-serif" font-size="14" lengthAdjust="spacing" textLength="96" x="1613.14" y="169.3613">Message string</text></g><!--MD5=[a6c7a0eda5b041e127f539f1664bb96a]
link Entity to IEntityModel--><g id="link_Entity_IEntityModel"><path codeLine="14" d="M1414.89,370.03 C1438.77,447.89 1477.97,575.67 1499.76,646.73 " fill="none" id="Entity-to-IEntityModel" style="stroke:#181818;stroke-width:1.0;stroke-dasharray:7.0,7.0;"/><polygon fill="none" points="1506.5,644.84,1505.68,666.01,1493.12,648.94,1506.5,644.84" style="stroke:#181818;stroke-width:1.0;"/></g><!--MD5=[7ee9f8375b9805f735e207131896076f]
link Log to Entity--><g id="link_Log_Entity"><path codeLine="14" d="M1386.77,176.08 C1387.7,191.01 1388.7,207.02 1389.67,222.44 " fill="none" id="Log-to-Entity" style="stroke:#181818;stroke-width:1.0;"/><polygon fill="#181818" points="1390.5,235.8,1394.1162,229.5612,1389.7482,223.8236,1386.1319,230.0624,1390.5,235.8" style="stroke:#181818;stroke-width:1.0;"/></g><!--MD5=[1b84833638557571905b03f54e842c8c]
link GormGenericRepository to IGenericRepository--><g id="link_GormGenericRepository_IGenericRepository"><path codeLine="7" d="M953.64,478.35 C953.64,498.31 953.64,528.81 953.64,560.81 " fill="none" id="GormGenericRepository-to-IGenericRepository" style="stroke:#181818;stroke-width:1.0;stroke-dasharray:7.0,7.0;"/><polygon fill="none" points="960.64,560.84,953.64,580.84,946.64,560.84,960.64,560.84" style="stroke:#181818;stroke-width:1.0;"/></g><!--MD5=[ed01c4b1a8d821a1dbde2673473bf9b3]
link LogRepository to GormGenericRepository--><g id="link_LogRepository_GormGenericRepository"><path codeLine="8" d="M904.19,133.32 C901.78,182.48 899.44,299.97 924.64,394 C926.83,402.18 930.19,410.57 933.85,418.36 " fill="none" id="LogRepository-to-GormGenericRepository" style="stroke:#181818;stroke-width:1.0;"/><polygon fill="#181818" points="939.73,430,940.5893,422.8403,934.3108,419.2934,933.4515,426.4531,939.73,430" style="stroke:#181818;stroke-width:1.0;"/></g><!--MD5=[2680ff3055d62c142b1e8960e0bcb605]
link LogRepository to LogTypeNote--><g id="link_LogRepository_LogTypeNote"><path codeLine="12" d="M917.34,133.16 C938.1,174.25 980.68,258.54 996.53,289.9 " fill="none" id="LogRepository-LogTypeNote" style="stroke:#181818;stroke-width:1.0;stroke-dasharray:7.0,7.0;"/></g><!--MD5=[266e0e8d93667542f4664d160686c449]
link LogTypeNote to GormGenericRepository--><g id="link_LogTypeNote_GormGenericRepository"><path codeLine="13" d="M998.63,316.19 C990.89,339.75 973.69,392.05 962.94,424.73 " fill="none" id="LogTypeNote-to-GormGenericRepository" style="stroke:#181818;stroke-width:1.0;stroke-dasharray:7.0,7.0;"/><polygon fill="#181818" points="961.27,429.8,967.8911,422.5088,962.8383,425.0523,960.2948,419.9995,961.27,429.8" style="stroke:#181818;stroke-width:1.0;"/></g><!--MD5=[a521aad7a4a356c7d00008639251d028]
link Log to LogTypeNote--><g id="link_Log_LogTypeNote"><path codeLine="14" d="M1263.97,169.96 C1179.69,212.54 1073.52,266.19 1026.7,289.85 " fill="none" id="Log-LogTypeNote" style="stroke:#181818;stroke-width:1.0;stroke-dasharray:7.0,7.0;"/></g><!--MD5=[99c3d6a0707ae2e21e56012feecd5420]
link LogDto to BaseDto--><g id="link_LogDto_BaseDto"><path codeLine="14" d="M1711.64,176.08 C1711.64,195.11 1711.64,215.89 1711.64,234.98 " fill="none" id="LogDto-to-BaseDto" style="stroke:#181818;stroke-width:1.0;"/><polygon fill="#181818" points="1711.64,248.2,1715.64,242.2,1711.64,236.2,1707.64,242.2,1711.64,248.2" style="stroke:#181818;stroke-width:1.0;"/></g><!--MD5=[2cf5d3f3b6ad37a9ab1e735663d9c52e]
link IGenericRepository to LogService--><!--MD5=[a2f59372f56ea5a978dd4b72f4f881df]
link LogRepository to LogService--><g id="link_LogRepository_LogService"><path codeLine="16" d="M843.46,118.78 C685.52,144.81 269.48,237.57 100.64,510 C22.21,636.55 6,730.07 100.64,845 C189.02,952.32 296.28,821.77 407.64,905 C426.91,919.4 408.59,953 432.64,953 " fill="none" id="LogRepository-LogService" style="stroke:#181818;stroke-width:1.0;"/></g><!--MD5=[627a47e7416e9830be5366eedacad6f8]
@startuml

!include ../repositories/LogRepository.puml
!include ../dto/Log/LogDto.puml

package app {
    class LogService {
        -repository IGenericRepository
        - -
        +GetList(ctx context.Context, search string, orderBy string, orderDirection string, page int, pageSize int) (dtos.PaginatedItemsDto[dtos.AppLogDto], error)
        - -
        +GetByID(ctx context.Context, id uuid.UUID) (dtos.AppLogDto, error)
    }

    LogService .[hidden]up. IGenericRepository

    LogRepository -right- LogService::repository

    note left of LogService
        Advanced business logic for Log entity
    end note
}

@enduml

@startuml





package app {
    interface IEntityModel {
        +GetID() uuid.UUID
    }
}


package domain {
    class Entity {
        +ID uuid.UUID `gorm:"primarykey"`
        - -
        +CreatedAt time.Time `gorm:"index"`
        - -
        +UpdatedAt time.Time `gorm:"index"`
        - -
        +DeletedAt gorm.DeletedAt `gorm:"index"`
    }
    Entity .down.|> IEntityModel
}


package domain {
    class Log {
        +ActionID uuid.UUID `gorm:"index"`
        - -
        +Level string
        - -
        +Source string
        - -
        +Message string
    }
    Log -down-* Entity
}



package app {
    interface IGenericRepository<EntityType> {
        +GetList(ctx context.Context, orderBy string, orderDirection string, page int, size int, queryBuilder interfaces.IQueryBuilder) ([]EntityType, error)
        - -
        +Count(ctx context.Context, queryBuilder interfaces.IQueryBuilder) (int64, error)
        - -
        +NewQueryBuilder(ctx context.Context) interfaces.IQueryBuilder
        - -
        +GetById(ctx context.Context, id uuid.UUID) (EntityType, error)
        - -
        +Update(ctx context.Context, entity EntityType) (EntityType, error)
        - -
        +Insert(ctx context.Context, entity EntityType) (EntityType, error)
        - -
        +Delete(ctx context.Context, id uuid.UUID) error
        - -
        +CloseDb() error
    }
    note left of IGenericRepository::GetList
      Get list of elements with filtering and pagination
    end note

    note left of IGenericRepository::Count
      Get count of entities with filtering
    end note

    note left of IGenericRepository::NewQueryBuilder
      Get new instance of the query builder
    end note

    note left of IGenericRepository::GetById
      Get entity by ID from repository
    end note

    note left of IGenericRepository::Update
      Save the changes to the existing entity in the repository
    end note

    note left of IGenericRepository::Insert
      Add entity to the repository
    end note

    note left of IGenericRepository::Delete
      Delete entity from the database
    end note

    note left of IGenericRepository::CloseDb
      Closes current database connection
    end note
}


package infrastructure {
    class GormGenericRepository<EntityType>

    GormGenericRepository .down.|> IGenericRepository
}


package infrastructure {
    class LogRepository

    LogRepository -down-* GormGenericRepository

    note "EntityType is Log" as LogTypeNote

    LogRepository .down. LogTypeNote
    GormGenericRepository <.up. LogTypeNote
    Log .. LogTypeNote
}


package dtos {
    class BaseDto {
        +ID uuid.UUID
        - -
        +CreatedAt time.Time
        - -
        +UpdatedAt time.Time
    }
}


package dtos {
    class LogDto {
        +ActionID uuid.UUID `gorm:"index"`
        - -
        +Level string
        - -
        +Source string
        - -
        +Message string
    }
    LogDto - -* BaseDto
}


package app {
    class LogService {
        -repository IGenericRepository
        - -
        +GetList(ctx context.Context, search string, orderBy string, orderDirection string, page int, pageSize int) (dtos.PaginatedItemsDto[dtos.AppLogDto], error)
        - -
        +GetByID(ctx context.Context, id uuid.UUID) (dtos.AppLogDto, error)
    }

    LogService .[hidden]up. IGenericRepository

    LogRepository -right- LogService::repository

    note left of LogService
        Advanced business logic for Log entity
    end note
}

@enduml

PlantUML version 1.2022.6(Tue Jun 21 20:34:49 MSK 2022)
(GPL source distribution)
Java Runtime: OpenJDK Runtime Environment
JVM: OpenJDK 64-Bit Server VM
Default Encoding: Cp1251
Language: ru
Country: RU
--></g></svg>