<?xml version="1.0" encoding="UTF-8" standalone="no"?><svg xmlns="http://www.w3.org/2000/svg" xmlns:xlink="http://www.w3.org/1999/xlink" contentStyleType="text/css" height="1589px" preserveAspectRatio="none" style="width:2018px;height:1589px;background:#FFFFFF;" version="1.1" viewBox="0 0 2018 1589" width="2018px" zoomAndPan="magnify"><defs/><g><!--MD5=[d5ac3844f66b12d9e08170e47495e096]
cluster app--><g id="cluster_app"><path d="M8.5,518 L35.5,518 A3.75,3.75 0 0 1 38,520.5 L45,541.6094 L1714.5,541.6094 A2.5,2.5 0 0 1 1717,544.1094 L1717,1579.5 A2.5,2.5 0 0 1 1714.5,1582 L8.5,1582 A2.5,2.5 0 0 1 6,1579.5 L6,520.5 A2.5,2.5 0 0 1 8.5,518 " style="stroke:#000000;stroke-width:1.5;fill:none;"/><line style="stroke:#000000;stroke-width:1.5;fill:none;" x1="6" x2="45" y1="541.6094" y2="541.6094"/><text fill="#000000" font-family="sans-serif" font-size="14" font-weight="bold" lengthAdjust="spacing" textLength="26" x="10" y="534.5332">app</text></g><!--MD5=[27f772719433d509ddbc20ff768eba08]
cluster domain--><g id="cluster_domain"><path d="M159.5,6 L211.5,6 A3.75,3.75 0 0 1 214,8.5 L221,29.6094 L436.5,29.6094 A2.5,2.5 0 0 1 439,32.1094 L439,383.5 A2.5,2.5 0 0 1 436.5,386 L159.5,386 A2.5,2.5 0 0 1 157,383.5 L157,8.5 A2.5,2.5 0 0 1 159.5,6 " style="stroke:#000000;stroke-width:1.5;fill:none;"/><line style="stroke:#000000;stroke-width:1.5;fill:none;" x1="157" x2="221" y1="29.6094" y2="29.6094"/><text fill="#000000" font-family="sans-serif" font-size="14" font-weight="bold" lengthAdjust="spacing" textLength="51" x="161" y="22.5332">domain</text></g><!--MD5=[77349be1bd27b81b697a0f9b3aded3c8]
cluster infrastructure--><g id="cluster_infrastructure"><path d="M1104.5,49 L1202.5,49 A3.75,3.75 0 0 1 1205,51.5 L1212,72.6094 L1377.5,72.6094 A2.5,2.5 0 0 1 1380,75.1094 L1380,491.5 A2.5,2.5 0 0 1 1377.5,494 L1104.5,494 A2.5,2.5 0 0 1 1102,491.5 L1102,51.5 A2.5,2.5 0 0 1 1104.5,49 " style="stroke:#000000;stroke-width:1.5;fill:none;"/><line style="stroke:#000000;stroke-width:1.5;fill:none;" x1="1102" x2="1212" y1="72.6094" y2="72.6094"/><text fill="#000000" font-family="sans-serif" font-size="14" font-weight="bold" lengthAdjust="spacing" textLength="97" x="1106" y="65.5332">infrastructure</text></g><!--MD5=[ac65c812e7532cbcd7b9effd958b962e]
cluster dtos--><g id="cluster_dtos"><path d="M1743.5,1154 L1775.5,1154 A3.75,3.75 0 0 1 1778,1156.5 L1785,1177.6094 L2008.5,1177.6094 A2.5,2.5 0 0 1 2011,1180.1094 L2011,1543 A2.5,2.5 0 0 1 2008.5,1545.5 L1743.5,1545.5 A2.5,2.5 0 0 1 1741,1543 L1741,1156.5 A2.5,2.5 0 0 1 1743.5,1154 " style="stroke:#000000;stroke-width:1.5;fill:none;"/><line style="stroke:#000000;stroke-width:1.5;fill:none;" x1="1741" x2="1785" y1="1177.6094" y2="1177.6094"/><text fill="#000000" font-family="sans-serif" font-size="14" font-weight="bold" lengthAdjust="spacing" textLength="31" x="1745" y="1170.5332">dtos</text></g><!--MD5=[7c0ed5f9a527ab221a5373ebedcc681c]
class IGenericService--><g id="elem_IGenericService"><rect codeLine="3" fill="#F1F1F1" height="160.0469" id="IGenericService" rx="2.5" ry="2.5" style="stroke:#181818;stroke-width:0.5;" width="829" x="871.5" y="1395"/><ellipse cx="1084.75" cy="1411" fill="#B4A7E5" rx="11" ry="11" style="stroke:#181818;stroke-width:1.0;"/><path d="M1085.7031,1407.6406 L1085.7031,1414.2969 L1087.4219,1414.2969 Q1088.0313,1414.2969 1088.2969,1414.5313 Q1088.5625,1414.7656 1088.5625,1415.1563 Q1088.5625,1415.5313 1088.2969,1415.7656 Q1088.0313,1416 1087.4219,1416 L1082.2813,1416 Q1081.6719,1416 1081.4063,1415.7656 Q1081.1406,1415.5313 1081.1406,1415.1406 Q1081.1406,1414.7656 1081.4063,1414.5313 Q1081.6719,1414.2969 1082.2813,1414.2969 L1084,1414.2969 L1084,1407.6406 L1082.2813,1407.6406 Q1081.6719,1407.6406 1081.4063,1407.4063 Q1081.1406,1407.1719 1081.1406,1406.7813 Q1081.1406,1406.4063 1081.4063,1406.1719 Q1081.6719,1405.9375 1082.2813,1405.9375 L1087.4219,1405.9375 Q1088.0313,1405.9375 1088.2969,1406.1719 Q1088.5625,1406.4063 1088.5625,1406.7813 Q1088.5625,1407.1719 1088.2969,1407.4063 Q1088.0313,1407.6406 1087.4219,1407.6406 L1085.7031,1407.6406 Z " fill="#000000"/><text fill="#000000" font-family="sans-serif" font-size="14" font-style="italic" lengthAdjust="spacing" textLength="100" x="1105.25" y="1416.7285">IGenericService</text><rect fill="#FFFFFF" height="17.0938" style="stroke:#000000;stroke-width:1.0;stroke-dasharray:2.0,2.0;" width="292" x="1411.5" y="1392"/><text fill="#000000" font-family="sans-serif" font-size="12" font-style="italic" lengthAdjust="spacing" textLength="290" x="1412.5" y="1405.457">EntityType, CreateDtoType, UpdateDtoType, DtoType</text><line style="stroke:#181818;stroke-width:0.5;" x1="872.5" x2="1699.5" y1="1427" y2="1427"/><ellipse cx="882.5" cy="1438" fill="#84BE84" rx="3" ry="3" style="stroke:#038048;stroke-width:1.0;"/><text fill="#000000" font-family="sans-serif" font-size="14" lengthAdjust="spacing" textLength="803" x="891.5" y="1445.5332">GetList(ctx context.Context, search, orderBy, orderDirection string, page, pageSize int) (*dtos.PaginatedListDto[DtoType], error)</text><line style="stroke:#181818;stroke-width:1.0;" x1="872.5" x2="1699.5" y1="1452.6094" y2="1452.6094"/><ellipse cx="882.5" cy="1463.6094" fill="#84BE84" rx="3" ry="3" style="stroke:#038048;stroke-width:1.0;"/><text fill="#000000" font-family="sans-serif" font-size="14" lengthAdjust="spacing" textLength="375" x="891.5" y="1471.1426">GetById(ctx context.Context, id uuid.UUID) (*DtoType, error)</text><line style="stroke:#181818;stroke-width:1.0;" x1="872.5" x2="1699.5" y1="1478.2188" y2="1478.2188"/><ellipse cx="882.5" cy="1489.2188" fill="#84BE84" rx="3" ry="3" style="stroke:#038048;stroke-width:1.0;"/><text fill="#000000" font-family="sans-serif" font-size="14" lengthAdjust="spacing" textLength="470" x="891.5" y="1496.752">Update(ctx context.Context, updateDto UpdateDtoType, id uuid.UUID) error</text><line style="stroke:#181818;stroke-width:1.0;" x1="872.5" x2="1699.5" y1="1503.8281" y2="1503.8281"/><ellipse cx="882.5" cy="1514.8281" fill="#84BE84" rx="3" ry="3" style="stroke:#038048;stroke-width:1.0;"/><text fill="#000000" font-family="sans-serif" font-size="14" lengthAdjust="spacing" textLength="457" x="891.5" y="1522.3613">Create(ctx context.Context, createDto CreateDtoType) (uuid.UUID, error)</text><line style="stroke:#181818;stroke-width:1.0;" x1="872.5" x2="1699.5" y1="1529.4375" y2="1529.4375"/><ellipse cx="882.5" cy="1540.4375" fill="#84BE84" rx="3" ry="3" style="stroke:#038048;stroke-width:1.0;"/><text fill="#000000" font-family="sans-serif" font-size="14" lengthAdjust="spacing" textLength="289" x="891.5" y="1547.9707">Delete(ctx context.Context, id uuid.UUID) error</text></g><path d="M510,1384 L510,1410.3516 A0,0 0 0 0 510,1410.3516 L802,1410.3516 A0,0 0 0 0 802,1410.3516 L802,1402 L875.5,1439.8047 L802,1394 L802,1394 L792,1384 L510,1384 A0,0 0 0 0 510,1384 " fill="#FEFFDD" style="stroke:#181818;stroke-width:0.5;"/><path d="M792,1384 L792,1394 L802,1394 L792,1384 " fill="#FEFFDD" style="stroke:#181818;stroke-width:0.5;"/><text fill="#000000" font-family="sans-serif" font-size="13" lengthAdjust="spacing" textLength="271" x="516" y="1402.4951">Get list of elements with search and pagination</text><path d="M510,1420.3516 L510,1446.7031 A0,0 0 0 0 510,1446.7031 L695,1446.7031 A0,0 0 0 0 695,1446.7031 L695,1438.3516 L875.5,1465.4141 L695,1430.3516 L695,1430.3516 L685,1420.3516 L510,1420.3516 A0,0 0 0 0 510,1420.3516 " fill="#FEFFDD" style="stroke:#181818;stroke-width:0.5;"/><path d="M685,1420.3516 L685,1430.3516 L695,1430.3516 L685,1420.3516 " fill="#FEFFDD" style="stroke:#181818;stroke-width:0.5;"/><text fill="#000000" font-family="sans-serif" font-size="13" lengthAdjust="spacing" textLength="164" x="516" y="1438.8467">Get entity by ID from service</text><path d="M510,1456.7031 L510,1483.0547 A0,0 0 0 0 510,1483.0547 L836,1483.0547 A0,0 0 0 0 836,1483.0547 L836,1474.7031 L875.5,1491.0234 L836,1466.7031 L836,1466.7031 L826,1456.7031 L510,1456.7031 A0,0 0 0 0 510,1456.7031 " fill="#FEFFDD" style="stroke:#181818;stroke-width:0.5;"/><path d="M826,1456.7031 L826,1466.7031 L836,1466.7031 L826,1456.7031 " fill="#FEFFDD" style="stroke:#181818;stroke-width:0.5;"/><text fill="#000000" font-family="sans-serif" font-size="13" lengthAdjust="spacing" textLength="305" x="516" y="1475.1982">Save the changes to the existing entity in the service</text><path d="M510,1493.0547 L510,1519.4063 A0,0 0 0 0 510,1519.4063 L671,1519.4063 A0,0 0 0 0 671,1519.4063 L671,1511.0547 L875.5,1516.6328 L671,1503.0547 L671,1503.0547 L661,1493.0547 L510,1493.0547 A0,0 0 0 0 510,1493.0547 " fill="#FEFFDD" style="stroke:#181818;stroke-width:0.5;"/><path d="M661,1493.0547 L661,1503.0547 L671,1503.0547 L661,1493.0547 " fill="#FEFFDD" style="stroke:#181818;stroke-width:0.5;"/><text fill="#000000" font-family="sans-serif" font-size="13" lengthAdjust="spacing" textLength="140" x="516" y="1511.5498">Add entity to the service</text><path d="M510,1529.4063 L510,1555.7578 A0,0 0 0 0 510,1555.7578 L678,1555.7578 A0,0 0 0 0 678,1555.7578 L678,1547.4063 L875.5,1542.2422 L678,1539.4063 L678,1539.4063 L668,1529.4063 L510,1529.4063 A0,0 0 0 0 510,1529.4063 " fill="#FEFFDD" style="stroke:#181818;stroke-width:0.5;"/><path d="M668,1529.4063 L668,1539.4063 L678,1539.4063 L668,1529.4063 " fill="#FEFFDD" style="stroke:#181818;stroke-width:0.5;"/><text fill="#000000" font-family="sans-serif" font-size="13" lengthAdjust="spacing" textLength="147" x="516" y="1547.9014">Mark an entity as deleted</text><!--MD5=[356bca08515a5260142359877c3882a6]
class GenericService--><g id="elem_GenericService"><rect codeLine="4" fill="#F1F1F1" height="108.8281" id="GenericService" rx="2.5" ry="2.5" style="stroke:#181818;stroke-width:0.5;" width="423" x="1158.5" y="1202.5"/><ellipse cx="1173.5" cy="1218.5" fill="#ADD1B2" rx="11" ry="11" style="stroke:#181818;stroke-width:1.0;"/><path d="M1176.2656,1214.375 Q1176.4219,1214.1563 1176.6094,1214.0469 Q1176.7969,1213.9375 1177.0156,1213.9375 Q1177.3906,1213.9375 1177.625,1214.2031 Q1177.8594,1214.4531 1177.8594,1215.0625 L1177.8594,1216.5156 Q1177.8594,1217.125 1177.625,1217.3906 Q1177.3906,1217.6563 1177.0156,1217.6563 Q1176.6719,1217.6563 1176.4688,1217.4531 Q1176.2656,1217.2656 1176.1563,1216.75 Q1176.1094,1216.3906 1175.9219,1216.2031 Q1175.5938,1215.8281 1174.9844,1215.6094 Q1174.375,1215.3906 1173.75,1215.3906 Q1172.9844,1215.3906 1172.3438,1215.7188 Q1171.7188,1216.0469 1171.2188,1216.7969 Q1170.7344,1217.5469 1170.7344,1218.5781 L1170.7344,1219.6719 Q1170.7344,1220.9063 1171.625,1221.7344 Q1172.5156,1222.5469 1174.1094,1222.5469 Q1175.0469,1222.5469 1175.7031,1222.2969 Q1176.0938,1222.1406 1176.5156,1221.7031 Q1176.7813,1221.4375 1176.9219,1221.3594 Q1177.0781,1221.2813 1177.2813,1221.2813 Q1177.6094,1221.2813 1177.8594,1221.5469 Q1178.125,1221.7969 1178.125,1222.1406 Q1178.125,1222.4844 1177.7813,1222.8906 Q1177.2813,1223.4688 1176.4844,1223.7969 Q1175.4063,1224.25 1174.1094,1224.25 Q1172.5938,1224.25 1171.3906,1223.625 Q1170.4063,1223.125 1169.7188,1222.0625 Q1169.0313,1220.9844 1169.0313,1219.7031 L1169.0313,1218.5469 Q1169.0313,1217.2188 1169.6406,1216.0781 Q1170.2656,1214.9219 1171.3594,1214.3125 Q1172.4531,1213.6875 1173.6875,1213.6875 Q1174.4219,1213.6875 1175.0625,1213.8594 Q1175.7188,1214.0156 1176.2656,1214.375 Z " fill="#000000"/><text fill="#000000" font-family="sans-serif" font-size="14" lengthAdjust="spacing" textLength="97" x="1187.5" y="1224.2285">GenericService</text><rect fill="#FFFFFF" height="17.0938" style="stroke:#000000;stroke-width:1.0;stroke-dasharray:2.0,2.0;" width="292" x="1292.5" y="1199.5"/><text fill="#000000" font-family="sans-serif" font-size="12" font-style="italic" lengthAdjust="spacing" textLength="290" x="1293.5" y="1212.957">EntityType, CreateDtoType, UpdateDtoType, DtoType</text><line style="stroke:#181818;stroke-width:0.5;" x1="1159.5" x2="1580.5" y1="1234.5" y2="1234.5"/><rect fill="none" height="6" style="stroke:#C82930;stroke-width:1.0;" width="6" x="1166.5" y="1242.5"/><text fill="#000000" font-family="sans-serif" font-size="14" lengthAdjust="spacing" textLength="271" x="1178.5" y="1253.0332">repository IGenericRepository&lt;EntityType&gt;</text><line style="stroke:#181818;stroke-width:1.0;" x1="1159.5" x2="1580.5" y1="1260.1094" y2="1260.1094"/><rect fill="none" height="6" style="stroke:#C82930;stroke-width:1.0;" width="6" x="1166.5" y="1268.1094"/><text fill="#000000" font-family="sans-serif" font-size="14" lengthAdjust="spacing" textLength="137" x="1178.5" y="1278.6426">logger *logrus.Logger</text><line style="stroke:#181818;stroke-width:1.0;" x1="1159.5" x2="1580.5" y1="1285.7188" y2="1285.7188"/><rect fill="none" height="6" style="stroke:#C82930;stroke-width:1.0;" width="6" x="1166.5" y="1293.7188"/><text fill="#000000" font-family="sans-serif" font-size="14" lengthAdjust="spacing" textLength="139" x="1178.5" y="1304.252">logSourceName string</text></g><!--MD5=[2a39a5be1cc24ddddd6e6286e4ece992]
class IEntityModel--><g id="elem_IEntityModel"><rect codeLine="3" fill="#F1F1F1" height="65.6094" id="IEntityModel" rx="2.5" ry="2.5" style="stroke:#181818;stroke-width:0.5;" width="138" x="229" y="666.5"/><ellipse cx="256.6" cy="682.5" fill="#B4A7E5" rx="11" ry="11" style="stroke:#181818;stroke-width:1.0;"/><path d="M257.5531,679.1406 L257.5531,685.7969 L259.2719,685.7969 Q259.8813,685.7969 260.1469,686.0313 Q260.4125,686.2656 260.4125,686.6563 Q260.4125,687.0313 260.1469,687.2656 Q259.8813,687.5 259.2719,687.5 L254.1313,687.5 Q253.5219,687.5 253.2563,687.2656 Q252.9906,687.0313 252.9906,686.6406 Q252.9906,686.2656 253.2563,686.0313 Q253.5219,685.7969 254.1313,685.7969 L255.85,685.7969 L255.85,679.1406 L254.1313,679.1406 Q253.5219,679.1406 253.2563,678.9063 Q252.9906,678.6719 252.9906,678.2813 Q252.9906,677.9063 253.2563,677.6719 Q253.5219,677.4375 254.1313,677.4375 L259.2719,677.4375 Q259.8813,677.4375 260.1469,677.6719 Q260.4125,677.9063 260.4125,678.2813 Q260.4125,678.6719 260.1469,678.9063 Q259.8813,679.1406 259.2719,679.1406 L257.5531,679.1406 Z " fill="#000000"/><text fill="#000000" font-family="sans-serif" font-size="14" font-style="italic" lengthAdjust="spacing" textLength="78" x="273.4" y="688.2285">IEntityModel</text><line style="stroke:#181818;stroke-width:0.5;" x1="230" x2="366" y1="698.5" y2="698.5"/><line style="stroke:#181818;stroke-width:0.5;" x1="230" x2="366" y1="706.5" y2="706.5"/><ellipse cx="240" cy="717.5" fill="#84BE84" rx="3" ry="3" style="stroke:#038048;stroke-width:1.0;"/><text fill="#000000" font-family="sans-serif" font-size="14" lengthAdjust="spacing" textLength="112" x="249" y="725.0332">GetID() uuid.UUID</text></g><!--MD5=[01906ac0e62f22b4e38e996248db568e]
class IEntityModelDeletedAt--><g id="elem_IEntityModelDeletedAt"><rect codeLine="3" fill="#F1F1F1" height="65.6094" id="IEntityModelDeletedAt" rx="2.5" ry="2.5" style="stroke:#181818;stroke-width:0.5;" width="172" x="22" y="666.5"/><ellipse cx="37" cy="682.5" fill="#B4A7E5" rx="11" ry="11" style="stroke:#181818;stroke-width:1.0;"/><path d="M37.9531,679.1406 L37.9531,685.7969 L39.6719,685.7969 Q40.2813,685.7969 40.5469,686.0313 Q40.8125,686.2656 40.8125,686.6563 Q40.8125,687.0313 40.5469,687.2656 Q40.2813,687.5 39.6719,687.5 L34.5313,687.5 Q33.9219,687.5 33.6563,687.2656 Q33.3906,687.0313 33.3906,686.6406 Q33.3906,686.2656 33.6563,686.0313 Q33.9219,685.7969 34.5313,685.7969 L36.25,685.7969 L36.25,679.1406 L34.5313,679.1406 Q33.9219,679.1406 33.6563,678.9063 Q33.3906,678.6719 33.3906,678.2813 Q33.3906,677.9063 33.6563,677.6719 Q33.9219,677.4375 34.5313,677.4375 L39.6719,677.4375 Q40.2813,677.4375 40.5469,677.6719 Q40.8125,677.9063 40.8125,678.2813 Q40.8125,678.6719 40.5469,678.9063 Q40.2813,679.1406 39.6719,679.1406 L37.9531,679.1406 Z " fill="#000000"/><text fill="#000000" font-family="sans-serif" font-size="14" font-style="italic" lengthAdjust="spacing" textLength="140" x="51" y="688.2285">IEntityModelDeletedAt</text><line style="stroke:#181818;stroke-width:0.5;" x1="23" x2="193" y1="698.5" y2="698.5"/><line style="stroke:#181818;stroke-width:0.5;" x1="23" x2="193" y1="706.5" y2="706.5"/><ellipse cx="33" cy="717.5" fill="#84BE84" rx="3" ry="3" style="stroke:#038048;stroke-width:1.0;"/><text fill="#000000" font-family="sans-serif" font-size="14" lengthAdjust="spacing" textLength="80" x="42" y="725.0332">SetDeleted()</text></g><g id="elem_GMN717"><path d="M22.5,920 L22.5,962.7031 A0,0 0 0 0 22.5,962.7031 L341.5,962.7031 A0,0 0 0 0 341.5,962.7031 L341.5,930 L331.5,920 L179.65,920 L117.98,732.87 L171.65,920 L22.5,920 A0,0 0 0 0 22.5,920 " fill="#FEFFDD" style="stroke:#181818;stroke-width:0.5;"/><path d="M331.5,920 L331.5,930 L341.5,930 L331.5,920 " fill="#FEFFDD" style="stroke:#181818;stroke-width:0.5;"/><text fill="#000000" font-family="sans-serif" font-size="13" lengthAdjust="spacing" textLength="98" x="28.5" y="938.4951">Set deletion time</text><text fill="#000000" font-family="sans-serif" font-size="13" lengthAdjust="spacing" textLength="298" x="28.5" y="954.8467">This method marks that the entity has been deleted</text></g><!--MD5=[b3e0f8dcddb1b27f071a0303a68762bf]
class IGenericRepository--><g id="elem_IGenericRepository"><rect codeLine="3" fill="#F1F1F1" height="236.875" id="IGenericRepository" rx="2.5" ry="2.5" style="stroke:#181818;stroke-width:0.5;" width="920" x="781" y="581"/><ellipse cx="1145.25" cy="597" fill="#B4A7E5" rx="11" ry="11" style="stroke:#181818;stroke-width:1.0;"/><path d="M1146.2031,593.6406 L1146.2031,600.2969 L1147.9219,600.2969 Q1148.5313,600.2969 1148.7969,600.5313 Q1149.0625,600.7656 1149.0625,601.1563 Q1149.0625,601.5313 1148.7969,601.7656 Q1148.5313,602 1147.9219,602 L1142.7813,602 Q1142.1719,602 1141.9063,601.7656 Q1141.6406,601.5313 1141.6406,601.1406 Q1141.6406,600.7656 1141.9063,600.5313 Q1142.1719,600.2969 1142.7813,600.2969 L1144.5,600.2969 L1144.5,593.6406 L1142.7813,593.6406 Q1142.1719,593.6406 1141.9063,593.4063 Q1141.6406,593.1719 1141.6406,592.7813 Q1141.6406,592.4063 1141.9063,592.1719 Q1142.1719,591.9375 1142.7813,591.9375 L1147.9219,591.9375 Q1148.5313,591.9375 1148.7969,592.1719 Q1149.0625,592.4063 1149.0625,592.7813 Q1149.0625,593.1719 1148.7969,593.4063 Q1148.5313,593.6406 1147.9219,593.6406 L1146.2031,593.6406 Z " fill="#000000"/><text fill="#000000" font-family="sans-serif" font-size="14" font-style="italic" lengthAdjust="spacing" textLength="122" x="1165.75" y="602.7285">IGenericRepository</text><rect fill="#FFFFFF" height="17.0938" style="stroke:#000000;stroke-width:1.0;stroke-dasharray:2.0,2.0;" width="59" x="1645" y="578"/><text fill="#000000" font-family="sans-serif" font-size="12" font-style="italic" lengthAdjust="spacing" textLength="57" x="1646" y="591.457">EntityType</text><line style="stroke:#181818;stroke-width:0.5;" x1="782" x2="1700" y1="613" y2="613"/><ellipse cx="792" cy="624" fill="#84BE84" rx="3" ry="3" style="stroke:#038048;stroke-width:1.0;"/><text fill="#000000" font-family="sans-serif" font-size="14" lengthAdjust="spacing" textLength="894" x="801" y="631.5332">GetList(ctx context.Context, orderBy string, orderDirection string, page int, size int, queryBuilder interfaces.IQueryBuilder) (*[]EntityType, error)</text><line style="stroke:#181818;stroke-width:1.0;" x1="782" x2="1700" y1="638.6094" y2="638.6094"/><ellipse cx="792" cy="649.6094" fill="#84BE84" rx="3" ry="3" style="stroke:#038048;stroke-width:1.0;"/><text fill="#000000" font-family="sans-serif" font-size="14" lengthAdjust="spacing" textLength="494" x="801" y="657.1426">Count(ctx context.Context, queryBuilder interfaces.IQueryBuilder) (int64, error)</text><line style="stroke:#181818;stroke-width:1.0;" x1="782" x2="1700" y1="664.2188" y2="664.2188"/><ellipse cx="792" cy="675.2188" fill="#84BE84" rx="3" ry="3" style="stroke:#038048;stroke-width:1.0;"/><text fill="#000000" font-family="sans-serif" font-size="14" lengthAdjust="spacing" textLength="393" x="801" y="682.752">NewQueryBuilder(ctx context.Context) interfaces.IQueryBuilder</text><line style="stroke:#181818;stroke-width:1.0;" x1="782" x2="1700" y1="689.8281" y2="689.8281"/><ellipse cx="792" cy="700.8281" fill="#84BE84" rx="3" ry="3" style="stroke:#038048;stroke-width:1.0;"/><text fill="#000000" font-family="sans-serif" font-size="14" lengthAdjust="spacing" textLength="388" x="801" y="708.3613">GetById(ctx context.Context, id uuid.UUID) (*EntityType, error)</text><line style="stroke:#181818;stroke-width:1.0;" x1="782" x2="1700" y1="715.4375" y2="715.4375"/><ellipse cx="792" cy="726.4375" fill="#84BE84" rx="3" ry="3" style="stroke:#038048;stroke-width:1.0;"/><text fill="#000000" font-family="sans-serif" font-size="14" lengthAdjust="spacing" textLength="326" x="801" y="733.9707">Update(ctx context.Context, entity *EntityType) error</text><line style="stroke:#181818;stroke-width:1.0;" x1="782" x2="1700" y1="741.0469" y2="741.0469"/><ellipse cx="792" cy="752.0469" fill="#84BE84" rx="3" ry="3" style="stroke:#038048;stroke-width:1.0;"/><text fill="#000000" font-family="sans-serif" font-size="14" lengthAdjust="spacing" textLength="391" x="801" y="759.5801">Insert(ctx context.Context, entity EntityType) (uuid.UUID, error)</text><line style="stroke:#181818;stroke-width:1.0;" x1="782" x2="1700" y1="766.6563" y2="766.6563"/><ellipse cx="792" cy="777.6563" fill="#84BE84" rx="3" ry="3" style="stroke:#038048;stroke-width:1.0;"/><text fill="#000000" font-family="sans-serif" font-size="14" lengthAdjust="spacing" textLength="289" x="801" y="785.1895">Delete(ctx context.Context, id uuid.UUID) error</text><line style="stroke:#181818;stroke-width:1.0;" x1="782" x2="1700" y1="792.2656" y2="792.2656"/><ellipse cx="792" cy="803.2656" fill="#84BE84" rx="3" ry="3" style="stroke:#038048;stroke-width:1.0;"/><text fill="#000000" font-family="sans-serif" font-size="14" lengthAdjust="spacing" textLength="99" x="801" y="810.7988">CloseDb() error</text></g><path d="M402.5,554 L402.5,580.3516 A0,0 0 0 0 402.5,580.3516 L696.5,580.3516 A0,0 0 0 0 696.5,580.3516 L696.5,572 L785,625.8047 L696.5,564 L696.5,564 L686.5,554 L402.5,554 A0,0 0 0 0 402.5,554 " fill="#FEFFDD" style="stroke:#181818;stroke-width:0.5;"/><path d="M686.5,554 L686.5,564 L696.5,564 L686.5,554 " fill="#FEFFDD" style="stroke:#181818;stroke-width:0.5;"/><text fill="#000000" font-family="sans-serif" font-size="13" lengthAdjust="spacing" textLength="273" x="408.5" y="572.4951">Get list of elements with filtering and pagination</text><path d="M402.5,590.3516 L402.5,616.7031 A0,0 0 0 0 402.5,616.7031 L612.5,616.7031 A0,0 0 0 0 612.5,616.7031 L612.5,608.3516 L785,651.4141 L612.5,600.3516 L612.5,600.3516 L602.5,590.3516 L402.5,590.3516 A0,0 0 0 0 402.5,590.3516 " fill="#FEFFDD" style="stroke:#181818;stroke-width:0.5;"/><path d="M602.5,590.3516 L602.5,600.3516 L612.5,600.3516 L602.5,590.3516 " fill="#FEFFDD" style="stroke:#181818;stroke-width:0.5;"/><text fill="#000000" font-family="sans-serif" font-size="13" lengthAdjust="spacing" textLength="189" x="408.5" y="608.8467">Get count of entities with filtering</text><path d="M402.5,626.7031 L402.5,653.0547 A0,0 0 0 0 402.5,653.0547 L638.5,653.0547 A0,0 0 0 0 638.5,653.0547 L638.5,644.7031 L785,677.0234 L638.5,636.7031 L638.5,636.7031 L628.5,626.7031 L402.5,626.7031 A0,0 0 0 0 402.5,626.7031 " fill="#FEFFDD" style="stroke:#181818;stroke-width:0.5;"/><path d="M628.5,626.7031 L628.5,636.7031 L638.5,636.7031 L628.5,626.7031 " fill="#FEFFDD" style="stroke:#181818;stroke-width:0.5;"/><text fill="#000000" font-family="sans-serif" font-size="13" lengthAdjust="spacing" textLength="215" x="408.5" y="645.1982">Get new instance of the query builder</text><path d="M402.5,663.0547 L402.5,689.4063 A0,0 0 0 0 402.5,689.4063 L604.5,689.4063 A0,0 0 0 0 604.5,689.4063 L604.5,681.0547 L785,702.6328 L604.5,673.0547 L604.5,673.0547 L594.5,663.0547 L402.5,663.0547 A0,0 0 0 0 402.5,663.0547 " fill="#FEFFDD" style="stroke:#181818;stroke-width:0.5;"/><path d="M594.5,663.0547 L594.5,673.0547 L604.5,673.0547 L594.5,663.0547 " fill="#FEFFDD" style="stroke:#181818;stroke-width:0.5;"/><text fill="#000000" font-family="sans-serif" font-size="13" lengthAdjust="spacing" textLength="181" x="408.5" y="681.5498">Get entity by ID from repository</text><path d="M402.5,699.4063 L402.5,725.7578 A0,0 0 0 0 402.5,725.7578 L745.5,725.7578 A0,0 0 0 0 745.5,725.7578 L745.5,717.4063 L785,728.2422 L745.5,709.4063 L745.5,709.4063 L735.5,699.4063 L402.5,699.4063 A0,0 0 0 0 402.5,699.4063 " fill="#FEFFDD" style="stroke:#181818;stroke-width:0.5;"/><path d="M735.5,699.4063 L735.5,709.4063 L745.5,709.4063 L735.5,699.4063 " fill="#FEFFDD" style="stroke:#181818;stroke-width:0.5;"/><text fill="#000000" font-family="sans-serif" font-size="13" lengthAdjust="spacing" textLength="322" x="408.5" y="717.9014">Save the changes to the existing entity in the repository</text><path d="M402.5,735.7578 L402.5,762.1094 A0,0 0 0 0 402.5,762.1094 L580.5,762.1094 A0,0 0 0 0 580.5,762.1094 L580.5,753.7578 L785,753.8516 L580.5,745.7578 L580.5,745.7578 L570.5,735.7578 L402.5,735.7578 A0,0 0 0 0 402.5,735.7578 " fill="#FEFFDD" style="stroke:#181818;stroke-width:0.5;"/><path d="M570.5,735.7578 L570.5,745.7578 L580.5,745.7578 L570.5,735.7578 " fill="#FEFFDD" style="stroke:#181818;stroke-width:0.5;"/><text fill="#000000" font-family="sans-serif" font-size="13" lengthAdjust="spacing" textLength="157" x="408.5" y="754.2529">Add entity to the repository</text><path d="M402.5,772.1094 L402.5,798.4609 A0,0 0 0 0 402.5,798.4609 L604.5,798.4609 A0,0 0 0 0 604.5,798.4609 L604.5,790.1094 L785,779.4609 L604.5,782.1094 L604.5,782.1094 L594.5,772.1094 L402.5,772.1094 A0,0 0 0 0 402.5,772.1094 " fill="#FEFFDD" style="stroke:#181818;stroke-width:0.5;"/><path d="M594.5,772.1094 L594.5,782.1094 L604.5,782.1094 L594.5,772.1094 " fill="#FEFFDD" style="stroke:#181818;stroke-width:0.5;"/><text fill="#000000" font-family="sans-serif" font-size="13" lengthAdjust="spacing" textLength="181" x="408.5" y="790.6045">Delete entity from the database</text><path d="M402.5,808.4609 L402.5,834.8125 A0,0 0 0 0 402.5,834.8125 L631.5,834.8125 A0,0 0 0 0 631.5,834.8125 L631.5,826.4609 L785,805.0703 L631.5,818.4609 L631.5,818.4609 L621.5,808.4609 L402.5,808.4609 A0,0 0 0 0 402.5,808.4609 " fill="#FEFFDD" style="stroke:#181818;stroke-width:0.5;"/><path d="M621.5,808.4609 L621.5,818.4609 L631.5,818.4609 L621.5,808.4609 " fill="#FEFFDD" style="stroke:#181818;stroke-width:0.5;"/><text fill="#000000" font-family="sans-serif" font-size="13" lengthAdjust="spacing" textLength="208" x="408.5" y="826.9561">Closes current database connection</text><!--MD5=[1a84540a21143f0caa8ee836a5a25a4f]
class LogService--><g id="elem_LogService"><rect codeLine="8" fill="#F1F1F1" height="65.6094" id="LogService" rx="2.5" ry="2.5" style="stroke:#181818;stroke-width:0.5;" width="214" x="1333" y="909"/><ellipse cx="1400.25" cy="925" fill="#ADD1B2" rx="11" ry="11" style="stroke:#181818;stroke-width:1.0;"/><path d="M1403.0156,920.875 Q1403.1719,920.6563 1403.3594,920.5469 Q1403.5469,920.4375 1403.7656,920.4375 Q1404.1406,920.4375 1404.375,920.7031 Q1404.6094,920.9531 1404.6094,921.5625 L1404.6094,923.0156 Q1404.6094,923.625 1404.375,923.8906 Q1404.1406,924.1563 1403.7656,924.1563 Q1403.4219,924.1563 1403.2188,923.9531 Q1403.0156,923.7656 1402.9063,923.25 Q1402.8594,922.8906 1402.6719,922.7031 Q1402.3438,922.3281 1401.7344,922.1094 Q1401.125,921.8906 1400.5,921.8906 Q1399.7344,921.8906 1399.0938,922.2188 Q1398.4688,922.5469 1397.9688,923.2969 Q1397.4844,924.0469 1397.4844,925.0781 L1397.4844,926.1719 Q1397.4844,927.4063 1398.375,928.2344 Q1399.2656,929.0469 1400.8594,929.0469 Q1401.7969,929.0469 1402.4531,928.7969 Q1402.8438,928.6406 1403.2656,928.2031 Q1403.5313,927.9375 1403.6719,927.8594 Q1403.8281,927.7813 1404.0313,927.7813 Q1404.3594,927.7813 1404.6094,928.0469 Q1404.875,928.2969 1404.875,928.6406 Q1404.875,928.9844 1404.5313,929.3906 Q1404.0313,929.9688 1403.2344,930.2969 Q1402.1563,930.75 1400.8594,930.75 Q1399.3438,930.75 1398.1406,930.125 Q1397.1563,929.625 1396.4688,928.5625 Q1395.7813,927.4844 1395.7813,926.2031 L1395.7813,925.0469 Q1395.7813,923.7188 1396.3906,922.5781 Q1397.0156,921.4219 1398.1094,920.8125 Q1399.2031,920.1875 1400.4375,920.1875 Q1401.1719,920.1875 1401.8125,920.3594 Q1402.4688,920.5156 1403.0156,920.875 Z " fill="#000000"/><text fill="#000000" font-family="sans-serif" font-size="14" lengthAdjust="spacing" textLength="71" x="1420.75" y="930.7285">LogService</text><line style="stroke:#181818;stroke-width:0.5;" x1="1334" x2="1546" y1="941" y2="941"/><rect fill="none" height="6" style="stroke:#C82930;stroke-width:1.0;" width="6" x="1341" y="949"/><text fill="#000000" font-family="sans-serif" font-size="14" lengthAdjust="spacing" textLength="188" x="1353" y="959.5332">repository IGenericRepository</text><line style="stroke:#181818;stroke-width:1.0;" x1="1334" x2="1546" y1="966.6094" y2="966.6094"/></g><g id="elem_GMN751"><path d="M1046.5,928.5 L1046.5,954.8516 A0,0 0 0 0 1046.5,954.8516 L1289.5,954.8516 A0,0 0 0 0 1289.5,954.8516 L1289.5,946.5 L1324.89,941.5 L1289.5,938.5 L1289.5,938.5 L1279.5,928.5 L1046.5,928.5 A0,0 0 0 0 1046.5,928.5 " fill="#FEFFDD" style="stroke:#181818;stroke-width:0.5;"/><path d="M1279.5,928.5 L1279.5,938.5 L1289.5,938.5 L1279.5,928.5 " fill="#FEFFDD" style="stroke:#181818;stroke-width:0.5;"/><text fill="#000000" font-family="sans-serif" font-size="13" lengthAdjust="spacing" textLength="222" x="1052.5" y="946.9951">Advanced business logic for Log entity</text></g><g id="elem_LogServiceTypes"><path d="M1406.5,1038 L1406.5,1129.7578 L1615.5,1129.7578 L1615.5,1048 L1605.5,1038 L1406.5,1038 " fill="#FEFFDD" style="stroke:#181818;stroke-width:0.5;"/><path d="M1605.5,1038 L1605.5,1048 L1615.5,1048 L1605.5,1038 " fill="#FEFFDD" style="stroke:#181818;stroke-width:1.0;"/><text fill="#000000" font-family="sans-serif" font-size="13" lengthAdjust="spacing" textLength="101" x="1412.5" y="1056.4951">EntityType is Log</text><text fill="#000000" font-family="sans-serif" font-size="13" lengthAdjust="spacing" textLength="145" x="1412.5" y="1072.8467">CreateDtoType is LogDto</text><text fill="#000000" font-family="sans-serif" font-size="13" lengthAdjust="spacing" textLength="148" x="1412.5" y="1089.1982">UpdateDtoType is LogDto</text><text fill="#000000" font-family="sans-serif" font-size="13" lengthAdjust="spacing" textLength="107" x="1412.5" y="1105.5498">DtoType is LogDto</text><text fill="#000000" font-family="sans-serif" font-size="13" lengthAdjust="spacing" textLength="188" x="1412.5" y="1121.9014">Because the service is read-only</text></g><!--MD5=[be996cdb8e6bf2fc7cb89c555f2cd144]
class Entity--><g id="elem_Entity"><rect codeLine="6" fill="#F1F1F1" height="134.4375" id="Entity" rx="2.5" ry="2.5" style="stroke:#181818;stroke-width:0.5;" width="250" x="173" y="236"/><ellipse cx="276.25" cy="252" fill="#ADD1B2" rx="11" ry="11" style="stroke:#181818;stroke-width:1.0;"/><path d="M279.0156,247.875 Q279.1719,247.6563 279.3594,247.5469 Q279.5469,247.4375 279.7656,247.4375 Q280.1406,247.4375 280.375,247.7031 Q280.6094,247.9531 280.6094,248.5625 L280.6094,250.0156 Q280.6094,250.625 280.375,250.8906 Q280.1406,251.1563 279.7656,251.1563 Q279.4219,251.1563 279.2188,250.9531 Q279.0156,250.7656 278.9063,250.25 Q278.8594,249.8906 278.6719,249.7031 Q278.3438,249.3281 277.7344,249.1094 Q277.125,248.8906 276.5,248.8906 Q275.7344,248.8906 275.0938,249.2188 Q274.4688,249.5469 273.9688,250.2969 Q273.4844,251.0469 273.4844,252.0781 L273.4844,253.1719 Q273.4844,254.4063 274.375,255.2344 Q275.2656,256.0469 276.8594,256.0469 Q277.7969,256.0469 278.4531,255.7969 Q278.8438,255.6406 279.2656,255.2031 Q279.5313,254.9375 279.6719,254.8594 Q279.8281,254.7813 280.0313,254.7813 Q280.3594,254.7813 280.6094,255.0469 Q280.875,255.2969 280.875,255.6406 Q280.875,255.9844 280.5313,256.3906 Q280.0313,256.9688 279.2344,257.2969 Q278.1563,257.75 276.8594,257.75 Q275.3438,257.75 274.1406,257.125 Q273.1563,256.625 272.4688,255.5625 Q271.7813,254.4844 271.7813,253.2031 L271.7813,252.0469 Q271.7813,250.7188 272.3906,249.5781 Q273.0156,248.4219 274.1094,247.8125 Q275.2031,247.1875 276.4375,247.1875 Q277.1719,247.1875 277.8125,247.3594 Q278.4688,247.5156 279.0156,247.875 Z " fill="#000000"/><text fill="#000000" font-family="sans-serif" font-size="14" lengthAdjust="spacing" textLength="35" x="296.75" y="257.7285">Entity</text><line style="stroke:#181818;stroke-width:0.5;" x1="174" x2="422" y1="268" y2="268"/><ellipse cx="184" cy="279" fill="none" rx="3" ry="3" style="stroke:#038048;stroke-width:1.0;"/><text fill="#000000" font-family="sans-serif" font-size="14" lengthAdjust="spacing" textLength="208" x="193" y="286.5332">ID uuid.UUID `gorm:"primarykey"`</text><line style="stroke:#181818;stroke-width:1.0;" x1="174" x2="422" y1="293.6094" y2="293.6094"/><ellipse cx="184" cy="304.6094" fill="none" rx="3" ry="3" style="stroke:#038048;stroke-width:1.0;"/><text fill="#000000" font-family="sans-serif" font-size="14" lengthAdjust="spacing" textLength="222" x="193" y="312.1426">CreatedAt time.Time `gorm:"index"`</text><line style="stroke:#181818;stroke-width:1.0;" x1="174" x2="422" y1="319.2188" y2="319.2188"/><ellipse cx="184" cy="330.2188" fill="none" rx="3" ry="3" style="stroke:#038048;stroke-width:1.0;"/><text fill="#000000" font-family="sans-serif" font-size="14" lengthAdjust="spacing" textLength="224" x="193" y="337.752">UpdatedAt time.Time `gorm:"index"`</text><line style="stroke:#181818;stroke-width:1.0;" x1="174" x2="422" y1="344.8281" y2="344.8281"/><ellipse cx="184" cy="355.8281" fill="none" rx="3" ry="3" style="stroke:#038048;stroke-width:1.0;"/><text fill="#000000" font-family="sans-serif" font-size="14" lengthAdjust="spacing" textLength="220" x="193" y="363.3613">DeletedAt time.Time `gorm:"index"`</text></g><!--MD5=[063d74e43144aaa0d0cf3aecd3794497]
class Log--><g id="elem_Log"><rect codeLine="5" fill="#F1F1F1" height="134.4375" id="Log" rx="2.5" ry="2.5" style="stroke:#181818;stroke-width:0.5;" width="237" x="182.5" y="42"/><ellipse cx="284.75" cy="58" fill="#ADD1B2" rx="11" ry="11" style="stroke:#181818;stroke-width:1.0;"/><path d="M287.5156,53.875 Q287.6719,53.6563 287.8594,53.5469 Q288.0469,53.4375 288.2656,53.4375 Q288.6406,53.4375 288.875,53.7031 Q289.1094,53.9531 289.1094,54.5625 L289.1094,56.0156 Q289.1094,56.625 288.875,56.8906 Q288.6406,57.1563 288.2656,57.1563 Q287.9219,57.1563 287.7188,56.9531 Q287.5156,56.7656 287.4063,56.25 Q287.3594,55.8906 287.1719,55.7031 Q286.8438,55.3281 286.2344,55.1094 Q285.625,54.8906 285,54.8906 Q284.2344,54.8906 283.5938,55.2188 Q282.9688,55.5469 282.4688,56.2969 Q281.9844,57.0469 281.9844,58.0781 L281.9844,59.1719 Q281.9844,60.4063 282.875,61.2344 Q283.7656,62.0469 285.3594,62.0469 Q286.2969,62.0469 286.9531,61.7969 Q287.3438,61.6406 287.7656,61.2031 Q288.0313,60.9375 288.1719,60.8594 Q288.3281,60.7813 288.5313,60.7813 Q288.8594,60.7813 289.1094,61.0469 Q289.375,61.2969 289.375,61.6406 Q289.375,61.9844 289.0313,62.3906 Q288.5313,62.9688 287.7344,63.2969 Q286.6563,63.75 285.3594,63.75 Q283.8438,63.75 282.6406,63.125 Q281.6563,62.625 280.9688,61.5625 Q280.2813,60.4844 280.2813,59.2031 L280.2813,58.0469 Q280.2813,56.7188 280.8906,55.5781 Q281.5156,54.4219 282.6094,53.8125 Q283.7031,53.1875 284.9375,53.1875 Q285.6719,53.1875 286.3125,53.3594 Q286.9688,53.5156 287.5156,53.875 Z " fill="#000000"/><text fill="#000000" font-family="sans-serif" font-size="14" lengthAdjust="spacing" textLength="24" x="305.25" y="63.7285">Log</text><line style="stroke:#181818;stroke-width:0.5;" x1="183.5" x2="418.5" y1="74" y2="74"/><ellipse cx="193.5" cy="85" fill="none" rx="3" ry="3" style="stroke:#038048;stroke-width:1.0;"/><text fill="#000000" font-family="sans-serif" font-size="14" lengthAdjust="spacing" textLength="211" x="202.5" y="92.5332">ActionID uuid.UUID `gorm:"index"`</text><line style="stroke:#181818;stroke-width:1.0;" x1="183.5" x2="418.5" y1="99.6094" y2="99.6094"/><ellipse cx="193.5" cy="110.6094" fill="none" rx="3" ry="3" style="stroke:#038048;stroke-width:1.0;"/><text fill="#000000" font-family="sans-serif" font-size="14" lengthAdjust="spacing" textLength="73" x="202.5" y="118.1426">Level string</text><line style="stroke:#181818;stroke-width:1.0;" x1="183.5" x2="418.5" y1="125.2188" y2="125.2188"/><ellipse cx="193.5" cy="136.2188" fill="none" rx="3" ry="3" style="stroke:#038048;stroke-width:1.0;"/><text fill="#000000" font-family="sans-serif" font-size="14" lengthAdjust="spacing" textLength="84" x="202.5" y="143.752">Source string</text><line style="stroke:#181818;stroke-width:1.0;" x1="183.5" x2="418.5" y1="150.8281" y2="150.8281"/><ellipse cx="193.5" cy="161.8281" fill="none" rx="3" ry="3" style="stroke:#038048;stroke-width:1.0;"/><text fill="#000000" font-family="sans-serif" font-size="14" lengthAdjust="spacing" textLength="96" x="202.5" y="169.3613">Message string</text></g><!--MD5=[27abfb56f32eefa7f07c83348fb1ee32]
class GormGenericRepository--><g id="elem_GormGenericRepository"><rect codeLine="5" fill="#F1F1F1" height="48" id="GormGenericRepository" rx="2.5" ry="2.5" style="stroke:#181818;stroke-width:0.5;" width="246" x="1118" y="430"/><ellipse cx="1133" cy="446" fill="#ADD1B2" rx="11" ry="11" style="stroke:#181818;stroke-width:1.0;"/><path d="M1135.7656,441.875 Q1135.9219,441.6563 1136.1094,441.5469 Q1136.2969,441.4375 1136.5156,441.4375 Q1136.8906,441.4375 1137.125,441.7031 Q1137.3594,441.9531 1137.3594,442.5625 L1137.3594,444.0156 Q1137.3594,444.625 1137.125,444.8906 Q1136.8906,445.1563 1136.5156,445.1563 Q1136.1719,445.1563 1135.9688,444.9531 Q1135.7656,444.7656 1135.6563,444.25 Q1135.6094,443.8906 1135.4219,443.7031 Q1135.0938,443.3281 1134.4844,443.1094 Q1133.875,442.8906 1133.25,442.8906 Q1132.4844,442.8906 1131.8438,443.2188 Q1131.2188,443.5469 1130.7188,444.2969 Q1130.2344,445.0469 1130.2344,446.0781 L1130.2344,447.1719 Q1130.2344,448.4063 1131.125,449.2344 Q1132.0156,450.0469 1133.6094,450.0469 Q1134.5469,450.0469 1135.2031,449.7969 Q1135.5938,449.6406 1136.0156,449.2031 Q1136.2813,448.9375 1136.4219,448.8594 Q1136.5781,448.7813 1136.7813,448.7813 Q1137.1094,448.7813 1137.3594,449.0469 Q1137.625,449.2969 1137.625,449.6406 Q1137.625,449.9844 1137.2813,450.3906 Q1136.7813,450.9688 1135.9844,451.2969 Q1134.9063,451.75 1133.6094,451.75 Q1132.0938,451.75 1130.8906,451.125 Q1129.9063,450.625 1129.2188,449.5625 Q1128.5313,448.4844 1128.5313,447.2031 L1128.5313,446.0469 Q1128.5313,444.7188 1129.1406,443.5781 Q1129.7656,442.4219 1130.8594,441.8125 Q1131.9531,441.1875 1133.1875,441.1875 Q1133.9219,441.1875 1134.5625,441.3594 Q1135.2188,441.5156 1135.7656,441.875 Z " fill="#000000"/><text fill="#000000" font-family="sans-serif" font-size="14" lengthAdjust="spacing" textLength="153" x="1147" y="451.7285">GormGenericRepository</text><rect fill="#FFFFFF" height="17.0938" style="stroke:#000000;stroke-width:1.0;stroke-dasharray:2.0,2.0;" width="59" x="1308" y="427"/><text fill="#000000" font-family="sans-serif" font-size="12" font-style="italic" lengthAdjust="spacing" textLength="57" x="1309" y="440.457">EntityType</text><line style="stroke:#181818;stroke-width:0.5;" x1="1119" x2="1363" y1="462" y2="462"/><line style="stroke:#181818;stroke-width:0.5;" x1="1119" x2="1363" y1="470" y2="470"/></g><!--MD5=[8f4cc9c7b9b5dcc33f9071a0b0037015]
class LogRepository--><g id="elem_LogRepository"><rect codeLine="6" fill="#F1F1F1" height="48" id="LogRepository" rx="2.5" ry="2.5" style="stroke:#181818;stroke-width:0.5;" width="124" x="1227" y="85"/><ellipse cx="1242" cy="101" fill="#ADD1B2" rx="11" ry="11" style="stroke:#181818;stroke-width:1.0;"/><path d="M1244.7656,96.875 Q1244.9219,96.6563 1245.1094,96.5469 Q1245.2969,96.4375 1245.5156,96.4375 Q1245.8906,96.4375 1246.125,96.7031 Q1246.3594,96.9531 1246.3594,97.5625 L1246.3594,99.0156 Q1246.3594,99.625 1246.125,99.8906 Q1245.8906,100.1563 1245.5156,100.1563 Q1245.1719,100.1563 1244.9688,99.9531 Q1244.7656,99.7656 1244.6563,99.25 Q1244.6094,98.8906 1244.4219,98.7031 Q1244.0938,98.3281 1243.4844,98.1094 Q1242.875,97.8906 1242.25,97.8906 Q1241.4844,97.8906 1240.8438,98.2188 Q1240.2188,98.5469 1239.7188,99.2969 Q1239.2344,100.0469 1239.2344,101.0781 L1239.2344,102.1719 Q1239.2344,103.4063 1240.125,104.2344 Q1241.0156,105.0469 1242.6094,105.0469 Q1243.5469,105.0469 1244.2031,104.7969 Q1244.5938,104.6406 1245.0156,104.2031 Q1245.2813,103.9375 1245.4219,103.8594 Q1245.5781,103.7813 1245.7813,103.7813 Q1246.1094,103.7813 1246.3594,104.0469 Q1246.625,104.2969 1246.625,104.6406 Q1246.625,104.9844 1246.2813,105.3906 Q1245.7813,105.9688 1244.9844,106.2969 Q1243.9063,106.75 1242.6094,106.75 Q1241.0938,106.75 1239.8906,106.125 Q1238.9063,105.625 1238.2188,104.5625 Q1237.5313,103.4844 1237.5313,102.2031 L1237.5313,101.0469 Q1237.5313,99.7188 1238.1406,98.5781 Q1238.7656,97.4219 1239.8594,96.8125 Q1240.9531,96.1875 1242.1875,96.1875 Q1242.9219,96.1875 1243.5625,96.3594 Q1244.2188,96.5156 1244.7656,96.875 Z " fill="#000000"/><text fill="#000000" font-family="sans-serif" font-size="14" lengthAdjust="spacing" textLength="92" x="1256" y="106.7285">LogRepository</text><line style="stroke:#181818;stroke-width:0.5;" x1="1228" x2="1350" y1="117" y2="117"/><line style="stroke:#181818;stroke-width:0.5;" x1="1228" x2="1350" y1="125" y2="125"/></g><g id="elem_LogTypeNote"><path d="M1131,290 L1131,316.3516 L1253,316.3516 L1253,300 L1243,290 L1131,290 " fill="#FEFFDD" style="stroke:#181818;stroke-width:0.5;"/><path d="M1243,290 L1243,300 L1253,300 L1243,290 " fill="#FEFFDD" style="stroke:#181818;stroke-width:1.0;"/><text fill="#000000" font-family="sans-serif" font-size="13" lengthAdjust="spacing" textLength="101" x="1137" y="308.4951">EntityType is Log</text></g><!--MD5=[a203eca1f0769929ae1344e0135bff6b]
class BaseDto--><g id="elem_BaseDto"><rect codeLine="3" fill="#F1F1F1" height="108.8281" id="BaseDto" rx="2.5" ry="2.5" style="stroke:#181818;stroke-width:0.5;" width="157" x="1797.5" y="1420.5"/><ellipse cx="1844.75" cy="1436.5" fill="#ADD1B2" rx="11" ry="11" style="stroke:#181818;stroke-width:1.0;"/><path d="M1847.5156,1432.375 Q1847.6719,1432.1563 1847.8594,1432.0469 Q1848.0469,1431.9375 1848.2656,1431.9375 Q1848.6406,1431.9375 1848.875,1432.2031 Q1849.1094,1432.4531 1849.1094,1433.0625 L1849.1094,1434.5156 Q1849.1094,1435.125 1848.875,1435.3906 Q1848.6406,1435.6563 1848.2656,1435.6563 Q1847.9219,1435.6563 1847.7188,1435.4531 Q1847.5156,1435.2656 1847.4063,1434.75 Q1847.3594,1434.3906 1847.1719,1434.2031 Q1846.8438,1433.8281 1846.2344,1433.6094 Q1845.625,1433.3906 1845,1433.3906 Q1844.2344,1433.3906 1843.5938,1433.7188 Q1842.9688,1434.0469 1842.4688,1434.7969 Q1841.9844,1435.5469 1841.9844,1436.5781 L1841.9844,1437.6719 Q1841.9844,1438.9063 1842.875,1439.7344 Q1843.7656,1440.5469 1845.3594,1440.5469 Q1846.2969,1440.5469 1846.9531,1440.2969 Q1847.3438,1440.1406 1847.7656,1439.7031 Q1848.0313,1439.4375 1848.1719,1439.3594 Q1848.3281,1439.2813 1848.5313,1439.2813 Q1848.8594,1439.2813 1849.1094,1439.5469 Q1849.375,1439.7969 1849.375,1440.1406 Q1849.375,1440.4844 1849.0313,1440.8906 Q1848.5313,1441.4688 1847.7344,1441.7969 Q1846.6563,1442.25 1845.3594,1442.25 Q1843.8438,1442.25 1842.6406,1441.625 Q1841.6563,1441.125 1840.9688,1440.0625 Q1840.2813,1438.9844 1840.2813,1437.7031 L1840.2813,1436.5469 Q1840.2813,1435.2188 1840.8906,1434.0781 Q1841.5156,1432.9219 1842.6094,1432.3125 Q1843.7031,1431.6875 1844.9375,1431.6875 Q1845.6719,1431.6875 1846.3125,1431.8594 Q1846.9688,1432.0156 1847.5156,1432.375 Z " fill="#000000"/><text fill="#000000" font-family="sans-serif" font-size="14" lengthAdjust="spacing" textLength="54" x="1865.25" y="1442.2285">BaseDto</text><line style="stroke:#181818;stroke-width:0.5;" x1="1798.5" x2="1953.5" y1="1452.5" y2="1452.5"/><ellipse cx="1808.5" cy="1463.5" fill="none" rx="3" ry="3" style="stroke:#038048;stroke-width:1.0;"/><text fill="#000000" font-family="sans-serif" font-size="14" lengthAdjust="spacing" textLength="79" x="1817.5" y="1471.0332">ID uuid.UUID</text><line style="stroke:#181818;stroke-width:1.0;" x1="1798.5" x2="1953.5" y1="1478.1094" y2="1478.1094"/><ellipse cx="1808.5" cy="1489.1094" fill="none" rx="3" ry="3" style="stroke:#038048;stroke-width:1.0;"/><text fill="#000000" font-family="sans-serif" font-size="14" lengthAdjust="spacing" textLength="129" x="1817.5" y="1496.6426">CreatedAt time.Time</text><line style="stroke:#181818;stroke-width:1.0;" x1="1798.5" x2="1953.5" y1="1503.7188" y2="1503.7188"/><ellipse cx="1808.5" cy="1514.7188" fill="none" rx="3" ry="3" style="stroke:#038048;stroke-width:1.0;"/><text fill="#000000" font-family="sans-serif" font-size="14" lengthAdjust="spacing" textLength="131" x="1817.5" y="1522.252">UpdatedAt time.Time</text></g><!--MD5=[09eba51d36156165b60f5c384613b5fd]
class LogDto--><g id="elem_LogDto"><rect codeLine="5" fill="#F1F1F1" height="134.4375" id="LogDto" rx="2.5" ry="2.5" style="stroke:#181818;stroke-width:0.5;" width="237" x="1757.5" y="1190"/><ellipse cx="1848.75" cy="1206" fill="#ADD1B2" rx="11" ry="11" style="stroke:#181818;stroke-width:1.0;"/><path d="M1851.5156,1201.875 Q1851.6719,1201.6563 1851.8594,1201.5469 Q1852.0469,1201.4375 1852.2656,1201.4375 Q1852.6406,1201.4375 1852.875,1201.7031 Q1853.1094,1201.9531 1853.1094,1202.5625 L1853.1094,1204.0156 Q1853.1094,1204.625 1852.875,1204.8906 Q1852.6406,1205.1563 1852.2656,1205.1563 Q1851.9219,1205.1563 1851.7188,1204.9531 Q1851.5156,1204.7656 1851.4063,1204.25 Q1851.3594,1203.8906 1851.1719,1203.7031 Q1850.8438,1203.3281 1850.2344,1203.1094 Q1849.625,1202.8906 1849,1202.8906 Q1848.2344,1202.8906 1847.5938,1203.2188 Q1846.9688,1203.5469 1846.4688,1204.2969 Q1845.9844,1205.0469 1845.9844,1206.0781 L1845.9844,1207.1719 Q1845.9844,1208.4063 1846.875,1209.2344 Q1847.7656,1210.0469 1849.3594,1210.0469 Q1850.2969,1210.0469 1850.9531,1209.7969 Q1851.3438,1209.6406 1851.7656,1209.2031 Q1852.0313,1208.9375 1852.1719,1208.8594 Q1852.3281,1208.7813 1852.5313,1208.7813 Q1852.8594,1208.7813 1853.1094,1209.0469 Q1853.375,1209.2969 1853.375,1209.6406 Q1853.375,1209.9844 1853.0313,1210.3906 Q1852.5313,1210.9688 1851.7344,1211.2969 Q1850.6563,1211.75 1849.3594,1211.75 Q1847.8438,1211.75 1846.6406,1211.125 Q1845.6563,1210.625 1844.9688,1209.5625 Q1844.2813,1208.4844 1844.2813,1207.2031 L1844.2813,1206.0469 Q1844.2813,1204.7188 1844.8906,1203.5781 Q1845.5156,1202.4219 1846.6094,1201.8125 Q1847.7031,1201.1875 1848.9375,1201.1875 Q1849.6719,1201.1875 1850.3125,1201.3594 Q1850.9688,1201.5156 1851.5156,1201.875 Z " fill="#000000"/><text fill="#000000" font-family="sans-serif" font-size="14" lengthAdjust="spacing" textLength="46" x="1869.25" y="1211.7285">LogDto</text><line style="stroke:#181818;stroke-width:0.5;" x1="1758.5" x2="1993.5" y1="1222" y2="1222"/><ellipse cx="1768.5" cy="1233" fill="none" rx="3" ry="3" style="stroke:#038048;stroke-width:1.0;"/><text fill="#000000" font-family="sans-serif" font-size="14" lengthAdjust="spacing" textLength="211" x="1777.5" y="1240.5332">ActionID uuid.UUID `gorm:"index"`</text><line style="stroke:#181818;stroke-width:1.0;" x1="1758.5" x2="1993.5" y1="1247.6094" y2="1247.6094"/><ellipse cx="1768.5" cy="1258.6094" fill="none" rx="3" ry="3" style="stroke:#038048;stroke-width:1.0;"/><text fill="#000000" font-family="sans-serif" font-size="14" lengthAdjust="spacing" textLength="73" x="1777.5" y="1266.1426">Level string</text><line style="stroke:#181818;stroke-width:1.0;" x1="1758.5" x2="1993.5" y1="1273.2188" y2="1273.2188"/><ellipse cx="1768.5" cy="1284.2188" fill="none" rx="3" ry="3" style="stroke:#038048;stroke-width:1.0;"/><text fill="#000000" font-family="sans-serif" font-size="14" lengthAdjust="spacing" textLength="84" x="1777.5" y="1291.752">Source string</text><line style="stroke:#181818;stroke-width:1.0;" x1="1758.5" x2="1993.5" y1="1298.8281" y2="1298.8281"/><ellipse cx="1768.5" cy="1309.8281" fill="none" rx="3" ry="3" style="stroke:#038048;stroke-width:1.0;"/><text fill="#000000" font-family="sans-serif" font-size="14" lengthAdjust="spacing" textLength="96" x="1777.5" y="1317.3613">Message string</text></g><!--MD5=[56424cb3f8ebacad4e8ce83d86c39ad6]
link GenericService to IGenericService--><g id="link_GenericService_IGenericService"><path codeLine="11" d="M1349.13,1311.67 C1341.54,1331.19 1332.7,1353.92 1324.08,1376.07 " fill="none" id="GenericService-to-IGenericService" style="stroke:#181818;stroke-width:1.0;stroke-dasharray:7.0,7.0;"/><polygon fill="none" points="1330.54,1378.78,1316.77,1394.88,1317.49,1373.7,1330.54,1378.78" style="stroke:#181818;stroke-width:1.0;"/></g><!--MD5=[2557b70de049790e1c1a4cc262bbdad6]
link Entity to IEntityModelDeletedAt--><g id="link_Entity_IEntityModelDeletedAt"><path codeLine="15" d="M266.2,370.03 C228.54,448.22 166.63,576.77 132.5,647.64 " fill="none" id="Entity-to-IEntityModelDeletedAt" style="stroke:#181818;stroke-width:1.0;stroke-dasharray:7.0,7.0;"/><polygon fill="none" points="138.63,651.03,123.65,666.01,126.02,644.95,138.63,651.03" style="stroke:#181818;stroke-width:1.0;"/></g><!--MD5=[a6c7a0eda5b041e127f539f1664bb96a]
link Entity to IEntityModel--><g id="link_Entity_IEntityModel"><path codeLine="16" d="M298,370.03 C298,447.56 298,574.57 298,645.81 " fill="none" id="Entity-to-IEntityModel" style="stroke:#181818;stroke-width:1.0;stroke-dasharray:7.0,7.0;"/><polygon fill="none" points="305,646.01,298,666.01,291,646.01,305,646.01" style="stroke:#181818;stroke-width:1.0;"/></g><!--MD5=[9772157d24c033f2fd4659808d74f7d7]
link IEntityModelDeletedAt to IEntityModel--><!--MD5=[7ee9f8375b9805f735e207131896076f]
link Log to Entity--><g id="link_Log_Entity"><path codeLine="14" d="M299.97,176.08 C299.73,191.01 299.48,207.02 299.24,222.44 " fill="none" id="Log-to-Entity" style="stroke:#181818;stroke-width:1.0;"/><polygon fill="#181818" points="299.03,235.8,303.1283,229.8667,299.2278,223.8016,295.1294,229.7349,299.03,235.8" style="stroke:#181818;stroke-width:1.0;"/></g><!--MD5=[1b84833638557571905b03f54e842c8c]
link GormGenericRepository to IGenericRepository--><g id="link_GormGenericRepository_IGenericRepository"><path codeLine="7" d="M1241,478.35 C1241,498.31 1241,528.81 1241,560.81 " fill="none" id="GormGenericRepository-to-IGenericRepository" style="stroke:#181818;stroke-width:1.0;stroke-dasharray:7.0,7.0;"/><polygon fill="none" points="1248,560.84,1241,580.84,1234,560.84,1248,560.84" style="stroke:#181818;stroke-width:1.0;"/></g><!--MD5=[ed01c4b1a8d821a1dbde2673473bf9b3]
link LogRepository to GormGenericRepository--><g id="link_LogRepository_GormGenericRepository"><path codeLine="8" d="M1290.66,133.34 C1293.49,182.55 1296.66,300.12 1271,394 C1268.77,402.15 1265.35,410.48 1261.61,418.22 " fill="none" id="LogRepository-to-GormGenericRepository" style="stroke:#181818;stroke-width:1.0;"/><polygon fill="#181818" points="1255.58,429.78,1261.9016,426.3105,1261.1303,419.1407,1254.8088,422.6103,1255.58,429.78" style="stroke:#181818;stroke-width:1.0;"/></g><!--MD5=[2680ff3055d62c142b1e8960e0bcb605]
link LogRepository to LogTypeNote--><g id="link_LogRepository_LogTypeNote"><path codeLine="12" d="M1277.3,133.16 C1256.54,174.25 1213.96,258.54 1198.11,289.9 " fill="none" id="LogRepository-LogTypeNote" style="stroke:#181818;stroke-width:1.0;stroke-dasharray:7.0,7.0;"/></g><!--MD5=[266e0e8d93667542f4664d160686c449]
link LogTypeNote to GormGenericRepository--><g id="link_LogTypeNote_GormGenericRepository"><path codeLine="13" d="M1196.01,316.19 C1203.76,339.75 1220.96,392.05 1231.7,424.73 " fill="none" id="LogTypeNote-to-GormGenericRepository" style="stroke:#181818;stroke-width:1.0;stroke-dasharray:7.0,7.0;"/><polygon fill="#181818" points="1233.37,429.8,1234.3364,419.9987,1231.7974,425.0537,1226.7424,422.5148,1233.37,429.8" style="stroke:#181818;stroke-width:1.0;"/></g><!--MD5=[a521aad7a4a356c7d00008639251d028]
link Log to LogTypeNote--><g id="link_Log_LogTypeNote"><path codeLine="14" d="M419.78,135.6 C614.39,177.53 993.75,259.28 1136.18,289.97 " fill="none" id="Log-LogTypeNote" style="stroke:#181818;stroke-width:1.0;stroke-dasharray:7.0,7.0;"/></g><!--MD5=[99c3d6a0707ae2e21e56012feecd5420]
link LogDto to BaseDto--><g id="link_LogDto_BaseDto"><path codeLine="14" d="M1876,1324.28 C1876,1350.46 1876,1380.52 1876,1406.8 " fill="none" id="LogDto-to-BaseDto" style="stroke:#181818;stroke-width:1.0;"/><polygon fill="#181818" points="1876,1420.16,1880,1414.16,1876,1408.16,1872,1414.16,1876,1420.16" style="stroke:#181818;stroke-width:1.0;"/></g><!--MD5=[2cf5d3f3b6ad37a9ab1e735663d9c52e]
link IGenericRepository to LogService--><!--MD5=[a2f59372f56ea5a978dd4b72f4f881df]
link LogRepository to LogService--><g id="link_LogRepository_LogService"><path codeLine="15" d="M1331.76,133.19 C1423.63,185.81 1638.08,324.21 1719,510 C1803.52,704.06 1759.67,954.5 1548,954.5 " fill="none" id="LogRepository-LogService" style="stroke:#181818;stroke-width:1.0;"/></g><!--MD5=[36748fca8402e6e2a308bd424f492506]
link LogService to GenericService--><g id="link_LogService_GenericService"><path codeLine="16" d="M1416.49,978.19 C1406.26,995.53 1395.21,1017.1 1389,1038 C1374.34,1087.34 1369.88,1145.52 1368.92,1189.35 " fill="none" id="LogService-to-GenericService" style="stroke:#181818;stroke-width:1.0;"/><polygon fill="#181818" points="1368.73,1202.47,1372.8153,1196.5277,1368.9014,1190.4712,1364.8161,1196.4135,1368.73,1202.47" style="stroke:#181818;stroke-width:1.0;"/></g><!--MD5=[7a2e0ee865758cbea6424c539a13f730]
link LogService to LogServiceTypes--><g id="link_LogService_LogServiceTypes"><path codeLine="30" d="M1458.1,978.32 C1467.26,996.45 1478.48,1018.64 1488.22,1037.92 " fill="none" id="LogService-LogServiceTypes" style="stroke:#181818;stroke-width:1.0;stroke-dasharray:7.0,7.0;"/></g><!--MD5=[deaa3cf027e91ee54102b48c37a2f231]
link LogServiceTypes to GenericService--><g id="link_LogServiceTypes_GenericService"><path codeLine="31" d="M1473.58,1130.38 C1456.46,1151.15 1435.96,1176.01 1417.74,1198.11 " fill="none" id="LogServiceTypes-to-GenericService" style="stroke:#181818;stroke-width:1.0;stroke-dasharray:7.0,7.0;"/><polygon fill="#181818" points="1414.36,1202.2,1423.1754,1197.808,1417.544,1198.3449,1417.0072,1192.7136,1414.36,1202.2" style="stroke:#181818;stroke-width:1.0;"/></g><!--MD5=[21705672f3a4a551bc81d2028513cc81]
link LogServiceTypes to LogDto--><g id="link_LogServiceTypes_LogDto"><path codeLine="33" d="M1615.56,1109.03 C1648.82,1118.48 1685.21,1130.78 1717,1146 C1742.28,1158.1 1767.98,1174.01 1791.15,1189.96 " fill="none" id="LogServiceTypes-LogDto" style="stroke:#181818;stroke-width:1.0;stroke-dasharray:7.0,7.0;"/></g><!--MD5=[371c5aabf3e73a8c18b4ab27eddfb5cb]
@startuml

!include GenericService.puml
!include ../repositories/LogRepository.puml
!include ../dto/Log/LogDto.puml
!include ../entities/Log.puml

package app {
    class LogService {
        -repository IGenericRepository
        - -
    }

    LogService .[hidden]up. IGenericRepository

    LogRepository -right- LogService::repository
    GenericService *-up- LogService

    note left of LogService
        Advanced business logic for Log entity
    end note

    note as LogServiceTypes
        EntityType is Log
        CreateDtoType is LogDto
        UpdateDtoType is LogDto
        DtoType is LogDto
        Because the service is read-only
    end note

    LogService .down. LogServiceTypes
    GenericService <.up. LogServiceTypes

    LogServiceTypes .. LogDto
}

@enduml

@startuml


package app {
    interface IGenericService<EntityType, CreateDtoType, UpdateDtoType, DtoType> {
        +GetList(ctx context.Context, search, orderBy, orderDirection string, page, pageSize int) (*dtos.PaginatedListDto[DtoType], error)
        - -
        +GetById(ctx context.Context, id uuid.UUID) (*DtoType, error)
        - -
        +Update(ctx context.Context, updateDto UpdateDtoType, id uuid.UUID) error
        - -
        +Create(ctx context.Context, createDto CreateDtoType) (uuid.UUID, error)
        - -
        +Delete(ctx context.Context, id uuid.UUID) error
    }
    note left of IGenericService::GetList
        Get list of elements with search and pagination
    end note

    note left of IGenericService::GetById
        Get entity by ID from service
    end note

    note left of IGenericService::Update
        Save the changes to the existing entity in the service
    end note

    note left of IGenericService::Create
        Add entity to the service
    end note

    note left of IGenericService::Delete
        Mark an entity as deleted
    end note
}


package app {
    class GenericService<EntityType, CreateDtoType, UpdateDtoType, DtoType> {
        -repository IGenericRepository<EntityType>
        - -
        -logger *logrus.Logger
        - -
        -logSourceName string
    }
    GenericService .down.|> IGenericService
}





package app {
    interface IEntityModel {
        +GetID() uuid.UUID
    }
}


package app {
    interface IEntityModelDeletedAt {
        +SetDeleted()
    }
    note bottom of IEntityModelDeletedAt
        Set deletion time
        This method marks that the entity has been deleted
    end note
}


package domain {
    class Entity {
        +ID uuid.UUID `gorm:"primarykey"`
        - -
        +CreatedAt time.Time `gorm:"index"`
        - -
        +UpdatedAt time.Time `gorm:"index"`
        - -
        +DeletedAt time.Time `gorm:"index"`
    }
    Entity .down.|> IEntityModelDeletedAt
    Entity .down.|> IEntityModel

    IEntityModel .left[hidden]. IEntityModelDeletedAt
}


package domain {
    class Log {
        +ActionID uuid.UUID `gorm:"index"`
        - -
        +Level string
        - -
        +Source string
        - -
        +Message string
    }
    Log -down-* Entity
}



package app {
    interface IGenericRepository<EntityType> {
        +GetList(ctx context.Context, orderBy string, orderDirection string, page int, size int, queryBuilder interfaces.IQueryBuilder) (*[]EntityType, error)
        - -
        +Count(ctx context.Context, queryBuilder interfaces.IQueryBuilder) (int64, error)
        - -
        +NewQueryBuilder(ctx context.Context) interfaces.IQueryBuilder
        - -
        +GetById(ctx context.Context, id uuid.UUID) (*EntityType, error)
        - -
        +Update(ctx context.Context, entity *EntityType) error
        - -
        +Insert(ctx context.Context, entity EntityType) (uuid.UUID, error)
        - -
        +Delete(ctx context.Context, id uuid.UUID) error
        - -
        +CloseDb() error
    }
    note left of IGenericRepository::GetList
      Get list of elements with filtering and pagination
    end note

    note left of IGenericRepository::Count
      Get count of entities with filtering
    end note

    note left of IGenericRepository::NewQueryBuilder
      Get new instance of the query builder
    end note

    note left of IGenericRepository::GetById
      Get entity by ID from repository
    end note

    note left of IGenericRepository::Update
      Save the changes to the existing entity in the repository
    end note

    note left of IGenericRepository::Insert
      Add entity to the repository
    end note

    note left of IGenericRepository::Delete
      Delete entity from the database
    end note

    note left of IGenericRepository::CloseDb
      Closes current database connection
    end note
}


package infrastructure {
    class GormGenericRepository<EntityType>

    GormGenericRepository .down.|> IGenericRepository
}


package infrastructure {
    class LogRepository

    LogRepository -down-* GormGenericRepository

    note "EntityType is Log" as LogTypeNote

    LogRepository .down. LogTypeNote
    GormGenericRepository <.up. LogTypeNote
    Log .. LogTypeNote
}


package dtos {
    class BaseDto {
        +ID uuid.UUID
        - -
        +CreatedAt time.Time
        - -
        +UpdatedAt time.Time
    }
}


package dtos {
    class LogDto {
        +ActionID uuid.UUID `gorm:"index"`
        - -
        +Level string
        - -
        +Source string
        - -
        +Message string
    }
    LogDto - -* BaseDto
}


package app {
    class LogService {
        -repository IGenericRepository
        - -
    }

    LogService .[hidden]up. IGenericRepository

    LogRepository -right- LogService::repository
    GenericService *-up- LogService

    note left of LogService
        Advanced business logic for Log entity
    end note

    note as LogServiceTypes
        EntityType is Log
        CreateDtoType is LogDto
        UpdateDtoType is LogDto
        DtoType is LogDto
        Because the service is read-only
    end note

    LogService .down. LogServiceTypes
    GenericService <.up. LogServiceTypes

    LogServiceTypes .. LogDto
}

@enduml

PlantUML version 1.2022.6(Tue Jun 21 20:34:49 MSK 2022)
(GPL source distribution)
Java Runtime: OpenJDK Runtime Environment
JVM: OpenJDK 64-Bit Server VM
Default Encoding: Cp1251
Language: ru
Country: RU
--></g></svg>