<?xml version="1.0" encoding="UTF-8" standalone="no"?><svg xmlns="http://www.w3.org/2000/svg" xmlns:xlink="http://www.w3.org/1999/xlink" contentStyleType="text/css" height="226px" preserveAspectRatio="none" style="width:250px;height:226px;background:#FFFFFF;" version="1.1" viewBox="0 0 250 226" width="250px" zoomAndPan="magnify"><defs/><g><!--MD5=[ab50d7b8d52645a88dbd59d4662cb3d5]
class EthernetSwitchPortBaseDto--><g id="elem_EthernetSwitchPortBaseDto"><rect codeLine="2" fill="#F1F1F1" height="104.8906" id="EthernetSwitchPortBaseDto" rx="2.5" ry="2.5" style="stroke:#181818;stroke-width:0.5;" width="225" x="12.5" y="115"/><ellipse cx="27.5" cy="131" fill="#ADD1B2" rx="11" ry="11" style="stroke:#181818;stroke-width:1.0;"/><path d="M30.4688,136.6406 Q29.8906,136.9375 29.25,137.0781 Q28.6094,137.2344 27.9063,137.2344 Q25.4063,137.2344 24.0781,135.5938 Q22.7656,133.9375 22.7656,130.8125 Q22.7656,127.6875 24.0781,126.0313 Q25.4063,124.375 27.9063,124.375 Q28.6094,124.375 29.25,124.5313 Q29.9063,124.6875 30.4688,124.9844 L30.4688,127.7031 Q29.8438,127.125 29.25,126.8594 Q28.6563,126.5781 28.0313,126.5781 Q26.6875,126.5781 26,127.6563 Q25.3125,128.7188 25.3125,130.8125 Q25.3125,132.9063 26,133.9844 Q26.6875,135.0469 28.0313,135.0469 Q28.6563,135.0469 29.25,134.7813 Q29.8438,134.5 30.4688,133.9219 L30.4688,136.6406 Z " fill="#000000"/><text fill="#000000" font-family="sans-serif" font-size="14" lengthAdjust="spacing" textLength="193" x="41.5" y="135.8467">EthernetSwitchPortBaseDto</text><line style="stroke:#181818;stroke-width:0.5;" x1="13.5" x2="236.5" y1="147" y2="147"/><text fill="#000000" font-family="sans-serif" font-size="14" lengthAdjust="spacing" textLength="189" x="18.5" y="163.9951">EthernetSwitchId uuid.UUID</text><line style="stroke:#181818;stroke-width:1.0;" x1="13.5" x2="236.5" y1="171.2969" y2="171.2969"/><text fill="#000000" font-family="sans-serif" font-size="14" lengthAdjust="spacing" textLength="82" x="18.5" y="188.292">PoeType int</text><line style="stroke:#181818;stroke-width:1.0;" x1="13.5" x2="236.5" y1="195.5938" y2="195.5938"/><text fill="#000000" font-family="sans-serif" font-size="14" lengthAdjust="spacing" textLength="83" x="18.5" y="212.5889">Name string</text></g><!--MD5=[67cf17d19949dc16e4e1206335fb789d]
class EthernetSwitchPortCreateDto--><g id="elem_EthernetSwitchPortCreateDto"><rect codeLine="3" fill="#F1F1F1" height="48" id="EthernetSwitchPortCreateDto" rx="2.5" ry="2.5" style="stroke:#181818;stroke-width:0.5;" width="236" x="7" y="7"/><ellipse cx="22" cy="23" fill="#ADD1B2" rx="11" ry="11" style="stroke:#181818;stroke-width:1.0;"/><path d="M24.9688,28.6406 Q24.3906,28.9375 23.75,29.0781 Q23.1094,29.2344 22.4063,29.2344 Q19.9063,29.2344 18.5781,27.5938 Q17.2656,25.9375 17.2656,22.8125 Q17.2656,19.6875 18.5781,18.0313 Q19.9063,16.375 22.4063,16.375 Q23.1094,16.375 23.75,16.5313 Q24.4063,16.6875 24.9688,16.9844 L24.9688,19.7031 Q24.3438,19.125 23.75,18.8594 Q23.1563,18.5781 22.5313,18.5781 Q21.1875,18.5781 20.5,19.6563 Q19.8125,20.7188 19.8125,22.8125 Q19.8125,24.9063 20.5,25.9844 Q21.1875,27.0469 22.5313,27.0469 Q23.1563,27.0469 23.75,26.7813 Q24.3438,26.5 24.9688,25.9219 L24.9688,28.6406 Z " fill="#000000"/><text fill="#000000" font-family="sans-serif" font-size="14" lengthAdjust="spacing" textLength="204" x="36" y="27.8467">EthernetSwitchPortCreateDto</text><line style="stroke:#181818;stroke-width:0.5;" x1="8" x2="242" y1="39" y2="39"/><line style="stroke:#181818;stroke-width:0.5;" x1="8" x2="242" y1="47" y2="47"/></g><!--MD5=[6a762ba3d912aed4ec0a7774ef7b7ac6]
reverse link EthernetSwitchPortCreateDto to EthernetSwitchPortBaseDto--><g id="link_EthernetSwitchPortCreateDto_EthernetSwitchPortBaseDto"><path codeLine="7" d="M125,68.51 C125,82.82 125,99.49 125,114.98 " fill="none" id="EthernetSwitchPortCreateDto-backto-EthernetSwitchPortBaseDto" style="stroke:#181818;stroke-width:1.0;"/><polygon fill="#181818" points="125,55.12,121,61.12,125,67.12,129,61.12,125,55.12" style="stroke:#181818;stroke-width:1.0;"/></g><!--MD5=[b8d52d11f28cbe17034a93e46e6d2942]
@startuml EthernetSwitchPortCreateDto
!include EthernetSwitchPortBaseDto.puml

class EthernetSwitchPortCreateDto {

}

EthernetSwitchPortCreateDto *- - EthernetSwitchPortBaseDto
@enduml

@startuml EthernetSwitchPortCreateDto

class EthernetSwitchPortBaseDto {
    EthernetSwitchId uuid.UUID
    - -
    PoeType int
    - -
    Name string
}


class EthernetSwitchPortCreateDto {

}

EthernetSwitchPortCreateDto *- - EthernetSwitchPortBaseDto
@enduml

PlantUML version 1.2022.4(Sat Apr 09 13:29:17 UTC 2022)
(GPL source distribution)
Java Runtime: OpenJDK Runtime Environment
JVM: OpenJDK 64-Bit Server VM
Default Encoding: UTF-8
Language: en
Country: null
--></g></svg>