<?xml version="1.0" encoding="UTF-8" standalone="no"?><svg xmlns="http://www.w3.org/2000/svg" xmlns:xlink="http://www.w3.org/1999/xlink" contentStyleType="text/css" height="226px" preserveAspectRatio="none" style="width:254px;height:226px;background:#FFFFFF;" version="1.1" viewBox="0 0 254 226" width="254px" zoomAndPan="magnify"><defs/><g><!--MD5=[ab50d7b8d52645a88dbd59d4662cb3d5]
class EthernetSwitchPortBaseDto--><g id="elem_EthernetSwitchPortBaseDto"><rect codeLine="2" fill="#F1F1F1" height="104.8906" id="EthernetSwitchPortBaseDto" rx="2.5" ry="2.5" style="stroke:#181818;stroke-width:0.5;" width="225" x="14.5" y="115"/><ellipse cx="29.5" cy="131" fill="#ADD1B2" rx="11" ry="11" style="stroke:#181818;stroke-width:1.0;"/><path d="M32.4688,136.6406 Q31.8906,136.9375 31.25,137.0781 Q30.6094,137.2344 29.9063,137.2344 Q27.4063,137.2344 26.0781,135.5938 Q24.7656,133.9375 24.7656,130.8125 Q24.7656,127.6875 26.0781,126.0313 Q27.4063,124.375 29.9063,124.375 Q30.6094,124.375 31.25,124.5313 Q31.9063,124.6875 32.4688,124.9844 L32.4688,127.7031 Q31.8438,127.125 31.25,126.8594 Q30.6563,126.5781 30.0313,126.5781 Q28.6875,126.5781 28,127.6563 Q27.3125,128.7188 27.3125,130.8125 Q27.3125,132.9063 28,133.9844 Q28.6875,135.0469 30.0313,135.0469 Q30.6563,135.0469 31.25,134.7813 Q31.8438,134.5 32.4688,133.9219 L32.4688,136.6406 Z " fill="#000000"/><text fill="#000000" font-family="sans-serif" font-size="14" lengthAdjust="spacing" textLength="193" x="43.5" y="135.8467">EthernetSwitchPortBaseDto</text><line style="stroke:#181818;stroke-width:0.5;" x1="15.5" x2="238.5" y1="147" y2="147"/><text fill="#000000" font-family="sans-serif" font-size="14" lengthAdjust="spacing" textLength="189" x="20.5" y="163.9951">EthernetSwitchId uuid.UUID</text><line style="stroke:#181818;stroke-width:1.0;" x1="15.5" x2="238.5" y1="171.2969" y2="171.2969"/><text fill="#000000" font-family="sans-serif" font-size="14" lengthAdjust="spacing" textLength="82" x="20.5" y="188.292">PoeType int</text><line style="stroke:#181818;stroke-width:1.0;" x1="15.5" x2="238.5" y1="195.5938" y2="195.5938"/><text fill="#000000" font-family="sans-serif" font-size="14" lengthAdjust="spacing" textLength="83" x="20.5" y="212.5889">Name string</text></g><!--MD5=[139f8f6c9a1355c9e9aa2a809fcec224]
class EthernetSwitchPortUpdateDto--><g id="elem_EthernetSwitchPortUpdateDto"><rect codeLine="3" fill="#F1F1F1" height="48" id="EthernetSwitchPortUpdateDto" rx="2.5" ry="2.5" style="stroke:#181818;stroke-width:0.5;" width="240" x="7" y="7"/><ellipse cx="22" cy="23" fill="#ADD1B2" rx="11" ry="11" style="stroke:#181818;stroke-width:1.0;"/><path d="M24.9688,28.6406 Q24.3906,28.9375 23.75,29.0781 Q23.1094,29.2344 22.4063,29.2344 Q19.9063,29.2344 18.5781,27.5938 Q17.2656,25.9375 17.2656,22.8125 Q17.2656,19.6875 18.5781,18.0313 Q19.9063,16.375 22.4063,16.375 Q23.1094,16.375 23.75,16.5313 Q24.4063,16.6875 24.9688,16.9844 L24.9688,19.7031 Q24.3438,19.125 23.75,18.8594 Q23.1563,18.5781 22.5313,18.5781 Q21.1875,18.5781 20.5,19.6563 Q19.8125,20.7188 19.8125,22.8125 Q19.8125,24.9063 20.5,25.9844 Q21.1875,27.0469 22.5313,27.0469 Q23.1563,27.0469 23.75,26.7813 Q24.3438,26.5 24.9688,25.9219 L24.9688,28.6406 Z " fill="#000000"/><text fill="#000000" font-family="sans-serif" font-size="14" lengthAdjust="spacing" textLength="208" x="36" y="27.8467">EthernetSwitchPortUpdateDto</text><line style="stroke:#181818;stroke-width:0.5;" x1="8" x2="246" y1="39" y2="39"/><line style="stroke:#181818;stroke-width:0.5;" x1="8" x2="246" y1="47" y2="47"/></g><!--MD5=[e419d39f242cc608b2ae7ee9e3b1bcf7]
reverse link EthernetSwitchPortUpdateDto to EthernetSwitchPortBaseDto--><g id="link_EthernetSwitchPortUpdateDto_EthernetSwitchPortBaseDto"><path codeLine="6" d="M127,68.51 C127,82.82 127,99.49 127,114.98 " fill="none" id="EthernetSwitchPortUpdateDto-backto-EthernetSwitchPortBaseDto" style="stroke:#181818;stroke-width:1.0;"/><polygon fill="#181818" points="127,55.12,123,61.12,127,67.12,131,61.12,127,55.12" style="stroke:#181818;stroke-width:1.0;"/></g><!--MD5=[472d1de13c61c4f47617e6e2b1fc189a]
@startuml EthernetSwitchPortUpdateDto
!include EthernetSwitchPortBaseDto.puml

class EthernetSwitchPortUpdateDto {

}
EthernetSwitchPortUpdateDto *- - EthernetSwitchPortBaseDto
@enduml

@startuml EthernetSwitchPortUpdateDto

class EthernetSwitchPortBaseDto {
    EthernetSwitchId uuid.UUID
    - -
    PoeType int
    - -
    Name string
}


class EthernetSwitchPortUpdateDto {

}
EthernetSwitchPortUpdateDto *- - EthernetSwitchPortBaseDto
@enduml

PlantUML version 1.2022.4(Sat Apr 09 13:29:17 UTC 2022)
(GPL source distribution)
Java Runtime: OpenJDK Runtime Environment
JVM: OpenJDK 64-Bit Server VM
Default Encoding: UTF-8
Language: en
Country: null
--></g></svg>