<?xml version="1.0" encoding="UTF-8" standalone="no"?><svg xmlns="http://www.w3.org/2000/svg" xmlns:xlink="http://www.w3.org/1999/xlink" contentStyleType="text/css" height="293px" preserveAspectRatio="none" style="width:410px;height:293px;background:#FFFFFF;" version="1.1" viewBox="0 0 410 293" width="410px" zoomAndPan="magnify"><defs/><g><!--MD5=[ac65c812e7532cbcd7b9effd958b962e]
cluster dtos--><g id="cluster_dtos"><path d="M8.5,6 L44.5,6 A3.75,3.75 0 0 1 47,8.5 L54,28.2969 L400.5,28.2969 A2.5,2.5 0 0 1 403,30.7969 L403,283.5 A2.5,2.5 0 0 1 400.5,286 L8.5,286 A2.5,2.5 0 0 1 6,283.5 L6,8.5 A2.5,2.5 0 0 1 8.5,6 " fill="none" style="stroke:#000000;stroke-width:1.5;"/><line style="stroke:#000000;stroke-width:1.5;" x1="6" x2="54" y1="28.2969" y2="28.2969"/><text fill="#000000" font-family="sans-serif" font-size="14" font-weight="bold" lengthAdjust="spacing" textLength="35" x="10" y="20.9951">dtos</text></g><!--MD5=[a203eca1f0769929ae1344e0135bff6b]
class BaseDto--><g id="elem_BaseDto"><rect codeLine="3" fill="#F1F1F1" height="104.8906" id="BaseDto" rx="2.5" ry="2.5" style="stroke:#181818;stroke-width:0.5;" width="171" x="22.5" y="165"/><ellipse cx="51.9" cy="181" fill="#ADD1B2" rx="11" ry="11" style="stroke:#181818;stroke-width:1.0;"/><path d="M54.8688,186.6406 Q54.2906,186.9375 53.65,187.0781 Q53.0094,187.2344 52.3063,187.2344 Q49.8063,187.2344 48.4781,185.5938 Q47.1656,183.9375 47.1656,180.8125 Q47.1656,177.6875 48.4781,176.0313 Q49.8063,174.375 52.3063,174.375 Q53.0094,174.375 53.65,174.5313 Q54.3063,174.6875 54.8688,174.9844 L54.8688,177.7031 Q54.2438,177.125 53.65,176.8594 Q53.0563,176.5781 52.4313,176.5781 Q51.0875,176.5781 50.4,177.6563 Q49.7125,178.7188 49.7125,180.8125 Q49.7125,182.9063 50.4,183.9844 Q51.0875,185.0469 52.4313,185.0469 Q53.0563,185.0469 53.65,184.7813 Q54.2438,184.5 54.8688,183.9219 L54.8688,186.6406 Z " fill="#000000"/><text fill="#000000" font-family="sans-serif" font-size="14" lengthAdjust="spacing" textLength="60" x="69.1" y="185.8467">BaseDto</text><rect fill="#FFFFFF" height="15.9688" style="stroke:#181818;stroke-width:1.0;stroke-dasharray:2.0,2.0;" width="45" x="151.5" y="162"/><text fill="#000000" font-family="sans-serif" font-size="12" font-style="italic" lengthAdjust="spacing" textLength="43" x="152.5" y="174.1387">IDType</text><line style="stroke:#181818;stroke-width:0.5;" x1="23.5" x2="192.5" y1="197" y2="197"/><ellipse cx="33.5" cy="210.6484" fill="none" rx="3" ry="3" style="stroke:#038048;stroke-width:1.0;"/><text fill="#000000" font-family="sans-serif" font-size="14" lengthAdjust="spacing" textLength="66" x="42.5" y="213.9951">ID IDType</text><line style="stroke:#181818;stroke-width:1.0;" x1="23.5" x2="192.5" y1="221.2969" y2="221.2969"/><ellipse cx="33.5" cy="234.9453" fill="none" rx="3" ry="3" style="stroke:#038048;stroke-width:1.0;"/><text fill="#000000" font-family="sans-serif" font-size="14" lengthAdjust="spacing" textLength="141" x="42.5" y="238.292">CreatedAt time.Time</text><line style="stroke:#181818;stroke-width:1.0;" x1="23.5" x2="192.5" y1="245.5938" y2="245.5938"/><ellipse cx="33.5" cy="259.2422" fill="none" rx="3" ry="3" style="stroke:#038048;stroke-width:1.0;"/><text fill="#000000" font-family="sans-serif" font-size="14" lengthAdjust="spacing" textLength="145" x="42.5" y="262.5889">UpdatedAt time.Time</text></g><!--MD5=[a017d98f012dfdb04b998a92065e1f01]
class TFTPPathBaseDto--><g id="elem_TFTPPathBaseDto"><rect codeLine="3" fill="#F1F1F1" height="80.5938" id="TFTPPathBaseDto" rx="2.5" ry="2.5" style="stroke:#181818;stroke-width:0.5;" width="158" x="229" y="177"/><ellipse cx="244" cy="193" fill="#ADD1B2" rx="11" ry="11" style="stroke:#181818;stroke-width:1.0;"/><path d="M246.9688,198.6406 Q246.3906,198.9375 245.75,199.0781 Q245.1094,199.2344 244.4063,199.2344 Q241.9063,199.2344 240.5781,197.5938 Q239.2656,195.9375 239.2656,192.8125 Q239.2656,189.6875 240.5781,188.0313 Q241.9063,186.375 244.4063,186.375 Q245.1094,186.375 245.75,186.5313 Q246.4063,186.6875 246.9688,186.9844 L246.9688,189.7031 Q246.3438,189.125 245.75,188.8594 Q245.1563,188.5781 244.5313,188.5781 Q243.1875,188.5781 242.5,189.6563 Q241.8125,190.7188 241.8125,192.8125 Q241.8125,194.9063 242.5,195.9844 Q243.1875,197.0469 244.5313,197.0469 Q245.1563,197.0469 245.75,196.7813 Q246.3438,196.5 246.9688,195.9219 L246.9688,198.6406 Z " fill="#000000"/><text fill="#000000" font-family="sans-serif" font-size="14" lengthAdjust="spacing" textLength="126" x="258" y="197.8467">TFTPPathBaseDto</text><line style="stroke:#181818;stroke-width:0.5;" x1="230" x2="386" y1="209" y2="209"/><ellipse cx="240" cy="222.6484" fill="none" rx="3" ry="3" style="stroke:#038048;stroke-width:1.0;"/><text fill="#000000" font-family="sans-serif" font-size="14" lengthAdjust="spacing" textLength="120" x="249" y="225.9951">ActualPath  string</text><line style="stroke:#181818;stroke-width:1.0;" x1="230" x2="386" y1="233.2969" y2="233.2969"/><ellipse cx="240" cy="246.9453" fill="none" rx="3" ry="3" style="stroke:#038048;stroke-width:1.0;"/><text fill="#000000" font-family="sans-serif" font-size="14" lengthAdjust="spacing" textLength="116" x="249" y="250.292">VirtualPath string</text></g><!--MD5=[dfe7c39df23f7b06cff581eab2a993da]
class TFTPPathDto--><g id="elem_TFTPPathDto"><rect codeLine="6" fill="#F1F1F1" height="64.2969" id="TFTPPathDto" rx="2.5" ry="2.5" style="stroke:#181818;stroke-width:0.5;" width="191" x="108.5" y="41"/><ellipse cx="154.25" cy="57" fill="#ADD1B2" rx="11" ry="11" style="stroke:#181818;stroke-width:1.0;"/><path d="M157.2188,62.6406 Q156.6406,62.9375 156,63.0781 Q155.3594,63.2344 154.6563,63.2344 Q152.1563,63.2344 150.8281,61.5938 Q149.5156,59.9375 149.5156,56.8125 Q149.5156,53.6875 150.8281,52.0313 Q152.1563,50.375 154.6563,50.375 Q155.3594,50.375 156,50.5313 Q156.6563,50.6875 157.2188,50.9844 L157.2188,53.7031 Q156.5938,53.125 156,52.8594 Q155.4063,52.5781 154.7813,52.5781 Q153.4375,52.5781 152.75,53.6563 Q152.0625,54.7188 152.0625,56.8125 Q152.0625,58.9063 152.75,59.9844 Q153.4375,61.0469 154.7813,61.0469 Q155.4063,61.0469 156,60.7813 Q156.5938,60.5 157.2188,59.9219 L157.2188,62.6406 Z " fill="#000000"/><text fill="#000000" font-family="sans-serif" font-size="14" lengthAdjust="spacing" textLength="91" x="174.75" y="61.8467">TFTPPathDto</text><line style="stroke:#181818;stroke-width:0.5;" x1="109.5" x2="298.5" y1="73" y2="73"/><ellipse cx="119.5" cy="86.6484" fill="none" rx="3" ry="3" style="stroke:#038048;stroke-width:1.0;"/><text fill="#000000" font-family="sans-serif" font-size="14" lengthAdjust="spacing" textLength="165" x="128.5" y="89.9951">TFTPServerID uuid.UUID</text><line style="stroke:#181818;stroke-width:0.5;" x1="109.5" x2="298.5" y1="97.2969" y2="97.2969"/></g><!--MD5=[146fb1b6e8938ab94c9bf73a863ed3ba]
link TFTPPathDto to TFTPPathBaseDto--><g id="link_TFTPPathDto_TFTPPathBaseDto"><path codeLine="11" d="M226.82,105.27 C239.85,123.12 256.49,145.92 271.3,166.22 " fill="none" id="TFTPPathDto-to-TFTPPathBaseDto" style="stroke:#181818;stroke-width:1.0;"/><polygon fill="#181818" points="279.08,176.88,278.7766,169.6753,272.0094,167.1843,272.3128,174.389,279.08,176.88" style="stroke:#181818;stroke-width:1.0;"/></g><!--MD5=[d3dc1451cf1027ba8d6fd6311bdaeb9c]
link TFTPPathDto to BaseDto--><g id="link_TFTPPathDto_BaseDto"><path codeLine="12" d="M182.93,105.27 C173.29,119.59 161.5,137.09 150.15,153.93 " fill="none" id="TFTPPathDto-to-BaseDto" style="stroke:#181818;stroke-width:1.0;"/><polygon fill="#181818" points="142.79,164.86,149.4582,162.1149,149.4889,154.9039,142.8208,157.649,142.79,164.86" style="stroke:#181818;stroke-width:1.0;"/></g><!--MD5=[35fc2c898000b0f51b17544834e26600]
@startuml

!include ../BaseDto.puml
!include TFTPPathBaseDto.puml

package dtos {
    class TFTPPathDto {
        +TFTPServerID uuid.UUID
    }
}

TFTPPathDto - -* TFTPPathBaseDto
TFTPPathDto - -* BaseDto

@enduml

@startuml


package dtos {
    class BaseDto<IDType> {
        +ID IDType
        - -
        +CreatedAt time.Time
        - -
        +UpdatedAt time.Time
    }
}


package dtos {
    class TFTPPathBaseDto {
        +ActualPath  string
        - -
        +VirtualPath string
    }
}


package dtos {
    class TFTPPathDto {
        +TFTPServerID uuid.UUID
    }
}

TFTPPathDto - -* TFTPPathBaseDto
TFTPPathDto - -* BaseDto

@enduml

PlantUML version 1.2022.12(Sun Oct 23 18:12:26 EGST 2022)
(GPL source distribution)
Java Runtime: OpenJDK Runtime Environment
JVM: OpenJDK 64-Bit Server VM
Default Encoding: UTF-8
Language: en
Country: US
--></g></svg>