<?xml version="1.0" encoding="UTF-8" standalone="no"?><svg xmlns="http://www.w3.org/2000/svg" xmlns:xlink="http://www.w3.org/1999/xlink" contentStyleType="text/css" height="253px" preserveAspectRatio="none" style="width:213px;height:253px;background:#FFFFFF;" version="1.1" viewBox="0 0 213 253" width="213px" zoomAndPan="magnify"><defs/><g><!--MD5=[ac65c812e7532cbcd7b9effd958b962e]
cluster dtos--><g id="cluster_dtos"><path d="M8.5,6 L44.5,6 A3.75,3.75 0 0 1 47,8.5 L54,28.2969 L203.5,28.2969 A2.5,2.5 0 0 1 206,30.7969 L206,243.5 A2.5,2.5 0 0 1 203.5,246 L8.5,246 A2.5,2.5 0 0 1 6,243.5 L6,8.5 A2.5,2.5 0 0 1 8.5,6 " fill="none" style="stroke:#000000;stroke-width:1.5;"/><line style="stroke:#000000;stroke-width:1.5;" x1="6" x2="54" y1="28.2969" y2="28.2969"/><text fill="#000000" font-family="sans-serif" font-size="14" font-weight="bold" lengthAdjust="spacing" textLength="35" x="10" y="20.9951">dtos</text></g><!--MD5=[a017d98f012dfdb04b998a92065e1f01]
class TFTPPathBaseDto--><g id="elem_TFTPPathBaseDto"><rect codeLine="3" fill="#F1F1F1" height="80.5938" id="TFTPPathBaseDto" rx="2.5" ry="2.5" style="stroke:#181818;stroke-width:0.5;" width="158" x="27" y="149"/><ellipse cx="42" cy="165" fill="#ADD1B2" rx="11" ry="11" style="stroke:#181818;stroke-width:1.0;"/><path d="M44.9688,170.6406 Q44.3906,170.9375 43.75,171.0781 Q43.1094,171.2344 42.4063,171.2344 Q39.9063,171.2344 38.5781,169.5938 Q37.2656,167.9375 37.2656,164.8125 Q37.2656,161.6875 38.5781,160.0313 Q39.9063,158.375 42.4063,158.375 Q43.1094,158.375 43.75,158.5313 Q44.4063,158.6875 44.9688,158.9844 L44.9688,161.7031 Q44.3438,161.125 43.75,160.8594 Q43.1563,160.5781 42.5313,160.5781 Q41.1875,160.5781 40.5,161.6563 Q39.8125,162.7188 39.8125,164.8125 Q39.8125,166.9063 40.5,167.9844 Q41.1875,169.0469 42.5313,169.0469 Q43.1563,169.0469 43.75,168.7813 Q44.3438,168.5 44.9688,167.9219 L44.9688,170.6406 Z " fill="#000000"/><text fill="#000000" font-family="sans-serif" font-size="14" lengthAdjust="spacing" textLength="126" x="56" y="169.8467">TFTPPathBaseDto</text><line style="stroke:#181818;stroke-width:0.5;" x1="28" x2="184" y1="181" y2="181"/><ellipse cx="38" cy="194.6484" fill="none" rx="3" ry="3" style="stroke:#038048;stroke-width:1.0;"/><text fill="#000000" font-family="sans-serif" font-size="14" lengthAdjust="spacing" textLength="120" x="47" y="197.9951">ActualPath  string</text><line style="stroke:#181818;stroke-width:1.0;" x1="28" x2="184" y1="205.2969" y2="205.2969"/><ellipse cx="38" cy="218.9453" fill="none" rx="3" ry="3" style="stroke:#038048;stroke-width:1.0;"/><text fill="#000000" font-family="sans-serif" font-size="14" lengthAdjust="spacing" textLength="116" x="47" y="222.292">VirtualPath string</text></g><!--MD5=[b1488aac5fcf2baf98e828953411f1b2]
class TFTPPathCreateDto--><g id="elem_TFTPPathCreateDto"><rect codeLine="5" fill="#F1F1F1" height="48" id="TFTPPathCreateDto" rx="2.5" ry="2.5" style="stroke:#181818;stroke-width:0.5;" width="169" x="21.5" y="41"/><ellipse cx="36.5" cy="57" fill="#ADD1B2" rx="11" ry="11" style="stroke:#181818;stroke-width:1.0;"/><path d="M39.4688,62.6406 Q38.8906,62.9375 38.25,63.0781 Q37.6094,63.2344 36.9063,63.2344 Q34.4063,63.2344 33.0781,61.5938 Q31.7656,59.9375 31.7656,56.8125 Q31.7656,53.6875 33.0781,52.0313 Q34.4063,50.375 36.9063,50.375 Q37.6094,50.375 38.25,50.5313 Q38.9063,50.6875 39.4688,50.9844 L39.4688,53.7031 Q38.8438,53.125 38.25,52.8594 Q37.6563,52.5781 37.0313,52.5781 Q35.6875,52.5781 35,53.6563 Q34.3125,54.7188 34.3125,56.8125 Q34.3125,58.9063 35,59.9844 Q35.6875,61.0469 37.0313,61.0469 Q37.6563,61.0469 38.25,60.7813 Q38.8438,60.5 39.4688,59.9219 L39.4688,62.6406 Z " fill="#000000"/><text fill="#000000" font-family="sans-serif" font-size="14" lengthAdjust="spacing" textLength="137" x="50.5" y="61.8467">TFTPPathCreateDto</text><line style="stroke:#181818;stroke-width:0.5;" x1="22.5" x2="189.5" y1="73" y2="73"/><line style="stroke:#181818;stroke-width:0.5;" x1="22.5" x2="189.5" y1="81" y2="81"/></g><!--MD5=[099923dcb81fe0f7929a7ebfbe2c3421]
link TFTPPathCreateDto to TFTPPathBaseDto--><g id="link_TFTPPathCreateDto_TFTPPathBaseDto"><path codeLine="8" d="M106,89.04 C106,102.14 106,119.13 106,135.35 " fill="none" id="TFTPPathCreateDto-to-TFTPPathBaseDto" style="stroke:#181818;stroke-width:1.0;"/><polygon fill="#181818" points="106,148.69,110,142.69,106,136.69,102,142.69,106,148.69" style="stroke:#181818;stroke-width:1.0;"/></g><!--MD5=[6106ea17fe8cae433dd87d59e28e0fab]
@startuml

!include TFTPPathBaseDto.puml

package dtos {
    class TFTPPathCreateDto {}
}

TFTPPathCreateDto - -* TFTPPathBaseDto

@enduml

@startuml


package dtos {
    class TFTPPathBaseDto {
        +ActualPath  string
        - -
        +VirtualPath string
    }
}


package dtos {
    class TFTPPathCreateDto {}
}

TFTPPathCreateDto - -* TFTPPathBaseDto

@enduml

PlantUML version 1.2022.12(Sun Oct 23 18:12:26 EGST 2022)
(GPL source distribution)
Java Runtime: OpenJDK Runtime Environment
JVM: OpenJDK 64-Bit Server VM
Default Encoding: UTF-8
Language: en
Country: US
--></g></svg>