<?xml version="1.0" encoding="UTF-8" standalone="no"?><svg xmlns="http://www.w3.org/2000/svg" xmlns:xlink="http://www.w3.org/1999/xlink" contentStyleType="text/css" height="253px" preserveAspectRatio="none" style="width:219px;height:253px;background:#FFFFFF;" version="1.1" viewBox="0 0 219 253" width="219px" zoomAndPan="magnify"><defs/><g><!--MD5=[ac65c812e7532cbcd7b9effd958b962e]
cluster dtos--><g id="cluster_dtos"><path d="M8.5,6 L44.5,6 A3.75,3.75 0 0 1 47,8.5 L54,28.2969 L209.5,28.2969 A2.5,2.5 0 0 1 212,30.7969 L212,243.5 A2.5,2.5 0 0 1 209.5,246 L8.5,246 A2.5,2.5 0 0 1 6,243.5 L6,8.5 A2.5,2.5 0 0 1 8.5,6 " fill="none" style="stroke:#000000;stroke-width:1.5;"/><line style="stroke:#000000;stroke-width:1.5;" x1="6" x2="54" y1="28.2969" y2="28.2969"/><text fill="#000000" font-family="sans-serif" font-size="14" font-weight="bold" lengthAdjust="spacing" textLength="35" x="10" y="20.9951">dtos</text></g><!--MD5=[a017d98f012dfdb04b998a92065e1f01]
class TFTPPathBaseDto--><g id="elem_TFTPPathBaseDto"><rect codeLine="3" fill="#F1F1F1" height="80.5938" id="TFTPPathBaseDto" rx="2.5" ry="2.5" style="stroke:#181818;stroke-width:0.5;" width="158" x="30" y="149"/><ellipse cx="45" cy="165" fill="#ADD1B2" rx="11" ry="11" style="stroke:#181818;stroke-width:1.0;"/><path d="M47.9688,170.6406 Q47.3906,170.9375 46.75,171.0781 Q46.1094,171.2344 45.4063,171.2344 Q42.9063,171.2344 41.5781,169.5938 Q40.2656,167.9375 40.2656,164.8125 Q40.2656,161.6875 41.5781,160.0313 Q42.9063,158.375 45.4063,158.375 Q46.1094,158.375 46.75,158.5313 Q47.4063,158.6875 47.9688,158.9844 L47.9688,161.7031 Q47.3438,161.125 46.75,160.8594 Q46.1563,160.5781 45.5313,160.5781 Q44.1875,160.5781 43.5,161.6563 Q42.8125,162.7188 42.8125,164.8125 Q42.8125,166.9063 43.5,167.9844 Q44.1875,169.0469 45.5313,169.0469 Q46.1563,169.0469 46.75,168.7813 Q47.3438,168.5 47.9688,167.9219 L47.9688,170.6406 Z " fill="#000000"/><text fill="#000000" font-family="sans-serif" font-size="14" lengthAdjust="spacing" textLength="126" x="59" y="169.8467">TFTPPathBaseDto</text><line style="stroke:#181818;stroke-width:0.5;" x1="31" x2="187" y1="181" y2="181"/><ellipse cx="41" cy="194.6484" fill="none" rx="3" ry="3" style="stroke:#038048;stroke-width:1.0;"/><text fill="#000000" font-family="sans-serif" font-size="14" lengthAdjust="spacing" textLength="120" x="50" y="197.9951">ActualPath  string</text><line style="stroke:#181818;stroke-width:1.0;" x1="31" x2="187" y1="205.2969" y2="205.2969"/><ellipse cx="41" cy="218.9453" fill="none" rx="3" ry="3" style="stroke:#038048;stroke-width:1.0;"/><text fill="#000000" font-family="sans-serif" font-size="14" lengthAdjust="spacing" textLength="116" x="50" y="222.292">VirtualPath string</text></g><!--MD5=[8c444353d0dbc481f7b95f2e528ca50f]
class TFTPPathUpdateDto--><g id="elem_TFTPPathUpdateDto"><rect codeLine="5" fill="#F1F1F1" height="48" id="TFTPPathUpdateDto" rx="2.5" ry="2.5" style="stroke:#181818;stroke-width:0.5;" width="173" x="22.5" y="41"/><ellipse cx="37.5" cy="57" fill="#ADD1B2" rx="11" ry="11" style="stroke:#181818;stroke-width:1.0;"/><path d="M40.4688,62.6406 Q39.8906,62.9375 39.25,63.0781 Q38.6094,63.2344 37.9063,63.2344 Q35.4063,63.2344 34.0781,61.5938 Q32.7656,59.9375 32.7656,56.8125 Q32.7656,53.6875 34.0781,52.0313 Q35.4063,50.375 37.9063,50.375 Q38.6094,50.375 39.25,50.5313 Q39.9063,50.6875 40.4688,50.9844 L40.4688,53.7031 Q39.8438,53.125 39.25,52.8594 Q38.6563,52.5781 38.0313,52.5781 Q36.6875,52.5781 36,53.6563 Q35.3125,54.7188 35.3125,56.8125 Q35.3125,58.9063 36,59.9844 Q36.6875,61.0469 38.0313,61.0469 Q38.6563,61.0469 39.25,60.7813 Q39.8438,60.5 40.4688,59.9219 L40.4688,62.6406 Z " fill="#000000"/><text fill="#000000" font-family="sans-serif" font-size="14" lengthAdjust="spacing" textLength="141" x="51.5" y="61.8467">TFTPPathUpdateDto</text><line style="stroke:#181818;stroke-width:0.5;" x1="23.5" x2="194.5" y1="73" y2="73"/><line style="stroke:#181818;stroke-width:0.5;" x1="23.5" x2="194.5" y1="81" y2="81"/></g><!--MD5=[01493ea28c7bc89767bd4a32aeb5d42b]
link TFTPPathUpdateDto to TFTPPathBaseDto--><g id="link_TFTPPathUpdateDto_TFTPPathBaseDto"><path codeLine="8" d="M109,89.04 C109,102.14 109,119.13 109,135.35 " fill="none" id="TFTPPathUpdateDto-to-TFTPPathBaseDto" style="stroke:#181818;stroke-width:1.0;"/><polygon fill="#181818" points="109,148.69,113,142.69,109,136.69,105,142.69,109,148.69" style="stroke:#181818;stroke-width:1.0;"/></g><!--MD5=[05d1d1b6e44fa043bcba8d6642eb1632]
@startuml

!include TFTPPathBaseDto.puml

package dtos {
    class TFTPPathUpdateDto {}
}

TFTPPathUpdateDto - -* TFTPPathBaseDto

@enduml

@startuml


package dtos {
    class TFTPPathBaseDto {
        +ActualPath  string
        - -
        +VirtualPath string
    }
}


package dtos {
    class TFTPPathUpdateDto {}
}

TFTPPathUpdateDto - -* TFTPPathBaseDto

@enduml

PlantUML version 1.2022.12(Sun Oct 23 18:12:26 EGST 2022)
(GPL source distribution)
Java Runtime: OpenJDK Runtime Environment
JVM: OpenJDK 64-Bit Server VM
Default Encoding: UTF-8
Language: en
Country: US
--></g></svg>