<?xml version="1.0" encoding="UTF-8" standalone="no"?><svg xmlns="http://www.w3.org/2000/svg" xmlns:xlink="http://www.w3.org/1999/xlink" contentStyleType="text/css" height="1759px" preserveAspectRatio="none" style="width:2930px;height:1759px;background:#FFFFFF;" version="1.1" viewBox="0 0 2930 1759" width="2930px" zoomAndPan="magnify"><defs/><g><!--MD5=[d5ac3844f66b12d9e08170e47495e096]
cluster app--><g id="cluster_app"><path d="M113.92,570 L140.92,570 A3.75,3.75 0 0 1 143.42,572.5 L150.42,593.6094 L1819.92,593.6094 A2.5,2.5 0 0 1 1822.42,596.1094 L1822.42,1749.5 A2.5,2.5 0 0 1 1819.92,1752 L113.92,1752 A2.5,2.5 0 0 1 111.42,1749.5 L111.42,572.5 A2.5,2.5 0 0 1 113.92,570 " style="stroke:#000000;stroke-width:1.5;fill:none;"/><line style="stroke:#000000;stroke-width:1.5;fill:none;" x1="111.42" x2="150.42" y1="593.6094" y2="593.6094"/><text fill="#000000" font-family="sans-serif" font-size="14" font-weight="bold" lengthAdjust="spacing" textLength="26" x="115.42" y="586.5332">app</text></g><!--MD5=[f4e70ef68289585296b9045165e58692]
cluster controllers--><g id="cluster_controllers"><path d="M1848.92,921 L1926.92,921 A3.75,3.75 0 0 1 1929.42,923.5 L1936.42,944.6094 L2920.92,944.6094 A2.5,2.5 0 0 1 2923.42,947.1094 L2923.42,1338.5 A2.5,2.5 0 0 1 2920.92,1341 L1848.92,1341 A2.5,2.5 0 0 1 1846.42,1338.5 L1846.42,923.5 A2.5,2.5 0 0 1 1848.92,921 " style="stroke:#000000;stroke-width:1.5;fill:none;"/><line style="stroke:#000000;stroke-width:1.5;fill:none;" x1="1846.42" x2="1936.42" y1="944.6094" y2="944.6094"/><text fill="#000000" font-family="sans-serif" font-size="14" font-weight="bold" lengthAdjust="spacing" textLength="77" x="1850.42" y="937.5332">controllers</text></g><!--MD5=[27f772719433d509ddbc20ff768eba08]
cluster domain--><g id="cluster_domain"><path d="M1304.92,6 L1356.92,6 A3.75,3.75 0 0 1 1359.42,8.5 L1366.42,29.6094 L1668.92,29.6094 A2.5,2.5 0 0 1 1671.42,32.1094 L1671.42,435.5 A2.5,2.5 0 0 1 1668.92,438 L1304.92,438 A2.5,2.5 0 0 1 1302.42,435.5 L1302.42,8.5 A2.5,2.5 0 0 1 1304.92,6 " style="stroke:#000000;stroke-width:1.5;fill:none;"/><line style="stroke:#000000;stroke-width:1.5;fill:none;" x1="1302.42" x2="1366.42" y1="29.6094" y2="29.6094"/><text fill="#000000" font-family="sans-serif" font-size="14" font-weight="bold" lengthAdjust="spacing" textLength="51" x="1306.42" y="22.5332">domain</text></g><!--MD5=[77349be1bd27b81b697a0f9b3aded3c8]
cluster infrastructure--><g id="cluster_infrastructure"><path d="M829.92,75 L927.92,75 A3.75,3.75 0 0 1 930.42,77.5 L937.42,98.6094 L1102.92,98.6094 A2.5,2.5 0 0 1 1105.42,101.1094 L1105.42,543.5 A2.5,2.5 0 0 1 1102.92,546 L829.92,546 A2.5,2.5 0 0 1 827.42,543.5 L827.42,77.5 A2.5,2.5 0 0 1 829.92,75 " style="stroke:#000000;stroke-width:1.5;fill:none;"/><line style="stroke:#000000;stroke-width:1.5;fill:none;" x1="827.42" x2="937.42" y1="98.6094" y2="98.6094"/><text fill="#000000" font-family="sans-serif" font-size="14" font-weight="bold" lengthAdjust="spacing" textLength="97" x="831.42" y="91.5332">infrastructure</text></g><!--MD5=[ac65c812e7532cbcd7b9effd958b962e]
cluster dtos--><g id="cluster_dtos"><path d="M1848.92,1370.5 L1880.92,1370.5 A3.75,3.75 0 0 1 1883.42,1373 L1890.42,1394.1094 L2478.92,1394.1094 A2.5,2.5 0 0 1 2481.42,1396.6094 L2481.42,1738.5 A2.5,2.5 0 0 1 2478.92,1741 L1848.92,1741 A2.5,2.5 0 0 1 1846.42,1738.5 L1846.42,1373 A2.5,2.5 0 0 1 1848.92,1370.5 " style="stroke:#000000;stroke-width:1.5;fill:none;"/><line style="stroke:#000000;stroke-width:1.5;fill:none;" x1="1846.42" x2="1890.42" y1="1394.1094" y2="1394.1094"/><text fill="#000000" font-family="sans-serif" font-size="14" font-weight="bold" lengthAdjust="spacing" textLength="31" x="1850.42" y="1387.0332">dtos</text></g><!--MD5=[7c0ed5f9a527ab221a5373ebedcc681c]
class IGenericService--><g id="elem_IGenericService"><rect codeLine="3" fill="#F1F1F1" height="160.0469" id="IGenericService" rx="2.5" ry="2.5" style="stroke:#181818;stroke-width:0.5;" width="829" x="976.92" y="1565"/><ellipse cx="1190.17" cy="1581" fill="#B4A7E5" rx="11" ry="11" style="stroke:#181818;stroke-width:1.0;"/><path d="M1191.1231,1577.6406 L1191.1231,1584.2969 L1192.8419,1584.2969 Q1193.4513,1584.2969 1193.7169,1584.5313 Q1193.9825,1584.7656 1193.9825,1585.1563 Q1193.9825,1585.5313 1193.7169,1585.7656 Q1193.4513,1586 1192.8419,1586 L1187.7013,1586 Q1187.0919,1586 1186.8263,1585.7656 Q1186.5606,1585.5313 1186.5606,1585.1406 Q1186.5606,1584.7656 1186.8263,1584.5313 Q1187.0919,1584.2969 1187.7013,1584.2969 L1189.42,1584.2969 L1189.42,1577.6406 L1187.7013,1577.6406 Q1187.0919,1577.6406 1186.8263,1577.4063 Q1186.5606,1577.1719 1186.5606,1576.7813 Q1186.5606,1576.4063 1186.8263,1576.1719 Q1187.0919,1575.9375 1187.7013,1575.9375 L1192.8419,1575.9375 Q1193.4513,1575.9375 1193.7169,1576.1719 Q1193.9825,1576.4063 1193.9825,1576.7813 Q1193.9825,1577.1719 1193.7169,1577.4063 Q1193.4513,1577.6406 1192.8419,1577.6406 L1191.1231,1577.6406 Z " fill="#000000"/><text fill="#000000" font-family="sans-serif" font-size="14" font-style="italic" lengthAdjust="spacing" textLength="100" x="1210.67" y="1586.7285">IGenericService</text><rect fill="#FFFFFF" height="17.0938" style="stroke:#000000;stroke-width:1.0;stroke-dasharray:2.0,2.0;" width="292" x="1516.92" y="1562"/><text fill="#000000" font-family="sans-serif" font-size="12" font-style="italic" lengthAdjust="spacing" textLength="290" x="1517.92" y="1575.457">EntityType, CreateDtoType, UpdateDtoType, DtoType</text><line style="stroke:#181818;stroke-width:0.5;" x1="977.92" x2="1804.92" y1="1597" y2="1597"/><ellipse cx="987.92" cy="1608" fill="#84BE84" rx="3" ry="3" style="stroke:#038048;stroke-width:1.0;"/><text fill="#000000" font-family="sans-serif" font-size="14" lengthAdjust="spacing" textLength="803" x="996.92" y="1615.5332">GetList(ctx context.Context, search, orderBy, orderDirection string, page, pageSize int) (*dtos.PaginatedListDto[DtoType], error)</text><line style="stroke:#181818;stroke-width:1.0;" x1="977.92" x2="1804.92" y1="1622.6094" y2="1622.6094"/><ellipse cx="987.92" cy="1633.6094" fill="#84BE84" rx="3" ry="3" style="stroke:#038048;stroke-width:1.0;"/><text fill="#000000" font-family="sans-serif" font-size="14" lengthAdjust="spacing" textLength="375" x="996.92" y="1641.1426">GetById(ctx context.Context, id uuid.UUID) (*DtoType, error)</text><line style="stroke:#181818;stroke-width:1.0;" x1="977.92" x2="1804.92" y1="1648.2188" y2="1648.2188"/><ellipse cx="987.92" cy="1659.2188" fill="#84BE84" rx="3" ry="3" style="stroke:#038048;stroke-width:1.0;"/><text fill="#000000" font-family="sans-serif" font-size="14" lengthAdjust="spacing" textLength="470" x="996.92" y="1666.752">Update(ctx context.Context, updateDto UpdateDtoType, id uuid.UUID) error</text><line style="stroke:#181818;stroke-width:1.0;" x1="977.92" x2="1804.92" y1="1673.8281" y2="1673.8281"/><ellipse cx="987.92" cy="1684.8281" fill="#84BE84" rx="3" ry="3" style="stroke:#038048;stroke-width:1.0;"/><text fill="#000000" font-family="sans-serif" font-size="14" lengthAdjust="spacing" textLength="457" x="996.92" y="1692.3613">Create(ctx context.Context, createDto CreateDtoType) (uuid.UUID, error)</text><line style="stroke:#181818;stroke-width:1.0;" x1="977.92" x2="1804.92" y1="1699.4375" y2="1699.4375"/><ellipse cx="987.92" cy="1710.4375" fill="#84BE84" rx="3" ry="3" style="stroke:#038048;stroke-width:1.0;"/><text fill="#000000" font-family="sans-serif" font-size="14" lengthAdjust="spacing" textLength="289" x="996.92" y="1717.9707">Delete(ctx context.Context, id uuid.UUID) error</text></g><path d="M615.42,1554 L615.42,1580.3516 A0,0 0 0 0 615.42,1580.3516 L907.42,1580.3516 A0,0 0 0 0 907.42,1580.3516 L907.42,1572 L980.92,1609.8047 L907.42,1564 L907.42,1564 L897.42,1554 L615.42,1554 A0,0 0 0 0 615.42,1554 " fill="#FEFFDD" style="stroke:#181818;stroke-width:0.5;"/><path d="M897.42,1554 L897.42,1564 L907.42,1564 L897.42,1554 " fill="#FEFFDD" style="stroke:#181818;stroke-width:0.5;"/><text fill="#000000" font-family="sans-serif" font-size="13" lengthAdjust="spacing" textLength="271" x="621.42" y="1572.4951">Get list of elements with search and pagination</text><path d="M615.42,1590.3516 L615.42,1616.7031 A0,0 0 0 0 615.42,1616.7031 L800.42,1616.7031 A0,0 0 0 0 800.42,1616.7031 L800.42,1608.3516 L980.92,1635.4141 L800.42,1600.3516 L800.42,1600.3516 L790.42,1590.3516 L615.42,1590.3516 A0,0 0 0 0 615.42,1590.3516 " fill="#FEFFDD" style="stroke:#181818;stroke-width:0.5;"/><path d="M790.42,1590.3516 L790.42,1600.3516 L800.42,1600.3516 L790.42,1590.3516 " fill="#FEFFDD" style="stroke:#181818;stroke-width:0.5;"/><text fill="#000000" font-family="sans-serif" font-size="13" lengthAdjust="spacing" textLength="164" x="621.42" y="1608.8467">Get entity by ID from service</text><path d="M615.42,1626.7031 L615.42,1653.0547 A0,0 0 0 0 615.42,1653.0547 L941.42,1653.0547 A0,0 0 0 0 941.42,1653.0547 L941.42,1644.7031 L980.92,1661.0234 L941.42,1636.7031 L941.42,1636.7031 L931.42,1626.7031 L615.42,1626.7031 A0,0 0 0 0 615.42,1626.7031 " fill="#FEFFDD" style="stroke:#181818;stroke-width:0.5;"/><path d="M931.42,1626.7031 L931.42,1636.7031 L941.42,1636.7031 L931.42,1626.7031 " fill="#FEFFDD" style="stroke:#181818;stroke-width:0.5;"/><text fill="#000000" font-family="sans-serif" font-size="13" lengthAdjust="spacing" textLength="305" x="621.42" y="1645.1982">Save the changes to the existing entity in the service</text><path d="M615.42,1663.0547 L615.42,1689.4063 A0,0 0 0 0 615.42,1689.4063 L776.42,1689.4063 A0,0 0 0 0 776.42,1689.4063 L776.42,1681.0547 L980.92,1686.6328 L776.42,1673.0547 L776.42,1673.0547 L766.42,1663.0547 L615.42,1663.0547 A0,0 0 0 0 615.42,1663.0547 " fill="#FEFFDD" style="stroke:#181818;stroke-width:0.5;"/><path d="M766.42,1663.0547 L766.42,1673.0547 L776.42,1673.0547 L766.42,1663.0547 " fill="#FEFFDD" style="stroke:#181818;stroke-width:0.5;"/><text fill="#000000" font-family="sans-serif" font-size="13" lengthAdjust="spacing" textLength="140" x="621.42" y="1681.5498">Add entity to the service</text><path d="M615.42,1699.4063 L615.42,1725.7578 A0,0 0 0 0 615.42,1725.7578 L783.42,1725.7578 A0,0 0 0 0 783.42,1725.7578 L783.42,1717.4063 L980.92,1712.2422 L783.42,1709.4063 L783.42,1709.4063 L773.42,1699.4063 L615.42,1699.4063 A0,0 0 0 0 615.42,1699.4063 " fill="#FEFFDD" style="stroke:#181818;stroke-width:0.5;"/><path d="M773.42,1699.4063 L773.42,1709.4063 L783.42,1709.4063 L773.42,1699.4063 " fill="#FEFFDD" style="stroke:#181818;stroke-width:0.5;"/><text fill="#000000" font-family="sans-serif" font-size="13" lengthAdjust="spacing" textLength="147" x="621.42" y="1717.9014">Mark an entity as deleted</text><!--MD5=[356bca08515a5260142359877c3882a6]
class GenericService--><g id="elem_GenericService"><rect codeLine="4" fill="#F1F1F1" height="108.8281" id="GenericService" rx="2.5" ry="2.5" style="stroke:#181818;stroke-width:0.5;" width="423" x="1179.92" y="1385"/><ellipse cx="1194.92" cy="1401" fill="#ADD1B2" rx="11" ry="11" style="stroke:#181818;stroke-width:1.0;"/><path d="M1197.6856,1396.875 Q1197.8419,1396.6563 1198.0294,1396.5469 Q1198.2169,1396.4375 1198.4356,1396.4375 Q1198.8106,1396.4375 1199.045,1396.7031 Q1199.2794,1396.9531 1199.2794,1397.5625 L1199.2794,1399.0156 Q1199.2794,1399.625 1199.045,1399.8906 Q1198.8106,1400.1563 1198.4356,1400.1563 Q1198.0919,1400.1563 1197.8887,1399.9531 Q1197.6856,1399.7656 1197.5762,1399.25 Q1197.5294,1398.8906 1197.3419,1398.7031 Q1197.0137,1398.3281 1196.4044,1398.1094 Q1195.795,1397.8906 1195.17,1397.8906 Q1194.4044,1397.8906 1193.7637,1398.2188 Q1193.1387,1398.5469 1192.6387,1399.2969 Q1192.1544,1400.0469 1192.1544,1401.0781 L1192.1544,1402.1719 Q1192.1544,1403.4063 1193.045,1404.2344 Q1193.9356,1405.0469 1195.5294,1405.0469 Q1196.4669,1405.0469 1197.1231,1404.7969 Q1197.5137,1404.6406 1197.9356,1404.2031 Q1198.2012,1403.9375 1198.3419,1403.8594 Q1198.4981,1403.7813 1198.7012,1403.7813 Q1199.0294,1403.7813 1199.2794,1404.0469 Q1199.545,1404.2969 1199.545,1404.6406 Q1199.545,1404.9844 1199.2012,1405.3906 Q1198.7012,1405.9688 1197.9044,1406.2969 Q1196.8262,1406.75 1195.5294,1406.75 Q1194.0137,1406.75 1192.8106,1406.125 Q1191.8262,1405.625 1191.1387,1404.5625 Q1190.4512,1403.4844 1190.4512,1402.2031 L1190.4512,1401.0469 Q1190.4512,1399.7188 1191.0606,1398.5781 Q1191.6856,1397.4219 1192.7794,1396.8125 Q1193.8731,1396.1875 1195.1075,1396.1875 Q1195.8419,1396.1875 1196.4825,1396.3594 Q1197.1387,1396.5156 1197.6856,1396.875 Z " fill="#000000"/><text fill="#000000" font-family="sans-serif" font-size="14" lengthAdjust="spacing" textLength="97" x="1208.92" y="1406.7285">GenericService</text><rect fill="#FFFFFF" height="17.0938" style="stroke:#000000;stroke-width:1.0;stroke-dasharray:2.0,2.0;" width="292" x="1313.92" y="1382"/><text fill="#000000" font-family="sans-serif" font-size="12" font-style="italic" lengthAdjust="spacing" textLength="290" x="1314.92" y="1395.457">EntityType, CreateDtoType, UpdateDtoType, DtoType</text><line style="stroke:#181818;stroke-width:0.5;" x1="1180.92" x2="1601.92" y1="1417" y2="1417"/><rect fill="none" height="6" style="stroke:#C82930;stroke-width:1.0;" width="6" x="1187.92" y="1425"/><text fill="#000000" font-family="sans-serif" font-size="14" lengthAdjust="spacing" textLength="271" x="1199.92" y="1435.5332">repository IGenericRepository&lt;EntityType&gt;</text><line style="stroke:#181818;stroke-width:1.0;" x1="1180.92" x2="1601.92" y1="1442.6094" y2="1442.6094"/><rect fill="none" height="6" style="stroke:#C82930;stroke-width:1.0;" width="6" x="1187.92" y="1450.6094"/><text fill="#000000" font-family="sans-serif" font-size="14" lengthAdjust="spacing" textLength="137" x="1199.92" y="1461.1426">logger *logrus.Logger</text><line style="stroke:#181818;stroke-width:1.0;" x1="1180.92" x2="1601.92" y1="1468.2188" y2="1468.2188"/><rect fill="none" height="6" style="stroke:#C82930;stroke-width:1.0;" width="6" x="1187.92" y="1476.2188"/><text fill="#000000" font-family="sans-serif" font-size="14" lengthAdjust="spacing" textLength="139" x="1199.92" y="1486.752">logSourceName string</text></g><!--MD5=[2a39a5be1cc24ddddd6e6286e4ece992]
class IEntityModel--><g id="elem_IEntityModel"><rect codeLine="3" fill="#F1F1F1" height="65.6094" id="IEntityModel" rx="2.5" ry="2.5" style="stroke:#181818;stroke-width:0.5;" width="138" x="1461.42" y="718.5"/><ellipse cx="1489.02" cy="734.5" fill="#B4A7E5" rx="11" ry="11" style="stroke:#181818;stroke-width:1.0;"/><path d="M1489.9731,731.1406 L1489.9731,737.7969 L1491.6919,737.7969 Q1492.3012,737.7969 1492.5669,738.0313 Q1492.8325,738.2656 1492.8325,738.6563 Q1492.8325,739.0313 1492.5669,739.2656 Q1492.3012,739.5 1491.6919,739.5 L1486.5512,739.5 Q1485.9419,739.5 1485.6762,739.2656 Q1485.4106,739.0313 1485.4106,738.6406 Q1485.4106,738.2656 1485.6762,738.0313 Q1485.9419,737.7969 1486.5512,737.7969 L1488.27,737.7969 L1488.27,731.1406 L1486.5512,731.1406 Q1485.9419,731.1406 1485.6762,730.9063 Q1485.4106,730.6719 1485.4106,730.2813 Q1485.4106,729.9063 1485.6762,729.6719 Q1485.9419,729.4375 1486.5512,729.4375 L1491.6919,729.4375 Q1492.3012,729.4375 1492.5669,729.6719 Q1492.8325,729.9063 1492.8325,730.2813 Q1492.8325,730.6719 1492.5669,730.9063 Q1492.3012,731.1406 1491.6919,731.1406 L1489.9731,731.1406 Z " fill="#000000"/><text fill="#000000" font-family="sans-serif" font-size="14" font-style="italic" lengthAdjust="spacing" textLength="78" x="1505.82" y="740.2285">IEntityModel</text><line style="stroke:#181818;stroke-width:0.5;" x1="1462.42" x2="1598.42" y1="750.5" y2="750.5"/><line style="stroke:#181818;stroke-width:0.5;" x1="1462.42" x2="1598.42" y1="758.5" y2="758.5"/><ellipse cx="1472.42" cy="769.5" fill="#84BE84" rx="3" ry="3" style="stroke:#038048;stroke-width:1.0;"/><text fill="#000000" font-family="sans-serif" font-size="14" lengthAdjust="spacing" textLength="112" x="1481.42" y="777.0332">GetID() uuid.UUID</text></g><!--MD5=[01906ac0e62f22b4e38e996248db568e]
class IEntityModelDeletedAt--><g id="elem_IEntityModelDeletedAt"><rect codeLine="3" fill="#F1F1F1" height="65.6094" id="IEntityModelDeletedAt" rx="2.5" ry="2.5" style="stroke:#181818;stroke-width:0.5;" width="172" x="1634.42" y="718.5"/><ellipse cx="1649.42" cy="734.5" fill="#B4A7E5" rx="11" ry="11" style="stroke:#181818;stroke-width:1.0;"/><path d="M1650.3731,731.1406 L1650.3731,737.7969 L1652.0919,737.7969 Q1652.7012,737.7969 1652.9669,738.0313 Q1653.2325,738.2656 1653.2325,738.6563 Q1653.2325,739.0313 1652.9669,739.2656 Q1652.7012,739.5 1652.0919,739.5 L1646.9512,739.5 Q1646.3419,739.5 1646.0762,739.2656 Q1645.8106,739.0313 1645.8106,738.6406 Q1645.8106,738.2656 1646.0762,738.0313 Q1646.3419,737.7969 1646.9512,737.7969 L1648.67,737.7969 L1648.67,731.1406 L1646.9512,731.1406 Q1646.3419,731.1406 1646.0762,730.9063 Q1645.8106,730.6719 1645.8106,730.2813 Q1645.8106,729.9063 1646.0762,729.6719 Q1646.3419,729.4375 1646.9512,729.4375 L1652.0919,729.4375 Q1652.7012,729.4375 1652.9669,729.6719 Q1653.2325,729.9063 1653.2325,730.2813 Q1653.2325,730.6719 1652.9669,730.9063 Q1652.7012,731.1406 1652.0919,731.1406 L1650.3731,731.1406 Z " fill="#000000"/><text fill="#000000" font-family="sans-serif" font-size="14" font-style="italic" lengthAdjust="spacing" textLength="140" x="1663.42" y="740.2285">IEntityModelDeletedAt</text><line style="stroke:#181818;stroke-width:0.5;" x1="1635.42" x2="1805.42" y1="750.5" y2="750.5"/><line style="stroke:#181818;stroke-width:0.5;" x1="1635.42" x2="1805.42" y1="758.5" y2="758.5"/><ellipse cx="1645.42" cy="769.5" fill="#84BE84" rx="3" ry="3" style="stroke:#038048;stroke-width:1.0;"/><text fill="#000000" font-family="sans-serif" font-size="14" lengthAdjust="spacing" textLength="80" x="1654.42" y="777.0332">SetDeleted()</text></g><g id="elem_GMN72"><path d="M1486.92,980.5 L1486.92,1023.2031 A0,0 0 0 0 1486.92,1023.2031 L1805.92,1023.2031 A0,0 0 0 0 1805.92,1023.2031 L1805.92,990.5 L1795.92,980.5 L1656.55,980.5 L1710.82,784.73 L1648.55,980.5 L1486.92,980.5 A0,0 0 0 0 1486.92,980.5 " fill="#FEFFDD" style="stroke:#181818;stroke-width:0.5;"/><path d="M1795.92,980.5 L1795.92,990.5 L1805.92,990.5 L1795.92,980.5 " fill="#FEFFDD" style="stroke:#181818;stroke-width:0.5;"/><text fill="#000000" font-family="sans-serif" font-size="13" lengthAdjust="spacing" textLength="98" x="1492.92" y="998.9951">Set deletion time</text><text fill="#000000" font-family="sans-serif" font-size="13" lengthAdjust="spacing" textLength="298" x="1492.92" y="1015.3467">This method marks that the entity has been deleted</text></g><!--MD5=[b3e0f8dcddb1b27f071a0303a68762bf]
class IGenericRepository--><g id="elem_IGenericRepository"><rect codeLine="3" fill="#F1F1F1" height="236.875" id="IGenericRepository" rx="2.5" ry="2.5" style="stroke:#181818;stroke-width:0.5;" width="920" x="506.42" y="633"/><ellipse cx="870.67" cy="649" fill="#B4A7E5" rx="11" ry="11" style="stroke:#181818;stroke-width:1.0;"/><path d="M871.6231,645.6406 L871.6231,652.2969 L873.3419,652.2969 Q873.9513,652.2969 874.2169,652.5313 Q874.4825,652.7656 874.4825,653.1563 Q874.4825,653.5313 874.2169,653.7656 Q873.9513,654 873.3419,654 L868.2013,654 Q867.5919,654 867.3263,653.7656 Q867.0606,653.5313 867.0606,653.1406 Q867.0606,652.7656 867.3263,652.5313 Q867.5919,652.2969 868.2013,652.2969 L869.92,652.2969 L869.92,645.6406 L868.2013,645.6406 Q867.5919,645.6406 867.3263,645.4063 Q867.0606,645.1719 867.0606,644.7813 Q867.0606,644.4063 867.3263,644.1719 Q867.5919,643.9375 868.2013,643.9375 L873.3419,643.9375 Q873.9513,643.9375 874.2169,644.1719 Q874.4825,644.4063 874.4825,644.7813 Q874.4825,645.1719 874.2169,645.4063 Q873.9513,645.6406 873.3419,645.6406 L871.6231,645.6406 Z " fill="#000000"/><text fill="#000000" font-family="sans-serif" font-size="14" font-style="italic" lengthAdjust="spacing" textLength="122" x="891.17" y="654.7285">IGenericRepository</text><rect fill="#FFFFFF" height="17.0938" style="stroke:#000000;stroke-width:1.0;stroke-dasharray:2.0,2.0;" width="59" x="1370.42" y="630"/><text fill="#000000" font-family="sans-serif" font-size="12" font-style="italic" lengthAdjust="spacing" textLength="57" x="1371.42" y="643.457">EntityType</text><line style="stroke:#181818;stroke-width:0.5;" x1="507.42" x2="1425.42" y1="665" y2="665"/><ellipse cx="517.42" cy="676" fill="#84BE84" rx="3" ry="3" style="stroke:#038048;stroke-width:1.0;"/><text fill="#000000" font-family="sans-serif" font-size="14" lengthAdjust="spacing" textLength="894" x="526.42" y="683.5332">GetList(ctx context.Context, orderBy string, orderDirection string, page int, size int, queryBuilder interfaces.IQueryBuilder) (*[]EntityType, error)</text><line style="stroke:#181818;stroke-width:1.0;" x1="507.42" x2="1425.42" y1="690.6094" y2="690.6094"/><ellipse cx="517.42" cy="701.6094" fill="#84BE84" rx="3" ry="3" style="stroke:#038048;stroke-width:1.0;"/><text fill="#000000" font-family="sans-serif" font-size="14" lengthAdjust="spacing" textLength="494" x="526.42" y="709.1426">Count(ctx context.Context, queryBuilder interfaces.IQueryBuilder) (int64, error)</text><line style="stroke:#181818;stroke-width:1.0;" x1="507.42" x2="1425.42" y1="716.2188" y2="716.2188"/><ellipse cx="517.42" cy="727.2188" fill="#84BE84" rx="3" ry="3" style="stroke:#038048;stroke-width:1.0;"/><text fill="#000000" font-family="sans-serif" font-size="14" lengthAdjust="spacing" textLength="393" x="526.42" y="734.752">NewQueryBuilder(ctx context.Context) interfaces.IQueryBuilder</text><line style="stroke:#181818;stroke-width:1.0;" x1="507.42" x2="1425.42" y1="741.8281" y2="741.8281"/><ellipse cx="517.42" cy="752.8281" fill="#84BE84" rx="3" ry="3" style="stroke:#038048;stroke-width:1.0;"/><text fill="#000000" font-family="sans-serif" font-size="14" lengthAdjust="spacing" textLength="388" x="526.42" y="760.3613">GetById(ctx context.Context, id uuid.UUID) (*EntityType, error)</text><line style="stroke:#181818;stroke-width:1.0;" x1="507.42" x2="1425.42" y1="767.4375" y2="767.4375"/><ellipse cx="517.42" cy="778.4375" fill="#84BE84" rx="3" ry="3" style="stroke:#038048;stroke-width:1.0;"/><text fill="#000000" font-family="sans-serif" font-size="14" lengthAdjust="spacing" textLength="326" x="526.42" y="785.9707">Update(ctx context.Context, entity *EntityType) error</text><line style="stroke:#181818;stroke-width:1.0;" x1="507.42" x2="1425.42" y1="793.0469" y2="793.0469"/><ellipse cx="517.42" cy="804.0469" fill="#84BE84" rx="3" ry="3" style="stroke:#038048;stroke-width:1.0;"/><text fill="#000000" font-family="sans-serif" font-size="14" lengthAdjust="spacing" textLength="391" x="526.42" y="811.5801">Insert(ctx context.Context, entity EntityType) (uuid.UUID, error)</text><line style="stroke:#181818;stroke-width:1.0;" x1="507.42" x2="1425.42" y1="818.6563" y2="818.6563"/><ellipse cx="517.42" cy="829.6563" fill="#84BE84" rx="3" ry="3" style="stroke:#038048;stroke-width:1.0;"/><text fill="#000000" font-family="sans-serif" font-size="14" lengthAdjust="spacing" textLength="289" x="526.42" y="837.1895">Delete(ctx context.Context, id uuid.UUID) error</text><line style="stroke:#181818;stroke-width:1.0;" x1="507.42" x2="1425.42" y1="844.2656" y2="844.2656"/><ellipse cx="517.42" cy="855.2656" fill="#84BE84" rx="3" ry="3" style="stroke:#038048;stroke-width:1.0;"/><text fill="#000000" font-family="sans-serif" font-size="14" lengthAdjust="spacing" textLength="99" x="526.42" y="862.7988">CloseDb() error</text></g><path d="M127.92,606 L127.92,632.3516 A0,0 0 0 0 127.92,632.3516 L421.92,632.3516 A0,0 0 0 0 421.92,632.3516 L421.92,624 L510.42,677.8047 L421.92,616 L421.92,616 L411.92,606 L127.92,606 A0,0 0 0 0 127.92,606 " fill="#FEFFDD" style="stroke:#181818;stroke-width:0.5;"/><path d="M411.92,606 L411.92,616 L421.92,616 L411.92,606 " fill="#FEFFDD" style="stroke:#181818;stroke-width:0.5;"/><text fill="#000000" font-family="sans-serif" font-size="13" lengthAdjust="spacing" textLength="273" x="133.92" y="624.4951">Get list of elements with filtering and pagination</text><path d="M127.92,642.3516 L127.92,668.7031 A0,0 0 0 0 127.92,668.7031 L337.92,668.7031 A0,0 0 0 0 337.92,668.7031 L337.92,660.3516 L510.42,703.4141 L337.92,652.3516 L337.92,652.3516 L327.92,642.3516 L127.92,642.3516 A0,0 0 0 0 127.92,642.3516 " fill="#FEFFDD" style="stroke:#181818;stroke-width:0.5;"/><path d="M327.92,642.3516 L327.92,652.3516 L337.92,652.3516 L327.92,642.3516 " fill="#FEFFDD" style="stroke:#181818;stroke-width:0.5;"/><text fill="#000000" font-family="sans-serif" font-size="13" lengthAdjust="spacing" textLength="189" x="133.92" y="660.8467">Get count of entities with filtering</text><path d="M127.92,678.7031 L127.92,705.0547 A0,0 0 0 0 127.92,705.0547 L363.92,705.0547 A0,0 0 0 0 363.92,705.0547 L363.92,696.7031 L510.42,729.0234 L363.92,688.7031 L363.92,688.7031 L353.92,678.7031 L127.92,678.7031 A0,0 0 0 0 127.92,678.7031 " fill="#FEFFDD" style="stroke:#181818;stroke-width:0.5;"/><path d="M353.92,678.7031 L353.92,688.7031 L363.92,688.7031 L353.92,678.7031 " fill="#FEFFDD" style="stroke:#181818;stroke-width:0.5;"/><text fill="#000000" font-family="sans-serif" font-size="13" lengthAdjust="spacing" textLength="215" x="133.92" y="697.1982">Get new instance of the query builder</text><path d="M127.92,715.0547 L127.92,741.4063 A0,0 0 0 0 127.92,741.4063 L329.92,741.4063 A0,0 0 0 0 329.92,741.4063 L329.92,733.0547 L510.42,754.6328 L329.92,725.0547 L329.92,725.0547 L319.92,715.0547 L127.92,715.0547 A0,0 0 0 0 127.92,715.0547 " fill="#FEFFDD" style="stroke:#181818;stroke-width:0.5;"/><path d="M319.92,715.0547 L319.92,725.0547 L329.92,725.0547 L319.92,715.0547 " fill="#FEFFDD" style="stroke:#181818;stroke-width:0.5;"/><text fill="#000000" font-family="sans-serif" font-size="13" lengthAdjust="spacing" textLength="181" x="133.92" y="733.5498">Get entity by ID from repository</text><path d="M127.92,751.4063 L127.92,777.7578 A0,0 0 0 0 127.92,777.7578 L470.92,777.7578 A0,0 0 0 0 470.92,777.7578 L470.92,769.4063 L510.42,780.2422 L470.92,761.4063 L470.92,761.4063 L460.92,751.4063 L127.92,751.4063 A0,0 0 0 0 127.92,751.4063 " fill="#FEFFDD" style="stroke:#181818;stroke-width:0.5;"/><path d="M460.92,751.4063 L460.92,761.4063 L470.92,761.4063 L460.92,751.4063 " fill="#FEFFDD" style="stroke:#181818;stroke-width:0.5;"/><text fill="#000000" font-family="sans-serif" font-size="13" lengthAdjust="spacing" textLength="322" x="133.92" y="769.9014">Save the changes to the existing entity in the repository</text><path d="M127.92,787.7578 L127.92,814.1094 A0,0 0 0 0 127.92,814.1094 L305.92,814.1094 A0,0 0 0 0 305.92,814.1094 L305.92,805.7578 L510.42,805.8516 L305.92,797.7578 L305.92,797.7578 L295.92,787.7578 L127.92,787.7578 A0,0 0 0 0 127.92,787.7578 " fill="#FEFFDD" style="stroke:#181818;stroke-width:0.5;"/><path d="M295.92,787.7578 L295.92,797.7578 L305.92,797.7578 L295.92,787.7578 " fill="#FEFFDD" style="stroke:#181818;stroke-width:0.5;"/><text fill="#000000" font-family="sans-serif" font-size="13" lengthAdjust="spacing" textLength="157" x="133.92" y="806.2529">Add entity to the repository</text><path d="M127.92,824.1094 L127.92,850.4609 A0,0 0 0 0 127.92,850.4609 L329.92,850.4609 A0,0 0 0 0 329.92,850.4609 L329.92,842.1094 L510.42,831.4609 L329.92,834.1094 L329.92,834.1094 L319.92,824.1094 L127.92,824.1094 A0,0 0 0 0 127.92,824.1094 " fill="#FEFFDD" style="stroke:#181818;stroke-width:0.5;"/><path d="M319.92,824.1094 L319.92,834.1094 L329.92,834.1094 L319.92,824.1094 " fill="#FEFFDD" style="stroke:#181818;stroke-width:0.5;"/><text fill="#000000" font-family="sans-serif" font-size="13" lengthAdjust="spacing" textLength="181" x="133.92" y="842.6045">Delete entity from the database</text><path d="M127.92,860.4609 L127.92,886.8125 A0,0 0 0 0 127.92,886.8125 L356.92,886.8125 A0,0 0 0 0 356.92,886.8125 L356.92,878.4609 L510.42,857.0703 L356.92,870.4609 L356.92,870.4609 L346.92,860.4609 L127.92,860.4609 A0,0 0 0 0 127.92,860.4609 " fill="#FEFFDD" style="stroke:#181818;stroke-width:0.5;"/><path d="M346.92,860.4609 L346.92,870.4609 L356.92,870.4609 L346.92,860.4609 " fill="#FEFFDD" style="stroke:#181818;stroke-width:0.5;"/><text fill="#000000" font-family="sans-serif" font-size="13" lengthAdjust="spacing" textLength="208" x="133.92" y="878.9561">Closes current database connection</text><!--MD5=[c2fde9c784a62a3ac087d43827625e00]
class EthernetSwitchService--><g id="elem_EthernetSwitchService"><rect codeLine="8" fill="#F1F1F1" height="83.2188" id="EthernetSwitchService" rx="2.5" ry="2.5" style="stroke:#181818;stroke-width:0.5;" width="324" x="1119.42" y="961"/><ellipse cx="1206.67" cy="977" fill="#ADD1B2" rx="11" ry="11" style="stroke:#181818;stroke-width:1.0;"/><path d="M1209.4356,972.875 Q1209.5919,972.6563 1209.7794,972.5469 Q1209.9669,972.4375 1210.1856,972.4375 Q1210.5606,972.4375 1210.795,972.7031 Q1211.0294,972.9531 1211.0294,973.5625 L1211.0294,975.0156 Q1211.0294,975.625 1210.795,975.8906 Q1210.5606,976.1563 1210.1856,976.1563 Q1209.8419,976.1563 1209.6387,975.9531 Q1209.4356,975.7656 1209.3262,975.25 Q1209.2794,974.8906 1209.0919,974.7031 Q1208.7637,974.3281 1208.1544,974.1094 Q1207.545,973.8906 1206.92,973.8906 Q1206.1544,973.8906 1205.5137,974.2188 Q1204.8887,974.5469 1204.3887,975.2969 Q1203.9044,976.0469 1203.9044,977.0781 L1203.9044,978.1719 Q1203.9044,979.4063 1204.795,980.2344 Q1205.6856,981.0469 1207.2794,981.0469 Q1208.2169,981.0469 1208.8731,980.7969 Q1209.2637,980.6406 1209.6856,980.2031 Q1209.9512,979.9375 1210.0919,979.8594 Q1210.2481,979.7813 1210.4512,979.7813 Q1210.7794,979.7813 1211.0294,980.0469 Q1211.295,980.2969 1211.295,980.6406 Q1211.295,980.9844 1210.9512,981.3906 Q1210.4512,981.9688 1209.6544,982.2969 Q1208.5762,982.75 1207.2794,982.75 Q1205.7637,982.75 1204.5606,982.125 Q1203.5762,981.625 1202.8887,980.5625 Q1202.2012,979.4844 1202.2012,978.2031 L1202.2012,977.0469 Q1202.2012,975.7188 1202.8106,974.5781 Q1203.4356,973.4219 1204.5294,972.8125 Q1205.6231,972.1875 1206.8575,972.1875 Q1207.5919,972.1875 1208.2325,972.3594 Q1208.8887,972.5156 1209.4356,972.875 Z " fill="#000000"/><text fill="#000000" font-family="sans-serif" font-size="14" lengthAdjust="spacing" textLength="141" x="1227.17" y="982.7285">EthernetSwitchService</text><line style="stroke:#181818;stroke-width:0.5;" x1="1120.42" x2="1442.42" y1="993" y2="993"/><rect fill="none" height="6" style="stroke:#C82930;stroke-width:1.0;" width="6" x="1127.42" y="1001"/><text fill="#000000" font-family="sans-serif" font-size="14" lengthAdjust="spacing" textLength="298" x="1139.42" y="1011.5332">repository IGenericRepository&lt;EthernetSwitch&gt;</text><line style="stroke:#181818;stroke-width:1.0;" x1="1120.42" x2="1442.42" y1="1018.6094" y2="1018.6094"/><ellipse cx="1130.42" cy="1029.6094" fill="#84BE84" rx="3" ry="3" style="stroke:#038048;stroke-width:1.0;"/><text fill="#000000" font-family="sans-serif" font-size="14" lengthAdjust="spacing" textLength="144" x="1139.42" y="1037.1426">GetSupportedModels()</text></g><path d="M744.42,984 L744.42,1010.3516 A0,0 0 0 0 744.42,1010.3516 L1076.42,1010.3516 A0,0 0 0 0 1076.42,1010.3516 L1076.42,1002 L1123.42,1031.4141 L1076.42,994 L1076.42,994 L1066.42,984 L744.42,984 A0,0 0 0 0 744.42,984 " fill="#FEFFDD" style="stroke:#181818;stroke-width:0.5;"/><path d="M1066.42,984 L1066.42,994 L1076.42,994 L1066.42,984 " fill="#FEFFDD" style="stroke:#181818;stroke-width:0.5;"/><text fill="#000000" font-family="sans-serif" font-size="13" lengthAdjust="spacing" textLength="311" x="750.42" y="1002.4951">Get ethernet switch models that supported by system</text><g id="elem_GMN111"><path d="M395.42,964.5 L395.42,1039.9063 L709.42,1039.9063 L709.42,974.5 L699.42,964.5 L395.42,964.5 " fill="#FEFFDD" style="stroke:#181818;stroke-width:0.5;"/><path d="M699.42,964.5 L699.42,974.5 L709.42,974.5 L699.42,964.5 " fill="#FEFFDD" style="stroke:#181818;stroke-width:1.0;"/><text fill="#000000" font-family="sans-serif" font-size="13" lengthAdjust="spacing" textLength="293" x="401.42" y="982.9951">Advanced business logic for EthernetSwitch entity:</text><text fill="#000000" font-family="sans-serif" font-size="13" lengthAdjust="spacing" textLength="87" x="401.42" y="999.3467">DTO Validation</text><text fill="#000000" font-family="sans-serif" font-size="13" lengthAdjust="spacing" textLength="249" x="401.42" y="1015.6982">Checking the uniqueness of serial numbers</text><text fill="#000000" font-family="sans-serif" font-size="13" lengthAdjust="spacing" textLength="224" x="401.42" y="1032.0498">Checking the uniqueness of addresses</text></g><g id="elem_EthernetSwitchServiceTypes"><path d="M1528.92,1178.5 L1528.92,1253.9063 L1805.92,1253.9063 L1805.92,1188.5 L1795.92,1178.5 L1528.92,1178.5 " fill="#FEFFDD" style="stroke:#181818;stroke-width:0.5;"/><path d="M1795.92,1178.5 L1795.92,1188.5 L1805.92,1188.5 L1795.92,1178.5 " fill="#FEFFDD" style="stroke:#181818;stroke-width:1.0;"/><text fill="#000000" font-family="sans-serif" font-size="13" lengthAdjust="spacing" textLength="168" x="1534.92" y="1196.9951">EntityType is EthernetSwitch</text><text fill="#000000" font-family="sans-serif" font-size="13" lengthAdjust="spacing" textLength="250" x="1534.92" y="1213.3467">CreateDtoType is EthernetSwitchCreateDto</text><text fill="#000000" font-family="sans-serif" font-size="13" lengthAdjust="spacing" textLength="256" x="1534.92" y="1229.6982">UpdateDtoType is EthernetSwitchUpdateDto</text><text fill="#000000" font-family="sans-serif" font-size="13" lengthAdjust="spacing" textLength="174" x="1534.92" y="1246.0498">DtoType is EthernetSwitchDto</text></g><!--MD5=[cf2f41d174bd4ebb3ea58d1ef762c740]
class GinGenericController--><g id="elem_GinGenericController"><rect codeLine="4" fill="#F1F1F1" height="211.2656" id="GinGenericController" rx="2.5" ry="2.5" style="stroke:#181818;stroke-width:0.5;" width="590" x="2197.42" y="1111"/><ellipse cx="2274.17" cy="1127" fill="#ADD1B2" rx="11" ry="11" style="stroke:#181818;stroke-width:1.0;"/><path d="M2276.9356,1122.875 Q2277.0919,1122.6563 2277.2794,1122.5469 Q2277.4669,1122.4375 2277.6856,1122.4375 Q2278.0606,1122.4375 2278.295,1122.7031 Q2278.5294,1122.9531 2278.5294,1123.5625 L2278.5294,1125.0156 Q2278.5294,1125.625 2278.295,1125.8906 Q2278.0606,1126.1563 2277.6856,1126.1563 Q2277.3419,1126.1563 2277.1388,1125.9531 Q2276.9356,1125.7656 2276.8263,1125.25 Q2276.7794,1124.8906 2276.5919,1124.7031 Q2276.2638,1124.3281 2275.6544,1124.1094 Q2275.045,1123.8906 2274.42,1123.8906 Q2273.6544,1123.8906 2273.0138,1124.2188 Q2272.3888,1124.5469 2271.8888,1125.2969 Q2271.4044,1126.0469 2271.4044,1127.0781 L2271.4044,1128.1719 Q2271.4044,1129.4063 2272.295,1130.2344 Q2273.1856,1131.0469 2274.7794,1131.0469 Q2275.7169,1131.0469 2276.3731,1130.7969 Q2276.7638,1130.6406 2277.1856,1130.2031 Q2277.4513,1129.9375 2277.5919,1129.8594 Q2277.7481,1129.7813 2277.9513,1129.7813 Q2278.2794,1129.7813 2278.5294,1130.0469 Q2278.795,1130.2969 2278.795,1130.6406 Q2278.795,1130.9844 2278.4513,1131.3906 Q2277.9513,1131.9688 2277.1544,1132.2969 Q2276.0763,1132.75 2274.7794,1132.75 Q2273.2638,1132.75 2272.0606,1132.125 Q2271.0763,1131.625 2270.3888,1130.5625 Q2269.7013,1129.4844 2269.7013,1128.2031 L2269.7013,1127.0469 Q2269.7013,1125.7188 2270.3106,1124.5781 Q2270.9356,1123.4219 2272.0294,1122.8125 Q2273.1231,1122.1875 2274.3575,1122.1875 Q2275.0919,1122.1875 2275.7325,1122.3594 Q2276.3888,1122.5156 2276.9356,1122.875 Z " fill="#000000"/><text fill="#000000" font-family="sans-serif" font-size="14" lengthAdjust="spacing" textLength="134" x="2294.67" y="1132.7285">GinGenericController</text><rect fill="#FFFFFF" height="17.0938" style="stroke:#000000;stroke-width:1.0;stroke-dasharray:2.0,2.0;" width="292" x="2498.42" y="1108"/><text fill="#000000" font-family="sans-serif" font-size="12" font-style="italic" lengthAdjust="spacing" textLength="290" x="2499.42" y="1121.457">DtoType, CreateDtoType, UpdateDtoType, EntityType</text><line style="stroke:#181818;stroke-width:0.5;" x1="2198.42" x2="2786.42" y1="1143" y2="1143"/><rect fill="none" height="6" style="stroke:#C82930;stroke-width:1.0;" width="6" x="2205.42" y="1151"/><text fill="#000000" font-family="sans-serif" font-size="14" lengthAdjust="spacing" textLength="564" x="2217.42" y="1161.5332">service interfaces.IGenericService[DtoType, CreateDtoType, UpdateDtoType, EntityType]</text><line style="stroke:#181818;stroke-width:1.0;" x1="2198.42" x2="2786.42" y1="1168.6094" y2="1168.6094"/><rect fill="none" height="6" style="stroke:#C82930;stroke-width:1.0;" width="6" x="2205.42" y="1176.6094"/><text fill="#000000" font-family="sans-serif" font-size="14" lengthAdjust="spacing" textLength="137" x="2217.42" y="1187.1426">logger *logrus.Logger</text><line style="stroke:#181818;stroke-width:1.0;" x1="2198.42" x2="2786.42" y1="1194.2188" y2="1194.2188"/><ellipse cx="2208.42" cy="1205.2188" fill="#84BE84" rx="3" ry="3" style="stroke:#038048;stroke-width:1.0;"/><text fill="#000000" font-family="sans-serif" font-size="14" lengthAdjust="spacing" textLength="152" x="2217.42" y="1212.752">GetList(ctx *gin.Context)</text><line style="stroke:#181818;stroke-width:1.0;" x1="2198.42" x2="2786.42" y1="1219.8281" y2="1219.8281"/><ellipse cx="2208.42" cy="1230.8281" fill="#84BE84" rx="3" ry="3" style="stroke:#038048;stroke-width:1.0;"/><text fill="#000000" font-family="sans-serif" font-size="14" lengthAdjust="spacing" textLength="159" x="2217.42" y="1238.3613">GetByID(ctx *gin.Context)</text><line style="stroke:#181818;stroke-width:1.0;" x1="2198.42" x2="2786.42" y1="1245.4375" y2="1245.4375"/><ellipse cx="2208.42" cy="1256.4375" fill="#84BE84" rx="3" ry="3" style="stroke:#038048;stroke-width:1.0;"/><text fill="#000000" font-family="sans-serif" font-size="14" lengthAdjust="spacing" textLength="150" x="2217.42" y="1263.9707">Create(ctx *gin.Context)</text><line style="stroke:#181818;stroke-width:1.0;" x1="2198.42" x2="2786.42" y1="1271.0469" y2="1271.0469"/><ellipse cx="2208.42" cy="1282.0469" fill="#84BE84" rx="3" ry="3" style="stroke:#038048;stroke-width:1.0;"/><text fill="#000000" font-family="sans-serif" font-size="14" lengthAdjust="spacing" textLength="152" x="2217.42" y="1289.5801">Update(ctx *gin.Context)</text><line style="stroke:#181818;stroke-width:1.0;" x1="2198.42" x2="2786.42" y1="1296.6563" y2="1296.6563"/><ellipse cx="2208.42" cy="1307.6563" fill="#84BE84" rx="3" ry="3" style="stroke:#038048;stroke-width:1.0;"/><text fill="#000000" font-family="sans-serif" font-size="14" lengthAdjust="spacing" textLength="148" x="2217.42" y="1315.1895">Delete(ctx *gin.Context)</text></g><path d="M1862.42,1125 L1862.42,1151.3516 A0,0 0 0 0 1862.42,1151.3516 L2154.42,1151.3516 A0,0 0 0 0 2154.42,1151.3516 L2154.42,1143 L2201.42,1207.0234 L2154.42,1135 L2154.42,1135 L2144.42,1125 L1862.42,1125 A0,0 0 0 0 1862.42,1125 " fill="#FEFFDD" style="stroke:#181818;stroke-width:0.5;"/><path d="M2144.42,1125 L2144.42,1135 L2154.42,1135 L2144.42,1125 " fill="#FEFFDD" style="stroke:#181818;stroke-width:0.5;"/><text fill="#000000" font-family="sans-serif" font-size="13" lengthAdjust="spacing" textLength="271" x="1868.42" y="1143.4951">Get list of elements with search and pagination</text><path d="M1862.42,1161.3516 L1862.42,1187.7031 A0,0 0 0 0 1862.42,1187.7031 L1972.42,1187.7031 A0,0 0 0 0 1972.42,1187.7031 L1972.42,1179.3516 L2201.42,1232.6328 L1972.42,1171.3516 L1972.42,1171.3516 L1962.42,1161.3516 L1862.42,1161.3516 A0,0 0 0 0 1862.42,1161.3516 " fill="#FEFFDD" style="stroke:#181818;stroke-width:0.5;"/><path d="M1962.42,1161.3516 L1962.42,1171.3516 L1972.42,1171.3516 L1962.42,1161.3516 " fill="#FEFFDD" style="stroke:#181818;stroke-width:0.5;"/><text fill="#000000" font-family="sans-serif" font-size="13" lengthAdjust="spacing" textLength="89" x="1868.42" y="1179.8467">Get entity by id</text><path d="M1862.42,1197.7031 L1862.42,1224.0547 A0,0 0 0 0 1862.42,1224.0547 L1984.42,1224.0547 A0,0 0 0 0 1984.42,1224.0547 L1984.42,1215.7031 L2201.42,1258.2422 L1984.42,1207.7031 L1984.42,1207.7031 L1974.42,1197.7031 L1862.42,1197.7031 A0,0 0 0 0 1862.42,1197.7031 " fill="#FEFFDD" style="stroke:#181818;stroke-width:0.5;"/><path d="M1974.42,1197.7031 L1974.42,1207.7031 L1984.42,1207.7031 L1974.42,1197.7031 " fill="#FEFFDD" style="stroke:#181818;stroke-width:0.5;"/><text fill="#000000" font-family="sans-serif" font-size="13" lengthAdjust="spacing" textLength="101" x="1868.42" y="1216.1982">Create new entity</text><path d="M1862.42,1234.0547 L1862.42,1260.4063 A0,0 0 0 0 1862.42,1260.4063 L1992.42,1260.4063 A0,0 0 0 0 1992.42,1260.4063 L1992.42,1252.0547 L2201.42,1283.8516 L1992.42,1244.0547 L1992.42,1244.0547 L1982.42,1234.0547 L1862.42,1234.0547 A0,0 0 0 0 1862.42,1234.0547 " fill="#FEFFDD" style="stroke:#181818;stroke-width:0.5;"/><path d="M1982.42,1234.0547 L1982.42,1244.0547 L1992.42,1244.0547 L1982.42,1234.0547 " fill="#FEFFDD" style="stroke:#181818;stroke-width:0.5;"/><text fill="#000000" font-family="sans-serif" font-size="13" lengthAdjust="spacing" textLength="109" x="1868.42" y="1252.5498">Update entity by id</text><path d="M1862.42,1270.4063 L1862.42,1296.7578 A0,0 0 0 0 1862.42,1296.7578 L1991.42,1296.7578 A0,0 0 0 0 1991.42,1296.7578 L1991.42,1288.4063 L2201.42,1309.4609 L1991.42,1280.4063 L1991.42,1280.4063 L1981.42,1270.4063 L1862.42,1270.4063 A0,0 0 0 0 1862.42,1270.4063 " fill="#FEFFDD" style="stroke:#181818;stroke-width:0.5;"/><path d="M1981.42,1270.4063 L1981.42,1280.4063 L1991.42,1280.4063 L1981.42,1270.4063 " fill="#FEFFDD" style="stroke:#181818;stroke-width:0.5;"/><text fill="#000000" font-family="sans-serif" font-size="13" lengthAdjust="spacing" textLength="108" x="1868.42" y="1288.9014">Soft deleting entity</text><!--MD5=[695175da3311c1492e1478e022f8eea7]
class EthernetSwitchGinController--><g id="elem_EthernetSwitchGinController"><rect codeLine="8" fill="#F1F1F1" height="83.2188" id="EthernetSwitchGinController" rx="2.5" ry="2.5" style="stroke:#181818;stroke-width:0.5;" width="803" x="2095.92" y="961"/><ellipse cx="2404.17" cy="977" fill="#ADD1B2" rx="11" ry="11" style="stroke:#181818;stroke-width:1.0;"/><path d="M2406.9356,972.875 Q2407.0919,972.6563 2407.2794,972.5469 Q2407.4669,972.4375 2407.6856,972.4375 Q2408.0606,972.4375 2408.295,972.7031 Q2408.5294,972.9531 2408.5294,973.5625 L2408.5294,975.0156 Q2408.5294,975.625 2408.295,975.8906 Q2408.0606,976.1563 2407.6856,976.1563 Q2407.3419,976.1563 2407.1388,975.9531 Q2406.9356,975.7656 2406.8263,975.25 Q2406.7794,974.8906 2406.5919,974.7031 Q2406.2638,974.3281 2405.6544,974.1094 Q2405.045,973.8906 2404.42,973.8906 Q2403.6544,973.8906 2403.0138,974.2188 Q2402.3888,974.5469 2401.8888,975.2969 Q2401.4044,976.0469 2401.4044,977.0781 L2401.4044,978.1719 Q2401.4044,979.4063 2402.295,980.2344 Q2403.1856,981.0469 2404.7794,981.0469 Q2405.7169,981.0469 2406.3731,980.7969 Q2406.7638,980.6406 2407.1856,980.2031 Q2407.4513,979.9375 2407.5919,979.8594 Q2407.7481,979.7813 2407.9513,979.7813 Q2408.2794,979.7813 2408.5294,980.0469 Q2408.795,980.2969 2408.795,980.6406 Q2408.795,980.9844 2408.4513,981.3906 Q2407.9513,981.9688 2407.1544,982.2969 Q2406.0763,982.75 2404.7794,982.75 Q2403.2638,982.75 2402.0606,982.125 Q2401.0763,981.625 2400.3888,980.5625 Q2399.7013,979.4844 2399.7013,978.2031 L2399.7013,977.0469 Q2399.7013,975.7188 2400.3106,974.5781 Q2400.9356,973.4219 2402.0294,972.8125 Q2403.1231,972.1875 2404.3575,972.1875 Q2405.0919,972.1875 2405.7325,972.3594 Q2406.3888,972.5156 2406.9356,972.875 Z " fill="#000000"/><text fill="#000000" font-family="sans-serif" font-size="14" lengthAdjust="spacing" textLength="178" x="2424.67" y="982.7285">EthernetSwitchGinController</text><line style="stroke:#181818;stroke-width:0.5;" x1="2096.92" x2="2897.92" y1="993" y2="993"/><rect fill="none" height="6" style="stroke:#C82930;stroke-width:1.0;" width="6" x="2103.92" y="1001"/><text fill="#000000" font-family="sans-serif" font-size="14" lengthAdjust="spacing" textLength="777" x="2115.92" y="1011.5332">service interfaces.IGenericService[EthernetSwitchDto, EthernetSwitchCreateDto, EthernetSwitchUpdateDto, EthernetSwitch]</text><line style="stroke:#181818;stroke-width:0.5;" x1="2096.92" x2="2897.92" y1="1018.6094" y2="1018.6094"/><ellipse cx="2106.92" cy="1029.6094" fill="#84BE84" rx="3" ry="3" style="stroke:#038048;stroke-width:1.0;"/><text fill="#000000" font-family="sans-serif" font-size="14" lengthAdjust="spacing" textLength="241" x="2115.92" y="1037.1426">GetSupportedModels(ctx *gin.Context)</text></g><path d="M1862.42,984 L1862.42,1010.3516 A0,0 0 0 0 1862.42,1010.3516 L2052.42,1010.3516 A0,0 0 0 0 2052.42,1010.3516 L2052.42,1002 L2099.92,1031.4141 L2052.42,994 L2052.42,994 L2042.42,984 L1862.42,984 A0,0 0 0 0 1862.42,984 " fill="#FEFFDD" style="stroke:#181818;stroke-width:0.5;"/><path d="M2042.42,984 L2042.42,994 L2052.42,994 L2042.42,984 " fill="#FEFFDD" style="stroke:#181818;stroke-width:0.5;"/><text fill="#000000" font-family="sans-serif" font-size="13" lengthAdjust="spacing" textLength="169" x="1868.42" y="1002.4951">Get supported switch models</text><!--MD5=[be996cdb8e6bf2fc7cb89c555f2cd144]
class Entity--><g id="elem_Entity"><rect codeLine="6" fill="#F1F1F1" height="134.4375" id="Entity" rx="2.5" ry="2.5" style="stroke:#181818;stroke-width:0.5;" width="250" x="1405.42" y="288"/><ellipse cx="1508.67" cy="304" fill="#ADD1B2" rx="11" ry="11" style="stroke:#181818;stroke-width:1.0;"/><path d="M1511.4356,299.875 Q1511.5919,299.6563 1511.7794,299.5469 Q1511.9669,299.4375 1512.1856,299.4375 Q1512.5606,299.4375 1512.795,299.7031 Q1513.0294,299.9531 1513.0294,300.5625 L1513.0294,302.0156 Q1513.0294,302.625 1512.795,302.8906 Q1512.5606,303.1563 1512.1856,303.1563 Q1511.8419,303.1563 1511.6387,302.9531 Q1511.4356,302.7656 1511.3262,302.25 Q1511.2794,301.8906 1511.0919,301.7031 Q1510.7637,301.3281 1510.1544,301.1094 Q1509.545,300.8906 1508.92,300.8906 Q1508.1544,300.8906 1507.5137,301.2188 Q1506.8887,301.5469 1506.3887,302.2969 Q1505.9044,303.0469 1505.9044,304.0781 L1505.9044,305.1719 Q1505.9044,306.4063 1506.795,307.2344 Q1507.6856,308.0469 1509.2794,308.0469 Q1510.2169,308.0469 1510.8731,307.7969 Q1511.2637,307.6406 1511.6856,307.2031 Q1511.9512,306.9375 1512.0919,306.8594 Q1512.2481,306.7813 1512.4512,306.7813 Q1512.7794,306.7813 1513.0294,307.0469 Q1513.295,307.2969 1513.295,307.6406 Q1513.295,307.9844 1512.9512,308.3906 Q1512.4512,308.9688 1511.6544,309.2969 Q1510.5762,309.75 1509.2794,309.75 Q1507.7637,309.75 1506.5606,309.125 Q1505.5762,308.625 1504.8887,307.5625 Q1504.2012,306.4844 1504.2012,305.2031 L1504.2012,304.0469 Q1504.2012,302.7188 1504.8106,301.5781 Q1505.4356,300.4219 1506.5294,299.8125 Q1507.6231,299.1875 1508.8575,299.1875 Q1509.5919,299.1875 1510.2325,299.3594 Q1510.8887,299.5156 1511.4356,299.875 Z " fill="#000000"/><text fill="#000000" font-family="sans-serif" font-size="14" lengthAdjust="spacing" textLength="35" x="1529.17" y="309.7285">Entity</text><line style="stroke:#181818;stroke-width:0.5;" x1="1406.42" x2="1654.42" y1="320" y2="320"/><ellipse cx="1416.42" cy="331" fill="none" rx="3" ry="3" style="stroke:#038048;stroke-width:1.0;"/><text fill="#000000" font-family="sans-serif" font-size="14" lengthAdjust="spacing" textLength="208" x="1425.42" y="338.5332">ID uuid.UUID `gorm:"primarykey"`</text><line style="stroke:#181818;stroke-width:1.0;" x1="1406.42" x2="1654.42" y1="345.6094" y2="345.6094"/><ellipse cx="1416.42" cy="356.6094" fill="none" rx="3" ry="3" style="stroke:#038048;stroke-width:1.0;"/><text fill="#000000" font-family="sans-serif" font-size="14" lengthAdjust="spacing" textLength="222" x="1425.42" y="364.1426">CreatedAt time.Time `gorm:"index"`</text><line style="stroke:#181818;stroke-width:1.0;" x1="1406.42" x2="1654.42" y1="371.2188" y2="371.2188"/><ellipse cx="1416.42" cy="382.2188" fill="none" rx="3" ry="3" style="stroke:#038048;stroke-width:1.0;"/><text fill="#000000" font-family="sans-serif" font-size="14" lengthAdjust="spacing" textLength="224" x="1425.42" y="389.752">UpdatedAt time.Time `gorm:"index"`</text><line style="stroke:#181818;stroke-width:1.0;" x1="1406.42" x2="1654.42" y1="396.8281" y2="396.8281"/><ellipse cx="1416.42" cy="407.8281" fill="none" rx="3" ry="3" style="stroke:#038048;stroke-width:1.0;"/><text fill="#000000" font-family="sans-serif" font-size="14" lengthAdjust="spacing" textLength="220" x="1425.42" y="415.3613">DeletedAt time.Time `gorm:"index"`</text></g><!--MD5=[0e6027363d26940633b9df7c844e683a]
class EthernetSwitch--><g id="elem_EthernetSwitch"><rect codeLine="5" fill="#F1F1F1" height="185.6563" id="EthernetSwitch" rx="2.5" ry="2.5" style="stroke:#181818;stroke-width:0.5;" width="143" x="1511.92" y="42"/><ellipse cx="1534.57" cy="58" fill="#ADD1B2" rx="11" ry="11" style="stroke:#181818;stroke-width:1.0;"/><path d="M1537.3356,53.875 Q1537.4919,53.6563 1537.6794,53.5469 Q1537.8669,53.4375 1538.0856,53.4375 Q1538.4606,53.4375 1538.695,53.7031 Q1538.9294,53.9531 1538.9294,54.5625 L1538.9294,56.0156 Q1538.9294,56.625 1538.695,56.8906 Q1538.4606,57.1563 1538.0856,57.1563 Q1537.7419,57.1563 1537.5388,56.9531 Q1537.3356,56.7656 1537.2263,56.25 Q1537.1794,55.8906 1536.9919,55.7031 Q1536.6638,55.3281 1536.0544,55.1094 Q1535.445,54.8906 1534.82,54.8906 Q1534.0544,54.8906 1533.4138,55.2188 Q1532.7888,55.5469 1532.2888,56.2969 Q1531.8044,57.0469 1531.8044,58.0781 L1531.8044,59.1719 Q1531.8044,60.4063 1532.695,61.2344 Q1533.5856,62.0469 1535.1794,62.0469 Q1536.1169,62.0469 1536.7731,61.7969 Q1537.1638,61.6406 1537.5856,61.2031 Q1537.8513,60.9375 1537.9919,60.8594 Q1538.1481,60.7813 1538.3513,60.7813 Q1538.6794,60.7813 1538.9294,61.0469 Q1539.195,61.2969 1539.195,61.6406 Q1539.195,61.9844 1538.8513,62.3906 Q1538.3513,62.9688 1537.5544,63.2969 Q1536.4763,63.75 1535.1794,63.75 Q1533.6638,63.75 1532.4606,63.125 Q1531.4763,62.625 1530.7888,61.5625 Q1530.1013,60.4844 1530.1013,59.2031 L1530.1013,58.0469 Q1530.1013,56.7188 1530.7106,55.5781 Q1531.3356,54.4219 1532.4294,53.8125 Q1533.5231,53.1875 1534.7575,53.1875 Q1535.4919,53.1875 1536.1325,53.3594 Q1536.7888,53.5156 1537.3356,53.875 Z " fill="#000000"/><text fill="#000000" font-family="sans-serif" font-size="14" lengthAdjust="spacing" textLength="94" x="1550.27" y="63.7285">EthernetSwitch</text><line style="stroke:#181818;stroke-width:0.5;" x1="1512.92" x2="1653.92" y1="74" y2="74"/><ellipse cx="1522.92" cy="85" fill="none" rx="3" ry="3" style="stroke:#038048;stroke-width:1.0;"/><text fill="#000000" font-family="sans-serif" font-size="14" lengthAdjust="spacing" textLength="75" x="1531.92" y="92.5332">Name string</text><line style="stroke:#181818;stroke-width:1.0;" x1="1512.92" x2="1653.92" y1="99.6094" y2="99.6094"/><ellipse cx="1522.92" cy="110.6094" fill="none" rx="3" ry="3" style="stroke:#038048;stroke-width:1.0;"/><text fill="#000000" font-family="sans-serif" font-size="14" lengthAdjust="spacing" textLength="75" x="1531.92" y="118.1426">Serial string</text><line style="stroke:#181818;stroke-width:1.0;" x1="1512.92" x2="1653.92" y1="125.2188" y2="125.2188"/><ellipse cx="1522.92" cy="136.2188" fill="none" rx="3" ry="3" style="stroke:#038048;stroke-width:1.0;"/><text fill="#000000" font-family="sans-serif" font-size="14" lengthAdjust="spacing" textLength="117" x="1531.92" y="143.752">SwitchModel string</text><line style="stroke:#181818;stroke-width:1.0;" x1="1512.92" x2="1653.92" y1="150.8281" y2="150.8281"/><ellipse cx="1522.92" cy="161.8281" fill="none" rx="3" ry="3" style="stroke:#038048;stroke-width:1.0;"/><text fill="#000000" font-family="sans-serif" font-size="14" lengthAdjust="spacing" textLength="91" x="1531.92" y="169.3613">Address string</text><line style="stroke:#181818;stroke-width:1.0;" x1="1512.92" x2="1653.92" y1="176.4375" y2="176.4375"/><ellipse cx="1522.92" cy="187.4375" fill="none" rx="3" ry="3" style="stroke:#038048;stroke-width:1.0;"/><text fill="#000000" font-family="sans-serif" font-size="14" lengthAdjust="spacing" textLength="103" x="1531.92" y="194.9707">Username string</text><line style="stroke:#181818;stroke-width:1.0;" x1="1512.92" x2="1653.92" y1="202.0469" y2="202.0469"/><ellipse cx="1522.92" cy="213.0469" fill="none" rx="3" ry="3" style="stroke:#038048;stroke-width:1.0;"/><text fill="#000000" font-family="sans-serif" font-size="14" lengthAdjust="spacing" textLength="100" x="1531.92" y="220.5801">Password string</text></g><path d="M1318.42,90.5 L1318.42,116.8516 A0,0 0 0 0 1318.42,116.8516 L1379.42,116.8516 A0,0 0 0 0 1379.42,116.8516 L1379.42,108.5 L1515.92,112.4141 L1379.42,100.5 L1379.42,100.5 L1369.42,90.5 L1318.42,90.5 A0,0 0 0 0 1318.42,90.5 " fill="#FEFFDD" style="stroke:#181818;stroke-width:0.5;"/><path d="M1369.42,90.5 L1369.42,100.5 L1379.42,100.5 L1369.42,90.5 " fill="#FEFFDD" style="stroke:#181818;stroke-width:0.5;"/><text fill="#000000" font-family="sans-serif" font-size="13" lengthAdjust="spacing" textLength="40" x="1324.42" y="108.9951">Unique</text><path d="M1318.42,126.8516 L1318.42,169.5547 A0,0 0 0 0 1318.42,169.5547 L1476.42,169.5547 A0,0 0 0 0 1476.42,169.5547 L1476.42,152.2031 L1515.92,163.6328 L1476.42,144.2031 L1476.42,136.8516 L1466.42,126.8516 L1318.42,126.8516 A0,0 0 0 0 1318.42,126.8516 " fill="#FEFFDD" style="stroke:#181818;stroke-width:0.5;"/><path d="M1466.42,126.8516 L1466.42,136.8516 L1476.42,136.8516 L1466.42,126.8516 " fill="#FEFFDD" style="stroke:#181818;stroke-width:0.5;"/><text fill="#000000" font-family="sans-serif" font-size="13" lengthAdjust="spacing" textLength="40" x="1324.42" y="145.3467">Unique</text><text fill="#000000" font-family="sans-serif" font-size="13" lengthAdjust="spacing" textLength="137" x="1324.42" y="161.6982">Ip address of the switch</text><!--MD5=[27abfb56f32eefa7f07c83348fb1ee32]
class GormGenericRepository--><g id="elem_GormGenericRepository"><rect codeLine="5" fill="#F1F1F1" height="48" id="GormGenericRepository" rx="2.5" ry="2.5" style="stroke:#181818;stroke-width:0.5;" width="246" x="843.42" y="482"/><ellipse cx="858.42" cy="498" fill="#ADD1B2" rx="11" ry="11" style="stroke:#181818;stroke-width:1.0;"/><path d="M861.1856,493.875 Q861.3419,493.6563 861.5294,493.5469 Q861.7169,493.4375 861.9356,493.4375 Q862.3106,493.4375 862.545,493.7031 Q862.7794,493.9531 862.7794,494.5625 L862.7794,496.0156 Q862.7794,496.625 862.545,496.8906 Q862.3106,497.1563 861.9356,497.1563 Q861.5919,497.1563 861.3888,496.9531 Q861.1856,496.7656 861.0763,496.25 Q861.0294,495.8906 860.8419,495.7031 Q860.5138,495.3281 859.9044,495.1094 Q859.295,494.8906 858.67,494.8906 Q857.9044,494.8906 857.2638,495.2188 Q856.6388,495.5469 856.1388,496.2969 Q855.6544,497.0469 855.6544,498.0781 L855.6544,499.1719 Q855.6544,500.4063 856.545,501.2344 Q857.4356,502.0469 859.0294,502.0469 Q859.9669,502.0469 860.6231,501.7969 Q861.0138,501.6406 861.4356,501.2031 Q861.7013,500.9375 861.8419,500.8594 Q861.9981,500.7813 862.2013,500.7813 Q862.5294,500.7813 862.7794,501.0469 Q863.045,501.2969 863.045,501.6406 Q863.045,501.9844 862.7013,502.3906 Q862.2013,502.9688 861.4044,503.2969 Q860.3263,503.75 859.0294,503.75 Q857.5138,503.75 856.3106,503.125 Q855.3263,502.625 854.6388,501.5625 Q853.9513,500.4844 853.9513,499.2031 L853.9513,498.0469 Q853.9513,496.7188 854.5606,495.5781 Q855.1856,494.4219 856.2794,493.8125 Q857.3731,493.1875 858.6075,493.1875 Q859.3419,493.1875 859.9825,493.3594 Q860.6388,493.5156 861.1856,493.875 Z " fill="#000000"/><text fill="#000000" font-family="sans-serif" font-size="14" lengthAdjust="spacing" textLength="153" x="872.42" y="503.7285">GormGenericRepository</text><rect fill="#FFFFFF" height="17.0938" style="stroke:#000000;stroke-width:1.0;stroke-dasharray:2.0,2.0;" width="59" x="1033.42" y="479"/><text fill="#000000" font-family="sans-serif" font-size="12" font-style="italic" lengthAdjust="spacing" textLength="57" x="1034.42" y="492.457">EntityType</text><line style="stroke:#181818;stroke-width:0.5;" x1="844.42" x2="1088.42" y1="514" y2="514"/><line style="stroke:#181818;stroke-width:0.5;" x1="844.42" x2="1088.42" y1="522" y2="522"/></g><!--MD5=[44d95913ec2b3ba897526465ba0cec4b]
class EthernetSwitchRepository--><g id="elem_EthernetSwitchRepository"><rect codeLine="6" fill="#F1F1F1" height="48" id="EthernetSwitchRepository" rx="2.5" ry="2.5" style="stroke:#181818;stroke-width:0.5;" width="194" x="843.42" y="111"/><ellipse cx="858.42" cy="127" fill="#ADD1B2" rx="11" ry="11" style="stroke:#181818;stroke-width:1.0;"/><path d="M861.1856,122.875 Q861.3419,122.6563 861.5294,122.5469 Q861.7169,122.4375 861.9356,122.4375 Q862.3106,122.4375 862.545,122.7031 Q862.7794,122.9531 862.7794,123.5625 L862.7794,125.0156 Q862.7794,125.625 862.545,125.8906 Q862.3106,126.1563 861.9356,126.1563 Q861.5919,126.1563 861.3888,125.9531 Q861.1856,125.7656 861.0763,125.25 Q861.0294,124.8906 860.8419,124.7031 Q860.5138,124.3281 859.9044,124.1094 Q859.295,123.8906 858.67,123.8906 Q857.9044,123.8906 857.2638,124.2188 Q856.6388,124.5469 856.1388,125.2969 Q855.6544,126.0469 855.6544,127.0781 L855.6544,128.1719 Q855.6544,129.4063 856.545,130.2344 Q857.4356,131.0469 859.0294,131.0469 Q859.9669,131.0469 860.6231,130.7969 Q861.0138,130.6406 861.4356,130.2031 Q861.7013,129.9375 861.8419,129.8594 Q861.9981,129.7813 862.2013,129.7813 Q862.5294,129.7813 862.7794,130.0469 Q863.045,130.2969 863.045,130.6406 Q863.045,130.9844 862.7013,131.3906 Q862.2013,131.9688 861.4044,132.2969 Q860.3263,132.75 859.0294,132.75 Q857.5138,132.75 856.3106,132.125 Q855.3263,131.625 854.6388,130.5625 Q853.9513,129.4844 853.9513,128.2031 L853.9513,127.0469 Q853.9513,125.7188 854.5606,124.5781 Q855.1856,123.4219 856.2794,122.8125 Q857.3731,122.1875 858.6075,122.1875 Q859.3419,122.1875 859.9825,122.3594 Q860.6388,122.5156 861.1856,122.875 Z " fill="#000000"/><text fill="#000000" font-family="sans-serif" font-size="14" lengthAdjust="spacing" textLength="162" x="872.42" y="132.7285">EthernetSwitchRepository</text><line style="stroke:#181818;stroke-width:0.5;" x1="844.42" x2="1036.42" y1="143" y2="143"/><line style="stroke:#181818;stroke-width:0.5;" x1="844.42" x2="1036.42" y1="151" y2="151"/></g><g id="elem_EthernetSwitchTypeNote"><path d="M899.92,342 L899.92,368.3516 L1088.92,368.3516 L1088.92,352 L1078.92,342 L899.92,342 " fill="#FEFFDD" style="stroke:#181818;stroke-width:0.5;"/><path d="M1078.92,342 L1078.92,352 L1088.92,352 L1078.92,342 " fill="#FEFFDD" style="stroke:#181818;stroke-width:1.0;"/><text fill="#000000" font-family="sans-serif" font-size="13" lengthAdjust="spacing" textLength="168" x="905.92" y="360.4951">EntityType is EthernetSwitch</text></g><!--MD5=[4f15965369cf1e2d28449fc0d2ee4583]
class EthernetSwitchBaseDto--><g id="elem_EthernetSwitchBaseDto"><rect codeLine="3" fill="#F1F1F1" height="160.0469" id="EthernetSwitchBaseDto" rx="2.5" ry="2.5" style="stroke:#181818;stroke-width:0.5;" width="180" x="2055.42" y="1565"/><ellipse cx="2070.42" cy="1581" fill="#ADD1B2" rx="11" ry="11" style="stroke:#181818;stroke-width:1.0;"/><path d="M2073.1856,1576.875 Q2073.3419,1576.6563 2073.5294,1576.5469 Q2073.7169,1576.4375 2073.9356,1576.4375 Q2074.3106,1576.4375 2074.545,1576.7031 Q2074.7794,1576.9531 2074.7794,1577.5625 L2074.7794,1579.0156 Q2074.7794,1579.625 2074.545,1579.8906 Q2074.3106,1580.1563 2073.9356,1580.1563 Q2073.5919,1580.1563 2073.3888,1579.9531 Q2073.1856,1579.7656 2073.0763,1579.25 Q2073.0294,1578.8906 2072.8419,1578.7031 Q2072.5138,1578.3281 2071.9044,1578.1094 Q2071.295,1577.8906 2070.67,1577.8906 Q2069.9044,1577.8906 2069.2638,1578.2188 Q2068.6388,1578.5469 2068.1388,1579.2969 Q2067.6544,1580.0469 2067.6544,1581.0781 L2067.6544,1582.1719 Q2067.6544,1583.4063 2068.545,1584.2344 Q2069.4356,1585.0469 2071.0294,1585.0469 Q2071.9669,1585.0469 2072.6231,1584.7969 Q2073.0138,1584.6406 2073.4356,1584.2031 Q2073.7013,1583.9375 2073.8419,1583.8594 Q2073.9981,1583.7813 2074.2013,1583.7813 Q2074.5294,1583.7813 2074.7794,1584.0469 Q2075.045,1584.2969 2075.045,1584.6406 Q2075.045,1584.9844 2074.7013,1585.3906 Q2074.2013,1585.9688 2073.4044,1586.2969 Q2072.3263,1586.75 2071.0294,1586.75 Q2069.5138,1586.75 2068.3106,1586.125 Q2067.3263,1585.625 2066.6388,1584.5625 Q2065.9513,1583.4844 2065.9513,1582.2031 L2065.9513,1581.0469 Q2065.9513,1579.7188 2066.5606,1578.5781 Q2067.1856,1577.4219 2068.2794,1576.8125 Q2069.3731,1576.1875 2070.6075,1576.1875 Q2071.3419,1576.1875 2071.9825,1576.3594 Q2072.6388,1576.5156 2073.1856,1576.875 Z " fill="#000000"/><text fill="#000000" font-family="sans-serif" font-size="14" lengthAdjust="spacing" textLength="148" x="2084.42" y="1586.7285">EthernetSwitchBaseDto</text><line style="stroke:#181818;stroke-width:0.5;" x1="2056.42" x2="2234.42" y1="1597" y2="1597"/><ellipse cx="2066.42" cy="1608" fill="none" rx="3" ry="3" style="stroke:#038048;stroke-width:1.0;"/><text fill="#000000" font-family="sans-serif" font-size="14" lengthAdjust="spacing" textLength="75" x="2075.42" y="1615.5332">Name string</text><line style="stroke:#181818;stroke-width:1.0;" x1="2056.42" x2="2234.42" y1="1622.6094" y2="1622.6094"/><ellipse cx="2066.42" cy="1633.6094" fill="none" rx="3" ry="3" style="stroke:#038048;stroke-width:1.0;"/><text fill="#000000" font-family="sans-serif" font-size="14" lengthAdjust="spacing" textLength="75" x="2075.42" y="1641.1426">Serial string</text><line style="stroke:#181818;stroke-width:1.0;" x1="2056.42" x2="2234.42" y1="1648.2188" y2="1648.2188"/><ellipse cx="2066.42" cy="1659.2188" fill="none" rx="3" ry="3" style="stroke:#038048;stroke-width:1.0;"/><text fill="#000000" font-family="sans-serif" font-size="14" lengthAdjust="spacing" textLength="117" x="2075.42" y="1666.752">SwitchModel string</text><line style="stroke:#181818;stroke-width:1.0;" x1="2056.42" x2="2234.42" y1="1673.8281" y2="1673.8281"/><ellipse cx="2066.42" cy="1684.8281" fill="none" rx="3" ry="3" style="stroke:#038048;stroke-width:1.0;"/><text fill="#000000" font-family="sans-serif" font-size="14" lengthAdjust="spacing" textLength="91" x="2075.42" y="1692.3613">Address string</text><line style="stroke:#181818;stroke-width:1.0;" x1="2056.42" x2="2234.42" y1="1699.4375" y2="1699.4375"/><ellipse cx="2066.42" cy="1710.4375" fill="none" rx="3" ry="3" style="stroke:#038048;stroke-width:1.0;"/><text fill="#000000" font-family="sans-serif" font-size="14" lengthAdjust="spacing" textLength="103" x="2075.42" y="1717.9707">Username string</text></g><!--MD5=[b5f51fede5412d5c08046421531bde8a]
class EthernetSwitchCreateDto--><g id="elem_EthernetSwitchCreateDto"><rect codeLine="5" fill="#F1F1F1" height="65.6094" id="EthernetSwitchCreateDto" rx="2.5" ry="2.5" style="stroke:#181818;stroke-width:0.5;" width="191" x="2045.92" y="1406.5"/><ellipse cx="2060.92" cy="1422.5" fill="#ADD1B2" rx="11" ry="11" style="stroke:#181818;stroke-width:1.0;"/><path d="M2063.6856,1418.375 Q2063.8419,1418.1563 2064.0294,1418.0469 Q2064.2169,1417.9375 2064.4356,1417.9375 Q2064.8106,1417.9375 2065.045,1418.2031 Q2065.2794,1418.4531 2065.2794,1419.0625 L2065.2794,1420.5156 Q2065.2794,1421.125 2065.045,1421.3906 Q2064.8106,1421.6563 2064.4356,1421.6563 Q2064.0919,1421.6563 2063.8888,1421.4531 Q2063.6856,1421.2656 2063.5763,1420.75 Q2063.5294,1420.3906 2063.3419,1420.2031 Q2063.0138,1419.8281 2062.4044,1419.6094 Q2061.795,1419.3906 2061.17,1419.3906 Q2060.4044,1419.3906 2059.7638,1419.7188 Q2059.1388,1420.0469 2058.6388,1420.7969 Q2058.1544,1421.5469 2058.1544,1422.5781 L2058.1544,1423.6719 Q2058.1544,1424.9063 2059.045,1425.7344 Q2059.9356,1426.5469 2061.5294,1426.5469 Q2062.4669,1426.5469 2063.1231,1426.2969 Q2063.5138,1426.1406 2063.9356,1425.7031 Q2064.2013,1425.4375 2064.3419,1425.3594 Q2064.4981,1425.2813 2064.7013,1425.2813 Q2065.0294,1425.2813 2065.2794,1425.5469 Q2065.545,1425.7969 2065.545,1426.1406 Q2065.545,1426.4844 2065.2013,1426.8906 Q2064.7013,1427.4688 2063.9044,1427.7969 Q2062.8263,1428.25 2061.5294,1428.25 Q2060.0138,1428.25 2058.8106,1427.625 Q2057.8263,1427.125 2057.1388,1426.0625 Q2056.4513,1424.9844 2056.4513,1423.7031 L2056.4513,1422.5469 Q2056.4513,1421.2188 2057.0606,1420.0781 Q2057.6856,1418.9219 2058.7794,1418.3125 Q2059.8731,1417.6875 2061.1075,1417.6875 Q2061.8419,1417.6875 2062.4825,1417.8594 Q2063.1388,1418.0156 2063.6856,1418.375 Z " fill="#000000"/><text fill="#000000" font-family="sans-serif" font-size="14" lengthAdjust="spacing" textLength="159" x="2074.92" y="1428.2285">EthernetSwitchCreateDto</text><line style="stroke:#181818;stroke-width:0.5;" x1="2046.92" x2="2235.92" y1="1438.5" y2="1438.5"/><ellipse cx="2056.92" cy="1449.5" fill="none" rx="3" ry="3" style="stroke:#038048;stroke-width:1.0;"/><text fill="#000000" font-family="sans-serif" font-size="14" lengthAdjust="spacing" textLength="100" x="2065.92" y="1457.0332">Password string</text><line style="stroke:#181818;stroke-width:0.5;" x1="2046.92" x2="2235.92" y1="1464.1094" y2="1464.1094"/></g><!--MD5=[c34e1a9004d5b1340cd98967367dc0c0]
class EthernetSwitchUpdateDto--><g id="elem_EthernetSwitchUpdateDto"><rect codeLine="5" fill="#F1F1F1" height="65.6094" id="EthernetSwitchUpdateDto" rx="2.5" ry="2.5" style="stroke:#181818;stroke-width:0.5;" width="193" x="2271.92" y="1406.5"/><ellipse cx="2286.92" cy="1422.5" fill="#ADD1B2" rx="11" ry="11" style="stroke:#181818;stroke-width:1.0;"/><path d="M2289.6856,1418.375 Q2289.8419,1418.1563 2290.0294,1418.0469 Q2290.2169,1417.9375 2290.4356,1417.9375 Q2290.8106,1417.9375 2291.045,1418.2031 Q2291.2794,1418.4531 2291.2794,1419.0625 L2291.2794,1420.5156 Q2291.2794,1421.125 2291.045,1421.3906 Q2290.8106,1421.6563 2290.4356,1421.6563 Q2290.0919,1421.6563 2289.8888,1421.4531 Q2289.6856,1421.2656 2289.5763,1420.75 Q2289.5294,1420.3906 2289.3419,1420.2031 Q2289.0138,1419.8281 2288.4044,1419.6094 Q2287.795,1419.3906 2287.17,1419.3906 Q2286.4044,1419.3906 2285.7638,1419.7188 Q2285.1388,1420.0469 2284.6388,1420.7969 Q2284.1544,1421.5469 2284.1544,1422.5781 L2284.1544,1423.6719 Q2284.1544,1424.9063 2285.045,1425.7344 Q2285.9356,1426.5469 2287.5294,1426.5469 Q2288.4669,1426.5469 2289.1231,1426.2969 Q2289.5138,1426.1406 2289.9356,1425.7031 Q2290.2013,1425.4375 2290.3419,1425.3594 Q2290.4981,1425.2813 2290.7013,1425.2813 Q2291.0294,1425.2813 2291.2794,1425.5469 Q2291.545,1425.7969 2291.545,1426.1406 Q2291.545,1426.4844 2291.2013,1426.8906 Q2290.7013,1427.4688 2289.9044,1427.7969 Q2288.8263,1428.25 2287.5294,1428.25 Q2286.0138,1428.25 2284.8106,1427.625 Q2283.8263,1427.125 2283.1388,1426.0625 Q2282.4513,1424.9844 2282.4513,1423.7031 L2282.4513,1422.5469 Q2282.4513,1421.2188 2283.0606,1420.0781 Q2283.6856,1418.9219 2284.7794,1418.3125 Q2285.8731,1417.6875 2287.1075,1417.6875 Q2287.8419,1417.6875 2288.4825,1417.8594 Q2289.1388,1418.0156 2289.6856,1418.375 Z " fill="#000000"/><text fill="#000000" font-family="sans-serif" font-size="14" lengthAdjust="spacing" textLength="161" x="2300.92" y="1428.2285">EthernetSwitchUpdateDto</text><line style="stroke:#181818;stroke-width:0.5;" x1="2272.92" x2="2463.92" y1="1438.5" y2="1438.5"/><ellipse cx="2282.92" cy="1449.5" fill="none" rx="3" ry="3" style="stroke:#038048;stroke-width:1.0;"/><text fill="#000000" font-family="sans-serif" font-size="14" lengthAdjust="spacing" textLength="100" x="2291.92" y="1457.0332">Password string</text><line style="stroke:#181818;stroke-width:0.5;" x1="2272.92" x2="2463.92" y1="1464.1094" y2="1464.1094"/></g><!--MD5=[a203eca1f0769929ae1344e0135bff6b]
class BaseDto--><g id="elem_BaseDto"><rect codeLine="3" fill="#F1F1F1" height="108.8281" id="BaseDto" rx="2.5" ry="2.5" style="stroke:#181818;stroke-width:0.5;" width="157" x="1862.92" y="1590.5"/><ellipse cx="1910.17" cy="1606.5" fill="#ADD1B2" rx="11" ry="11" style="stroke:#181818;stroke-width:1.0;"/><path d="M1912.9356,1602.375 Q1913.0919,1602.1563 1913.2794,1602.0469 Q1913.4669,1601.9375 1913.6856,1601.9375 Q1914.0606,1601.9375 1914.295,1602.2031 Q1914.5294,1602.4531 1914.5294,1603.0625 L1914.5294,1604.5156 Q1914.5294,1605.125 1914.295,1605.3906 Q1914.0606,1605.6563 1913.6856,1605.6563 Q1913.3419,1605.6563 1913.1387,1605.4531 Q1912.9356,1605.2656 1912.8262,1604.75 Q1912.7794,1604.3906 1912.5919,1604.2031 Q1912.2637,1603.8281 1911.6544,1603.6094 Q1911.045,1603.3906 1910.42,1603.3906 Q1909.6544,1603.3906 1909.0137,1603.7188 Q1908.3887,1604.0469 1907.8887,1604.7969 Q1907.4044,1605.5469 1907.4044,1606.5781 L1907.4044,1607.6719 Q1907.4044,1608.9063 1908.295,1609.7344 Q1909.1856,1610.5469 1910.7794,1610.5469 Q1911.7169,1610.5469 1912.3731,1610.2969 Q1912.7637,1610.1406 1913.1856,1609.7031 Q1913.4512,1609.4375 1913.5919,1609.3594 Q1913.7481,1609.2813 1913.9512,1609.2813 Q1914.2794,1609.2813 1914.5294,1609.5469 Q1914.795,1609.7969 1914.795,1610.1406 Q1914.795,1610.4844 1914.4512,1610.8906 Q1913.9512,1611.4688 1913.1544,1611.7969 Q1912.0762,1612.25 1910.7794,1612.25 Q1909.2637,1612.25 1908.0606,1611.625 Q1907.0762,1611.125 1906.3887,1610.0625 Q1905.7012,1608.9844 1905.7012,1607.7031 L1905.7012,1606.5469 Q1905.7012,1605.2188 1906.3106,1604.0781 Q1906.9356,1602.9219 1908.0294,1602.3125 Q1909.1231,1601.6875 1910.3575,1601.6875 Q1911.0919,1601.6875 1911.7325,1601.8594 Q1912.3887,1602.0156 1912.9356,1602.375 Z " fill="#000000"/><text fill="#000000" font-family="sans-serif" font-size="14" lengthAdjust="spacing" textLength="54" x="1930.67" y="1612.2285">BaseDto</text><line style="stroke:#181818;stroke-width:0.5;" x1="1863.92" x2="2018.92" y1="1622.5" y2="1622.5"/><ellipse cx="1873.92" cy="1633.5" fill="none" rx="3" ry="3" style="stroke:#038048;stroke-width:1.0;"/><text fill="#000000" font-family="sans-serif" font-size="14" lengthAdjust="spacing" textLength="79" x="1882.92" y="1641.0332">ID uuid.UUID</text><line style="stroke:#181818;stroke-width:1.0;" x1="1863.92" x2="2018.92" y1="1648.1094" y2="1648.1094"/><ellipse cx="1873.92" cy="1659.1094" fill="none" rx="3" ry="3" style="stroke:#038048;stroke-width:1.0;"/><text fill="#000000" font-family="sans-serif" font-size="14" lengthAdjust="spacing" textLength="129" x="1882.92" y="1666.6426">CreatedAt time.Time</text><line style="stroke:#181818;stroke-width:1.0;" x1="1863.92" x2="2018.92" y1="1673.7188" y2="1673.7188"/><ellipse cx="1873.92" cy="1684.7188" fill="none" rx="3" ry="3" style="stroke:#038048;stroke-width:1.0;"/><text fill="#000000" font-family="sans-serif" font-size="14" lengthAdjust="spacing" textLength="131" x="1882.92" y="1692.252">UpdatedAt time.Time</text></g><!--MD5=[b580cc5ff93fe4dac06272a8d0848e45]
class EthernetSwitchDto--><g id="elem_EthernetSwitchDto"><rect codeLine="6" fill="#F1F1F1" height="48" id="EthernetSwitchDto" rx="2.5" ry="2.5" style="stroke:#181818;stroke-width:0.5;" width="148" x="1862.42" y="1415.5"/><ellipse cx="1877.42" cy="1431.5" fill="#ADD1B2" rx="11" ry="11" style="stroke:#181818;stroke-width:1.0;"/><path d="M1880.1856,1427.375 Q1880.3419,1427.1563 1880.5294,1427.0469 Q1880.7169,1426.9375 1880.9356,1426.9375 Q1881.3106,1426.9375 1881.545,1427.2031 Q1881.7794,1427.4531 1881.7794,1428.0625 L1881.7794,1429.5156 Q1881.7794,1430.125 1881.545,1430.3906 Q1881.3106,1430.6563 1880.9356,1430.6563 Q1880.5919,1430.6563 1880.3887,1430.4531 Q1880.1856,1430.2656 1880.0762,1429.75 Q1880.0294,1429.3906 1879.8419,1429.2031 Q1879.5137,1428.8281 1878.9044,1428.6094 Q1878.295,1428.3906 1877.67,1428.3906 Q1876.9044,1428.3906 1876.2637,1428.7188 Q1875.6387,1429.0469 1875.1387,1429.7969 Q1874.6544,1430.5469 1874.6544,1431.5781 L1874.6544,1432.6719 Q1874.6544,1433.9063 1875.545,1434.7344 Q1876.4356,1435.5469 1878.0294,1435.5469 Q1878.9669,1435.5469 1879.6231,1435.2969 Q1880.0137,1435.1406 1880.4356,1434.7031 Q1880.7012,1434.4375 1880.8419,1434.3594 Q1880.9981,1434.2813 1881.2012,1434.2813 Q1881.5294,1434.2813 1881.7794,1434.5469 Q1882.045,1434.7969 1882.045,1435.1406 Q1882.045,1435.4844 1881.7012,1435.8906 Q1881.2012,1436.4688 1880.4044,1436.7969 Q1879.3262,1437.25 1878.0294,1437.25 Q1876.5137,1437.25 1875.3106,1436.625 Q1874.3262,1436.125 1873.6387,1435.0625 Q1872.9512,1433.9844 1872.9512,1432.7031 L1872.9512,1431.5469 Q1872.9512,1430.2188 1873.5606,1429.0781 Q1874.1856,1427.9219 1875.2794,1427.3125 Q1876.3731,1426.6875 1877.6075,1426.6875 Q1878.3419,1426.6875 1878.9825,1426.8594 Q1879.6387,1427.0156 1880.1856,1427.375 Z " fill="#000000"/><text fill="#000000" font-family="sans-serif" font-size="14" lengthAdjust="spacing" textLength="116" x="1891.42" y="1437.2285">EthernetSwitchDto</text><line style="stroke:#181818;stroke-width:0.5;" x1="1863.42" x2="2009.42" y1="1447.5" y2="1447.5"/><line style="stroke:#181818;stroke-width:0.5;" x1="1863.42" x2="2009.42" y1="1455.5" y2="1455.5"/></g><!--MD5=[4543b72cf38ea9c175580af8a3d89c83]
link GinGenericController to IGenericService--><g id="link_GinGenericController_IGenericService"><path codeLine="40" d="M2196.42,1155 C2152.98,1155 2204.36,1319.56 2172.42,1349 C2145.76,1373.57 1881.08,1351.87 1846.42,1362.5 C1810.09,1373.65 1634.32,1485.54 1512.2,1564.85 " fill="none" id="GinGenericController-IGenericService" style="stroke:#181818;stroke-width:1.0;stroke-dasharray:7.0,7.0;"/></g><!--MD5=[56424cb3f8ebacad4e8ce83d86c39ad6]
link GenericService to IGenericService--><g id="link_GenericService_IGenericService"><path codeLine="11" d="M1391.42,1494.23 C1391.42,1509.72 1391.42,1527.14 1391.42,1544.47 " fill="none" id="GenericService-to-IGenericService" style="stroke:#181818;stroke-width:1.0;stroke-dasharray:7.0,7.0;"/><polygon fill="none" points="1398.42,1544.65,1391.42,1564.65,1384.42,1544.65,1398.42,1544.65" style="stroke:#181818;stroke-width:1.0;"/></g><!--MD5=[2557b70de049790e1c1a4cc262bbdad6]
link Entity to IEntityModelDeletedAt--><g id="link_Entity_IEntityModelDeletedAt"><path codeLine="15" d="M1562.22,422.03 C1599.88,500.22 1661.79,628.77 1695.92,699.64 " fill="none" id="Entity-to-IEntityModelDeletedAt" style="stroke:#181818;stroke-width:1.0;stroke-dasharray:7.0,7.0;"/><polygon fill="none" points="1702.4,696.95,1704.77,718.01,1689.79,703.03,1702.4,696.95" style="stroke:#181818;stroke-width:1.0;"/></g><!--MD5=[a6c7a0eda5b041e127f539f1664bb96a]
link Entity to IEntityModel--><g id="link_Entity_IEntityModel"><path codeLine="16" d="M1530.42,422.03 C1530.42,499.56 1530.42,626.57 1530.42,697.81 " fill="none" id="Entity-to-IEntityModel" style="stroke:#181818;stroke-width:1.0;stroke-dasharray:7.0,7.0;"/><polygon fill="none" points="1537.42,698.01,1530.42,718.01,1523.42,698.01,1537.42,698.01" style="stroke:#181818;stroke-width:1.0;"/></g><!--MD5=[9772157d24c033f2fd4659808d74f7d7]
link IEntityModelDeletedAt to IEntityModel--><!--MD5=[28ddc57433616ceaae86c7f76015305a]
link EthernetSwitch to Entity--><g id="link_EthernetSwitch_Entity"><path codeLine="27" d="M1561.02,228.14 C1557.24,243.68 1553.34,259.7 1549.65,274.88 " fill="none" id="EthernetSwitch-to-Entity" style="stroke:#181818;stroke-width:1.0;"/><polygon fill="#181818" points="1546.47,287.97,1551.7746,283.0852,1549.3059,276.3099,1544.0012,281.1947,1546.47,287.97" style="stroke:#181818;stroke-width:1.0;"/></g><!--MD5=[1b84833638557571905b03f54e842c8c]
link GormGenericRepository to IGenericRepository--><g id="link_GormGenericRepository_IGenericRepository"><path codeLine="7" d="M966.42,530.35 C966.42,550.31 966.42,580.81 966.42,612.81 " fill="none" id="GormGenericRepository-to-IGenericRepository" style="stroke:#181818;stroke-width:1.0;stroke-dasharray:7.0,7.0;"/><polygon fill="none" points="973.42,612.84,966.42,632.84,959.42,612.84,973.42,612.84" style="stroke:#181818;stroke-width:1.0;"/></g><!--MD5=[bbe412936ca4b95a00b9eb94a916dd4a]
link EthernetSwitchRepository to GormGenericRepository--><g id="link_EthernetSwitchRepository_GormGenericRepository"><path codeLine="8" d="M926.51,159.26 C896.37,212.93 831.67,348.34 882.42,446 C888.09,456.92 896.81,466.24 906.53,474.02 " fill="none" id="EthernetSwitchRepository-to-GormGenericRepository" style="stroke:#181818;stroke-width:1.0;"/><polygon fill="#181818" points="917.36,481.88,914.8483,475.1205,907.6426,474.8392,910.1544,481.5987,917.36,481.88" style="stroke:#181818;stroke-width:1.0;"/></g><!--MD5=[97e973a2e17e2fdf95a657100781ecd2]
link EthernetSwitchRepository to EthernetSwitchTypeNote--><g id="link_EthernetSwitchRepository_EthernetSwitchTypeNote"><path codeLine="13" d="M946.2,159.33 C957.62,205.46 982.75,306.9 991.41,341.87 " fill="none" id="EthernetSwitchRepository-EthernetSwitchTypeNote" style="stroke:#181818;stroke-width:1.0;stroke-dasharray:7.0,7.0;"/></g><!--MD5=[9f5125094d565c097065cae25f7e2c84]
link EthernetSwitchTypeNote to GormGenericRepository--><g id="link_EthernetSwitchTypeNote_GormGenericRepository"><path codeLine="14" d="M992.13,368.19 C987.7,391.75 977.87,444.05 971.73,476.73 " fill="none" id="EthernetSwitchTypeNote-to-GormGenericRepository" style="stroke:#181818;stroke-width:1.0;stroke-dasharray:7.0,7.0;"/><polygon fill="#181818" points="970.78,481.8,976.3815,473.6992,971.7083,476.8869,968.5206,472.2138,970.78,481.8" style="stroke:#181818;stroke-width:1.0;"/></g><!--MD5=[e4dc094716afb2924cadfdc3ab207821]
link EthernetSwitch to EthernetSwitchTypeNote--><g id="link_EthernetSwitch_EthernetSwitchTypeNote"><path codeLine="15" d="M1511.84,216.29 C1506.21,220.59 1500.38,224.55 1494.42,228 C1455.58,250.47 1170.87,315.03 1049.25,341.97 " fill="none" id="EthernetSwitch-EthernetSwitchTypeNote" style="stroke:#181818;stroke-width:1.0;stroke-dasharray:7.0,7.0;"/></g><!--MD5=[f0bd9206a4dd631190c7c77769e5e372]
link EthernetSwitchCreateDto to EthernetSwitchBaseDto--><g id="link_EthernetSwitchCreateDto_EthernetSwitchBaseDto"><path codeLine="9" d="M2142.05,1472.75 C2142.47,1494.13 2143.05,1523.35 2143.6,1551.61 " fill="none" id="EthernetSwitchCreateDto-to-EthernetSwitchBaseDto" style="stroke:#181818;stroke-width:1.0;"/><polygon fill="#181818" points="2143.86,1564.92,2147.7406,1558.8421,2143.6227,1552.9223,2139.7421,1559.0003,2143.86,1564.92" style="stroke:#181818;stroke-width:1.0;"/></g><!--MD5=[cd18a63401ba994ebd33ffac90db2cbb]
link EthernetSwitchUpdateDto to EthernetSwitchBaseDto--><g id="link_EthernetSwitchUpdateDto_EthernetSwitchBaseDto"><path codeLine="9" d="M2333.08,1472.75 C2308.49,1495.19 2274.42,1526.28 2242.05,1555.82 " fill="none" id="EthernetSwitchUpdateDto-to-EthernetSwitchBaseDto" style="stroke:#181818;stroke-width:1.0;"/><polygon fill="#181818" points="2232.07,1564.92,2239.1985,1563.8316,2240.9355,1556.8328,2233.807,1557.9212,2232.07,1564.92" style="stroke:#181818;stroke-width:1.0;"/></g><!--MD5=[3caa607ff050ff5d17b319ae4460501c]
link EthernetSwitchDto to EthernetSwitchBaseDto--><g id="link_EthernetSwitchDto_EthernetSwitchBaseDto"><path codeLine="9" d="M1960.39,1463.84 C1983.52,1486.37 2020.01,1521.89 2054.49,1555.46 " fill="none" id="EthernetSwitchDto-to-EthernetSwitchBaseDto" style="stroke:#181818;stroke-width:1.0;"/><polygon fill="#181818" points="2064.15,1564.87,2062.6425,1557.8182,2055.5534,1556.4975,2057.0609,1563.5493,2064.15,1564.87" style="stroke:#181818;stroke-width:1.0;"/></g><!--MD5=[ce3a7074c5a166c0fec412a5219a65db]
link EthernetSwitchDto to BaseDto--><g id="link_EthernetSwitchDto_BaseDto"><path codeLine="10" d="M1936.99,1463.84 C1937.67,1491.27 1938.81,1537.97 1939.77,1576.95 " fill="none" id="EthernetSwitchDto-to-BaseDto" style="stroke:#181818;stroke-width:1.0;"/><polygon fill="#181818" points="1940.09,1590.1,1943.9437,1584.005,1939.7997,1578.1035,1935.946,1584.1985,1940.09,1590.1" style="stroke:#181818;stroke-width:1.0;"/></g><!--MD5=[09e8881c0924048b4e98e1e7552bd208]
link GMN111 to EthernetSwitchService--><g id="link_GMN111_EthernetSwitchService"><path d="M608.11,964.43 C645.1,941.94 695.74,915.71 744.92,905 C780.96,897.15 1040.87,897.15 1076.92,905 C1085.27,906.82 1086.67,909.38 1094.42,913 C1124.72,927.14 1157.69,942.75 1187.38,956.9 " fill="none" id="GMN111-EthernetSwitchService" style="stroke:#181818;stroke-width:1.0;stroke-dasharray:7.0,7.0;"/></g><!--MD5=[00a7b3c6cedcc857f096e4343d7ccaca]
link EthernetSwitchRepository to EthernetSwitchService--><g id="link_EthernetSwitchRepository_EthernetSwitchService"><path codeLine="25" d="M843.26,152.37 C661.36,188.85 273.15,295.57 110.42,562 C32.81,689.06 6,790.87 110.42,897 C148.76,935.97 1051.47,879.17 1094.42,913 C1127.95,939.42 1075.73,1006 1118.42,1006 " fill="none" id="EthernetSwitchRepository-EthernetSwitchService" style="stroke:#181818;stroke-width:1.0;"/></g><!--MD5=[54ca8e7a2d2a15c54ed4e724ebc9a450]
link EthernetSwitchService to GenericService--><g id="link_EthernetSwitchService_GenericService"><path codeLine="26" d="M1292.57,1047.15 C1311.94,1123.83 1351.88,1281.98 1374.62,1372 " fill="none" id="EthernetSwitchService-to-GenericService" style="stroke:#181818;stroke-width:1.0;"/><polygon fill="#181818" points="1377.85,1384.76,1380.2645,1377.9651,1374.9209,1373.123,1372.5065,1379.9178,1377.85,1384.76" style="stroke:#181818;stroke-width:1.0;"/></g><!--MD5=[20602760d8e2622c2f34a54a1a95e3af]
link IGenericRepository to EthernetSwitchService--><!--MD5=[1150ff4a2de42a70bfddf29dbe9f1355]
link EthernetSwitchService to EthernetSwitchServiceTypes--><g id="link_EthernetSwitchService_EthernetSwitchServiceTypes"><path codeLine="37" d="M1361.87,1047.18 C1432.68,1086.08 1534.57,1142.04 1600.88,1178.45 " fill="none" id="EthernetSwitchService-EthernetSwitchServiceTypes" style="stroke:#181818;stroke-width:1.0;stroke-dasharray:7.0,7.0;"/></g><!--MD5=[19f9161d2c2c10c9e943f6499734ed1d]
link EthernetSwitchServiceTypes to GenericService--><g id="link_EthernetSwitchServiceTypes_GenericService"><path codeLine="38" d="M1621.84,1253.58 C1578.51,1288.36 1512.66,1341.2 1462.44,1381.5 " fill="none" id="EthernetSwitchServiceTypes-to-GenericService" style="stroke:#181818;stroke-width:1.0;stroke-dasharray:7.0,7.0;"/><polygon fill="#181818" points="1458.25,1384.87,1467.7732,1382.3585,1462.1502,1381.7413,1462.7673,1376.1182,1458.25,1384.87" style="stroke:#181818;stroke-width:1.0;"/></g><!--MD5=[b0f7fe5f31df835059ab1c194901a7fe]
link EthernetSwitchServiceTypes to EthernetSwitchCreateDto--><g id="link_EthernetSwitchServiceTypes_EthernetSwitchCreateDto"><path codeLine="40" d="M1703.8,1253.64 C1737.55,1285.06 1790.84,1328.41 1846.42,1349 C1922.48,1377.17 1951.76,1335.98 2028.42,1362.5 C2056.12,1372.08 2083.5,1390.22 2104.37,1406.36 " fill="none" id="EthernetSwitchServiceTypes-EthernetSwitchCreateDto" style="stroke:#181818;stroke-width:1.0;stroke-dasharray:7.0,7.0;"/></g><!--MD5=[7856b62c62afd124a133667fc83a018f]
link EthernetSwitchServiceTypes to EthernetSwitchUpdateDto--><g id="link_EthernetSwitchServiceTypes_EthernetSwitchUpdateDto"><path codeLine="41" d="M1702.94,1253.57 C1736.53,1285.4 1790.06,1329.43 1846.42,1349 C1932.11,1378.76 2168.04,1334.78 2254.42,1362.5 C2282.84,1371.62 2310.8,1390.07 2331.91,1406.5 " fill="none" id="EthernetSwitchServiceTypes-EthernetSwitchUpdateDto" style="stroke:#181818;stroke-width:1.0;stroke-dasharray:7.0,7.0;"/></g><!--MD5=[8b781ed27e3c4292de80ef1c58982566]
link EthernetSwitchServiceTypes to EthernetSwitchDto--><g id="link_EthernetSwitchServiceTypes_EthernetSwitchDto"><path codeLine="42" d="M1711.84,1253.58 C1767.65,1299.53 1861.76,1377.02 1908.43,1415.45 " fill="none" id="EthernetSwitchServiceTypes-EthernetSwitchDto" style="stroke:#181818;stroke-width:1.0;stroke-dasharray:7.0,7.0;"/></g><!--MD5=[c43ff6a88e122cb651853c52254d4801]
link EthernetSwitchGinController to GinGenericController--><g id="link_EthernetSwitchGinController_GinGenericController"><path codeLine="17" d="M2496.38,1047.18 C2496.05,1060.97 2495.68,1076.91 2495.29,1093.35 " fill="none" id="EthernetSwitchGinController-to-GinGenericController" style="stroke:#181818;stroke-width:1.0;"/><polygon fill="#181818" points="2494.97,1106.62,2499.1074,1100.7139,2495.2468,1094.6232,2491.1095,1100.5293,2494.97,1106.62" style="stroke:#181818;stroke-width:1.0;"/></g><!--MD5=[c3a2c9c19e6e4239ce89a0c3b5086ba1]
link GinGenericController to EthernetSwitchUpdateDto--><!--MD5=[6972e0cb02145dee80e46351429b7234]
link EthernetSwitchServiceTypes to EthernetSwitchGinController--><g id="link_EthernetSwitchServiceTypes_EthernetSwitchGinController"><path codeLine="20" d="M1716.47,1178.28 C1751.04,1154.24 1799.38,1124.21 1846.42,1107 C1922.47,1079.18 2006.2,1058.8 2087.57,1043.86 " fill="none" id="EthernetSwitchServiceTypes-EthernetSwitchGinController" style="stroke:#181818;stroke-width:1.0;stroke-dasharray:7.0,7.0;"/></g><!--MD5=[2e80b32bf579bf40ff20925016c7759f]
link EthernetSwitchGinController to EthernetSwitchService--><g id="link_EthernetSwitchGinController_EthernetSwitchService"><path codeLine="21" d="M2095.42,1006 C2052.62,1006 2098.07,945.67 2070.42,913 C2064.89,906.47 2061.27,906.82 2052.92,905 C2022.19,898.31 1517.64,898.31 1486.92,905 C1441.05,914.99 1393.42,936.65 1355.57,956.97 " fill="none" id="EthernetSwitchGinController-EthernetSwitchService" style="stroke:#181818;stroke-width:1.0;"/></g><!--MD5=[f27d819d364062d0c734b9b831b42572]
@startuml
!include GinGenericController.puml
!include ../services/EthernetSwitchService.puml
!include ../dto/EthernetSwitch/EthernetSwitchCreateDto.puml
!include ../dto/EthernetSwitch/EthernetSwitchUpdateDto.puml
!include ../dto/EthernetSwitch/EthernetSwitchDto.puml

package controllers {
    class EthernetSwitchGinController {
        -service interfaces.IGenericService[EthernetSwitchDto, EthernetSwitchCreateDto, EthernetSwitchUpdateDto, EthernetSwitch]
        +GetSupportedModels(ctx *gin.Context)
    }

    note left of EthernetSwitchGinController::GetSupportedModels
    Get supported switch models
    end note

    GinGenericController *-up- EthernetSwitchGinController

    GinGenericController .[hidden]down. EthernetSwitchUpdateDto
    EthernetSwitchGinController .up. EthernetSwitchServiceTypes
    EthernetSwitchService -left- EthernetSwitchGinController::service

}

@enduml

@startuml

package app {
    interface IGenericService<EntityType, CreateDtoType, UpdateDtoType, DtoType> {
        +GetList(ctx context.Context, search, orderBy, orderDirection string, page, pageSize int) (*dtos.PaginatedListDto[DtoType], error)
        - -
        +GetById(ctx context.Context, id uuid.UUID) (*DtoType, error)
        - -
        +Update(ctx context.Context, updateDto UpdateDtoType, id uuid.UUID) error
        - -
        +Create(ctx context.Context, createDto CreateDtoType) (uuid.UUID, error)
        - -
        +Delete(ctx context.Context, id uuid.UUID) error
    }
    note left of IGenericService::GetList
        Get list of elements with search and pagination
    end note

    note left of IGenericService::GetById
        Get entity by ID from service
    end note

    note left of IGenericService::Update
        Save the changes to the existing entity in the service
    end note

    note left of IGenericService::Create
        Add entity to the service
    end note

    note left of IGenericService::Delete
        Mark an entity as deleted
    end note
}


package controllers {
    class GinGenericController<DtoType, CreateDtoType, UpdateDtoType, EntityType> {
        -service interfaces.IGenericService[DtoType, CreateDtoType, UpdateDtoType, EntityType]
        - -
        -logger *logrus.Logger
        - -
        +GetList(ctx *gin.Context)
        - -
        +GetByID(ctx *gin.Context)
        - -
        +Create(ctx *gin.Context)
        - -
        +Update(ctx *gin.Context)
        - -
        +Delete(ctx *gin.Context)
    }

    note left of GinGenericController::GetList
    Get list of elements with search and pagination
    end note

    note left of GinGenericController::GetByID
    Get entity by id
    end note

    note left of GinGenericController::Create(
    Create new entity
    end note

    note left of GinGenericController::Update(
    Update entity by id
    end note

    note left of GinGenericController::Delete
    Soft deleting entity
    end note

    IGenericService .left. GinGenericController::service
}


package app {
    class GenericService<EntityType, CreateDtoType, UpdateDtoType, DtoType> {
        -repository IGenericRepository<EntityType>
        - -
        -logger *logrus.Logger
        - -
        -logSourceName string
    }
    GenericService .down.|> IGenericService
}





package app {
    interface IEntityModel {
        +GetID() uuid.UUID
    }
}


package app {
    interface IEntityModelDeletedAt {
        +SetDeleted()
    }
    note bottom of IEntityModelDeletedAt
        Set deletion time
        This method marks that the entity has been deleted
    end note
}


package domain {
    class Entity {
        +ID uuid.UUID `gorm:"primarykey"`
        - -
        +CreatedAt time.Time `gorm:"index"`
        - -
        +UpdatedAt time.Time `gorm:"index"`
        - -
        +DeletedAt time.Time `gorm:"index"`
    }
    Entity .down.|> IEntityModelDeletedAt
    Entity .down.|> IEntityModel

    IEntityModel .left[hidden]. IEntityModelDeletedAt
}


package domain {
    class EthernetSwitch {
        +Name string
        - -
        +Serial string
        - -
        +SwitchModel string
        - -
        +Address string
        - -
        +Username string
        - -
        +Password string
    }
    note left of EthernetSwitch::Serial
    Unique
    end note

    note left of EthernetSwitch::Address
    Unique
    Ip address of the switch
    end note

    EthernetSwitch -down-* Entity
}



package app {
    interface IGenericRepository<EntityType> {
        +GetList(ctx context.Context, orderBy string, orderDirection string, page int, size int, queryBuilder interfaces.IQueryBuilder) (*[]EntityType, error)
        - -
        +Count(ctx context.Context, queryBuilder interfaces.IQueryBuilder) (int64, error)
        - -
        +NewQueryBuilder(ctx context.Context) interfaces.IQueryBuilder
        - -
        +GetById(ctx context.Context, id uuid.UUID) (*EntityType, error)
        - -
        +Update(ctx context.Context, entity *EntityType) error
        - -
        +Insert(ctx context.Context, entity EntityType) (uuid.UUID, error)
        - -
        +Delete(ctx context.Context, id uuid.UUID) error
        - -
        +CloseDb() error
    }
    note left of IGenericRepository::GetList
      Get list of elements with filtering and pagination
    end note

    note left of IGenericRepository::Count
      Get count of entities with filtering
    end note

    note left of IGenericRepository::NewQueryBuilder
      Get new instance of the query builder
    end note

    note left of IGenericRepository::GetById
      Get entity by ID from repository
    end note

    note left of IGenericRepository::Update
      Save the changes to the existing entity in the repository
    end note

    note left of IGenericRepository::Insert
      Add entity to the repository
    end note

    note left of IGenericRepository::Delete
      Delete entity from the database
    end note

    note left of IGenericRepository::CloseDb
      Closes current database connection
    end note
}


package infrastructure {
    class GormGenericRepository<EntityType>

    GormGenericRepository .down.|> IGenericRepository
}


package infrastructure {
    class EthernetSwitchRepository

    EthernetSwitchRepository -down-* GormGenericRepository


    note "EntityType is EthernetSwitch" as EthernetSwitchTypeNote

    EthernetSwitchRepository .down. EthernetSwitchTypeNote
    GormGenericRepository <.up. EthernetSwitchTypeNote
    EthernetSwitch .. EthernetSwitchTypeNote
}



package dtos {
    class EthernetSwitchBaseDto {
        +Name string
        - -
        +Serial string
        - -
        +SwitchModel string
        - -
        +Address string
        - -
        +Username string
    }
}


package dtos {
    class EthernetSwitchCreateDto {
        +Password string
    }

    EthernetSwitchCreateDto - -* EthernetSwitchBaseDto
}



package dtos {
    class EthernetSwitchUpdateDto {
        +Password string
    }

    EthernetSwitchUpdateDto - -* EthernetSwitchBaseDto
}



package dtos {
    class BaseDto {
        +ID uuid.UUID
        - -
        +CreatedAt time.Time
        - -
        +UpdatedAt time.Time
    }
}


package dtos {
    class EthernetSwitchDto {

    }
    EthernetSwitchDto - -* EthernetSwitchBaseDto
    EthernetSwitchDto - -* BaseDto
}


package app {
    class EthernetSwitchService {
        -repository IGenericRepository<EthernetSwitch>
        - -
        +GetSupportedModels()
    }

    note left of EthernetSwitchService::GetSupportedModels
    Get ethernet switch models that supported by system
    end note

    note left of EthernetSwitchService
        Advanced business logic for EthernetSwitch entity:
        DTO Validation
        Checking the uniqueness of serial numbers
        Checking the uniqueness of addresses
    end note

    EthernetSwitchRepository -right- EthernetSwitchService::repository
    GenericService *-up- EthernetSwitchService

    EthernetSwitchService .[hidden]up. IGenericRepository

    note as EthernetSwitchServiceTypes
    EntityType is EthernetSwitch
    CreateDtoType is EthernetSwitchCreateDto
    UpdateDtoType is EthernetSwitchUpdateDto
    DtoType is EthernetSwitchDto
    end note

    EthernetSwitchService .down. EthernetSwitchServiceTypes
    GenericService <.up. EthernetSwitchServiceTypes

    EthernetSwitchServiceTypes .. EthernetSwitchCreateDto
    EthernetSwitchServiceTypes .. EthernetSwitchUpdateDto
    EthernetSwitchServiceTypes .. EthernetSwitchDto

}

package controllers {
    class EthernetSwitchGinController {
        -service interfaces.IGenericService[EthernetSwitchDto, EthernetSwitchCreateDto, EthernetSwitchUpdateDto, EthernetSwitch]
        +GetSupportedModels(ctx *gin.Context)
    }

    note left of EthernetSwitchGinController::GetSupportedModels
    Get supported switch models
    end note

    GinGenericController *-up- EthernetSwitchGinController

    GinGenericController .[hidden]down. EthernetSwitchUpdateDto
    EthernetSwitchGinController .up. EthernetSwitchServiceTypes
    EthernetSwitchService -left- EthernetSwitchGinController::service

}

@enduml

PlantUML version 1.2022.6(Tue Jun 21 20:34:49 MSK 2022)
(GPL source distribution)
Java Runtime: OpenJDK Runtime Environment
JVM: OpenJDK 64-Bit Server VM
Default Encoding: Cp1251
Language: ru
Country: RU
--></g></svg>