<?xml version="1.0" encoding="UTF-8" standalone="no"?><svg xmlns="http://www.w3.org/2000/svg" xmlns:xlink="http://www.w3.org/1999/xlink" contentStyleType="text/css" height="353px" preserveAspectRatio="none" style="width:2225px;height:353px;background:#FFFFFF;" version="1.1" viewBox="0 0 2225 353" width="2225px" zoomAndPan="magnify"><defs/><g><!--MD5=[d5ac3844f66b12d9e08170e47495e096]
cluster app--><g id="cluster_app"><path d="M8.5,94.21 L35.5,94.21 A3.75,3.75 0 0 1 38,96.71 L45,117.8194 L1226.5,117.8194 A2.5,2.5 0 0 1 1229,120.3194 L1229,325.71 A2.5,2.5 0 0 1 1226.5,328.21 L8.5,328.21 A2.5,2.5 0 0 1 6,325.71 L6,96.71 A2.5,2.5 0 0 1 8.5,94.21 " style="stroke:#000000;stroke-width:1.5;fill:none;"/><line style="stroke:#000000;stroke-width:1.5;fill:none;" x1="6" x2="45" y1="117.8194" y2="117.8194"/><text fill="#000000" font-family="sans-serif" font-size="14" font-weight="bold" lengthAdjust="spacing" textLength="26" x="10" y="110.7432">app</text></g><!--MD5=[f4e70ef68289585296b9045165e58692]
cluster controllers--><g id="cluster_controllers"><path d="M1255.5,76.21 L1333.5,76.21 A3.75,3.75 0 0 1 1336,78.71 L1343,99.8194 L2215.5,99.8194 A2.5,2.5 0 0 1 2218,102.3194 L2218,343.71 A2.5,2.5 0 0 1 2215.5,346.21 L1255.5,346.21 A2.5,2.5 0 0 1 1253,343.71 L1253,78.71 A2.5,2.5 0 0 1 1255.5,76.21 " style="stroke:#000000;stroke-width:1.5;fill:none;"/><line style="stroke:#000000;stroke-width:1.5;fill:none;" x1="1253" x2="1343" y1="99.8194" y2="99.8194"/><text fill="#000000" font-family="sans-serif" font-size="14" font-weight="bold" lengthAdjust="spacing" textLength="77" x="1257" y="92.7432">controllers</text></g><!--MD5=[7c0ed5f9a527ab221a5373ebedcc681c]
class IGenericService--><g id="elem_IGenericService"><rect codeLine="3" fill="#F1F1F1" height="160.0469" id="IGenericService" rx="2.5" ry="2.5" style="stroke:#181818;stroke-width:0.5;" width="829" x="383.5" y="141.21"/><ellipse cx="596.75" cy="157.21" fill="#B4A7E5" rx="11" ry="11" style="stroke:#181818;stroke-width:1.0;"/><path d="M597.7031,153.8506 L597.7031,160.5069 L599.4219,160.5069 Q600.0313,160.5069 600.2969,160.7412 Q600.5625,160.9756 600.5625,161.3662 Q600.5625,161.7412 600.2969,161.9756 Q600.0313,162.21 599.4219,162.21 L594.2813,162.21 Q593.6719,162.21 593.4063,161.9756 Q593.1406,161.7412 593.1406,161.3506 Q593.1406,160.9756 593.4063,160.7412 Q593.6719,160.5069 594.2813,160.5069 L596,160.5069 L596,153.8506 L594.2813,153.8506 Q593.6719,153.8506 593.4063,153.6162 Q593.1406,153.3819 593.1406,152.9912 Q593.1406,152.6162 593.4063,152.3819 Q593.6719,152.1475 594.2813,152.1475 L599.4219,152.1475 Q600.0313,152.1475 600.2969,152.3819 Q600.5625,152.6162 600.5625,152.9912 Q600.5625,153.3819 600.2969,153.6162 Q600.0313,153.8506 599.4219,153.8506 L597.7031,153.8506 Z " fill="#000000"/><text fill="#000000" font-family="sans-serif" font-size="14" font-style="italic" lengthAdjust="spacing" textLength="100" x="617.25" y="162.9385">IGenericService</text><rect fill="#FFFFFF" height="17.0938" style="stroke:#000000;stroke-width:1.0;stroke-dasharray:2.0,2.0;" width="292" x="923.5" y="138.21"/><text fill="#000000" font-family="sans-serif" font-size="12" font-style="italic" lengthAdjust="spacing" textLength="290" x="924.5" y="151.667">EntityType, CreateDtoType, UpdateDtoType, DtoType</text><line style="stroke:#181818;stroke-width:0.5;" x1="384.5" x2="1211.5" y1="173.21" y2="173.21"/><ellipse cx="394.5" cy="184.21" fill="#84BE84" rx="3" ry="3" style="stroke:#038048;stroke-width:1.0;"/><text fill="#000000" font-family="sans-serif" font-size="14" lengthAdjust="spacing" textLength="803" x="403.5" y="191.7432">GetList(ctx context.Context, search, orderBy, orderDirection string, page, pageSize int) (*dtos.PaginatedListDto[DtoType], error)</text><line style="stroke:#181818;stroke-width:1.0;" x1="384.5" x2="1211.5" y1="198.8194" y2="198.8194"/><ellipse cx="394.5" cy="209.8194" fill="#84BE84" rx="3" ry="3" style="stroke:#038048;stroke-width:1.0;"/><text fill="#000000" font-family="sans-serif" font-size="14" lengthAdjust="spacing" textLength="375" x="403.5" y="217.3526">GetById(ctx context.Context, id uuid.UUID) (*DtoType, error)</text><line style="stroke:#181818;stroke-width:1.0;" x1="384.5" x2="1211.5" y1="224.4287" y2="224.4287"/><ellipse cx="394.5" cy="235.4287" fill="#84BE84" rx="3" ry="3" style="stroke:#038048;stroke-width:1.0;"/><text fill="#000000" font-family="sans-serif" font-size="14" lengthAdjust="spacing" textLength="470" x="403.5" y="242.962">Update(ctx context.Context, updateDto UpdateDtoType, id uuid.UUID) error</text><line style="stroke:#181818;stroke-width:1.0;" x1="384.5" x2="1211.5" y1="250.0381" y2="250.0381"/><ellipse cx="394.5" cy="261.0381" fill="#84BE84" rx="3" ry="3" style="stroke:#038048;stroke-width:1.0;"/><text fill="#000000" font-family="sans-serif" font-size="14" lengthAdjust="spacing" textLength="457" x="403.5" y="268.5713">Create(ctx context.Context, createDto CreateDtoType) (uuid.UUID, error)</text><line style="stroke:#181818;stroke-width:1.0;" x1="384.5" x2="1211.5" y1="275.6475" y2="275.6475"/><ellipse cx="394.5" cy="286.6475" fill="#84BE84" rx="3" ry="3" style="stroke:#038048;stroke-width:1.0;"/><text fill="#000000" font-family="sans-serif" font-size="14" lengthAdjust="spacing" textLength="289" x="403.5" y="294.1807">Delete(ctx context.Context, id uuid.UUID) error</text></g><path d="M22,130.21 L22,156.5616 A0,0 0 0 0 22,156.5616 L314,156.5616 A0,0 0 0 0 314,156.5616 L314,148.21 L387.5,186.0147 L314,140.21 L314,140.21 L304,130.21 L22,130.21 A0,0 0 0 0 22,130.21 " fill="#FEFFDD" style="stroke:#181818;stroke-width:0.5;"/><path d="M304,130.21 L304,140.21 L314,140.21 L304,130.21 " fill="#FEFFDD" style="stroke:#181818;stroke-width:0.5;"/><text fill="#000000" font-family="sans-serif" font-size="13" lengthAdjust="spacing" textLength="271" x="28" y="148.7051">Get list of elements with search and pagination</text><path d="M22,166.5616 L22,192.9131 A0,0 0 0 0 22,192.9131 L207,192.9131 A0,0 0 0 0 207,192.9131 L207,184.5616 L387.5,211.6241 L207,176.5616 L207,176.5616 L197,166.5616 L22,166.5616 A0,0 0 0 0 22,166.5616 " fill="#FEFFDD" style="stroke:#181818;stroke-width:0.5;"/><path d="M197,166.5616 L197,176.5616 L207,176.5616 L197,166.5616 " fill="#FEFFDD" style="stroke:#181818;stroke-width:0.5;"/><text fill="#000000" font-family="sans-serif" font-size="13" lengthAdjust="spacing" textLength="164" x="28" y="185.0567">Get entity by ID from service</text><path d="M22,202.9131 L22,229.2647 A0,0 0 0 0 22,229.2647 L348,229.2647 A0,0 0 0 0 348,229.2647 L348,220.9131 L387.5,237.2334 L348,212.9131 L348,212.9131 L338,202.9131 L22,202.9131 A0,0 0 0 0 22,202.9131 " fill="#FEFFDD" style="stroke:#181818;stroke-width:0.5;"/><path d="M338,202.9131 L338,212.9131 L348,212.9131 L338,202.9131 " fill="#FEFFDD" style="stroke:#181818;stroke-width:0.5;"/><text fill="#000000" font-family="sans-serif" font-size="13" lengthAdjust="spacing" textLength="305" x="28" y="221.4082">Save the changes to the existing entity in the service</text><path d="M22,239.2647 L22,265.6163 A0,0 0 0 0 22,265.6163 L183,265.6163 A0,0 0 0 0 183,265.6163 L183,257.2647 L387.5,262.8428 L183,249.2647 L183,249.2647 L173,239.2647 L22,239.2647 A0,0 0 0 0 22,239.2647 " fill="#FEFFDD" style="stroke:#181818;stroke-width:0.5;"/><path d="M173,239.2647 L173,249.2647 L183,249.2647 L173,239.2647 " fill="#FEFFDD" style="stroke:#181818;stroke-width:0.5;"/><text fill="#000000" font-family="sans-serif" font-size="13" lengthAdjust="spacing" textLength="140" x="28" y="257.7598">Add entity to the service</text><path d="M22,275.6163 L22,301.9678 A0,0 0 0 0 22,301.9678 L190,301.9678 A0,0 0 0 0 190,301.9678 L190,293.6163 L387.5,288.4522 L190,285.6163 L190,285.6163 L180,275.6163 L22,275.6163 A0,0 0 0 0 22,275.6163 " fill="#FEFFDD" style="stroke:#181818;stroke-width:0.5;"/><path d="M180,275.6163 L180,285.6163 L190,285.6163 L180,275.6163 " fill="#FEFFDD" style="stroke:#181818;stroke-width:0.5;"/><text fill="#000000" font-family="sans-serif" font-size="13" lengthAdjust="spacing" textLength="147" x="28" y="294.1114">Mark an entity as deleted</text><!--MD5=[cf2f41d174bd4ebb3ea58d1ef762c740]
class GinGenericController--><g id="elem_GinGenericController"><rect codeLine="4" fill="#F1F1F1" height="211.2656" id="GinGenericController" rx="2.5" ry="2.5" style="stroke:#181818;stroke-width:0.5;" width="590" x="1604" y="116.21"/><ellipse cx="1680.75" cy="132.21" fill="#ADD1B2" rx="11" ry="11" style="stroke:#181818;stroke-width:1.0;"/><path d="M1683.5156,128.085 Q1683.6719,127.8662 1683.8594,127.7569 Q1684.0469,127.6475 1684.2656,127.6475 Q1684.6406,127.6475 1684.875,127.9131 Q1685.1094,128.1631 1685.1094,128.7725 L1685.1094,130.2256 Q1685.1094,130.835 1684.875,131.1006 Q1684.6406,131.3662 1684.2656,131.3662 Q1683.9219,131.3662 1683.7188,131.1631 Q1683.5156,130.9756 1683.4063,130.46 Q1683.3594,130.1006 1683.1719,129.9131 Q1682.8438,129.5381 1682.2344,129.3194 Q1681.625,129.1006 1681,129.1006 Q1680.2344,129.1006 1679.5938,129.4287 Q1678.9688,129.7569 1678.4688,130.5069 Q1677.9844,131.2569 1677.9844,132.2881 L1677.9844,133.3819 Q1677.9844,134.6162 1678.875,135.4444 Q1679.7656,136.2569 1681.3594,136.2569 Q1682.2969,136.2569 1682.9531,136.0069 Q1683.3438,135.8506 1683.7656,135.4131 Q1684.0313,135.1475 1684.1719,135.0694 Q1684.3281,134.9912 1684.5313,134.9912 Q1684.8594,134.9912 1685.1094,135.2569 Q1685.375,135.5069 1685.375,135.8506 Q1685.375,136.1944 1685.0313,136.6006 Q1684.5313,137.1787 1683.7344,137.5069 Q1682.6563,137.96 1681.3594,137.96 Q1679.8438,137.96 1678.6406,137.335 Q1677.6563,136.835 1676.9688,135.7725 Q1676.2813,134.6944 1676.2813,133.4131 L1676.2813,132.2569 Q1676.2813,130.9287 1676.8906,129.7881 Q1677.5156,128.6319 1678.6094,128.0225 Q1679.7031,127.3975 1680.9375,127.3975 Q1681.6719,127.3975 1682.3125,127.5694 Q1682.9688,127.7256 1683.5156,128.085 Z " fill="#000000"/><text fill="#000000" font-family="sans-serif" font-size="14" lengthAdjust="spacing" textLength="134" x="1701.25" y="137.9385">GinGenericController</text><rect fill="#FFFFFF" height="17.0938" style="stroke:#000000;stroke-width:1.0;stroke-dasharray:2.0,2.0;" width="292" x="1905" y="113.21"/><text fill="#000000" font-family="sans-serif" font-size="12" font-style="italic" lengthAdjust="spacing" textLength="290" x="1906" y="126.667">DtoType, CreateDtoType, UpdateDtoType, EntityType</text><line style="stroke:#181818;stroke-width:0.5;" x1="1605" x2="2193" y1="148.21" y2="148.21"/><rect fill="none" height="6" style="stroke:#C82930;stroke-width:1.0;" width="6" x="1612" y="156.21"/><text fill="#000000" font-family="sans-serif" font-size="14" lengthAdjust="spacing" textLength="564" x="1624" y="166.7432">service interfaces.IGenericService[DtoType, CreateDtoType, UpdateDtoType, EntityType]</text><line style="stroke:#181818;stroke-width:1.0;" x1="1605" x2="2193" y1="173.8194" y2="173.8194"/><rect fill="none" height="6" style="stroke:#C82930;stroke-width:1.0;" width="6" x="1612" y="181.8194"/><text fill="#000000" font-family="sans-serif" font-size="14" lengthAdjust="spacing" textLength="137" x="1624" y="192.3526">logger *logrus.Logger</text><line style="stroke:#181818;stroke-width:1.0;" x1="1605" x2="2193" y1="199.4287" y2="199.4287"/><ellipse cx="1615" cy="210.4287" fill="#84BE84" rx="3" ry="3" style="stroke:#038048;stroke-width:1.0;"/><text fill="#000000" font-family="sans-serif" font-size="14" lengthAdjust="spacing" textLength="152" x="1624" y="217.962">GetList(ctx *gin.Context)</text><line style="stroke:#181818;stroke-width:1.0;" x1="1605" x2="2193" y1="225.0381" y2="225.0381"/><ellipse cx="1615" cy="236.0381" fill="#84BE84" rx="3" ry="3" style="stroke:#038048;stroke-width:1.0;"/><text fill="#000000" font-family="sans-serif" font-size="14" lengthAdjust="spacing" textLength="159" x="1624" y="243.5713">GetByID(ctx *gin.Context)</text><line style="stroke:#181818;stroke-width:1.0;" x1="1605" x2="2193" y1="250.6475" y2="250.6475"/><ellipse cx="1615" cy="261.6475" fill="#84BE84" rx="3" ry="3" style="stroke:#038048;stroke-width:1.0;"/><text fill="#000000" font-family="sans-serif" font-size="14" lengthAdjust="spacing" textLength="150" x="1624" y="269.1807">Create(ctx *gin.Context)</text><line style="stroke:#181818;stroke-width:1.0;" x1="1605" x2="2193" y1="276.2569" y2="276.2569"/><ellipse cx="1615" cy="287.2569" fill="#84BE84" rx="3" ry="3" style="stroke:#038048;stroke-width:1.0;"/><text fill="#000000" font-family="sans-serif" font-size="14" lengthAdjust="spacing" textLength="152" x="1624" y="294.7901">Update(ctx *gin.Context)</text><line style="stroke:#181818;stroke-width:1.0;" x1="1605" x2="2193" y1="301.8663" y2="301.8663"/><ellipse cx="1615" cy="312.8663" fill="#84BE84" rx="3" ry="3" style="stroke:#038048;stroke-width:1.0;"/><text fill="#000000" font-family="sans-serif" font-size="14" lengthAdjust="spacing" textLength="148" x="1624" y="320.3995">Delete(ctx *gin.Context)</text></g><path d="M1269,130.21 L1269,156.5616 A0,0 0 0 0 1269,156.5616 L1561,156.5616 A0,0 0 0 0 1561,156.5616 L1561,148.21 L1608,212.2334 L1561,140.21 L1561,140.21 L1551,130.21 L1269,130.21 A0,0 0 0 0 1269,130.21 " fill="#FEFFDD" style="stroke:#181818;stroke-width:0.5;"/><path d="M1551,130.21 L1551,140.21 L1561,140.21 L1551,130.21 " fill="#FEFFDD" style="stroke:#181818;stroke-width:0.5;"/><text fill="#000000" font-family="sans-serif" font-size="13" lengthAdjust="spacing" textLength="271" x="1275" y="148.7051">Get list of elements with search and pagination</text><path d="M1269,166.5616 L1269,192.9131 A0,0 0 0 0 1269,192.9131 L1379,192.9131 A0,0 0 0 0 1379,192.9131 L1379,184.5616 L1608,237.8428 L1379,176.5616 L1379,176.5616 L1369,166.5616 L1269,166.5616 A0,0 0 0 0 1269,166.5616 " fill="#FEFFDD" style="stroke:#181818;stroke-width:0.5;"/><path d="M1369,166.5616 L1369,176.5616 L1379,176.5616 L1369,166.5616 " fill="#FEFFDD" style="stroke:#181818;stroke-width:0.5;"/><text fill="#000000" font-family="sans-serif" font-size="13" lengthAdjust="spacing" textLength="89" x="1275" y="185.0567">Get entity by id</text><path d="M1269,202.9131 L1269,229.2647 A0,0 0 0 0 1269,229.2647 L1391,229.2647 A0,0 0 0 0 1391,229.2647 L1391,220.9131 L1608,263.4522 L1391,212.9131 L1391,212.9131 L1381,202.9131 L1269,202.9131 A0,0 0 0 0 1269,202.9131 " fill="#FEFFDD" style="stroke:#181818;stroke-width:0.5;"/><path d="M1381,202.9131 L1381,212.9131 L1391,212.9131 L1381,202.9131 " fill="#FEFFDD" style="stroke:#181818;stroke-width:0.5;"/><text fill="#000000" font-family="sans-serif" font-size="13" lengthAdjust="spacing" textLength="101" x="1275" y="221.4082">Create new entity</text><path d="M1269,239.2647 L1269,265.6163 A0,0 0 0 0 1269,265.6163 L1399,265.6163 A0,0 0 0 0 1399,265.6163 L1399,257.2647 L1608,289.0616 L1399,249.2647 L1399,249.2647 L1389,239.2647 L1269,239.2647 A0,0 0 0 0 1269,239.2647 " fill="#FEFFDD" style="stroke:#181818;stroke-width:0.5;"/><path d="M1389,239.2647 L1389,249.2647 L1399,249.2647 L1389,239.2647 " fill="#FEFFDD" style="stroke:#181818;stroke-width:0.5;"/><text fill="#000000" font-family="sans-serif" font-size="13" lengthAdjust="spacing" textLength="109" x="1275" y="257.7598">Update entity by id</text><path d="M1269,275.6163 L1269,301.9678 A0,0 0 0 0 1269,301.9678 L1398,301.9678 A0,0 0 0 0 1398,301.9678 L1398,293.6163 L1608,314.6709 L1398,285.6163 L1398,285.6163 L1388,275.6163 L1269,275.6163 A0,0 0 0 0 1269,275.6163 " fill="#FEFFDD" style="stroke:#181818;stroke-width:0.5;"/><path d="M1388,275.6163 L1388,285.6163 L1398,285.6163 L1388,275.6163 " fill="#FEFFDD" style="stroke:#181818;stroke-width:0.5;"/><text fill="#000000" font-family="sans-serif" font-size="13" lengthAdjust="spacing" textLength="108" x="1275" y="294.1114">Soft deleting entity</text><!--MD5=[4543b72cf38ea9c175580af8a3d89c83]
link GinGenericController to IGenericService--><g id="link_GinGenericController_IGenericService"><path codeLine="40" d="M1603,160.21 C1560.74,160.21 1595.13,107.27 1579,68.21 C1573.11,53.94 1574.89,45.9 1561.5,38.21 C1505.42,6 1334.07,26.33 1270.5,38.21 C1163.49,58.21 1049.53,101.63 960.34,141.17 " fill="none" id="GinGenericController-IGenericService" style="stroke:#181818;stroke-width:1.0;stroke-dasharray:7.0,7.0;"/></g><!--MD5=[e62afda7a43ec9da3749306baf2fc9c6]
@startuml
!include ../interfaces/IGenericService.puml

package controllers {
    class GinGenericController<DtoType, CreateDtoType, UpdateDtoType, EntityType> {
        -service interfaces.IGenericService[DtoType, CreateDtoType, UpdateDtoType, EntityType]
        - -
        -logger *logrus.Logger
        - -
        +GetList(ctx *gin.Context)
        - -
        +GetByID(ctx *gin.Context)
        - -
        +Create(ctx *gin.Context)
        - -
        +Update(ctx *gin.Context)
        - -
        +Delete(ctx *gin.Context)
    }

    note left of GinGenericController::GetList
    Get list of elements with search and pagination
    end note

    note left of GinGenericController::GetByID
    Get entity by id
    end note

    note left of GinGenericController::Create(
    Create new entity
    end note

    note left of GinGenericController::Update(
    Update entity by id
    end note

    note left of GinGenericController::Delete
    Soft deleting entity
    end note

    IGenericService .left. GinGenericController::service
}

@enduml

@startuml

package app {
    interface IGenericService<EntityType, CreateDtoType, UpdateDtoType, DtoType> {
        +GetList(ctx context.Context, search, orderBy, orderDirection string, page, pageSize int) (*dtos.PaginatedListDto[DtoType], error)
        - -
        +GetById(ctx context.Context, id uuid.UUID) (*DtoType, error)
        - -
        +Update(ctx context.Context, updateDto UpdateDtoType, id uuid.UUID) error
        - -
        +Create(ctx context.Context, createDto CreateDtoType) (uuid.UUID, error)
        - -
        +Delete(ctx context.Context, id uuid.UUID) error
    }
    note left of IGenericService::GetList
        Get list of elements with search and pagination
    end note

    note left of IGenericService::GetById
        Get entity by ID from service
    end note

    note left of IGenericService::Update
        Save the changes to the existing entity in the service
    end note

    note left of IGenericService::Create
        Add entity to the service
    end note

    note left of IGenericService::Delete
        Mark an entity as deleted
    end note
}


package controllers {
    class GinGenericController<DtoType, CreateDtoType, UpdateDtoType, EntityType> {
        -service interfaces.IGenericService[DtoType, CreateDtoType, UpdateDtoType, EntityType]
        - -
        -logger *logrus.Logger
        - -
        +GetList(ctx *gin.Context)
        - -
        +GetByID(ctx *gin.Context)
        - -
        +Create(ctx *gin.Context)
        - -
        +Update(ctx *gin.Context)
        - -
        +Delete(ctx *gin.Context)
    }

    note left of GinGenericController::GetList
    Get list of elements with search and pagination
    end note

    note left of GinGenericController::GetByID
    Get entity by id
    end note

    note left of GinGenericController::Create(
    Create new entity
    end note

    note left of GinGenericController::Update(
    Update entity by id
    end note

    note left of GinGenericController::Delete
    Soft deleting entity
    end note

    IGenericService .left. GinGenericController::service
}

@enduml

PlantUML version 1.2022.6(Tue Jun 21 20:34:49 MSK 2022)
(GPL source distribution)
Java Runtime: OpenJDK Runtime Environment
JVM: OpenJDK 64-Bit Server VM
Default Encoding: Cp1251
Language: ru
Country: RU
--></g></svg>