<?xml version="1.0" encoding="UTF-8" standalone="no"?><svg xmlns="http://www.w3.org/2000/svg" xmlns:xlink="http://www.w3.org/1999/xlink" contentStyleType="text/css" height="1212px" preserveAspectRatio="none" style="width:2809px;height:1212px;background:#FFFFFF;" version="1.1" viewBox="0 0 2809 1212" width="2809px" zoomAndPan="magnify"><defs/><g><!--MD5=[ac65c812e7532cbcd7b9effd958b962e]
cluster dtos--><g id="cluster_dtos"><path d="M1586.5,6 L1618.5,6 A3.75,3.75 0 0 1 1621,8.5 L1628,29.6094 L2012.5,29.6094 A2.5,2.5 0 0 1 2015,32.1094 L2015,324 A2.5,2.5 0 0 1 2012.5,326.5 L1586.5,326.5 A2.5,2.5 0 0 1 1584,324 L1584,8.5 A2.5,2.5 0 0 1 1586.5,6 " style="stroke:#000000;stroke-width:1.5;fill:none;"/><line style="stroke:#000000;stroke-width:1.5;fill:none;" x1="1584" x2="1628" y1="29.6094" y2="29.6094"/><text fill="#000000" font-family="sans-serif" font-size="14" font-weight="bold" lengthAdjust="spacing" textLength="31" x="1588" y="22.5332">dtos</text></g><!--MD5=[d5ac3844f66b12d9e08170e47495e096]
cluster app--><g id="cluster_app"><path d="M64.5,644.5 L91.5,644.5 A3.75,3.75 0 0 1 94,647 L101,668.1094 L2799.5,668.1094 A2.5,2.5 0 0 1 2802,670.6094 L2802,1203 A2.5,2.5 0 0 1 2799.5,1205.5 L64.5,1205.5 A2.5,2.5 0 0 1 62,1203 L62,647 A2.5,2.5 0 0 1 64.5,644.5 " style="stroke:#000000;stroke-width:1.5;fill:none;"/><line style="stroke:#000000;stroke-width:1.5;fill:none;" x1="62" x2="101" y1="668.1094" y2="668.1094"/><text fill="#000000" font-family="sans-serif" font-size="14" font-weight="bold" lengthAdjust="spacing" textLength="26" x="66" y="661.0332">app</text></g><!--MD5=[27f772719433d509ddbc20ff768eba08]
cluster domain--><g id="cluster_domain"><path d="M8.5,15.5 L60.5,15.5 A3.75,3.75 0 0 1 63,18 L70,39.1094 L770.5,39.1094 A2.5,2.5 0 0 1 773,41.6094 L773,563.5 A2.5,2.5 0 0 1 770.5,566 L8.5,566 A2.5,2.5 0 0 1 6,563.5 L6,18 A2.5,2.5 0 0 1 8.5,15.5 " style="stroke:#000000;stroke-width:1.5;fill:none;"/><line style="stroke:#000000;stroke-width:1.5;fill:none;" x1="6" x2="70" y1="39.1094" y2="39.1094"/><text fill="#000000" font-family="sans-serif" font-size="14" font-weight="bold" lengthAdjust="spacing" textLength="51" x="10" y="32.0332">domain</text></g><!--MD5=[77349be1bd27b81b697a0f9b3aded3c8]
cluster infrastructure--><g id="cluster_infrastructure"><path d="M1006.5,414.5 L1104.5,414.5 A3.75,3.75 0 0 1 1107,417 L1114,438.1094 L1676.5,438.1094 A2.5,2.5 0 0 1 1679,440.6094 L1679,554 A2.5,2.5 0 0 1 1676.5,556.5 L1006.5,556.5 A2.5,2.5 0 0 1 1004,554 L1004,417 A2.5,2.5 0 0 1 1006.5,414.5 " style="stroke:#000000;stroke-width:1.5;fill:none;"/><line style="stroke:#000000;stroke-width:1.5;fill:none;" x1="1004" x2="1114" y1="438.1094" y2="438.1094"/><text fill="#000000" font-family="sans-serif" font-size="14" font-weight="bold" lengthAdjust="spacing" textLength="97" x="1008" y="431.0332">infrastructure</text></g><!--MD5=[f4e70ef68289585296b9045165e58692]
cluster controllers--><g id="cluster_controllers"><path d="M1705.5,350.5 L1783.5,350.5 A3.75,3.75 0 0 1 1786,353 L1793,374.1094 L2309.5,374.1094 A2.5,2.5 0 0 1 2312,376.6094 L2312,618 A2.5,2.5 0 0 1 2309.5,620.5 L1705.5,620.5 A2.5,2.5 0 0 1 1703,618 L1703,353 A2.5,2.5 0 0 1 1705.5,350.5 " style="stroke:#000000;stroke-width:1.5;fill:none;"/><line style="stroke:#000000;stroke-width:1.5;fill:none;" x1="1703" x2="1793" y1="374.1094" y2="374.1094"/><text fill="#000000" font-family="sans-serif" font-size="14" font-weight="bold" lengthAdjust="spacing" textLength="77" x="1707" y="367.0332">controllers</text></g><!--MD5=[9e65b2396521abe67a0e24699b62cd97]
class HostNetworkVlanDto--><g id="elem_HostNetworkVlanDto"><rect codeLine="3" fill="#F1F1F1" height="134.4375" id="HostNetworkVlanDto" rx="2.5" ry="2.5" style="stroke:#181818;stroke-width:0.5;" width="160" x="1600" y="42"/><ellipse cx="1615" cy="58" fill="#ADD1B2" rx="11" ry="11" style="stroke:#181818;stroke-width:1.0;"/><path d="M1617.7656,53.875 Q1617.9219,53.6563 1618.1094,53.5469 Q1618.2969,53.4375 1618.5156,53.4375 Q1618.8906,53.4375 1619.125,53.7031 Q1619.3594,53.9531 1619.3594,54.5625 L1619.3594,56.0156 Q1619.3594,56.625 1619.125,56.8906 Q1618.8906,57.1563 1618.5156,57.1563 Q1618.1719,57.1563 1617.9688,56.9531 Q1617.7656,56.7656 1617.6563,56.25 Q1617.6094,55.8906 1617.4219,55.7031 Q1617.0938,55.3281 1616.4844,55.1094 Q1615.875,54.8906 1615.25,54.8906 Q1614.4844,54.8906 1613.8438,55.2188 Q1613.2188,55.5469 1612.7188,56.2969 Q1612.2344,57.0469 1612.2344,58.0781 L1612.2344,59.1719 Q1612.2344,60.4063 1613.125,61.2344 Q1614.0156,62.0469 1615.6094,62.0469 Q1616.5469,62.0469 1617.2031,61.7969 Q1617.5938,61.6406 1618.0156,61.2031 Q1618.2813,60.9375 1618.4219,60.8594 Q1618.5781,60.7813 1618.7813,60.7813 Q1619.1094,60.7813 1619.3594,61.0469 Q1619.625,61.2969 1619.625,61.6406 Q1619.625,61.9844 1619.2813,62.3906 Q1618.7813,62.9688 1617.9844,63.2969 Q1616.9063,63.75 1615.6094,63.75 Q1614.0938,63.75 1612.8906,63.125 Q1611.9063,62.625 1611.2188,61.5625 Q1610.5313,60.4844 1610.5313,59.2031 L1610.5313,58.0469 Q1610.5313,56.7188 1611.1406,55.5781 Q1611.7656,54.4219 1612.8594,53.8125 Q1613.9531,53.1875 1615.1875,53.1875 Q1615.9219,53.1875 1616.5625,53.3594 Q1617.2188,53.5156 1617.7656,53.875 Z " fill="#000000"/><text fill="#000000" font-family="sans-serif" font-size="14" lengthAdjust="spacing" textLength="128" x="1629" y="63.7285">HostNetworkVlanDto</text><line style="stroke:#181818;stroke-width:0.5;" x1="1601" x2="1759" y1="74" y2="74"/><ellipse cx="1611" cy="85" fill="none" rx="3" ry="3" style="stroke:#038048;stroke-width:1.0;"/><text fill="#000000" font-family="sans-serif" font-size="14" lengthAdjust="spacing" textLength="75" x="1620" y="92.5332">Name string</text><line style="stroke:#181818;stroke-width:1.0;" x1="1601" x2="1759" y1="99.6094" y2="99.6094"/><ellipse cx="1611" cy="110.6094" fill="none" rx="3" ry="3" style="stroke:#038048;stroke-width:1.0;"/><text fill="#000000" font-family="sans-serif" font-size="14" lengthAdjust="spacing" textLength="114" x="1620" y="118.1426">Addresses []string</text><line style="stroke:#181818;stroke-width:1.0;" x1="1601" x2="1759" y1="125.2188" y2="125.2188"/><ellipse cx="1611" cy="136.2188" fill="none" rx="3" ry="3" style="stroke:#038048;stroke-width:1.0;"/><text fill="#000000" font-family="sans-serif" font-size="14" lengthAdjust="spacing" textLength="60" x="1620" y="143.752">VlanID int</text><line style="stroke:#181818;stroke-width:1.0;" x1="1601" x2="1759" y1="150.8281" y2="150.8281"/><ellipse cx="1611" cy="161.8281" fill="none" rx="3" ry="3" style="stroke:#038048;stroke-width:1.0;"/><text fill="#000000" font-family="sans-serif" font-size="14" lengthAdjust="spacing" textLength="81" x="1620" y="169.3613">Parent string</text></g><!--MD5=[ae586694ec8944e3de5035463e31030f]
class HostNetworkVlanCreateDto--><g id="elem_HostNetworkVlanCreateDto"><rect codeLine="3" fill="#F1F1F1" height="108.8281" id="HostNetworkVlanCreateDto" rx="2.5" ry="2.5" style="stroke:#181818;stroke-width:0.5;" width="203" x="1795.5" y="54.5"/><ellipse cx="1810.5" cy="70.5" fill="#ADD1B2" rx="11" ry="11" style="stroke:#181818;stroke-width:1.0;"/><path d="M1813.2656,66.375 Q1813.4219,66.1563 1813.6094,66.0469 Q1813.7969,65.9375 1814.0156,65.9375 Q1814.3906,65.9375 1814.625,66.2031 Q1814.8594,66.4531 1814.8594,67.0625 L1814.8594,68.5156 Q1814.8594,69.125 1814.625,69.3906 Q1814.3906,69.6563 1814.0156,69.6563 Q1813.6719,69.6563 1813.4688,69.4531 Q1813.2656,69.2656 1813.1563,68.75 Q1813.1094,68.3906 1812.9219,68.2031 Q1812.5938,67.8281 1811.9844,67.6094 Q1811.375,67.3906 1810.75,67.3906 Q1809.9844,67.3906 1809.3438,67.7188 Q1808.7188,68.0469 1808.2188,68.7969 Q1807.7344,69.5469 1807.7344,70.5781 L1807.7344,71.6719 Q1807.7344,72.9063 1808.625,73.7344 Q1809.5156,74.5469 1811.1094,74.5469 Q1812.0469,74.5469 1812.7031,74.2969 Q1813.0938,74.1406 1813.5156,73.7031 Q1813.7813,73.4375 1813.9219,73.3594 Q1814.0781,73.2813 1814.2813,73.2813 Q1814.6094,73.2813 1814.8594,73.5469 Q1815.125,73.7969 1815.125,74.1406 Q1815.125,74.4844 1814.7813,74.8906 Q1814.2813,75.4688 1813.4844,75.7969 Q1812.4063,76.25 1811.1094,76.25 Q1809.5938,76.25 1808.3906,75.625 Q1807.4063,75.125 1806.7188,74.0625 Q1806.0313,72.9844 1806.0313,71.7031 L1806.0313,70.5469 Q1806.0313,69.2188 1806.6406,68.0781 Q1807.2656,66.9219 1808.3594,66.3125 Q1809.4531,65.6875 1810.6875,65.6875 Q1811.4219,65.6875 1812.0625,65.8594 Q1812.7188,66.0156 1813.2656,66.375 Z " fill="#000000"/><text fill="#000000" font-family="sans-serif" font-size="14" lengthAdjust="spacing" textLength="171" x="1824.5" y="76.2285">HostNetworkVlanCreateDto</text><line style="stroke:#181818;stroke-width:0.5;" x1="1796.5" x2="1997.5" y1="86.5" y2="86.5"/><ellipse cx="1806.5" cy="97.5" fill="none" rx="3" ry="3" style="stroke:#038048;stroke-width:1.0;"/><text fill="#000000" font-family="sans-serif" font-size="14" lengthAdjust="spacing" textLength="114" x="1815.5" y="105.0332">Addresses []string</text><line style="stroke:#181818;stroke-width:1.0;" x1="1796.5" x2="1997.5" y1="112.1094" y2="112.1094"/><ellipse cx="1806.5" cy="123.1094" fill="none" rx="3" ry="3" style="stroke:#038048;stroke-width:1.0;"/><text fill="#000000" font-family="sans-serif" font-size="14" lengthAdjust="spacing" textLength="60" x="1815.5" y="130.6426">VlanID int</text><line style="stroke:#181818;stroke-width:1.0;" x1="1796.5" x2="1997.5" y1="137.7188" y2="137.7188"/><ellipse cx="1806.5" cy="148.7188" fill="none" rx="3" ry="3" style="stroke:#038048;stroke-width:1.0;"/><text fill="#000000" font-family="sans-serif" font-size="14" lengthAdjust="spacing" textLength="81" x="1815.5" y="156.252">Parent string</text></g><!--MD5=[2b90e6aa41438807c1b2d791f97e652d]
class HostNetworkVlanUpdateDto--><g id="elem_HostNetworkVlanUpdateDto"><rect codeLine="3" fill="#F1F1F1" height="65.6094" id="HostNetworkVlanUpdateDto" rx="2.5" ry="2.5" style="stroke:#181818;stroke-width:0.5;" width="205" x="1600.5" y="244.5"/><ellipse cx="1615.5" cy="260.5" fill="#ADD1B2" rx="11" ry="11" style="stroke:#181818;stroke-width:1.0;"/><path d="M1618.2656,256.375 Q1618.4219,256.1563 1618.6094,256.0469 Q1618.7969,255.9375 1619.0156,255.9375 Q1619.3906,255.9375 1619.625,256.2031 Q1619.8594,256.4531 1619.8594,257.0625 L1619.8594,258.5156 Q1619.8594,259.125 1619.625,259.3906 Q1619.3906,259.6563 1619.0156,259.6563 Q1618.6719,259.6563 1618.4688,259.4531 Q1618.2656,259.2656 1618.1563,258.75 Q1618.1094,258.3906 1617.9219,258.2031 Q1617.5938,257.8281 1616.9844,257.6094 Q1616.375,257.3906 1615.75,257.3906 Q1614.9844,257.3906 1614.3438,257.7188 Q1613.7188,258.0469 1613.2188,258.7969 Q1612.7344,259.5469 1612.7344,260.5781 L1612.7344,261.6719 Q1612.7344,262.9063 1613.625,263.7344 Q1614.5156,264.5469 1616.1094,264.5469 Q1617.0469,264.5469 1617.7031,264.2969 Q1618.0938,264.1406 1618.5156,263.7031 Q1618.7813,263.4375 1618.9219,263.3594 Q1619.0781,263.2813 1619.2813,263.2813 Q1619.6094,263.2813 1619.8594,263.5469 Q1620.125,263.7969 1620.125,264.1406 Q1620.125,264.4844 1619.7813,264.8906 Q1619.2813,265.4688 1618.4844,265.7969 Q1617.4063,266.25 1616.1094,266.25 Q1614.5938,266.25 1613.3906,265.625 Q1612.4063,265.125 1611.7188,264.0625 Q1611.0313,262.9844 1611.0313,261.7031 L1611.0313,260.5469 Q1611.0313,259.2188 1611.6406,258.0781 Q1612.2656,256.9219 1613.3594,256.3125 Q1614.4531,255.6875 1615.6875,255.6875 Q1616.4219,255.6875 1617.0625,255.8594 Q1617.7188,256.0156 1618.2656,256.375 Z " fill="#000000"/><text fill="#000000" font-family="sans-serif" font-size="14" lengthAdjust="spacing" textLength="173" x="1629.5" y="266.2285">HostNetworkVlanUpdateDto</text><line style="stroke:#181818;stroke-width:0.5;" x1="1601.5" x2="1804.5" y1="276.5" y2="276.5"/><ellipse cx="1611.5" cy="287.5" fill="none" rx="3" ry="3" style="stroke:#038048;stroke-width:1.0;"/><text fill="#000000" font-family="sans-serif" font-size="14" lengthAdjust="spacing" textLength="114" x="1620.5" y="295.0332">Addresses []string</text><line style="stroke:#181818;stroke-width:0.5;" x1="1601.5" x2="1804.5" y1="302.1094" y2="302.1094"/></g><!--MD5=[7d972e8a870a7d3102e7596738050350]
class IHostNetworkLink--><g id="elem_IHostNetworkLink"><rect codeLine="3" fill="#F1F1F1" height="108.8281" id="IHostNetworkLink" rx="2.5" ry="2.5" style="stroke:#181818;stroke-width:0.5;" width="195" x="308.5" y="880.5"/><ellipse cx="346.45" cy="896.5" fill="#B4A7E5" rx="11" ry="11" style="stroke:#181818;stroke-width:1.0;"/><path d="M347.4031,893.1406 L347.4031,899.7969 L349.1219,899.7969 Q349.7313,899.7969 349.9969,900.0313 Q350.2625,900.2656 350.2625,900.6563 Q350.2625,901.0313 349.9969,901.2656 Q349.7313,901.5 349.1219,901.5 L343.9813,901.5 Q343.3719,901.5 343.1063,901.2656 Q342.8406,901.0313 342.8406,900.6406 Q342.8406,900.2656 343.1063,900.0313 Q343.3719,899.7969 343.9813,899.7969 L345.7,899.7969 L345.7,893.1406 L343.9813,893.1406 Q343.3719,893.1406 343.1063,892.9063 Q342.8406,892.6719 342.8406,892.2813 Q342.8406,891.9063 343.1063,891.6719 Q343.3719,891.4375 343.9813,891.4375 L349.1219,891.4375 Q349.7313,891.4375 349.9969,891.6719 Q350.2625,891.9063 350.2625,892.2813 Q350.2625,892.6719 349.9969,892.9063 Q349.7313,893.1406 349.1219,893.1406 L347.4031,893.1406 Z " fill="#000000"/><text fill="#000000" font-family="sans-serif" font-size="14" font-style="italic" lengthAdjust="spacing" textLength="112" x="365.55" y="902.2285">IHostNetworkLink</text><line style="stroke:#181818;stroke-width:0.5;" x1="309.5" x2="502.5" y1="912.5" y2="912.5"/><ellipse cx="319.5" cy="923.5" fill="#84BE84" rx="3" ry="3" style="stroke:#038048;stroke-width:1.0;"/><text fill="#000000" font-family="sans-serif" font-size="14" lengthAdjust="spacing" textLength="108" x="328.5" y="931.0332">GetName() string</text><line style="stroke:#181818;stroke-width:1.0;" x1="309.5" x2="502.5" y1="938.1094" y2="938.1094"/><ellipse cx="319.5" cy="949.1094" fill="#84BE84" rx="3" ry="3" style="stroke:#038048;stroke-width:1.0;"/><text fill="#000000" font-family="sans-serif" font-size="14" lengthAdjust="spacing" textLength="104" x="328.5" y="956.6426">GetType() string</text><line style="stroke:#181818;stroke-width:1.0;" x1="309.5" x2="502.5" y1="963.7188" y2="963.7188"/><ellipse cx="319.5" cy="974.7188" fill="#84BE84" rx="3" ry="3" style="stroke:#038048;stroke-width:1.0;"/><text fill="#000000" font-family="sans-serif" font-size="14" lengthAdjust="spacing" textLength="169" x="328.5" y="982.252">GetAddresses() []net.IPNet</text></g><path d="M78.5,880.5 L78.5,906.8516 A0,0 0 0 0 78.5,906.8516 L245.5,906.8516 A0,0 0 0 0 245.5,906.8516 L245.5,898.5 L312.5,925.3047 L245.5,890.5 L245.5,890.5 L235.5,880.5 L78.5,880.5 A0,0 0 0 0 78.5,880.5 " fill="#FEFFDD" style="stroke:#181818;stroke-width:0.5;"/><path d="M235.5,880.5 L235.5,890.5 L245.5,890.5 L235.5,880.5 " fill="#FEFFDD" style="stroke:#181818;stroke-width:0.5;"/><text fill="#000000" font-family="sans-serif" font-size="13" lengthAdjust="spacing" textLength="146" x="84.5" y="898.9951">Gets host interface name</text><path d="M78.5,916.8516 L78.5,943.2031 A0,0 0 0 0 78.5,943.2031 L238.5,943.2031 A0,0 0 0 0 238.5,943.2031 L238.5,934.8516 L312.5,950.9141 L238.5,926.8516 L238.5,926.8516 L228.5,916.8516 L78.5,916.8516 A0,0 0 0 0 78.5,916.8516 " fill="#FEFFDD" style="stroke:#181818;stroke-width:0.5;"/><path d="M228.5,916.8516 L228.5,926.8516 L238.5,926.8516 L228.5,916.8516 " fill="#FEFFDD" style="stroke:#181818;stroke-width:0.5;"/><text fill="#000000" font-family="sans-serif" font-size="13" lengthAdjust="spacing" textLength="139" x="84.5" y="935.3467">Gets host interface type</text><path d="M78.5,953.2031 L78.5,979.5547 A0,0 0 0 0 78.5,979.5547 L273.5,979.5547 A0,0 0 0 0 273.5,979.5547 L273.5,971.2031 L312.5,976.5234 L273.5,963.2031 L273.5,963.2031 L263.5,953.2031 L78.5,953.2031 A0,0 0 0 0 78.5,953.2031 " fill="#FEFFDD" style="stroke:#181818;stroke-width:0.5;"/><path d="M263.5,953.2031 L263.5,963.2031 L273.5,963.2031 L263.5,953.2031 " fill="#FEFFDD" style="stroke:#181818;stroke-width:0.5;"/><text fill="#000000" font-family="sans-serif" font-size="13" lengthAdjust="spacing" textLength="174" x="84.5" y="971.6982">Gets host interface addresses</text><!--MD5=[eee03abc33d997fda74f03d63bc5bd12]
class IHostNetworkManager--><g id="elem_IHostNetworkManager"><rect codeLine="5" fill="#F1F1F1" height="390.5313" id="IHostNetworkManager" rx="2.5" ry="2.5" style="stroke:#181818;stroke-width:0.5;" width="356" x="1339" y="739.5"/><ellipse cx="1441.75" cy="755.5" fill="#B4A7E5" rx="11" ry="11" style="stroke:#181818;stroke-width:1.0;"/><path d="M1442.7031,752.1406 L1442.7031,758.7969 L1444.4219,758.7969 Q1445.0313,758.7969 1445.2969,759.0313 Q1445.5625,759.2656 1445.5625,759.6563 Q1445.5625,760.0313 1445.2969,760.2656 Q1445.0313,760.5 1444.4219,760.5 L1439.2813,760.5 Q1438.6719,760.5 1438.4063,760.2656 Q1438.1406,760.0313 1438.1406,759.6406 Q1438.1406,759.2656 1438.4063,759.0313 Q1438.6719,758.7969 1439.2813,758.7969 L1441,758.7969 L1441,752.1406 L1439.2813,752.1406 Q1438.6719,752.1406 1438.4063,751.9063 Q1438.1406,751.6719 1438.1406,751.2813 Q1438.1406,750.9063 1438.4063,750.6719 Q1438.6719,750.4375 1439.2813,750.4375 L1444.4219,750.4375 Q1445.0313,750.4375 1445.2969,750.6719 Q1445.5625,750.9063 1445.5625,751.2813 Q1445.5625,751.6719 1445.2969,751.9063 Q1445.0313,752.1406 1444.4219,752.1406 L1442.7031,752.1406 Z " fill="#000000"/><text fill="#000000" font-family="sans-serif" font-size="14" font-style="italic" lengthAdjust="spacing" textLength="142" x="1462.25" y="761.2285">IHostNetworkManager</text><line style="stroke:#181818;stroke-width:0.5;" x1="1340" x2="1694" y1="771.5" y2="771.5"/><ellipse cx="1350" cy="782.5" fill="#84BE84" rx="3" ry="3" style="stroke:#038048;stroke-width:1.0;"/><text fill="#000000" font-family="sans-serif" font-size="14" lengthAdjust="spacing" textLength="223" x="1359" y="790.0332">GetList() ([]IHostNetworkLink, error)</text><line style="stroke:#181818;stroke-width:1.0;" x1="1340" x2="1694" y1="797.1094" y2="797.1094"/><ellipse cx="1350" cy="808.1094" fill="#84BE84" rx="3" ry="3" style="stroke:#038048;stroke-width:1.0;"/><text fill="#000000" font-family="sans-serif" font-size="14" lengthAdjust="spacing" textLength="319" x="1359" y="815.6426">GetByName(name string) (IHostNetworkLink, error)</text><line style="stroke:#181818;stroke-width:1.0;" x1="1340" x2="1694" y1="822.7188" y2="822.7188"/><ellipse cx="1350" cy="833.7188" fill="#84BE84" rx="3" ry="3" style="stroke:#038048;stroke-width:1.0;"/><text fill="#000000" font-family="sans-serif" font-size="14" lengthAdjust="spacing" textLength="317" x="1359" y="841.252">CreateVlan(master string, vlanID int) (string, error)</text><line style="stroke:#181818;stroke-width:1.0;" x1="1340" x2="1694" y1="848.3281" y2="848.3281"/><ellipse cx="1350" cy="859.3281" fill="#84BE84" rx="3" ry="3" style="stroke:#038048;stroke-width:1.0;"/><text fill="#000000" font-family="sans-serif" font-size="14" lengthAdjust="spacing" textLength="256" x="1359" y="866.8613">CreateBridge(name string) (string, error)</text><line style="stroke:#181818;stroke-width:1.0;" x1="1340" x2="1694" y1="873.9375" y2="873.9375"/><ellipse cx="1350" cy="884.9375" fill="#84BE84" rx="3" ry="3" style="stroke:#038048;stroke-width:1.0;"/><text fill="#000000" font-family="sans-serif" font-size="14" lengthAdjust="spacing" textLength="330" x="1359" y="892.4707">SetLinkMaster(slaveName, masterName string) error</text><line style="stroke:#181818;stroke-width:1.0;" x1="1340" x2="1694" y1="899.5469" y2="899.5469"/><ellipse cx="1350" cy="910.5469" fill="#84BE84" rx="3" ry="3" style="stroke:#038048;stroke-width:1.0;"/><text fill="#000000" font-family="sans-serif" font-size="14" lengthAdjust="spacing" textLength="246" x="1359" y="918.0801">UnsetLinkMaster(linkName string) error</text><line style="stroke:#181818;stroke-width:1.0;" x1="1340" x2="1694" y1="925.1563" y2="925.1563"/><ellipse cx="1350" cy="936.1563" fill="#84BE84" rx="3" ry="3" style="stroke:#038048;stroke-width:1.0;"/><text fill="#000000" font-family="sans-serif" font-size="14" lengthAdjust="spacing" textLength="205" x="1359" y="943.6895">SetLinkUp(linkName string) error</text><line style="stroke:#181818;stroke-width:1.0;" x1="1340" x2="1694" y1="950.7656" y2="950.7656"/><ellipse cx="1350" cy="961.7656" fill="#84BE84" rx="3" ry="3" style="stroke:#038048;stroke-width:1.0;"/><text fill="#000000" font-family="sans-serif" font-size="14" lengthAdjust="spacing" textLength="238" x="1359" y="969.2988">DeleteLinkByName(name string) error</text><line style="stroke:#181818;stroke-width:1.0;" x1="1340" x2="1694" y1="976.375" y2="976.375"/><ellipse cx="1350" cy="987.375" fill="#84BE84" rx="3" ry="3" style="stroke:#038048;stroke-width:1.0;"/><text fill="#000000" font-family="sans-serif" font-size="14" lengthAdjust="spacing" textLength="294" x="1359" y="994.9082">AddrAdd(linkName string, addr net.IPNet) error</text><line style="stroke:#181818;stroke-width:1.0;" x1="1340" x2="1694" y1="1001.9844" y2="1001.9844"/><ellipse cx="1350" cy="1012.9844" fill="#84BE84" rx="3" ry="3" style="stroke:#038048;stroke-width:1.0;"/><text fill="#000000" font-family="sans-serif" font-size="14" lengthAdjust="spacing" textLength="310" x="1359" y="1020.5176">AddrDelete(linkName string, addr net.IPNet) error</text><line style="stroke:#181818;stroke-width:1.0;" x1="1340" x2="1694" y1="1027.5938" y2="1027.5938"/><ellipse cx="1350" cy="1038.5938" fill="#84BE84" rx="3" ry="3" style="stroke:#038048;stroke-width:1.0;"/><text fill="#000000" font-family="sans-serif" font-size="14" lengthAdjust="spacing" textLength="162" x="1359" y="1046.127">SaveConfiguration() error</text><line style="stroke:#181818;stroke-width:1.0;" x1="1340" x2="1694" y1="1053.2031" y2="1053.2031"/><ellipse cx="1350" cy="1064.2031" fill="#84BE84" rx="3" ry="3" style="stroke:#038048;stroke-width:1.0;"/><text fill="#000000" font-family="sans-serif" font-size="14" lengthAdjust="spacing" textLength="175" x="1359" y="1071.7363">RestoreFromBackup() error</text><line style="stroke:#181818;stroke-width:1.0;" x1="1340" x2="1694" y1="1078.8125" y2="1078.8125"/><ellipse cx="1350" cy="1089.8125" fill="#84BE84" rx="3" ry="3" style="stroke:#038048;stroke-width:1.0;"/><text fill="#000000" font-family="sans-serif" font-size="14" lengthAdjust="spacing" textLength="139" x="1359" y="1097.3457">ResetChanges() error</text><line style="stroke:#181818;stroke-width:1.0;" x1="1340" x2="1694" y1="1104.4219" y2="1104.4219"/><ellipse cx="1350" cy="1115.4219" fill="#84BE84" rx="3" ry="3" style="stroke:#038048;stroke-width:1.0;"/><text fill="#000000" font-family="sans-serif" font-size="14" lengthAdjust="spacing" textLength="177" x="1359" y="1122.9551">HasUnsavedChanges() bool</text></g><path d="M942.5,680.5 L942.5,706.8516 A0,0 0 0 0 942.5,706.8516 L1164.5,706.8516 A0,0 0 0 0 1164.5,706.8516 L1164.5,698.5 L1343,784.3047 L1164.5,690.5 L1164.5,690.5 L1154.5,680.5 L942.5,680.5 A0,0 0 0 0 942.5,680.5 " fill="#FEFFDD" style="stroke:#181818;stroke-width:0.5;"/><path d="M1154.5,680.5 L1154.5,690.5 L1164.5,690.5 L1154.5,680.5 " fill="#FEFFDD" style="stroke:#181818;stroke-width:0.5;"/><text fill="#000000" font-family="sans-serif" font-size="13" lengthAdjust="spacing" textLength="201" x="948.5" y="698.9951">Gets list of host network interfaces</text><path d="M942.5,716.8516 L942.5,743.2031 A0,0 0 0 0 942.5,743.2031 L1194.5,743.2031 A0,0 0 0 0 1194.5,743.2031 L1194.5,734.8516 L1343,809.9141 L1194.5,726.8516 L1194.5,726.8516 L1184.5,716.8516 L942.5,716.8516 A0,0 0 0 0 942.5,716.8516 " fill="#FEFFDD" style="stroke:#181818;stroke-width:0.5;"/><path d="M1184.5,716.8516 L1184.5,726.8516 L1194.5,726.8516 L1184.5,716.8516 " fill="#FEFFDD" style="stroke:#181818;stroke-width:0.5;"/><text fill="#000000" font-family="sans-serif" font-size="13" lengthAdjust="spacing" textLength="231" x="948.5" y="735.3467">Gets host network interface by its name</text><path d="M942.5,753.2031 L942.5,779.5547 A0,0 0 0 0 942.5,779.5547 L1292.5,779.5547 A0,0 0 0 0 1292.5,779.5547 L1292.5,771.2031 L1343,835.5234 L1292.5,763.2031 L1292.5,763.2031 L1282.5,753.2031 L942.5,753.2031 A0,0 0 0 0 942.5,753.2031 " fill="#FEFFDD" style="stroke:#181818;stroke-width:0.5;"/><path d="M1282.5,753.2031 L1282.5,763.2031 L1292.5,763.2031 L1282.5,753.2031 " fill="#FEFFDD" style="stroke:#181818;stroke-width:0.5;"/><text fill="#000000" font-family="sans-serif" font-size="13" lengthAdjust="spacing" textLength="329" x="948.5" y="771.6982">Create host vlan interface with name rol.{Master}.{VlanID}</text><path d="M942.5,789.5547 L942.5,815.9063 A0,0 0 0 0 942.5,815.9063 L1264.5,815.9063 A0,0 0 0 0 1264.5,815.9063 L1264.5,807.5547 L1343,861.1328 L1264.5,799.5547 L1264.5,799.5547 L1254.5,789.5547 L942.5,789.5547 A0,0 0 0 0 942.5,789.5547 " fill="#FEFFDD" style="stroke:#181818;stroke-width:0.5;"/><path d="M1254.5,789.5547 L1254.5,799.5547 L1264.5,799.5547 L1254.5,789.5547 " fill="#FEFFDD" style="stroke:#181818;stroke-width:0.5;"/><text fill="#000000" font-family="sans-serif" font-size="13" lengthAdjust="spacing" textLength="301" x="948.5" y="808.0498">Create host bridge interface with name rol.br.{Name}</text><path d="M942.5,825.9063 L942.5,852.2578 A0,0 0 0 0 942.5,852.2578 L1069.5,852.2578 A0,0 0 0 0 1069.5,852.2578 L1069.5,843.9063 L1343,886.7422 L1069.5,835.9063 L1069.5,835.9063 L1059.5,825.9063 L942.5,825.9063 A0,0 0 0 0 942.5,825.9063 " fill="#FEFFDD" style="stroke:#181818;stroke-width:0.5;"/><path d="M1059.5,825.9063 L1059.5,835.9063 L1069.5,835.9063 L1059.5,825.9063 " fill="#FEFFDD" style="stroke:#181818;stroke-width:0.5;"/><text fill="#000000" font-family="sans-serif" font-size="13" lengthAdjust="spacing" textLength="106" x="948.5" y="844.4014">Set master for link</text><path d="M942.5,862.2578 L942.5,888.6094 A0,0 0 0 0 942.5,888.6094 L1142.5,888.6094 A0,0 0 0 0 1142.5,888.6094 L1142.5,880.2578 L1343,912.3516 L1142.5,872.2578 L1142.5,872.2578 L1132.5,862.2578 L942.5,862.2578 A0,0 0 0 0 942.5,862.2578 " fill="#FEFFDD" style="stroke:#181818;stroke-width:0.5;"/><path d="M1132.5,862.2578 L1132.5,872.2578 L1142.5,872.2578 L1132.5,862.2578 " fill="#FEFFDD" style="stroke:#181818;stroke-width:0.5;"/><text fill="#000000" font-family="sans-serif" font-size="13" lengthAdjust="spacing" textLength="179" x="948.5" y="880.7529">Removes the master of the link</text><path d="M942.5,898.6094 L942.5,924.9609 A0,0 0 0 0 942.5,924.9609 L1103.5,924.9609 A0,0 0 0 0 1103.5,924.9609 L1103.5,916.6094 L1343,937.9609 L1103.5,908.6094 L1103.5,908.6094 L1093.5,898.6094 L942.5,898.6094 A0,0 0 0 0 942.5,898.6094 " fill="#FEFFDD" style="stroke:#181818;stroke-width:0.5;"/><path d="M1093.5,898.6094 L1093.5,908.6094 L1103.5,908.6094 L1093.5,898.6094 " fill="#FEFFDD" style="stroke:#181818;stroke-width:0.5;"/><text fill="#000000" font-family="sans-serif" font-size="13" lengthAdjust="spacing" textLength="140" x="948.5" y="917.1045">Enables the link on host</text><path d="M942.5,934.9609 L942.5,961.3125 A0,0 0 0 0 942.5,961.3125 L1179.5,961.3125 A0,0 0 0 0 1179.5,961.3125 L1179.5,952.9609 L1343,963.5703 L1179.5,944.9609 L1179.5,944.9609 L1169.5,934.9609 L942.5,934.9609 A0,0 0 0 0 942.5,934.9609 " fill="#FEFFDD" style="stroke:#181818;stroke-width:0.5;"/><path d="M1169.5,934.9609 L1169.5,944.9609 L1179.5,944.9609 L1169.5,934.9609 " fill="#FEFFDD" style="stroke:#181818;stroke-width:0.5;"/><text fill="#000000" font-family="sans-serif" font-size="13" lengthAdjust="spacing" textLength="216" x="948.5" y="953.4561">Deletes interface on host by its name</text><path d="M942.5,971.3125 L942.5,997.6641 A0,0 0 0 0 942.5,997.6641 L1197.5,997.6641 A0,0 0 0 0 1197.5,997.6641 L1197.5,989.3125 L1343,989.1797 L1197.5,981.3125 L1197.5,981.3125 L1187.5,971.3125 L942.5,971.3125 A0,0 0 0 0 942.5,971.3125 " fill="#FEFFDD" style="stroke:#181818;stroke-width:0.5;"/><path d="M1187.5,971.3125 L1187.5,981.3125 L1197.5,981.3125 L1187.5,971.3125 " fill="#FEFFDD" style="stroke:#181818;stroke-width:0.5;"/><text fill="#000000" font-family="sans-serif" font-size="13" lengthAdjust="spacing" textLength="234" x="948.5" y="989.8076">Add new ip address for network interface</text><path d="M942.5,1007.6641 L942.5,1034.0156 A0,0 0 0 0 942.5,1034.0156 L1184.5,1034.0156 A0,0 0 0 0 1184.5,1034.0156 L1184.5,1025.6641 L1343,1014.7891 L1184.5,1017.6641 L1184.5,1017.6641 L1174.5,1007.6641 L942.5,1007.6641 A0,0 0 0 0 942.5,1007.6641 " fill="#FEFFDD" style="stroke:#181818;stroke-width:0.5;"/><path d="M1174.5,1007.6641 L1174.5,1017.6641 L1184.5,1017.6641 L1174.5,1007.6641 " fill="#FEFFDD" style="stroke:#181818;stroke-width:0.5;"/><text fill="#000000" font-family="sans-serif" font-size="13" lengthAdjust="spacing" textLength="221" x="948.5" y="1026.1592">Delete ip address for network interface</text><path d="M942.5,1044.0156 L942.5,1070.3672 A0,0 0 0 0 942.5,1070.3672 L1274.5,1070.3672 A0,0 0 0 0 1274.5,1070.3672 L1274.5,1062.0156 L1343,1040.3984 L1274.5,1054.0156 L1274.5,1054.0156 L1264.5,1044.0156 L942.5,1044.0156 A0,0 0 0 0 942.5,1044.0156 " fill="#FEFFDD" style="stroke:#181818;stroke-width:0.5;"/><path d="M1264.5,1044.0156 L1264.5,1054.0156 L1274.5,1054.0156 L1264.5,1044.0156 " fill="#FEFFDD" style="stroke:#181818;stroke-width:0.5;"/><text fill="#000000" font-family="sans-serif" font-size="13" lengthAdjust="spacing" textLength="311" x="948.5" y="1062.5107">Save current host network configuration to the storage</text><path d="M942.5,1080.3672 L942.5,1106.7188 A0,0 0 0 0 942.5,1106.7188 L1298.5,1106.7188 A0,0 0 0 0 1298.5,1106.7188 L1298.5,1098.3672 L1343,1066.0078 L1298.5,1090.3672 L1298.5,1090.3672 L1288.5,1080.3672 L942.5,1080.3672 A0,0 0 0 0 942.5,1080.3672 " fill="#FEFFDD" style="stroke:#181818;stroke-width:0.5;"/><path d="M1288.5,1080.3672 L1288.5,1090.3672 L1298.5,1090.3672 L1288.5,1080.3672 " fill="#FEFFDD" style="stroke:#181818;stroke-width:0.5;"/><text fill="#000000" font-family="sans-serif" font-size="13" lengthAdjust="spacing" textLength="335" x="948.5" y="1098.8623">Restore and apply host network configuration from backup</text><path d="M942.5,1116.7188 L942.5,1143.0703 A0,0 0 0 0 942.5,1143.0703 L1303.5,1143.0703 A0,0 0 0 0 1303.5,1143.0703 L1303.5,1134.7188 L1343,1091.6172 L1303.5,1126.7188 L1303.5,1126.7188 L1293.5,1116.7188 L942.5,1116.7188 A0,0 0 0 0 942.5,1116.7188 " fill="#FEFFDD" style="stroke:#181818;stroke-width:0.5;"/><path d="M1293.5,1116.7188 L1293.5,1126.7188 L1303.5,1126.7188 L1293.5,1116.7188 " fill="#FEFFDD" style="stroke:#181818;stroke-width:0.5;"/><text fill="#000000" font-family="sans-serif" font-size="13" lengthAdjust="spacing" textLength="340" x="948.5" y="1135.2139">Reset all applied changes to state from saved configuration</text><path d="M942.5,1153.0703 L942.5,1179.4219 A0,0 0 0 0 942.5,1179.4219 L1166.5,1179.4219 A0,0 0 0 0 1166.5,1179.4219 L1166.5,1171.0703 L1343,1117.2266 L1166.5,1163.0703 L1166.5,1163.0703 L1156.5,1153.0703 L942.5,1153.0703 A0,0 0 0 0 942.5,1153.0703 " fill="#FEFFDD" style="stroke:#181818;stroke-width:0.5;"/><path d="M1156.5,1153.0703 L1156.5,1163.0703 L1166.5,1163.0703 L1156.5,1153.0703 " fill="#FEFFDD" style="stroke:#181818;stroke-width:0.5;"/><text fill="#000000" font-family="sans-serif" font-size="13" lengthAdjust="spacing" textLength="203" x="948.5" y="1171.5654">Gets a flag about unsaved changes</text><!--MD5=[de944ecaefb171a2f705a3207091d9ac]
class IHostNetworkConfigStorage--><g id="elem_IHostNetworkConfigStorage"><rect codeLine="5" fill="#F1F1F1" height="108.8281" id="IHostNetworkConfigStorage" rx="2.5" ry="2.5" style="stroke:#181818;stroke-width:0.5;" width="369" x="538.5" y="880.5"/><ellipse cx="630.75" cy="896.5" fill="#B4A7E5" rx="11" ry="11" style="stroke:#181818;stroke-width:1.0;"/><path d="M631.7031,893.1406 L631.7031,899.7969 L633.4219,899.7969 Q634.0313,899.7969 634.2969,900.0313 Q634.5625,900.2656 634.5625,900.6563 Q634.5625,901.0313 634.2969,901.2656 Q634.0313,901.5 633.4219,901.5 L628.2813,901.5 Q627.6719,901.5 627.4063,901.2656 Q627.1406,901.0313 627.1406,900.6406 Q627.1406,900.2656 627.4063,900.0313 Q627.6719,899.7969 628.2813,899.7969 L630,899.7969 L630,893.1406 L628.2813,893.1406 Q627.6719,893.1406 627.4063,892.9063 Q627.1406,892.6719 627.1406,892.2813 Q627.1406,891.9063 627.4063,891.6719 Q627.6719,891.4375 628.2813,891.4375 L633.4219,891.4375 Q634.0313,891.4375 634.2969,891.6719 Q634.5625,891.9063 634.5625,892.2813 Q634.5625,892.6719 634.2969,892.9063 Q634.0313,893.1406 633.4219,893.1406 L631.7031,893.1406 Z " fill="#000000"/><text fill="#000000" font-family="sans-serif" font-size="14" font-style="italic" lengthAdjust="spacing" textLength="176" x="651.25" y="902.2285">IHostNetworkConfigStorage</text><line style="stroke:#181818;stroke-width:0.5;" x1="539.5" x2="906.5" y1="912.5" y2="912.5"/><ellipse cx="549.5" cy="923.5" fill="#84BE84" rx="3" ry="3" style="stroke:#038048;stroke-width:1.0;"/><text fill="#000000" font-family="sans-serif" font-size="14" lengthAdjust="spacing" textLength="329" x="558.5" y="931.0332">SaveConfig(config domain.HostNetworkConfig) error</text><line style="stroke:#181818;stroke-width:1.0;" x1="539.5" x2="906.5" y1="938.1094" y2="938.1094"/><ellipse cx="549.5" cy="949.1094" fill="#84BE84" rx="3" ry="3" style="stroke:#038048;stroke-width:1.0;"/><text fill="#000000" font-family="sans-serif" font-size="14" lengthAdjust="spacing" textLength="296" x="558.5" y="956.6426">GetConfig() (domain.HostNetworkConfig, error)</text><line style="stroke:#181818;stroke-width:1.0;" x1="539.5" x2="906.5" y1="963.7188" y2="963.7188"/><ellipse cx="549.5" cy="974.7188" fill="#84BE84" rx="3" ry="3" style="stroke:#038048;stroke-width:1.0;"/><text fill="#000000" font-family="sans-serif" font-size="14" lengthAdjust="spacing" textLength="343" x="558.5" y="982.252">GetBackupConfig() (domain.HostNetworkConfig, error)</text></g><!--MD5=[89e1dc34da2012e40760b5430ce1f530]
class HostNetworkService--><g id="elem_HostNetworkService"><rect codeLine="12" fill="#F1F1F1" height="313.7031" id="HostNetworkService" rx="2.5" ry="2.5" style="stroke:#181818;stroke-width:0.5;" width="757" x="1738.5" y="778.5"/><ellipse cx="2050.25" cy="794.5" fill="#ADD1B2" rx="11" ry="11" style="stroke:#181818;stroke-width:1.0;"/><path d="M2053.0156,790.375 Q2053.1719,790.1563 2053.3594,790.0469 Q2053.5469,789.9375 2053.7656,789.9375 Q2054.1406,789.9375 2054.375,790.2031 Q2054.6094,790.4531 2054.6094,791.0625 L2054.6094,792.5156 Q2054.6094,793.125 2054.375,793.3906 Q2054.1406,793.6563 2053.7656,793.6563 Q2053.4219,793.6563 2053.2188,793.4531 Q2053.0156,793.2656 2052.9063,792.75 Q2052.8594,792.3906 2052.6719,792.2031 Q2052.3438,791.8281 2051.7344,791.6094 Q2051.125,791.3906 2050.5,791.3906 Q2049.7344,791.3906 2049.0938,791.7188 Q2048.4688,792.0469 2047.9688,792.7969 Q2047.4844,793.5469 2047.4844,794.5781 L2047.4844,795.6719 Q2047.4844,796.9063 2048.375,797.7344 Q2049.2656,798.5469 2050.8594,798.5469 Q2051.7969,798.5469 2052.4531,798.2969 Q2052.8438,798.1406 2053.2656,797.7031 Q2053.5313,797.4375 2053.6719,797.3594 Q2053.8281,797.2813 2054.0313,797.2813 Q2054.3594,797.2813 2054.6094,797.5469 Q2054.875,797.7969 2054.875,798.1406 Q2054.875,798.4844 2054.5313,798.8906 Q2054.0313,799.4688 2053.2344,799.7969 Q2052.1563,800.25 2050.8594,800.25 Q2049.3438,800.25 2048.1406,799.625 Q2047.1563,799.125 2046.4688,798.0625 Q2045.7813,796.9844 2045.7813,795.7031 L2045.7813,794.5469 Q2045.7813,793.2188 2046.3906,792.0781 Q2047.0156,790.9219 2048.1094,790.3125 Q2049.2031,789.6875 2050.4375,789.6875 Q2051.1719,789.6875 2051.8125,789.8594 Q2052.4688,790.0156 2053.0156,790.375 Z " fill="#000000"/><text fill="#000000" font-family="sans-serif" font-size="14" lengthAdjust="spacing" textLength="125" x="2070.75" y="800.2285">HostNetworkService</text><line style="stroke:#181818;stroke-width:0.5;" x1="1739.5" x2="2494.5" y1="810.5" y2="810.5"/><rect fill="none" height="6" style="stroke:#C82930;stroke-width:1.0;" width="6" x="1746.5" y="818.5"/><text fill="#000000" font-family="sans-serif" font-size="14" lengthAdjust="spacing" textLength="197" x="1758.5" y="829.0332">manager IHostNetworkManager</text><line style="stroke:#181818;stroke-width:1.0;" x1="1739.5" x2="2494.5" y1="836.1094" y2="836.1094"/><ellipse cx="1749.5" cy="847.1094" fill="#84BE84" rx="3" ry="3" style="stroke:#038048;stroke-width:1.0;"/><text fill="#000000" font-family="sans-serif" font-size="14" lengthAdjust="spacing" textLength="272" x="1758.5" y="854.6426">GetVlanList() ([]HostNetworkVlanDto, error)</text><line style="stroke:#181818;stroke-width:1.0;" x1="1739.5" x2="2494.5" y1="861.7188" y2="861.7188"/><ellipse cx="1749.5" cy="872.7188" fill="#84BE84" rx="3" ry="3" style="stroke:#038048;stroke-width:1.0;"/><text fill="#000000" font-family="sans-serif" font-size="14" lengthAdjust="spacing" textLength="368" x="1758.5" y="880.252">GetVlanByName(name string) (HostNetworkVlanDto, error)</text><line style="stroke:#181818;stroke-width:1.0;" x1="1739.5" x2="2494.5" y1="887.3281" y2="887.3281"/><ellipse cx="1749.5" cy="898.3281" fill="#84BE84" rx="3" ry="3" style="stroke:#038048;stroke-width:1.0;"/><text fill="#000000" font-family="sans-serif" font-size="14" lengthAdjust="spacing" textLength="499" x="1758.5" y="905.8613">CreateVlan(createDto HostNetworkVlanCreateDto) (HostNetworkVlanDto, error)</text><line style="stroke:#181818;stroke-width:1.0;" x1="1739.5" x2="2494.5" y1="912.9375" y2="912.9375"/><ellipse cx="1749.5" cy="923.9375" fill="#84BE84" rx="3" ry="3" style="stroke:#038048;stroke-width:1.0;"/><text fill="#000000" font-family="sans-serif" font-size="14" lengthAdjust="spacing" textLength="589" x="1758.5" y="931.4707">UpdateVlan(name string, updateDto HostNetworkVlanUpdateDto) (HostNetworkVlanDto, error)</text><line style="stroke:#181818;stroke-width:1.0;" x1="1739.5" x2="2494.5" y1="938.5469" y2="938.5469"/><ellipse cx="1749.5" cy="949.5469" fill="#84BE84" rx="3" ry="3" style="stroke:#038048;stroke-width:1.0;"/><text fill="#000000" font-family="sans-serif" font-size="14" lengthAdjust="spacing" textLength="188" x="1758.5" y="957.0801">DeleteVlan(name string) error</text><line style="stroke:#181818;stroke-width:1.0;" x1="1739.5" x2="2494.5" y1="964.1563" y2="964.1563"/><ellipse cx="1749.5" cy="975.1563" fill="#84BE84" rx="3" ry="3" style="stroke:#038048;stroke-width:1.0;"/><text fill="#000000" font-family="sans-serif" font-size="14" lengthAdjust="spacing" textLength="298" x="1758.5" y="982.6895">GetBridgeList() ([]HostNetworkBridgeDto, error)</text><line style="stroke:#181818;stroke-width:1.0;" x1="1739.5" x2="2494.5" y1="989.7656" y2="989.7656"/><ellipse cx="1749.5" cy="1000.7656" fill="#84BE84" rx="3" ry="3" style="stroke:#038048;stroke-width:1.0;"/><text fill="#000000" font-family="sans-serif" font-size="14" lengthAdjust="spacing" textLength="425" x="1758.5" y="1008.2988">GetBridgeByName(name string) (dtos.HostNetworkBridgeDto, error)</text><line style="stroke:#181818;stroke-width:1.0;" x1="1739.5" x2="2494.5" y1="1015.375" y2="1015.375"/><ellipse cx="1749.5" cy="1026.375" fill="#84BE84" rx="3" ry="3" style="stroke:#038048;stroke-width:1.0;"/><text fill="#000000" font-family="sans-serif" font-size="14" lengthAdjust="spacing" textLength="600" x="1758.5" y="1033.9082">CreateBridge(createDto dtos.HostNetworkBridgeCreateDto) (dtos.HostNetworkBridgeDto, error)</text><line style="stroke:#181818;stroke-width:1.0;" x1="1739.5" x2="2494.5" y1="1040.9844" y2="1040.9844"/><ellipse cx="1749.5" cy="1051.9844" fill="#84BE84" rx="3" ry="3" style="stroke:#038048;stroke-width:1.0;"/><text fill="#000000" font-family="sans-serif" font-size="14" lengthAdjust="spacing" textLength="731" x="1758.5" y="1059.5176">UpdateBridge(bridgeName string, updateDto dtos.HostNetworkBridgeUpdateDto) (dtos.HostNetworkBridgeDto, error)</text><line style="stroke:#181818;stroke-width:1.0;" x1="1739.5" x2="2494.5" y1="1066.5938" y2="1066.5938"/><ellipse cx="1749.5" cy="1077.5938" fill="#84BE84" rx="3" ry="3" style="stroke:#038048;stroke-width:1.0;"/><text fill="#000000" font-family="sans-serif" font-size="14" lengthAdjust="spacing" textLength="242" x="1758.5" y="1085.127">DeleteBridge(bridgeName string) error</text></g><path d="M2538.5,753 L2538.5,762.1758 L2030.5,848.9141 L2538.5,770.1758 L2538.5,779.3516 A0,0 0 0 0 2538.5,779.3516 L2782.5,779.3516 A0,0 0 0 0 2782.5,779.3516 L2782.5,763 L2772.5,753 L2538.5,753 A0,0 0 0 0 2538.5,753 " fill="#FEFFDD" style="stroke:#181818;stroke-width:0.5;"/><path d="M2772.5,753 L2772.5,763 L2782.5,763 L2772.5,753 " fill="#FEFFDD" style="stroke:#181818;stroke-width:0.5;"/><text fill="#000000" font-family="sans-serif" font-size="13" lengthAdjust="spacing" textLength="223" x="2544.5" y="771.4951">Get list of VLAN interfaces on the host</text><path d="M2538.5,789.3516 L2538.5,798.5273 L2126.5,874.5234 L2538.5,806.5273 L2538.5,815.7031 A0,0 0 0 0 2538.5,815.7031 L2727.5,815.7031 A0,0 0 0 0 2727.5,815.7031 L2727.5,799.3516 L2717.5,789.3516 L2538.5,789.3516 A0,0 0 0 0 2538.5,789.3516 " fill="#FEFFDD" style="stroke:#181818;stroke-width:0.5;"/><path d="M2717.5,789.3516 L2717.5,799.3516 L2727.5,799.3516 L2717.5,789.3516 " fill="#FEFFDD" style="stroke:#181818;stroke-width:0.5;"/><text fill="#000000" font-family="sans-serif" font-size="13" lengthAdjust="spacing" textLength="168" x="2544.5" y="807.8467">Get VLAN interface by Name</text><path d="M2538.5,825.7031 L2538.5,834.8789 L2257.5,900.1328 L2538.5,842.8789 L2538.5,852.0547 A0,0 0 0 0 2538.5,852.0547 L2784.5,852.0547 A0,0 0 0 0 2784.5,852.0547 L2784.5,835.7031 L2774.5,825.7031 L2538.5,825.7031 A0,0 0 0 0 2538.5,825.7031 " fill="#FEFFDD" style="stroke:#181818;stroke-width:0.5;"/><path d="M2774.5,825.7031 L2774.5,835.7031 L2784.5,835.7031 L2774.5,825.7031 " fill="#FEFFDD" style="stroke:#181818;stroke-width:0.5;"/><text fill="#000000" font-family="sans-serif" font-size="13" lengthAdjust="spacing" textLength="225" x="2544.5" y="844.1982">Create new VLAN interface on the host</text><path d="M2538.5,862.0547 L2538.5,871.2305 L2347.5,925.7422 L2538.5,879.2305 L2538.5,888.4063 A0,0 0 0 0 2538.5,888.4063 L2760.5,888.4063 A0,0 0 0 0 2760.5,888.4063 L2760.5,872.0547 L2750.5,862.0547 L2538.5,862.0547 A0,0 0 0 0 2538.5,862.0547 " fill="#FEFFDD" style="stroke:#181818;stroke-width:0.5;"/><path d="M2750.5,862.0547 L2750.5,872.0547 L2760.5,872.0547 L2750.5,862.0547 " fill="#FEFFDD" style="stroke:#181818;stroke-width:0.5;"/><text fill="#000000" font-family="sans-serif" font-size="13" lengthAdjust="spacing" textLength="201" x="2544.5" y="880.5498">Update VLAN interface on the host</text><path d="M2538.5,898.4063 L2538.5,907.582 L1946.5,951.3516 L2538.5,915.582 L2538.5,924.7578 A0,0 0 0 0 2538.5,924.7578 L2745.5,924.7578 A0,0 0 0 0 2745.5,924.7578 L2745.5,908.4063 L2735.5,898.4063 L2538.5,898.4063 A0,0 0 0 0 2538.5,898.4063 " fill="#FEFFDD" style="stroke:#181818;stroke-width:0.5;"/><path d="M2735.5,898.4063 L2735.5,908.4063 L2745.5,908.4063 L2735.5,898.4063 " fill="#FEFFDD" style="stroke:#181818;stroke-width:0.5;"/><text fill="#000000" font-family="sans-serif" font-size="13" lengthAdjust="spacing" textLength="186" x="2544.5" y="916.9014">Delete VLAN interface from host</text><path d="M2538.5,934.7578 L2538.5,943.9336 L2056.5,976.9609 L2538.5,951.9336 L2538.5,961.1094 A0,0 0 0 0 2538.5,961.1094 L2783.5,961.1094 A0,0 0 0 0 2783.5,961.1094 L2783.5,944.7578 L2773.5,934.7578 L2538.5,934.7578 A0,0 0 0 0 2538.5,934.7578 " fill="#FEFFDD" style="stroke:#181818;stroke-width:0.5;"/><path d="M2773.5,934.7578 L2773.5,944.7578 L2783.5,944.7578 L2773.5,934.7578 " fill="#FEFFDD" style="stroke:#181818;stroke-width:0.5;"/><text fill="#000000" font-family="sans-serif" font-size="13" lengthAdjust="spacing" textLength="224" x="2544.5" y="953.2529">Get list of bridge interfaces on the host</text><path d="M2538.5,971.1094 L2538.5,980.2852 L2183.5,1002.5703 L2538.5,988.2852 L2538.5,997.4609 A0,0 0 0 0 2538.5,997.4609 L2728.5,997.4609 A0,0 0 0 0 2728.5,997.4609 L2728.5,981.1094 L2718.5,971.1094 L2538.5,971.1094 A0,0 0 0 0 2538.5,971.1094 " fill="#FEFFDD" style="stroke:#181818;stroke-width:0.5;"/><path d="M2718.5,971.1094 L2718.5,981.1094 L2728.5,981.1094 L2718.5,971.1094 " fill="#FEFFDD" style="stroke:#181818;stroke-width:0.5;"/><text fill="#000000" font-family="sans-serif" font-size="13" lengthAdjust="spacing" textLength="169" x="2544.5" y="989.6045">Get bridge interface by Name</text><path d="M2538.5,1007.4609 L2538.5,1016.6367 L2358.5,1028.1797 L2538.5,1024.6367 L2538.5,1033.8125 A0,0 0 0 0 2538.5,1033.8125 L2785.5,1033.8125 A0,0 0 0 0 2785.5,1033.8125 L2785.5,1017.4609 L2775.5,1007.4609 L2538.5,1007.4609 A0,0 0 0 0 2538.5,1007.4609 " fill="#FEFFDD" style="stroke:#181818;stroke-width:0.5;"/><path d="M2775.5,1007.4609 L2775.5,1017.4609 L2785.5,1017.4609 L2775.5,1007.4609 " fill="#FEFFDD" style="stroke:#181818;stroke-width:0.5;"/><text fill="#000000" font-family="sans-serif" font-size="13" lengthAdjust="spacing" textLength="226" x="2544.5" y="1025.9561">Create new bridge interface on the host</text><path d="M2538.5,1043.8125 L2538.5,1052.9883 L2489.5,1053.7891 L2538.5,1060.9883 L2538.5,1070.1641 A0,0 0 0 0 2538.5,1070.1641 L2761.5,1070.1641 A0,0 0 0 0 2761.5,1070.1641 L2761.5,1053.8125 L2751.5,1043.8125 L2538.5,1043.8125 A0,0 0 0 0 2538.5,1043.8125 " fill="#FEFFDD" style="stroke:#181818;stroke-width:0.5;"/><path d="M2751.5,1043.8125 L2751.5,1053.8125 L2761.5,1053.8125 L2751.5,1043.8125 " fill="#FEFFDD" style="stroke:#181818;stroke-width:0.5;"/><text fill="#000000" font-family="sans-serif" font-size="13" lengthAdjust="spacing" textLength="202" x="2544.5" y="1062.3076">Update bridge interface on the host</text><path d="M2538.5,1080.1641 L2538.5,1089.3398 L2000.5,1079.3984 L2538.5,1097.3398 L2538.5,1106.5156 A0,0 0 0 0 2538.5,1106.5156 L2746.5,1106.5156 A0,0 0 0 0 2746.5,1106.5156 L2746.5,1090.1641 L2736.5,1080.1641 L2538.5,1080.1641 A0,0 0 0 0 2538.5,1080.1641 " fill="#FEFFDD" style="stroke:#181818;stroke-width:0.5;"/><path d="M2736.5,1080.1641 L2736.5,1090.1641 L2746.5,1090.1641 L2736.5,1080.1641 " fill="#FEFFDD" style="stroke:#181818;stroke-width:0.5;"/><text fill="#000000" font-family="sans-serif" font-size="13" lengthAdjust="spacing" textLength="187" x="2544.5" y="1098.6592">Delete bridge interface from host</text><!--MD5=[e5fff6262f684687265fbe09f1b48075]
class HostNetworkLink--><g id="elem_HostNetworkLink"><rect codeLine="5" fill="#F1F1F1" height="108.8281" id="HostNetworkLink" rx="2.5" ry="2.5" style="stroke:#181818;stroke-width:0.5;" width="162" x="325" y="441"/><ellipse cx="351.7" cy="457" fill="#ADD1B2" rx="11" ry="11" style="stroke:#181818;stroke-width:1.0;"/><path d="M354.4656,452.875 Q354.6219,452.6563 354.8094,452.5469 Q354.9969,452.4375 355.2156,452.4375 Q355.5906,452.4375 355.825,452.7031 Q356.0594,452.9531 356.0594,453.5625 L356.0594,455.0156 Q356.0594,455.625 355.825,455.8906 Q355.5906,456.1563 355.2156,456.1563 Q354.8719,456.1563 354.6688,455.9531 Q354.4656,455.7656 354.3563,455.25 Q354.3094,454.8906 354.1219,454.7031 Q353.7938,454.3281 353.1844,454.1094 Q352.575,453.8906 351.95,453.8906 Q351.1844,453.8906 350.5438,454.2188 Q349.9188,454.5469 349.4188,455.2969 Q348.9344,456.0469 348.9344,457.0781 L348.9344,458.1719 Q348.9344,459.4063 349.825,460.2344 Q350.7156,461.0469 352.3094,461.0469 Q353.2469,461.0469 353.9031,460.7969 Q354.2938,460.6406 354.7156,460.2031 Q354.9813,459.9375 355.1219,459.8594 Q355.2781,459.7813 355.4813,459.7813 Q355.8094,459.7813 356.0594,460.0469 Q356.325,460.2969 356.325,460.6406 Q356.325,460.9844 355.9813,461.3906 Q355.4813,461.9688 354.6844,462.2969 Q353.6063,462.75 352.3094,462.75 Q350.7938,462.75 349.5906,462.125 Q348.6063,461.625 347.9188,460.5625 Q347.2313,459.4844 347.2313,458.2031 L347.2313,457.0469 Q347.2313,455.7188 347.8406,454.5781 Q348.4656,453.4219 349.5594,452.8125 Q350.6531,452.1875 351.8875,452.1875 Q352.6219,452.1875 353.2625,452.3594 Q353.9188,452.5156 354.4656,452.875 Z " fill="#000000"/><text fill="#000000" font-family="sans-serif" font-size="14" lengthAdjust="spacing" textLength="104" x="368.3" y="462.7285">HostNetworkLink</text><line style="stroke:#181818;stroke-width:0.5;" x1="326" x2="486" y1="473" y2="473"/><ellipse cx="336" cy="484" fill="none" rx="3" ry="3" style="stroke:#038048;stroke-width:1.0;"/><text fill="#000000" font-family="sans-serif" font-size="14" lengthAdjust="spacing" textLength="75" x="345" y="491.5332">Name string</text><line style="stroke:#181818;stroke-width:1.0;" x1="326" x2="486" y1="498.6094" y2="498.6094"/><ellipse cx="336" cy="509.6094" fill="none" rx="3" ry="3" style="stroke:#038048;stroke-width:1.0;"/><text fill="#000000" font-family="sans-serif" font-size="14" lengthAdjust="spacing" textLength="136" x="345" y="517.1426">Addresses []net.IPNet</text><line style="stroke:#181818;stroke-width:1.0;" x1="326" x2="486" y1="524.2188" y2="524.2188"/><ellipse cx="336" cy="535.2188" fill="none" rx="3" ry="3" style="stroke:#038048;stroke-width:1.0;"/><text fill="#000000" font-family="sans-serif" font-size="14" lengthAdjust="spacing" textLength="71" x="345" y="542.752">Type string</text></g><path d="M22.5,451 L22.5,477.3516 A0,0 0 0 0 22.5,477.3516 L257.5,477.3516 A0,0 0 0 0 257.5,477.3516 L257.5,469 L329,485.8047 L257.5,461 L257.5,461 L247.5,451 L22.5,451 A0,0 0 0 0 22.5,451 " fill="#FEFFDD" style="stroke:#181818;stroke-width:0.5;"/><path d="M247.5,451 L247.5,461 L257.5,461 L247.5,451 " fill="#FEFFDD" style="stroke:#181818;stroke-width:0.5;"/><text fill="#000000" font-family="sans-serif" font-size="13" lengthAdjust="spacing" textLength="214" x="28.5" y="469.4951">Unique name of the network interface</text><path d="M22.5,487.3516 L22.5,530.0547 A0,0 0 0 0 22.5,530.0547 L289.5,530.0547 A0,0 0 0 0 289.5,530.0547 L289.5,512.7031 L329,537.0234 L289.5,504.7031 L289.5,497.3516 L279.5,487.3516 L22.5,487.3516 A0,0 0 0 0 22.5,487.3516 " fill="#FEFFDD" style="stroke:#181818;stroke-width:0.5;"/><path d="M279.5,487.3516 L279.5,497.3516 L289.5,497.3516 L279.5,487.3516 " fill="#FEFFDD" style="stroke:#181818;stroke-width:0.5;"/><text fill="#000000" font-family="sans-serif" font-size="13" lengthAdjust="spacing" textLength="129" x="28.5" y="505.8467">Default value is "none"</text><text fill="#000000" font-family="sans-serif" font-size="13" lengthAdjust="spacing" textLength="246" x="28.5" y="522.1982">because HostNetworkLink is a basic class</text><!--MD5=[b17b81604319b97b33af23212dfcf2f4]
class HostNetworkDevice--><g id="elem_HostNetworkDevice"><rect codeLine="5" fill="#F1F1F1" height="48" id="HostNetworkDevice" rx="2.5" ry="2.5" style="stroke:#181818;stroke-width:0.5;" width="153" x="603.5" y="253.5"/><ellipse cx="618.5" cy="269.5" fill="#ADD1B2" rx="11" ry="11" style="stroke:#181818;stroke-width:1.0;"/><path d="M621.2656,265.375 Q621.4219,265.1563 621.6094,265.0469 Q621.7969,264.9375 622.0156,264.9375 Q622.3906,264.9375 622.625,265.2031 Q622.8594,265.4531 622.8594,266.0625 L622.8594,267.5156 Q622.8594,268.125 622.625,268.3906 Q622.3906,268.6563 622.0156,268.6563 Q621.6719,268.6563 621.4688,268.4531 Q621.2656,268.2656 621.1563,267.75 Q621.1094,267.3906 620.9219,267.2031 Q620.5938,266.8281 619.9844,266.6094 Q619.375,266.3906 618.75,266.3906 Q617.9844,266.3906 617.3438,266.7188 Q616.7188,267.0469 616.2188,267.7969 Q615.7344,268.5469 615.7344,269.5781 L615.7344,270.6719 Q615.7344,271.9063 616.625,272.7344 Q617.5156,273.5469 619.1094,273.5469 Q620.0469,273.5469 620.7031,273.2969 Q621.0938,273.1406 621.5156,272.7031 Q621.7813,272.4375 621.9219,272.3594 Q622.0781,272.2813 622.2813,272.2813 Q622.6094,272.2813 622.8594,272.5469 Q623.125,272.7969 623.125,273.1406 Q623.125,273.4844 622.7813,273.8906 Q622.2813,274.4688 621.4844,274.7969 Q620.4063,275.25 619.1094,275.25 Q617.5938,275.25 616.3906,274.625 Q615.4063,274.125 614.7188,273.0625 Q614.0313,271.9844 614.0313,270.7031 L614.0313,269.5469 Q614.0313,268.2188 614.6406,267.0781 Q615.2656,265.9219 616.3594,265.3125 Q617.4531,264.6875 618.6875,264.6875 Q619.4219,264.6875 620.0625,264.8594 Q620.7188,265.0156 621.2656,265.375 Z " fill="#000000"/><text fill="#000000" font-family="sans-serif" font-size="14" lengthAdjust="spacing" textLength="121" x="632.5" y="275.2285">HostNetworkDevice</text><line style="stroke:#181818;stroke-width:0.5;" x1="604.5" x2="755.5" y1="285.5" y2="285.5"/><line style="stroke:#181818;stroke-width:0.5;" x1="604.5" x2="755.5" y1="293.5" y2="293.5"/></g><!--MD5=[7708bf2b3811a61fdbad496487474248]
class HostNetworkVlan--><g id="elem_HostNetworkVlan"><rect codeLine="5" fill="#F1F1F1" height="83.2188" id="HostNetworkVlan" rx="2.5" ry="2.5" style="stroke:#181818;stroke-width:0.5;" width="138" x="209" y="236"/><ellipse cx="224" cy="252" fill="#ADD1B2" rx="11" ry="11" style="stroke:#181818;stroke-width:1.0;"/><path d="M226.7656,247.875 Q226.9219,247.6563 227.1094,247.5469 Q227.2969,247.4375 227.5156,247.4375 Q227.8906,247.4375 228.125,247.7031 Q228.3594,247.9531 228.3594,248.5625 L228.3594,250.0156 Q228.3594,250.625 228.125,250.8906 Q227.8906,251.1563 227.5156,251.1563 Q227.1719,251.1563 226.9688,250.9531 Q226.7656,250.7656 226.6563,250.25 Q226.6094,249.8906 226.4219,249.7031 Q226.0938,249.3281 225.4844,249.1094 Q224.875,248.8906 224.25,248.8906 Q223.4844,248.8906 222.8438,249.2188 Q222.2188,249.5469 221.7188,250.2969 Q221.2344,251.0469 221.2344,252.0781 L221.2344,253.1719 Q221.2344,254.4063 222.125,255.2344 Q223.0156,256.0469 224.6094,256.0469 Q225.5469,256.0469 226.2031,255.7969 Q226.5938,255.6406 227.0156,255.2031 Q227.2813,254.9375 227.4219,254.8594 Q227.5781,254.7813 227.7813,254.7813 Q228.1094,254.7813 228.3594,255.0469 Q228.625,255.2969 228.625,255.6406 Q228.625,255.9844 228.2813,256.3906 Q227.7813,256.9688 226.9844,257.2969 Q225.9063,257.75 224.6094,257.75 Q223.0938,257.75 221.8906,257.125 Q220.9063,256.625 220.2188,255.5625 Q219.5313,254.4844 219.5313,253.2031 L219.5313,252.0469 Q219.5313,250.7188 220.1406,249.5781 Q220.7656,248.4219 221.8594,247.8125 Q222.9531,247.1875 224.1875,247.1875 Q224.9219,247.1875 225.5625,247.3594 Q226.2188,247.5156 226.7656,247.875 Z " fill="#000000"/><text fill="#000000" font-family="sans-serif" font-size="14" lengthAdjust="spacing" textLength="106" x="238" y="257.7285">HostNetworkVlan</text><line style="stroke:#181818;stroke-width:0.5;" x1="210" x2="346" y1="268" y2="268"/><ellipse cx="220" cy="279" fill="none" rx="3" ry="3" style="stroke:#038048;stroke-width:1.0;"/><text fill="#000000" font-family="sans-serif" font-size="14" lengthAdjust="spacing" textLength="60" x="229" y="286.5332">VlanID int</text><line style="stroke:#181818;stroke-width:1.0;" x1="210" x2="346" y1="293.6094" y2="293.6094"/><ellipse cx="220" cy="304.6094" fill="none" rx="3" ry="3" style="stroke:#038048;stroke-width:1.0;"/><text fill="#000000" font-family="sans-serif" font-size="14" lengthAdjust="spacing" textLength="81" x="229" y="312.1426">Parent string</text></g><!--MD5=[bd56b3e5eb0134b68fc9951038656522]
class HostNetworkBridge--><g id="elem_HostNetworkBridge"><rect codeLine="5" fill="#F1F1F1" height="83.2188" id="HostNetworkBridge" rx="2.5" ry="2.5" style="stroke:#181818;stroke-width:0.5;" width="151" x="22.5" y="236"/><ellipse cx="37.5" cy="252" fill="#ADD1B2" rx="11" ry="11" style="stroke:#181818;stroke-width:1.0;"/><path d="M40.2656,247.875 Q40.4219,247.6563 40.6094,247.5469 Q40.7969,247.4375 41.0156,247.4375 Q41.3906,247.4375 41.625,247.7031 Q41.8594,247.9531 41.8594,248.5625 L41.8594,250.0156 Q41.8594,250.625 41.625,250.8906 Q41.3906,251.1563 41.0156,251.1563 Q40.6719,251.1563 40.4688,250.9531 Q40.2656,250.7656 40.1563,250.25 Q40.1094,249.8906 39.9219,249.7031 Q39.5938,249.3281 38.9844,249.1094 Q38.375,248.8906 37.75,248.8906 Q36.9844,248.8906 36.3438,249.2188 Q35.7188,249.5469 35.2188,250.2969 Q34.7344,251.0469 34.7344,252.0781 L34.7344,253.1719 Q34.7344,254.4063 35.625,255.2344 Q36.5156,256.0469 38.1094,256.0469 Q39.0469,256.0469 39.7031,255.7969 Q40.0938,255.6406 40.5156,255.2031 Q40.7813,254.9375 40.9219,254.8594 Q41.0781,254.7813 41.2813,254.7813 Q41.6094,254.7813 41.8594,255.0469 Q42.125,255.2969 42.125,255.6406 Q42.125,255.9844 41.7813,256.3906 Q41.2813,256.9688 40.4844,257.2969 Q39.4063,257.75 38.1094,257.75 Q36.5938,257.75 35.3906,257.125 Q34.4063,256.625 33.7188,255.5625 Q33.0313,254.4844 33.0313,253.2031 L33.0313,252.0469 Q33.0313,250.7188 33.6406,249.5781 Q34.2656,248.4219 35.3594,247.8125 Q36.4531,247.1875 37.6875,247.1875 Q38.4219,247.1875 39.0625,247.3594 Q39.7188,247.5156 40.2656,247.875 Z " fill="#000000"/><text fill="#000000" font-family="sans-serif" font-size="14" lengthAdjust="spacing" textLength="119" x="51.5" y="257.7285">HostNetworkBridge</text><line style="stroke:#181818;stroke-width:0.5;" x1="23.5" x2="172.5" y1="268" y2="268"/><ellipse cx="33.5" cy="279" fill="none" rx="3" ry="3" style="stroke:#038048;stroke-width:1.0;"/><text fill="#000000" font-family="sans-serif" font-size="14" lengthAdjust="spacing" textLength="89" x="42.5" y="286.5332">Slaves []string</text><line style="stroke:#181818;stroke-width:1.0;" x1="23.5" x2="172.5" y1="293.6094" y2="293.6094"/><ellipse cx="33.5" cy="304.6094" fill="#84BE84" rx="3" ry="3" style="stroke:#038048;stroke-width:1.0;"/><text fill="#000000" font-family="sans-serif" font-size="14" lengthAdjust="spacing" textLength="122" x="42.5" y="312.1426">GetSlaves() []string</text></g><path d="M382,259.5 L382,268.6758 L164.5,306.4141 L382,276.6758 L382,285.8516 A0,0 0 0 0 382,285.8516 L568,285.8516 A0,0 0 0 0 568,285.8516 L568,269.5 L558,259.5 L382,259.5 A0,0 0 0 0 382,259.5 " fill="#FEFFDD" style="stroke:#181818;stroke-width:0.5;"/><path d="M558,259.5 L558,269.5 L568,269.5 L558,259.5 " fill="#FEFFDD" style="stroke:#181818;stroke-width:0.5;"/><text fill="#000000" font-family="sans-serif" font-size="13" lengthAdjust="spacing" textLength="165" x="388" y="277.9951">Get an array of bridge slaves</text><!--MD5=[58987b0398bdf5010f5174b6a6feac3c]
class HostNetworkConfig--><g id="elem_HostNetworkConfig"><rect codeLine="7" fill="#F1F1F1" height="108.8281" id="HostNetworkConfig" rx="2.5" ry="2.5" style="stroke:#181818;stroke-width:0.5;" width="209" x="172.5" y="55.5"/><ellipse cx="213.6" cy="71.5" fill="#ADD1B2" rx="11" ry="11" style="stroke:#181818;stroke-width:1.0;"/><path d="M216.3656,67.375 Q216.5219,67.1563 216.7094,67.0469 Q216.8969,66.9375 217.1156,66.9375 Q217.4906,66.9375 217.725,67.2031 Q217.9594,67.4531 217.9594,68.0625 L217.9594,69.5156 Q217.9594,70.125 217.725,70.3906 Q217.4906,70.6563 217.1156,70.6563 Q216.7719,70.6563 216.5688,70.4531 Q216.3656,70.2656 216.2563,69.75 Q216.2094,69.3906 216.0219,69.2031 Q215.6938,68.8281 215.0844,68.6094 Q214.475,68.3906 213.85,68.3906 Q213.0844,68.3906 212.4438,68.7188 Q211.8188,69.0469 211.3188,69.7969 Q210.8344,70.5469 210.8344,71.5781 L210.8344,72.6719 Q210.8344,73.9063 211.725,74.7344 Q212.6156,75.5469 214.2094,75.5469 Q215.1469,75.5469 215.8031,75.2969 Q216.1938,75.1406 216.6156,74.7031 Q216.8813,74.4375 217.0219,74.3594 Q217.1781,74.2813 217.3813,74.2813 Q217.7094,74.2813 217.9594,74.5469 Q218.225,74.7969 218.225,75.1406 Q218.225,75.4844 217.8813,75.8906 Q217.3813,76.4688 216.5844,76.7969 Q215.5063,77.25 214.2094,77.25 Q212.6938,77.25 211.4906,76.625 Q210.5063,76.125 209.8188,75.0625 Q209.1313,73.9844 209.1313,72.7031 L209.1313,71.5469 Q209.1313,70.2188 209.7406,69.0781 Q210.3656,67.9219 211.4594,67.3125 Q212.5531,66.6875 213.7875,66.6875 Q214.5219,66.6875 215.1625,66.8594 Q215.8188,67.0156 216.3656,67.375 Z " fill="#000000"/><text fill="#000000" font-family="sans-serif" font-size="14" lengthAdjust="spacing" textLength="119" x="233.4" y="77.2285">HostNetworkConfig</text><line style="stroke:#181818;stroke-width:0.5;" x1="173.5" x2="380.5" y1="87.5" y2="87.5"/><ellipse cx="183.5" cy="98.5" fill="none" rx="3" ry="3" style="stroke:#038048;stroke-width:1.0;"/><text fill="#000000" font-family="sans-serif" font-size="14" lengthAdjust="spacing" textLength="183" x="192.5" y="106.0332">Devices []HostNetworkDevice</text><line style="stroke:#181818;stroke-width:1.0;" x1="173.5" x2="380.5" y1="113.1094" y2="113.1094"/><ellipse cx="183.5" cy="124.1094" fill="none" rx="3" ry="3" style="stroke:#038048;stroke-width:1.0;"/><text fill="#000000" font-family="sans-serif" font-size="14" lengthAdjust="spacing" textLength="161" x="192.5" y="131.6426">Vlans   []HostNetworkVlan</text><line style="stroke:#181818;stroke-width:1.0;" x1="173.5" x2="380.5" y1="138.7188" y2="138.7188"/><ellipse cx="183.5" cy="149.7188" fill="none" rx="3" ry="3" style="stroke:#038048;stroke-width:1.0;"/><text fill="#000000" font-family="sans-serif" font-size="14" lengthAdjust="spacing" textLength="179" x="192.5" y="157.252">Bridges []HostNetworkBridge</text></g><!--MD5=[0ef4b9020a0ab381891be386a00db524]
class YamlHostNetworkConfigStorage--><g id="elem_YamlHostNetworkConfigStorage"><rect codeLine="5" fill="#F1F1F1" height="65.6094" id="YamlHostNetworkConfigStorage" rx="2.5" ry="2.5" style="stroke:#181818;stroke-width:0.5;" width="232" x="1020" y="462.5"/><ellipse cx="1035" cy="478.5" fill="#ADD1B2" rx="11" ry="11" style="stroke:#181818;stroke-width:1.0;"/><path d="M1037.7656,474.375 Q1037.9219,474.1563 1038.1094,474.0469 Q1038.2969,473.9375 1038.5156,473.9375 Q1038.8906,473.9375 1039.125,474.2031 Q1039.3594,474.4531 1039.3594,475.0625 L1039.3594,476.5156 Q1039.3594,477.125 1039.125,477.3906 Q1038.8906,477.6563 1038.5156,477.6563 Q1038.1719,477.6563 1037.9688,477.4531 Q1037.7656,477.2656 1037.6563,476.75 Q1037.6094,476.3906 1037.4219,476.2031 Q1037.0938,475.8281 1036.4844,475.6094 Q1035.875,475.3906 1035.25,475.3906 Q1034.4844,475.3906 1033.8438,475.7188 Q1033.2188,476.0469 1032.7188,476.7969 Q1032.2344,477.5469 1032.2344,478.5781 L1032.2344,479.6719 Q1032.2344,480.9063 1033.125,481.7344 Q1034.0156,482.5469 1035.6094,482.5469 Q1036.5469,482.5469 1037.2031,482.2969 Q1037.5938,482.1406 1038.0156,481.7031 Q1038.2813,481.4375 1038.4219,481.3594 Q1038.5781,481.2813 1038.7813,481.2813 Q1039.1094,481.2813 1039.3594,481.5469 Q1039.625,481.7969 1039.625,482.1406 Q1039.625,482.4844 1039.2813,482.8906 Q1038.7813,483.4688 1037.9844,483.7969 Q1036.9063,484.25 1035.6094,484.25 Q1034.0938,484.25 1032.8906,483.625 Q1031.9063,483.125 1031.2188,482.0625 Q1030.5313,480.9844 1030.5313,479.7031 L1030.5313,478.5469 Q1030.5313,477.2188 1031.1406,476.0781 Q1031.7656,474.9219 1032.8594,474.3125 Q1033.9531,473.6875 1035.1875,473.6875 Q1035.9219,473.6875 1036.5625,473.8594 Q1037.2188,474.0156 1037.7656,474.375 Z " fill="#000000"/><text fill="#000000" font-family="sans-serif" font-size="14" lengthAdjust="spacing" textLength="200" x="1049" y="484.2285">YamlHostNetworkConfigStorage</text><line style="stroke:#181818;stroke-width:0.5;" x1="1021" x2="1251" y1="494.5" y2="494.5"/><rect fill="none" height="6" style="stroke:#C82930;stroke-width:1.0;" width="6" x="1028" y="502.5"/><text fill="#000000" font-family="sans-serif" font-size="14" lengthAdjust="spacing" textLength="129" x="1040" y="513.0332">configFilePath string</text><line style="stroke:#181818;stroke-width:0.5;" x1="1021" x2="1251" y1="520.1094" y2="520.1094"/></g><!--MD5=[9e1d7ce1192ca49e51cccbdad1af1931]
class HostNetworkManager--><g id="elem_HostNetworkManager"><rect codeLine="7" fill="#F1F1F1" height="83.2188" id="HostNetworkManager" rx="2.5" ry="2.5" style="stroke:#181818;stroke-width:0.5;" width="360" x="1295" y="454.5"/><ellipse cx="1403.75" cy="470.5" fill="#ADD1B2" rx="11" ry="11" style="stroke:#181818;stroke-width:1.0;"/><path d="M1406.5156,466.375 Q1406.6719,466.1563 1406.8594,466.0469 Q1407.0469,465.9375 1407.2656,465.9375 Q1407.6406,465.9375 1407.875,466.2031 Q1408.1094,466.4531 1408.1094,467.0625 L1408.1094,468.5156 Q1408.1094,469.125 1407.875,469.3906 Q1407.6406,469.6563 1407.2656,469.6563 Q1406.9219,469.6563 1406.7188,469.4531 Q1406.5156,469.2656 1406.4063,468.75 Q1406.3594,468.3906 1406.1719,468.2031 Q1405.8438,467.8281 1405.2344,467.6094 Q1404.625,467.3906 1404,467.3906 Q1403.2344,467.3906 1402.5938,467.7188 Q1401.9688,468.0469 1401.4688,468.7969 Q1400.9844,469.5469 1400.9844,470.5781 L1400.9844,471.6719 Q1400.9844,472.9063 1401.875,473.7344 Q1402.7656,474.5469 1404.3594,474.5469 Q1405.2969,474.5469 1405.9531,474.2969 Q1406.3438,474.1406 1406.7656,473.7031 Q1407.0313,473.4375 1407.1719,473.3594 Q1407.3281,473.2813 1407.5313,473.2813 Q1407.8594,473.2813 1408.1094,473.5469 Q1408.375,473.7969 1408.375,474.1406 Q1408.375,474.4844 1408.0313,474.8906 Q1407.5313,475.4688 1406.7344,475.7969 Q1405.6563,476.25 1404.3594,476.25 Q1402.8438,476.25 1401.6406,475.625 Q1400.6563,475.125 1399.9688,474.0625 Q1399.2813,472.9844 1399.2813,471.7031 L1399.2813,470.5469 Q1399.2813,469.2188 1399.8906,468.0781 Q1400.5156,466.9219 1401.6094,466.3125 Q1402.7031,465.6875 1403.9375,465.6875 Q1404.6719,465.6875 1405.3125,465.8594 Q1405.9688,466.0156 1406.5156,466.375 Z " fill="#000000"/><text fill="#000000" font-family="sans-serif" font-size="14" lengthAdjust="spacing" textLength="134" x="1424.25" y="476.2285">HostNetworkManager</text><line style="stroke:#181818;stroke-width:0.5;" x1="1296" x2="1654" y1="486.5" y2="486.5"/><rect fill="none" height="6" style="stroke:#C82930;stroke-width:1.0;" width="6" x="1303" y="494.5"/><text fill="#000000" font-family="sans-serif" font-size="14" lengthAdjust="spacing" textLength="334" x="1315" y="505.0332">configStorage  interfaces.IHostNetworkConfigStorage</text><line style="stroke:#181818;stroke-width:1.0;" x1="1296" x2="1654" y1="512.1094" y2="512.1094"/><rect fill="none" height="6" style="stroke:#C82930;stroke-width:1.0;" width="6" x="1303" y="520.1094"/><text fill="#000000" font-family="sans-serif" font-size="14" lengthAdjust="spacing" textLength="166" x="1315" y="530.6426">hasUnsavedChanges bool</text></g><!--MD5=[c7e4cc43295908ecf6708c05e204c116]
class HostNetworkVlanController--><g id="elem_HostNetworkVlanController"><rect codeLine="9" fill="#F1F1F1" height="211.2656" id="HostNetworkVlanController" rx="2.5" ry="2.5" style="stroke:#181818;stroke-width:0.5;" width="261" x="2026.5" y="390.5"/><ellipse cx="2068.95" cy="406.5" fill="#ADD1B2" rx="11" ry="11" style="stroke:#181818;stroke-width:1.0;"/><path d="M2071.7156,402.375 Q2071.8719,402.1563 2072.0594,402.0469 Q2072.2469,401.9375 2072.4656,401.9375 Q2072.8406,401.9375 2073.075,402.2031 Q2073.3094,402.4531 2073.3094,403.0625 L2073.3094,404.5156 Q2073.3094,405.125 2073.075,405.3906 Q2072.8406,405.6563 2072.4656,405.6563 Q2072.1219,405.6563 2071.9188,405.4531 Q2071.7156,405.2656 2071.6063,404.75 Q2071.5594,404.3906 2071.3719,404.2031 Q2071.0438,403.8281 2070.4344,403.6094 Q2069.825,403.3906 2069.2,403.3906 Q2068.4344,403.3906 2067.7938,403.7188 Q2067.1688,404.0469 2066.6688,404.7969 Q2066.1844,405.5469 2066.1844,406.5781 L2066.1844,407.6719 Q2066.1844,408.9063 2067.075,409.7344 Q2067.9656,410.5469 2069.5594,410.5469 Q2070.4969,410.5469 2071.1531,410.2969 Q2071.5438,410.1406 2071.9656,409.7031 Q2072.2313,409.4375 2072.3719,409.3594 Q2072.5281,409.2813 2072.7313,409.2813 Q2073.0594,409.2813 2073.3094,409.5469 Q2073.575,409.7969 2073.575,410.1406 Q2073.575,410.4844 2073.2313,410.8906 Q2072.7313,411.4688 2071.9344,411.7969 Q2070.8563,412.25 2069.5594,412.25 Q2068.0438,412.25 2066.8406,411.625 Q2065.8563,411.125 2065.1688,410.0625 Q2064.4813,408.9844 2064.4813,407.7031 L2064.4813,406.5469 Q2064.4813,405.2188 2065.0906,404.0781 Q2065.7156,402.9219 2066.8094,402.3125 Q2067.9031,401.6875 2069.1375,401.6875 Q2069.8719,401.6875 2070.5125,401.8594 Q2071.1688,402.0156 2071.7156,402.375 Z " fill="#000000"/><text fill="#000000" font-family="sans-serif" font-size="14" lengthAdjust="spacing" textLength="168" x="2089.05" y="412.2285">HostNetworkVlanController</text><line style="stroke:#181818;stroke-width:0.5;" x1="2027.5" x2="2286.5" y1="422.5" y2="422.5"/><rect fill="none" height="6" style="stroke:#C82930;stroke-width:1.0;" width="6" x="2034.5" y="430.5"/><text fill="#000000" font-family="sans-serif" font-size="14" lengthAdjust="spacing" textLength="235" x="2046.5" y="441.0332">service *services.HostNetworkService</text><line style="stroke:#181818;stroke-width:1.0;" x1="2027.5" x2="2286.5" y1="448.1094" y2="448.1094"/><rect fill="none" height="6" style="stroke:#C82930;stroke-width:1.0;" width="6" x="2034.5" y="456.1094"/><text fill="#000000" font-family="sans-serif" font-size="14" lengthAdjust="spacing" textLength="141" x="2046.5" y="466.6426">logger  *logrus.Logger</text><line style="stroke:#181818;stroke-width:1.0;" x1="2027.5" x2="2286.5" y1="473.7188" y2="473.7188"/><ellipse cx="2037.5" cy="484.7188" fill="#84BE84" rx="3" ry="3" style="stroke:#038048;stroke-width:1.0;"/><text fill="#000000" font-family="sans-serif" font-size="14" lengthAdjust="spacing" textLength="152" x="2046.5" y="492.252">GetList(ctx *gin.Context)</text><line style="stroke:#181818;stroke-width:1.0;" x1="2027.5" x2="2286.5" y1="499.3281" y2="499.3281"/><ellipse cx="2037.5" cy="510.3281" fill="#84BE84" rx="3" ry="3" style="stroke:#038048;stroke-width:1.0;"/><text fill="#000000" font-family="sans-serif" font-size="14" lengthAdjust="spacing" textLength="182" x="2046.5" y="517.8613">GetByName(ctx *gin.Context)</text><line style="stroke:#181818;stroke-width:1.0;" x1="2027.5" x2="2286.5" y1="524.9375" y2="524.9375"/><ellipse cx="2037.5" cy="535.9375" fill="#84BE84" rx="3" ry="3" style="stroke:#038048;stroke-width:1.0;"/><text fill="#000000" font-family="sans-serif" font-size="14" lengthAdjust="spacing" textLength="150" x="2046.5" y="543.4707">Create(ctx *gin.Context)</text><line style="stroke:#181818;stroke-width:1.0;" x1="2027.5" x2="2286.5" y1="550.5469" y2="550.5469"/><ellipse cx="2037.5" cy="561.5469" fill="#84BE84" rx="3" ry="3" style="stroke:#038048;stroke-width:1.0;"/><text fill="#000000" font-family="sans-serif" font-size="14" lengthAdjust="spacing" textLength="152" x="2046.5" y="569.0801">Update(ctx *gin.Context)</text><line style="stroke:#181818;stroke-width:1.0;" x1="2027.5" x2="2286.5" y1="576.1563" y2="576.1563"/><ellipse cx="2037.5" cy="587.1563" fill="#84BE84" rx="3" ry="3" style="stroke:#038048;stroke-width:1.0;"/><text fill="#000000" font-family="sans-serif" font-size="14" lengthAdjust="spacing" textLength="148" x="2046.5" y="594.6895">Delete(ctx *gin.Context)</text></g><path d="M1719,404.5 L1719,430.8516 A0,0 0 0 0 1719,430.8516 L1900,430.8516 A0,0 0 0 0 1900,430.8516 L1900,422.5 L2030.5,486.5234 L1900,414.5 L1900,414.5 L1890,404.5 L1719,404.5 A0,0 0 0 0 1719,404.5 " fill="#FEFFDD" style="stroke:#181818;stroke-width:0.5;"/><path d="M1890,404.5 L1890,414.5 L1900,414.5 L1890,404.5 " fill="#FEFFDD" style="stroke:#181818;stroke-width:0.5;"/><text fill="#000000" font-family="sans-serif" font-size="13" lengthAdjust="spacing" textLength="160" x="1725" y="422.9951">Get list of vlan's on the host</text><path d="M1719,440.8516 L1719,467.2031 A0,0 0 0 0 1719,467.2031 L1983,467.2031 A0,0 0 0 0 1983,467.2031 L1983,458.8516 L2030.5,512.1328 L1983,450.8516 L1983,450.8516 L1973,440.8516 L1719,440.8516 A0,0 0 0 0 1719,440.8516 " fill="#FEFFDD" style="stroke:#181818;stroke-width:0.5;"/><path d="M1973,440.8516 L1973,450.8516 L1983,450.8516 L1973,440.8516 " fill="#FEFFDD" style="stroke:#181818;stroke-width:0.5;"/><text fill="#000000" font-family="sans-serif" font-size="13" lengthAdjust="spacing" textLength="243" x="1725" y="459.3467">Get vlan by interface full name on the host</text><path d="M1719,477.2031 L1719,503.5547 A0,0 0 0 0 1719,503.5547 L1897,503.5547 A0,0 0 0 0 1897,503.5547 L1897,495.2031 L2030.5,537.7422 L1897,487.2031 L1897,487.2031 L1887,477.2031 L1719,477.2031 A0,0 0 0 0 1719,477.2031 " fill="#FEFFDD" style="stroke:#181818;stroke-width:0.5;"/><path d="M1887,477.2031 L1887,487.2031 L1897,487.2031 L1887,477.2031 " fill="#FEFFDD" style="stroke:#181818;stroke-width:0.5;"/><text fill="#000000" font-family="sans-serif" font-size="13" lengthAdjust="spacing" textLength="157" x="1725" y="495.6982">Create new van on the host</text><path d="M1719,513.5547 L1719,539.9063 A0,0 0 0 0 1719,539.9063 L1876,539.9063 A0,0 0 0 0 1876,539.9063 L1876,531.5547 L2030.5,563.3516 L1876,523.5547 L1876,523.5547 L1866,513.5547 L1719,513.5547 A0,0 0 0 0 1719,513.5547 " fill="#FEFFDD" style="stroke:#181818;stroke-width:0.5;"/><path d="M1866,513.5547 L1866,523.5547 L1876,523.5547 L1866,513.5547 " fill="#FEFFDD" style="stroke:#181818;stroke-width:0.5;"/><text fill="#000000" font-family="sans-serif" font-size="13" lengthAdjust="spacing" textLength="136" x="1725" y="532.0498">Update vlan on the host</text><path d="M1719,549.9063 L1719,576.2578 A0,0 0 0 0 1719,576.2578 L1925,576.2578 A0,0 0 0 0 1925,576.2578 L1925,567.9063 L2030.5,588.9609 L1925,559.9063 L1925,559.9063 L1915,549.9063 L1719,549.9063 A0,0 0 0 0 1719,549.9063 " fill="#FEFFDD" style="stroke:#181818;stroke-width:0.5;"/><path d="M1915,549.9063 L1915,559.9063 L1925,559.9063 L1915,549.9063 " fill="#FEFFDD" style="stroke:#181818;stroke-width:0.5;"/><text fill="#000000" font-family="sans-serif" font-size="13" lengthAdjust="spacing" textLength="185" x="1725" y="568.4014">Delete vlan interface on the host</text><!--MD5=[c7ae537b1fb1fd62da54845b02126a57]
link HostNetworkLink to IHostNetworkLink--><g id="link_HostNetworkLink_IHostNetworkLink"><path codeLine="21" d="M406,550.15 C406,627.91 406,772.21 406,860.02 " fill="none" id="HostNetworkLink-to-IHostNetworkLink" style="stroke:#181818;stroke-width:1.0;"/><polygon fill="none" points="413,860.26,406,880.26,399,860.26,413,860.26" style="stroke:#181818;stroke-width:1.0;"/></g><!--MD5=[7c0130aaa2dc79170695f96da00ebff9]
link HostNetworkDevice to HostNetworkLink--><g id="link_HostNetworkDevice_HostNetworkLink"><path codeLine="7" d="M650.68,301.62 C611.38,332.6 540.15,388.75 484.64,432.51 " fill="none" id="HostNetworkDevice-to-HostNetworkLink" style="stroke:#181818;stroke-width:1.0;"/><polygon fill="#181818" points="474.12,440.8,481.3086,440.2308,483.548,433.3762,476.3594,433.9454,474.12,440.8" style="stroke:#181818;stroke-width:1.0;"/></g><!--MD5=[f741d5613818e7c6a8b6721c8e9fb611]
link HostNetworkVlan to HostNetworkLink--><g id="link_HostNetworkVlan_HostNetworkLink"><path codeLine="11" d="M302.08,319.13 C320.5,350.22 346.28,393.73 367.56,429.63 " fill="none" id="HostNetworkVlan-to-HostNetworkLink" style="stroke:#181818;stroke-width:1.0;"/><polygon fill="#181818" points="374.29,440.99,374.6724,433.789,368.1724,430.6665,367.79,437.8675,374.29,440.99" style="stroke:#181818;stroke-width:1.0;"/></g><!--MD5=[dba085063a1d972b71adca959eac56ab]
link HostNetworkBridge to HostNetworkLink--><g id="link_HostNetworkBridge_HostNetworkLink"><path codeLine="11" d="M156.04,319.07 C167.21,325.23 179.14,330.76 191,334.5 C215.64,342.27 284.72,329.41 307,342.5 C339.99,361.88 363.96,397.09 380.05,428.75 " fill="none" id="HostNetworkBridge-to-HostNetworkLink" style="stroke:#181818;stroke-width:1.0;"/><polygon fill="#181818" points="385.83,440.67,386.8123,433.5261,380.5957,429.8718,379.6134,437.0157,385.83,440.67" style="stroke:#181818;stroke-width:1.0;"/></g><!--MD5=[22922eb5c98d6328bffadf0fffe1f4a9]
link HostNetworkConfig to HostNetworkDevice--><g id="link_HostNetworkConfig_HostNetworkDevice"><path codeLine="15" d="M383,100 C501.76,100 614.48,205.58 659.46,253.43 " fill="none" id="HostNetworkConfig-HostNetworkDevice" style="stroke:#181818;stroke-width:1.0;"/></g><!--MD5=[3939eded06239bcaaa875b04c4955c10]
link HostNetworkConfig to HostNetworkVlan--><g id="link_HostNetworkConfig_HostNetworkVlan"><path codeLine="16" d="M383,126 C436.68,126 374.21,191.2 325.23,235.77 " fill="none" id="HostNetworkConfig-HostNetworkVlan" style="stroke:#181818;stroke-width:1.0;"/></g><!--MD5=[9daca89a698ab2c397b62c91a9aa8944]
link HostNetworkConfig to HostNetworkBridge--><g id="link_HostNetworkConfig_HostNetworkBridge"><path codeLine="17" d="M172,151 C131.91,151 113.1,199.11 104.58,235.75 " fill="none" id="HostNetworkConfig-HostNetworkBridge" style="stroke:#181818;stroke-width:1.0;"/></g><!--MD5=[4b27b58a3dcdc7721ce2906e479ec2a1]
link YamlHostNetworkConfigStorage to IHostNetworkConfigStorage--><g id="link_YamlHostNetworkConfigStorage_IHostNetworkConfigStorage"><path codeLine="9" d="M1074.61,528.67 C1029.87,554.05 969.53,592.44 925,636.5 C856.49,704.28 797.15,798.5 760.84,862.62 " fill="none" id="YamlHostNetworkConfigStorage-to-IHostNetworkConfigStorage" style="stroke:#181818;stroke-width:1.0;"/><polygon fill="none" points="766.85,866.21,750.99,880.27,754.62,859.39,766.85,866.21" style="stroke:#181818;stroke-width:1.0;"/></g><!--MD5=[5a77e35d18a67292d31d635cffa38ea2]
link HostNetworkManager to YamlHostNetworkConfigStorage--><g id="link_HostNetworkManager_YamlHostNetworkConfigStorage"><path codeLine="13" d="M1294,499.5 C1283.77,499.5 1273.17,499.41 1262.52,499.27 " fill="none" id="HostNetworkManager-YamlHostNetworkConfigStorage" style="stroke:#181818;stroke-width:1.0;"/><line style="stroke:#181818;stroke-width:1.0;" x1="1262.52" x2="1252.31" y1="499.27" y2="499.11"/></g><!--MD5=[8da93bdfc8a67e29cf06757d442ac4df]
link YamlHostNetworkConfigStorage to HostNetworkManager--><!--MD5=[3dcecfe70558689b84244a7b11eaea24]
link HostNetworkManager to IHostNetworkManager--><g id="link_HostNetworkManager_IHostNetworkManager"><path codeLine="14" d="M1479.26,540.86 C1483.37,583.66 1489.9,651.75 1496.39,719.32 " fill="none" id="HostNetworkManager-to-IHostNetworkManager" style="stroke:#181818;stroke-width:1.0;"/><polygon fill="none" points="1503.36,718.72,1498.31,739.29,1489.43,720.05,1503.36,718.72" style="stroke:#181818;stroke-width:1.0;"/></g><!--MD5=[5f9b85877b9bbf6a61ca701029692ffc]
link HostNetworkService to HostNetworkManager--><g id="link_HostNetworkService_HostNetworkManager"><path codeLine="35" d="M1738,823 C1696.18,823 1736.13,671.33 1713,636.5 C1707.84,628.73 1620.86,578.59 1553.53,540.52 " fill="none" id="HostNetworkService-HostNetworkManager" style="stroke:#181818;stroke-width:1.0;"/></g><!--MD5=[321f114bb790d9df95b072ece69f9f6c]
link HostNetworkVlanController to HostNetworkService--><g id="link_HostNetworkVlanController_HostNetworkService"><path codeLine="46" d="M2026,434.5 C1988.22,434.5 2021.87,567.07 2027,604.5 C2034.71,660.75 2049.25,721.02 2064.42,774.43 " fill="none" id="HostNetworkVlanController-HostNetworkService" style="stroke:#181818;stroke-width:1.0;"/></g><!--MD5=[e3898cf82df5efe61b8857db4d027b1b]
@startuml

!include ../services/HostNetworkService.puml
remove HostNetworkBridgeDto
remove HostNetworkBridgeUpdateDto
remove HostNetworkBridgeCreateDto
remove HostNetworkBridgeBaseDto

package controllers {
    class HostNetworkVlanController {
        -service *services.HostNetworkService
        - -
        -logger  *logrus.Logger
        - -
        +GetList(ctx *gin.Context)
        - -
        +GetByName(ctx *gin.Context)
        - -
        +Create(ctx *gin.Context)
        - -
        +Update(ctx *gin.Context)
        - -
        +Delete(ctx *gin.Context)
    }

    note left of HostNetworkVlanController::GetList
    Get list of vlan's on the host
    end note

    note left of HostNetworkVlanController::GetByName
    Get vlan by interface full name on the host
    end note

    note left of HostNetworkVlanController::Create
    Create new van on the host
    end note

    note left of HostNetworkVlanController::Update
    Update vlan on the host
    end note

    note left of HostNetworkVlanController::Delete
    Delete vlan interface on the host
    end note


    HostNetworkService -up- HostNetworkVlanController::service
}

@enduml

@startuml



package dtos {
    class HostNetworkVlanDto {
        +Name string
        - -
        +Addresses []string
        - -
        +VlanID int
        - -
        +Parent string
    }
}


package dtos {
    class HostNetworkVlanCreateDto {
        +Addresses []string
        - -
        +VlanID int
        - -
        +Parent string
    }
}



package dtos {
    class HostNetworkVlanUpdateDto {
        +Addresses []string
    }
}



package dtos {
    class HostNetworkBridgeBaseDto {
    +Addresses []string
    - -
    +Slaves []string
    }
}


package dtos {
    class HostNetworkBridgeDto {
        +Name string
    }
    HostNetworkBridgeDto - -* HostNetworkBridgeBaseDto
}



package dtos {
    class HostNetworkBridgeCreateDto {
        +Name string
    }
    HostNetworkBridgeCreateDto - -* HostNetworkBridgeBaseDto
}



package dtos {
    class HostNetworkBridgeUpdateDto {}
    HostNetworkBridgeUpdateDto - -* HostNetworkBridgeBaseDto
}







package app {
    interface IHostNetworkLink {
        +GetName() string
        - -
        +GetType() string
        - -
        +GetAddresses() []net.IPNet
    }

    note left of IHostNetworkLink::GetName
    Gets host interface name
    end note

    note left of IHostNetworkLink::GetType
    Gets host interface type
    end note

    note left of IHostNetworkLink::GetAddresses
    Gets host interface addresses
    end note
}


package domain {
    class HostNetworkLink {
        +Name string
        - -
        +Addresses []net.IPNet
        - -
        +Type string
    }
    note left of HostNetworkLink::Name
    Unique name of the network interface
    end note

    note left of HostNetworkLink::Type
    Default value is "none"
    because HostNetworkLink is a basic class
    end note

    HostNetworkLink - -|> IHostNetworkLink
}


package domain {
    class HostNetworkDevice

    HostNetworkDevice - -* HostNetworkLink
}



package domain {
    class HostNetworkVlan {
        +VlanID int
        - -
        +Parent string
    }

    HostNetworkVlan - -* HostNetworkLink
}



package domain {
    class HostNetworkBridge {
        +Slaves []string
        - -
        +GetSlaves() []string
    }

    HostNetworkBridge - -* HostNetworkLink

    note right of HostNetworkBridge::GetSlaves
        Get an array of bridge slaves
    end note
}




package domain {
    class HostNetworkConfig {
        +Devices []HostNetworkDevice
        - -
        +Vlans   []HostNetworkVlan
        - -
        +Bridges []HostNetworkBridge
    }

    HostNetworkConfig::Devices - - HostNetworkDevice
    HostNetworkConfig::Vlans - - HostNetworkVlan
    HostNetworkConfig::Bridges - - HostNetworkBridge
}



package app {
    interface IHostNetworkManager {
        +GetList() ([]IHostNetworkLink, error)
        - -
        +GetByName(name string) (IHostNetworkLink, error)
        - -
        +CreateVlan(master string, vlanID int) (string, error)
        - -
        +CreateBridge(name string) (string, error)
        - -
        +SetLinkMaster(slaveName, masterName string) error
        - -
        +UnsetLinkMaster(linkName string) error
        - -
        +SetLinkUp(linkName string) error
        - -
        +DeleteLinkByName(name string) error
        - -
        +AddrAdd(linkName string, addr net.IPNet) error
        - -
        +AddrDelete(linkName string, addr net.IPNet) error
        - -
        +SaveConfiguration() error
        - -
        +RestoreFromBackup() error
        - -
        +ResetChanges() error
        - -
        +HasUnsavedChanges() bool
    }

    note left of IHostNetworkManager::GetList
    Gets list of host network interfaces
    end note

    note left of IHostNetworkManager::GetByName
    Gets host network interface by its name
    end note

    note left of IHostNetworkManager::CreateVlan
    Create host vlan interface with name rol.{Master}.{VlanID}
    end note

    note left of IHostNetworkManager::CreateBridge
    Create host bridge interface with name rol.br.{Name}
    end note

    note left of IHostNetworkManager::SetLinkMaster
    Set master for link
    end note

    note left of IHostNetworkManager::UnsetLinkMaster
    Removes the master of the link
    end note

    note left of IHostNetworkManager::SetLinkUp
    Enables the link on host
    end note

    note left of IHostNetworkManager::DeleteLinkByName
    Deletes interface on host by its name
    end note

    note left of IHostNetworkManager::AddrAdd
    Add new ip address for network interface
    end note

    note left of IHostNetworkManager::AddrDelete
    Delete ip address for network interface
    end note

    note left of IHostNetworkManager::SaveConfiguration
    Save current host network configuration to the storage
    end note

    note left of IHostNetworkManager::RestoreFromBackup
    Restore and apply host network configuration from backup
    end note

    note left of IHostNetworkManager::ResetChanges
    Reset all applied changes to state from saved configuration
    end note

    note left of IHostNetworkManager::HasUnsavedChanges
    Gets a flag about unsaved changes
    end note
}




package app {
    interface IHostNetworkConfigStorage {
        +SaveConfig(config domain.HostNetworkConfig) error
        - -
        +GetConfig() (domain.HostNetworkConfig, error)
        - -
        +GetBackupConfig() (domain.HostNetworkConfig, error)
    }
}


package infrastructure {
    class YamlHostNetworkConfigStorage {
        -configFilePath string
    }

    YamlHostNetworkConfigStorage - -|> IHostNetworkConfigStorage
}


package infrastructure {
    class HostNetworkManager {
        -configStorage  interfaces.IHostNetworkConfigStorage
        - -
        -hasUnsavedChanges bool
    }

    HostNetworkManager::configStorage - - YamlHostNetworkConfigStorage
    HostNetworkManager -down-|> IHostNetworkManager
    HostNetworkManager -[hidden]left- YamlHostNetworkConfigStorage
}


package app {
    class HostNetworkService {
        -manager IHostNetworkManager
        - -
        +GetVlanList() ([]HostNetworkVlanDto, error)
        - -
        +GetVlanByName(name string) (HostNetworkVlanDto, error)
        - -
        +CreateVlan(createDto HostNetworkVlanCreateDto) (HostNetworkVlanDto, error)
        - -
        +UpdateVlan(name string, updateDto HostNetworkVlanUpdateDto) (HostNetworkVlanDto, error)
        - -
        +DeleteVlan(name string) error
        - -
        +GetBridgeList() ([]HostNetworkBridgeDto, error)
        - -
        +GetBridgeByName(name string) (dtos.HostNetworkBridgeDto, error)
        - -
        +CreateBridge(createDto dtos.HostNetworkBridgeCreateDto) (dtos.HostNetworkBridgeDto, error)
        - -
        +UpdateBridge(bridgeName string, updateDto dtos.HostNetworkBridgeUpdateDto) (dtos.HostNetworkBridgeDto, error)
        - -
        +DeleteBridge(bridgeName string) error
    }
    HostNetworkService::manager - - HostNetworkManager

    note right of HostNetworkService::GetVlanList
        Get list of VLAN interfaces on the host
    end note

    note right of HostNetworkService::GetVlanByName
        Get VLAN interface by Name
    end note

    note right of HostNetworkService::CreateVlan
        Create new VLAN interface on the host
    end note

    note right of HostNetworkService::UpdateVlan
        Update VLAN interface on the host
    end note

    note right of HostNetworkService::DeleteVlan
        Delete VLAN interface from host
    end note

    note right of HostNetworkService::GetBridgeList
        Get list of bridge interfaces on the host
    end note

    note right of HostNetworkService::GetBridgeByName
        Get bridge interface by Name
    end note

    note right of HostNetworkService::CreateBridge
        Create new bridge interface on the host
    end note

    note right of HostNetworkService::UpdateBridge
        Update bridge interface on the host
    end note

    note right of HostNetworkService::DeleteBridge
        Delete bridge interface from host
    end note
}

remove HostNetworkBridgeDto
remove HostNetworkBridgeUpdateDto
remove HostNetworkBridgeCreateDto
remove HostNetworkBridgeBaseDto

package controllers {
    class HostNetworkVlanController {
        -service *services.HostNetworkService
        - -
        -logger  *logrus.Logger
        - -
        +GetList(ctx *gin.Context)
        - -
        +GetByName(ctx *gin.Context)
        - -
        +Create(ctx *gin.Context)
        - -
        +Update(ctx *gin.Context)
        - -
        +Delete(ctx *gin.Context)
    }

    note left of HostNetworkVlanController::GetList
    Get list of vlan's on the host
    end note

    note left of HostNetworkVlanController::GetByName
    Get vlan by interface full name on the host
    end note

    note left of HostNetworkVlanController::Create
    Create new van on the host
    end note

    note left of HostNetworkVlanController::Update
    Update vlan on the host
    end note

    note left of HostNetworkVlanController::Delete
    Delete vlan interface on the host
    end note


    HostNetworkService -up- HostNetworkVlanController::service
}

@enduml

PlantUML version 1.2022.6(Tue Jun 21 20:34:49 MSK 2022)
(GPL source distribution)
Java Runtime: OpenJDK Runtime Environment
JVM: OpenJDK 64-Bit Server VM
Default Encoding: Cp1251
Language: ru
Country: RU
--></g></svg>