<?xml version="1.0" encoding="UTF-8" standalone="no"?><svg xmlns="http://www.w3.org/2000/svg" xmlns:xlink="http://www.w3.org/1999/xlink" contentStyleType="text/css" height="1001px" preserveAspectRatio="none" style="width:2829px;height:1001px;background:#FFFFFF;" version="1.1" viewBox="0 0 2829 1001" width="2829px" zoomAndPan="magnify"><defs/><g><!--MD5=[d5ac3844f66b12d9e08170e47495e096]
cluster app--><g id="cluster_app"><path d="M8.5,592 L38.5,592 A3.75,3.75 0 0 1 41,594.5 L48,614.2969 L2819.5,614.2969 A2.5,2.5 0 0 1 2822,616.7969 L2822,991.5 A2.5,2.5 0 0 1 2819.5,994 L8.5,994 A2.5,2.5 0 0 1 6,991.5 L6,594.5 A2.5,2.5 0 0 1 8.5,592 " fill="none" style="stroke:#000000;stroke-width:1.5;"/><line style="stroke:#000000;stroke-width:1.5;" x1="6" x2="48" y1="614.2969" y2="614.2969"/><text fill="#000000" font-family="sans-serif" font-size="14" font-weight="bold" lengthAdjust="spacing" textLength="29" x="10" y="606.9951">app</text></g><!--MD5=[27f772719433d509ddbc20ff768eba08]
cluster domain--><g id="cluster_domain"><path d="M578.5,22 L638.5,22 A3.75,3.75 0 0 1 641,24.5 L648,44.2969 L819.5,44.2969 A2.5,2.5 0 0 1 822,46.7969 L822,556.5 A2.5,2.5 0 0 1 819.5,559 L578.5,559 A2.5,2.5 0 0 1 576,556.5 L576,24.5 A2.5,2.5 0 0 1 578.5,22 " fill="none" style="stroke:#000000;stroke-width:1.5;"/><line style="stroke:#000000;stroke-width:1.5;" x1="576" x2="648" y1="44.2969" y2="44.2969"/><text fill="#000000" font-family="sans-serif" font-size="14" font-weight="bold" lengthAdjust="spacing" textLength="59" x="580" y="36.9951">domain</text></g><!--MD5=[77349be1bd27b81b697a0f9b3aded3c8]
cluster infrastructure--><g id="cluster_infrastructure"><path d="M1038.5,74.5 L1150.5,74.5 A3.75,3.75 0 0 1 1153,77 L1160,96.7969 L1389.5,96.7969 A2.5,2.5 0 0 1 1392,99.2969 L1392,516 A2.5,2.5 0 0 1 1389.5,518.5 L1038.5,518.5 A2.5,2.5 0 0 1 1036,516 L1036,77 A2.5,2.5 0 0 1 1038.5,74.5 " fill="none" style="stroke:#000000;stroke-width:1.5;"/><line style="stroke:#000000;stroke-width:1.5;" x1="1036" x2="1160" y1="96.7969" y2="96.7969"/><text fill="#000000" font-family="sans-serif" font-size="14" font-weight="bold" lengthAdjust="spacing" textLength="111" x="1040" y="89.4951">infrastructure</text></g><!--MD5=[f4e70ef68289585296b9045165e58692]
cluster controllers--><g id="cluster_controllers"><path d="M2066.5,6 L2154.5,6 A3.75,3.75 0 0 1 2157,8.5 L2164,28.2969 L2618.5,28.2969 A2.5,2.5 0 0 1 2621,30.7969 L2621,348.5 A2.5,2.5 0 0 1 2618.5,351 L2066.5,351 A2.5,2.5 0 0 1 2064,348.5 L2064,8.5 A2.5,2.5 0 0 1 2066.5,6 " fill="none" style="stroke:#000000;stroke-width:1.5;"/><line style="stroke:#000000;stroke-width:1.5;" x1="2064" x2="2164" y1="28.2969" y2="28.2969"/><text fill="#000000" font-family="sans-serif" font-size="14" font-weight="bold" lengthAdjust="spacing" textLength="87" x="2068" y="20.9951">controllers</text></g><!--MD5=[2a39a5be1cc24ddddd6e6286e4ece992]
class IEntityModel--><g id="elem_IEntityModel"><rect codeLine="3" fill="#F1F1F1" height="129.1875" id="IEntityModel" rx="2.5" ry="2.5" style="stroke:#181818;stroke-width:0.5;" width="219" x="22.5" y="738"/><ellipse cx="61.8" cy="754" fill="#B4A7E5" rx="11" ry="11" style="stroke:#181818;stroke-width:1.0;"/><path d="M57.7219,749.7656 L57.7219,747.6094 L65.1125,747.6094 L65.1125,749.7656 L62.6438,749.7656 L62.6438,757.8438 L65.1125,757.8438 L65.1125,760 L57.7219,760 L57.7219,757.8438 L60.1906,757.8438 L60.1906,749.7656 L57.7219,749.7656 Z " fill="#000000"/><text fill="#000000" font-family="sans-serif" font-size="14" font-style="italic" lengthAdjust="spacing" textLength="87" x="81.2" y="758.8467">IEntityModel</text><rect fill="#FFFFFF" height="15.9688" style="stroke:#181818;stroke-width:1.0;stroke-dasharray:2.0,2.0;" width="44" x="200.5" y="735"/><text fill="#000000" font-family="sans-serif" font-size="12" font-style="italic" lengthAdjust="spacing" textLength="42" x="201.5" y="747.1387">IDType</text><line style="stroke:#181818;stroke-width:0.5;" x1="23.5" x2="240.5" y1="770" y2="770"/><ellipse cx="33.5" cy="783.6484" fill="#84BE84" rx="3" ry="3" style="stroke:#038048;stroke-width:1.0;"/><text fill="#000000" font-family="sans-serif" font-size="14" lengthAdjust="spacing" textLength="104" x="42.5" y="786.9951">GetID() IDType</text><line style="stroke:#181818;stroke-width:1.0;" x1="23.5" x2="240.5" y1="794.2969" y2="794.2969"/><ellipse cx="33.5" cy="807.9453" fill="#84BE84" rx="3" ry="3" style="stroke:#038048;stroke-width:1.0;"/><text fill="#000000" font-family="sans-serif" font-size="14" lengthAdjust="spacing" textLength="183" x="42.5" y="811.292">GetCreatedAt() time.Time</text><line style="stroke:#181818;stroke-width:1.0;" x1="23.5" x2="240.5" y1="818.5938" y2="818.5938"/><ellipse cx="33.5" cy="832.2422" fill="#84BE84" rx="3" ry="3" style="stroke:#038048;stroke-width:1.0;"/><text fill="#000000" font-family="sans-serif" font-size="14" lengthAdjust="spacing" textLength="193" x="42.5" y="835.5889">GetUpdatedAt() *time.Time</text><line style="stroke:#181818;stroke-width:1.0;" x1="23.5" x2="240.5" y1="842.8906" y2="842.8906"/><ellipse cx="33.5" cy="856.5391" fill="#84BE84" rx="3" ry="3" style="stroke:#038048;stroke-width:1.0;"/><text fill="#000000" font-family="sans-serif" font-size="14" lengthAdjust="spacing" textLength="189" x="42.5" y="859.8857">GetDeletedAt() *time.Time</text></g><!--MD5=[b3e0f8dcddb1b27f071a0303a68762bf]
class IGenericRepository--><g id="elem_IGenericRepository"><rect codeLine="3" fill="#F1F1F1" height="274.9688" id="IGenericRepository" rx="2.5" ry="2.5" style="stroke:#181818;stroke-width:0.5;" width="1030" x="699" y="665"/><ellipse cx="1019.75" cy="681" fill="#B4A7E5" rx="11" ry="11" style="stroke:#181818;stroke-width:1.0;"/><path d="M1015.6719,676.7656 L1015.6719,674.6094 L1023.0625,674.6094 L1023.0625,676.7656 L1020.5938,676.7656 L1020.5938,684.8438 L1023.0625,684.8438 L1023.0625,687 L1015.6719,687 L1015.6719,684.8438 L1018.1406,684.8438 L1018.1406,676.7656 L1015.6719,676.7656 Z " fill="#000000"/><text fill="#000000" font-family="sans-serif" font-size="14" font-style="italic" lengthAdjust="spacing" textLength="136" x="1040.25" y="685.8467">IGenericRepository</text><rect fill="#FFFFFF" height="15.9688" style="stroke:#181818;stroke-width:1.0;stroke-dasharray:2.0,2.0;" width="242" x="1490" y="662"/><text fill="#000000" font-family="sans-serif" font-size="12" font-style="italic" lengthAdjust="spacing" textLength="240" x="1491" y="674.1387">IDType, interfaces.IEntityModel[IDType]</text><line style="stroke:#181818;stroke-width:0.5;" x1="700" x2="1728" y1="697" y2="697"/><ellipse cx="710" cy="710.6484" fill="#84BE84" rx="3" ry="3" style="stroke:#038048;stroke-width:1.0;"/><text fill="#000000" font-family="sans-serif" font-size="14" lengthAdjust="spacing" textLength="1004" x="719" y="713.9951">GetList(ctx context.Context, orderBy string, orderDirection string, page int, size int, queryBuilder interfaces.IQueryBuilder) ([]EntityType, error)</text><line style="stroke:#181818;stroke-width:1.0;" x1="700" x2="1728" y1="721.2969" y2="721.2969"/><ellipse cx="710" cy="734.9453" fill="#84BE84" rx="3" ry="3" style="stroke:#038048;stroke-width:1.0;"/><text fill="#000000" font-family="sans-serif" font-size="14" lengthAdjust="spacing" textLength="542" x="719" y="738.292">Count(ctx context.Context, queryBuilder interfaces.IQueryBuilder) (int, error)</text><line style="stroke:#181818;stroke-width:1.0;" x1="700" x2="1728" y1="745.5938" y2="745.5938"/><ellipse cx="710" cy="759.2422" fill="#84BE84" rx="3" ry="3" style="stroke:#038048;stroke-width:1.0;"/><text fill="#000000" font-family="sans-serif" font-size="14" lengthAdjust="spacing" textLength="632" x="719" y="762.5889">IsExist(ctx context.Context, id IDType, queryBuilder interfaces.IQueryBuilder) (bool, error)</text><line style="stroke:#181818;stroke-width:1.0;" x1="700" x2="1728" y1="769.8906" y2="769.8906"/><ellipse cx="710" cy="783.5391" fill="#84BE84" rx="3" ry="3" style="stroke:#038048;stroke-width:1.0;"/><text fill="#000000" font-family="sans-serif" font-size="14" lengthAdjust="spacing" textLength="448" x="719" y="786.8857">NewQueryBuilder(ctx context.Context) interfaces.IQueryBuilder</text><line style="stroke:#181818;stroke-width:1.0;" x1="700" x2="1728" y1="794.1875" y2="794.1875"/><ellipse cx="710" cy="807.8359" fill="#84BE84" rx="3" ry="3" style="stroke:#038048;stroke-width:1.0;"/><text fill="#000000" font-family="sans-serif" font-size="14" lengthAdjust="spacing" textLength="411" x="719" y="811.1826">GetById(ctx context.Context, id IDType) (EntityType, error)</text><line style="stroke:#181818;stroke-width:1.0;" x1="700" x2="1728" y1="818.4844" y2="818.4844"/><ellipse cx="710" cy="832.1328" fill="#84BE84" rx="3" ry="3" style="stroke:#038048;stroke-width:1.0;"/><text fill="#000000" font-family="sans-serif" font-size="14" lengthAdjust="spacing" textLength="458" x="719" y="835.4795">Update(ctx context.Context, entity EntityType) (EntityType, error)</text><line style="stroke:#181818;stroke-width:1.0;" x1="700" x2="1728" y1="842.7813" y2="842.7813"/><ellipse cx="710" cy="856.4297" fill="#84BE84" rx="3" ry="3" style="stroke:#038048;stroke-width:1.0;"/><text fill="#000000" font-family="sans-serif" font-size="14" lengthAdjust="spacing" textLength="447" x="719" y="859.7764">Insert(ctx context.Context, entity EntityType) (EntityType, error)</text><line style="stroke:#181818;stroke-width:1.0;" x1="700" x2="1728" y1="867.0781" y2="867.0781"/><ellipse cx="710" cy="880.7266" fill="#84BE84" rx="3" ry="3" style="stroke:#038048;stroke-width:1.0;"/><text fill="#000000" font-family="sans-serif" font-size="14" lengthAdjust="spacing" textLength="309" x="719" y="884.0732">Delete(ctx context.Context, id IDType) error</text><line style="stroke:#181818;stroke-width:1.0;" x1="700" x2="1728" y1="891.375" y2="891.375"/><ellipse cx="710" cy="905.0234" fill="#84BE84" rx="3" ry="3" style="stroke:#038048;stroke-width:1.0;"/><text fill="#000000" font-family="sans-serif" font-size="14" lengthAdjust="spacing" textLength="529" x="719" y="908.3701">DeleteAll(ctx context.Context, queryBuilder interfaces.IQueryBuilder) error</text><line style="stroke:#181818;stroke-width:1.0;" x1="700" x2="1728" y1="915.6719" y2="915.6719"/><ellipse cx="710" cy="929.3203" fill="#84BE84" rx="3" ry="3" style="stroke:#038048;stroke-width:1.0;"/><text fill="#000000" font-family="sans-serif" font-size="14" lengthAdjust="spacing" textLength="106" x="719" y="932.667">Dispose() error</text></g><path d="M276.5,627 L276.5,652.1328 A0,0 0 0 0 276.5,652.1328 L614.5,652.1328 A0,0 0 0 0 614.5,652.1328 L614.5,645 L703,709.1484 L614.5,637 L614.5,637 L604.5,627 L276.5,627 A0,0 0 0 0 276.5,627 " fill="#FEFFDD" style="stroke:#181818;stroke-width:0.5;"/><path d="M604.5,627 L604.5,637 L614.5,637 L604.5,627 " fill="#FEFFDD" style="stroke:#181818;stroke-width:0.5;"/><text fill="#000000" font-family="sans-serif" font-size="13" lengthAdjust="spacing" textLength="317" x="282.5" y="644.0669">Get list of elements with filtering and pagination</text><path d="M276.5,662.1328 L276.5,687.2656 A0,0 0 0 0 276.5,687.2656 L517.5,687.2656 A0,0 0 0 0 517.5,687.2656 L517.5,680.1328 L703,733.4453 L517.5,672.1328 L517.5,672.1328 L507.5,662.1328 L276.5,662.1328 A0,0 0 0 0 276.5,662.1328 " fill="#FEFFDD" style="stroke:#181818;stroke-width:0.5;"/><path d="M507.5,662.1328 L507.5,672.1328 L517.5,672.1328 L507.5,662.1328 " fill="#FEFFDD" style="stroke:#181818;stroke-width:0.5;"/><text fill="#000000" font-family="sans-serif" font-size="13" lengthAdjust="spacing" textLength="220" x="282.5" y="679.1997">Get count of entities with filtering</text><path d="M276.5,697.2656 L276.5,722.3984 A0,0 0 0 0 276.5,722.3984 L645.5,722.3984 A0,0 0 0 0 645.5,722.3984 L645.5,715.2656 L703,757.7422 L645.5,707.2656 L645.5,707.2656 L635.5,697.2656 L276.5,697.2656 A0,0 0 0 0 276.5,697.2656 " fill="#FEFFDD" style="stroke:#181818;stroke-width:0.5;"/><path d="M635.5,697.2656 L635.5,707.2656 L645.5,707.2656 L635.5,697.2656 " fill="#FEFFDD" style="stroke:#181818;stroke-width:0.5;"/><text fill="#000000" font-family="sans-serif" font-size="13" lengthAdjust="spacing" textLength="348" x="282.5" y="714.3325">Checks that entity with selected conditions is existed</text><path d="M276.5,732.3984 L276.5,757.5313 A0,0 0 0 0 276.5,757.5313 L542.5,757.5313 A0,0 0 0 0 542.5,757.5313 L542.5,750.3984 L703,782.0391 L542.5,742.3984 L542.5,742.3984 L532.5,732.3984 L276.5,732.3984 A0,0 0 0 0 276.5,732.3984 " fill="#FEFFDD" style="stroke:#181818;stroke-width:0.5;"/><path d="M532.5,732.3984 L532.5,742.3984 L542.5,742.3984 L532.5,732.3984 " fill="#FEFFDD" style="stroke:#181818;stroke-width:0.5;"/><text fill="#000000" font-family="sans-serif" font-size="13" lengthAdjust="spacing" textLength="245" x="282.5" y="749.4653">Get new instance of the query builder</text><path d="M276.5,767.5313 L276.5,792.6641 A0,0 0 0 0 276.5,792.6641 L505.5,792.6641 A0,0 0 0 0 505.5,792.6641 L505.5,785.5313 L703,806.3359 L505.5,777.5313 L505.5,777.5313 L495.5,767.5313 L276.5,767.5313 A0,0 0 0 0 276.5,767.5313 " fill="#FEFFDD" style="stroke:#181818;stroke-width:0.5;"/><path d="M495.5,767.5313 L495.5,777.5313 L505.5,777.5313 L495.5,767.5313 " fill="#FEFFDD" style="stroke:#181818;stroke-width:0.5;"/><text fill="#000000" font-family="sans-serif" font-size="13" lengthAdjust="spacing" textLength="208" x="282.5" y="784.5981">Get entity by ID from repository</text><path d="M276.5,802.6641 L276.5,827.7969 A0,0 0 0 0 276.5,827.7969 L663.5,827.7969 A0,0 0 0 0 663.5,827.7969 L663.5,820.6641 L703,830.6328 L663.5,812.6641 L663.5,812.6641 L653.5,802.6641 L276.5,802.6641 A0,0 0 0 0 276.5,802.6641 " fill="#FEFFDD" style="stroke:#181818;stroke-width:0.5;"/><path d="M653.5,802.6641 L653.5,812.6641 L663.5,812.6641 L653.5,802.6641 " fill="#FEFFDD" style="stroke:#181818;stroke-width:0.5;"/><text fill="#000000" font-family="sans-serif" font-size="13" lengthAdjust="spacing" textLength="366" x="282.5" y="819.731">Save the changes to the existing entity in the repository</text><path d="M276.5,837.7969 L276.5,862.9297 A0,0 0 0 0 276.5,862.9297 L476.5,862.9297 A0,0 0 0 0 476.5,862.9297 L476.5,855.7969 L703,854.9297 L476.5,847.7969 L476.5,847.7969 L466.5,837.7969 L276.5,837.7969 A0,0 0 0 0 276.5,837.7969 " fill="#FEFFDD" style="stroke:#181818;stroke-width:0.5;"/><path d="M466.5,837.7969 L466.5,847.7969 L476.5,847.7969 L466.5,837.7969 " fill="#FEFFDD" style="stroke:#181818;stroke-width:0.5;"/><text fill="#000000" font-family="sans-serif" font-size="13" lengthAdjust="spacing" textLength="179" x="282.5" y="854.8638">Add entity to the repository</text><path d="M276.5,872.9297 L276.5,898.0625 A0,0 0 0 0 276.5,898.0625 L487.5,898.0625 A0,0 0 0 0 487.5,898.0625 L487.5,890.9297 L703,879.2266 L487.5,882.9297 L487.5,882.9297 L477.5,872.9297 L276.5,872.9297 A0,0 0 0 0 276.5,872.9297 " fill="#FEFFDD" style="stroke:#181818;stroke-width:0.5;"/><path d="M477.5,872.9297 L477.5,882.9297 L487.5,882.9297 L477.5,872.9297 " fill="#FEFFDD" style="stroke:#181818;stroke-width:0.5;"/><text fill="#000000" font-family="sans-serif" font-size="13" lengthAdjust="spacing" textLength="190" x="282.5" y="889.9966">Delete entity from repository</text><path d="M276.5,908.0625 L276.5,933.1953 A0,0 0 0 0 276.5,933.1953 L555.5,933.1953 A0,0 0 0 0 555.5,933.1953 L555.5,926.0625 L703,903.5234 L555.5,918.0625 L555.5,918.0625 L545.5,908.0625 L276.5,908.0625 A0,0 0 0 0 276.5,908.0625 " fill="#FEFFDD" style="stroke:#181818;stroke-width:0.5;"/><path d="M545.5,908.0625 L545.5,918.0625 L555.5,918.0625 L545.5,908.0625 " fill="#FEFFDD" style="stroke:#181818;stroke-width:0.5;"/><text fill="#000000" font-family="sans-serif" font-size="13" lengthAdjust="spacing" textLength="258" x="282.5" y="925.1294">Delete entities with selected conditions</text><path d="M276.5,943.1953 L276.5,968.3281 A0,0 0 0 0 276.5,968.3281 L466.5,968.3281 A0,0 0 0 0 466.5,968.3281 L466.5,961.1953 L703,927.8203 L466.5,953.1953 L466.5,953.1953 L456.5,943.1953 L276.5,943.1953 A0,0 0 0 0 276.5,943.1953 " fill="#FEFFDD" style="stroke:#181818;stroke-width:0.5;"/><path d="M456.5,943.1953 L456.5,953.1953 L466.5,953.1953 L456.5,943.1953 " fill="#FEFFDD" style="stroke:#181818;stroke-width:0.5;"/><text fill="#000000" font-family="sans-serif" font-size="13" lengthAdjust="spacing" textLength="169" x="282.5" y="960.2622">Dispose all allocated data</text><!--MD5=[90cc776ba65cffa8b16b8b01d52a6348]
class ProjectService--><g id="elem_ProjectService"><rect codeLine="5" fill="#F1F1F1" height="274.9688" id="ProjectService" rx="2.5" ry="2.5" style="stroke:#181818;stroke-width:0.5;" width="1025" x="1772.5" y="665.5"/><ellipse cx="2229.75" cy="681.5" fill="#ADD1B2" rx="11" ry="11" style="stroke:#181818;stroke-width:1.0;"/><path d="M2232.7188,687.1406 Q2232.1406,687.4375 2231.5,687.5781 Q2230.8594,687.7344 2230.1563,687.7344 Q2227.6563,687.7344 2226.3281,686.0938 Q2225.0156,684.4375 2225.0156,681.3125 Q2225.0156,678.1875 2226.3281,676.5313 Q2227.6563,674.875 2230.1563,674.875 Q2230.8594,674.875 2231.5,675.0313 Q2232.1563,675.1875 2232.7188,675.4844 L2232.7188,678.2031 Q2232.0938,677.625 2231.5,677.3594 Q2230.9063,677.0781 2230.2813,677.0781 Q2228.9375,677.0781 2228.25,678.1563 Q2227.5625,679.2188 2227.5625,681.3125 Q2227.5625,683.4063 2228.25,684.4844 Q2228.9375,685.5469 2230.2813,685.5469 Q2230.9063,685.5469 2231.5,685.2813 Q2232.0938,685 2232.7188,684.4219 L2232.7188,687.1406 Z " fill="#000000"/><text fill="#000000" font-family="sans-serif" font-size="14" lengthAdjust="spacing" textLength="102" x="2250.25" y="686.3467">ProjectService</text><line style="stroke:#181818;stroke-width:0.5;" x1="1773.5" x2="2796.5" y1="697.5" y2="697.5"/><rect fill="none" height="6" style="stroke:#C82930;stroke-width:1.0;" width="6" x="1780.5" y="708.1484"/><text fill="#000000" font-family="sans-serif" font-size="14" lengthAdjust="spacing" textLength="421" x="1792.5" y="714.4951">repository IGenericRepository&lt;uuid.UUID, domain.Project&gt;</text><line style="stroke:#181818;stroke-width:1.0;" x1="1773.5" x2="2796.5" y1="721.7969" y2="721.7969"/><rect fill="none" height="6" style="stroke:#C82930;stroke-width:1.0;" width="6" x="1780.5" y="732.4453"/><text fill="#000000" font-family="sans-serif" font-size="14" lengthAdjust="spacing" textLength="187" x="1792.5" y="738.792">config *domain.AppConfig</text><line style="stroke:#181818;stroke-width:1.0;" x1="1773.5" x2="2796.5" y1="746.0938" y2="746.0938"/><rect fill="none" height="6" style="stroke:#C82930;stroke-width:1.0;" width="6" x="1780.5" y="756.7422"/><text fill="#000000" font-family="sans-serif" font-size="14" lengthAdjust="spacing" textLength="248" x="1792.5" y="763.0889">dhcpService *DHCP4ServerService</text><line style="stroke:#181818;stroke-width:1.0;" x1="1773.5" x2="2796.5" y1="770.3906" y2="770.3906"/><rect fill="none" height="6" style="stroke:#C82930;stroke-width:1.0;" width="6" x="1780.5" y="781.0391"/><text fill="#000000" font-family="sans-serif" font-size="14" lengthAdjust="spacing" textLength="222" x="1792.5" y="787.3857">tftpService *TFTPServerService</text><line style="stroke:#181818;stroke-width:1.0;" x1="1773.5" x2="2796.5" y1="794.6875" y2="794.6875"/><rect fill="none" height="6" style="stroke:#C82930;stroke-width:1.0;" width="6" x="1780.5" y="805.3359"/><text fill="#000000" font-family="sans-serif" font-size="14" lengthAdjust="spacing" textLength="295" x="1792.5" y="811.6826">hostNetworkService *HostNetworkService</text><line style="stroke:#181818;stroke-width:1.0;" x1="1773.5" x2="2796.5" y1="818.9844" y2="818.9844"/><rect fill="none" height="6" style="stroke:#C82930;stroke-width:1.0;" width="6" x="1780.5" y="829.6328"/><text fill="#000000" font-family="sans-serif" font-size="14" lengthAdjust="spacing" textLength="155" x="1792.5" y="835.9795">logger *logrus.Logger</text><line style="stroke:#181818;stroke-width:1.0;" x1="1773.5" x2="2796.5" y1="843.2813" y2="843.2813"/><ellipse cx="1783.5" cy="856.9297" fill="#84BE84" rx="3" ry="3" style="stroke:#038048;stroke-width:1.0;"/><text fill="#000000" font-family="sans-serif" font-size="14" lengthAdjust="spacing" textLength="999" x="1792.5" y="860.2764">GetList(ctx context.Context, search string, orderBy string, orderDirection string, page int, pageSize int) (PaginatedItemsDto[ProjectDto], error)</text><line style="stroke:#181818;stroke-width:1.0;" x1="1773.5" x2="2796.5" y1="867.5781" y2="867.5781"/><ellipse cx="1783.5" cy="881.2266" fill="#84BE84" rx="3" ry="3" style="stroke:#038048;stroke-width:1.0;"/><text fill="#000000" font-family="sans-serif" font-size="14" lengthAdjust="spacing" textLength="432" x="1792.5" y="884.5732">GetByID(ctx context.Context, id uuid.UUID) (ProjectDto, error)</text><line style="stroke:#181818;stroke-width:1.0;" x1="1773.5" x2="2796.5" y1="891.875" y2="891.875"/><ellipse cx="1783.5" cy="905.5234" fill="#84BE84" rx="3" ry="3" style="stroke:#038048;stroke-width:1.0;"/><text fill="#000000" font-family="sans-serif" font-size="14" lengthAdjust="spacing" textLength="532" x="1792.5" y="908.8701">Create(ctx context.Context, createDto ProjectCreateDto) (ProjectDto, error)</text><line style="stroke:#181818;stroke-width:1.0;" x1="1773.5" x2="2796.5" y1="916.1719" y2="916.1719"/><ellipse cx="1783.5" cy="929.8203" fill="#84BE84" rx="3" ry="3" style="stroke:#038048;stroke-width:1.0;"/><text fill="#000000" font-family="sans-serif" font-size="14" lengthAdjust="spacing" textLength="329" x="1792.5" y="933.167">Delete(ctx context.Context, id uuid.UUID) error</text></g><!--MD5=[1045d07ae824aea072cabb0fb8284887]
class EntityUUID--><g id="elem_EntityUUID"><rect codeLine="5" fill="#F1F1F1" height="48" id="EntityUUID" rx="2.5" ry="2.5" style="stroke:#181818;stroke-width:0.5;" width="107" x="621.5" y="287"/><ellipse cx="636.5" cy="303" fill="#ADD1B2" rx="11" ry="11" style="stroke:#181818;stroke-width:1.0;"/><path d="M639.4688,308.6406 Q638.8906,308.9375 638.25,309.0781 Q637.6094,309.2344 636.9063,309.2344 Q634.4063,309.2344 633.0781,307.5938 Q631.7656,305.9375 631.7656,302.8125 Q631.7656,299.6875 633.0781,298.0313 Q634.4063,296.375 636.9063,296.375 Q637.6094,296.375 638.25,296.5313 Q638.9063,296.6875 639.4688,296.9844 L639.4688,299.7031 Q638.8438,299.125 638.25,298.8594 Q637.6563,298.5781 637.0313,298.5781 Q635.6875,298.5781 635,299.6563 Q634.3125,300.7188 634.3125,302.8125 Q634.3125,304.9063 635,305.9844 Q635.6875,307.0469 637.0313,307.0469 Q637.6563,307.0469 638.25,306.7813 Q638.8438,306.5 639.4688,305.9219 L639.4688,308.6406 Z " fill="#000000"/><text fill="#000000" font-family="sans-serif" font-size="14" lengthAdjust="spacing" textLength="75" x="650.5" y="307.8467">EntityUUID</text><line style="stroke:#181818;stroke-width:0.5;" x1="622.5" x2="727.5" y1="319" y2="319"/><line style="stroke:#181818;stroke-width:0.5;" x1="622.5" x2="727.5" y1="327" y2="327"/></g><!--MD5=[be996cdb8e6bf2fc7cb89c555f2cd144]
class Entity--><g id="elem_Entity"><rect codeLine="8" fill="#F1F1F1" height="129.1875" id="Entity" rx="2.5" ry="2.5" style="stroke:#181818;stroke-width:0.5;" width="214" x="592" y="414"/><ellipse cx="651.75" cy="430" fill="#ADD1B2" rx="11" ry="11" style="stroke:#181818;stroke-width:1.0;"/><path d="M654.7188,435.6406 Q654.1406,435.9375 653.5,436.0781 Q652.8594,436.2344 652.1563,436.2344 Q649.6563,436.2344 648.3281,434.5938 Q647.0156,432.9375 647.0156,429.8125 Q647.0156,426.6875 648.3281,425.0313 Q649.6563,423.375 652.1563,423.375 Q652.8594,423.375 653.5,423.5313 Q654.1563,423.6875 654.7188,423.9844 L654.7188,426.7031 Q654.0938,426.125 653.5,425.8594 Q652.9063,425.5781 652.2813,425.5781 Q650.9375,425.5781 650.25,426.6563 Q649.5625,427.7188 649.5625,429.8125 Q649.5625,431.9063 650.25,432.9844 Q650.9375,434.0469 652.2813,434.0469 Q652.9063,434.0469 653.5,433.7813 Q654.0938,433.5 654.7188,432.9219 L654.7188,435.6406 Z " fill="#000000"/><text fill="#000000" font-family="sans-serif" font-size="14" lengthAdjust="spacing" textLength="40" x="672.25" y="434.8467">Entity</text><rect fill="#FFFFFF" height="15.9688" style="stroke:#181818;stroke-width:1.0;stroke-dasharray:2.0,2.0;" width="44" x="765" y="411"/><text fill="#000000" font-family="sans-serif" font-size="12" font-style="italic" lengthAdjust="spacing" textLength="42" x="766" y="423.1387">IDType</text><line style="stroke:#181818;stroke-width:0.5;" x1="593" x2="805" y1="446" y2="446"/><ellipse cx="603" cy="459.6484" fill="none" rx="3" ry="3" style="stroke:#038048;stroke-width:1.0;"/><text fill="#000000" font-family="sans-serif" font-size="14" lengthAdjust="spacing" textLength="69" x="612" y="462.9951">ID IDType</text><line style="stroke:#181818;stroke-width:1.0;" x1="593" x2="805" y1="470.2969" y2="470.2969"/><ellipse cx="603" cy="483.9453" fill="none" rx="3" ry="3" style="stroke:#038048;stroke-width:1.0;"/><text fill="#000000" font-family="sans-serif" font-size="14" lengthAdjust="spacing" textLength="148" x="612" y="487.292">CreatedAt time.Time</text><line style="stroke:#181818;stroke-width:1.0;" x1="593" x2="805" y1="494.5938" y2="494.5938"/><ellipse cx="603" cy="508.2422" fill="none" rx="3" ry="3" style="stroke:#038048;stroke-width:1.0;"/><text fill="#000000" font-family="sans-serif" font-size="14" lengthAdjust="spacing" textLength="158" x="612" y="511.5889">UpdatedAt *time.Time</text><line style="stroke:#181818;stroke-width:1.0;" x1="593" x2="805" y1="518.8906" y2="518.8906"/><ellipse cx="603" cy="532.5391" fill="none" rx="3" ry="3" style="stroke:#038048;stroke-width:1.0;"/><text fill="#000000" font-family="sans-serif" font-size="14" lengthAdjust="spacing" textLength="188" x="612" y="535.8857">DeletedAt gorm.DeletedAt</text></g><!--MD5=[79d378210367c0c6ec62ef762ddfbd1b]
class Project--><g id="elem_Project"><rect codeLine="5" fill="#F1F1F1" height="153.4844" id="Project" rx="2.5" ry="2.5" style="stroke:#181818;stroke-width:0.5;" width="202" x="598" y="57"/><ellipse cx="670.25" cy="73" fill="#ADD1B2" rx="11" ry="11" style="stroke:#181818;stroke-width:1.0;"/><path d="M673.2188,78.6406 Q672.6406,78.9375 672,79.0781 Q671.3594,79.2344 670.6563,79.2344 Q668.1563,79.2344 666.8281,77.5938 Q665.5156,75.9375 665.5156,72.8125 Q665.5156,69.6875 666.8281,68.0313 Q668.1563,66.375 670.6563,66.375 Q671.3594,66.375 672,66.5313 Q672.6563,66.6875 673.2188,66.9844 L673.2188,69.7031 Q672.5938,69.125 672,68.8594 Q671.4063,68.5781 670.7813,68.5781 Q669.4375,68.5781 668.75,69.6563 Q668.0625,70.7188 668.0625,72.8125 Q668.0625,74.9063 668.75,75.9844 Q669.4375,77.0469 670.7813,77.0469 Q671.4063,77.0469 672,76.7813 Q672.5938,76.5 673.2188,75.9219 L673.2188,78.6406 Z " fill="#000000"/><text fill="#000000" font-family="sans-serif" font-size="14" lengthAdjust="spacing" textLength="49" x="690.75" y="77.8467">Project</text><line style="stroke:#181818;stroke-width:0.5;" x1="599" x2="799" y1="89" y2="89"/><ellipse cx="609" cy="102.6484" fill="none" rx="3" ry="3" style="stroke:#038048;stroke-width:1.0;"/><text fill="#000000" font-family="sans-serif" font-size="14" lengthAdjust="spacing" textLength="86" x="618" y="105.9951">Name string</text><line style="stroke:#181818;stroke-width:1.0;" x1="599" x2="799" y1="113.2969" y2="113.2969"/><ellipse cx="609" cy="126.9453" fill="none" rx="3" ry="3" style="stroke:#038048;stroke-width:1.0;"/><text fill="#000000" font-family="sans-serif" font-size="14" lengthAdjust="spacing" textLength="133" x="618" y="130.292">BridgeName string</text><line style="stroke:#181818;stroke-width:1.0;" x1="599" x2="799" y1="137.5938" y2="137.5938"/><ellipse cx="609" cy="151.2422" fill="none" rx="3" ry="3" style="stroke:#038048;stroke-width:1.0;"/><text fill="#000000" font-family="sans-serif" font-size="14" lengthAdjust="spacing" textLength="94" x="618" y="154.5889">Subnet string</text><line style="stroke:#181818;stroke-width:1.0;" x1="599" x2="799" y1="161.8906" y2="161.8906"/><ellipse cx="609" cy="175.5391" fill="none" rx="3" ry="3" style="stroke:#038048;stroke-width:1.0;"/><text fill="#000000" font-family="sans-serif" font-size="14" lengthAdjust="spacing" textLength="176" x="618" y="178.8857">DHCPServerID uuid.UUID</text><line style="stroke:#181818;stroke-width:1.0;" x1="599" x2="799" y1="186.1875" y2="186.1875"/><ellipse cx="609" cy="199.8359" fill="none" rx="3" ry="3" style="stroke:#038048;stroke-width:1.0;"/><text fill="#000000" font-family="sans-serif" font-size="14" lengthAdjust="spacing" textLength="170" x="618" y="203.1826">TFTPServerID uuid.UUID</text></g><!--MD5=[27abfb56f32eefa7f07c83348fb1ee32]
class GormGenericRepository--><g id="elem_GormGenericRepository"><rect codeLine="5" fill="#F1F1F1" height="48" id="GormGenericRepository" rx="2.5" ry="2.5" style="stroke:#181818;stroke-width:0.5;" width="323" x="1052.5" y="454.5"/><ellipse cx="1067.5" cy="470.5" fill="#ADD1B2" rx="11" ry="11" style="stroke:#181818;stroke-width:1.0;"/><path d="M1070.4688,476.1406 Q1069.8906,476.4375 1069.25,476.5781 Q1068.6094,476.7344 1067.9063,476.7344 Q1065.4063,476.7344 1064.0781,475.0938 Q1062.7656,473.4375 1062.7656,470.3125 Q1062.7656,467.1875 1064.0781,465.5313 Q1065.4063,463.875 1067.9063,463.875 Q1068.6094,463.875 1069.25,464.0313 Q1069.9063,464.1875 1070.4688,464.4844 L1070.4688,467.2031 Q1069.8438,466.625 1069.25,466.3594 Q1068.6563,466.0781 1068.0313,466.0781 Q1066.6875,466.0781 1066,467.1563 Q1065.3125,468.2188 1065.3125,470.3125 Q1065.3125,472.4063 1066,473.4844 Q1066.6875,474.5469 1068.0313,474.5469 Q1068.6563,474.5469 1069.25,474.2813 Q1069.8438,474 1070.4688,473.4219 L1070.4688,476.1406 Z " fill="#000000"/><text fill="#000000" font-family="sans-serif" font-size="14" lengthAdjust="spacing" textLength="172" x="1081.5" y="475.3467">GormGenericRepository</text><rect fill="#FFFFFF" height="15.9688" style="stroke:#181818;stroke-width:1.0;stroke-dasharray:2.0,2.0;" width="117" x="1261.5" y="451.5"/><text fill="#000000" font-family="sans-serif" font-size="12" font-style="italic" lengthAdjust="spacing" textLength="115" x="1262.5" y="463.6387">IDType, EntityType</text><line style="stroke:#181818;stroke-width:0.5;" x1="1053.5" x2="1374.5" y1="486.5" y2="486.5"/><line style="stroke:#181818;stroke-width:0.5;" x1="1053.5" x2="1374.5" y1="494.5" y2="494.5"/></g><!--MD5=[e6f7ee3ae4c217a01980122c523c7064]
class GormProjectRepository--><g id="elem_GormProjectRepository"><rect codeLine="5" fill="#F1F1F1" height="48" id="GormProjectRepository" rx="2.5" ry="2.5" style="stroke:#181818;stroke-width:0.5;" width="197" x="1162.5" y="109.5"/><ellipse cx="1177.5" cy="125.5" fill="#ADD1B2" rx="11" ry="11" style="stroke:#181818;stroke-width:1.0;"/><path d="M1180.4688,131.1406 Q1179.8906,131.4375 1179.25,131.5781 Q1178.6094,131.7344 1177.9063,131.7344 Q1175.4063,131.7344 1174.0781,130.0938 Q1172.7656,128.4375 1172.7656,125.3125 Q1172.7656,122.1875 1174.0781,120.5313 Q1175.4063,118.875 1177.9063,118.875 Q1178.6094,118.875 1179.25,119.0313 Q1179.9063,119.1875 1180.4688,119.4844 L1180.4688,122.2031 Q1179.8438,121.625 1179.25,121.3594 Q1178.6563,121.0781 1178.0313,121.0781 Q1176.6875,121.0781 1176,122.1563 Q1175.3125,123.2188 1175.3125,125.3125 Q1175.3125,127.4063 1176,128.4844 Q1176.6875,129.5469 1178.0313,129.5469 Q1178.6563,129.5469 1179.25,129.2813 Q1179.8438,129 1180.4688,128.4219 L1180.4688,131.1406 Z " fill="#000000"/><text fill="#000000" font-family="sans-serif" font-size="14" lengthAdjust="spacing" textLength="165" x="1191.5" y="130.3467">GormProjectRepository</text><line style="stroke:#181818;stroke-width:0.5;" x1="1163.5" x2="1358.5" y1="141.5" y2="141.5"/><line style="stroke:#181818;stroke-width:0.5;" x1="1163.5" x2="1358.5" y1="149.5" y2="149.5"/></g><g id="elem_ProjectTypeNote"><path d="M1069.5,298.5 L1069.5,323.6328 L1224.5,323.6328 L1224.5,308.5 L1214.5,298.5 L1069.5,298.5 " fill="#FEFFDD" style="stroke:#181818;stroke-width:0.5;"/><path d="M1214.5,298.5 L1214.5,308.5 L1224.5,308.5 L1214.5,298.5 " fill="#FEFFDD" style="stroke:#181818;stroke-width:1.0;"/><text fill="#000000" font-family="sans-serif" font-size="13" lengthAdjust="spacing" textLength="134" x="1075.5" y="315.5669">EntityType is Project</text></g><!--MD5=[46f5cf87f89447cb7282802b2b81fb05]
class ProjectController--><g id="elem_ProjectController"><rect codeLine="5" fill="#F1F1F1" height="177.7813" id="ProjectController" rx="2.5" ry="2.5" style="stroke:#181818;stroke-width:0.5;" width="293" x="2304.5" y="45"/><ellipse cx="2386.75" cy="61" fill="#ADD1B2" rx="11" ry="11" style="stroke:#181818;stroke-width:1.0;"/><path d="M2389.7188,66.6406 Q2389.1406,66.9375 2388.5,67.0781 Q2387.8594,67.2344 2387.1563,67.2344 Q2384.6563,67.2344 2383.3281,65.5938 Q2382.0156,63.9375 2382.0156,60.8125 Q2382.0156,57.6875 2383.3281,56.0313 Q2384.6563,54.375 2387.1563,54.375 Q2387.8594,54.375 2388.5,54.5313 Q2389.1563,54.6875 2389.7188,54.9844 L2389.7188,57.7031 Q2389.0938,57.125 2388.5,56.8594 Q2387.9063,56.5781 2387.2813,56.5781 Q2385.9375,56.5781 2385.25,57.6563 Q2384.5625,58.7188 2384.5625,60.8125 Q2384.5625,62.9063 2385.25,63.9844 Q2385.9375,65.0469 2387.2813,65.0469 Q2387.9063,65.0469 2388.5,64.7813 Q2389.0938,64.5 2389.7188,63.9219 L2389.7188,66.6406 Z " fill="#000000"/><text fill="#000000" font-family="sans-serif" font-size="14" lengthAdjust="spacing" textLength="120" x="2407.25" y="65.8467">ProjectController</text><line style="stroke:#181818;stroke-width:0.5;" x1="2305.5" x2="2596.5" y1="77" y2="77"/><rect fill="none" height="6" style="stroke:#C82930;stroke-width:1.0;" width="6" x="2312.5" y="87.6484"/><text fill="#000000" font-family="sans-serif" font-size="14" lengthAdjust="spacing" textLength="267" x="2324.5" y="93.9951">service *services.HostNetworkService</text><line style="stroke:#181818;stroke-width:1.0;" x1="2305.5" x2="2596.5" y1="101.2969" y2="101.2969"/><rect fill="none" height="6" style="stroke:#C82930;stroke-width:1.0;" width="6" x="2312.5" y="111.9453"/><text fill="#000000" font-family="sans-serif" font-size="14" lengthAdjust="spacing" textLength="159" x="2324.5" y="118.292">logger  *logrus.Logger</text><line style="stroke:#181818;stroke-width:1.0;" x1="2305.5" x2="2596.5" y1="125.5938" y2="125.5938"/><ellipse cx="2315.5" cy="139.2422" fill="#84BE84" rx="3" ry="3" style="stroke:#038048;stroke-width:1.0;"/><text fill="#000000" font-family="sans-serif" font-size="14" lengthAdjust="spacing" textLength="172" x="2324.5" y="142.5889">GetList(ctx *gin.Context)</text><line style="stroke:#181818;stroke-width:1.0;" x1="2305.5" x2="2596.5" y1="149.8906" y2="149.8906"/><ellipse cx="2315.5" cy="163.5391" fill="#84BE84" rx="3" ry="3" style="stroke:#038048;stroke-width:1.0;"/><text fill="#000000" font-family="sans-serif" font-size="14" lengthAdjust="spacing" textLength="181" x="2324.5" y="166.8857">GetByID(ctx *gin.Context)</text><line style="stroke:#181818;stroke-width:1.0;" x1="2305.5" x2="2596.5" y1="174.1875" y2="174.1875"/><ellipse cx="2315.5" cy="187.8359" fill="#84BE84" rx="3" ry="3" style="stroke:#038048;stroke-width:1.0;"/><text fill="#000000" font-family="sans-serif" font-size="14" lengthAdjust="spacing" textLength="171" x="2324.5" y="191.1826">Create(ctx *gin.Context)</text><line style="stroke:#181818;stroke-width:1.0;" x1="2305.5" x2="2596.5" y1="198.4844" y2="198.4844"/><ellipse cx="2315.5" cy="212.1328" fill="#84BE84" rx="3" ry="3" style="stroke:#038048;stroke-width:1.0;"/><text fill="#000000" font-family="sans-serif" font-size="14" lengthAdjust="spacing" textLength="170" x="2324.5" y="215.4795">Delete(ctx *gin.Context)</text></g><path d="M2080.5,63 L2080.5,88.1328 A0,0 0 0 0 2080.5,88.1328 L2253.5,88.1328 A0,0 0 0 0 2253.5,88.1328 L2253.5,81 L2308.5,137.7422 L2253.5,73 L2253.5,73 L2243.5,63 L2080.5,63 A0,0 0 0 0 2080.5,63 " fill="#FEFFDD" style="stroke:#181818;stroke-width:0.5;"/><path d="M2243.5,63 L2243.5,73 L2253.5,73 L2243.5,63 " fill="#FEFFDD" style="stroke:#181818;stroke-width:0.5;"/><text fill="#000000" font-family="sans-serif" font-size="13" lengthAdjust="spacing" textLength="152" x="2086.5" y="80.0669">Get list of user projects</text><path d="M2080.5,98.1328 L2080.5,123.2656 A0,0 0 0 0 2080.5,123.2656 L2248.5,123.2656 A0,0 0 0 0 2248.5,123.2656 L2248.5,116.1328 L2308.5,162.0391 L2248.5,108.1328 L2248.5,108.1328 L2238.5,98.1328 L2080.5,98.1328 A0,0 0 0 0 2080.5,98.1328 " fill="#FEFFDD" style="stroke:#181818;stroke-width:0.5;"/><path d="M2238.5,98.1328 L2238.5,108.1328 L2248.5,108.1328 L2238.5,98.1328 " fill="#FEFFDD" style="stroke:#181818;stroke-width:0.5;"/><text fill="#000000" font-family="sans-serif" font-size="13" lengthAdjust="spacing" textLength="147" x="2086.5" y="115.1997">Gets user project by id</text><path d="M2080.5,133.2656 L2080.5,158.3984 A0,0 0 0 0 2080.5,158.3984 L2256.5,158.3984 A0,0 0 0 0 2256.5,158.3984 L2256.5,151.2656 L2308.5,186.3359 L2256.5,143.2656 L2256.5,143.2656 L2246.5,133.2656 L2080.5,133.2656 A0,0 0 0 0 2080.5,133.2656 " fill="#FEFFDD" style="stroke:#181818;stroke-width:0.5;"/><path d="M2246.5,133.2656 L2246.5,143.2656 L2256.5,143.2656 L2246.5,133.2656 " fill="#FEFFDD" style="stroke:#181818;stroke-width:0.5;"/><text fill="#000000" font-family="sans-serif" font-size="13" lengthAdjust="spacing" textLength="155" x="2086.5" y="150.3325">Create new user project</text><path d="M2080.5,168.3984 L2080.5,193.5313 A0,0 0 0 0 2080.5,193.5313 L2261.5,193.5313 A0,0 0 0 0 2261.5,193.5313 L2261.5,186.3984 L2308.5,210.6328 L2261.5,178.3984 L2261.5,178.3984 L2251.5,168.3984 L2080.5,168.3984 A0,0 0 0 0 2080.5,168.3984 " fill="#FEFFDD" style="stroke:#181818;stroke-width:0.5;"/><path d="M2251.5,168.3984 L2251.5,178.3984 L2261.5,178.3984 L2251.5,168.3984 " fill="#FEFFDD" style="stroke:#181818;stroke-width:0.5;"/><text fill="#000000" font-family="sans-serif" font-size="13" lengthAdjust="spacing" textLength="160" x="2086.5" y="185.4653">Delete user project by id</text><!--MD5=[1712eac84c0e5947c8dd59bef42720a3]
class UserProjectService--><g id="elem_UserProjectService"><rect fill="#F1F1F1" height="48" id="UserProjectService" rx="2.5" ry="2.5" style="stroke:#181818;stroke-width:0.5;" width="166" x="2369" y="287"/><ellipse cx="2384" cy="303" fill="#ADD1B2" rx="11" ry="11" style="stroke:#181818;stroke-width:1.0;"/><path d="M2386.9688,308.6406 Q2386.3906,308.9375 2385.75,309.0781 Q2385.1094,309.2344 2384.4063,309.2344 Q2381.9063,309.2344 2380.5781,307.5938 Q2379.2656,305.9375 2379.2656,302.8125 Q2379.2656,299.6875 2380.5781,298.0313 Q2381.9063,296.375 2384.4063,296.375 Q2385.1094,296.375 2385.75,296.5313 Q2386.4063,296.6875 2386.9688,296.9844 L2386.9688,299.7031 Q2386.3438,299.125 2385.75,298.8594 Q2385.1563,298.5781 2384.5313,298.5781 Q2383.1875,298.5781 2382.5,299.6563 Q2381.8125,300.7188 2381.8125,302.8125 Q2381.8125,304.9063 2382.5,305.9844 Q2383.1875,307.0469 2384.5313,307.0469 Q2385.1563,307.0469 2385.75,306.7813 Q2386.3438,306.5 2386.9688,305.9219 L2386.9688,308.6406 Z " fill="#000000"/><text fill="#000000" font-family="sans-serif" font-size="14" lengthAdjust="spacing" textLength="134" x="2398" y="307.8467">UserProjectService</text><line style="stroke:#181818;stroke-width:0.5;" x1="2370" x2="2534" y1="319" y2="319"/><line style="stroke:#181818;stroke-width:0.5;" x1="2370" x2="2534" y1="327" y2="327"/></g><!--MD5=[4afd32b9c3a651e50eee9a88aa9ac7c6]
link EntityUUID to Entity--><g id="link_EntityUUID_Entity"><path codeLine="7" d="M678.34,335.01 C680.83,352.17 684.38,376.67 687.84,400.53 " fill="none" id="EntityUUID-to-Entity" style="stroke:#181818;stroke-width:1.0;"/><polygon fill="#181818" points="689.74,413.67,692.8351,407.1569,688.0134,401.7949,684.9183,408.308,689.74,413.67" style="stroke:#181818;stroke-width:1.0;"/><text fill="#000000" font-family="sans-serif" font-size="13" lengthAdjust="spacing" textLength="131" x="685" y="380.0669">IDType is uuid.UUID</text></g><!--MD5=[a6c7a0eda5b041e127f539f1664bb96a]
link Entity to IEntityModel--><g id="link_Entity_IEntityModel"><path codeLine="17" d="M591.84,481.73 C496.09,488.74 356.3,511.9 259,584 C213.53,617.69 181.58,672.91 161.1,719.27 " fill="none" id="Entity-to-IEntityModel" style="stroke:#181818;stroke-width:1.0;stroke-dasharray:7.0,7.0;"/><polygon fill="none" points="167.49,722.13,153.28,737.85,154.58,716.7,167.49,722.13" style="stroke:#181818;stroke-width:1.0;"/></g><!--MD5=[5bf434ab4ad145639414dba1b1e9726f]
link Project to EntityUUID--><g id="link_Project_EntityUUID"><path codeLine="16" d="M687.34,210.27 C685.13,225.41 682.92,241.2 681,256 C680.26,261.68 679.54,267.71 678.86,273.6 " fill="none" id="Project-to-EntityUUID" style="stroke:#181818;stroke-width:1.0;"/><polygon fill="#181818" points="677.38,286.85,682.0208,281.3307,678.711,274.924,674.0702,280.4434,677.38,286.85" style="stroke:#181818;stroke-width:1.0;"/></g><!--MD5=[1b84833638557571905b03f54e842c8c]
link GormGenericRepository to IGenericRepository--><g id="link_GormGenericRepository_IGenericRepository"><path codeLine="7" d="M1214,502.66 C1214,533.03 1214,588.99 1214,644.34 " fill="none" id="GormGenericRepository-to-IGenericRepository" style="stroke:#181818;stroke-width:1.0;stroke-dasharray:7.0,7.0;"/><polygon fill="none" points="1221,644.66,1214,664.66,1207,644.66,1221,644.66" style="stroke:#181818;stroke-width:1.0;"/></g><!--MD5=[9e8ca88172389d83445f74356e6c47ed]
link GormProjectRepository to GormGenericRepository--><g id="link_GormProjectRepository_GormGenericRepository"><path codeLine="7" d="M1260.17,157.58 C1258.45,198.42 1253.65,286 1242,359 C1237.54,386.92 1230.1,418.01 1224.01,441.34 " fill="none" id="GormProjectRepository-to-GormGenericRepository" style="stroke:#181818;stroke-width:1.0;"/><polygon fill="#181818" points="1220.61,454.1,1226.024,449.3367,1223.7093,442.5072,1218.2954,447.2705,1220.61,454.1" style="stroke:#181818;stroke-width:1.0;"/></g><!--MD5=[d30c114d66083bd5743f8f7dbaef1ff8]
link GormProjectRepository to ProjectTypeNote--><g id="link_GormProjectRepository_ProjectTypeNote"><path codeLine="12" d="M1245.86,157.81 C1221.15,195.85 1173.04,269.91 1154.52,298.42 " fill="none" id="GormProjectRepository-ProjectTypeNote" style="stroke:#181818;stroke-width:1.0;stroke-dasharray:7.0,7.0;"/></g><!--MD5=[53a3241ca9f96f162fe9a25d8d46e89c]
link ProjectTypeNote to GormGenericRepository--><g id="link_ProjectTypeNote_GormGenericRepository"><path codeLine="13" d="M1151.71,323.64 C1162.2,349.55 1187.73,412.62 1202.65,449.46 " fill="none" id="ProjectTypeNote-to-GormGenericRepository" style="stroke:#181818;stroke-width:1.0;stroke-dasharray:7.0,7.0;"/><polygon fill="#181818" points="1204.59,454.26,1204.9353,444.4172,1202.7208,449.6226,1197.5154,447.408,1204.59,454.26" style="stroke:#181818;stroke-width:1.0;"/></g><!--MD5=[7187d617b08208f7897573aa1ae262cb]
link Project to ProjectTypeNote--><g id="link_Project_ProjectTypeNote"><path codeLine="14" d="M800.1,174.1 C902.3,214.14 1053.92,273.54 1117.39,298.4 " fill="none" id="Project-ProjectTypeNote" style="stroke:#181818;stroke-width:1.0;stroke-dasharray:7.0,7.0;"/></g><!--MD5=[f97441cd1dce10faf80c8aa13cd9319b]
link GormProjectRepository to ProjectService--><g id="link_GormProjectRepository_ProjectService"><path codeLine="27" d="M1299.52,157.71 C1393.02,216.26 1632.72,379.94 1747,584 C1760.89,608.81 1743.56,709.5 1772,709.5 " fill="none" id="GormProjectRepository-ProjectService" style="stroke:#181818;stroke-width:1.0;"/></g><!--MD5=[40a412e93bbaa41e40033056249edd09]
link ProjectController to UserProjectService--><g id="link_ProjectController_UserProjectService"><path codeLine="36" d="M2599,89.5 C2659.67,89.5 2628.57,173.59 2598,226 C2581.57,254.17 2551.76,273.73 2523.34,286.84 " fill="none" id="ProjectController-UserProjectService" style="stroke:#181818;stroke-width:1.0;"/></g><!--MD5=[0c5a0610cde60ddd2207001ec96a847f]
@startuml

!include ../services/ProjectService.puml

package controllers {
    class ProjectController {
        -service *services.HostNetworkService
        - -
        -logger  *logrus.Logger
        - -
        +GetList(ctx *gin.Context)
        - -
        +GetByID(ctx *gin.Context)
        - -
        +Create(ctx *gin.Context)
        - -
        +Delete(ctx *gin.Context)
    }

    note left of ProjectController::GetList
    Get list of user projects
    end note

    note left of ProjectController::GetByID
    Gets user project by id
    end note

    note left of ProjectController::Create
    Create new user project
    end note

    note left of ProjectController::Delete
    Delete user project by id
    end note


    UserProjectService -up- ProjectController::service
}

@enduml

@startuml





package app {
    interface IEntityModel<IDType> {
        +GetID() IDType
        - -
        +GetCreatedAt() time.Time
        - -
        +GetUpdatedAt() *time.Time
        - -
        +GetDeletedAt() *time.Time
    }
}


package domain {
    class EntityUUID {
    }
    EntityUUID - -* Entity : IDType is uuid.UUID
    class Entity<IDType> {
        +ID IDType
        - -
        +CreatedAt time.Time
        - -
        +UpdatedAt *time.Time
        - -
        +DeletedAt gorm.DeletedAt
    }
    Entity .down.|> IEntityModel
}


package domain {
    class Project {
        +Name string
        - -
        +BridgeName string
        - -
        +Subnet string
        - -
        +DHCPServerID uuid.UUID
        - -
        +TFTPServerID uuid.UUID
    }
    Project -down-* EntityUUID
}



package app {
    interface IGenericRepository<IDType, interfaces.IEntityModel[IDType]> {
        +GetList(ctx context.Context, orderBy string, orderDirection string, page int, size int, queryBuilder interfaces.IQueryBuilder) ([]EntityType, error)
        - -
        +Count(ctx context.Context, queryBuilder interfaces.IQueryBuilder) (int, error)
        - -
        +IsExist(ctx context.Context, id IDType, queryBuilder interfaces.IQueryBuilder) (bool, error)
        - -
        +NewQueryBuilder(ctx context.Context) interfaces.IQueryBuilder
        - -
        +GetById(ctx context.Context, id IDType) (EntityType, error)
        - -
        +Update(ctx context.Context, entity EntityType) (EntityType, error)
        - -
        +Insert(ctx context.Context, entity EntityType) (EntityType, error)
        - -
        +Delete(ctx context.Context, id IDType) error
        - -
        +DeleteAll(ctx context.Context, queryBuilder interfaces.IQueryBuilder) error
        - -
        +Dispose() error
    }
    note left of IGenericRepository::GetList
      Get list of elements with filtering and pagination
    end note

    note left of IGenericRepository::Count
      Get count of entities with filtering
    end note

    note left of IGenericRepository::IsExist
      Checks that entity with selected conditions is existed
    end note

    note left of IGenericRepository::NewQueryBuilder
      Get new instance of the query builder
    end note

    note left of IGenericRepository::GetById
      Get entity by ID from repository
    end note

    note left of IGenericRepository::Update
      Save the changes to the existing entity in the repository
    end note

    note left of IGenericRepository::Insert
      Add entity to the repository
    end note

    note left of IGenericRepository::Delete
      Delete entity from repository
    end note

    note left of IGenericRepository::DeleteAll
      Delete entities with selected conditions
    end note

    note left of IGenericRepository::Dispose
      Dispose all allocated data
    end note
}


package infrastructure {
    class GormGenericRepository<IDType, EntityType>

    GormGenericRepository .down.|> IGenericRepository
}


package infrastructure {
    class GormProjectRepository

    GormProjectRepository -down-* GormGenericRepository


    note "EntityType is Project" as ProjectTypeNote

    GormProjectRepository .down. ProjectTypeNote
    GormGenericRepository <.up. ProjectTypeNote
    Project .. ProjectTypeNote
}

package app {
    class ProjectService {
        -repository IGenericRepository<uuid.UUID, domain.Project>
        - -
        -config *domain.AppConfig
        - -
        -dhcpService *DHCP4ServerService
        - -
        -tftpService *TFTPServerService
        - -
        -hostNetworkService *HostNetworkService
        - -
        -logger *logrus.Logger
        - -
        +GetList(ctx context.Context, search string, orderBy string, orderDirection string, page int, pageSize int) (PaginatedItemsDto[ProjectDto], error)
        - -
        +GetByID(ctx context.Context, id uuid.UUID) (ProjectDto, error)
        - -
        +Create(ctx context.Context, createDto ProjectCreateDto) (ProjectDto, error)
        - -
        +Delete(ctx context.Context, id uuid.UUID) error
    }

    GormProjectRepository - - ProjectService::repository
}

package controllers {
    class ProjectController {
        -service *services.HostNetworkService
        - -
        -logger  *logrus.Logger
        - -
        +GetList(ctx *gin.Context)
        - -
        +GetByID(ctx *gin.Context)
        - -
        +Create(ctx *gin.Context)
        - -
        +Delete(ctx *gin.Context)
    }

    note left of ProjectController::GetList
    Get list of user projects
    end note

    note left of ProjectController::GetByID
    Gets user project by id
    end note

    note left of ProjectController::Create
    Create new user project
    end note

    note left of ProjectController::Delete
    Delete user project by id
    end note


    UserProjectService -up- ProjectController::service
}

@enduml

PlantUML version 1.2022.13(Sat Nov 19 16:22:17 MSK 2022)
(GPL source distribution)
Java Runtime: OpenJDK Runtime Environment
JVM: OpenJDK 64-Bit Server VM
Default Encoding: UTF-8
Language: ru
Country: RU
--></g></svg>