<?xml version="1.0" encoding="UTF-8" standalone="no"?><svg xmlns="http://www.w3.org/2000/svg" xmlns:xlink="http://www.w3.org/1999/xlink" contentStyleType="text/css" height="297px" preserveAspectRatio="none" style="width:621px;height:297px;background:#FFFFFF;" version="1.1" viewBox="0 0 621 297" width="621px" zoomAndPan="magnify"><defs/><g><line style="stroke:#181818;stroke-width:0.5;stroke-dasharray:5.0,5.0;" x1="44" x2="44" y1="67.2969" y2="218.9609"/><line style="stroke:#181818;stroke-width:0.5;stroke-dasharray:5.0,5.0;" x1="215.5" x2="215.5" y1="67.2969" y2="218.9609"/><line style="stroke:#181818;stroke-width:0.5;stroke-dasharray:5.0,5.0;" x1="359.5" x2="359.5" y1="67.2969" y2="218.9609"/><line style="stroke:#181818;stroke-width:0.5;stroke-dasharray:5.0,5.0;" x1="503" x2="503" y1="67.2969" y2="218.9609"/><line style="stroke:#181818;stroke-width:0.5;stroke-dasharray:5.0,5.0;" x1="586.5" x2="586.5" y1="67.2969" y2="218.9609"/><text fill="#000000" font-family="sans-serif" font-size="14" lengthAdjust="spacing" textLength="73" x="5" y="63.9951">HttpServer</text><path d="M24,23 L24,47 M24,35 L41,35 " fill="none" style="stroke:#181818;stroke-width:0.5;"/><ellipse cx="53" cy="35" fill="#E2E2F0" rx="12" ry="12" style="stroke:#181818;stroke-width:0.5;"/><text fill="#000000" font-family="sans-serif" font-size="14" lengthAdjust="spacing" textLength="73" x="5" y="230.9561">HttpServer</text><path d="M24,238.2578 L24,262.2578 M24,250.2578 L41,250.2578 " fill="none" style="stroke:#181818;stroke-width:0.5;"/><ellipse cx="53" cy="250.2578" fill="#E2E2F0" rx="12" ry="12" style="stroke:#181818;stroke-width:0.5;"/><text fill="#000000" font-family="sans-serif" font-size="14" lengthAdjust="spacing" textLength="50" x="187.5" y="63.9951">Service</text><ellipse cx="215.5" cy="35" fill="#E2E2F0" rx="12" ry="12" style="stroke:#181818;stroke-width:0.5;"/><polygon fill="#181818" points="211.5,23,217.5,18,215.5,23,217.5,28,211.5,23" style="stroke:#181818;stroke-width:1.0;"/><text fill="#000000" font-family="sans-serif" font-size="14" lengthAdjust="spacing" textLength="50" x="187.5" y="230.9561">Service</text><ellipse cx="215.5" cy="250.2578" fill="#E2E2F0" rx="12" ry="12" style="stroke:#181818;stroke-width:0.5;"/><polygon fill="#181818" points="211.5,238.2578,217.5,233.2578,215.5,238.2578,217.5,243.2578,211.5,238.2578" style="stroke:#181818;stroke-width:1.0;"/><text fill="#000000" font-family="sans-serif" font-size="14" lengthAdjust="spacing" textLength="74" x="319.5" y="63.9951">Repository</text><ellipse cx="359.5" cy="35" fill="#E2E2F0" rx="12" ry="12" style="stroke:#181818;stroke-width:0.5;"/><line style="stroke:#181818;stroke-width:0.5;" x1="347.5" x2="371.5" y1="49" y2="49"/><text fill="#000000" font-family="sans-serif" font-size="14" lengthAdjust="spacing" textLength="74" x="319.5" y="230.9561">Repository</text><ellipse cx="359.5" cy="250.2578" fill="#E2E2F0" rx="12" ry="12" style="stroke:#181818;stroke-width:0.5;"/><line style="stroke:#181818;stroke-width:0.5;" x1="347.5" x2="371.5" y1="264.2578" y2="264.2578"/><rect fill="#E2E2F0" height="30.2969" style="stroke:#181818;stroke-width:0.5;" width="47" x="482" y="32"/><rect fill="#E2E2F0" height="30.2969" style="stroke:#181818;stroke-width:0.5;" width="47" x="478" y="36"/><text fill="#000000" font-family="sans-serif" font-size="14" lengthAdjust="spacing" textLength="33" x="485" y="55.9951">ORM</text><rect fill="#E2E2F0" height="30.2969" style="stroke:#181818;stroke-width:0.5;" width="47" x="482" y="217.9609"/><rect fill="#E2E2F0" height="30.2969" style="stroke:#181818;stroke-width:0.5;" width="47" x="478" y="221.9609"/><text fill="#000000" font-family="sans-serif" font-size="14" lengthAdjust="spacing" textLength="33" x="485" y="241.9561">ORM</text><text fill="#000000" font-family="sans-serif" font-size="14" lengthAdjust="spacing" textLength="18" x="574.5" y="63.9951">db</text><path d="M568.5,15 C568.5,5 586.5,5 586.5,5 C586.5,5 604.5,5 604.5,15 L604.5,41 C604.5,51 586.5,51 586.5,51 C586.5,51 568.5,51 568.5,41 L568.5,15 " fill="#E2E2F0" style="stroke:#181818;stroke-width:1.5;"/><path d="M568.5,15 C568.5,25 586.5,25 586.5,25 C586.5,25 604.5,25 604.5,15 " fill="none" style="stroke:#181818;stroke-width:1.5;"/><text fill="#000000" font-family="sans-serif" font-size="14" lengthAdjust="spacing" textLength="18" x="574.5" y="230.9561">db</text><path d="M568.5,244.2578 C568.5,234.2578 586.5,234.2578 586.5,234.2578 C586.5,234.2578 604.5,234.2578 604.5,244.2578 L604.5,270.2578 C604.5,280.2578 586.5,280.2578 586.5,280.2578 C586.5,280.2578 568.5,280.2578 568.5,270.2578 L568.5,244.2578 " fill="#E2E2F0" style="stroke:#181818;stroke-width:1.5;"/><path d="M568.5,244.2578 C568.5,254.2578 586.5,254.2578 586.5,254.2578 C586.5,254.2578 604.5,254.2578 604.5,244.2578 " fill="none" style="stroke:#181818;stroke-width:1.5;"/><polygon fill="#181818" points="55.5,109.5625,45.5,113.5625,55.5,117.5625,51.5,113.5625" style="stroke:#181818;stroke-width:1.0;"/><polygon fill="#181818" points="203.5,109.5625,213.5,113.5625,203.5,117.5625,207.5,113.5625" style="stroke:#181818;stroke-width:1.0;"/><line style="stroke:#181818;stroke-width:1.0;" x1="49.5" x2="209.5" y1="113.5625" y2="113.5625"/><text fill="#000000" font-family="sans-serif" font-size="13" lengthAdjust="spacing" textLength="27" x="61.5" y="93.3638">DTO</text><text fill="#000000" font-family="sans-serif" font-size="13" lengthAdjust="spacing" textLength="147" x="61.5" y="108.4966">(data transfer objects).</text><polygon fill="#181818" points="226.5,138.6953,216.5,142.6953,226.5,146.6953,222.5,142.6953" style="stroke:#181818;stroke-width:1.0;"/><polygon fill="#181818" points="347.5,138.6953,357.5,142.6953,347.5,146.6953,351.5,142.6953" style="stroke:#181818;stroke-width:1.0;"/><line style="stroke:#181818;stroke-width:1.0;" x1="220.5" x2="353.5" y1="142.6953" y2="142.6953"/><text fill="#000000" font-family="sans-serif" font-size="13" lengthAdjust="spacing" textLength="120" x="232.5" y="137.6294">Entities structures.</text><polygon fill="#181818" points="370.5,167.8281,360.5,171.8281,370.5,175.8281,366.5,171.8281" style="stroke:#181818;stroke-width:1.0;"/><polygon fill="#181818" points="491.5,167.8281,501.5,171.8281,491.5,175.8281,495.5,171.8281" style="stroke:#181818;stroke-width:1.0;"/><line style="stroke:#181818;stroke-width:1.0;" x1="364.5" x2="497.5" y1="171.8281" y2="171.8281"/><text fill="#000000" font-family="sans-serif" font-size="13" lengthAdjust="spacing" textLength="120" x="376.5" y="166.7622">Entities structures.</text><polygon fill="#181818" points="514.5,196.9609,504.5,200.9609,514.5,204.9609,510.5,200.9609" style="stroke:#181818;stroke-width:1.0;"/><line style="stroke:#181818;stroke-width:1.0;" x1="508.5" x2="585.5" y1="200.9609" y2="200.9609"/><text fill="#000000" font-family="sans-serif" font-size="13" lengthAdjust="spacing" textLength="59" x="520.5" y="195.895">db tables</text><!--MD5=[8128133736755d4fcee2a073bd7fe691]
@startuml DataInteraction
boundary    HttpServer  as httpServer
control     Service     as service
entity      Repository  as repository
collections ORM        as orm
database    db          as DB
httpServer <-> service : DTO\n(data transfer objects).
service <-> repository : Entities structures.
repository <-> orm : Entities structures.
orm <- DB : db tables
@enduml

PlantUML version 1.2022.4(Sat Apr 09 13:29:17 UTC 2022)
(GPL source distribution)
Java Runtime: OpenJDK Runtime Environment
JVM: OpenJDK 64-Bit Server VM
Default Encoding: UTF-8
Language: en
Country: null
--></g></svg>