<?xml version="1.0" encoding="UTF-8" standalone="no"?><svg xmlns="http://www.w3.org/2000/svg" xmlns:xlink="http://www.w3.org/1999/xlink" contentStyleType="text/css" height="253px" preserveAspectRatio="none" style="width:199px;height:253px;background:#FFFFFF;" version="1.1" viewBox="0 0 199 253" width="199px" zoomAndPan="magnify"><defs/><g><!--MD5=[ac65c812e7532cbcd7b9effd958b962e]
cluster dtos--><g id="cluster_dtos"><path d="M8.5,6 L44.5,6 A3.75,3.75 0 0 1 47,8.5 L54,28.2969 L189.5,28.2969 A2.5,2.5 0 0 1 192,30.7969 L192,243.5 A2.5,2.5 0 0 1 189.5,246 L8.5,246 A2.5,2.5 0 0 1 6,243.5 L6,8.5 A2.5,2.5 0 0 1 8.5,6 " fill="none" style="stroke:#000000;stroke-width:1.5;"/><line style="stroke:#000000;stroke-width:1.5;" x1="6" x2="54" y1="28.2969" y2="28.2969"/><text fill="#000000" font-family="sans-serif" font-size="14" font-weight="bold" lengthAdjust="spacing" textLength="35" x="10" y="20.9951">dtos</text></g><!--MD5=[b0bb09096d22b6f82c8caf44bd0f1812]
class ProjectBaseDto--><g id="elem_ProjectBaseDto"><rect codeLine="3" fill="#F1F1F1" height="80.5938" id="ProjectBaseDto" rx="2.5" ry="2.5" style="stroke:#181818;stroke-width:0.5;" width="141" x="28.5" y="149"/><ellipse cx="43.5" cy="165" fill="#ADD1B2" rx="11" ry="11" style="stroke:#181818;stroke-width:1.0;"/><path d="M46.4688,170.6406 Q45.8906,170.9375 45.25,171.0781 Q44.6094,171.2344 43.9063,171.2344 Q41.4063,171.2344 40.0781,169.5938 Q38.7656,167.9375 38.7656,164.8125 Q38.7656,161.6875 40.0781,160.0313 Q41.4063,158.375 43.9063,158.375 Q44.6094,158.375 45.25,158.5313 Q45.9063,158.6875 46.4688,158.9844 L46.4688,161.7031 Q45.8438,161.125 45.25,160.8594 Q44.6563,160.5781 44.0313,160.5781 Q42.6875,160.5781 42,161.6563 Q41.3125,162.7188 41.3125,164.8125 Q41.3125,166.9063 42,167.9844 Q42.6875,169.0469 44.0313,169.0469 Q44.6563,169.0469 45.25,168.7813 Q45.8438,168.5 46.4688,167.9219 L46.4688,170.6406 Z " fill="#000000"/><text fill="#000000" font-family="sans-serif" font-size="14" lengthAdjust="spacing" textLength="109" x="57.5" y="169.8467">ProjectBaseDto</text><line style="stroke:#181818;stroke-width:0.5;" x1="29.5" x2="168.5" y1="181" y2="181"/><ellipse cx="39.5" cy="194.6484" fill="none" rx="3" ry="3" style="stroke:#038048;stroke-width:1.0;"/><text fill="#000000" font-family="sans-serif" font-size="14" lengthAdjust="spacing" textLength="94" x="48.5" y="197.9951">Name   string</text><line style="stroke:#181818;stroke-width:1.0;" x1="29.5" x2="168.5" y1="205.2969" y2="205.2969"/><ellipse cx="39.5" cy="218.9453" fill="none" rx="3" ry="3" style="stroke:#038048;stroke-width:1.0;"/><text fill="#000000" font-family="sans-serif" font-size="14" lengthAdjust="spacing" textLength="94" x="48.5" y="222.292">Subnet string</text></g><!--MD5=[2d0e84187a19d52eca59fdd797d24065]
class ProjectCreateDto--><g id="elem_ProjectCreateDto"><rect codeLine="5" fill="#F1F1F1" height="48" id="ProjectCreateDto" rx="2.5" ry="2.5" style="stroke:#181818;stroke-width:0.5;" width="154" x="22" y="41"/><ellipse cx="37" cy="57" fill="#ADD1B2" rx="11" ry="11" style="stroke:#181818;stroke-width:1.0;"/><path d="M39.9688,62.6406 Q39.3906,62.9375 38.75,63.0781 Q38.1094,63.2344 37.4063,63.2344 Q34.9063,63.2344 33.5781,61.5938 Q32.2656,59.9375 32.2656,56.8125 Q32.2656,53.6875 33.5781,52.0313 Q34.9063,50.375 37.4063,50.375 Q38.1094,50.375 38.75,50.5313 Q39.4063,50.6875 39.9688,50.9844 L39.9688,53.7031 Q39.3438,53.125 38.75,52.8594 Q38.1563,52.5781 37.5313,52.5781 Q36.1875,52.5781 35.5,53.6563 Q34.8125,54.7188 34.8125,56.8125 Q34.8125,58.9063 35.5,59.9844 Q36.1875,61.0469 37.5313,61.0469 Q38.1563,61.0469 38.75,60.7813 Q39.3438,60.5 39.9688,59.9219 L39.9688,62.6406 Z " fill="#000000"/><text fill="#000000" font-family="sans-serif" font-size="14" lengthAdjust="spacing" textLength="122" x="51" y="61.8467">ProjectCreateDto</text><line style="stroke:#181818;stroke-width:0.5;" x1="23" x2="175" y1="73" y2="73"/><line style="stroke:#181818;stroke-width:0.5;" x1="23" x2="175" y1="81" y2="81"/></g><!--MD5=[7e71d198f4ddb178e4d6a33ffb04713d]
link ProjectCreateDto to ProjectBaseDto--><g id="link_ProjectCreateDto_ProjectBaseDto"><path codeLine="7" d="M99,89.04 C99,102.14 99,119.13 99,135.35 " fill="none" id="ProjectCreateDto-to-ProjectBaseDto" style="stroke:#181818;stroke-width:1.0;"/><polygon fill="#181818" points="99,148.69,103,142.69,99,136.69,95,142.69,99,148.69" style="stroke:#181818;stroke-width:1.0;"/></g><!--MD5=[7bbec13406784a41c7d7411ef673e7fa]
@startuml

!include ProjectBaseDto.puml

package dtos {
    class ProjectCreateDto

    ProjectCreateDto - -* ProjectBaseDto
}


@enduml

@startuml


package dtos {
    class ProjectBaseDto {
        +Name   string
        - -
        +Subnet string
    }
}


package dtos {
    class ProjectCreateDto

    ProjectCreateDto - -* ProjectBaseDto
}


@enduml

PlantUML version 1.2022.13(Sat Nov 19 16:22:17 MSK 2022)
(GPL source distribution)
Java Runtime: OpenJDK Runtime Environment
JVM: OpenJDK 64-Bit Server VM
Default Encoding: UTF-8
Language: ru
Country: RU
--></g></svg>