<?xml version="1.0" encoding="UTF-8" standalone="no"?><svg xmlns="http://www.w3.org/2000/svg" xmlns:xlink="http://www.w3.org/1999/xlink" contentStyleType="text/css" height="145px" preserveAspectRatio="none" style="width:187px;height:145px;background:#FFFFFF;" version="1.1" viewBox="0 0 187 145" width="187px" zoomAndPan="magnify"><defs/><g><!--MD5=[ac65c812e7532cbcd7b9effd958b962e]
cluster dtos--><g id="cluster_dtos"><path d="M8.5,6 L44.5,6 A3.75,3.75 0 0 1 47,8.5 L54,28.2969 L177.5,28.2969 A2.5,2.5 0 0 1 180,30.7969 L180,135.5 A2.5,2.5 0 0 1 177.5,138 L8.5,138 A2.5,2.5 0 0 1 6,135.5 L6,8.5 A2.5,2.5 0 0 1 8.5,6 " fill="none" style="stroke:#000000;stroke-width:1.5;"/><line style="stroke:#000000;stroke-width:1.5;" x1="6" x2="54" y1="28.2969" y2="28.2969"/><text fill="#000000" font-family="sans-serif" font-size="14" font-weight="bold" lengthAdjust="spacing" textLength="35" x="10" y="20.9951">dtos</text></g><!--MD5=[b0bb09096d22b6f82c8caf44bd0f1812]
class ProjectBaseDto--><g id="elem_ProjectBaseDto"><rect codeLine="3" fill="#F1F1F1" height="80.5938" id="ProjectBaseDto" rx="2.5" ry="2.5" style="stroke:#181818;stroke-width:0.5;" width="141" x="22.5" y="41"/><ellipse cx="37.5" cy="57" fill="#ADD1B2" rx="11" ry="11" style="stroke:#181818;stroke-width:1.0;"/><path d="M40.4688,62.6406 Q39.8906,62.9375 39.25,63.0781 Q38.6094,63.2344 37.9063,63.2344 Q35.4063,63.2344 34.0781,61.5938 Q32.7656,59.9375 32.7656,56.8125 Q32.7656,53.6875 34.0781,52.0313 Q35.4063,50.375 37.9063,50.375 Q38.6094,50.375 39.25,50.5313 Q39.9063,50.6875 40.4688,50.9844 L40.4688,53.7031 Q39.8438,53.125 39.25,52.8594 Q38.6563,52.5781 38.0313,52.5781 Q36.6875,52.5781 36,53.6563 Q35.3125,54.7188 35.3125,56.8125 Q35.3125,58.9063 36,59.9844 Q36.6875,61.0469 38.0313,61.0469 Q38.6563,61.0469 39.25,60.7813 Q39.8438,60.5 40.4688,59.9219 L40.4688,62.6406 Z " fill="#000000"/><text fill="#000000" font-family="sans-serif" font-size="14" lengthAdjust="spacing" textLength="109" x="51.5" y="61.8467">ProjectBaseDto</text><line style="stroke:#181818;stroke-width:0.5;" x1="23.5" x2="162.5" y1="73" y2="73"/><ellipse cx="33.5" cy="86.6484" fill="none" rx="3" ry="3" style="stroke:#038048;stroke-width:1.0;"/><text fill="#000000" font-family="sans-serif" font-size="14" lengthAdjust="spacing" textLength="94" x="42.5" y="89.9951">Name   string</text><line style="stroke:#181818;stroke-width:1.0;" x1="23.5" x2="162.5" y1="97.2969" y2="97.2969"/><ellipse cx="33.5" cy="110.9453" fill="none" rx="3" ry="3" style="stroke:#038048;stroke-width:1.0;"/><text fill="#000000" font-family="sans-serif" font-size="14" lengthAdjust="spacing" textLength="94" x="42.5" y="114.292">Subnet string</text></g><!--MD5=[9b5255b9aab2a649766e7b1461b7be22]
@startuml

package dtos {
    class ProjectBaseDto {
        +Name   string
        - -
        +Subnet string
    }
}

@enduml

PlantUML version 1.2022.13(Sat Nov 19 16:22:17 MSK 2022)
(GPL source distribution)
Java Runtime: OpenJDK Runtime Environment
JVM: OpenJDK 64-Bit Server VM
Default Encoding: UTF-8
Language: ru
Country: RU
--></g></svg>