<?xml version="1.0" encoding="UTF-8" standalone="no"?><svg xmlns="http://www.w3.org/2000/svg" xmlns:xlink="http://www.w3.org/1999/xlink" contentStyleType="text/css" height="721px" preserveAspectRatio="none" style="width:307px;height:721px;background:#FFFFFF;" version="1.1" viewBox="0 0 307 721" width="307px" zoomAndPan="magnify"><defs/><g><!--MD5=[d5ac3844f66b12d9e08170e47495e096]
cluster app--><g id="cluster_app"><path d="M33.5,534 L63.5,534 A3.75,3.75 0 0 1 66,536.5 L73,556.2969 L272.5,556.2969 A2.5,2.5 0 0 1 275,558.7969 L275,711.5 A2.5,2.5 0 0 1 272.5,714 L33.5,714 A2.5,2.5 0 0 1 31,711.5 L31,536.5 A2.5,2.5 0 0 1 33.5,534 " style="stroke:#000000;stroke-width:1.5;fill:none;"/><line style="stroke:#000000;stroke-width:1.5;fill:none;" x1="31" x2="73" y1="556.2969" y2="556.2969"/><text fill="#000000" font-family="sans-serif" font-size="14" font-weight="bold" lengthAdjust="spacing" textLength="29" x="35" y="548.9951">app</text></g><!--MD5=[27f772719433d509ddbc20ff768eba08]
cluster domain--><g id="cluster_domain"><path d="M8.5,6 L66.5,6 A3.75,3.75 0 0 1 69,8.5 L76,28.2969 L297.5,28.2969 A2.5,2.5 0 0 1 300,30.7969 L300,498.5 A2.5,2.5 0 0 1 297.5,501 L8.5,501 A2.5,2.5 0 0 1 6,498.5 L6,8.5 A2.5,2.5 0 0 1 8.5,6 " style="stroke:#000000;stroke-width:1.5;fill:none;"/><line style="stroke:#000000;stroke-width:1.5;fill:none;" x1="6" x2="76" y1="28.2969" y2="28.2969"/><text fill="#000000" font-family="sans-serif" font-size="14" font-weight="bold" lengthAdjust="spacing" textLength="57" x="10" y="20.9951">domain</text></g><!--MD5=[2a39a5be1cc24ddddd6e6286e4ece992]
class IEntityModel--><g id="elem_IEntityModel"><rect codeLine="3" fill="#F1F1F1" height="129.1875" id="IEntityModel" rx="2.5" ry="2.5" style="stroke:#181818;stroke-width:0.5;" width="213" x="46.5" y="569"/><ellipse cx="83.55" cy="585" fill="#B4A7E5" rx="11" ry="11" style="stroke:#181818;stroke-width:1.0;"/><path d="M79.4719,580.7656 L79.4719,578.6094 L86.8625,578.6094 L86.8625,580.7656 L84.3938,580.7656 L84.3938,588.8438 L86.8625,588.8438 L86.8625,591 L79.4719,591 L79.4719,588.8438 L81.9406,588.8438 L81.9406,580.7656 L79.4719,580.7656 Z " fill="#000000"/><text fill="#000000" font-family="sans-serif" font-size="14" font-style="italic" lengthAdjust="spacing" textLength="85" x="102.45" y="589.8467">IEntityModel</text><rect fill="#FFFFFF" height="15.9688" style="stroke:#000000;stroke-width:1.0;stroke-dasharray:2.0,2.0;" width="45" x="217.5" y="566"/><text fill="#000000" font-family="sans-serif" font-size="12" font-style="italic" lengthAdjust="spacing" textLength="43" x="218.5" y="578.1387">IDType</text><line style="stroke:#181818;stroke-width:0.5;" x1="47.5" x2="258.5" y1="601" y2="601"/><ellipse cx="57.5" cy="612" fill="#84BE84" rx="3" ry="3" style="stroke:#038048;stroke-width:1.0;"/><text fill="#000000" font-family="sans-serif" font-size="14" lengthAdjust="spacing" textLength="101" x="66.5" y="617.9951">GetID() IDType</text><line style="stroke:#181818;stroke-width:1.0;" x1="47.5" x2="258.5" y1="625.2969" y2="625.2969"/><ellipse cx="57.5" cy="636.2969" fill="#84BE84" rx="3" ry="3" style="stroke:#038048;stroke-width:1.0;"/><text fill="#000000" font-family="sans-serif" font-size="14" lengthAdjust="spacing" textLength="176" x="66.5" y="642.292">GetCreatedAt() time.Time</text><line style="stroke:#181818;stroke-width:1.0;" x1="47.5" x2="258.5" y1="649.5938" y2="649.5938"/><ellipse cx="57.5" cy="660.5938" fill="#84BE84" rx="3" ry="3" style="stroke:#038048;stroke-width:1.0;"/><text fill="#000000" font-family="sans-serif" font-size="14" lengthAdjust="spacing" textLength="187" x="66.5" y="666.5889">GetUpdatedAt() *time.Time</text><line style="stroke:#181818;stroke-width:1.0;" x1="47.5" x2="258.5" y1="673.8906" y2="673.8906"/><ellipse cx="57.5" cy="684.8906" fill="#84BE84" rx="3" ry="3" style="stroke:#038048;stroke-width:1.0;"/><text fill="#000000" font-family="sans-serif" font-size="14" lengthAdjust="spacing" textLength="183" x="66.5" y="690.8857">GetDeletedAt() *time.Time</text></g><!--MD5=[1045d07ae824aea072cabb0fb8284887]
class EntityUUID--><g id="elem_EntityUUID"><rect codeLine="5" fill="#F1F1F1" height="48" id="EntityUUID" rx="2.5" ry="2.5" style="stroke:#181818;stroke-width:0.5;" width="104" x="101" y="231"/><ellipse cx="116" cy="247" fill="#ADD1B2" rx="11" ry="11" style="stroke:#181818;stroke-width:1.0;"/><path d="M118.9688,252.6406 Q118.3906,252.9375 117.75,253.0781 Q117.1094,253.2344 116.4063,253.2344 Q113.9063,253.2344 112.5781,251.5938 Q111.2656,249.9375 111.2656,246.8125 Q111.2656,243.6875 112.5781,242.0313 Q113.9063,240.375 116.4063,240.375 Q117.1094,240.375 117.75,240.5313 Q118.4063,240.6875 118.9688,240.9844 L118.9688,243.7031 Q118.3438,243.125 117.75,242.8594 Q117.1563,242.5781 116.5313,242.5781 Q115.1875,242.5781 114.5,243.6563 Q113.8125,244.7188 113.8125,246.8125 Q113.8125,248.9063 114.5,249.9844 Q115.1875,251.0469 116.5313,251.0469 Q117.1563,251.0469 117.75,250.7813 Q118.3438,250.5 118.9688,249.9219 L118.9688,252.6406 Z " fill="#000000"/><text fill="#000000" font-family="sans-serif" font-size="14" lengthAdjust="spacing" textLength="72" x="130" y="251.8467">EntityUUID</text><line style="stroke:#181818;stroke-width:0.5;" x1="102" x2="204" y1="263" y2="263"/><line style="stroke:#181818;stroke-width:0.5;" x1="102" x2="204" y1="271" y2="271"/></g><!--MD5=[be996cdb8e6bf2fc7cb89c555f2cd144]
class Entity--><g id="elem_Entity"><rect codeLine="8" fill="#F1F1F1" height="129.1875" id="Entity" rx="2.5" ry="2.5" style="stroke:#181818;stroke-width:0.5;" width="208" x="49" y="356"/><ellipse cx="106.25" cy="372" fill="#ADD1B2" rx="11" ry="11" style="stroke:#181818;stroke-width:1.0;"/><path d="M109.2188,377.6406 Q108.6406,377.9375 108,378.0781 Q107.3594,378.2344 106.6563,378.2344 Q104.1563,378.2344 102.8281,376.5938 Q101.5156,374.9375 101.5156,371.8125 Q101.5156,368.6875 102.8281,367.0313 Q104.1563,365.375 106.6563,365.375 Q107.3594,365.375 108,365.5313 Q108.6563,365.6875 109.2188,365.9844 L109.2188,368.7031 Q108.5938,368.125 108,367.8594 Q107.4063,367.5781 106.7813,367.5781 Q105.4375,367.5781 104.75,368.6563 Q104.0625,369.7188 104.0625,371.8125 Q104.0625,373.9063 104.75,374.9844 Q105.4375,376.0469 106.7813,376.0469 Q107.4063,376.0469 108,375.7813 Q108.5938,375.5 109.2188,374.9219 L109.2188,377.6406 Z " fill="#000000"/><text fill="#000000" font-family="sans-serif" font-size="14" lengthAdjust="spacing" textLength="38" x="126.75" y="376.8467">Entity</text><rect fill="#FFFFFF" height="15.9688" style="stroke:#000000;stroke-width:1.0;stroke-dasharray:2.0,2.0;" width="45" x="215" y="353"/><text fill="#000000" font-family="sans-serif" font-size="12" font-style="italic" lengthAdjust="spacing" textLength="43" x="216" y="365.1387">IDType</text><line style="stroke:#181818;stroke-width:0.5;" x1="50" x2="256" y1="388" y2="388"/><ellipse cx="60" cy="399" fill="none" rx="3" ry="3" style="stroke:#038048;stroke-width:1.0;"/><text fill="#000000" font-family="sans-serif" font-size="14" lengthAdjust="spacing" textLength="66" x="69" y="404.9951">ID IDType</text><line style="stroke:#181818;stroke-width:1.0;" x1="50" x2="256" y1="412.2969" y2="412.2969"/><ellipse cx="60" cy="423.2969" fill="none" rx="3" ry="3" style="stroke:#038048;stroke-width:1.0;"/><text fill="#000000" font-family="sans-serif" font-size="14" lengthAdjust="spacing" textLength="141" x="69" y="429.292">CreatedAt time.Time</text><line style="stroke:#181818;stroke-width:1.0;" x1="50" x2="256" y1="436.5938" y2="436.5938"/><ellipse cx="60" cy="447.5938" fill="none" rx="3" ry="3" style="stroke:#038048;stroke-width:1.0;"/><text fill="#000000" font-family="sans-serif" font-size="14" lengthAdjust="spacing" textLength="152" x="69" y="453.5889">UpdatedAt *time.Time</text><line style="stroke:#181818;stroke-width:1.0;" x1="50" x2="256" y1="460.8906" y2="460.8906"/><ellipse cx="60" cy="471.8906" fill="none" rx="3" ry="3" style="stroke:#038048;stroke-width:1.0;"/><text fill="#000000" font-family="sans-serif" font-size="14" lengthAdjust="spacing" textLength="182" x="69" y="477.8857">DeletedAt gorm.DeletedAt</text></g><!--MD5=[b88d1a2f408d15f3dc0c862cc24bb0c6]
class AppLog--><g id="elem_AppLog"><rect codeLine="5" fill="#F1F1F1" height="129.1875" id="AppLog" rx="2.5" ry="2.5" style="stroke:#181818;stroke-width:0.5;" width="261" x="22.5" y="41"/><ellipse cx="122.75" cy="57" fill="#ADD1B2" rx="11" ry="11" style="stroke:#181818;stroke-width:1.0;"/><path d="M125.7188,62.6406 Q125.1406,62.9375 124.5,63.0781 Q123.8594,63.2344 123.1563,63.2344 Q120.6563,63.2344 119.3281,61.5938 Q118.0156,59.9375 118.0156,56.8125 Q118.0156,53.6875 119.3281,52.0313 Q120.6563,50.375 123.1563,50.375 Q123.8594,50.375 124.5,50.5313 Q125.1563,50.6875 125.7188,50.9844 L125.7188,53.7031 Q125.0938,53.125 124.5,52.8594 Q123.9063,52.5781 123.2813,52.5781 Q121.9375,52.5781 121.25,53.6563 Q120.5625,54.7188 120.5625,56.8125 Q120.5625,58.9063 121.25,59.9844 Q121.9375,61.0469 123.2813,61.0469 Q123.9063,61.0469 124.5,60.7813 Q125.0938,60.5 125.7188,59.9219 L125.7188,62.6406 Z " fill="#000000"/><text fill="#000000" font-family="sans-serif" font-size="14" lengthAdjust="spacing" textLength="52" x="143.25" y="61.8467">AppLog</text><line style="stroke:#181818;stroke-width:0.5;" x1="23.5" x2="282.5" y1="73" y2="73"/><ellipse cx="33.5" cy="84" fill="none" rx="3" ry="3" style="stroke:#038048;stroke-width:1.0;"/><text fill="#000000" font-family="sans-serif" font-size="14" lengthAdjust="spacing" textLength="235" x="42.5" y="89.9951">ActionID uuid.UUID `gorm:"index"`</text><line style="stroke:#181818;stroke-width:1.0;" x1="23.5" x2="282.5" y1="97.2969" y2="97.2969"/><ellipse cx="33.5" cy="108.2969" fill="none" rx="3" ry="3" style="stroke:#038048;stroke-width:1.0;"/><text fill="#000000" font-family="sans-serif" font-size="14" lengthAdjust="spacing" textLength="78" x="42.5" y="114.292">Level string</text><line style="stroke:#181818;stroke-width:1.0;" x1="23.5" x2="282.5" y1="121.5938" y2="121.5938"/><ellipse cx="33.5" cy="132.5938" fill="none" rx="3" ry="3" style="stroke:#038048;stroke-width:1.0;"/><text fill="#000000" font-family="sans-serif" font-size="14" lengthAdjust="spacing" textLength="92" x="42.5" y="138.5889">Source string</text><line style="stroke:#181818;stroke-width:1.0;" x1="23.5" x2="282.5" y1="145.8906" y2="145.8906"/><ellipse cx="33.5" cy="156.8906" fill="none" rx="3" ry="3" style="stroke:#038048;stroke-width:1.0;"/><text fill="#000000" font-family="sans-serif" font-size="14" lengthAdjust="spacing" textLength="106" x="42.5" y="162.8857">Message string</text></g><!--MD5=[4afd32b9c3a651e50eee9a88aa9ac7c6]
link EntityUUID to Entity--><g id="link_EntityUUID_Entity"><path codeLine="7" d="M153,279.08 C153,295.86 153,319.61 153,342.82 " fill="none" id="EntityUUID-to-Entity" style="stroke:#181818;stroke-width:1.0;"/><polygon fill="#181818" points="153,355.98,157,349.98,153,343.98,149,349.98,153,355.98" style="stroke:#181818;stroke-width:1.0;"/><text fill="#000000" font-family="sans-serif" font-size="13" lengthAdjust="spacing" textLength="125" x="154" y="322.0669">IDType is uuid.UUID</text></g><!--MD5=[a6c7a0eda5b041e127f539f1664bb96a]
link Entity to IEntityModel--><g id="link_Entity_IEntityModel"><path codeLine="17" d="M153,485.09 C153,505.04 153,527.36 153,548.49 " fill="none" id="Entity-to-IEntityModel" style="stroke:#181818;stroke-width:1.0;stroke-dasharray:7.0,7.0;"/><polygon fill="none" points="160,548.67,153,568.67,146,548.67,160,548.67" style="stroke:#181818;stroke-width:1.0;"/></g><!--MD5=[94d8001a6411e2b400cb63681c6a8dac]
link AppLog to EntityUUID--><g id="link_AppLog_EntityUUID"><path codeLine="14" d="M153,170.34 C153,186.45 153,203.21 153,217.46 " fill="none" id="AppLog-to-EntityUUID" style="stroke:#181818;stroke-width:1.0;"/><polygon fill="#181818" points="153,230.76,157,224.76,153,218.76,149,224.76,153,230.76" style="stroke:#181818;stroke-width:1.0;"/></g><!--MD5=[ea5342c36511ce7c149a725184155286]
@startuml

!include Entity.puml

package domain {
    class AppLog {
        +ActionID uuid.UUID `gorm:"index"`
        - -
        +Level string
        - -
        +Source string
        - -
        +Message string
    }
    AppLog -down-* EntityUUID
}

@enduml

@startuml



package app {
    interface IEntityModel<IDType> {
        +GetID() IDType
        - -
        +GetCreatedAt() time.Time
        - -
        +GetUpdatedAt() *time.Time
        - -
        +GetDeletedAt() *time.Time
    }
}


package domain {
    class EntityUUID {
    }
    EntityUUID - -* Entity : IDType is uuid.UUID
    class Entity<IDType> {
        +ID IDType
        - -
        +CreatedAt time.Time
        - -
        +UpdatedAt *time.Time
        - -
        +DeletedAt gorm.DeletedAt
    }
    Entity .down.|> IEntityModel
}


package domain {
    class AppLog {
        +ActionID uuid.UUID `gorm:"index"`
        - -
        +Level string
        - -
        +Source string
        - -
        +Message string
    }
    AppLog -down-* EntityUUID
}

@enduml

PlantUML version 1.2022.6(Tue Jun 21 17:34:49 EGST 2022)
(GPL source distribution)
Java Runtime: OpenJDK Runtime Environment
JVM: OpenJDK 64-Bit Server VM
Default Encoding: UTF-8
Language: en
Country: US
--></g></svg>