<?xml version="1.0" encoding="UTF-8" standalone="no"?><svg xmlns="http://www.w3.org/2000/svg" xmlns:xlink="http://www.w3.org/1999/xlink" contentStyleType="text/css" height="199px" preserveAspectRatio="none" style="width:688px;height:199px;background:#FFFFFF;" version="1.1" viewBox="0 0 688 199" width="688px" zoomAndPan="magnify"><defs/><g><!--MD5=[27f772719433d509ddbc20ff768eba08]
cluster domain--><g id="cluster_domain"><path d="M8.5,6 L60.5,6 A3.75,3.75 0 0 1 63,8.5 L70,29.6094 L678.5,29.6094 A2.5,2.5 0 0 1 681,32.1094 L681,189.5 A2.5,2.5 0 0 1 678.5,192 L8.5,192 A2.5,2.5 0 0 1 6,189.5 L6,8.5 A2.5,2.5 0 0 1 8.5,6 " style="stroke:#000000;stroke-width:1.5;fill:none;"/><line style="stroke:#000000;stroke-width:1.5;fill:none;" x1="6" x2="70" y1="29.6094" y2="29.6094"/><text fill="#000000" font-family="sans-serif" font-size="14" font-weight="bold" lengthAdjust="spacing" textLength="51" x="10" y="22.5332">domain</text></g><!--MD5=[99b2cc807b2a6d9cde1eed7ebe5ca8d6]
class DeviceTemplateNetworkInterface--><g id="elem_DeviceTemplateNetworkInterface"><rect codeLine="3" fill="#F1F1F1" height="134.4375" id="DeviceTemplateNetworkInterface" rx="2.5" ry="2.5" style="stroke:#181818;stroke-width:0.5;" width="239" x="22.5" y="42"/><ellipse cx="37.5" cy="58" fill="#ADD1B2" rx="11" ry="11" style="stroke:#181818;stroke-width:1.0;"/><path d="M40.2656,53.875 Q40.4219,53.6563 40.6094,53.5469 Q40.7969,53.4375 41.0156,53.4375 Q41.3906,53.4375 41.625,53.7031 Q41.8594,53.9531 41.8594,54.5625 L41.8594,56.0156 Q41.8594,56.625 41.625,56.8906 Q41.3906,57.1563 41.0156,57.1563 Q40.6719,57.1563 40.4688,56.9531 Q40.2656,56.7656 40.1563,56.25 Q40.1094,55.8906 39.9219,55.7031 Q39.5938,55.3281 38.9844,55.1094 Q38.375,54.8906 37.75,54.8906 Q36.9844,54.8906 36.3438,55.2188 Q35.7188,55.5469 35.2188,56.2969 Q34.7344,57.0469 34.7344,58.0781 L34.7344,59.1719 Q34.7344,60.4063 35.625,61.2344 Q36.5156,62.0469 38.1094,62.0469 Q39.0469,62.0469 39.7031,61.7969 Q40.0938,61.6406 40.5156,61.2031 Q40.7813,60.9375 40.9219,60.8594 Q41.0781,60.7813 41.2813,60.7813 Q41.6094,60.7813 41.8594,61.0469 Q42.125,61.2969 42.125,61.6406 Q42.125,61.9844 41.7813,62.3906 Q41.2813,62.9688 40.4844,63.2969 Q39.4063,63.75 38.1094,63.75 Q36.5938,63.75 35.3906,63.125 Q34.4063,62.625 33.7188,61.5625 Q33.0313,60.4844 33.0313,59.2031 L33.0313,58.0469 Q33.0313,56.7188 33.6406,55.5781 Q34.2656,54.4219 35.3594,53.8125 Q36.4531,53.1875 37.6875,53.1875 Q38.4219,53.1875 39.0625,53.3594 Q39.7188,53.5156 40.2656,53.875 Z " fill="#000000"/><text fill="#000000" font-family="sans-serif" font-size="14" lengthAdjust="spacing" textLength="207" x="51.5" y="63.7285">DeviceTemplateNetworkInterface</text><line style="stroke:#181818;stroke-width:0.5;" x1="23.5" x2="260.5" y1="74" y2="74"/><ellipse cx="33.5" cy="85" fill="none" rx="3" ry="3" style="stroke:#038048;stroke-width:1.0;"/><text fill="#000000" font-family="sans-serif" font-size="14" lengthAdjust="spacing" textLength="75" x="42.5" y="92.5332">Name string</text><line style="stroke:#181818;stroke-width:1.0;" x1="23.5" x2="260.5" y1="99.6094" y2="99.6094"/><ellipse cx="33.5" cy="110.6094" fill="none" rx="3" ry="3" style="stroke:#038048;stroke-width:1.0;"/><text fill="#000000" font-family="sans-serif" font-size="14" lengthAdjust="spacing" textLength="105" x="42.5" y="118.1426">NetBoot boolean</text><line style="stroke:#181818;stroke-width:1.0;" x1="23.5" x2="260.5" y1="125.2188" y2="125.2188"/><ellipse cx="33.5" cy="136.2188" fill="none" rx="3" ry="3" style="stroke:#038048;stroke-width:1.0;"/><text fill="#000000" font-family="sans-serif" font-size="14" lengthAdjust="spacing" textLength="95" x="42.5" y="143.752">POEIn boolean</text><line style="stroke:#181818;stroke-width:1.0;" x1="23.5" x2="260.5" y1="150.8281" y2="150.8281"/><ellipse cx="33.5" cy="161.8281" fill="none" rx="3" ry="3" style="stroke:#038048;stroke-width:1.0;"/><text fill="#000000" font-family="sans-serif" font-size="14" lengthAdjust="spacing" textLength="137" x="42.5" y="169.3613">Management boolean</text></g><path d="M297,54.5 L297,63.6758 L117.5,86.8047 L297,71.6758 L297,80.8516 A0,0 0 0 0 297,80.8516 L665,80.8516 A0,0 0 0 0 665,80.8516 L665,64.5 L655,54.5 L297,54.5 A0,0 0 0 0 297,54.5 " fill="#FEFFDD" style="stroke:#181818;stroke-width:0.5;"/><path d="M655,54.5 L655,64.5 L665,64.5 L655,54.5 " fill="#FEFFDD" style="stroke:#181818;stroke-width:0.5;"/><text fill="#000000" font-family="sans-serif" font-size="13" lengthAdjust="spacing" textLength="347" x="303" y="72.9951">This field is unique within device template network interfaces</text><path d="M297,90.8516 L297,100.0273 L137.5,138.0234 L297,108.0273 L297,117.2031 A0,0 0 0 0 297,117.2031 L608,117.2031 A0,0 0 0 0 608,117.2031 L608,100.8516 L598,90.8516 L297,90.8516 A0,0 0 0 0 297,90.8516 " fill="#FEFFDD" style="stroke:#181818;stroke-width:0.5;"/><path d="M598,90.8516 L598,100.8516 L608,100.8516 L598,90.8516 " fill="#FEFFDD" style="stroke:#181818;stroke-width:0.5;"/><text fill="#000000" font-family="sans-serif" font-size="13" lengthAdjust="spacing" textLength="290" x="303" y="109.3467">Only one network interface can be mark as POEIn</text><path d="M297,127.2031 L297,136.3789 L179.5,163.6328 L297,144.3789 L297,153.5547 A0,0 0 0 0 297,153.5547 L645,153.5547 A0,0 0 0 0 645,153.5547 L645,137.2031 L635,127.2031 L297,127.2031 A0,0 0 0 0 297,127.2031 " fill="#FEFFDD" style="stroke:#181818;stroke-width:0.5;"/><path d="M635,127.2031 L635,137.2031 L645,137.2031 L635,127.2031 " fill="#FEFFDD" style="stroke:#181818;stroke-width:0.5;"/><text fill="#000000" font-family="sans-serif" font-size="13" lengthAdjust="spacing" textLength="327" x="303" y="145.6982">Only one network interface can be mark as management</text><!--MD5=[c6c1a8e4c9cea72df51faded2455c342]
@startuml DeviceTemplateNetworkInterface

package domain {
    class DeviceTemplateNetworkInterface {
        +Name string
        - -
        +NetBoot boolean
        - -
        +POEIn boolean
        - -
        +Management boolean
    }
    note right of DeviceTemplateNetworkInterface::Name
      This field is unique within device template network interfaces
    end note

    note right of DeviceTemplateNetworkInterface::POEIn
      Only one network interface can be mark as POEIn
    end note

    note right of DeviceTemplateNetworkInterface::Management
      Only one network interface can be mark as management
    end note
}

@enduml

PlantUML version 1.2022.6(Tue Jun 21 20:34:49 MSK 2022)
(GPL source distribution)
Java Runtime: OpenJDK Runtime Environment
JVM: OpenJDK 64-Bit Server VM
Default Encoding: Cp1251
Language: ru
Country: RU
--></g></svg>