<?xml version="1.0" encoding="UTF-8" standalone="no"?><svg xmlns="http://www.w3.org/2000/svg" xmlns:xlink="http://www.w3.org/1999/xlink" contentStyleType="text/css" height="843px" preserveAspectRatio="none" style="width:505px;height:843px;background:#FFFFFF;" version="1.1" viewBox="0 0 505 843" width="505px" zoomAndPan="magnify"><defs/><g><!--MD5=[d5ac3844f66b12d9e08170e47495e096]
cluster app--><g id="cluster_app"><path d="M234.5,656 L264.5,656 A3.75,3.75 0 0 1 267,658.5 L274,678.2969 L473.5,678.2969 A2.5,2.5 0 0 1 476,680.7969 L476,833.5 A2.5,2.5 0 0 1 473.5,836 L234.5,836 A2.5,2.5 0 0 1 232,833.5 L232,658.5 A2.5,2.5 0 0 1 234.5,656 " style="stroke:#000000;stroke-width:1.5;fill:none;"/><line style="stroke:#000000;stroke-width:1.5;fill:none;" x1="232" x2="274" y1="678.2969" y2="678.2969"/><text fill="#000000" font-family="sans-serif" font-size="14" font-weight="bold" lengthAdjust="spacing" textLength="29" x="236" y="670.9951">app</text></g><!--MD5=[27f772719433d509ddbc20ff768eba08]
cluster domain--><g id="cluster_domain"><path d="M8.5,6 L66.5,6 A3.75,3.75 0 0 1 69,8.5 L76,28.2969 L494.5,28.2969 A2.5,2.5 0 0 1 497,30.7969 L497,620.5 A2.5,2.5 0 0 1 494.5,623 L8.5,623 A2.5,2.5 0 0 1 6,620.5 L6,8.5 A2.5,2.5 0 0 1 8.5,6 " style="stroke:#000000;stroke-width:1.5;fill:none;"/><line style="stroke:#000000;stroke-width:1.5;fill:none;" x1="6" x2="76" y1="28.2969" y2="28.2969"/><text fill="#000000" font-family="sans-serif" font-size="14" font-weight="bold" lengthAdjust="spacing" textLength="57" x="10" y="20.9951">domain</text></g><!--MD5=[2a39a5be1cc24ddddd6e6286e4ece992]
class IEntityModel--><g id="elem_IEntityModel"><rect codeLine="3" fill="#F1F1F1" height="129.1875" id="IEntityModel" rx="2.5" ry="2.5" style="stroke:#181818;stroke-width:0.5;" width="213" x="247.5" y="691"/><ellipse cx="284.55" cy="707" fill="#B4A7E5" rx="11" ry="11" style="stroke:#181818;stroke-width:1.0;"/><path d="M280.4719,702.7656 L280.4719,700.6094 L287.8625,700.6094 L287.8625,702.7656 L285.3938,702.7656 L285.3938,710.8438 L287.8625,710.8438 L287.8625,713 L280.4719,713 L280.4719,710.8438 L282.9406,710.8438 L282.9406,702.7656 L280.4719,702.7656 Z " fill="#000000"/><text fill="#000000" font-family="sans-serif" font-size="14" font-style="italic" lengthAdjust="spacing" textLength="85" x="303.45" y="711.8467">IEntityModel</text><rect fill="#FFFFFF" height="15.9688" style="stroke:#000000;stroke-width:1.0;stroke-dasharray:2.0,2.0;" width="45" x="418.5" y="688"/><text fill="#000000" font-family="sans-serif" font-size="12" font-style="italic" lengthAdjust="spacing" textLength="43" x="419.5" y="700.1387">IDType</text><line style="stroke:#181818;stroke-width:0.5;" x1="248.5" x2="459.5" y1="723" y2="723"/><ellipse cx="258.5" cy="734" fill="#84BE84" rx="3" ry="3" style="stroke:#038048;stroke-width:1.0;"/><text fill="#000000" font-family="sans-serif" font-size="14" lengthAdjust="spacing" textLength="101" x="267.5" y="739.9951">GetID() IDType</text><line style="stroke:#181818;stroke-width:1.0;" x1="248.5" x2="459.5" y1="747.2969" y2="747.2969"/><ellipse cx="258.5" cy="758.2969" fill="#84BE84" rx="3" ry="3" style="stroke:#038048;stroke-width:1.0;"/><text fill="#000000" font-family="sans-serif" font-size="14" lengthAdjust="spacing" textLength="176" x="267.5" y="764.292">GetCreatedAt() time.Time</text><line style="stroke:#181818;stroke-width:1.0;" x1="248.5" x2="459.5" y1="771.5938" y2="771.5938"/><ellipse cx="258.5" cy="782.5938" fill="#84BE84" rx="3" ry="3" style="stroke:#038048;stroke-width:1.0;"/><text fill="#000000" font-family="sans-serif" font-size="14" lengthAdjust="spacing" textLength="187" x="267.5" y="788.5889">GetUpdatedAt() *time.Time</text><line style="stroke:#181818;stroke-width:1.0;" x1="248.5" x2="459.5" y1="795.8906" y2="795.8906"/><ellipse cx="258.5" cy="806.8906" fill="#84BE84" rx="3" ry="3" style="stroke:#038048;stroke-width:1.0;"/><text fill="#000000" font-family="sans-serif" font-size="14" lengthAdjust="spacing" textLength="183" x="267.5" y="812.8857">GetDeletedAt() *time.Time</text></g><!--MD5=[1045d07ae824aea072cabb0fb8284887]
class EntityUUID--><g id="elem_EntityUUID"><rect codeLine="5" fill="#F1F1F1" height="48" id="EntityUUID" rx="2.5" ry="2.5" style="stroke:#181818;stroke-width:0.5;" width="104" x="329" y="353"/><ellipse cx="344" cy="369" fill="#ADD1B2" rx="11" ry="11" style="stroke:#181818;stroke-width:1.0;"/><path d="M346.9688,374.6406 Q346.3906,374.9375 345.75,375.0781 Q345.1094,375.2344 344.4063,375.2344 Q341.9063,375.2344 340.5781,373.5938 Q339.2656,371.9375 339.2656,368.8125 Q339.2656,365.6875 340.5781,364.0313 Q341.9063,362.375 344.4063,362.375 Q345.1094,362.375 345.75,362.5313 Q346.4063,362.6875 346.9688,362.9844 L346.9688,365.7031 Q346.3438,365.125 345.75,364.8594 Q345.1563,364.5781 344.5313,364.5781 Q343.1875,364.5781 342.5,365.6563 Q341.8125,366.7188 341.8125,368.8125 Q341.8125,370.9063 342.5,371.9844 Q343.1875,373.0469 344.5313,373.0469 Q345.1563,373.0469 345.75,372.7813 Q346.3438,372.5 346.9688,371.9219 L346.9688,374.6406 Z " fill="#000000"/><text fill="#000000" font-family="sans-serif" font-size="14" lengthAdjust="spacing" textLength="72" x="358" y="373.8467">EntityUUID</text><line style="stroke:#181818;stroke-width:0.5;" x1="330" x2="432" y1="385" y2="385"/><line style="stroke:#181818;stroke-width:0.5;" x1="330" x2="432" y1="393" y2="393"/></g><!--MD5=[be996cdb8e6bf2fc7cb89c555f2cd144]
class Entity--><g id="elem_Entity"><rect codeLine="8" fill="#F1F1F1" height="129.1875" id="Entity" rx="2.5" ry="2.5" style="stroke:#181818;stroke-width:0.5;" width="208" x="250" y="478"/><ellipse cx="307.25" cy="494" fill="#ADD1B2" rx="11" ry="11" style="stroke:#181818;stroke-width:1.0;"/><path d="M310.2188,499.6406 Q309.6406,499.9375 309,500.0781 Q308.3594,500.2344 307.6563,500.2344 Q305.1563,500.2344 303.8281,498.5938 Q302.5156,496.9375 302.5156,493.8125 Q302.5156,490.6875 303.8281,489.0313 Q305.1563,487.375 307.6563,487.375 Q308.3594,487.375 309,487.5313 Q309.6563,487.6875 310.2188,487.9844 L310.2188,490.7031 Q309.5938,490.125 309,489.8594 Q308.4063,489.5781 307.7813,489.5781 Q306.4375,489.5781 305.75,490.6563 Q305.0625,491.7188 305.0625,493.8125 Q305.0625,495.9063 305.75,496.9844 Q306.4375,498.0469 307.7813,498.0469 Q308.4063,498.0469 309,497.7813 Q309.5938,497.5 310.2188,496.9219 L310.2188,499.6406 Z " fill="#000000"/><text fill="#000000" font-family="sans-serif" font-size="14" lengthAdjust="spacing" textLength="38" x="327.75" y="498.8467">Entity</text><rect fill="#FFFFFF" height="15.9688" style="stroke:#000000;stroke-width:1.0;stroke-dasharray:2.0,2.0;" width="45" x="416" y="475"/><text fill="#000000" font-family="sans-serif" font-size="12" font-style="italic" lengthAdjust="spacing" textLength="43" x="417" y="487.1387">IDType</text><line style="stroke:#181818;stroke-width:0.5;" x1="251" x2="457" y1="510" y2="510"/><ellipse cx="261" cy="521" fill="none" rx="3" ry="3" style="stroke:#038048;stroke-width:1.0;"/><text fill="#000000" font-family="sans-serif" font-size="14" lengthAdjust="spacing" textLength="66" x="270" y="526.9951">ID IDType</text><line style="stroke:#181818;stroke-width:1.0;" x1="251" x2="457" y1="534.2969" y2="534.2969"/><ellipse cx="261" cy="545.2969" fill="none" rx="3" ry="3" style="stroke:#038048;stroke-width:1.0;"/><text fill="#000000" font-family="sans-serif" font-size="14" lengthAdjust="spacing" textLength="141" x="270" y="551.292">CreatedAt time.Time</text><line style="stroke:#181818;stroke-width:1.0;" x1="251" x2="457" y1="558.5938" y2="558.5938"/><ellipse cx="261" cy="569.5938" fill="none" rx="3" ry="3" style="stroke:#038048;stroke-width:1.0;"/><text fill="#000000" font-family="sans-serif" font-size="14" lengthAdjust="spacing" textLength="152" x="270" y="575.5889">UpdatedAt *time.Time</text><line style="stroke:#181818;stroke-width:1.0;" x1="251" x2="457" y1="582.8906" y2="582.8906"/><ellipse cx="261" cy="593.8906" fill="none" rx="3" ry="3" style="stroke:#038048;stroke-width:1.0;"/><text fill="#000000" font-family="sans-serif" font-size="14" lengthAdjust="spacing" textLength="182" x="270" y="599.8857">DeletedAt gorm.DeletedAt</text></g><!--MD5=[c74155cdcf25e342cd0e6bb99a4980a2]
class DHCP4Config--><g id="elem_DHCP4Config"><rect codeLine="5" fill="#F1F1F1" height="250.6719" id="DHCP4Config" rx="2.5" ry="2.5" style="stroke:#181818;stroke-width:0.5;" width="144" x="337" y="41"/><ellipse cx="360.55" cy="57" fill="#ADD1B2" rx="11" ry="11" style="stroke:#181818;stroke-width:1.0;"/><path d="M363.5188,62.6406 Q362.9406,62.9375 362.3,63.0781 Q361.6594,63.2344 360.9563,63.2344 Q358.4563,63.2344 357.1281,61.5938 Q355.8156,59.9375 355.8156,56.8125 Q355.8156,53.6875 357.1281,52.0313 Q358.4563,50.375 360.9563,50.375 Q361.6594,50.375 362.3,50.5313 Q362.9563,50.6875 363.5188,50.9844 L363.5188,53.7031 Q362.8938,53.125 362.3,52.8594 Q361.7063,52.5781 361.0813,52.5781 Q359.7375,52.5781 359.05,53.6563 Q358.3625,54.7188 358.3625,56.8125 Q358.3625,58.9063 359.05,59.9844 Q359.7375,61.0469 361.0813,61.0469 Q361.7063,61.0469 362.3,60.7813 Q362.8938,60.5 363.5188,59.9219 L363.5188,62.6406 Z " fill="#000000"/><text fill="#000000" font-family="sans-serif" font-size="14" lengthAdjust="spacing" textLength="93" x="376.45" y="61.8467">DHCP4Config</text><line style="stroke:#181818;stroke-width:0.5;" x1="338" x2="480" y1="73" y2="73"/><ellipse cx="348" cy="84" fill="none" rx="3" ry="3" style="stroke:#038048;stroke-width:1.0;"/><text fill="#000000" font-family="sans-serif" font-size="14" lengthAdjust="spacing" textLength="83" x="357" y="89.9951">Name string</text><line style="stroke:#181818;stroke-width:1.0;" x1="338" x2="480" y1="97.2969" y2="97.2969"/><ellipse cx="348" cy="108.2969" fill="none" rx="3" ry="3" style="stroke:#038048;stroke-width:1.0;"/><text fill="#000000" font-family="sans-serif" font-size="14" lengthAdjust="spacing" textLength="88" x="357" y="114.292">Range string</text><line style="stroke:#181818;stroke-width:1.0;" x1="338" x2="480" y1="121.5938" y2="121.5938"/><ellipse cx="348" cy="132.5938" fill="none" rx="3" ry="3" style="stroke:#038048;stroke-width:1.0;"/><text fill="#000000" font-family="sans-serif" font-size="14" lengthAdjust="spacing" textLength="79" x="357" y="138.5889">Mask string</text><line style="stroke:#181818;stroke-width:1.0;" x1="338" x2="480" y1="145.8906" y2="145.8906"/><ellipse cx="348" cy="156.8906" fill="none" rx="3" ry="3" style="stroke:#038048;stroke-width:1.0;"/><text fill="#000000" font-family="sans-serif" font-size="14" lengthAdjust="spacing" textLength="118" x="357" y="162.8857">NextServer string</text><line style="stroke:#181818;stroke-width:1.0;" x1="338" x2="480" y1="170.1875" y2="170.1875"/><ellipse cx="348" cy="181.1875" fill="none" rx="3" ry="3" style="stroke:#038048;stroke-width:1.0;"/><text fill="#000000" font-family="sans-serif" font-size="14" lengthAdjust="spacing" textLength="101" x="357" y="187.1826">ServerID string</text><line style="stroke:#181818;stroke-width:1.0;" x1="338" x2="480" y1="194.4844" y2="194.4844"/><ellipse cx="348" cy="205.4844" fill="none" rx="3" ry="3" style="stroke:#038048;stroke-width:1.0;"/><text fill="#000000" font-family="sans-serif" font-size="14" lengthAdjust="spacing" textLength="103" x="357" y="211.4795">Interface string</text><line style="stroke:#181818;stroke-width:1.0;" x1="338" x2="480" y1="218.7813" y2="218.7813"/><ellipse cx="348" cy="229.7813" fill="none" rx="3" ry="3" style="stroke:#038048;stroke-width:1.0;"/><text fill="#000000" font-family="sans-serif" font-size="14" lengthAdjust="spacing" textLength="102" x="357" y="235.7764">Gateway string</text><line style="stroke:#181818;stroke-width:1.0;" x1="338" x2="480" y1="243.0781" y2="243.0781"/><ellipse cx="348" cy="254.0781" fill="none" rx="3" ry="3" style="stroke:#038048;stroke-width:1.0;"/><text fill="#000000" font-family="sans-serif" font-size="14" lengthAdjust="spacing" textLength="73" x="357" y="260.0732">DNS string</text><line style="stroke:#181818;stroke-width:1.0;" x1="338" x2="480" y1="267.375" y2="267.375"/><ellipse cx="348" cy="278.375" fill="none" rx="3" ry="3" style="stroke:#038048;stroke-width:1.0;"/><text fill="#000000" font-family="sans-serif" font-size="14" lengthAdjust="spacing" textLength="71" x="357" y="284.3701">NTP string</text></g><path d="M22,131.5 L22,156.6328 A0,0 0 0 0 22,156.6328 L302,156.6328 A0,0 0 0 0 302,156.6328 L302,149.5 L341,109.4453 L302,141.5 L302,141.5 L292,131.5 L22,131.5 A0,0 0 0 0 22,131.5 " fill="#FEFFDD" style="stroke:#181818;stroke-width:0.5;"/><path d="M292,131.5 L292,141.5 L302,141.5 L292,131.5 " fill="#FEFFDD" style="stroke:#181818;stroke-width:0.5;"/><text fill="#000000" font-family="sans-serif" font-size="13" lengthAdjust="spacing" textLength="259" x="28" y="148.5669">Start IP and End IP, that separated by "-"</text><path d="M22,166.6328 L22,191.7656 A0,0 0 0 0 22,191.7656 L250,191.7656 A0,0 0 0 0 250,191.7656 L250,184.6328 L341,182.3359 L250,176.6328 L250,176.6328 L240,166.6328 L22,166.6328 A0,0 0 0 0 22,166.6328 " fill="#FEFFDD" style="stroke:#181818;stroke-width:0.5;"/><path d="M240,166.6328 L240,176.6328 L250,176.6328 L240,166.6328 " fill="#FEFFDD" style="stroke:#181818;stroke-width:0.5;"/><text fill="#000000" font-family="sans-serif" font-size="13" lengthAdjust="spacing" textLength="207" x="28" y="183.6997">Server ID DHCP option, IP string.</text><!--MD5=[4afd32b9c3a651e50eee9a88aa9ac7c6]
link EntityUUID to Entity--><g id="link_EntityUUID_Entity"><path codeLine="7" d="M377.19,401.08 C374.4,417.94 370.46,441.83 366.61,465.14 " fill="none" id="EntityUUID-to-Entity" style="stroke:#181818;stroke-width:1.0;"/><polygon fill="#181818" points="364.49,477.98,369.4125,472.7103,366.4414,466.1397,361.5189,471.4094,364.49,477.98" style="stroke:#181818;stroke-width:1.0;"/><text fill="#000000" font-family="sans-serif" font-size="13" lengthAdjust="spacing" textLength="125" x="372" y="444.0669">IDType is uuid.UUID</text></g><!--MD5=[a6c7a0eda5b041e127f539f1664bb96a]
link Entity to IEntityModel--><g id="link_Entity_IEntityModel"><path codeLine="17" d="M354,607.09 C354,627.04 354,649.36 354,670.49 " fill="none" id="Entity-to-IEntityModel" style="stroke:#181818;stroke-width:1.0;stroke-dasharray:7.0,7.0;"/><polygon fill="none" points="361,670.67,354,690.67,347,670.67,361,670.67" style="stroke:#181818;stroke-width:1.0;"/></g><!--MD5=[9af82204c8de28ffc29c451def9da12f]
link DHCP4Config to EntityUUID--><g id="link_DHCP4Config_EntityUUID"><path codeLine="24" d="M392.27,292.1 C389.94,309.4 387.73,325.92 385.88,339.65 " fill="none" id="DHCP4Config-to-EntityUUID" style="stroke:#181818;stroke-width:1.0;"/><polygon fill="#181818" points="384.11,352.88,388.8722,347.4651,385.7055,340.9865,380.9432,346.4014,384.11,352.88" style="stroke:#181818;stroke-width:1.0;"/></g><!--MD5=[5740b48b80b55aa6c93ed5eee215c313]
@startuml

!include Entity.puml

package domain {
    class DHCP4Config {
        +Name string
        - -
        +Range string
        - -
        +Mask string
        - -
        +NextServer string
        - -
        +ServerID string
        - -
        +Interface string
        - -
        +Gateway string
        - -
        +DNS string
        - -
        +NTP string
    }
    DHCP4Config -down-* EntityUUID

    note left of DHCP4Config::Range
    Start IP and End IP, that separated by "-"
    end note

    note left of DHCP4Config::ServerID
    Server ID DHCP option, IP string.
    end note
}

@enduml

@startuml



package app {
    interface IEntityModel<IDType> {
        +GetID() IDType
        - -
        +GetCreatedAt() time.Time
        - -
        +GetUpdatedAt() *time.Time
        - -
        +GetDeletedAt() *time.Time
    }
}


package domain {
    class EntityUUID {
    }
    EntityUUID - -* Entity : IDType is uuid.UUID
    class Entity<IDType> {
        +ID IDType
        - -
        +CreatedAt time.Time
        - -
        +UpdatedAt *time.Time
        - -
        +DeletedAt gorm.DeletedAt
    }
    Entity .down.|> IEntityModel
}


package domain {
    class DHCP4Config {
        +Name string
        - -
        +Range string
        - -
        +Mask string
        - -
        +NextServer string
        - -
        +ServerID string
        - -
        +Interface string
        - -
        +Gateway string
        - -
        +DNS string
        - -
        +NTP string
    }
    DHCP4Config -down-* EntityUUID

    note left of DHCP4Config::Range
    Start IP and End IP, that separated by "-"
    end note

    note left of DHCP4Config::ServerID
    Server ID DHCP option, IP string.
    end note
}

@enduml

PlantUML version 1.2022.6(Tue Jun 21 17:34:49 EGST 2022)
(GPL source distribution)
Java Runtime: OpenJDK Runtime Environment
JVM: OpenJDK 64-Bit Server VM
Default Encoding: UTF-8
Language: en
Country: US
--></g></svg>