<?xml version="1.0" encoding="UTF-8" standalone="no"?><svg xmlns="http://www.w3.org/2000/svg" xmlns:xlink="http://www.w3.org/1999/xlink" contentStyleType="text/css" height="535px" preserveAspectRatio="none" style="width:329px;height:535px;background:#FFFFFF;" version="1.1" viewBox="0 0 329 535" width="329px" zoomAndPan="magnify"><defs/><g><!--MD5=[d5ac3844f66b12d9e08170e47495e096]
cluster app--><g id="cluster_app"><path d="M81.5,410 L108.5,410 A3.75,3.75 0 0 1 111,412.5 L118,433.6094 L246.5,433.6094 A2.5,2.5 0 0 1 249,436.1094 L249,525.5 A2.5,2.5 0 0 1 246.5,528 L81.5,528 A2.5,2.5 0 0 1 79,525.5 L79,412.5 A2.5,2.5 0 0 1 81.5,410 " style="stroke:#000000;stroke-width:1.5;fill:none;"/><line style="stroke:#000000;stroke-width:1.5;fill:none;" x1="79" x2="118" y1="433.6094" y2="433.6094"/><text fill="#000000" font-family="sans-serif" font-size="14" font-weight="bold" lengthAdjust="spacing" textLength="26" x="83" y="426.5332">app</text></g><!--MD5=[27f772719433d509ddbc20ff768eba08]
cluster domain--><g id="cluster_domain"><path d="M8.5,6 L60.5,6 A3.75,3.75 0 0 1 63,8.5 L70,29.6094 L319.5,29.6094 A2.5,2.5 0 0 1 322,32.1094 L322,383.5 A2.5,2.5 0 0 1 319.5,386 L8.5,386 A2.5,2.5 0 0 1 6,383.5 L6,8.5 A2.5,2.5 0 0 1 8.5,6 " style="stroke:#000000;stroke-width:1.5;fill:none;"/><line style="stroke:#000000;stroke-width:1.5;fill:none;" x1="6" x2="70" y1="29.6094" y2="29.6094"/><text fill="#000000" font-family="sans-serif" font-size="14" font-weight="bold" lengthAdjust="spacing" textLength="51" x="10" y="22.5332">domain</text></g><!--MD5=[2a39a5be1cc24ddddd6e6286e4ece992]
class IEntityModel--><g id="elem_IEntityModel"><rect codeLine="3" fill="#F1F1F1" height="65.6094" id="IEntityModel" rx="2.5" ry="2.5" style="stroke:#181818;stroke-width:0.5;" width="138" x="95" y="446"/><ellipse cx="122.6" cy="462" fill="#B4A7E5" rx="11" ry="11" style="stroke:#181818;stroke-width:1.0;"/><path d="M123.5531,458.6406 L123.5531,465.2969 L125.2719,465.2969 Q125.8813,465.2969 126.1469,465.5313 Q126.4125,465.7656 126.4125,466.1563 Q126.4125,466.5313 126.1469,466.7656 Q125.8813,467 125.2719,467 L120.1313,467 Q119.5219,467 119.2563,466.7656 Q118.9906,466.5313 118.9906,466.1406 Q118.9906,465.7656 119.2563,465.5313 Q119.5219,465.2969 120.1313,465.2969 L121.85,465.2969 L121.85,458.6406 L120.1313,458.6406 Q119.5219,458.6406 119.2563,458.4063 Q118.9906,458.1719 118.9906,457.7813 Q118.9906,457.4063 119.2563,457.1719 Q119.5219,456.9375 120.1313,456.9375 L125.2719,456.9375 Q125.8813,456.9375 126.1469,457.1719 Q126.4125,457.4063 126.4125,457.7813 Q126.4125,458.1719 126.1469,458.4063 Q125.8813,458.6406 125.2719,458.6406 L123.5531,458.6406 Z " fill="#000000"/><text fill="#000000" font-family="sans-serif" font-size="14" font-style="italic" lengthAdjust="spacing" textLength="78" x="139.4" y="467.7285">IEntityModel</text><line style="stroke:#181818;stroke-width:0.5;" x1="96" x2="232" y1="478" y2="478"/><line style="stroke:#181818;stroke-width:0.5;" x1="96" x2="232" y1="486" y2="486"/><ellipse cx="106" cy="497" fill="#84BE84" rx="3" ry="3" style="stroke:#038048;stroke-width:1.0;"/><text fill="#000000" font-family="sans-serif" font-size="14" lengthAdjust="spacing" textLength="112" x="115" y="504.5332">GetID() uuid.UUID</text></g><!--MD5=[be996cdb8e6bf2fc7cb89c555f2cd144]
class Entity--><g id="elem_Entity"><rect codeLine="5" fill="#F1F1F1" height="134.4375" id="Entity" rx="2.5" ry="2.5" style="stroke:#181818;stroke-width:0.5;" width="283" x="22.5" y="236"/><ellipse cx="142.25" cy="252" fill="#ADD1B2" rx="11" ry="11" style="stroke:#181818;stroke-width:1.0;"/><path d="M145.0156,247.875 Q145.1719,247.6563 145.3594,247.5469 Q145.5469,247.4375 145.7656,247.4375 Q146.1406,247.4375 146.375,247.7031 Q146.6094,247.9531 146.6094,248.5625 L146.6094,250.0156 Q146.6094,250.625 146.375,250.8906 Q146.1406,251.1563 145.7656,251.1563 Q145.4219,251.1563 145.2188,250.9531 Q145.0156,250.7656 144.9063,250.25 Q144.8594,249.8906 144.6719,249.7031 Q144.3438,249.3281 143.7344,249.1094 Q143.125,248.8906 142.5,248.8906 Q141.7344,248.8906 141.0938,249.2188 Q140.4688,249.5469 139.9688,250.2969 Q139.4844,251.0469 139.4844,252.0781 L139.4844,253.1719 Q139.4844,254.4063 140.375,255.2344 Q141.2656,256.0469 142.8594,256.0469 Q143.7969,256.0469 144.4531,255.7969 Q144.8438,255.6406 145.2656,255.2031 Q145.5313,254.9375 145.6719,254.8594 Q145.8281,254.7813 146.0313,254.7813 Q146.3594,254.7813 146.6094,255.0469 Q146.875,255.2969 146.875,255.6406 Q146.875,255.9844 146.5313,256.3906 Q146.0313,256.9688 145.2344,257.2969 Q144.1563,257.75 142.8594,257.75 Q141.3438,257.75 140.1406,257.125 Q139.1563,256.625 138.4688,255.5625 Q137.7813,254.4844 137.7813,253.2031 L137.7813,252.0469 Q137.7813,250.7188 138.3906,249.5781 Q139.0156,248.4219 140.1094,247.8125 Q141.2031,247.1875 142.4375,247.1875 Q143.1719,247.1875 143.8125,247.3594 Q144.4688,247.5156 145.0156,247.875 Z " fill="#000000"/><text fill="#000000" font-family="sans-serif" font-size="14" lengthAdjust="spacing" textLength="35" x="162.75" y="257.7285">Entity</text><line style="stroke:#181818;stroke-width:0.5;" x1="23.5" x2="304.5" y1="268" y2="268"/><ellipse cx="33.5" cy="279" fill="none" rx="3" ry="3" style="stroke:#038048;stroke-width:1.0;"/><text fill="#000000" font-family="sans-serif" font-size="14" lengthAdjust="spacing" textLength="208" x="42.5" y="286.5332">ID uuid.UUID `gorm:"primarykey"`</text><line style="stroke:#181818;stroke-width:1.0;" x1="23.5" x2="304.5" y1="293.6094" y2="293.6094"/><ellipse cx="33.5" cy="304.6094" fill="none" rx="3" ry="3" style="stroke:#038048;stroke-width:1.0;"/><text fill="#000000" font-family="sans-serif" font-size="14" lengthAdjust="spacing" textLength="222" x="42.5" y="312.1426">CreatedAt time.Time `gorm:"index"`</text><line style="stroke:#181818;stroke-width:1.0;" x1="23.5" x2="304.5" y1="319.2188" y2="319.2188"/><ellipse cx="33.5" cy="330.2188" fill="none" rx="3" ry="3" style="stroke:#038048;stroke-width:1.0;"/><text fill="#000000" font-family="sans-serif" font-size="14" lengthAdjust="spacing" textLength="224" x="42.5" y="337.752">UpdatedAt time.Time `gorm:"index"`</text><line style="stroke:#181818;stroke-width:1.0;" x1="23.5" x2="304.5" y1="344.8281" y2="344.8281"/><ellipse cx="33.5" cy="355.8281" fill="none" rx="3" ry="3" style="stroke:#038048;stroke-width:1.0;"/><text fill="#000000" font-family="sans-serif" font-size="14" lengthAdjust="spacing" textLength="257" x="42.5" y="363.3613">DeletedAt gorm.DeletedAt `gorm:"index"`</text></g><!--MD5=[f0474206043373679905908f8f9685bc]
class DHCP4Lease--><g id="elem_DHCP4Lease"><rect codeLine="4" fill="#F1F1F1" height="134.4375" id="DHCP4Lease" rx="2.5" ry="2.5" style="stroke:#181818;stroke-width:0.5;" width="192" x="68" y="42"/><ellipse cx="117.25" cy="58" fill="#ADD1B2" rx="11" ry="11" style="stroke:#181818;stroke-width:1.0;"/><path d="M120.0156,53.875 Q120.1719,53.6563 120.3594,53.5469 Q120.5469,53.4375 120.7656,53.4375 Q121.1406,53.4375 121.375,53.7031 Q121.6094,53.9531 121.6094,54.5625 L121.6094,56.0156 Q121.6094,56.625 121.375,56.8906 Q121.1406,57.1563 120.7656,57.1563 Q120.4219,57.1563 120.2188,56.9531 Q120.0156,56.7656 119.9063,56.25 Q119.8594,55.8906 119.6719,55.7031 Q119.3438,55.3281 118.7344,55.1094 Q118.125,54.8906 117.5,54.8906 Q116.7344,54.8906 116.0938,55.2188 Q115.4688,55.5469 114.9688,56.2969 Q114.4844,57.0469 114.4844,58.0781 L114.4844,59.1719 Q114.4844,60.4063 115.375,61.2344 Q116.2656,62.0469 117.8594,62.0469 Q118.7969,62.0469 119.4531,61.7969 Q119.8438,61.6406 120.2656,61.2031 Q120.5313,60.9375 120.6719,60.8594 Q120.8281,60.7813 121.0313,60.7813 Q121.3594,60.7813 121.6094,61.0469 Q121.875,61.2969 121.875,61.6406 Q121.875,61.9844 121.5313,62.3906 Q121.0313,62.9688 120.2344,63.2969 Q119.1563,63.75 117.8594,63.75 Q116.3438,63.75 115.1406,63.125 Q114.1563,62.625 113.4688,61.5625 Q112.7813,60.4844 112.7813,59.2031 L112.7813,58.0469 Q112.7813,56.7188 113.3906,55.5781 Q114.0156,54.4219 115.1094,53.8125 Q116.2031,53.1875 117.4375,53.1875 Q118.1719,53.1875 118.8125,53.3594 Q119.4688,53.5156 120.0156,53.875 Z " fill="#000000"/><text fill="#000000" font-family="sans-serif" font-size="14" lengthAdjust="spacing" textLength="85" x="137.75" y="63.7285">DHCP4Lease</text><line style="stroke:#181818;stroke-width:0.5;" x1="69" x2="259" y1="74" y2="74"/><ellipse cx="79" cy="85" fill="none" rx="3" ry="3" style="stroke:#038048;stroke-width:1.0;"/><text fill="#000000" font-family="sans-serif" font-size="14" lengthAdjust="spacing" textLength="79" x="88" y="92.5332">ID uuid.UUID</text><line style="stroke:#181818;stroke-width:1.0;" x1="69" x2="259" y1="99.6094" y2="99.6094"/><ellipse cx="79" cy="110.6094" fill="none" rx="3" ry="3" style="stroke:#038048;stroke-width:1.0;"/><text fill="#000000" font-family="sans-serif" font-size="14" lengthAdjust="spacing" textLength="166" x="88" y="118.1426">DHCP4ConfigID uuid.UUID</text><line style="stroke:#181818;stroke-width:1.0;" x1="69" x2="259" y1="125.2188" y2="125.2188"/><ellipse cx="79" cy="136.2188" fill="none" rx="3" ry="3" style="stroke:#038048;stroke-width:1.0;"/><text fill="#000000" font-family="sans-serif" font-size="14" lengthAdjust="spacing" textLength="51" x="88" y="143.752">IP string</text><line style="stroke:#181818;stroke-width:1.0;" x1="69" x2="259" y1="150.8281" y2="150.8281"/><ellipse cx="79" cy="161.8281" fill="none" rx="3" ry="3" style="stroke:#038048;stroke-width:1.0;"/><text fill="#000000" font-family="sans-serif" font-size="14" lengthAdjust="spacing" textLength="69" x="88" y="169.3613">MAC string</text></g><!--MD5=[a6c7a0eda5b041e127f539f1664bb96a]
link Entity to IEntityModel--><g id="link_Entity_IEntityModel"><path codeLine="14" d="M164,370.28 C164,388.61 164,408.25 164,425.67 " fill="none" id="Entity-to-IEntityModel" style="stroke:#181818;stroke-width:1.0;stroke-dasharray:7.0,7.0;"/><polygon fill="none" points="171,425.93,164,445.93,157,425.93,171,425.93" style="stroke:#181818;stroke-width:1.0;"/></g><!--MD5=[d92dbc93b55ca7854669d0d397025348]
link DHCP4Lease to Entity--><g id="link_DHCP4Lease_Entity"><path codeLine="13" d="M164,176.08 C164,191.01 164,207.02 164,222.44 " fill="none" id="DHCP4Lease-to-Entity" style="stroke:#181818;stroke-width:1.0;"/><polygon fill="#181818" points="164,235.8,168,229.8,164,223.8,160,229.8,164,235.8" style="stroke:#181818;stroke-width:1.0;"/></g><!--MD5=[bb5cc12255e965dca25b5ec58f118136]
@startuml
!include Entity.puml

package domain {
    class DHCP4Lease {
        +ID uuid.UUID
        - -
        +DHCP4ConfigID uuid.UUID
        - -
        +IP string
        - -
        +MAC string
    }
    DHCP4Lease -down-* Entity
}

@enduml

@startuml


package app {
    interface IEntityModel {
        +GetID() uuid.UUID
    }
}


package domain {
    class Entity {
        +ID uuid.UUID `gorm:"primarykey"`
        - -
        +CreatedAt time.Time `gorm:"index"`
        - -
        +UpdatedAt time.Time `gorm:"index"`
        - -
        +DeletedAt gorm.DeletedAt `gorm:"index"`
    }
    Entity .down.|> IEntityModel
}


package domain {
    class DHCP4Lease {
        +ID uuid.UUID
        - -
        +DHCP4ConfigID uuid.UUID
        - -
        +IP string
        - -
        +MAC string
    }
    DHCP4Lease -down-* Entity
}

@enduml

PlantUML version 1.2022.6(Tue Jun 21 20:34:49 MSK 2022)
(GPL source distribution)
Java Runtime: OpenJDK Runtime Environment
JVM: OpenJDK 64-Bit Server VM
Default Encoding: Cp1251
Language: ru
Country: RU
--></g></svg>