<?xml version="1.0" encoding="UTF-8" standalone="no"?><svg xmlns="http://www.w3.org/2000/svg" xmlns:xlink="http://www.w3.org/1999/xlink" contentStyleType="text/css" height="663px" preserveAspectRatio="none" style="width:474px;height:663px;background:#FFFFFF;" version="1.1" viewBox="0 0 474 663" width="474px" zoomAndPan="magnify"><defs/><g><!--MD5=[d5ac3844f66b12d9e08170e47495e096]
cluster app--><g id="cluster_app"><path d="M226.5,538 L253.5,538 A3.75,3.75 0 0 1 256,540.5 L263,561.6094 L391.5,561.6094 A2.5,2.5 0 0 1 394,564.1094 L394,653.5 A2.5,2.5 0 0 1 391.5,656 L226.5,656 A2.5,2.5 0 0 1 224,653.5 L224,540.5 A2.5,2.5 0 0 1 226.5,538 " style="stroke:#000000;stroke-width:1.5;fill:none;"/><line style="stroke:#000000;stroke-width:1.5;fill:none;" x1="224" x2="263" y1="561.6094" y2="561.6094"/><text fill="#000000" font-family="sans-serif" font-size="14" font-weight="bold" lengthAdjust="spacing" textLength="26" x="228" y="554.5332">app</text></g><!--MD5=[27f772719433d509ddbc20ff768eba08]
cluster domain--><g id="cluster_domain"><path d="M8.5,6 L60.5,6 A3.75,3.75 0 0 1 63,8.5 L70,29.6094 L464.5,29.6094 A2.5,2.5 0 0 1 467,32.1094 L467,511.5 A2.5,2.5 0 0 1 464.5,514 L8.5,514 A2.5,2.5 0 0 1 6,511.5 L6,8.5 A2.5,2.5 0 0 1 8.5,6 " style="stroke:#000000;stroke-width:1.5;fill:none;"/><line style="stroke:#000000;stroke-width:1.5;fill:none;" x1="6" x2="70" y1="29.6094" y2="29.6094"/><text fill="#000000" font-family="sans-serif" font-size="14" font-weight="bold" lengthAdjust="spacing" textLength="51" x="10" y="22.5332">domain</text></g><!--MD5=[2a39a5be1cc24ddddd6e6286e4ece992]
class IEntityModel--><g id="elem_IEntityModel"><rect codeLine="3" fill="#F1F1F1" height="65.6094" id="IEntityModel" rx="2.5" ry="2.5" style="stroke:#181818;stroke-width:0.5;" width="138" x="240" y="574"/><ellipse cx="267.6" cy="590" fill="#B4A7E5" rx="11" ry="11" style="stroke:#181818;stroke-width:1.0;"/><path d="M268.5531,586.6406 L268.5531,593.2969 L270.2719,593.2969 Q270.8813,593.2969 271.1469,593.5313 Q271.4125,593.7656 271.4125,594.1563 Q271.4125,594.5313 271.1469,594.7656 Q270.8813,595 270.2719,595 L265.1313,595 Q264.5219,595 264.2563,594.7656 Q263.9906,594.5313 263.9906,594.1406 Q263.9906,593.7656 264.2563,593.5313 Q264.5219,593.2969 265.1313,593.2969 L266.85,593.2969 L266.85,586.6406 L265.1313,586.6406 Q264.5219,586.6406 264.2563,586.4063 Q263.9906,586.1719 263.9906,585.7813 Q263.9906,585.4063 264.2563,585.1719 Q264.5219,584.9375 265.1313,584.9375 L270.2719,584.9375 Q270.8813,584.9375 271.1469,585.1719 Q271.4125,585.4063 271.4125,585.7813 Q271.4125,586.1719 271.1469,586.4063 Q270.8813,586.6406 270.2719,586.6406 L268.5531,586.6406 Z " fill="#000000"/><text fill="#000000" font-family="sans-serif" font-size="14" font-style="italic" lengthAdjust="spacing" textLength="78" x="284.4" y="595.7285">IEntityModel</text><line style="stroke:#181818;stroke-width:0.5;" x1="241" x2="377" y1="606" y2="606"/><line style="stroke:#181818;stroke-width:0.5;" x1="241" x2="377" y1="614" y2="614"/><ellipse cx="251" cy="625" fill="#84BE84" rx="3" ry="3" style="stroke:#038048;stroke-width:1.0;"/><text fill="#000000" font-family="sans-serif" font-size="14" lengthAdjust="spacing" textLength="112" x="260" y="632.5332">GetID() uuid.UUID</text></g><!--MD5=[be996cdb8e6bf2fc7cb89c555f2cd144]
class Entity--><g id="elem_Entity"><rect codeLine="5" fill="#F1F1F1" height="134.4375" id="Entity" rx="2.5" ry="2.5" style="stroke:#181818;stroke-width:0.5;" width="283" x="167.5" y="364"/><ellipse cx="287.25" cy="380" fill="#ADD1B2" rx="11" ry="11" style="stroke:#181818;stroke-width:1.0;"/><path d="M290.0156,375.875 Q290.1719,375.6563 290.3594,375.5469 Q290.5469,375.4375 290.7656,375.4375 Q291.1406,375.4375 291.375,375.7031 Q291.6094,375.9531 291.6094,376.5625 L291.6094,378.0156 Q291.6094,378.625 291.375,378.8906 Q291.1406,379.1563 290.7656,379.1563 Q290.4219,379.1563 290.2188,378.9531 Q290.0156,378.7656 289.9063,378.25 Q289.8594,377.8906 289.6719,377.7031 Q289.3438,377.3281 288.7344,377.1094 Q288.125,376.8906 287.5,376.8906 Q286.7344,376.8906 286.0938,377.2188 Q285.4688,377.5469 284.9688,378.2969 Q284.4844,379.0469 284.4844,380.0781 L284.4844,381.1719 Q284.4844,382.4063 285.375,383.2344 Q286.2656,384.0469 287.8594,384.0469 Q288.7969,384.0469 289.4531,383.7969 Q289.8438,383.6406 290.2656,383.2031 Q290.5313,382.9375 290.6719,382.8594 Q290.8281,382.7813 291.0313,382.7813 Q291.3594,382.7813 291.6094,383.0469 Q291.875,383.2969 291.875,383.6406 Q291.875,383.9844 291.5313,384.3906 Q291.0313,384.9688 290.2344,385.2969 Q289.1563,385.75 287.8594,385.75 Q286.3438,385.75 285.1406,385.125 Q284.1563,384.625 283.4688,383.5625 Q282.7813,382.4844 282.7813,381.2031 L282.7813,380.0469 Q282.7813,378.7188 283.3906,377.5781 Q284.0156,376.4219 285.1094,375.8125 Q286.2031,375.1875 287.4375,375.1875 Q288.1719,375.1875 288.8125,375.3594 Q289.4688,375.5156 290.0156,375.875 Z " fill="#000000"/><text fill="#000000" font-family="sans-serif" font-size="14" lengthAdjust="spacing" textLength="35" x="307.75" y="385.7285">Entity</text><line style="stroke:#181818;stroke-width:0.5;" x1="168.5" x2="449.5" y1="396" y2="396"/><ellipse cx="178.5" cy="407" fill="none" rx="3" ry="3" style="stroke:#038048;stroke-width:1.0;"/><text fill="#000000" font-family="sans-serif" font-size="14" lengthAdjust="spacing" textLength="208" x="187.5" y="414.5332">ID uuid.UUID `gorm:"primarykey"`</text><line style="stroke:#181818;stroke-width:1.0;" x1="168.5" x2="449.5" y1="421.6094" y2="421.6094"/><ellipse cx="178.5" cy="432.6094" fill="none" rx="3" ry="3" style="stroke:#038048;stroke-width:1.0;"/><text fill="#000000" font-family="sans-serif" font-size="14" lengthAdjust="spacing" textLength="222" x="187.5" y="440.1426">CreatedAt time.Time `gorm:"index"`</text><line style="stroke:#181818;stroke-width:1.0;" x1="168.5" x2="449.5" y1="447.2188" y2="447.2188"/><ellipse cx="178.5" cy="458.2188" fill="none" rx="3" ry="3" style="stroke:#038048;stroke-width:1.0;"/><text fill="#000000" font-family="sans-serif" font-size="14" lengthAdjust="spacing" textLength="224" x="187.5" y="465.752">UpdatedAt time.Time `gorm:"index"`</text><line style="stroke:#181818;stroke-width:1.0;" x1="168.5" x2="449.5" y1="472.8281" y2="472.8281"/><ellipse cx="178.5" cy="483.8281" fill="none" rx="3" ry="3" style="stroke:#038048;stroke-width:1.0;"/><text fill="#000000" font-family="sans-serif" font-size="14" lengthAdjust="spacing" textLength="257" x="187.5" y="491.3613">DeletedAt gorm.DeletedAt `gorm:"index"`</text></g><!--MD5=[c74155cdcf25e342cd0e6bb99a4980a2]
class DHCP4Config--><g id="elem_DHCP4Config"><rect codeLine="5" fill="#F1F1F1" height="262.4844" id="DHCP4Config" rx="2.5" ry="2.5" style="stroke:#181818;stroke-width:0.5;" width="134" x="317" y="42"/><ellipse cx="338.75" cy="58" fill="#ADD1B2" rx="11" ry="11" style="stroke:#181818;stroke-width:1.0;"/><path d="M341.5156,53.875 Q341.6719,53.6563 341.8594,53.5469 Q342.0469,53.4375 342.2656,53.4375 Q342.6406,53.4375 342.875,53.7031 Q343.1094,53.9531 343.1094,54.5625 L343.1094,56.0156 Q343.1094,56.625 342.875,56.8906 Q342.6406,57.1563 342.2656,57.1563 Q341.9219,57.1563 341.7188,56.9531 Q341.5156,56.7656 341.4063,56.25 Q341.3594,55.8906 341.1719,55.7031 Q340.8438,55.3281 340.2344,55.1094 Q339.625,54.8906 339,54.8906 Q338.2344,54.8906 337.5938,55.2188 Q336.9688,55.5469 336.4688,56.2969 Q335.9844,57.0469 335.9844,58.0781 L335.9844,59.1719 Q335.9844,60.4063 336.875,61.2344 Q337.7656,62.0469 339.3594,62.0469 Q340.2969,62.0469 340.9531,61.7969 Q341.3438,61.6406 341.7656,61.2031 Q342.0313,60.9375 342.1719,60.8594 Q342.3281,60.7813 342.5313,60.7813 Q342.8594,60.7813 343.1094,61.0469 Q343.375,61.2969 343.375,61.6406 Q343.375,61.9844 343.0313,62.3906 Q342.5313,62.9688 341.7344,63.2969 Q340.6563,63.75 339.3594,63.75 Q337.8438,63.75 336.6406,63.125 Q335.6563,62.625 334.9688,61.5625 Q334.2813,60.4844 334.2813,59.2031 L334.2813,58.0469 Q334.2813,56.7188 334.8906,55.5781 Q335.5156,54.4219 336.6094,53.8125 Q337.7031,53.1875 338.9375,53.1875 Q339.6719,53.1875 340.3125,53.3594 Q340.9688,53.5156 341.5156,53.875 Z " fill="#000000"/><text fill="#000000" font-family="sans-serif" font-size="14" lengthAdjust="spacing" textLength="87" x="354.25" y="63.7285">DHCP4Config</text><line style="stroke:#181818;stroke-width:0.5;" x1="318" x2="450" y1="74" y2="74"/><ellipse cx="328" cy="85" fill="none" rx="3" ry="3" style="stroke:#038048;stroke-width:1.0;"/><text fill="#000000" font-family="sans-serif" font-size="14" lengthAdjust="spacing" textLength="75" x="337" y="92.5332">Name string</text><line style="stroke:#181818;stroke-width:1.0;" x1="318" x2="450" y1="99.6094" y2="99.6094"/><ellipse cx="328" cy="110.6094" fill="none" rx="3" ry="3" style="stroke:#038048;stroke-width:1.0;"/><text fill="#000000" font-family="sans-serif" font-size="14" lengthAdjust="spacing" textLength="81" x="337" y="118.1426">Range string</text><line style="stroke:#181818;stroke-width:1.0;" x1="318" x2="450" y1="125.2188" y2="125.2188"/><ellipse cx="328" cy="136.2188" fill="none" rx="3" ry="3" style="stroke:#038048;stroke-width:1.0;"/><text fill="#000000" font-family="sans-serif" font-size="14" lengthAdjust="spacing" textLength="72" x="337" y="143.752">Mask string</text><line style="stroke:#181818;stroke-width:1.0;" x1="318" x2="450" y1="150.8281" y2="150.8281"/><ellipse cx="328" cy="161.8281" fill="none" rx="3" ry="3" style="stroke:#038048;stroke-width:1.0;"/><text fill="#000000" font-family="sans-serif" font-size="14" lengthAdjust="spacing" textLength="108" x="337" y="169.3613">NextServer string</text><line style="stroke:#181818;stroke-width:1.0;" x1="318" x2="450" y1="176.4375" y2="176.4375"/><ellipse cx="328" cy="187.4375" fill="none" rx="3" ry="3" style="stroke:#038048;stroke-width:1.0;"/><text fill="#000000" font-family="sans-serif" font-size="14" lengthAdjust="spacing" textLength="94" x="337" y="194.9707">ServerID string</text><line style="stroke:#181818;stroke-width:1.0;" x1="318" x2="450" y1="202.0469" y2="202.0469"/><ellipse cx="328" cy="213.0469" fill="none" rx="3" ry="3" style="stroke:#038048;stroke-width:1.0;"/><text fill="#000000" font-family="sans-serif" font-size="14" lengthAdjust="spacing" textLength="94" x="337" y="220.5801">Interface string</text><line style="stroke:#181818;stroke-width:1.0;" x1="318" x2="450" y1="227.6563" y2="227.6563"/><ellipse cx="328" cy="238.6563" fill="none" rx="3" ry="3" style="stroke:#038048;stroke-width:1.0;"/><text fill="#000000" font-family="sans-serif" font-size="14" lengthAdjust="spacing" textLength="94" x="337" y="246.1895">Gateway string</text><line style="stroke:#181818;stroke-width:1.0;" x1="318" x2="450" y1="253.2656" y2="253.2656"/><ellipse cx="328" cy="264.2656" fill="none" rx="3" ry="3" style="stroke:#038048;stroke-width:1.0;"/><text fill="#000000" font-family="sans-serif" font-size="14" lengthAdjust="spacing" textLength="67" x="337" y="271.7988">DNS string</text><line style="stroke:#181818;stroke-width:1.0;" x1="318" x2="450" y1="278.875" y2="278.875"/><ellipse cx="328" cy="289.875" fill="none" rx="3" ry="3" style="stroke:#038048;stroke-width:1.0;"/><text fill="#000000" font-family="sans-serif" font-size="14" lengthAdjust="spacing" textLength="66" x="337" y="297.4082">NTP string</text></g><path d="M22,136.5 L22,162.8516 A0,0 0 0 0 22,162.8516 L282,162.8516 A0,0 0 0 0 282,162.8516 L282,154.5 L321,112.4141 L282,146.5 L282,146.5 L272,136.5 L22,136.5 A0,0 0 0 0 22,136.5 " fill="#FEFFDD" style="stroke:#181818;stroke-width:0.5;"/><path d="M272,136.5 L272,146.5 L282,146.5 L272,136.5 " fill="#FEFFDD" style="stroke:#181818;stroke-width:0.5;"/><text fill="#000000" font-family="sans-serif" font-size="13" lengthAdjust="spacing" textLength="239" x="28" y="154.9951">Start IP and End IP, that separated by "-"</text><path d="M22,172.8516 L22,199.2031 A0,0 0 0 0 22,199.2031 L234,199.2031 A0,0 0 0 0 234,199.2031 L234,190.8516 L321,189.2422 L234,182.8516 L234,182.8516 L224,172.8516 L22,172.8516 A0,0 0 0 0 22,172.8516 " fill="#FEFFDD" style="stroke:#181818;stroke-width:0.5;"/><path d="M224,172.8516 L224,182.8516 L234,182.8516 L224,172.8516 " fill="#FEFFDD" style="stroke:#181818;stroke-width:0.5;"/><text fill="#000000" font-family="sans-serif" font-size="13" lengthAdjust="spacing" textLength="191" x="28" y="191.3467">Server ID DHCP option, IP string.</text><!--MD5=[a6c7a0eda5b041e127f539f1664bb96a]
link Entity to IEntityModel--><g id="link_Entity_IEntityModel"><path codeLine="14" d="M309,498.28 C309,516.61 309,536.25 309,553.67 " fill="none" id="Entity-to-IEntityModel" style="stroke:#181818;stroke-width:1.0;stroke-dasharray:7.0,7.0;"/><polygon fill="none" points="316,553.93,309,573.93,302,553.93,316,553.93" style="stroke:#181818;stroke-width:1.0;"/></g><!--MD5=[5e986e85302c4f3ce6a664d5325c773c]
link DHCP4Config to Entity--><g id="link_DHCP4Config_Entity"><path codeLine="24" d="M345.84,304.25 C341.17,320.2 336.51,336.11 332.15,350.98 " fill="none" id="DHCP4Config-to-Entity" style="stroke:#181818;stroke-width:1.0;"/><polygon fill="#181818" points="328.41,363.76,333.9367,359.128,331.7867,352.2449,326.26,356.8769,328.41,363.76" style="stroke:#181818;stroke-width:1.0;"/></g><!--MD5=[c19566b93d005f4382baaecc69582af8]
@startuml

!include Entity.puml

package domain {
    class DHCP4Config {
        +Name string
        - -
        +Range string
        - -
        +Mask string
        - -
        +NextServer string
        - -
        +ServerID string
        - -
        +Interface string
        - -
        +Gateway string
        - -
        +DNS string
        - -
        +NTP string
    }
    DHCP4Config -down-* Entity

    note left of DHCP4Config::Range
    Start IP and End IP, that separated by "-"
    end note

    note left of DHCP4Config::ServerID
    Server ID DHCP option, IP string.
    end note
}

@enduml

@startuml



package app {
    interface IEntityModel {
        +GetID() uuid.UUID
    }
}


package domain {
    class Entity {
        +ID uuid.UUID `gorm:"primarykey"`
        - -
        +CreatedAt time.Time `gorm:"index"`
        - -
        +UpdatedAt time.Time `gorm:"index"`
        - -
        +DeletedAt gorm.DeletedAt `gorm:"index"`
    }
    Entity .down.|> IEntityModel
}


package domain {
    class DHCP4Config {
        +Name string
        - -
        +Range string
        - -
        +Mask string
        - -
        +NextServer string
        - -
        +ServerID string
        - -
        +Interface string
        - -
        +Gateway string
        - -
        +DNS string
        - -
        +NTP string
    }
    DHCP4Config -down-* Entity

    note left of DHCP4Config::Range
    Start IP and End IP, that separated by "-"
    end note

    note left of DHCP4Config::ServerID
    Server ID DHCP option, IP string.
    end note
}

@enduml

PlantUML version 1.2022.6(Tue Jun 21 20:34:49 MSK 2022)
(GPL source distribution)
Java Runtime: OpenJDK Runtime Environment
JVM: OpenJDK 64-Bit Server VM
Default Encoding: Cp1251
Language: ru
Country: RU
--></g></svg>