<?xml version="1.0" encoding="UTF-8" standalone="no"?><svg xmlns="http://www.w3.org/2000/svg" xmlns:xlink="http://www.w3.org/1999/xlink" contentStyleType="text/css" height="721px" preserveAspectRatio="none" style="width:257px;height:721px;background:#FFFFFF;" version="1.1" viewBox="0 0 257 721" width="257px" zoomAndPan="magnify"><defs/><g><!--MD5=[d5ac3844f66b12d9e08170e47495e096]
cluster app--><g id="cluster_app"><path d="M8.5,534 L38.5,534 A3.75,3.75 0 0 1 41,536.5 L48,556.2969 L247.5,556.2969 A2.5,2.5 0 0 1 250,558.7969 L250,711.5 A2.5,2.5 0 0 1 247.5,714 L8.5,714 A2.5,2.5 0 0 1 6,711.5 L6,536.5 A2.5,2.5 0 0 1 8.5,534 " style="stroke:#000000;stroke-width:1.5;fill:none;"/><line style="stroke:#000000;stroke-width:1.5;fill:none;" x1="6" x2="48" y1="556.2969" y2="556.2969"/><text fill="#000000" font-family="sans-serif" font-size="14" font-weight="bold" lengthAdjust="spacing" textLength="29" x="10" y="548.9951">app</text></g><!--MD5=[27f772719433d509ddbc20ff768eba08]
cluster domain--><g id="cluster_domain"><path d="M10.5,6 L68.5,6 A3.75,3.75 0 0 1 71,8.5 L78,28.2969 L245.5,28.2969 A2.5,2.5 0 0 1 248,30.7969 L248,498.5 A2.5,2.5 0 0 1 245.5,501 L10.5,501 A2.5,2.5 0 0 1 8,498.5 L8,8.5 A2.5,2.5 0 0 1 10.5,6 " style="stroke:#000000;stroke-width:1.5;fill:none;"/><line style="stroke:#000000;stroke-width:1.5;fill:none;" x1="8" x2="78" y1="28.2969" y2="28.2969"/><text fill="#000000" font-family="sans-serif" font-size="14" font-weight="bold" lengthAdjust="spacing" textLength="57" x="12" y="20.9951">domain</text></g><!--MD5=[2a39a5be1cc24ddddd6e6286e4ece992]
class IEntityModel--><g id="elem_IEntityModel"><rect codeLine="3" fill="#F1F1F1" height="129.1875" id="IEntityModel" rx="2.5" ry="2.5" style="stroke:#181818;stroke-width:0.5;" width="213" x="21.5" y="569"/><ellipse cx="58.55" cy="585" fill="#B4A7E5" rx="11" ry="11" style="stroke:#181818;stroke-width:1.0;"/><path d="M54.4719,580.7656 L54.4719,578.6094 L61.8625,578.6094 L61.8625,580.7656 L59.3938,580.7656 L59.3938,588.8438 L61.8625,588.8438 L61.8625,591 L54.4719,591 L54.4719,588.8438 L56.9406,588.8438 L56.9406,580.7656 L54.4719,580.7656 Z " fill="#000000"/><text fill="#000000" font-family="sans-serif" font-size="14" font-style="italic" lengthAdjust="spacing" textLength="85" x="77.45" y="589.8467">IEntityModel</text><rect fill="#FFFFFF" height="15.9688" style="stroke:#000000;stroke-width:1.0;stroke-dasharray:2.0,2.0;" width="45" x="192.5" y="566"/><text fill="#000000" font-family="sans-serif" font-size="12" font-style="italic" lengthAdjust="spacing" textLength="43" x="193.5" y="578.1387">IDType</text><line style="stroke:#181818;stroke-width:0.5;" x1="22.5" x2="233.5" y1="601" y2="601"/><ellipse cx="32.5" cy="612" fill="#84BE84" rx="3" ry="3" style="stroke:#038048;stroke-width:1.0;"/><text fill="#000000" font-family="sans-serif" font-size="14" lengthAdjust="spacing" textLength="101" x="41.5" y="617.9951">GetID() IDType</text><line style="stroke:#181818;stroke-width:1.0;" x1="22.5" x2="233.5" y1="625.2969" y2="625.2969"/><ellipse cx="32.5" cy="636.2969" fill="#84BE84" rx="3" ry="3" style="stroke:#038048;stroke-width:1.0;"/><text fill="#000000" font-family="sans-serif" font-size="14" lengthAdjust="spacing" textLength="176" x="41.5" y="642.292">GetCreatedAt() time.Time</text><line style="stroke:#181818;stroke-width:1.0;" x1="22.5" x2="233.5" y1="649.5938" y2="649.5938"/><ellipse cx="32.5" cy="660.5938" fill="#84BE84" rx="3" ry="3" style="stroke:#038048;stroke-width:1.0;"/><text fill="#000000" font-family="sans-serif" font-size="14" lengthAdjust="spacing" textLength="187" x="41.5" y="666.5889">GetUpdatedAt() *time.Time</text><line style="stroke:#181818;stroke-width:1.0;" x1="22.5" x2="233.5" y1="673.8906" y2="673.8906"/><ellipse cx="32.5" cy="684.8906" fill="#84BE84" rx="3" ry="3" style="stroke:#038048;stroke-width:1.0;"/><text fill="#000000" font-family="sans-serif" font-size="14" lengthAdjust="spacing" textLength="183" x="41.5" y="690.8857">GetDeletedAt() *time.Time</text></g><!--MD5=[1045d07ae824aea072cabb0fb8284887]
class EntityUUID--><g id="elem_EntityUUID"><rect codeLine="5" fill="#F1F1F1" height="48" id="EntityUUID" rx="2.5" ry="2.5" style="stroke:#181818;stroke-width:0.5;" width="104" x="63" y="231"/><ellipse cx="78" cy="247" fill="#ADD1B2" rx="11" ry="11" style="stroke:#181818;stroke-width:1.0;"/><path d="M80.9688,252.6406 Q80.3906,252.9375 79.75,253.0781 Q79.1094,253.2344 78.4063,253.2344 Q75.9063,253.2344 74.5781,251.5938 Q73.2656,249.9375 73.2656,246.8125 Q73.2656,243.6875 74.5781,242.0313 Q75.9063,240.375 78.4063,240.375 Q79.1094,240.375 79.75,240.5313 Q80.4063,240.6875 80.9688,240.9844 L80.9688,243.7031 Q80.3438,243.125 79.75,242.8594 Q79.1563,242.5781 78.5313,242.5781 Q77.1875,242.5781 76.5,243.6563 Q75.8125,244.7188 75.8125,246.8125 Q75.8125,248.9063 76.5,249.9844 Q77.1875,251.0469 78.5313,251.0469 Q79.1563,251.0469 79.75,250.7813 Q80.3438,250.5 80.9688,249.9219 L80.9688,252.6406 Z " fill="#000000"/><text fill="#000000" font-family="sans-serif" font-size="14" lengthAdjust="spacing" textLength="72" x="92" y="251.8467">EntityUUID</text><line style="stroke:#181818;stroke-width:0.5;" x1="64" x2="166" y1="263" y2="263"/><line style="stroke:#181818;stroke-width:0.5;" x1="64" x2="166" y1="271" y2="271"/></g><!--MD5=[be996cdb8e6bf2fc7cb89c555f2cd144]
class Entity--><g id="elem_Entity"><rect codeLine="8" fill="#F1F1F1" height="129.1875" id="Entity" rx="2.5" ry="2.5" style="stroke:#181818;stroke-width:0.5;" width="208" x="24" y="356"/><ellipse cx="81.25" cy="372" fill="#ADD1B2" rx="11" ry="11" style="stroke:#181818;stroke-width:1.0;"/><path d="M84.2188,377.6406 Q83.6406,377.9375 83,378.0781 Q82.3594,378.2344 81.6563,378.2344 Q79.1563,378.2344 77.8281,376.5938 Q76.5156,374.9375 76.5156,371.8125 Q76.5156,368.6875 77.8281,367.0313 Q79.1563,365.375 81.6563,365.375 Q82.3594,365.375 83,365.5313 Q83.6563,365.6875 84.2188,365.9844 L84.2188,368.7031 Q83.5938,368.125 83,367.8594 Q82.4063,367.5781 81.7813,367.5781 Q80.4375,367.5781 79.75,368.6563 Q79.0625,369.7188 79.0625,371.8125 Q79.0625,373.9063 79.75,374.9844 Q80.4375,376.0469 81.7813,376.0469 Q82.4063,376.0469 83,375.7813 Q83.5938,375.5 84.2188,374.9219 L84.2188,377.6406 Z " fill="#000000"/><text fill="#000000" font-family="sans-serif" font-size="14" lengthAdjust="spacing" textLength="38" x="101.75" y="376.8467">Entity</text><rect fill="#FFFFFF" height="15.9688" style="stroke:#000000;stroke-width:1.0;stroke-dasharray:2.0,2.0;" width="45" x="190" y="353"/><text fill="#000000" font-family="sans-serif" font-size="12" font-style="italic" lengthAdjust="spacing" textLength="43" x="191" y="365.1387">IDType</text><line style="stroke:#181818;stroke-width:0.5;" x1="25" x2="231" y1="388" y2="388"/><ellipse cx="35" cy="399" fill="none" rx="3" ry="3" style="stroke:#038048;stroke-width:1.0;"/><text fill="#000000" font-family="sans-serif" font-size="14" lengthAdjust="spacing" textLength="66" x="44" y="404.9951">ID IDType</text><line style="stroke:#181818;stroke-width:1.0;" x1="25" x2="231" y1="412.2969" y2="412.2969"/><ellipse cx="35" cy="423.2969" fill="none" rx="3" ry="3" style="stroke:#038048;stroke-width:1.0;"/><text fill="#000000" font-family="sans-serif" font-size="14" lengthAdjust="spacing" textLength="141" x="44" y="429.292">CreatedAt time.Time</text><line style="stroke:#181818;stroke-width:1.0;" x1="25" x2="231" y1="436.5938" y2="436.5938"/><ellipse cx="35" cy="447.5938" fill="none" rx="3" ry="3" style="stroke:#038048;stroke-width:1.0;"/><text fill="#000000" font-family="sans-serif" font-size="14" lengthAdjust="spacing" textLength="152" x="44" y="453.5889">UpdatedAt *time.Time</text><line style="stroke:#181818;stroke-width:1.0;" x1="25" x2="231" y1="460.8906" y2="460.8906"/><ellipse cx="35" cy="471.8906" fill="none" rx="3" ry="3" style="stroke:#038048;stroke-width:1.0;"/><text fill="#000000" font-family="sans-serif" font-size="14" lengthAdjust="spacing" textLength="182" x="44" y="477.8857">DeletedAt gorm.DeletedAt</text></g><!--MD5=[f0474206043373679905908f8f9685bc]
class DHCP4Lease--><g id="elem_DHCP4Lease"><rect codeLine="4" fill="#F1F1F1" height="129.1875" id="DHCP4Lease" rx="2.5" ry="2.5" style="stroke:#181818;stroke-width:0.5;" width="205" x="23.5" y="41"/><ellipse cx="76.75" cy="57" fill="#ADD1B2" rx="11" ry="11" style="stroke:#181818;stroke-width:1.0;"/><path d="M79.7188,62.6406 Q79.1406,62.9375 78.5,63.0781 Q77.8594,63.2344 77.1563,63.2344 Q74.6563,63.2344 73.3281,61.5938 Q72.0156,59.9375 72.0156,56.8125 Q72.0156,53.6875 73.3281,52.0313 Q74.6563,50.375 77.1563,50.375 Q77.8594,50.375 78.5,50.5313 Q79.1563,50.6875 79.7188,50.9844 L79.7188,53.7031 Q79.0938,53.125 78.5,52.8594 Q77.9063,52.5781 77.2813,52.5781 Q75.9375,52.5781 75.25,53.6563 Q74.5625,54.7188 74.5625,56.8125 Q74.5625,58.9063 75.25,59.9844 Q75.9375,61.0469 77.2813,61.0469 Q77.9063,61.0469 78.5,60.7813 Q79.0938,60.5 79.7188,59.9219 L79.7188,62.6406 Z " fill="#000000"/><text fill="#000000" font-family="sans-serif" font-size="14" lengthAdjust="spacing" textLength="90" x="97.25" y="61.8467">DHCP4Lease</text><line style="stroke:#181818;stroke-width:0.5;" x1="24.5" x2="227.5" y1="73" y2="73"/><ellipse cx="34.5" cy="84" fill="none" rx="3" ry="3" style="stroke:#038048;stroke-width:1.0;"/><text fill="#000000" font-family="sans-serif" font-size="14" lengthAdjust="spacing" textLength="86" x="43.5" y="89.9951">ID uuid.UUID</text><line style="stroke:#181818;stroke-width:1.0;" x1="24.5" x2="227.5" y1="97.2969" y2="97.2969"/><ellipse cx="34.5" cy="108.2969" fill="none" rx="3" ry="3" style="stroke:#038048;stroke-width:1.0;"/><text fill="#000000" font-family="sans-serif" font-size="14" lengthAdjust="spacing" textLength="179" x="43.5" y="114.292">DHCP4ConfigID uuid.UUID</text><line style="stroke:#181818;stroke-width:1.0;" x1="24.5" x2="227.5" y1="121.5938" y2="121.5938"/><ellipse cx="34.5" cy="132.5938" fill="none" rx="3" ry="3" style="stroke:#038048;stroke-width:1.0;"/><text fill="#000000" font-family="sans-serif" font-size="14" lengthAdjust="spacing" textLength="55" x="43.5" y="138.5889">IP string</text><line style="stroke:#181818;stroke-width:1.0;" x1="24.5" x2="227.5" y1="145.8906" y2="145.8906"/><ellipse cx="34.5" cy="156.8906" fill="none" rx="3" ry="3" style="stroke:#038048;stroke-width:1.0;"/><text fill="#000000" font-family="sans-serif" font-size="14" lengthAdjust="spacing" textLength="74" x="43.5" y="162.8857">MAC string</text></g><!--MD5=[4afd32b9c3a651e50eee9a88aa9ac7c6]
link EntityUUID to Entity--><g id="link_EntityUUID_Entity"><path codeLine="7" d="M116.84,279.08 C118.17,295.86 120.06,319.61 121.9,342.82 " fill="none" id="EntityUUID-to-Entity" style="stroke:#181818;stroke-width:1.0;"/><polygon fill="#181818" points="122.95,355.98,126.4563,349.6787,121.9883,344.0186,118.482,350.3198,122.95,355.98" style="stroke:#181818;stroke-width:1.0;"/><text fill="#000000" font-family="sans-serif" font-size="13" lengthAdjust="spacing" textLength="125" x="122" y="322.0669">IDType is uuid.UUID</text></g><!--MD5=[a6c7a0eda5b041e127f539f1664bb96a]
link Entity to IEntityModel--><g id="link_Entity_IEntityModel"><path codeLine="17" d="M128,485.09 C128,505.04 128,527.36 128,548.49 " fill="none" id="Entity-to-IEntityModel" style="stroke:#181818;stroke-width:1.0;stroke-dasharray:7.0,7.0;"/><polygon fill="none" points="135,548.67,128,568.67,121,548.67,135,548.67" style="stroke:#181818;stroke-width:1.0;"/></g><!--MD5=[11858071ca1ebba6204425b9bdcd199e]
link DHCP4Lease to EntityUUID--><g id="link_DHCP4Lease_EntityUUID"><path codeLine="13" d="M121.24,170.34 C120.04,186.45 118.79,203.21 117.72,217.46 " fill="none" id="DHCP4Lease-to-EntityUUID" style="stroke:#181818;stroke-width:1.0;"/><polygon fill="#181818" points="116.73,230.76,121.1607,225.0706,117.6131,218.7925,113.1824,224.4819,116.73,230.76" style="stroke:#181818;stroke-width:1.0;"/></g><!--MD5=[66bc2bcc0d80864786b1116fb428da19]
@startuml
!include Entity.puml

package domain {
    class DHCP4Lease {
        +ID uuid.UUID
        - -
        +DHCP4ConfigID uuid.UUID
        - -
        +IP string
        - -
        +MAC string
    }
    DHCP4Lease -down-* EntityUUID
}

@enduml

@startuml


package app {
    interface IEntityModel<IDType> {
        +GetID() IDType
        - -
        +GetCreatedAt() time.Time
        - -
        +GetUpdatedAt() *time.Time
        - -
        +GetDeletedAt() *time.Time
    }
}


package domain {
    class EntityUUID {
    }
    EntityUUID - -* Entity : IDType is uuid.UUID
    class Entity<IDType> {
        +ID IDType
        - -
        +CreatedAt time.Time
        - -
        +UpdatedAt *time.Time
        - -
        +DeletedAt gorm.DeletedAt
    }
    Entity .down.|> IEntityModel
}


package domain {
    class DHCP4Lease {
        +ID uuid.UUID
        - -
        +DHCP4ConfigID uuid.UUID
        - -
        +IP string
        - -
        +MAC string
    }
    DHCP4Lease -down-* EntityUUID
}

@enduml

PlantUML version 1.2022.6(Tue Jun 21 17:34:49 EGST 2022)
(GPL source distribution)
Java Runtime: OpenJDK Runtime Environment
JVM: OpenJDK 64-Bit Server VM
Default Encoding: UTF-8
Language: en
Country: US
--></g></svg>