<?xml version="1.0" encoding="UTF-8" standalone="no"?><svg xmlns="http://www.w3.org/2000/svg" xmlns:xlink="http://www.w3.org/1999/xlink" contentStyleType="text/css" height="225px" preserveAspectRatio="none" style="width:191px;height:225px;background:#FFFFFF;" version="1.1" viewBox="0 0 191 225" width="191px" zoomAndPan="magnify"><defs/><g><!--MD5=[27f772719433d509ddbc20ff768eba08]
cluster domain--><g id="cluster_domain"><path d="M8.5,6 L60.5,6 A3.75,3.75 0 0 1 63,8.5 L70,29.6094 L181.5,29.6094 A2.5,2.5 0 0 1 184,32.1094 L184,215.5 A2.5,2.5 0 0 1 181.5,218 L8.5,218 A2.5,2.5 0 0 1 6,215.5 L6,8.5 A2.5,2.5 0 0 1 8.5,6 " style="stroke:#000000;stroke-width:1.5;fill:none;"/><line style="stroke:#000000;stroke-width:1.5;fill:none;" x1="6" x2="70" y1="29.6094" y2="29.6094"/><text fill="#000000" font-family="sans-serif" font-size="14" font-weight="bold" lengthAdjust="spacing" textLength="51" x="10" y="22.5332">domain</text></g><!--MD5=[4e6a87af6da6e423968b760502e86650]
class DHCPServerState--><g id="elem_DHCPServerState"><rect codeLine="3" fill="#F1F1F1" height="160.0469" id="DHCPServerState" rx="2.5" ry="2.5" style="stroke:#181818;stroke-width:0.5;" width="146" x="22" y="42"/><ellipse cx="37.45" cy="58" fill="#EB937F" rx="11" ry="11" style="stroke:#181818;stroke-width:1.0;"/><path d="M36.3094,58.7969 L36.3094,61.2969 L40.6375,61.2969 L40.6375,60.375 Q40.6375,59.7656 40.8719,59.5 Q41.1219,59.2344 41.4969,59.2344 Q41.8719,59.2344 42.1063,59.5 Q42.3406,59.7656 42.3406,60.375 L42.3406,63 L34.3406,63 Q33.7156,63 33.45,62.7656 Q33.2,62.5313 33.2,62.1406 Q33.2,61.7656 33.4656,61.5313 Q33.7313,61.2969 34.3406,61.2969 L34.6063,61.2969 L34.6063,54.6406 L34.3406,54.6406 Q33.7156,54.6406 33.45,54.4063 Q33.2,54.1719 33.2,53.7813 Q33.2,53.4063 33.45,53.1719 Q33.7156,52.9375 34.3406,52.9375 L41.9656,52.9375 L41.9656,55.5313 Q41.9656,56.1406 41.7313,56.4063 Q41.5125,56.6563 41.1219,56.6563 Q40.7469,56.6563 40.5125,56.4063 Q40.2781,56.1406 40.2781,55.5313 L40.2781,54.6406 L36.3094,54.6406 L36.3094,57.0938 L37.7938,57.0938 Q37.7938,56.4375 37.9188,56.25 Q38.1844,55.8438 38.6531,55.8438 Q39.0281,55.8438 39.2625,56.1094 Q39.4969,56.3594 39.4969,56.9688 L39.4969,58.9375 Q39.4969,59.4844 39.3719,59.6719 Q39.1063,60.0625 38.6531,60.0625 Q38.1844,60.0625 37.9188,59.6563 Q37.7938,59.4688 37.7938,58.7969 L36.3094,58.7969 Z " fill="#000000"/><text fill="#000000" font-family="sans-serif" font-size="14" lengthAdjust="spacing" textLength="113" x="51.55" y="63.7285">DHCPServerState</text><line style="stroke:#181818;stroke-width:0.5;" x1="23" x2="167" y1="74" y2="74"/><text fill="#000000" font-family="sans-serif" font-size="14" lengthAdjust="spacing" textLength="134" x="28" y="92.5332">DHCPStateLaunched</text><line style="stroke:#181818;stroke-width:1.0;" x1="23" x2="167" y1="99.6094" y2="99.6094"/><text fill="#000000" font-family="sans-serif" font-size="14" lengthAdjust="spacing" textLength="124" x="28" y="118.1426">DHCPStateStopped</text><line style="stroke:#181818;stroke-width:1.0;" x1="23" x2="167" y1="125.2188" y2="125.2188"/><text fill="#000000" font-family="sans-serif" font-size="14" lengthAdjust="spacing" textLength="103" x="28" y="143.752">DHCPStateError</text><line style="stroke:#181818;stroke-width:1.0;" x1="23" x2="167" y1="150.8281" y2="150.8281"/><text fill="#000000" font-family="sans-serif" font-size="14" lengthAdjust="spacing" textLength="104" x="28" y="169.3613">DHCPStateNone</text><line style="stroke:#181818;stroke-width:1.0;" x1="23" x2="167" y1="176.4375" y2="176.4375"/><ellipse cx="33" cy="187.4375" fill="#84BE84" rx="3" ry="3" style="stroke:#038048;stroke-width:1.0;"/><text fill="#000000" font-family="sans-serif" font-size="14" lengthAdjust="spacing" textLength="64" x="42" y="194.9707">ToString()</text></g><!--MD5=[935d285712bb0a4746339941c771724d]
@startuml

package domain {
    enum DHCPServerState {
            DHCPStateLaunched
            - -
            DHCPStateStopped
            - -
            DHCPStateError
            - -
            DHCPStateNone
            - -
            +ToString()
    }
}

@enduml

PlantUML version 1.2022.6(Tue Jun 21 20:34:49 MSK 2022)
(GPL source distribution)
Java Runtime: OpenJDK Runtime Environment
JVM: OpenJDK 64-Bit Server VM
Default Encoding: Cp1251
Language: ru
Country: RU
--></g></svg>