<?xml version="1.0" encoding="UTF-8" standalone="no"?><svg xmlns="http://www.w3.org/2000/svg" xmlns:xlink="http://www.w3.org/1999/xlink" contentStyleType="text/css" height="531px" preserveAspectRatio="none" style="width:257px;height:531px;background:#FFFFFF;" version="1.1" viewBox="0 0 257 531" width="257px" zoomAndPan="magnify"><defs/><g><!--MD5=[d5ac3844f66b12d9e08170e47495e096]
cluster app--><g id="cluster_app"><path d="M8.5,344 L38.5,344 A3.75,3.75 0 0 1 41,346.5 L48,366.2969 L247.5,366.2969 A2.5,2.5 0 0 1 250,368.7969 L250,521.5 A2.5,2.5 0 0 1 247.5,524 L8.5,524 A2.5,2.5 0 0 1 6,521.5 L6,346.5 A2.5,2.5 0 0 1 8.5,344 " style="stroke:#000000;stroke-width:1.5;fill:none;"/><line style="stroke:#000000;stroke-width:1.5;fill:none;" x1="6" x2="48" y1="366.2969" y2="366.2969"/><text fill="#000000" font-family="sans-serif" font-size="14" font-weight="bold" lengthAdjust="spacing" textLength="29" x="10" y="358.9951">app</text></g><!--MD5=[27f772719433d509ddbc20ff768eba08]
cluster domain--><g id="cluster_domain"><path d="M10.5,6 L68.5,6 A3.75,3.75 0 0 1 71,8.5 L78,28.2969 L245.5,28.2969 A2.5,2.5 0 0 1 248,30.7969 L248,308.5 A2.5,2.5 0 0 1 245.5,311 L10.5,311 A2.5,2.5 0 0 1 8,308.5 L8,8.5 A2.5,2.5 0 0 1 10.5,6 " style="stroke:#000000;stroke-width:1.5;fill:none;"/><line style="stroke:#000000;stroke-width:1.5;fill:none;" x1="8" x2="78" y1="28.2969" y2="28.2969"/><text fill="#000000" font-family="sans-serif" font-size="14" font-weight="bold" lengthAdjust="spacing" textLength="57" x="12" y="20.9951">domain</text></g><!--MD5=[2a39a5be1cc24ddddd6e6286e4ece992]
class IEntityModel--><g id="elem_IEntityModel"><rect codeLine="3" fill="#F1F1F1" height="129.1875" id="IEntityModel" rx="2.5" ry="2.5" style="stroke:#181818;stroke-width:0.5;" width="213" x="21.5" y="379"/><ellipse cx="58.55" cy="395" fill="#B4A7E5" rx="11" ry="11" style="stroke:#181818;stroke-width:1.0;"/><path d="M54.4719,390.7656 L54.4719,388.6094 L61.8625,388.6094 L61.8625,390.7656 L59.3938,390.7656 L59.3938,398.8438 L61.8625,398.8438 L61.8625,401 L54.4719,401 L54.4719,398.8438 L56.9406,398.8438 L56.9406,390.7656 L54.4719,390.7656 Z " fill="#000000"/><text fill="#000000" font-family="sans-serif" font-size="14" font-style="italic" lengthAdjust="spacing" textLength="85" x="77.45" y="399.8467">IEntityModel</text><rect fill="#FFFFFF" height="15.9688" style="stroke:#000000;stroke-width:1.0;stroke-dasharray:2.0,2.0;" width="45" x="192.5" y="376"/><text fill="#000000" font-family="sans-serif" font-size="12" font-style="italic" lengthAdjust="spacing" textLength="43" x="193.5" y="388.1387">IDType</text><line style="stroke:#181818;stroke-width:0.5;" x1="22.5" x2="233.5" y1="411" y2="411"/><ellipse cx="32.5" cy="422" fill="#84BE84" rx="3" ry="3" style="stroke:#038048;stroke-width:1.0;"/><text fill="#000000" font-family="sans-serif" font-size="14" lengthAdjust="spacing" textLength="101" x="41.5" y="427.9951">GetID() IDType</text><line style="stroke:#181818;stroke-width:1.0;" x1="22.5" x2="233.5" y1="435.2969" y2="435.2969"/><ellipse cx="32.5" cy="446.2969" fill="#84BE84" rx="3" ry="3" style="stroke:#038048;stroke-width:1.0;"/><text fill="#000000" font-family="sans-serif" font-size="14" lengthAdjust="spacing" textLength="176" x="41.5" y="452.292">GetCreatedAt() time.Time</text><line style="stroke:#181818;stroke-width:1.0;" x1="22.5" x2="233.5" y1="459.5938" y2="459.5938"/><ellipse cx="32.5" cy="470.5938" fill="#84BE84" rx="3" ry="3" style="stroke:#038048;stroke-width:1.0;"/><text fill="#000000" font-family="sans-serif" font-size="14" lengthAdjust="spacing" textLength="187" x="41.5" y="476.5889">GetUpdatedAt() *time.Time</text><line style="stroke:#181818;stroke-width:1.0;" x1="22.5" x2="233.5" y1="483.8906" y2="483.8906"/><ellipse cx="32.5" cy="494.8906" fill="#84BE84" rx="3" ry="3" style="stroke:#038048;stroke-width:1.0;"/><text fill="#000000" font-family="sans-serif" font-size="14" lengthAdjust="spacing" textLength="183" x="41.5" y="500.8857">GetDeletedAt() *time.Time</text></g><!--MD5=[1045d07ae824aea072cabb0fb8284887]
class EntityUUID--><g id="elem_EntityUUID"><rect codeLine="5" fill="#F1F1F1" height="48" id="EntityUUID" rx="2.5" ry="2.5" style="stroke:#181818;stroke-width:0.5;" width="104" x="53" y="41"/><ellipse cx="68" cy="57" fill="#ADD1B2" rx="11" ry="11" style="stroke:#181818;stroke-width:1.0;"/><path d="M70.9688,62.6406 Q70.3906,62.9375 69.75,63.0781 Q69.1094,63.2344 68.4063,63.2344 Q65.9063,63.2344 64.5781,61.5938 Q63.2656,59.9375 63.2656,56.8125 Q63.2656,53.6875 64.5781,52.0313 Q65.9063,50.375 68.4063,50.375 Q69.1094,50.375 69.75,50.5313 Q70.4063,50.6875 70.9688,50.9844 L70.9688,53.7031 Q70.3438,53.125 69.75,52.8594 Q69.1563,52.5781 68.5313,52.5781 Q67.1875,52.5781 66.5,53.6563 Q65.8125,54.7188 65.8125,56.8125 Q65.8125,58.9063 66.5,59.9844 Q67.1875,61.0469 68.5313,61.0469 Q69.1563,61.0469 69.75,60.7813 Q70.3438,60.5 70.9688,59.9219 L70.9688,62.6406 Z " fill="#000000"/><text fill="#000000" font-family="sans-serif" font-size="14" lengthAdjust="spacing" textLength="72" x="82" y="61.8467">EntityUUID</text><line style="stroke:#181818;stroke-width:0.5;" x1="54" x2="156" y1="73" y2="73"/><line style="stroke:#181818;stroke-width:0.5;" x1="54" x2="156" y1="81" y2="81"/></g><!--MD5=[be996cdb8e6bf2fc7cb89c555f2cd144]
class Entity--><g id="elem_Entity"><rect codeLine="8" fill="#F1F1F1" height="129.1875" id="Entity" rx="2.5" ry="2.5" style="stroke:#181818;stroke-width:0.5;" width="208" x="24" y="166"/><ellipse cx="81.25" cy="182" fill="#ADD1B2" rx="11" ry="11" style="stroke:#181818;stroke-width:1.0;"/><path d="M84.2188,187.6406 Q83.6406,187.9375 83,188.0781 Q82.3594,188.2344 81.6563,188.2344 Q79.1563,188.2344 77.8281,186.5938 Q76.5156,184.9375 76.5156,181.8125 Q76.5156,178.6875 77.8281,177.0313 Q79.1563,175.375 81.6563,175.375 Q82.3594,175.375 83,175.5313 Q83.6563,175.6875 84.2188,175.9844 L84.2188,178.7031 Q83.5938,178.125 83,177.8594 Q82.4063,177.5781 81.7813,177.5781 Q80.4375,177.5781 79.75,178.6563 Q79.0625,179.7188 79.0625,181.8125 Q79.0625,183.9063 79.75,184.9844 Q80.4375,186.0469 81.7813,186.0469 Q82.4063,186.0469 83,185.7813 Q83.5938,185.5 84.2188,184.9219 L84.2188,187.6406 Z " fill="#000000"/><text fill="#000000" font-family="sans-serif" font-size="14" lengthAdjust="spacing" textLength="38" x="101.75" y="186.8467">Entity</text><rect fill="#FFFFFF" height="15.9688" style="stroke:#000000;stroke-width:1.0;stroke-dasharray:2.0,2.0;" width="45" x="190" y="163"/><text fill="#000000" font-family="sans-serif" font-size="12" font-style="italic" lengthAdjust="spacing" textLength="43" x="191" y="175.1387">IDType</text><line style="stroke:#181818;stroke-width:0.5;" x1="25" x2="231" y1="198" y2="198"/><ellipse cx="35" cy="209" fill="none" rx="3" ry="3" style="stroke:#038048;stroke-width:1.0;"/><text fill="#000000" font-family="sans-serif" font-size="14" lengthAdjust="spacing" textLength="66" x="44" y="214.9951">ID IDType</text><line style="stroke:#181818;stroke-width:1.0;" x1="25" x2="231" y1="222.2969" y2="222.2969"/><ellipse cx="35" cy="233.2969" fill="none" rx="3" ry="3" style="stroke:#038048;stroke-width:1.0;"/><text fill="#000000" font-family="sans-serif" font-size="14" lengthAdjust="spacing" textLength="141" x="44" y="239.292">CreatedAt time.Time</text><line style="stroke:#181818;stroke-width:1.0;" x1="25" x2="231" y1="246.5938" y2="246.5938"/><ellipse cx="35" cy="257.5938" fill="none" rx="3" ry="3" style="stroke:#038048;stroke-width:1.0;"/><text fill="#000000" font-family="sans-serif" font-size="14" lengthAdjust="spacing" textLength="152" x="44" y="263.5889">UpdatedAt *time.Time</text><line style="stroke:#181818;stroke-width:1.0;" x1="25" x2="231" y1="270.8906" y2="270.8906"/><ellipse cx="35" cy="281.8906" fill="none" rx="3" ry="3" style="stroke:#038048;stroke-width:1.0;"/><text fill="#000000" font-family="sans-serif" font-size="14" lengthAdjust="spacing" textLength="182" x="44" y="287.8857">DeletedAt gorm.DeletedAt</text></g><!--MD5=[4afd32b9c3a651e50eee9a88aa9ac7c6]
link EntityUUID to Entity--><g id="link_EntityUUID_Entity"><path codeLine="7" d="M108.25,89.08 C110.61,105.86 113.95,129.61 117.21,152.82 " fill="none" id="EntityUUID-to-Entity" style="stroke:#181818;stroke-width:1.0;"/><polygon fill="#181818" points="119.07,165.98,122.2005,159.4838,117.408,154.0956,114.2776,160.5918,119.07,165.98" style="stroke:#181818;stroke-width:1.0;"/><text fill="#000000" font-family="sans-serif" font-size="13" lengthAdjust="spacing" textLength="125" x="116" y="132.0669">IDType is uuid.UUID</text></g><!--MD5=[a6c7a0eda5b041e127f539f1664bb96a]
link Entity to IEntityModel--><g id="link_Entity_IEntityModel"><path codeLine="17" d="M128,295.09 C128,315.04 128,337.36 128,358.49 " fill="none" id="Entity-to-IEntityModel" style="stroke:#181818;stroke-width:1.0;stroke-dasharray:7.0,7.0;"/><polygon fill="none" points="135,358.67,128,378.67,121,358.67,135,358.67" style="stroke:#181818;stroke-width:1.0;"/></g><!--MD5=[c45b4368a2b06b9cdcfd93224f3245d9]
@startuml Entity

!include ../interfaces/IEntityModel.puml

package domain {
    class EntityUUID {
    }
    EntityUUID - -* Entity : IDType is uuid.UUID
    class Entity<IDType> {
        +ID IDType
        - -
        +CreatedAt time.Time
        - -
        +UpdatedAt *time.Time
        - -
        +DeletedAt gorm.DeletedAt
    }
    Entity .down.|> IEntityModel
}

@enduml

@startuml Entity


package app {
    interface IEntityModel<IDType> {
        +GetID() IDType
        - -
        +GetCreatedAt() time.Time
        - -
        +GetUpdatedAt() *time.Time
        - -
        +GetDeletedAt() *time.Time
    }
}


package domain {
    class EntityUUID {
    }
    EntityUUID - -* Entity : IDType is uuid.UUID
    class Entity<IDType> {
        +ID IDType
        - -
        +CreatedAt time.Time
        - -
        +UpdatedAt *time.Time
        - -
        +DeletedAt gorm.DeletedAt
    }
    Entity .down.|> IEntityModel
}

@enduml

PlantUML version 1.2022.6(Tue Jun 21 17:34:49 EGST 2022)
(GPL source distribution)
Java Runtime: OpenJDK Runtime Environment
JVM: OpenJDK 64-Bit Server VM
Default Encoding: UTF-8
Language: en
Country: US
--></g></svg>