<?xml version="1.0" encoding="UTF-8" standalone="no"?><svg xmlns="http://www.w3.org/2000/svg" xmlns:xlink="http://www.w3.org/1999/xlink" contentStyleType="text/css" height="341px" preserveAspectRatio="none" style="width:329px;height:341px;background:#FFFFFF;" version="1.1" viewBox="0 0 329 341" width="329px" zoomAndPan="magnify"><defs/><g><!--MD5=[d5ac3844f66b12d9e08170e47495e096]
cluster app--><g id="cluster_app"><path d="M81.5,216 L108.5,216 A3.75,3.75 0 0 1 111,218.5 L118,239.6094 L246.5,239.6094 A2.5,2.5 0 0 1 249,242.1094 L249,331.5 A2.5,2.5 0 0 1 246.5,334 L81.5,334 A2.5,2.5 0 0 1 79,331.5 L79,218.5 A2.5,2.5 0 0 1 81.5,216 " style="stroke:#000000;stroke-width:1.5;fill:none;"/><line style="stroke:#000000;stroke-width:1.5;fill:none;" x1="79" x2="118" y1="239.6094" y2="239.6094"/><text fill="#000000" font-family="sans-serif" font-size="14" font-weight="bold" lengthAdjust="spacing" textLength="26" x="83" y="232.5332">app</text></g><!--MD5=[27f772719433d509ddbc20ff768eba08]
cluster domain--><g id="cluster_domain"><path d="M8.5,6 L60.5,6 A3.75,3.75 0 0 1 63,8.5 L70,29.6094 L319.5,29.6094 A2.5,2.5 0 0 1 322,32.1094 L322,189.5 A2.5,2.5 0 0 1 319.5,192 L8.5,192 A2.5,2.5 0 0 1 6,189.5 L6,8.5 A2.5,2.5 0 0 1 8.5,6 " style="stroke:#000000;stroke-width:1.5;fill:none;"/><line style="stroke:#000000;stroke-width:1.5;fill:none;" x1="6" x2="70" y1="29.6094" y2="29.6094"/><text fill="#000000" font-family="sans-serif" font-size="14" font-weight="bold" lengthAdjust="spacing" textLength="51" x="10" y="22.5332">domain</text></g><!--MD5=[2a39a5be1cc24ddddd6e6286e4ece992]
class IEntityModel--><g id="elem_IEntityModel"><rect codeLine="3" fill="#F1F1F1" height="65.6094" id="IEntityModel" rx="2.5" ry="2.5" style="stroke:#181818;stroke-width:0.5;" width="138" x="95" y="252"/><ellipse cx="122.6" cy="268" fill="#B4A7E5" rx="11" ry="11" style="stroke:#181818;stroke-width:1.0;"/><path d="M123.5531,264.6406 L123.5531,271.2969 L125.2719,271.2969 Q125.8813,271.2969 126.1469,271.5313 Q126.4125,271.7656 126.4125,272.1563 Q126.4125,272.5313 126.1469,272.7656 Q125.8813,273 125.2719,273 L120.1313,273 Q119.5219,273 119.2563,272.7656 Q118.9906,272.5313 118.9906,272.1406 Q118.9906,271.7656 119.2563,271.5313 Q119.5219,271.2969 120.1313,271.2969 L121.85,271.2969 L121.85,264.6406 L120.1313,264.6406 Q119.5219,264.6406 119.2563,264.4063 Q118.9906,264.1719 118.9906,263.7813 Q118.9906,263.4063 119.2563,263.1719 Q119.5219,262.9375 120.1313,262.9375 L125.2719,262.9375 Q125.8813,262.9375 126.1469,263.1719 Q126.4125,263.4063 126.4125,263.7813 Q126.4125,264.1719 126.1469,264.4063 Q125.8813,264.6406 125.2719,264.6406 L123.5531,264.6406 Z " fill="#000000"/><text fill="#000000" font-family="sans-serif" font-size="14" font-style="italic" lengthAdjust="spacing" textLength="78" x="139.4" y="273.7285">IEntityModel</text><line style="stroke:#181818;stroke-width:0.5;" x1="96" x2="232" y1="284" y2="284"/><line style="stroke:#181818;stroke-width:0.5;" x1="96" x2="232" y1="292" y2="292"/><ellipse cx="106" cy="303" fill="#84BE84" rx="3" ry="3" style="stroke:#038048;stroke-width:1.0;"/><text fill="#000000" font-family="sans-serif" font-size="14" lengthAdjust="spacing" textLength="112" x="115" y="310.5332">GetID() uuid.UUID</text></g><!--MD5=[be996cdb8e6bf2fc7cb89c555f2cd144]
class Entity--><g id="elem_Entity"><rect codeLine="5" fill="#F1F1F1" height="134.4375" id="Entity" rx="2.5" ry="2.5" style="stroke:#181818;stroke-width:0.5;" width="283" x="22.5" y="42"/><ellipse cx="142.25" cy="58" fill="#ADD1B2" rx="11" ry="11" style="stroke:#181818;stroke-width:1.0;"/><path d="M145.0156,53.875 Q145.1719,53.6563 145.3594,53.5469 Q145.5469,53.4375 145.7656,53.4375 Q146.1406,53.4375 146.375,53.7031 Q146.6094,53.9531 146.6094,54.5625 L146.6094,56.0156 Q146.6094,56.625 146.375,56.8906 Q146.1406,57.1563 145.7656,57.1563 Q145.4219,57.1563 145.2188,56.9531 Q145.0156,56.7656 144.9063,56.25 Q144.8594,55.8906 144.6719,55.7031 Q144.3438,55.3281 143.7344,55.1094 Q143.125,54.8906 142.5,54.8906 Q141.7344,54.8906 141.0938,55.2188 Q140.4688,55.5469 139.9688,56.2969 Q139.4844,57.0469 139.4844,58.0781 L139.4844,59.1719 Q139.4844,60.4063 140.375,61.2344 Q141.2656,62.0469 142.8594,62.0469 Q143.7969,62.0469 144.4531,61.7969 Q144.8438,61.6406 145.2656,61.2031 Q145.5313,60.9375 145.6719,60.8594 Q145.8281,60.7813 146.0313,60.7813 Q146.3594,60.7813 146.6094,61.0469 Q146.875,61.2969 146.875,61.6406 Q146.875,61.9844 146.5313,62.3906 Q146.0313,62.9688 145.2344,63.2969 Q144.1563,63.75 142.8594,63.75 Q141.3438,63.75 140.1406,63.125 Q139.1563,62.625 138.4688,61.5625 Q137.7813,60.4844 137.7813,59.2031 L137.7813,58.0469 Q137.7813,56.7188 138.3906,55.5781 Q139.0156,54.4219 140.1094,53.8125 Q141.2031,53.1875 142.4375,53.1875 Q143.1719,53.1875 143.8125,53.3594 Q144.4688,53.5156 145.0156,53.875 Z " fill="#000000"/><text fill="#000000" font-family="sans-serif" font-size="14" lengthAdjust="spacing" textLength="35" x="162.75" y="63.7285">Entity</text><line style="stroke:#181818;stroke-width:0.5;" x1="23.5" x2="304.5" y1="74" y2="74"/><ellipse cx="33.5" cy="85" fill="none" rx="3" ry="3" style="stroke:#038048;stroke-width:1.0;"/><text fill="#000000" font-family="sans-serif" font-size="14" lengthAdjust="spacing" textLength="208" x="42.5" y="92.5332">ID uuid.UUID `gorm:"primarykey"`</text><line style="stroke:#181818;stroke-width:1.0;" x1="23.5" x2="304.5" y1="99.6094" y2="99.6094"/><ellipse cx="33.5" cy="110.6094" fill="none" rx="3" ry="3" style="stroke:#038048;stroke-width:1.0;"/><text fill="#000000" font-family="sans-serif" font-size="14" lengthAdjust="spacing" textLength="222" x="42.5" y="118.1426">CreatedAt time.Time `gorm:"index"`</text><line style="stroke:#181818;stroke-width:1.0;" x1="23.5" x2="304.5" y1="125.2188" y2="125.2188"/><ellipse cx="33.5" cy="136.2188" fill="none" rx="3" ry="3" style="stroke:#038048;stroke-width:1.0;"/><text fill="#000000" font-family="sans-serif" font-size="14" lengthAdjust="spacing" textLength="224" x="42.5" y="143.752">UpdatedAt time.Time `gorm:"index"`</text><line style="stroke:#181818;stroke-width:1.0;" x1="23.5" x2="304.5" y1="150.8281" y2="150.8281"/><ellipse cx="33.5" cy="161.8281" fill="none" rx="3" ry="3" style="stroke:#038048;stroke-width:1.0;"/><text fill="#000000" font-family="sans-serif" font-size="14" lengthAdjust="spacing" textLength="257" x="42.5" y="169.3613">DeletedAt gorm.DeletedAt `gorm:"index"`</text></g><!--MD5=[a6c7a0eda5b041e127f539f1664bb96a]
link Entity to IEntityModel--><g id="link_Entity_IEntityModel"><path codeLine="14" d="M164,176.28 C164,194.61 164,214.25 164,231.67 " fill="none" id="Entity-to-IEntityModel" style="stroke:#181818;stroke-width:1.0;stroke-dasharray:7.0,7.0;"/><polygon fill="none" points="171,231.93,164,251.93,157,231.93,171,231.93" style="stroke:#181818;stroke-width:1.0;"/></g><!--MD5=[609b090898fb8e091af326f24b77c0d8]
@startuml Entity

!include ../interfaces/IEntityModel.puml

package domain {
    class Entity {
        +ID uuid.UUID `gorm:"primarykey"`
        - -
        +CreatedAt time.Time `gorm:"index"`
        - -
        +UpdatedAt time.Time `gorm:"index"`
        - -
        +DeletedAt gorm.DeletedAt `gorm:"index"`
    }
    Entity .down.|> IEntityModel
}

@enduml

@startuml Entity


package app {
    interface IEntityModel {
        +GetID() uuid.UUID
    }
}


package domain {
    class Entity {
        +ID uuid.UUID `gorm:"primarykey"`
        - -
        +CreatedAt time.Time `gorm:"index"`
        - -
        +UpdatedAt time.Time `gorm:"index"`
        - -
        +DeletedAt gorm.DeletedAt `gorm:"index"`
    }
    Entity .down.|> IEntityModel
}

@enduml

PlantUML version 1.2022.6(Tue Jun 21 20:34:49 MSK 2022)
(GPL source distribution)
Java Runtime: OpenJDK Runtime Environment
JVM: OpenJDK 64-Bit Server VM
Default Encoding: Cp1251
Language: ru
Country: RU
--></g></svg>