<?xml version="1.0" encoding="UTF-8" standalone="no"?><svg xmlns="http://www.w3.org/2000/svg" xmlns:xlink="http://www.w3.org/1999/xlink" contentStyleType="text/css" height="444px" preserveAspectRatio="none" style="width:390px;height:444px;background:#FFFFFF;" version="1.1" viewBox="0 0 390 444" width="390px" zoomAndPan="magnify"><defs/><g><!--MD5=[d5ac3844f66b12d9e08170e47495e096]
cluster app--><g id="cluster_app"><path d="M8.5,216 L35.5,216 A3.75,3.75 0 0 1 38,218.5 L45,239.6094 L380.5,239.6094 A2.5,2.5 0 0 1 383,242.1094 L383,434.5 A2.5,2.5 0 0 1 380.5,437 L8.5,437 A2.5,2.5 0 0 1 6,434.5 L6,218.5 A2.5,2.5 0 0 1 8.5,216 " style="stroke:#000000;stroke-width:1.5;fill:none;"/><line style="stroke:#000000;stroke-width:1.5;fill:none;" x1="6" x2="45" y1="239.6094" y2="239.6094"/><text fill="#000000" font-family="sans-serif" font-size="14" font-weight="bold" lengthAdjust="spacing" textLength="26" x="10" y="232.5332">app</text></g><!--MD5=[27f772719433d509ddbc20ff768eba08]
cluster domain--><g id="cluster_domain"><path d="M46.5,6 L98.5,6 A3.75,3.75 0 0 1 101,8.5 L108,29.6094 L323.5,29.6094 A2.5,2.5 0 0 1 326,32.1094 L326,189.5 A2.5,2.5 0 0 1 323.5,192 L46.5,192 A2.5,2.5 0 0 1 44,189.5 L44,8.5 A2.5,2.5 0 0 1 46.5,6 " style="stroke:#000000;stroke-width:1.5;fill:none;"/><line style="stroke:#000000;stroke-width:1.5;fill:none;" x1="44" x2="108" y1="29.6094" y2="29.6094"/><text fill="#000000" font-family="sans-serif" font-size="14" font-weight="bold" lengthAdjust="spacing" textLength="51" x="48" y="22.5332">domain</text></g><!--MD5=[2a39a5be1cc24ddddd6e6286e4ece992]
class IEntityModel--><g id="elem_IEntityModel"><rect codeLine="3" fill="#F1F1F1" height="65.6094" id="IEntityModel" rx="2.5" ry="2.5" style="stroke:#181818;stroke-width:0.5;" width="138" x="229" y="252"/><ellipse cx="256.6" cy="268" fill="#B4A7E5" rx="11" ry="11" style="stroke:#181818;stroke-width:1.0;"/><path d="M257.5531,264.6406 L257.5531,271.2969 L259.2719,271.2969 Q259.8813,271.2969 260.1469,271.5313 Q260.4125,271.7656 260.4125,272.1563 Q260.4125,272.5313 260.1469,272.7656 Q259.8813,273 259.2719,273 L254.1313,273 Q253.5219,273 253.2563,272.7656 Q252.9906,272.5313 252.9906,272.1406 Q252.9906,271.7656 253.2563,271.5313 Q253.5219,271.2969 254.1313,271.2969 L255.85,271.2969 L255.85,264.6406 L254.1313,264.6406 Q253.5219,264.6406 253.2563,264.4063 Q252.9906,264.1719 252.9906,263.7813 Q252.9906,263.4063 253.2563,263.1719 Q253.5219,262.9375 254.1313,262.9375 L259.2719,262.9375 Q259.8813,262.9375 260.1469,263.1719 Q260.4125,263.4063 260.4125,263.7813 Q260.4125,264.1719 260.1469,264.4063 Q259.8813,264.6406 259.2719,264.6406 L257.5531,264.6406 Z " fill="#000000"/><text fill="#000000" font-family="sans-serif" font-size="14" font-style="italic" lengthAdjust="spacing" textLength="78" x="273.4" y="273.7285">IEntityModel</text><line style="stroke:#181818;stroke-width:0.5;" x1="230" x2="366" y1="284" y2="284"/><line style="stroke:#181818;stroke-width:0.5;" x1="230" x2="366" y1="292" y2="292"/><ellipse cx="240" cy="303" fill="#84BE84" rx="3" ry="3" style="stroke:#038048;stroke-width:1.0;"/><text fill="#000000" font-family="sans-serif" font-size="14" lengthAdjust="spacing" textLength="112" x="249" y="310.5332">GetID() uuid.UUID</text></g><!--MD5=[01906ac0e62f22b4e38e996248db568e]
class IEntityModelDeletedAt--><g id="elem_IEntityModelDeletedAt"><rect codeLine="3" fill="#F1F1F1" height="65.6094" id="IEntityModelDeletedAt" rx="2.5" ry="2.5" style="stroke:#181818;stroke-width:0.5;" width="172" x="22" y="252"/><ellipse cx="37" cy="268" fill="#B4A7E5" rx="11" ry="11" style="stroke:#181818;stroke-width:1.0;"/><path d="M37.9531,264.6406 L37.9531,271.2969 L39.6719,271.2969 Q40.2813,271.2969 40.5469,271.5313 Q40.8125,271.7656 40.8125,272.1563 Q40.8125,272.5313 40.5469,272.7656 Q40.2813,273 39.6719,273 L34.5313,273 Q33.9219,273 33.6563,272.7656 Q33.3906,272.5313 33.3906,272.1406 Q33.3906,271.7656 33.6563,271.5313 Q33.9219,271.2969 34.5313,271.2969 L36.25,271.2969 L36.25,264.6406 L34.5313,264.6406 Q33.9219,264.6406 33.6563,264.4063 Q33.3906,264.1719 33.3906,263.7813 Q33.3906,263.4063 33.6563,263.1719 Q33.9219,262.9375 34.5313,262.9375 L39.6719,262.9375 Q40.2813,262.9375 40.5469,263.1719 Q40.8125,263.4063 40.8125,263.7813 Q40.8125,264.1719 40.5469,264.4063 Q40.2813,264.6406 39.6719,264.6406 L37.9531,264.6406 Z " fill="#000000"/><text fill="#000000" font-family="sans-serif" font-size="14" font-style="italic" lengthAdjust="spacing" textLength="140" x="51" y="273.7285">IEntityModelDeletedAt</text><line style="stroke:#181818;stroke-width:0.5;" x1="23" x2="193" y1="284" y2="284"/><line style="stroke:#181818;stroke-width:0.5;" x1="23" x2="193" y1="292" y2="292"/><ellipse cx="33" cy="303" fill="#84BE84" rx="3" ry="3" style="stroke:#038048;stroke-width:1.0;"/><text fill="#000000" font-family="sans-serif" font-size="14" lengthAdjust="spacing" textLength="80" x="42" y="310.5332">SetDeleted()</text></g><g id="elem_GMN267"><path d="M22.5,378 L22.5,420.7031 A0,0 0 0 0 22.5,420.7031 L341.5,420.7031 A0,0 0 0 0 341.5,420.7031 L341.5,388 L331.5,378 L172.49,378 L129.21,318.24 L164.49,378 L22.5,378 A0,0 0 0 0 22.5,378 " fill="#FEFFDD" style="stroke:#181818;stroke-width:0.5;"/><path d="M331.5,378 L331.5,388 L341.5,388 L331.5,378 " fill="#FEFFDD" style="stroke:#181818;stroke-width:0.5;"/><text fill="#000000" font-family="sans-serif" font-size="13" lengthAdjust="spacing" textLength="98" x="28.5" y="396.4951">Set deletion time</text><text fill="#000000" font-family="sans-serif" font-size="13" lengthAdjust="spacing" textLength="298" x="28.5" y="412.8467">This method marks that the entity has been deleted</text></g><!--MD5=[be996cdb8e6bf2fc7cb89c555f2cd144]
class Entity--><g id="elem_Entity"><rect codeLine="6" fill="#F1F1F1" height="134.4375" id="Entity" rx="2.5" ry="2.5" style="stroke:#181818;stroke-width:0.5;" width="250" x="60" y="42"/><ellipse cx="163.25" cy="58" fill="#ADD1B2" rx="11" ry="11" style="stroke:#181818;stroke-width:1.0;"/><path d="M166.0156,53.875 Q166.1719,53.6563 166.3594,53.5469 Q166.5469,53.4375 166.7656,53.4375 Q167.1406,53.4375 167.375,53.7031 Q167.6094,53.9531 167.6094,54.5625 L167.6094,56.0156 Q167.6094,56.625 167.375,56.8906 Q167.1406,57.1563 166.7656,57.1563 Q166.4219,57.1563 166.2188,56.9531 Q166.0156,56.7656 165.9063,56.25 Q165.8594,55.8906 165.6719,55.7031 Q165.3438,55.3281 164.7344,55.1094 Q164.125,54.8906 163.5,54.8906 Q162.7344,54.8906 162.0938,55.2188 Q161.4688,55.5469 160.9688,56.2969 Q160.4844,57.0469 160.4844,58.0781 L160.4844,59.1719 Q160.4844,60.4063 161.375,61.2344 Q162.2656,62.0469 163.8594,62.0469 Q164.7969,62.0469 165.4531,61.7969 Q165.8438,61.6406 166.2656,61.2031 Q166.5313,60.9375 166.6719,60.8594 Q166.8281,60.7813 167.0313,60.7813 Q167.3594,60.7813 167.6094,61.0469 Q167.875,61.2969 167.875,61.6406 Q167.875,61.9844 167.5313,62.3906 Q167.0313,62.9688 166.2344,63.2969 Q165.1563,63.75 163.8594,63.75 Q162.3438,63.75 161.1406,63.125 Q160.1563,62.625 159.4688,61.5625 Q158.7813,60.4844 158.7813,59.2031 L158.7813,58.0469 Q158.7813,56.7188 159.3906,55.5781 Q160.0156,54.4219 161.1094,53.8125 Q162.2031,53.1875 163.4375,53.1875 Q164.1719,53.1875 164.8125,53.3594 Q165.4688,53.5156 166.0156,53.875 Z " fill="#000000"/><text fill="#000000" font-family="sans-serif" font-size="14" lengthAdjust="spacing" textLength="35" x="183.75" y="63.7285">Entity</text><line style="stroke:#181818;stroke-width:0.5;" x1="61" x2="309" y1="74" y2="74"/><ellipse cx="71" cy="85" fill="none" rx="3" ry="3" style="stroke:#038048;stroke-width:1.0;"/><text fill="#000000" font-family="sans-serif" font-size="14" lengthAdjust="spacing" textLength="208" x="80" y="92.5332">ID uuid.UUID `gorm:"primarykey"`</text><line style="stroke:#181818;stroke-width:1.0;" x1="61" x2="309" y1="99.6094" y2="99.6094"/><ellipse cx="71" cy="110.6094" fill="none" rx="3" ry="3" style="stroke:#038048;stroke-width:1.0;"/><text fill="#000000" font-family="sans-serif" font-size="14" lengthAdjust="spacing" textLength="222" x="80" y="118.1426">CreatedAt time.Time `gorm:"index"`</text><line style="stroke:#181818;stroke-width:1.0;" x1="61" x2="309" y1="125.2188" y2="125.2188"/><ellipse cx="71" cy="136.2188" fill="none" rx="3" ry="3" style="stroke:#038048;stroke-width:1.0;"/><text fill="#000000" font-family="sans-serif" font-size="14" lengthAdjust="spacing" textLength="224" x="80" y="143.752">UpdatedAt time.Time `gorm:"index"`</text><line style="stroke:#181818;stroke-width:1.0;" x1="61" x2="309" y1="150.8281" y2="150.8281"/><ellipse cx="71" cy="161.8281" fill="none" rx="3" ry="3" style="stroke:#038048;stroke-width:1.0;"/><text fill="#000000" font-family="sans-serif" font-size="14" lengthAdjust="spacing" textLength="220" x="80" y="169.3613">DeletedAt time.Time `gorm:"index"`</text></g><!--MD5=[2557b70de049790e1c1a4cc262bbdad6]
link Entity to IEntityModelDeletedAt--><g id="link_Entity_IEntityModelDeletedAt"><path codeLine="15" d="M155.67,176.28 C147.29,195.22 138.29,215.55 130.39,233.39 " fill="none" id="Entity-to-IEntityModelDeletedAt" style="stroke:#181818;stroke-width:1.0;stroke-dasharray:7.0,7.0;"/><polygon fill="none" points="136.69,236.48,122.19,251.93,123.88,230.81,136.69,236.48" style="stroke:#181818;stroke-width:1.0;"/></g><!--MD5=[a6c7a0eda5b041e127f539f1664bb96a]
link Entity to IEntityModel--><g id="link_Entity_IEntityModel"><path codeLine="16" d="M228.04,176.28 C240.74,195.83 254.4,216.86 266.25,235.1 " fill="none" id="Entity-to-IEntityModel" style="stroke:#181818;stroke-width:1.0;stroke-dasharray:7.0,7.0;"/><polygon fill="none" points="272.15,231.35,277.17,251.93,260.41,238.97,272.15,231.35" style="stroke:#181818;stroke-width:1.0;"/></g><!--MD5=[9772157d24c033f2fd4659808d74f7d7]
link IEntityModelDeletedAt to IEntityModel--><!--MD5=[b24934e81a74e908d853bcc19409696e]
@startuml Entity

!include ../interfaces/IEntityModel.puml
!include ../interfaces/IEntityModelDeletedAt.puml

package domain {
    class Entity {
        +ID uuid.UUID `gorm:"primarykey"`
        - -
        +CreatedAt time.Time `gorm:"index"`
        - -
        +UpdatedAt time.Time `gorm:"index"`
        - -
        +DeletedAt time.Time `gorm:"index"`
    }
    Entity .down.|> IEntityModelDeletedAt
    Entity .down.|> IEntityModel

    IEntityModel .left[hidden]. IEntityModelDeletedAt
}

@enduml

@startuml Entity


package app {
    interface IEntityModel {
        +GetID() uuid.UUID
    }
}


package app {
    interface IEntityModelDeletedAt {
        +SetDeleted()
    }
    note bottom of IEntityModelDeletedAt
        Set deletion time
        This method marks that the entity has been deleted
    end note
}


package domain {
    class Entity {
        +ID uuid.UUID `gorm:"primarykey"`
        - -
        +CreatedAt time.Time `gorm:"index"`
        - -
        +UpdatedAt time.Time `gorm:"index"`
        - -
        +DeletedAt time.Time `gorm:"index"`
    }
    Entity .down.|> IEntityModelDeletedAt
    Entity .down.|> IEntityModel

    IEntityModel .left[hidden]. IEntityModelDeletedAt
}

@enduml

PlantUML version 1.2022.6(Tue Jun 21 20:34:49 MSK 2022)
(GPL source distribution)
Java Runtime: OpenJDK Runtime Environment
JVM: OpenJDK 64-Bit Server VM
Default Encoding: Cp1251
Language: ru
Country: RU
--></g></svg>