<?xml version="1.0" encoding="UTF-8" standalone="no"?><svg xmlns="http://www.w3.org/2000/svg" xmlns:xlink="http://www.w3.org/1999/xlink" contentStyleType="text/css" height="267px" preserveAspectRatio="none" style="width:754px;height:267px;background:#FFFFFF;" version="1.1" viewBox="0 0 754 267" width="754px" zoomAndPan="magnify"><defs/><g><!--MD5=[2a39a5be1cc24ddddd6e6286e4ece992]
class IEntityModel--><g id="elem_IEntityModel"><rect codeLine="1" fill="#F1F1F1" height="64.2969" id="IEntityModel" rx="2.5" ry="2.5" style="stroke:#181818;stroke-width:0.5;" width="131" x="616.5" y="196"/><ellipse cx="637.8" cy="212" fill="#B4A7E5" rx="11" ry="11" style="stroke:#181818;stroke-width:1.0;"/><path d="M633.7219,207.7656 L633.7219,205.6094 L641.1125,205.6094 L641.1125,207.7656 L638.6438,207.7656 L638.6438,215.8438 L641.1125,215.8438 L641.1125,218 L633.7219,218 L633.7219,215.8438 L636.1906,215.8438 L636.1906,207.7656 L633.7219,207.7656 Z " fill="#000000"/><text fill="#000000" font-family="sans-serif" font-size="14" font-style="italic" lengthAdjust="spacing" textLength="85" x="653.2" y="216.8467">IEntityModel</text><line style="stroke:#181818;stroke-width:0.5;" x1="617.5" x2="746.5" y1="228" y2="228"/><line style="stroke:#181818;stroke-width:0.5;" x1="617.5" x2="746.5" y1="236" y2="236"/><text fill="#000000" font-family="sans-serif" font-size="14" lengthAdjust="spacing" textLength="119" x="622.5" y="252.9951">GetId() uuid.UUID</text></g><!--MD5=[01906ac0e62f22b4e38e996248db568e]
class IEntityModelDeletedAt--><g id="elem_IEntityModelDeletedAt"><rect codeLine="1" fill="#F1F1F1" height="64.2969" id="IEntityModelDeletedAt" rx="2.5" ry="2.5" style="stroke:#181818;stroke-width:0.5;" width="187" x="394.5" y="196"/><ellipse cx="409.5" cy="212" fill="#B4A7E5" rx="11" ry="11" style="stroke:#181818;stroke-width:1.0;"/><path d="M405.4219,207.7656 L405.4219,205.6094 L412.8125,205.6094 L412.8125,207.7656 L410.3438,207.7656 L410.3438,215.8438 L412.8125,215.8438 L412.8125,218 L405.4219,218 L405.4219,215.8438 L407.8906,215.8438 L407.8906,207.7656 L405.4219,207.7656 Z " fill="#000000"/><text fill="#000000" font-family="sans-serif" font-size="14" font-style="italic" lengthAdjust="spacing" textLength="155" x="423.5" y="216.8467">IEntityModelDeletedAt</text><line style="stroke:#181818;stroke-width:0.5;" x1="395.5" x2="580.5" y1="228" y2="228"/><line style="stroke:#181818;stroke-width:0.5;" x1="395.5" x2="580.5" y1="236" y2="236"/><text fill="#000000" font-family="sans-serif" font-size="14" lengthAdjust="spacing" textLength="88" x="400.5" y="252.9951">SetDeleted()</text></g><path d="M6,203 L6,243.2656 A0,0 0 0 0 6,243.2656 L360,243.2656 A0,0 0 0 0 360,243.2656 L360,227.1328 L398.5,248.1484 L360,219.1328 L360,213 L350,203 L6,203 A0,0 0 0 0 6,203 " fill="#FEFFDD" style="stroke:#181818;stroke-width:0.5;"/><path d="M350,203 L350,213 L360,213 L350,203 " fill="#FEFFDD" style="stroke:#181818;stroke-width:0.5;"/><text fill="#000000" font-family="sans-serif" font-size="13" lengthAdjust="spacing" textLength="110" x="12" y="220.0669">Set deletion time</text><text fill="#000000" font-family="sans-serif" font-size="13" lengthAdjust="spacing" textLength="333" x="12" y="235.1997">This method marks that the entity has been deleted</text><!--MD5=[be996cdb8e6bf2fc7cb89c555f2cd144]
class Entity--><g id="elem_Entity"><rect codeLine="4" fill="#F1F1F1" height="129.1875" id="Entity" rx="2.5" ry="2.5" style="stroke:#181818;stroke-width:0.5;" width="263" x="453.5" y="7"/><ellipse cx="561.75" cy="23" fill="#ADD1B2" rx="11" ry="11" style="stroke:#181818;stroke-width:1.0;"/><path d="M564.7188,28.6406 Q564.1406,28.9375 563.5,29.0781 Q562.8594,29.2344 562.1563,29.2344 Q559.6563,29.2344 558.3281,27.5938 Q557.0156,25.9375 557.0156,22.8125 Q557.0156,19.6875 558.3281,18.0313 Q559.6563,16.375 562.1563,16.375 Q562.8594,16.375 563.5,16.5313 Q564.1563,16.6875 564.7188,16.9844 L564.7188,19.7031 Q564.0938,19.125 563.5,18.8594 Q562.9063,18.5781 562.2813,18.5781 Q560.9375,18.5781 560.25,19.6563 Q559.5625,20.7188 559.5625,22.8125 Q559.5625,24.9063 560.25,25.9844 Q560.9375,27.0469 562.2813,27.0469 Q562.9063,27.0469 563.5,26.7813 Q564.0938,26.5 564.7188,25.9219 L564.7188,28.6406 Z " fill="#000000"/><text fill="#000000" font-family="sans-serif" font-size="14" lengthAdjust="spacing" textLength="38" x="582.25" y="27.8467">Entity</text><line style="stroke:#181818;stroke-width:0.5;" x1="454.5" x2="715.5" y1="39" y2="39"/><text fill="#000000" font-family="sans-serif" font-size="14" lengthAdjust="spacing" textLength="229" x="459.5" y="55.9951">ID uuid.UUID `gorm:"primarykey"`</text><line style="stroke:#181818;stroke-width:1.0;" x1="454.5" x2="715.5" y1="63.2969" y2="63.2969"/><text fill="#000000" font-family="sans-serif" font-size="14" lengthAdjust="spacing" textLength="247" x="459.5" y="80.292">CreatedAt time.Time `gorm:"index"`</text><line style="stroke:#181818;stroke-width:1.0;" x1="454.5" x2="715.5" y1="87.5938" y2="87.5938"/><text fill="#000000" font-family="sans-serif" font-size="14" lengthAdjust="spacing" textLength="251" x="459.5" y="104.5889">UpdatedAt time.Time `gorm:"index"`</text><line style="stroke:#181818;stroke-width:1.0;" x1="454.5" x2="715.5" y1="111.8906" y2="111.8906"/><text fill="#000000" font-family="sans-serif" font-size="14" lengthAdjust="spacing" textLength="247" x="459.5" y="128.8857">DeletedAt time.Time `gorm:"index"`</text></g><!--MD5=[26c640b8ca553a99864a1cf1cdc36236]
reverse link Entity to IEntityModel--><g id="link_Entity_IEntityModel"><path codeLine="13" d="M635.74,153.32 C645.26,168.49 654.67,183.48 662.49,195.93 " fill="none" id="Entity-backto-IEntityModel" style="stroke:#181818;stroke-width:1.0;stroke-dasharray:7.0,7.0;"/><polygon fill="none" points="629.72,156.89,625.01,136.23,641.58,149.45,629.72,156.89" style="stroke:#181818;stroke-width:1.0;"/></g><!--MD5=[c66e272c92ec8cf1fe872f729110197a]
reverse link Entity to IEntityModelDeletedAt--><g id="link_Entity_IEntityModelDeletedAt"><path codeLine="14" d="M534.26,153.32 C524.74,168.49 515.33,183.48 507.51,195.93 " fill="none" id="Entity-backto-IEntityModelDeletedAt" style="stroke:#181818;stroke-width:1.0;stroke-dasharray:7.0,7.0;"/><polygon fill="none" points="528.42,149.45,544.99,136.23,540.28,156.89,528.42,149.45" style="stroke:#181818;stroke-width:1.0;"/></g><!--MD5=[71efda47160ddf9d19122235433fce56]
@startuml Entity
!include ../interfaces/IEntityModel.puml
!include ../interfaces/IEntityModelDeletedAt.puml

class Entity {
    ID uuid.UUID `gorm:"primarykey"`
    - -
    CreatedAt time.Time `gorm:"index"`
    - -
    UpdatedAt time.Time `gorm:"index"`
    - -
    DeletedAt time.Time `gorm:"index"`
}
Entity <|.. IEntityModel
Entity <|.. IEntityModelDeletedAt

@enduml

@startuml Entity
interface IEntityModel {
    GetId() uuid.UUID
}
interface IEntityModelDeletedAt {
    SetDeleted()
}
note left of IEntityModelDeletedAt::SetDeleted
    Set deletion time
    This method marks that the entity has been deleted
end note

class Entity {
    ID uuid.UUID `gorm:"primarykey"`
    - -
    CreatedAt time.Time `gorm:"index"`
    - -
    UpdatedAt time.Time `gorm:"index"`
    - -
    DeletedAt time.Time `gorm:"index"`
}
Entity <|.. IEntityModel
Entity <|.. IEntityModelDeletedAt

@enduml

PlantUML version 1.2022.4(Sat Apr 09 13:29:17 UTC 2022)
(GPL source distribution)
Java Runtime: OpenJDK Runtime Environment
JVM: OpenJDK 64-Bit Server VM
Default Encoding: UTF-8
Language: en
Country: null
--></g></svg>