<?xml version="1.0" encoding="UTF-8" standalone="no"?><svg xmlns="http://www.w3.org/2000/svg" xmlns:xlink="http://www.w3.org/1999/xlink" contentStyleType="text/css" height="745px" preserveAspectRatio="none" style="width:586px;height:745px;background:#FFFFFF;" version="1.1" viewBox="0 0 586 745" width="586px" zoomAndPan="magnify"><defs/><g><!--MD5=[d5ac3844f66b12d9e08170e47495e096]
cluster app--><g id="cluster_app"><path d="M316.5,558 L346.5,558 A3.75,3.75 0 0 1 349,560.5 L356,580.2969 L555.5,580.2969 A2.5,2.5 0 0 1 558,582.7969 L558,735.5 A2.5,2.5 0 0 1 555.5,738 L316.5,738 A2.5,2.5 0 0 1 314,735.5 L314,560.5 A2.5,2.5 0 0 1 316.5,558 " style="stroke:#000000;stroke-width:1.5;fill:none;"/><line style="stroke:#000000;stroke-width:1.5;fill:none;" x1="314" x2="356" y1="580.2969" y2="580.2969"/><text fill="#000000" font-family="sans-serif" font-size="14" font-weight="bold" lengthAdjust="spacing" textLength="29" x="318" y="572.9951">app</text></g><!--MD5=[27f772719433d509ddbc20ff768eba08]
cluster domain--><g id="cluster_domain"><path d="M8.5,6 L66.5,6 A3.75,3.75 0 0 1 69,8.5 L76,28.2969 L576.5,28.2969 A2.5,2.5 0 0 1 579,30.7969 L579,522.5 A2.5,2.5 0 0 1 576.5,525 L8.5,525 A2.5,2.5 0 0 1 6,522.5 L6,8.5 A2.5,2.5 0 0 1 8.5,6 " style="stroke:#000000;stroke-width:1.5;fill:none;"/><line style="stroke:#000000;stroke-width:1.5;fill:none;" x1="6" x2="76" y1="28.2969" y2="28.2969"/><text fill="#000000" font-family="sans-serif" font-size="14" font-weight="bold" lengthAdjust="spacing" textLength="57" x="10" y="20.9951">domain</text></g><!--MD5=[2a39a5be1cc24ddddd6e6286e4ece992]
class IEntityModel--><g id="elem_IEntityModel"><rect codeLine="3" fill="#F1F1F1" height="129.1875" id="IEntityModel" rx="2.5" ry="2.5" style="stroke:#181818;stroke-width:0.5;" width="213" x="329.5" y="593"/><ellipse cx="366.55" cy="609" fill="#B4A7E5" rx="11" ry="11" style="stroke:#181818;stroke-width:1.0;"/><path d="M362.4719,604.7656 L362.4719,602.6094 L369.8625,602.6094 L369.8625,604.7656 L367.3938,604.7656 L367.3938,612.8438 L369.8625,612.8438 L369.8625,615 L362.4719,615 L362.4719,612.8438 L364.9406,612.8438 L364.9406,604.7656 L362.4719,604.7656 Z " fill="#000000"/><text fill="#000000" font-family="sans-serif" font-size="14" font-style="italic" lengthAdjust="spacing" textLength="85" x="385.45" y="613.8467">IEntityModel</text><rect fill="#FFFFFF" height="15.9688" style="stroke:#000000;stroke-width:1.0;stroke-dasharray:2.0,2.0;" width="45" x="500.5" y="590"/><text fill="#000000" font-family="sans-serif" font-size="12" font-style="italic" lengthAdjust="spacing" textLength="43" x="501.5" y="602.1387">IDType</text><line style="stroke:#181818;stroke-width:0.5;" x1="330.5" x2="541.5" y1="625" y2="625"/><ellipse cx="340.5" cy="636" fill="#84BE84" rx="3" ry="3" style="stroke:#038048;stroke-width:1.0;"/><text fill="#000000" font-family="sans-serif" font-size="14" lengthAdjust="spacing" textLength="101" x="349.5" y="641.9951">GetID() IDType</text><line style="stroke:#181818;stroke-width:1.0;" x1="330.5" x2="541.5" y1="649.2969" y2="649.2969"/><ellipse cx="340.5" cy="660.2969" fill="#84BE84" rx="3" ry="3" style="stroke:#038048;stroke-width:1.0;"/><text fill="#000000" font-family="sans-serif" font-size="14" lengthAdjust="spacing" textLength="176" x="349.5" y="666.292">GetCreatedAt() time.Time</text><line style="stroke:#181818;stroke-width:1.0;" x1="330.5" x2="541.5" y1="673.5938" y2="673.5938"/><ellipse cx="340.5" cy="684.5938" fill="#84BE84" rx="3" ry="3" style="stroke:#038048;stroke-width:1.0;"/><text fill="#000000" font-family="sans-serif" font-size="14" lengthAdjust="spacing" textLength="187" x="349.5" y="690.5889">GetUpdatedAt() *time.Time</text><line style="stroke:#181818;stroke-width:1.0;" x1="330.5" x2="541.5" y1="697.8906" y2="697.8906"/><ellipse cx="340.5" cy="708.8906" fill="#84BE84" rx="3" ry="3" style="stroke:#038048;stroke-width:1.0;"/><text fill="#000000" font-family="sans-serif" font-size="14" lengthAdjust="spacing" textLength="183" x="349.5" y="714.8857">GetDeletedAt() *time.Time</text></g><!--MD5=[1045d07ae824aea072cabb0fb8284887]
class EntityUUID--><g id="elem_EntityUUID"><rect codeLine="5" fill="#F1F1F1" height="48" id="EntityUUID" rx="2.5" ry="2.5" style="stroke:#181818;stroke-width:0.5;" width="104" x="393" y="255"/><ellipse cx="408" cy="271" fill="#ADD1B2" rx="11" ry="11" style="stroke:#181818;stroke-width:1.0;"/><path d="M410.9688,276.6406 Q410.3906,276.9375 409.75,277.0781 Q409.1094,277.2344 408.4063,277.2344 Q405.9063,277.2344 404.5781,275.5938 Q403.2656,273.9375 403.2656,270.8125 Q403.2656,267.6875 404.5781,266.0313 Q405.9063,264.375 408.4063,264.375 Q409.1094,264.375 409.75,264.5313 Q410.4063,264.6875 410.9688,264.9844 L410.9688,267.7031 Q410.3438,267.125 409.75,266.8594 Q409.1563,266.5781 408.5313,266.5781 Q407.1875,266.5781 406.5,267.6563 Q405.8125,268.7188 405.8125,270.8125 Q405.8125,272.9063 406.5,273.9844 Q407.1875,275.0469 408.5313,275.0469 Q409.1563,275.0469 409.75,274.7813 Q410.3438,274.5 410.9688,273.9219 L410.9688,276.6406 Z " fill="#000000"/><text fill="#000000" font-family="sans-serif" font-size="14" lengthAdjust="spacing" textLength="72" x="422" y="275.8467">EntityUUID</text><line style="stroke:#181818;stroke-width:0.5;" x1="394" x2="496" y1="287" y2="287"/><line style="stroke:#181818;stroke-width:0.5;" x1="394" x2="496" y1="295" y2="295"/></g><!--MD5=[be996cdb8e6bf2fc7cb89c555f2cd144]
class Entity--><g id="elem_Entity"><rect codeLine="8" fill="#F1F1F1" height="129.1875" id="Entity" rx="2.5" ry="2.5" style="stroke:#181818;stroke-width:0.5;" width="208" x="332" y="380"/><ellipse cx="389.25" cy="396" fill="#ADD1B2" rx="11" ry="11" style="stroke:#181818;stroke-width:1.0;"/><path d="M392.2188,401.6406 Q391.6406,401.9375 391,402.0781 Q390.3594,402.2344 389.6563,402.2344 Q387.1563,402.2344 385.8281,400.5938 Q384.5156,398.9375 384.5156,395.8125 Q384.5156,392.6875 385.8281,391.0313 Q387.1563,389.375 389.6563,389.375 Q390.3594,389.375 391,389.5313 Q391.6563,389.6875 392.2188,389.9844 L392.2188,392.7031 Q391.5938,392.125 391,391.8594 Q390.4063,391.5781 389.7813,391.5781 Q388.4375,391.5781 387.75,392.6563 Q387.0625,393.7188 387.0625,395.8125 Q387.0625,397.9063 387.75,398.9844 Q388.4375,400.0469 389.7813,400.0469 Q390.4063,400.0469 391,399.7813 Q391.5938,399.5 392.2188,398.9219 L392.2188,401.6406 Z " fill="#000000"/><text fill="#000000" font-family="sans-serif" font-size="14" lengthAdjust="spacing" textLength="38" x="409.75" y="400.8467">Entity</text><rect fill="#FFFFFF" height="15.9688" style="stroke:#000000;stroke-width:1.0;stroke-dasharray:2.0,2.0;" width="45" x="498" y="377"/><text fill="#000000" font-family="sans-serif" font-size="12" font-style="italic" lengthAdjust="spacing" textLength="43" x="499" y="389.1387">IDType</text><line style="stroke:#181818;stroke-width:0.5;" x1="333" x2="539" y1="412" y2="412"/><ellipse cx="343" cy="423" fill="none" rx="3" ry="3" style="stroke:#038048;stroke-width:1.0;"/><text fill="#000000" font-family="sans-serif" font-size="14" lengthAdjust="spacing" textLength="66" x="352" y="428.9951">ID IDType</text><line style="stroke:#181818;stroke-width:1.0;" x1="333" x2="539" y1="436.2969" y2="436.2969"/><ellipse cx="343" cy="447.2969" fill="none" rx="3" ry="3" style="stroke:#038048;stroke-width:1.0;"/><text fill="#000000" font-family="sans-serif" font-size="14" lengthAdjust="spacing" textLength="141" x="352" y="453.292">CreatedAt time.Time</text><line style="stroke:#181818;stroke-width:1.0;" x1="333" x2="539" y1="460.5938" y2="460.5938"/><ellipse cx="343" cy="471.5938" fill="none" rx="3" ry="3" style="stroke:#038048;stroke-width:1.0;"/><text fill="#000000" font-family="sans-serif" font-size="14" lengthAdjust="spacing" textLength="152" x="352" y="477.5889">UpdatedAt *time.Time</text><line style="stroke:#181818;stroke-width:1.0;" x1="333" x2="539" y1="484.8906" y2="484.8906"/><ellipse cx="343" cy="495.8906" fill="none" rx="3" ry="3" style="stroke:#038048;stroke-width:1.0;"/><text fill="#000000" font-family="sans-serif" font-size="14" lengthAdjust="spacing" textLength="182" x="352" y="501.8857">DeletedAt gorm.DeletedAt</text></g><!--MD5=[a0c76383944e982ee35488825d35b1c9]
class EthernetSwitchPort--><g id="elem_EthernetSwitchPort"><rect codeLine="5" fill="#F1F1F1" height="153.4844" id="EthernetSwitchPort" rx="2.5" ry="2.5" style="stroke:#181818;stroke-width:0.5;" width="215" x="347.5" y="41"/><ellipse cx="385" cy="57" fill="#ADD1B2" rx="11" ry="11" style="stroke:#181818;stroke-width:1.0;"/><path d="M387.9688,62.6406 Q387.3906,62.9375 386.75,63.0781 Q386.1094,63.2344 385.4063,63.2344 Q382.9063,63.2344 381.5781,61.5938 Q380.2656,59.9375 380.2656,56.8125 Q380.2656,53.6875 381.5781,52.0313 Q382.9063,50.375 385.4063,50.375 Q386.1094,50.375 386.75,50.5313 Q387.4063,50.6875 387.9688,50.9844 L387.9688,53.7031 Q387.3438,53.125 386.75,52.8594 Q386.1563,52.5781 385.5313,52.5781 Q384.1875,52.5781 383.5,53.6563 Q382.8125,54.7188 382.8125,56.8125 Q382.8125,58.9063 383.5,59.9844 Q384.1875,61.0469 385.5313,61.0469 Q386.1563,61.0469 386.75,60.7813 Q387.3438,60.5 387.9688,59.9219 L387.9688,62.6406 Z " fill="#000000"/><text fill="#000000" font-family="sans-serif" font-size="14" lengthAdjust="spacing" textLength="133" x="404" y="61.8467">EthernetSwitchPort</text><line style="stroke:#181818;stroke-width:0.5;" x1="348.5" x2="561.5" y1="73" y2="73"/><ellipse cx="358.5" cy="84" fill="none" rx="3" ry="3" style="stroke:#038048;stroke-width:1.0;"/><text fill="#000000" font-family="sans-serif" font-size="14" lengthAdjust="spacing" textLength="189" x="367.5" y="89.9951">EthernetSwitchId uuid.UUID</text><line style="stroke:#181818;stroke-width:1.0;" x1="348.5" x2="561.5" y1="97.2969" y2="97.2969"/><ellipse cx="358.5" cy="108.2969" fill="none" rx="3" ry="3" style="stroke:#038048;stroke-width:1.0;"/><text fill="#000000" font-family="sans-serif" font-size="14" lengthAdjust="spacing" textLength="106" x="367.5" y="114.292">POEType string</text><line style="stroke:#181818;stroke-width:1.0;" x1="348.5" x2="561.5" y1="121.5938" y2="121.5938"/><ellipse cx="358.5" cy="132.5938" fill="none" rx="3" ry="3" style="stroke:#038048;stroke-width:1.0;"/><text fill="#000000" font-family="sans-serif" font-size="14" lengthAdjust="spacing" textLength="83" x="367.5" y="138.5889">Name string</text><line style="stroke:#181818;stroke-width:1.0;" x1="348.5" x2="561.5" y1="145.8906" y2="145.8906"/><ellipse cx="358.5" cy="156.8906" fill="none" rx="3" ry="3" style="stroke:#038048;stroke-width:1.0;"/><text fill="#000000" font-family="sans-serif" font-size="14" lengthAdjust="spacing" textLength="119" x="367.5" y="162.8857">POEEnabled bool</text><line style="stroke:#181818;stroke-width:1.0;" x1="348.5" x2="561.5" y1="170.1875" y2="170.1875"/><ellipse cx="358.5" cy="181.1875" fill="none" rx="3" ry="3" style="stroke:#038048;stroke-width:1.0;"/><text fill="#000000" font-family="sans-serif" font-size="14" lengthAdjust="spacing" textLength="53" x="367.5" y="187.1826">PVID int</text></g><path d="M21.5,75 L21.5,115.2656 A0,0 0 0 0 21.5,115.2656 L312.5,115.2656 A0,0 0 0 0 312.5,115.2656 L312.5,99.1328 L351.5,109.4453 L312.5,91.1328 L312.5,85 L302.5,75 L21.5,75 A0,0 0 0 0 21.5,75 " fill="#FEFFDD" style="stroke:#181818;stroke-width:0.5;"/><path d="M302.5,75 L302.5,85 L312.5,85 L302.5,75 " fill="#FEFFDD" style="stroke:#181818;stroke-width:0.5;"/><text fill="#000000" font-family="sans-serif" font-size="13" lengthAdjust="spacing" textLength="88" x="27.5" y="92.0669">POE port type</text><text fill="#000000" font-family="sans-serif" font-size="13" lengthAdjust="spacing" textLength="270" x="27.5" y="107.1997">can be: "poe", "poe+", "passive24", "none"</text><path d="M21.5,125.2656 L21.5,150.3984 A0,0 0 0 0 21.5,150.3984 L182.5,150.3984 A0,0 0 0 0 182.5,150.3984 L182.5,143.2656 L351.5,133.7422 L182.5,135.2656 L182.5,135.2656 L172.5,125.2656 L21.5,125.2656 A0,0 0 0 0 21.5,125.2656 " fill="#FEFFDD" style="stroke:#181818;stroke-width:0.5;"/><path d="M172.5,125.2656 L172.5,135.2656 L182.5,135.2656 L172.5,125.2656 " fill="#FEFFDD" style="stroke:#181818;stroke-width:0.5;"/><text fill="#000000" font-family="sans-serif" font-size="13" lengthAdjust="spacing" textLength="140" x="27.5" y="142.3325">Unique within 1 switch</text><!--MD5=[4afd32b9c3a651e50eee9a88aa9ac7c6]
link EntityUUID to Entity--><g id="link_EntityUUID_Entity"><path codeLine="7" d="M443.73,303.08 C442.81,319.86 441.5,343.61 440.22,366.82 " fill="none" id="EntityUUID-to-Entity" style="stroke:#181818;stroke-width:1.0;"/><polygon fill="#181818" points="439.5,379.98,443.8238,374.209,440.1598,367.9982,435.8359,373.7691,439.5,379.98" style="stroke:#181818;stroke-width:1.0;"/><text fill="#000000" font-family="sans-serif" font-size="13" lengthAdjust="spacing" textLength="125" x="442" y="346.0669">IDType is uuid.UUID</text></g><!--MD5=[a6c7a0eda5b041e127f539f1664bb96a]
link Entity to IEntityModel--><g id="link_Entity_IEntityModel"><path codeLine="17" d="M436,509.09 C436,529.04 436,551.36 436,572.49 " fill="none" id="Entity-to-IEntityModel" style="stroke:#181818;stroke-width:1.0;stroke-dasharray:7.0,7.0;"/><polygon fill="none" points="443,572.67,436,592.67,429,572.67,443,572.67" style="stroke:#181818;stroke-width:1.0;"/></g><!--MD5=[276dda3830ece658a878290f11491737]
link EthernetSwitchPort to EntityUUID--><g id="link_EthernetSwitchPort_EntityUUID"><path codeLine="17" d="M450.26,194.05 C449.23,210.59 448.17,227.38 447.29,241.55 " fill="none" id="EthernetSwitchPort-to-EntityUUID" style="stroke:#181818;stroke-width:1.0;"/><polygon fill="#181818" points="446.46,254.74,450.8218,248.9976,447.1987,242.7628,442.8369,248.5052,446.46,254.74" style="stroke:#181818;stroke-width:1.0;"/></g><!--MD5=[dc05c01ffb7f1abe7a4ea66de2fb3fa0]
@startuml

!include Entity.puml

package domain {
    class EthernetSwitchPort {
        +EthernetSwitchId uuid.UUID
        - -
        +POEType string
        - -
        +Name string
        - -
        +POEEnabled bool
        - -
        +PVID int
    }

    EthernetSwitchPort -down-* EntityUUID

    note left of EthernetSwitchPort::POEType
      POE port type
      can be: "poe", "poe+", "passive24", "none"
    end note

    note left of EthernetSwitchPort::Name
      Unique within 1 switch
    end note
}

@enduml

@startuml



package app {
    interface IEntityModel<IDType> {
        +GetID() IDType
        - -
        +GetCreatedAt() time.Time
        - -
        +GetUpdatedAt() *time.Time
        - -
        +GetDeletedAt() *time.Time
    }
}


package domain {
    class EntityUUID {
    }
    EntityUUID - -* Entity : IDType is uuid.UUID
    class Entity<IDType> {
        +ID IDType
        - -
        +CreatedAt time.Time
        - -
        +UpdatedAt *time.Time
        - -
        +DeletedAt gorm.DeletedAt
    }
    Entity .down.|> IEntityModel
}


package domain {
    class EthernetSwitchPort {
        +EthernetSwitchId uuid.UUID
        - -
        +POEType string
        - -
        +Name string
        - -
        +POEEnabled bool
        - -
        +PVID int
    }

    EthernetSwitchPort -down-* EntityUUID

    note left of EthernetSwitchPort::POEType
      POE port type
      can be: "poe", "poe+", "passive24", "none"
    end note

    note left of EthernetSwitchPort::Name
      Unique within 1 switch
    end note
}

@enduml

PlantUML version 1.2022.6(Tue Jun 21 17:34:49 EGST 2022)
(GPL source distribution)
Java Runtime: OpenJDK Runtime Environment
JVM: OpenJDK 64-Bit Server VM
Default Encoding: UTF-8
Language: en
Country: US
--></g></svg>