<?xml version="1.0" encoding="UTF-8" standalone="no"?><svg xmlns="http://www.w3.org/2000/svg" xmlns:xlink="http://www.w3.org/1999/xlink" contentStyleType="text/css" height="721px" preserveAspectRatio="none" style="width:753px;height:721px;background:#FFFFFF;" version="1.1" viewBox="0 0 753 721" width="753px" zoomAndPan="magnify"><defs/><g><!--MD5=[d5ac3844f66b12d9e08170e47495e096]
cluster app--><g id="cluster_app"><path d="M421.5,534 L451.5,534 A3.75,3.75 0 0 1 454,536.5 L461,556.2969 L660.5,556.2969 A2.5,2.5 0 0 1 663,558.7969 L663,711.5 A2.5,2.5 0 0 1 660.5,714 L421.5,714 A2.5,2.5 0 0 1 419,711.5 L419,536.5 A2.5,2.5 0 0 1 421.5,534 " style="stroke:#000000;stroke-width:1.5;fill:none;"/><line style="stroke:#000000;stroke-width:1.5;fill:none;" x1="419" x2="461" y1="556.2969" y2="556.2969"/><text fill="#000000" font-family="sans-serif" font-size="14" font-weight="bold" lengthAdjust="spacing" textLength="29" x="423" y="548.9951">app</text></g><!--MD5=[27f772719433d509ddbc20ff768eba08]
cluster domain--><g id="cluster_domain"><path d="M8.5,6 L66.5,6 A3.75,3.75 0 0 1 69,8.5 L76,28.2969 L743.5,28.2969 A2.5,2.5 0 0 1 746,30.7969 L746,498.5 A2.5,2.5 0 0 1 743.5,501 L8.5,501 A2.5,2.5 0 0 1 6,498.5 L6,8.5 A2.5,2.5 0 0 1 8.5,6 " style="stroke:#000000;stroke-width:1.5;fill:none;"/><line style="stroke:#000000;stroke-width:1.5;fill:none;" x1="6" x2="76" y1="28.2969" y2="28.2969"/><text fill="#000000" font-family="sans-serif" font-size="14" font-weight="bold" lengthAdjust="spacing" textLength="57" x="10" y="20.9951">domain</text></g><!--MD5=[2a39a5be1cc24ddddd6e6286e4ece992]
class IEntityModel--><g id="elem_IEntityModel"><rect codeLine="3" fill="#F1F1F1" height="129.1875" id="IEntityModel" rx="2.5" ry="2.5" style="stroke:#181818;stroke-width:0.5;" width="213" x="434.5" y="569"/><ellipse cx="471.55" cy="585" fill="#B4A7E5" rx="11" ry="11" style="stroke:#181818;stroke-width:1.0;"/><path d="M467.4719,580.7656 L467.4719,578.6094 L474.8625,578.6094 L474.8625,580.7656 L472.3938,580.7656 L472.3938,588.8438 L474.8625,588.8438 L474.8625,591 L467.4719,591 L467.4719,588.8438 L469.9406,588.8438 L469.9406,580.7656 L467.4719,580.7656 Z " fill="#000000"/><text fill="#000000" font-family="sans-serif" font-size="14" font-style="italic" lengthAdjust="spacing" textLength="85" x="490.45" y="589.8467">IEntityModel</text><rect fill="#FFFFFF" height="15.9688" style="stroke:#000000;stroke-width:1.0;stroke-dasharray:2.0,2.0;" width="45" x="605.5" y="566"/><text fill="#000000" font-family="sans-serif" font-size="12" font-style="italic" lengthAdjust="spacing" textLength="43" x="606.5" y="578.1387">IDType</text><line style="stroke:#181818;stroke-width:0.5;" x1="435.5" x2="646.5" y1="601" y2="601"/><ellipse cx="445.5" cy="612" fill="#84BE84" rx="3" ry="3" style="stroke:#038048;stroke-width:1.0;"/><text fill="#000000" font-family="sans-serif" font-size="14" lengthAdjust="spacing" textLength="101" x="454.5" y="617.9951">GetID() IDType</text><line style="stroke:#181818;stroke-width:1.0;" x1="435.5" x2="646.5" y1="625.2969" y2="625.2969"/><ellipse cx="445.5" cy="636.2969" fill="#84BE84" rx="3" ry="3" style="stroke:#038048;stroke-width:1.0;"/><text fill="#000000" font-family="sans-serif" font-size="14" lengthAdjust="spacing" textLength="176" x="454.5" y="642.292">GetCreatedAt() time.Time</text><line style="stroke:#181818;stroke-width:1.0;" x1="435.5" x2="646.5" y1="649.5938" y2="649.5938"/><ellipse cx="445.5" cy="660.5938" fill="#84BE84" rx="3" ry="3" style="stroke:#038048;stroke-width:1.0;"/><text fill="#000000" font-family="sans-serif" font-size="14" lengthAdjust="spacing" textLength="187" x="454.5" y="666.5889">GetUpdatedAt() *time.Time</text><line style="stroke:#181818;stroke-width:1.0;" x1="435.5" x2="646.5" y1="673.8906" y2="673.8906"/><ellipse cx="445.5" cy="684.8906" fill="#84BE84" rx="3" ry="3" style="stroke:#038048;stroke-width:1.0;"/><text fill="#000000" font-family="sans-serif" font-size="14" lengthAdjust="spacing" textLength="183" x="454.5" y="690.8857">GetDeletedAt() *time.Time</text></g><!--MD5=[1045d07ae824aea072cabb0fb8284887]
class EntityUUID--><g id="elem_EntityUUID"><rect codeLine="5" fill="#F1F1F1" height="48" id="EntityUUID" rx="2.5" ry="2.5" style="stroke:#181818;stroke-width:0.5;" width="104" x="489" y="231"/><ellipse cx="504" cy="247" fill="#ADD1B2" rx="11" ry="11" style="stroke:#181818;stroke-width:1.0;"/><path d="M506.9688,252.6406 Q506.3906,252.9375 505.75,253.0781 Q505.1094,253.2344 504.4063,253.2344 Q501.9063,253.2344 500.5781,251.5938 Q499.2656,249.9375 499.2656,246.8125 Q499.2656,243.6875 500.5781,242.0313 Q501.9063,240.375 504.4063,240.375 Q505.1094,240.375 505.75,240.5313 Q506.4063,240.6875 506.9688,240.9844 L506.9688,243.7031 Q506.3438,243.125 505.75,242.8594 Q505.1563,242.5781 504.5313,242.5781 Q503.1875,242.5781 502.5,243.6563 Q501.8125,244.7188 501.8125,246.8125 Q501.8125,248.9063 502.5,249.9844 Q503.1875,251.0469 504.5313,251.0469 Q505.1563,251.0469 505.75,250.7813 Q506.3438,250.5 506.9688,249.9219 L506.9688,252.6406 Z " fill="#000000"/><text fill="#000000" font-family="sans-serif" font-size="14" lengthAdjust="spacing" textLength="72" x="518" y="251.8467">EntityUUID</text><line style="stroke:#181818;stroke-width:0.5;" x1="490" x2="592" y1="263" y2="263"/><line style="stroke:#181818;stroke-width:0.5;" x1="490" x2="592" y1="271" y2="271"/></g><!--MD5=[be996cdb8e6bf2fc7cb89c555f2cd144]
class Entity--><g id="elem_Entity"><rect codeLine="8" fill="#F1F1F1" height="129.1875" id="Entity" rx="2.5" ry="2.5" style="stroke:#181818;stroke-width:0.5;" width="208" x="437" y="356"/><ellipse cx="494.25" cy="372" fill="#ADD1B2" rx="11" ry="11" style="stroke:#181818;stroke-width:1.0;"/><path d="M497.2188,377.6406 Q496.6406,377.9375 496,378.0781 Q495.3594,378.2344 494.6563,378.2344 Q492.1563,378.2344 490.8281,376.5938 Q489.5156,374.9375 489.5156,371.8125 Q489.5156,368.6875 490.8281,367.0313 Q492.1563,365.375 494.6563,365.375 Q495.3594,365.375 496,365.5313 Q496.6563,365.6875 497.2188,365.9844 L497.2188,368.7031 Q496.5938,368.125 496,367.8594 Q495.4063,367.5781 494.7813,367.5781 Q493.4375,367.5781 492.75,368.6563 Q492.0625,369.7188 492.0625,371.8125 Q492.0625,373.9063 492.75,374.9844 Q493.4375,376.0469 494.7813,376.0469 Q495.4063,376.0469 496,375.7813 Q496.5938,375.5 497.2188,374.9219 L497.2188,377.6406 Z " fill="#000000"/><text fill="#000000" font-family="sans-serif" font-size="14" lengthAdjust="spacing" textLength="38" x="514.75" y="376.8467">Entity</text><rect fill="#FFFFFF" height="15.9688" style="stroke:#000000;stroke-width:1.0;stroke-dasharray:2.0,2.0;" width="45" x="603" y="353"/><text fill="#000000" font-family="sans-serif" font-size="12" font-style="italic" lengthAdjust="spacing" textLength="43" x="604" y="365.1387">IDType</text><line style="stroke:#181818;stroke-width:0.5;" x1="438" x2="644" y1="388" y2="388"/><ellipse cx="448" cy="399" fill="none" rx="3" ry="3" style="stroke:#038048;stroke-width:1.0;"/><text fill="#000000" font-family="sans-serif" font-size="14" lengthAdjust="spacing" textLength="66" x="457" y="404.9951">ID IDType</text><line style="stroke:#181818;stroke-width:1.0;" x1="438" x2="644" y1="412.2969" y2="412.2969"/><ellipse cx="448" cy="423.2969" fill="none" rx="3" ry="3" style="stroke:#038048;stroke-width:1.0;"/><text fill="#000000" font-family="sans-serif" font-size="14" lengthAdjust="spacing" textLength="141" x="457" y="429.292">CreatedAt time.Time</text><line style="stroke:#181818;stroke-width:1.0;" x1="438" x2="644" y1="436.5938" y2="436.5938"/><ellipse cx="448" cy="447.5938" fill="none" rx="3" ry="3" style="stroke:#038048;stroke-width:1.0;"/><text fill="#000000" font-family="sans-serif" font-size="14" lengthAdjust="spacing" textLength="152" x="457" y="453.5889">UpdatedAt *time.Time</text><line style="stroke:#181818;stroke-width:1.0;" x1="438" x2="644" y1="460.8906" y2="460.8906"/><ellipse cx="448" cy="471.8906" fill="none" rx="3" ry="3" style="stroke:#038048;stroke-width:1.0;"/><text fill="#000000" font-family="sans-serif" font-size="14" lengthAdjust="spacing" textLength="182" x="457" y="477.8857">DeletedAt gorm.DeletedAt</text></g><!--MD5=[c9b588f89ecdeeb56fc45ced19c2779e]
class EthernetSwitchVLAN--><g id="elem_EthernetSwitchVLAN"><rect codeLine="5" fill="#F1F1F1" height="129.1875" id="EthernetSwitchVLAN" rx="2.5" ry="2.5" style="stroke:#181818;stroke-width:0.5;" width="379" x="351.5" y="41"/><ellipse cx="466.75" cy="57" fill="#ADD1B2" rx="11" ry="11" style="stroke:#181818;stroke-width:1.0;"/><path d="M469.7188,62.6406 Q469.1406,62.9375 468.5,63.0781 Q467.8594,63.2344 467.1563,63.2344 Q464.6563,63.2344 463.3281,61.5938 Q462.0156,59.9375 462.0156,56.8125 Q462.0156,53.6875 463.3281,52.0313 Q464.6563,50.375 467.1563,50.375 Q467.8594,50.375 468.5,50.5313 Q469.1563,50.6875 469.7188,50.9844 L469.7188,53.7031 Q469.0938,53.125 468.5,52.8594 Q467.9063,52.5781 467.2813,52.5781 Q465.9375,52.5781 465.25,53.6563 Q464.5625,54.7188 464.5625,56.8125 Q464.5625,58.9063 465.25,59.9844 Q465.9375,61.0469 467.2813,61.0469 Q467.9063,61.0469 468.5,60.7813 Q469.0938,60.5 469.7188,59.9219 L469.7188,62.6406 Z " fill="#000000"/><text fill="#000000" font-family="sans-serif" font-size="14" lengthAdjust="spacing" textLength="140" x="487.25" y="61.8467">EthernetSwitchVLAN</text><line style="stroke:#181818;stroke-width:0.5;" x1="352.5" x2="729.5" y1="73" y2="73"/><ellipse cx="362.5" cy="84" fill="none" rx="3" ry="3" style="stroke:#038048;stroke-width:1.0;"/><text fill="#000000" font-family="sans-serif" font-size="14" lengthAdjust="spacing" textLength="64" x="371.5" y="89.9951">VlanID int</text><line style="stroke:#181818;stroke-width:1.0;" x1="352.5" x2="729.5" y1="97.2969" y2="97.2969"/><ellipse cx="362.5" cy="108.2969" fill="none" rx="3" ry="3" style="stroke:#038048;stroke-width:1.0;"/><text fill="#000000" font-family="sans-serif" font-size="14" lengthAdjust="spacing" textLength="353" x="371.5" y="114.292">EthernetSwitchID uuid.UUID `gorm:"index;size:36"`</text><line style="stroke:#181818;stroke-width:1.0;" x1="352.5" x2="729.5" y1="121.5938" y2="121.5938"/><ellipse cx="362.5" cy="132.5938" fill="none" rx="3" ry="3" style="stroke:#038048;stroke-width:1.0;"/><text fill="#000000" font-family="sans-serif" font-size="14" lengthAdjust="spacing" textLength="277" x="371.5" y="138.5889">UntaggedPorts string `gorm:"type:text"`</text><line style="stroke:#181818;stroke-width:1.0;" x1="352.5" x2="729.5" y1="145.8906" y2="145.8906"/><ellipse cx="362.5" cy="156.8906" fill="none" rx="3" ry="3" style="stroke:#038048;stroke-width:1.0;"/><text fill="#000000" font-family="sans-serif" font-size="14" lengthAdjust="spacing" textLength="262" x="371.5" y="162.8857">TaggedPorts string `gorm:"type:text"`</text></g><path d="M22,70.5 L22,95.6328 A0,0 0 0 0 22,95.6328 L316,95.6328 A0,0 0 0 0 316,95.6328 L316,88.5 L355.5,133.7422 L316,80.5 L316,80.5 L306,70.5 L22,70.5 A0,0 0 0 0 22,70.5 " fill="#FEFFDD" style="stroke:#181818;stroke-width:0.5;"/><path d="M306,70.5 L306,80.5 L316,80.5 L306,70.5 " fill="#FEFFDD" style="stroke:#181818;stroke-width:0.5;"/><text fill="#000000" font-family="sans-serif" font-size="13" lengthAdjust="spacing" textLength="273" x="28" y="87.5669">UUID's of untagged ports separated with ';'</text><path d="M22,105.6328 L22,130.7656 A0,0 0 0 0 22,130.7656 L300,130.7656 A0,0 0 0 0 300,130.7656 L300,123.6328 L355.5,158.0391 L300,115.6328 L300,115.6328 L290,105.6328 L22,105.6328 A0,0 0 0 0 22,105.6328 " fill="#FEFFDD" style="stroke:#181818;stroke-width:0.5;"/><path d="M290,105.6328 L290,115.6328 L300,115.6328 L290,105.6328 " fill="#FEFFDD" style="stroke:#181818;stroke-width:0.5;"/><text fill="#000000" font-family="sans-serif" font-size="13" lengthAdjust="spacing" textLength="257" x="28" y="122.6997">UUID's of tagged ports separated with ';'</text><!--MD5=[4afd32b9c3a651e50eee9a88aa9ac7c6]
link EntityUUID to Entity--><g id="link_EntityUUID_Entity"><path codeLine="7" d="M541,279.08 C541,295.86 541,319.61 541,342.82 " fill="none" id="EntityUUID-to-Entity" style="stroke:#181818;stroke-width:1.0;"/><polygon fill="#181818" points="541,355.98,545,349.98,541,343.98,537,349.98,541,355.98" style="stroke:#181818;stroke-width:1.0;"/><text fill="#000000" font-family="sans-serif" font-size="13" lengthAdjust="spacing" textLength="125" x="542" y="322.0669">IDType is uuid.UUID</text></g><!--MD5=[a6c7a0eda5b041e127f539f1664bb96a]
link Entity to IEntityModel--><g id="link_Entity_IEntityModel"><path codeLine="17" d="M541,485.09 C541,505.04 541,527.36 541,548.49 " fill="none" id="Entity-to-IEntityModel" style="stroke:#181818;stroke-width:1.0;stroke-dasharray:7.0,7.0;"/><polygon fill="none" points="548,548.67,541,568.67,534,548.67,548,548.67" style="stroke:#181818;stroke-width:1.0;"/></g><!--MD5=[817607d20ff43d8fb0cae2709849ae95]
link EthernetSwitchVLAN to EntityUUID--><g id="link_EthernetSwitchVLAN_EntityUUID"><path codeLine="15" d="M541,170.34 C541,186.45 541,203.21 541,217.46 " fill="none" id="EthernetSwitchVLAN-to-EntityUUID" style="stroke:#181818;stroke-width:1.0;"/><polygon fill="#181818" points="541,230.76,545,224.76,541,218.76,537,224.76,541,230.76" style="stroke:#181818;stroke-width:1.0;"/></g><!--MD5=[7d49b56d68aae5d04f3cc36717335f76]
@startuml

!include Entity.puml

package domain {
    class EthernetSwitchVLAN {
        +VlanID int
        - -
        +EthernetSwitchID uuid.UUID `gorm:"index;size:36"`
        - -
        +UntaggedPorts string `gorm:"type:text"`
        - -
        +TaggedPorts string `gorm:"type:text"`
    }

    EthernetSwitchVLAN -down-* EntityUUID

    note left of EthernetSwitchVLAN::UntaggedPorts
        UUID's of untagged ports separated with ';'
    end note

    note left of EthernetSwitchVLAN::TaggedPorts
      UUID's of tagged ports separated with ';'
    end note
}

@enduml

@startuml



package app {
    interface IEntityModel<IDType> {
        +GetID() IDType
        - -
        +GetCreatedAt() time.Time
        - -
        +GetUpdatedAt() *time.Time
        - -
        +GetDeletedAt() *time.Time
    }
}


package domain {
    class EntityUUID {
    }
    EntityUUID - -* Entity : IDType is uuid.UUID
    class Entity<IDType> {
        +ID IDType
        - -
        +CreatedAt time.Time
        - -
        +UpdatedAt *time.Time
        - -
        +DeletedAt gorm.DeletedAt
    }
    Entity .down.|> IEntityModel
}


package domain {
    class EthernetSwitchVLAN {
        +VlanID int
        - -
        +EthernetSwitchID uuid.UUID `gorm:"index;size:36"`
        - -
        +UntaggedPorts string `gorm:"type:text"`
        - -
        +TaggedPorts string `gorm:"type:text"`
    }

    EthernetSwitchVLAN -down-* EntityUUID

    note left of EthernetSwitchVLAN::UntaggedPorts
        UUID's of untagged ports separated with ';'
    end note

    note left of EthernetSwitchVLAN::TaggedPorts
      UUID's of tagged ports separated with ';'
    end note
}

@enduml

PlantUML version 1.2022.6(Tue Jun 21 17:34:49 EGST 2022)
(GPL source distribution)
Java Runtime: OpenJDK Runtime Environment
JVM: OpenJDK 64-Bit Server VM
Default Encoding: UTF-8
Language: en
Country: US
--></g></svg>