<?xml version="1.0" encoding="UTF-8" standalone="no"?><svg xmlns="http://www.w3.org/2000/svg" xmlns:xlink="http://www.w3.org/1999/xlink" contentStyleType="text/css" height="510px" preserveAspectRatio="none" style="width:545px;height:510px;background:#FFFFFF;" version="1.1" viewBox="0 0 545 510" width="545px" zoomAndPan="magnify"><defs/><g><!--MD5=[d5ac3844f66b12d9e08170e47495e096]
cluster app--><g id="cluster_app"><path d="M297.5,385 L324.5,385 A3.75,3.75 0 0 1 327,387.5 L334,408.6094 L462.5,408.6094 A2.5,2.5 0 0 1 465,411.1094 L465,500.5 A2.5,2.5 0 0 1 462.5,503 L297.5,503 A2.5,2.5 0 0 1 295,500.5 L295,387.5 A2.5,2.5 0 0 1 297.5,385 " style="stroke:#000000;stroke-width:1.5;fill:none;"/><line style="stroke:#000000;stroke-width:1.5;fill:none;" x1="295" x2="334" y1="408.6094" y2="408.6094"/><text fill="#000000" font-family="sans-serif" font-size="14" font-weight="bold" lengthAdjust="spacing" textLength="26" x="299" y="401.5332">app</text></g><!--MD5=[27f772719433d509ddbc20ff768eba08]
cluster domain--><g id="cluster_domain"><path d="M8.5,6 L60.5,6 A3.75,3.75 0 0 1 63,8.5 L70,29.6094 L535.5,29.6094 A2.5,2.5 0 0 1 538,32.1094 L538,358.5 A2.5,2.5 0 0 1 535.5,361 L8.5,361 A2.5,2.5 0 0 1 6,358.5 L6,8.5 A2.5,2.5 0 0 1 8.5,6 " style="stroke:#000000;stroke-width:1.5;fill:none;"/><line style="stroke:#000000;stroke-width:1.5;fill:none;" x1="6" x2="70" y1="29.6094" y2="29.6094"/><text fill="#000000" font-family="sans-serif" font-size="14" font-weight="bold" lengthAdjust="spacing" textLength="51" x="10" y="22.5332">domain</text></g><!--MD5=[2a39a5be1cc24ddddd6e6286e4ece992]
class IEntityModel--><g id="elem_IEntityModel"><rect codeLine="3" fill="#F1F1F1" height="65.6094" id="IEntityModel" rx="2.5" ry="2.5" style="stroke:#181818;stroke-width:0.5;" width="138" x="311" y="421"/><ellipse cx="338.6" cy="437" fill="#B4A7E5" rx="11" ry="11" style="stroke:#181818;stroke-width:1.0;"/><path d="M339.5531,433.6406 L339.5531,440.2969 L341.2719,440.2969 Q341.8813,440.2969 342.1469,440.5313 Q342.4125,440.7656 342.4125,441.1563 Q342.4125,441.5313 342.1469,441.7656 Q341.8813,442 341.2719,442 L336.1313,442 Q335.5219,442 335.2563,441.7656 Q334.9906,441.5313 334.9906,441.1406 Q334.9906,440.7656 335.2563,440.5313 Q335.5219,440.2969 336.1313,440.2969 L337.85,440.2969 L337.85,433.6406 L336.1313,433.6406 Q335.5219,433.6406 335.2563,433.4063 Q334.9906,433.1719 334.9906,432.7813 Q334.9906,432.4063 335.2563,432.1719 Q335.5219,431.9375 336.1313,431.9375 L341.2719,431.9375 Q341.8813,431.9375 342.1469,432.1719 Q342.4125,432.4063 342.4125,432.7813 Q342.4125,433.1719 342.1469,433.4063 Q341.8813,433.6406 341.2719,433.6406 L339.5531,433.6406 Z " fill="#000000"/><text fill="#000000" font-family="sans-serif" font-size="14" font-style="italic" lengthAdjust="spacing" textLength="78" x="355.4" y="442.7285">IEntityModel</text><line style="stroke:#181818;stroke-width:0.5;" x1="312" x2="448" y1="453" y2="453"/><line style="stroke:#181818;stroke-width:0.5;" x1="312" x2="448" y1="461" y2="461"/><ellipse cx="322" cy="472" fill="#84BE84" rx="3" ry="3" style="stroke:#038048;stroke-width:1.0;"/><text fill="#000000" font-family="sans-serif" font-size="14" lengthAdjust="spacing" textLength="112" x="331" y="479.5332">GetID() uuid.UUID</text></g><!--MD5=[be996cdb8e6bf2fc7cb89c555f2cd144]
class Entity--><g id="elem_Entity"><rect codeLine="5" fill="#F1F1F1" height="134.4375" id="Entity" rx="2.5" ry="2.5" style="stroke:#181818;stroke-width:0.5;" width="283" x="238.5" y="211"/><ellipse cx="358.25" cy="227" fill="#ADD1B2" rx="11" ry="11" style="stroke:#181818;stroke-width:1.0;"/><path d="M361.0156,222.875 Q361.1719,222.6563 361.3594,222.5469 Q361.5469,222.4375 361.7656,222.4375 Q362.1406,222.4375 362.375,222.7031 Q362.6094,222.9531 362.6094,223.5625 L362.6094,225.0156 Q362.6094,225.625 362.375,225.8906 Q362.1406,226.1563 361.7656,226.1563 Q361.4219,226.1563 361.2188,225.9531 Q361.0156,225.7656 360.9063,225.25 Q360.8594,224.8906 360.6719,224.7031 Q360.3438,224.3281 359.7344,224.1094 Q359.125,223.8906 358.5,223.8906 Q357.7344,223.8906 357.0938,224.2188 Q356.4688,224.5469 355.9688,225.2969 Q355.4844,226.0469 355.4844,227.0781 L355.4844,228.1719 Q355.4844,229.4063 356.375,230.2344 Q357.2656,231.0469 358.8594,231.0469 Q359.7969,231.0469 360.4531,230.7969 Q360.8438,230.6406 361.2656,230.2031 Q361.5313,229.9375 361.6719,229.8594 Q361.8281,229.7813 362.0313,229.7813 Q362.3594,229.7813 362.6094,230.0469 Q362.875,230.2969 362.875,230.6406 Q362.875,230.9844 362.5313,231.3906 Q362.0313,231.9688 361.2344,232.2969 Q360.1563,232.75 358.8594,232.75 Q357.3438,232.75 356.1406,232.125 Q355.1563,231.625 354.4688,230.5625 Q353.7813,229.4844 353.7813,228.2031 L353.7813,227.0469 Q353.7813,225.7188 354.3906,224.5781 Q355.0156,223.4219 356.1094,222.8125 Q357.2031,222.1875 358.4375,222.1875 Q359.1719,222.1875 359.8125,222.3594 Q360.4688,222.5156 361.0156,222.875 Z " fill="#000000"/><text fill="#000000" font-family="sans-serif" font-size="14" lengthAdjust="spacing" textLength="35" x="378.75" y="232.7285">Entity</text><line style="stroke:#181818;stroke-width:0.5;" x1="239.5" x2="520.5" y1="243" y2="243"/><ellipse cx="249.5" cy="254" fill="none" rx="3" ry="3" style="stroke:#038048;stroke-width:1.0;"/><text fill="#000000" font-family="sans-serif" font-size="14" lengthAdjust="spacing" textLength="208" x="258.5" y="261.5332">ID uuid.UUID `gorm:"primarykey"`</text><line style="stroke:#181818;stroke-width:1.0;" x1="239.5" x2="520.5" y1="268.6094" y2="268.6094"/><ellipse cx="249.5" cy="279.6094" fill="none" rx="3" ry="3" style="stroke:#038048;stroke-width:1.0;"/><text fill="#000000" font-family="sans-serif" font-size="14" lengthAdjust="spacing" textLength="222" x="258.5" y="287.1426">CreatedAt time.Time `gorm:"index"`</text><line style="stroke:#181818;stroke-width:1.0;" x1="239.5" x2="520.5" y1="294.2188" y2="294.2188"/><ellipse cx="249.5" cy="305.2188" fill="none" rx="3" ry="3" style="stroke:#038048;stroke-width:1.0;"/><text fill="#000000" font-family="sans-serif" font-size="14" lengthAdjust="spacing" textLength="224" x="258.5" y="312.752">UpdatedAt time.Time `gorm:"index"`</text><line style="stroke:#181818;stroke-width:1.0;" x1="239.5" x2="520.5" y1="319.8281" y2="319.8281"/><ellipse cx="249.5" cy="330.8281" fill="none" rx="3" ry="3" style="stroke:#038048;stroke-width:1.0;"/><text fill="#000000" font-family="sans-serif" font-size="14" lengthAdjust="spacing" textLength="257" x="258.5" y="338.3613">DeletedAt gorm.DeletedAt `gorm:"index"`</text></g><!--MD5=[a0c76383944e982ee35488825d35b1c9]
class EthernetSwitchPort--><g id="elem_EthernetSwitchPort"><rect codeLine="5" fill="#F1F1F1" height="108.8281" id="EthernetSwitchPort" rx="2.5" ry="2.5" style="stroke:#181818;stroke-width:0.5;" width="197" x="324.5" y="42"/><ellipse cx="359.75" cy="58" fill="#ADD1B2" rx="11" ry="11" style="stroke:#181818;stroke-width:1.0;"/><path d="M362.5156,53.875 Q362.6719,53.6563 362.8594,53.5469 Q363.0469,53.4375 363.2656,53.4375 Q363.6406,53.4375 363.875,53.7031 Q364.1094,53.9531 364.1094,54.5625 L364.1094,56.0156 Q364.1094,56.625 363.875,56.8906 Q363.6406,57.1563 363.2656,57.1563 Q362.9219,57.1563 362.7188,56.9531 Q362.5156,56.7656 362.4063,56.25 Q362.3594,55.8906 362.1719,55.7031 Q361.8438,55.3281 361.2344,55.1094 Q360.625,54.8906 360,54.8906 Q359.2344,54.8906 358.5938,55.2188 Q357.9688,55.5469 357.4688,56.2969 Q356.9844,57.0469 356.9844,58.0781 L356.9844,59.1719 Q356.9844,60.4063 357.875,61.2344 Q358.7656,62.0469 360.3594,62.0469 Q361.2969,62.0469 361.9531,61.7969 Q362.3438,61.6406 362.7656,61.2031 Q363.0313,60.9375 363.1719,60.8594 Q363.3281,60.7813 363.5313,60.7813 Q363.8594,60.7813 364.1094,61.0469 Q364.375,61.2969 364.375,61.6406 Q364.375,61.9844 364.0313,62.3906 Q363.5313,62.9688 362.7344,63.2969 Q361.6563,63.75 360.3594,63.75 Q358.8438,63.75 357.6406,63.125 Q356.6563,62.625 355.9688,61.5625 Q355.2813,60.4844 355.2813,59.2031 L355.2813,58.0469 Q355.2813,56.7188 355.8906,55.5781 Q356.5156,54.4219 357.6094,53.8125 Q358.7031,53.1875 359.9375,53.1875 Q360.6719,53.1875 361.3125,53.3594 Q361.9688,53.5156 362.5156,53.875 Z " fill="#000000"/><text fill="#000000" font-family="sans-serif" font-size="14" lengthAdjust="spacing" textLength="120" x="378.25" y="63.7285">EthernetSwitchPort</text><line style="stroke:#181818;stroke-width:0.5;" x1="325.5" x2="520.5" y1="74" y2="74"/><ellipse cx="335.5" cy="85" fill="none" rx="3" ry="3" style="stroke:#038048;stroke-width:1.0;"/><text fill="#000000" font-family="sans-serif" font-size="14" lengthAdjust="spacing" textLength="171" x="344.5" y="92.5332">EthernetSwitchId uuid.UUID</text><line style="stroke:#181818;stroke-width:1.0;" x1="325.5" x2="520.5" y1="99.6094" y2="99.6094"/><ellipse cx="335.5" cy="110.6094" fill="none" rx="3" ry="3" style="stroke:#038048;stroke-width:1.0;"/><text fill="#000000" font-family="sans-serif" font-size="14" lengthAdjust="spacing" textLength="100" x="344.5" y="118.1426">POEType string</text><line style="stroke:#181818;stroke-width:1.0;" x1="325.5" x2="520.5" y1="125.2188" y2="125.2188"/><ellipse cx="335.5" cy="136.2188" fill="none" rx="3" ry="3" style="stroke:#038048;stroke-width:1.0;"/><text fill="#000000" font-family="sans-serif" font-size="14" lengthAdjust="spacing" textLength="75" x="344.5" y="143.752">Name string</text></g><path d="M22.5,52 L22.5,94.7031 A0,0 0 0 0 22.5,94.7031 L289.5,94.7031 A0,0 0 0 0 289.5,94.7031 L289.5,77.3516 L328.5,112.4141 L289.5,69.3516 L289.5,62 L279.5,52 L22.5,52 A0,0 0 0 0 22.5,52 " fill="#FEFFDD" style="stroke:#181818;stroke-width:0.5;"/><path d="M279.5,52 L279.5,62 L289.5,62 L279.5,52 " fill="#FEFFDD" style="stroke:#181818;stroke-width:0.5;"/><text fill="#000000" font-family="sans-serif" font-size="13" lengthAdjust="spacing" textLength="83" x="28.5" y="70.4951">POE port type</text><text fill="#000000" font-family="sans-serif" font-size="13" lengthAdjust="spacing" textLength="246" x="28.5" y="86.8467">can be: "poe", "poe+", "passive24", "none"</text><path d="M22.5,104.7031 L22.5,131.0547 A0,0 0 0 0 22.5,131.0547 L172.5,131.0547 A0,0 0 0 0 172.5,131.0547 L172.5,122.7031 L328.5,138.0234 L172.5,114.7031 L172.5,114.7031 L162.5,104.7031 L22.5,104.7031 A0,0 0 0 0 22.5,104.7031 " fill="#FEFFDD" style="stroke:#181818;stroke-width:0.5;"/><path d="M162.5,104.7031 L162.5,114.7031 L172.5,114.7031 L162.5,104.7031 " fill="#FEFFDD" style="stroke:#181818;stroke-width:0.5;"/><text fill="#000000" font-family="sans-serif" font-size="13" lengthAdjust="spacing" textLength="129" x="28.5" y="123.1982">Unique within 1 switch</text><!--MD5=[a6c7a0eda5b041e127f539f1664bb96a]
link Entity to IEntityModel--><g id="link_Entity_IEntityModel"><path codeLine="14" d="M380,345.28 C380,363.61 380,383.25 380,400.67 " fill="none" id="Entity-to-IEntityModel" style="stroke:#181818;stroke-width:1.0;stroke-dasharray:7.0,7.0;"/><polygon fill="none" points="387,400.93,380,420.93,373,400.93,387,400.93" style="stroke:#181818;stroke-width:1.0;"/></g><!--MD5=[afd672b6d7a853cadad0fa5e76e30a74]
link EthernetSwitchPort to Entity--><g id="link_EthernetSwitchPort_Entity"><path codeLine="13" d="M410.1,151.36 C406.6,165.96 402.74,182.08 398.98,197.77 " fill="none" id="EthernetSwitchPort-to-Entity" style="stroke:#181818;stroke-width:1.0;"/><polygon fill="#181818" points="395.86,210.8,401.1477,205.8969,398.6555,199.1302,393.3678,204.0332,395.86,210.8" style="stroke:#181818;stroke-width:1.0;"/></g><!--MD5=[ddd9078de2acb14bb6b1ce2f9f4cf09a]
@startuml EthernetSwitchPort

!include Entity.puml

package domain {
    class EthernetSwitchPort {
        +EthernetSwitchId uuid.UUID
        - -
        +POEType string
        - -
        +Name string
    }

    EthernetSwitchPort -down-* Entity

    note left of EthernetSwitchPort::POEType
      POE port type
      can be: "poe", "poe+", "passive24", "none"
    end note

    note left of EthernetSwitchPort::Name
      Unique within 1 switch
    end note
}

@enduml

@startuml EthernetSwitchPort



package app {
    interface IEntityModel {
        +GetID() uuid.UUID
    }
}


package domain {
    class Entity {
        +ID uuid.UUID `gorm:"primarykey"`
        - -
        +CreatedAt time.Time `gorm:"index"`
        - -
        +UpdatedAt time.Time `gorm:"index"`
        - -
        +DeletedAt gorm.DeletedAt `gorm:"index"`
    }
    Entity .down.|> IEntityModel
}


package domain {
    class EthernetSwitchPort {
        +EthernetSwitchId uuid.UUID
        - -
        +POEType string
        - -
        +Name string
    }

    EthernetSwitchPort -down-* Entity

    note left of EthernetSwitchPort::POEType
      POE port type
      can be: "poe", "poe+", "passive24", "none"
    end note

    note left of EthernetSwitchPort::Name
      Unique within 1 switch
    end note
}

@enduml

PlantUML version 1.2022.6(Tue Jun 21 20:34:49 MSK 2022)
(GPL source distribution)
Java Runtime: OpenJDK Runtime Environment
JVM: OpenJDK 64-Bit Server VM
Default Encoding: Cp1251
Language: ru
Country: RU
--></g></svg>