<?xml version="1.0" encoding="UTF-8" standalone="no"?><svg xmlns="http://www.w3.org/2000/svg" xmlns:xlink="http://www.w3.org/1999/xlink" contentStyleType="text/css" height="532px" preserveAspectRatio="none" style="width:937px;height:532px;background:#FFFFFF;" version="1.1" viewBox="0 0 937 532" width="937px" zoomAndPan="magnify"><defs/><g><!--MD5=[2a39a5be1cc24ddddd6e6286e4ece992]
class IEntityModel--><g id="elem_IEntityModel"><rect codeLine="1" fill="#F1F1F1" height="64.2969" id="IEntityModel" rx="2.5" ry="2.5" style="stroke:#181818;stroke-width:0.5;" width="131" x="616.5" y="461"/><ellipse cx="637.8" cy="477" fill="#B4A7E5" rx="11" ry="11" style="stroke:#181818;stroke-width:1.0;"/><path d="M633.7219,472.7656 L633.7219,470.6094 L641.1125,470.6094 L641.1125,472.7656 L638.6438,472.7656 L638.6438,480.8438 L641.1125,480.8438 L641.1125,483 L633.7219,483 L633.7219,480.8438 L636.1906,480.8438 L636.1906,472.7656 L633.7219,472.7656 Z " fill="#000000"/><text fill="#000000" font-family="sans-serif" font-size="14" font-style="italic" lengthAdjust="spacing" textLength="85" x="653.2" y="481.8467">IEntityModel</text><line style="stroke:#181818;stroke-width:0.5;" x1="617.5" x2="746.5" y1="493" y2="493"/><line style="stroke:#181818;stroke-width:0.5;" x1="617.5" x2="746.5" y1="501" y2="501"/><text fill="#000000" font-family="sans-serif" font-size="14" lengthAdjust="spacing" textLength="119" x="622.5" y="517.9951">GetId() uuid.UUID</text></g><!--MD5=[01906ac0e62f22b4e38e996248db568e]
class IEntityModelDeletedAt--><g id="elem_IEntityModelDeletedAt"><rect codeLine="1" fill="#F1F1F1" height="64.2969" id="IEntityModelDeletedAt" rx="2.5" ry="2.5" style="stroke:#181818;stroke-width:0.5;" width="187" x="394.5" y="461"/><ellipse cx="409.5" cy="477" fill="#B4A7E5" rx="11" ry="11" style="stroke:#181818;stroke-width:1.0;"/><path d="M405.4219,472.7656 L405.4219,470.6094 L412.8125,470.6094 L412.8125,472.7656 L410.3438,472.7656 L410.3438,480.8438 L412.8125,480.8438 L412.8125,483 L405.4219,483 L405.4219,480.8438 L407.8906,480.8438 L407.8906,472.7656 L405.4219,472.7656 Z " fill="#000000"/><text fill="#000000" font-family="sans-serif" font-size="14" font-style="italic" lengthAdjust="spacing" textLength="155" x="423.5" y="481.8467">IEntityModelDeletedAt</text><line style="stroke:#181818;stroke-width:0.5;" x1="395.5" x2="580.5" y1="493" y2="493"/><line style="stroke:#181818;stroke-width:0.5;" x1="395.5" x2="580.5" y1="501" y2="501"/><text fill="#000000" font-family="sans-serif" font-size="14" lengthAdjust="spacing" textLength="88" x="400.5" y="517.9951">SetDeleted()</text></g><path d="M6,468 L6,508.2656 A0,0 0 0 0 6,508.2656 L360,508.2656 A0,0 0 0 0 360,508.2656 L360,492.1328 L398.5,513.1484 L360,484.1328 L360,478 L350,468 L6,468 A0,0 0 0 0 6,468 " fill="#FEFFDD" style="stroke:#181818;stroke-width:0.5;"/><path d="M350,468 L350,478 L360,478 L350,468 " fill="#FEFFDD" style="stroke:#181818;stroke-width:0.5;"/><text fill="#000000" font-family="sans-serif" font-size="13" lengthAdjust="spacing" textLength="110" x="12" y="485.0669">Set deletion time</text><text fill="#000000" font-family="sans-serif" font-size="13" lengthAdjust="spacing" textLength="333" x="12" y="500.1997">This method marks that the entity has been deleted</text><!--MD5=[be996cdb8e6bf2fc7cb89c555f2cd144]
class Entity--><g id="elem_Entity"><rect codeLine="4" fill="#F1F1F1" height="129.1875" id="Entity" rx="2.5" ry="2.5" style="stroke:#181818;stroke-width:0.5;" width="263" x="453.5" y="272"/><ellipse cx="561.75" cy="288" fill="#ADD1B2" rx="11" ry="11" style="stroke:#181818;stroke-width:1.0;"/><path d="M564.7188,293.6406 Q564.1406,293.9375 563.5,294.0781 Q562.8594,294.2344 562.1563,294.2344 Q559.6563,294.2344 558.3281,292.5938 Q557.0156,290.9375 557.0156,287.8125 Q557.0156,284.6875 558.3281,283.0313 Q559.6563,281.375 562.1563,281.375 Q562.8594,281.375 563.5,281.5313 Q564.1563,281.6875 564.7188,281.9844 L564.7188,284.7031 Q564.0938,284.125 563.5,283.8594 Q562.9063,283.5781 562.2813,283.5781 Q560.9375,283.5781 560.25,284.6563 Q559.5625,285.7188 559.5625,287.8125 Q559.5625,289.9063 560.25,290.9844 Q560.9375,292.0469 562.2813,292.0469 Q562.9063,292.0469 563.5,291.7813 Q564.0938,291.5 564.7188,290.9219 L564.7188,293.6406 Z " fill="#000000"/><text fill="#000000" font-family="sans-serif" font-size="14" lengthAdjust="spacing" textLength="38" x="582.25" y="292.8467">Entity</text><line style="stroke:#181818;stroke-width:0.5;" x1="454.5" x2="715.5" y1="304" y2="304"/><text fill="#000000" font-family="sans-serif" font-size="14" lengthAdjust="spacing" textLength="229" x="459.5" y="320.9951">ID uuid.UUID `gorm:"primarykey"`</text><line style="stroke:#181818;stroke-width:1.0;" x1="454.5" x2="715.5" y1="328.2969" y2="328.2969"/><text fill="#000000" font-family="sans-serif" font-size="14" lengthAdjust="spacing" textLength="247" x="459.5" y="345.292">CreatedAt time.Time `gorm:"index"`</text><line style="stroke:#181818;stroke-width:1.0;" x1="454.5" x2="715.5" y1="352.5938" y2="352.5938"/><text fill="#000000" font-family="sans-serif" font-size="14" lengthAdjust="spacing" textLength="251" x="459.5" y="369.5889">UpdatedAt time.Time `gorm:"index"`</text><line style="stroke:#181818;stroke-width:1.0;" x1="454.5" x2="715.5" y1="376.8906" y2="376.8906"/><text fill="#000000" font-family="sans-serif" font-size="14" lengthAdjust="spacing" textLength="247" x="459.5" y="393.8857">DeletedAt time.Time `gorm:"index"`</text></g><!--MD5=[dc03dffccf935ac0ad54d99743d25579]
class EthernetSwitchModel--><g id="elem_EthernetSwitchModel"><rect codeLine="2" fill="#F1F1F1" height="64.2969" id="EthernetSwitchModel" rx="2.5" ry="2.5" style="stroke:#181818;stroke-width:0.5;" width="179" x="751.5" y="304.5"/><ellipse cx="766.5" cy="320.5" fill="#EB937F" rx="11" ry="11" style="stroke:#181818;stroke-width:1.0;"/><path d="M770.6094,326.5 L762.8906,326.5 L762.8906,314.1094 L770.6094,314.1094 L770.6094,316.2656 L765.3438,316.2656 L765.3438,318.9375 L770.1094,318.9375 L770.1094,321.0938 L765.3438,321.0938 L765.3438,324.3438 L770.6094,324.3438 L770.6094,326.5 Z " fill="#000000"/><text fill="#000000" font-family="sans-serif" font-size="14" lengthAdjust="spacing" textLength="147" x="780.5" y="325.3467">EthernetSwitchModel</text><line style="stroke:#181818;stroke-width:0.5;" x1="752.5" x2="929.5" y1="336.5" y2="336.5"/><text fill="#000000" font-family="sans-serif" font-size="14" lengthAdjust="spacing" textLength="156" x="757.5" y="353.4951">UBIQUITY_US24_250W</text><line style="stroke:#181818;stroke-width:0.5;" x1="752.5" x2="929.5" y1="360.7969" y2="360.7969"/></g><!--MD5=[0e6027363d26940633b9df7c844e683a]
class EthernetSwitch--><g id="elem_EthernetSwitch"><rect codeLine="5" fill="#F1F1F1" height="202.0781" id="EthernetSwitch" rx="2.5" ry="2.5" style="stroke:#181818;stroke-width:0.5;" width="250" x="588" y="7"/><ellipse cx="656.25" cy="23" fill="#ADD1B2" rx="11" ry="11" style="stroke:#181818;stroke-width:1.0;"/><path d="M659.2188,28.6406 Q658.6406,28.9375 658,29.0781 Q657.3594,29.2344 656.6563,29.2344 Q654.1563,29.2344 652.8281,27.5938 Q651.5156,25.9375 651.5156,22.8125 Q651.5156,19.6875 652.8281,18.0313 Q654.1563,16.375 656.6563,16.375 Q657.3594,16.375 658,16.5313 Q658.6563,16.6875 659.2188,16.9844 L659.2188,19.7031 Q658.5938,19.125 658,18.8594 Q657.4063,18.5781 656.7813,18.5781 Q655.4375,18.5781 654.75,19.6563 Q654.0625,20.7188 654.0625,22.8125 Q654.0625,24.9063 654.75,25.9844 Q655.4375,27.0469 656.7813,27.0469 Q657.4063,27.0469 658,26.7813 Q658.5938,26.5 659.2188,25.9219 L659.2188,28.6406 Z " fill="#000000"/><text fill="#000000" font-family="sans-serif" font-size="14" lengthAdjust="spacing" textLength="105" x="676.75" y="27.8467">EthernetSwitch</text><line style="stroke:#181818;stroke-width:0.5;" x1="589" x2="837" y1="39" y2="39"/><text fill="#000000" font-family="sans-serif" font-size="14" lengthAdjust="spacing" textLength="83" x="594" y="55.9951">Name string</text><line style="stroke:#181818;stroke-width:1.0;" x1="589" x2="837" y1="63.2969" y2="63.2969"/><text fill="#000000" font-family="sans-serif" font-size="14" lengthAdjust="spacing" textLength="80" x="594" y="80.292">Serial string</text><line style="stroke:#181818;stroke-width:1.0;" x1="589" x2="837" y1="87.5938" y2="87.5938"/><text fill="#000000" font-family="sans-serif" font-size="14" lengthAdjust="spacing" textLength="238" x="594" y="104.5889">SwitchModel EthernetSwitchModel</text><line style="stroke:#181818;stroke-width:1.0;" x1="589" x2="837" y1="111.8906" y2="111.8906"/><text fill="#000000" font-family="sans-serif" font-size="14" lengthAdjust="spacing" textLength="100" x="594" y="128.8857">Address string</text><line style="stroke:#181818;stroke-width:1.0;" x1="589" x2="837" y1="136.1875" y2="136.1875"/><text fill="#000000" font-family="sans-serif" font-size="14" lengthAdjust="spacing" textLength="114" x="594" y="153.1826">Username string</text><line style="stroke:#181818;stroke-width:1.0;" x1="589" x2="837" y1="160.4844" y2="160.4844"/><text fill="#000000" font-family="sans-serif" font-size="14" lengthAdjust="spacing" textLength="110" x="594" y="177.4795">Password string</text><line style="stroke:#181818;stroke-width:1.0;" x1="589" x2="837" y1="184.7813" y2="184.7813"/><text fill="#000000" font-family="sans-serif" font-size="14" lengthAdjust="spacing" textLength="183" x="594" y="201.7764">Ports []EthernetSwitchPort</text></g><path d="M373.5,72.5 L373.5,97.6328 A0,0 0 0 0 373.5,97.6328 L439.5,97.6328 A0,0 0 0 0 439.5,97.6328 L439.5,90.5 L592,75.4453 L439.5,82.5 L439.5,82.5 L429.5,72.5 L373.5,72.5 A0,0 0 0 0 373.5,72.5 " fill="#FEFFDD" style="stroke:#181818;stroke-width:0.5;"/><path d="M429.5,72.5 L429.5,82.5 L439.5,82.5 L429.5,72.5 " fill="#FEFFDD" style="stroke:#181818;stroke-width:0.5;"/><text fill="#000000" font-family="sans-serif" font-size="13" lengthAdjust="spacing" textLength="45" x="379.5" y="89.5669">Unique</text><path d="M373.5,107.6328 L373.5,132.7656 A0,0 0 0 0 373.5,132.7656 L544.5,132.7656 A0,0 0 0 0 544.5,132.7656 L544.5,125.6328 L592,124.0391 L544.5,117.6328 L544.5,117.6328 L534.5,107.6328 L373.5,107.6328 A0,0 0 0 0 373.5,107.6328 " fill="#FEFFDD" style="stroke:#181818;stroke-width:0.5;"/><path d="M534.5,107.6328 L534.5,117.6328 L544.5,117.6328 L534.5,107.6328 " fill="#FEFFDD" style="stroke:#181818;stroke-width:0.5;"/><text fill="#000000" font-family="sans-serif" font-size="13" lengthAdjust="spacing" textLength="150" x="379.5" y="124.6997">Ip address of the switch</text><!--MD5=[26c640b8ca553a99864a1cf1cdc36236]
reverse link Entity to IEntityModel--><g id="link_Entity_IEntityModel"><path codeLine="13" d="M635.74,418.32 C645.26,433.49 654.67,448.48 662.49,460.93 " fill="none" id="Entity-backto-IEntityModel" style="stroke:#181818;stroke-width:1.0;stroke-dasharray:7.0,7.0;"/><polygon fill="none" points="629.72,421.89,625.01,401.23,641.58,414.45,629.72,421.89" style="stroke:#181818;stroke-width:1.0;"/></g><!--MD5=[c66e272c92ec8cf1fe872f729110197a]
reverse link Entity to IEntityModelDeletedAt--><g id="link_Entity_IEntityModelDeletedAt"><path codeLine="14" d="M534.26,418.32 C524.74,433.49 515.33,448.48 507.51,460.93 " fill="none" id="Entity-backto-IEntityModelDeletedAt" style="stroke:#181818;stroke-width:1.0;stroke-dasharray:7.0,7.0;"/><polygon fill="none" points="528.42,414.45,544.99,401.23,540.28,421.89,528.42,414.45" style="stroke:#181818;stroke-width:1.0;"/></g><!--MD5=[84355f23807af020fb187e7aed8ce571]
reverse link EthernetSwitch to Entity--><g id="link_EthernetSwitch_Entity"><path codeLine="20" d="M648.15,223.51 C638.8,240.1 629.47,256.64 620.96,271.72 " fill="none" id="EthernetSwitch-backto-Entity" style="stroke:#181818;stroke-width:1.0;"/><polygon fill="#181818" points="654.62,212.04,648.1892,215.3026,648.7275,222.4936,655.1583,219.231,654.62,212.04" style="stroke:#181818;stroke-width:1.0;"/></g><!--MD5=[78069a7e9c29e98fe2f657561a0fab40]
link EthernetSwitch to EthernetSwitchModel--><g id="link_EthernetSwitch_EthernetSwitchModel"><path codeLine="21" d="M839,99.5 C919.92,99.5 877.17,239.96 853.41,304.16 " fill="none" id="EthernetSwitch-EthernetSwitchModel" style="stroke:#181818;stroke-width:1.0;"/></g><!--MD5=[4a506389997513a7eb93c4d0621b751f]
@startuml EthernetSwitch
!include Entity.puml
!include EthernetSwitchModel.puml


class EthernetSwitch {
    Name string
    - -
    Serial string
    - -
    SwitchModel EthernetSwitchModel
    - -
    Address string
    - -
    Username string
    - -
    Password string
    - -
    Ports []EthernetSwitchPort
}
EthernetSwitch *- - Entity
EthernetSwitch::SwitchModel - - EthernetSwitchModel


note left of EthernetSwitch::Serial
  Unique
end note
note left of EthernetSwitch::Address
  Ip address of the switch
end note
@enduml

@startuml EthernetSwitch
interface IEntityModel {
    GetId() uuid.UUID
}
interface IEntityModelDeletedAt {
    SetDeleted()
}
note left of IEntityModelDeletedAt::SetDeleted
    Set deletion time
    This method marks that the entity has been deleted
end note

class Entity {
    ID uuid.UUID `gorm:"primarykey"`
    - -
    CreatedAt time.Time `gorm:"index"`
    - -
    UpdatedAt time.Time `gorm:"index"`
    - -
    DeletedAt time.Time `gorm:"index"`
}
Entity <|.. IEntityModel
Entity <|.. IEntityModelDeletedAt


enum EthernetSwitchModel {
    UBIQUITY_US24_250W
}



class EthernetSwitch {
    Name string
    - -
    Serial string
    - -
    SwitchModel EthernetSwitchModel
    - -
    Address string
    - -
    Username string
    - -
    Password string
    - -
    Ports []EthernetSwitchPort
}
EthernetSwitch *- - Entity
EthernetSwitch::SwitchModel - - EthernetSwitchModel


note left of EthernetSwitch::Serial
  Unique
end note
note left of EthernetSwitch::Address
  Ip address of the switch
end note
@enduml

PlantUML version 1.2022.4(Sat Apr 09 13:29:17 UTC 2022)
(GPL source distribution)
Java Runtime: OpenJDK Runtime Environment
JVM: OpenJDK 64-Bit Server VM
Default Encoding: UTF-8
Language: en
Country: null
--></g></svg>