<?xml version="1.0" encoding="UTF-8" standalone="no"?><svg xmlns="http://www.w3.org/2000/svg" xmlns:xlink="http://www.w3.org/1999/xlink" contentStyleType="text/css" height="940px" preserveAspectRatio="none" style="width:413px;height:940px;background:#FFFFFF;" version="1.1" viewBox="0 0 413 940" width="413px" zoomAndPan="magnify"><defs/><g><!--MD5=[d5ac3844f66b12d9e08170e47495e096]
cluster app--><g id="cluster_app"><path d="M86.5,753 L116.5,753 A3.75,3.75 0 0 1 119,755.5 L126,775.2969 L325.5,775.2969 A2.5,2.5 0 0 1 328,777.7969 L328,930.5 A2.5,2.5 0 0 1 325.5,933 L86.5,933 A2.5,2.5 0 0 1 84,930.5 L84,755.5 A2.5,2.5 0 0 1 86.5,753 " style="stroke:#000000;stroke-width:1.5;fill:none;"/><line style="stroke:#000000;stroke-width:1.5;fill:none;" x1="84" x2="126" y1="775.2969" y2="775.2969"/><text fill="#000000" font-family="sans-serif" font-size="14" font-weight="bold" lengthAdjust="spacing" textLength="29" x="88" y="767.9951">app</text></g><!--MD5=[27f772719433d509ddbc20ff768eba08]
cluster domain--><g id="cluster_domain"><path d="M8.5,6 L66.5,6 A3.75,3.75 0 0 1 69,8.5 L76,28.2969 L403.5,28.2969 A2.5,2.5 0 0 1 406,30.7969 L406,717.5 A2.5,2.5 0 0 1 403.5,720 L8.5,720 A2.5,2.5 0 0 1 6,717.5 L6,8.5 A2.5,2.5 0 0 1 8.5,6 " style="stroke:#000000;stroke-width:1.5;fill:none;"/><line style="stroke:#000000;stroke-width:1.5;fill:none;" x1="6" x2="76" y1="28.2969" y2="28.2969"/><text fill="#000000" font-family="sans-serif" font-size="14" font-weight="bold" lengthAdjust="spacing" textLength="57" x="10" y="20.9951">domain</text></g><!--MD5=[2a39a5be1cc24ddddd6e6286e4ece992]
class IEntityModel--><g id="elem_IEntityModel"><rect codeLine="3" fill="#F1F1F1" height="129.1875" id="IEntityModel" rx="2.5" ry="2.5" style="stroke:#181818;stroke-width:0.5;" width="213" x="99.5" y="788"/><ellipse cx="136.55" cy="804" fill="#B4A7E5" rx="11" ry="11" style="stroke:#181818;stroke-width:1.0;"/><path d="M132.4719,799.7656 L132.4719,797.6094 L139.8625,797.6094 L139.8625,799.7656 L137.3938,799.7656 L137.3938,807.8438 L139.8625,807.8438 L139.8625,810 L132.4719,810 L132.4719,807.8438 L134.9406,807.8438 L134.9406,799.7656 L132.4719,799.7656 Z " fill="#000000"/><text fill="#000000" font-family="sans-serif" font-size="14" font-style="italic" lengthAdjust="spacing" textLength="85" x="155.45" y="808.8467">IEntityModel</text><rect fill="#FFFFFF" height="15.9688" style="stroke:#000000;stroke-width:1.0;stroke-dasharray:2.0,2.0;" width="45" x="270.5" y="785"/><text fill="#000000" font-family="sans-serif" font-size="12" font-style="italic" lengthAdjust="spacing" textLength="43" x="271.5" y="797.1387">IDType</text><line style="stroke:#181818;stroke-width:0.5;" x1="100.5" x2="311.5" y1="820" y2="820"/><ellipse cx="110.5" cy="831" fill="#84BE84" rx="3" ry="3" style="stroke:#038048;stroke-width:1.0;"/><text fill="#000000" font-family="sans-serif" font-size="14" lengthAdjust="spacing" textLength="101" x="119.5" y="836.9951">GetID() IDType</text><line style="stroke:#181818;stroke-width:1.0;" x1="100.5" x2="311.5" y1="844.2969" y2="844.2969"/><ellipse cx="110.5" cy="855.2969" fill="#84BE84" rx="3" ry="3" style="stroke:#038048;stroke-width:1.0;"/><text fill="#000000" font-family="sans-serif" font-size="14" lengthAdjust="spacing" textLength="176" x="119.5" y="861.292">GetCreatedAt() time.Time</text><line style="stroke:#181818;stroke-width:1.0;" x1="100.5" x2="311.5" y1="868.5938" y2="868.5938"/><ellipse cx="110.5" cy="879.5938" fill="#84BE84" rx="3" ry="3" style="stroke:#038048;stroke-width:1.0;"/><text fill="#000000" font-family="sans-serif" font-size="14" lengthAdjust="spacing" textLength="187" x="119.5" y="885.5889">GetUpdatedAt() *time.Time</text><line style="stroke:#181818;stroke-width:1.0;" x1="100.5" x2="311.5" y1="892.8906" y2="892.8906"/><ellipse cx="110.5" cy="903.8906" fill="#84BE84" rx="3" ry="3" style="stroke:#038048;stroke-width:1.0;"/><text fill="#000000" font-family="sans-serif" font-size="14" lengthAdjust="spacing" textLength="183" x="119.5" y="909.8857">GetDeletedAt() *time.Time</text></g><!--MD5=[1045d07ae824aea072cabb0fb8284887]
class EntityUUID--><g id="elem_EntityUUID"><rect codeLine="5" fill="#F1F1F1" height="48" id="EntityUUID" rx="2.5" ry="2.5" style="stroke:#181818;stroke-width:0.5;" width="104" x="154" y="450"/><ellipse cx="169" cy="466" fill="#ADD1B2" rx="11" ry="11" style="stroke:#181818;stroke-width:1.0;"/><path d="M171.9688,471.6406 Q171.3906,471.9375 170.75,472.0781 Q170.1094,472.2344 169.4063,472.2344 Q166.9063,472.2344 165.5781,470.5938 Q164.2656,468.9375 164.2656,465.8125 Q164.2656,462.6875 165.5781,461.0313 Q166.9063,459.375 169.4063,459.375 Q170.1094,459.375 170.75,459.5313 Q171.4063,459.6875 171.9688,459.9844 L171.9688,462.7031 Q171.3438,462.125 170.75,461.8594 Q170.1563,461.5781 169.5313,461.5781 Q168.1875,461.5781 167.5,462.6563 Q166.8125,463.7188 166.8125,465.8125 Q166.8125,467.9063 167.5,468.9844 Q168.1875,470.0469 169.5313,470.0469 Q170.1563,470.0469 170.75,469.7813 Q171.3438,469.5 171.9688,468.9219 L171.9688,471.6406 Z " fill="#000000"/><text fill="#000000" font-family="sans-serif" font-size="14" lengthAdjust="spacing" textLength="72" x="183" y="470.8467">EntityUUID</text><line style="stroke:#181818;stroke-width:0.5;" x1="155" x2="257" y1="482" y2="482"/><line style="stroke:#181818;stroke-width:0.5;" x1="155" x2="257" y1="490" y2="490"/></g><!--MD5=[be996cdb8e6bf2fc7cb89c555f2cd144]
class Entity--><g id="elem_Entity"><rect codeLine="8" fill="#F1F1F1" height="129.1875" id="Entity" rx="2.5" ry="2.5" style="stroke:#181818;stroke-width:0.5;" width="208" x="102" y="575"/><ellipse cx="159.25" cy="591" fill="#ADD1B2" rx="11" ry="11" style="stroke:#181818;stroke-width:1.0;"/><path d="M162.2188,596.6406 Q161.6406,596.9375 161,597.0781 Q160.3594,597.2344 159.6563,597.2344 Q157.1563,597.2344 155.8281,595.5938 Q154.5156,593.9375 154.5156,590.8125 Q154.5156,587.6875 155.8281,586.0313 Q157.1563,584.375 159.6563,584.375 Q160.3594,584.375 161,584.5313 Q161.6563,584.6875 162.2188,584.9844 L162.2188,587.7031 Q161.5938,587.125 161,586.8594 Q160.4063,586.5781 159.7813,586.5781 Q158.4375,586.5781 157.75,587.6563 Q157.0625,588.7188 157.0625,590.8125 Q157.0625,592.9063 157.75,593.9844 Q158.4375,595.0469 159.7813,595.0469 Q160.4063,595.0469 161,594.7813 Q161.5938,594.5 162.2188,593.9219 L162.2188,596.6406 Z " fill="#000000"/><text fill="#000000" font-family="sans-serif" font-size="14" lengthAdjust="spacing" textLength="38" x="179.75" y="595.8467">Entity</text><rect fill="#FFFFFF" height="15.9688" style="stroke:#000000;stroke-width:1.0;stroke-dasharray:2.0,2.0;" width="45" x="268" y="572"/><text fill="#000000" font-family="sans-serif" font-size="12" font-style="italic" lengthAdjust="spacing" textLength="43" x="269" y="584.1387">IDType</text><line style="stroke:#181818;stroke-width:0.5;" x1="103" x2="309" y1="607" y2="607"/><ellipse cx="113" cy="618" fill="none" rx="3" ry="3" style="stroke:#038048;stroke-width:1.0;"/><text fill="#000000" font-family="sans-serif" font-size="14" lengthAdjust="spacing" textLength="66" x="122" y="623.9951">ID IDType</text><line style="stroke:#181818;stroke-width:1.0;" x1="103" x2="309" y1="631.2969" y2="631.2969"/><ellipse cx="113" cy="642.2969" fill="none" rx="3" ry="3" style="stroke:#038048;stroke-width:1.0;"/><text fill="#000000" font-family="sans-serif" font-size="14" lengthAdjust="spacing" textLength="141" x="122" y="648.292">CreatedAt time.Time</text><line style="stroke:#181818;stroke-width:1.0;" x1="103" x2="309" y1="655.5938" y2="655.5938"/><ellipse cx="113" cy="666.5938" fill="none" rx="3" ry="3" style="stroke:#038048;stroke-width:1.0;"/><text fill="#000000" font-family="sans-serif" font-size="14" lengthAdjust="spacing" textLength="152" x="122" y="672.5889">UpdatedAt *time.Time</text><line style="stroke:#181818;stroke-width:1.0;" x1="103" x2="309" y1="679.8906" y2="679.8906"/><ellipse cx="113" cy="690.8906" fill="none" rx="3" ry="3" style="stroke:#038048;stroke-width:1.0;"/><text fill="#000000" font-family="sans-serif" font-size="14" lengthAdjust="spacing" textLength="182" x="122" y="696.8857">DeletedAt gorm.DeletedAt</text></g><!--MD5=[73025a93428e560011f09646c3da1997]
class HTTPLog--><g id="elem_HTTPLog"><rect codeLine="5" fill="#F1F1F1" height="347.8594" id="HTTPLog" rx="2.5" ry="2.5" style="stroke:#181818;stroke-width:0.5;" width="367" x="22.5" y="41"/><ellipse cx="170.75" cy="57" fill="#ADD1B2" rx="11" ry="11" style="stroke:#181818;stroke-width:1.0;"/><path d="M173.7188,62.6406 Q173.1406,62.9375 172.5,63.0781 Q171.8594,63.2344 171.1563,63.2344 Q168.6563,63.2344 167.3281,61.5938 Q166.0156,59.9375 166.0156,56.8125 Q166.0156,53.6875 167.3281,52.0313 Q168.6563,50.375 171.1563,50.375 Q171.8594,50.375 172.5,50.5313 Q173.1563,50.6875 173.7188,50.9844 L173.7188,53.7031 Q173.0938,53.125 172.5,52.8594 Q171.9063,52.5781 171.2813,52.5781 Q169.9375,52.5781 169.25,53.6563 Q168.5625,54.7188 168.5625,56.8125 Q168.5625,58.9063 169.25,59.9844 Q169.9375,61.0469 171.2813,61.0469 Q171.9063,61.0469 172.5,60.7813 Q173.0938,60.5 173.7188,59.9219 L173.7188,62.6406 Z " fill="#000000"/><text fill="#000000" font-family="sans-serif" font-size="14" lengthAdjust="spacing" textLength="62" x="191.25" y="61.8467">HTTPLog</text><line style="stroke:#181818;stroke-width:0.5;" x1="23.5" x2="388.5" y1="73" y2="73"/><ellipse cx="33.5" cy="84" fill="none" rx="3" ry="3" style="stroke:#038048;stroke-width:1.0;"/><text fill="#000000" font-family="sans-serif" font-size="14" lengthAdjust="spacing" textLength="133" x="42.5" y="89.9951">HTTPMethod string</text><line style="stroke:#181818;stroke-width:1.0;" x1="23.5" x2="388.5" y1="97.2969" y2="97.2969"/><ellipse cx="33.5" cy="108.2969" fill="none" rx="3" ry="3" style="stroke:#038048;stroke-width:1.0;"/><text fill="#000000" font-family="sans-serif" font-size="14" lengthAdjust="spacing" textLength="96" x="42.5" y="114.292">Domain string</text><line style="stroke:#181818;stroke-width:1.0;" x1="23.5" x2="388.5" y1="121.5938" y2="121.5938"/><ellipse cx="33.5" cy="132.5938" fill="none" rx="3" ry="3" style="stroke:#038048;stroke-width:1.0;"/><text fill="#000000" font-family="sans-serif" font-size="14" lengthAdjust="spacing" textLength="234" x="42.5" y="138.5889">RelativePath string `gorm:"index"`</text><line style="stroke:#181818;stroke-width:1.0;" x1="23.5" x2="388.5" y1="145.8906" y2="145.8906"/><ellipse cx="33.5" cy="156.8906" fill="none" rx="3" ry="3" style="stroke:#038048;stroke-width:1.0;"/><text fill="#000000" font-family="sans-serif" font-size="14" lengthAdjust="spacing" textLength="135" x="42.5" y="162.8857">QueryParams string</text><line style="stroke:#181818;stroke-width:1.0;" x1="23.5" x2="388.5" y1="170.1875" y2="170.1875"/><ellipse cx="33.5" cy="181.1875" fill="none" rx="3" ry="3" style="stroke:#038048;stroke-width:1.0;"/><text fill="#000000" font-family="sans-serif" font-size="14" lengthAdjust="spacing" textLength="262" x="42.5" y="187.1826">QueryParamsInd string `gorm:"index"`</text><line style="stroke:#181818;stroke-width:1.0;" x1="23.5" x2="388.5" y1="194.4844" y2="194.4844"/><ellipse cx="33.5" cy="205.4844" fill="none" rx="3" ry="3" style="stroke:#038048;stroke-width:1.0;"/><text fill="#000000" font-family="sans-serif" font-size="14" lengthAdjust="spacing" textLength="200" x="42.5" y="211.4795">ClientIP string `gorm:"index"`</text><line style="stroke:#181818;stroke-width:1.0;" x1="23.5" x2="388.5" y1="218.7813" y2="218.7813"/><ellipse cx="33.5" cy="229.7813" fill="none" rx="3" ry="3" style="stroke:#038048;stroke-width:1.0;"/><text fill="#000000" font-family="sans-serif" font-size="14" lengthAdjust="spacing" textLength="74" x="42.5" y="235.7764">Latency int</text><line style="stroke:#181818;stroke-width:1.0;" x1="23.5" x2="388.5" y1="243.0781" y2="243.0781"/><ellipse cx="33.5" cy="254.0781" fill="none" rx="3" ry="3" style="stroke:#038048;stroke-width:1.0;"/><text fill="#000000" font-family="sans-serif" font-size="14" lengthAdjust="spacing" textLength="137" x="42.5" y="260.0732">RequestBody string</text><line style="stroke:#181818;stroke-width:1.0;" x1="23.5" x2="388.5" y1="267.375" y2="267.375"/><ellipse cx="33.5" cy="278.375" fill="none" rx="3" ry="3" style="stroke:#038048;stroke-width:1.0;"/><text fill="#000000" font-family="sans-serif" font-size="14" lengthAdjust="spacing" textLength="149" x="42.5" y="284.3701">ResponseBody string</text><line style="stroke:#181818;stroke-width:1.0;" x1="23.5" x2="388.5" y1="291.6719" y2="291.6719"/><ellipse cx="33.5" cy="302.6719" fill="none" rx="3" ry="3" style="stroke:#038048;stroke-width:1.0;"/><text fill="#000000" font-family="sans-serif" font-size="14" lengthAdjust="spacing" textLength="160" x="42.5" y="308.667">RequestHeaders string</text><line style="stroke:#181818;stroke-width:1.0;" x1="23.5" x2="388.5" y1="315.9688" y2="315.9688"/><ellipse cx="33.5" cy="326.9688" fill="none" rx="3" ry="3" style="stroke:#038048;stroke-width:1.0;"/><text fill="#000000" font-family="sans-serif" font-size="14" lengthAdjust="spacing" textLength="172" x="42.5" y="332.9639">ResponseHeaders string</text><line style="stroke:#181818;stroke-width:1.0;" x1="23.5" x2="388.5" y1="340.2656" y2="340.2656"/><ellipse cx="33.5" cy="351.2656" fill="none" rx="3" ry="3" style="stroke:#038048;stroke-width:1.0;"/><text fill="#000000" font-family="sans-serif" font-size="14" lengthAdjust="spacing" textLength="214" x="42.5" y="357.2607">CustomRequestHeaders string</text><line style="stroke:#181818;stroke-width:1.0;" x1="23.5" x2="388.5" y1="364.5625" y2="364.5625"/><ellipse cx="33.5" cy="375.5625" fill="none" rx="3" ry="3" style="stroke:#038048;stroke-width:1.0;"/><text fill="#000000" font-family="sans-serif" font-size="14" lengthAdjust="spacing" textLength="341" x="42.5" y="381.5576">CustomRequestHeadersInd string `gorm:"index"`</text></g><!--MD5=[4afd32b9c3a651e50eee9a88aa9ac7c6]
link EntityUUID to Entity--><g id="link_EntityUUID_Entity"><path codeLine="7" d="M206,498.08 C206,514.86 206,538.61 206,561.82 " fill="none" id="EntityUUID-to-Entity" style="stroke:#181818;stroke-width:1.0;"/><polygon fill="#181818" points="206,574.98,210,568.98,206,562.98,202,568.98,206,574.98" style="stroke:#181818;stroke-width:1.0;"/><text fill="#000000" font-family="sans-serif" font-size="13" lengthAdjust="spacing" textLength="125" x="207" y="541.0669">IDType is uuid.UUID</text></g><!--MD5=[a6c7a0eda5b041e127f539f1664bb96a]
link Entity to IEntityModel--><g id="link_Entity_IEntityModel"><path codeLine="17" d="M206,704.09 C206,724.04 206,746.36 206,767.49 " fill="none" id="Entity-to-IEntityModel" style="stroke:#181818;stroke-width:1.0;stroke-dasharray:7.0,7.0;"/><polygon fill="none" points="213,767.67,206,787.67,199,767.67,213,767.67" style="stroke:#181818;stroke-width:1.0;"/></g><!--MD5=[54e3c72be1b2c4e3042e9850598d7bdc]
link HTTPLog to EntityUUID--><g id="link_HTTPLog_EntityUUID"><path codeLine="32" d="M206,389.2 C206,406.75 206,423.02 206,436.47 " fill="none" id="HTTPLog-to-EntityUUID" style="stroke:#181818;stroke-width:1.0;"/><polygon fill="#181818" points="206,449.88,210,443.88,206,437.88,202,443.88,206,449.88" style="stroke:#181818;stroke-width:1.0;"/></g><!--MD5=[8313c71c34f9c90aabb1285acaf5ca85]
@startuml EthernetSwitch

!include Entity.puml

package domain {
    class HTTPLog {
        +HTTPMethod string
        - -
        +Domain string
        - -
        +RelativePath string `gorm:"index"`
        - -
        +QueryParams string
        - -
        +QueryParamsInd string `gorm:"index"`
        - -
        +ClientIP string `gorm:"index"`
        - -
        +Latency int
        - -
        +RequestBody string
        - -
        +ResponseBody string
        - -
        +RequestHeaders string
        - -
        +ResponseHeaders string
        - -
        +CustomRequestHeaders string
        - -
        +CustomRequestHeadersInd string `gorm:"index"`
    }
    HTTPLog -down-* EntityUUID
}

@enduml

@startuml EthernetSwitch



package app {
    interface IEntityModel<IDType> {
        +GetID() IDType
        - -
        +GetCreatedAt() time.Time
        - -
        +GetUpdatedAt() *time.Time
        - -
        +GetDeletedAt() *time.Time
    }
}


package domain {
    class EntityUUID {
    }
    EntityUUID - -* Entity : IDType is uuid.UUID
    class Entity<IDType> {
        +ID IDType
        - -
        +CreatedAt time.Time
        - -
        +UpdatedAt *time.Time
        - -
        +DeletedAt gorm.DeletedAt
    }
    Entity .down.|> IEntityModel
}


package domain {
    class HTTPLog {
        +HTTPMethod string
        - -
        +Domain string
        - -
        +RelativePath string `gorm:"index"`
        - -
        +QueryParams string
        - -
        +QueryParamsInd string `gorm:"index"`
        - -
        +ClientIP string `gorm:"index"`
        - -
        +Latency int
        - -
        +RequestBody string
        - -
        +ResponseBody string
        - -
        +RequestHeaders string
        - -
        +ResponseHeaders string
        - -
        +CustomRequestHeaders string
        - -
        +CustomRequestHeadersInd string `gorm:"index"`
    }
    HTTPLog -down-* EntityUUID
}

@enduml

PlantUML version 1.2022.6(Tue Jun 21 17:34:49 EGST 2022)
(GPL source distribution)
Java Runtime: OpenJDK Runtime Environment
JVM: OpenJDK 64-Bit Server VM
Default Encoding: UTF-8
Language: en
Country: US
--></g></svg>