<?xml version="1.0" encoding="UTF-8" standalone="no"?><svg xmlns="http://www.w3.org/2000/svg" xmlns:xlink="http://www.w3.org/1999/xlink" contentStyleType="text/css" height="150px" preserveAspectRatio="none" style="width:247px;height:150px;background:#FFFFFF;" version="1.1" viewBox="0 0 247 150" width="247px" zoomAndPan="magnify"><defs/><g><!--MD5=[e4b9aa7503270d84ce1b5bb0254895a4]
class EthernetSwitchPoePortType--><g id="elem_EthernetSwitchPoePortType"><rect codeLine="1" fill="#F1F1F1" height="129.1875" id="EthernetSwitchPoePortType" rx="2.5" ry="2.5" style="stroke:#181818;stroke-width:0.5;" width="226" x="7" y="7"/><ellipse cx="22" cy="23" fill="#EB937F" rx="11" ry="11" style="stroke:#181818;stroke-width:1.0;"/><path d="M26.1094,29 L18.3906,29 L18.3906,16.6094 L26.1094,16.6094 L26.1094,18.7656 L20.8438,18.7656 L20.8438,21.4375 L25.6094,21.4375 L25.6094,23.5938 L20.8438,23.5938 L20.8438,26.8438 L26.1094,26.8438 L26.1094,29 Z " fill="#000000"/><text fill="#000000" font-family="sans-serif" font-size="14" lengthAdjust="spacing" textLength="194" x="36" y="27.8467">EthernetSwitchPoePortType</text><line style="stroke:#181818;stroke-width:0.5;" x1="8" x2="232" y1="39" y2="39"/><text fill="#000000" font-family="sans-serif" font-size="14" lengthAdjust="spacing" textLength="58" x="13" y="55.9951">POE = 1</text><line style="stroke:#181818;stroke-width:1.0;" x1="8" x2="232" y1="63.2969" y2="63.2969"/><text fill="#000000" font-family="sans-serif" font-size="14" lengthAdjust="spacing" textLength="71" x="13" y="80.292">POE_PLUS</text><line style="stroke:#181818;stroke-width:1.0;" x1="8" x2="232" y1="87.5938" y2="87.5938"/><text fill="#000000" font-family="sans-serif" font-size="14" lengthAdjust="spacing" textLength="91" x="13" y="104.5889">PASSIVE_V24</text><line style="stroke:#181818;stroke-width:1.0;" x1="8" x2="232" y1="111.8906" y2="111.8906"/><text fill="#000000" font-family="sans-serif" font-size="14" lengthAdjust="spacing" textLength="78" x="13" y="128.8857">NONE = 10</text></g><!--MD5=[5eb0be52d7cd6fd75ae75637d8b1cfb2]
@startuml EthernetSwitchPoePortType
enum EthernetSwitchPoePortType {
    POE = 1
    - -
    POE_PLUS
    - -
    PASSIVE_V24
    - -
    NONE = 10
}
@enduml

PlantUML version 1.2022.4(Sat Apr 09 13:29:17 UTC 2022)
(GPL source distribution)
Java Runtime: OpenJDK Runtime Environment
JVM: OpenJDK 64-Bit Server VM
Default Encoding: UTF-8
Language: en
Country: null
--></g></svg>