<?xml version="1.0" encoding="UTF-8" standalone="no"?><svg xmlns="http://www.w3.org/2000/svg" xmlns:xlink="http://www.w3.org/1999/xlink" contentStyleType="text/css" height="789px" preserveAspectRatio="none" style="width:1520px;height:789px;background:#FFFFFF;" version="1.1" viewBox="0 0 1520 789" width="1520px" zoomAndPan="magnify"><defs/><g><!--MD5=[d5ac3844f66b12d9e08170e47495e096]
cluster app--><g id="cluster_app"><path d="M646.5,626 L676.5,626 A3.75,3.75 0 0 1 679,628.5 L686,648.2969 L1133.5,648.2969 A2.5,2.5 0 0 1 1136,650.7969 L1136,779.5 A2.5,2.5 0 0 1 1133.5,782 L646.5,782 A2.5,2.5 0 0 1 644,779.5 L644,628.5 A2.5,2.5 0 0 1 646.5,626 " fill="none" style="stroke:#000000;stroke-width:1.5;"/><line style="stroke:#000000;stroke-width:1.5;" x1="644" x2="686" y1="648.2969" y2="648.2969"/><text fill="#000000" font-family="sans-serif" font-size="14" font-weight="bold" lengthAdjust="spacing" textLength="29" x="648" y="640.9951">app</text></g><!--MD5=[27f772719433d509ddbc20ff768eba08]
cluster domain--><g id="cluster_domain"><path d="M8.5,6 L66.5,6 A3.75,3.75 0 0 1 69,8.5 L76,28.2969 L1510.5,28.2969 A2.5,2.5 0 0 1 1513,30.7969 L1513,599.5 A2.5,2.5 0 0 1 1510.5,602 L8.5,602 A2.5,2.5 0 0 1 6,599.5 L6,8.5 A2.5,2.5 0 0 1 8.5,6 " fill="none" style="stroke:#000000;stroke-width:1.5;"/><line style="stroke:#000000;stroke-width:1.5;" x1="6" x2="76" y1="28.2969" y2="28.2969"/><text fill="#000000" font-family="sans-serif" font-size="14" font-weight="bold" lengthAdjust="spacing" textLength="57" x="10" y="20.9951">domain</text></g><!--MD5=[7d972e8a870a7d3102e7596738050350]
class IHostNetworkLink--><g id="elem_IHostNetworkLink"><rect codeLine="3" fill="#F1F1F1" height="104.8906" id="IHostNetworkLink" rx="2.5" ry="2.5" style="stroke:#181818;stroke-width:0.5;" width="212" x="908" y="661"/><ellipse cx="949.1" cy="677" fill="#B4A7E5" rx="11" ry="11" style="stroke:#181818;stroke-width:1.0;"/><path d="M945.0219,672.7656 L945.0219,670.6094 L952.4125,670.6094 L952.4125,672.7656 L949.9438,672.7656 L949.9438,680.8438 L952.4125,680.8438 L952.4125,683 L945.0219,683 L945.0219,680.8438 L947.4906,680.8438 L947.4906,672.7656 L945.0219,672.7656 Z " fill="#000000"/><text fill="#000000" font-family="sans-serif" font-size="14" font-style="italic" lengthAdjust="spacing" textLength="122" x="968.9" y="681.8467">IHostNetworkLink</text><line style="stroke:#181818;stroke-width:0.5;" x1="909" x2="1119" y1="693" y2="693"/><ellipse cx="919" cy="706.6484" fill="#84BE84" rx="3" ry="3" style="stroke:#038048;stroke-width:1.0;"/><text fill="#000000" font-family="sans-serif" font-size="14" lengthAdjust="spacing" textLength="118" x="928" y="709.9951">GetName() string</text><line style="stroke:#181818;stroke-width:1.0;" x1="909" x2="1119" y1="717.2969" y2="717.2969"/><ellipse cx="919" cy="730.9453" fill="#84BE84" rx="3" ry="3" style="stroke:#038048;stroke-width:1.0;"/><text fill="#000000" font-family="sans-serif" font-size="14" lengthAdjust="spacing" textLength="112" x="928" y="734.292">GetType() string</text><line style="stroke:#181818;stroke-width:1.0;" x1="909" x2="1119" y1="741.5938" y2="741.5938"/><ellipse cx="919" cy="755.2422" fill="#84BE84" rx="3" ry="3" style="stroke:#038048;stroke-width:1.0;"/><text fill="#000000" font-family="sans-serif" font-size="14" lengthAdjust="spacing" textLength="186" x="928" y="758.5889">GetAddresses() []net.IPNet</text></g><path d="M659.5,661 L659.5,686.1328 A0,0 0 0 0 659.5,686.1328 L843.5,686.1328 A0,0 0 0 0 843.5,686.1328 L843.5,679 L912,705.1484 L843.5,671 L843.5,671 L833.5,661 L659.5,661 A0,0 0 0 0 659.5,661 " fill="#FEFFDD" style="stroke:#181818;stroke-width:0.5;"/><path d="M833.5,661 L833.5,671 L843.5,671 L833.5,661 " fill="#FEFFDD" style="stroke:#181818;stroke-width:0.5;"/><text fill="#000000" font-family="sans-serif" font-size="13" lengthAdjust="spacing" textLength="163" x="665.5" y="678.0669">Gets host interface name</text><path d="M659.5,696.1328 L659.5,721.2656 A0,0 0 0 0 659.5,721.2656 L834.5,721.2656 A0,0 0 0 0 834.5,721.2656 L834.5,714.1328 L912,729.4453 L834.5,706.1328 L834.5,706.1328 L824.5,696.1328 L659.5,696.1328 A0,0 0 0 0 659.5,696.1328 " fill="#FEFFDD" style="stroke:#181818;stroke-width:0.5;"/><path d="M824.5,696.1328 L824.5,706.1328 L834.5,706.1328 L824.5,696.1328 " fill="#FEFFDD" style="stroke:#181818;stroke-width:0.5;"/><text fill="#000000" font-family="sans-serif" font-size="13" lengthAdjust="spacing" textLength="154" x="665.5" y="713.1997">Gets host interface type</text><path d="M659.5,731.2656 L659.5,756.3984 A0,0 0 0 0 659.5,756.3984 L872.5,756.3984 A0,0 0 0 0 872.5,756.3984 L872.5,749.2656 L912,753.7422 L872.5,741.2656 L872.5,741.2656 L862.5,731.2656 L659.5,731.2656 A0,0 0 0 0 659.5,731.2656 " fill="#FEFFDD" style="stroke:#181818;stroke-width:0.5;"/><path d="M862.5,731.2656 L862.5,741.2656 L872.5,741.2656 L862.5,731.2656 " fill="#FEFFDD" style="stroke:#181818;stroke-width:0.5;"/><text fill="#000000" font-family="sans-serif" font-size="13" lengthAdjust="spacing" textLength="192" x="665.5" y="748.3325">Gets host interface addresses</text><!--MD5=[e5fff6262f684687265fbe09f1b48075]
class HostNetworkLink--><g id="elem_HostNetworkLink"><rect codeLine="5" fill="#F1F1F1" height="104.8906" id="HostNetworkLink" rx="2.5" ry="2.5" style="stroke:#181818;stroke-width:0.5;" width="177" x="925.5" y="469"/><ellipse cx="953.55" cy="485" fill="#ADD1B2" rx="11" ry="11" style="stroke:#181818;stroke-width:1.0;"/><path d="M956.5188,490.6406 Q955.9406,490.9375 955.3,491.0781 Q954.6594,491.2344 953.9563,491.2344 Q951.4563,491.2344 950.1281,489.5938 Q948.8156,487.9375 948.8156,484.8125 Q948.8156,481.6875 950.1281,480.0313 Q951.4563,478.375 953.9563,478.375 Q954.6594,478.375 955.3,478.5313 Q955.9563,478.6875 956.5188,478.9844 L956.5188,481.7031 Q955.8938,481.125 955.3,480.8594 Q954.7063,480.5781 954.0813,480.5781 Q952.7375,480.5781 952.05,481.6563 Q951.3625,482.7188 951.3625,484.8125 Q951.3625,486.9063 952.05,487.9844 Q952.7375,489.0469 954.0813,489.0469 Q954.7063,489.0469 955.3,488.7813 Q955.8938,488.5 956.5188,487.9219 L956.5188,490.6406 Z " fill="#000000"/><text fill="#000000" font-family="sans-serif" font-size="14" lengthAdjust="spacing" textLength="116" x="970.45" y="489.8467">HostNetworkLink</text><line style="stroke:#181818;stroke-width:0.5;" x1="926.5" x2="1101.5" y1="501" y2="501"/><ellipse cx="936.5" cy="514.6484" fill="none" rx="3" ry="3" style="stroke:#038048;stroke-width:1.0;"/><text fill="#000000" font-family="sans-serif" font-size="14" lengthAdjust="spacing" textLength="83" x="945.5" y="517.9951">Name string</text><line style="stroke:#181818;stroke-width:1.0;" x1="926.5" x2="1101.5" y1="525.2969" y2="525.2969"/><ellipse cx="936.5" cy="538.9453" fill="none" rx="3" ry="3" style="stroke:#038048;stroke-width:1.0;"/><text fill="#000000" font-family="sans-serif" font-size="14" lengthAdjust="spacing" textLength="151" x="945.5" y="542.292">Addresses []net.IPNet</text><line style="stroke:#181818;stroke-width:1.0;" x1="926.5" x2="1101.5" y1="549.5938" y2="549.5938"/><ellipse cx="936.5" cy="563.2422" fill="none" rx="3" ry="3" style="stroke:#038048;stroke-width:1.0;"/><text fill="#000000" font-family="sans-serif" font-size="14" lengthAdjust="spacing" textLength="77" x="945.5" y="566.5889">Type string</text></g><path d="M605.5,479 L605.5,504.1328 A0,0 0 0 0 605.5,504.1328 L867.5,504.1328 A0,0 0 0 0 867.5,504.1328 L867.5,497 L929.5,513.1484 L867.5,489 L867.5,489 L857.5,479 L605.5,479 A0,0 0 0 0 605.5,479 " fill="#FEFFDD" style="stroke:#181818;stroke-width:0.5;"/><path d="M857.5,479 L857.5,489 L867.5,489 L857.5,479 " fill="#FEFFDD" style="stroke:#181818;stroke-width:0.5;"/><text fill="#000000" font-family="sans-serif" font-size="13" lengthAdjust="spacing" textLength="241" x="611.5" y="496.0669">Unique name of the network interface</text><path d="M605.5,514.1328 L605.5,554.3984 A0,0 0 0 0 605.5,554.3984 L890.5,554.3984 A0,0 0 0 0 890.5,554.3984 L890.5,538.2656 L929.5,561.7422 L890.5,530.2656 L890.5,524.1328 L880.5,514.1328 L605.5,514.1328 A0,0 0 0 0 605.5,514.1328 " fill="#FEFFDD" style="stroke:#181818;stroke-width:0.5;"/><path d="M880.5,514.1328 L880.5,524.1328 L890.5,524.1328 L880.5,514.1328 " fill="#FEFFDD" style="stroke:#181818;stroke-width:0.5;"/><text fill="#000000" font-family="sans-serif" font-size="13" lengthAdjust="spacing" textLength="144" x="611.5" y="531.1997">Default value is "none"</text><text fill="#000000" font-family="sans-serif" font-size="13" lengthAdjust="spacing" textLength="264" x="611.5" y="546.3325">because HostNetworkLink is a basic class</text><!--MD5=[b17b81604319b97b33af23212dfcf2f4]
class HostNetworkDevice--><g id="elem_HostNetworkDevice"><rect codeLine="5" fill="#F1F1F1" height="48" id="HostNetworkDevice" rx="2.5" ry="2.5" style="stroke:#181818;stroke-width:0.5;" width="168" x="704" y="293"/><ellipse cx="719" cy="309" fill="#ADD1B2" rx="11" ry="11" style="stroke:#181818;stroke-width:1.0;"/><path d="M721.9688,314.6406 Q721.3906,314.9375 720.75,315.0781 Q720.1094,315.2344 719.4063,315.2344 Q716.9063,315.2344 715.5781,313.5938 Q714.2656,311.9375 714.2656,308.8125 Q714.2656,305.6875 715.5781,304.0313 Q716.9063,302.375 719.4063,302.375 Q720.1094,302.375 720.75,302.5313 Q721.4063,302.6875 721.9688,302.9844 L721.9688,305.7031 Q721.3438,305.125 720.75,304.8594 Q720.1563,304.5781 719.5313,304.5781 Q718.1875,304.5781 717.5,305.6563 Q716.8125,306.7188 716.8125,308.8125 Q716.8125,310.9063 717.5,311.9844 Q718.1875,313.0469 719.5313,313.0469 Q720.1563,313.0469 720.75,312.7813 Q721.3438,312.5 721.9688,311.9219 L721.9688,314.6406 Z " fill="#000000"/><text fill="#000000" font-family="sans-serif" font-size="14" lengthAdjust="spacing" textLength="136" x="733" y="313.8467">HostNetworkDevice</text><line style="stroke:#181818;stroke-width:0.5;" x1="705" x2="871" y1="325" y2="325"/><line style="stroke:#181818;stroke-width:0.5;" x1="705" x2="871" y1="333" y2="333"/></g><!--MD5=[7708bf2b3811a61fdbad496487474248]
class HostNetworkVlan--><g id="elem_HostNetworkVlan"><rect codeLine="5" fill="#F1F1F1" height="80.5938" id="HostNetworkVlan" rx="2.5" ry="2.5" style="stroke:#181818;stroke-width:0.5;" width="150" x="1108" y="276.5"/><ellipse cx="1123" cy="292.5" fill="#ADD1B2" rx="11" ry="11" style="stroke:#181818;stroke-width:1.0;"/><path d="M1125.9688,298.1406 Q1125.3906,298.4375 1124.75,298.5781 Q1124.1094,298.7344 1123.4063,298.7344 Q1120.9063,298.7344 1119.5781,297.0938 Q1118.2656,295.4375 1118.2656,292.3125 Q1118.2656,289.1875 1119.5781,287.5313 Q1120.9063,285.875 1123.4063,285.875 Q1124.1094,285.875 1124.75,286.0313 Q1125.4063,286.1875 1125.9688,286.4844 L1125.9688,289.2031 Q1125.3438,288.625 1124.75,288.3594 Q1124.1563,288.0781 1123.5313,288.0781 Q1122.1875,288.0781 1121.5,289.1563 Q1120.8125,290.2188 1120.8125,292.3125 Q1120.8125,294.4063 1121.5,295.4844 Q1122.1875,296.5469 1123.5313,296.5469 Q1124.1563,296.5469 1124.75,296.2813 Q1125.3438,296 1125.9688,295.4219 L1125.9688,298.1406 Z " fill="#000000"/><text fill="#000000" font-family="sans-serif" font-size="14" lengthAdjust="spacing" textLength="118" x="1137" y="297.3467">HostNetworkVlan</text><line style="stroke:#181818;stroke-width:0.5;" x1="1109" x2="1257" y1="308.5" y2="308.5"/><ellipse cx="1119" cy="322.1484" fill="none" rx="3" ry="3" style="stroke:#038048;stroke-width:1.0;"/><text fill="#000000" font-family="sans-serif" font-size="14" lengthAdjust="spacing" textLength="64" x="1128" y="325.4951">VlanID int</text><line style="stroke:#181818;stroke-width:1.0;" x1="1109" x2="1257" y1="332.7969" y2="332.7969"/><ellipse cx="1119" cy="346.4453" fill="none" rx="3" ry="3" style="stroke:#038048;stroke-width:1.0;"/><text fill="#000000" font-family="sans-serif" font-size="14" lengthAdjust="spacing" textLength="88" x="1128" y="349.792">Parent string</text></g><!--MD5=[bd56b3e5eb0134b68fc9951038656522]
class HostNetworkBridge--><g id="elem_HostNetworkBridge"><rect codeLine="5" fill="#F1F1F1" height="80.5938" id="HostNetworkBridge" rx="2.5" ry="2.5" style="stroke:#181818;stroke-width:0.5;" width="166" x="907" y="276.5"/><ellipse cx="922" cy="292.5" fill="#ADD1B2" rx="11" ry="11" style="stroke:#181818;stroke-width:1.0;"/><path d="M924.9688,298.1406 Q924.3906,298.4375 923.75,298.5781 Q923.1094,298.7344 922.4063,298.7344 Q919.9063,298.7344 918.5781,297.0938 Q917.2656,295.4375 917.2656,292.3125 Q917.2656,289.1875 918.5781,287.5313 Q919.9063,285.875 922.4063,285.875 Q923.1094,285.875 923.75,286.0313 Q924.4063,286.1875 924.9688,286.4844 L924.9688,289.2031 Q924.3438,288.625 923.75,288.3594 Q923.1563,288.0781 922.5313,288.0781 Q921.1875,288.0781 920.5,289.1563 Q919.8125,290.2188 919.8125,292.3125 Q919.8125,294.4063 920.5,295.4844 Q921.1875,296.5469 922.5313,296.5469 Q923.1563,296.5469 923.75,296.2813 Q924.3438,296 924.9688,295.4219 L924.9688,298.1406 Z " fill="#000000"/><text fill="#000000" font-family="sans-serif" font-size="14" lengthAdjust="spacing" textLength="134" x="936" y="297.3467">HostNetworkBridge</text><line style="stroke:#181818;stroke-width:0.5;" x1="908" x2="1072" y1="308.5" y2="308.5"/><ellipse cx="918" cy="322.1484" fill="none" rx="3" ry="3" style="stroke:#038048;stroke-width:1.0;"/><text fill="#000000" font-family="sans-serif" font-size="14" lengthAdjust="spacing" textLength="97" x="927" y="325.4951">Slaves []string</text><line style="stroke:#181818;stroke-width:1.0;" x1="908" x2="1072" y1="332.7969" y2="332.7969"/><ellipse cx="918" cy="346.4453" fill="#84BE84" rx="3" ry="3" style="stroke:#038048;stroke-width:1.0;"/><text fill="#000000" font-family="sans-serif" font-size="14" lengthAdjust="spacing" textLength="132" x="927" y="349.792">GetSlaves() []string</text></g><path d="M1292.5,299.5 L1292.5,308.0664 L1059,344.9453 L1292.5,316.0664 L1292.5,324.6328 A0,0 0 0 0 1292.5,324.6328 L1497.5,324.6328 A0,0 0 0 0 1497.5,324.6328 L1497.5,309.5 L1487.5,299.5 L1292.5,299.5 A0,0 0 0 0 1292.5,299.5 " fill="#FEFFDD" style="stroke:#181818;stroke-width:0.5;"/><path d="M1487.5,299.5 L1487.5,309.5 L1497.5,309.5 L1487.5,299.5 " fill="#FEFFDD" style="stroke:#181818;stroke-width:0.5;"/><text fill="#000000" font-family="sans-serif" font-size="13" lengthAdjust="spacing" textLength="184" x="1298.5" y="316.5669">Get an array of bridge slaves</text><!--MD5=[4df6a62ad1da37074bd36be660276c45]
class HostNetworkTrafficRule--><g id="elem_HostNetworkTrafficRule"><rect codeLine="3" fill="#F1F1F1" height="129.1875" id="HostNetworkTrafficRule" rx="2.5" ry="2.5" style="stroke:#181818;stroke-width:0.5;" width="193" x="377.5" y="457"/><ellipse cx="392.5" cy="473" fill="#ADD1B2" rx="11" ry="11" style="stroke:#181818;stroke-width:1.0;"/><path d="M395.4688,478.6406 Q394.8906,478.9375 394.25,479.0781 Q393.6094,479.2344 392.9063,479.2344 Q390.4063,479.2344 389.0781,477.5938 Q387.7656,475.9375 387.7656,472.8125 Q387.7656,469.6875 389.0781,468.0313 Q390.4063,466.375 392.9063,466.375 Q393.6094,466.375 394.25,466.5313 Q394.9063,466.6875 395.4688,466.9844 L395.4688,469.7031 Q394.8438,469.125 394.25,468.8594 Q393.6563,468.5781 393.0313,468.5781 Q391.6875,468.5781 391,469.6563 Q390.3125,470.7188 390.3125,472.8125 Q390.3125,474.9063 391,475.9844 Q391.6875,477.0469 393.0313,477.0469 Q393.6563,477.0469 394.25,476.7813 Q394.8438,476.5 395.4688,475.9219 L395.4688,478.6406 Z " fill="#000000"/><text fill="#000000" font-family="sans-serif" font-size="14" lengthAdjust="spacing" textLength="161" x="406.5" y="477.8467">HostNetworkTrafficRule</text><line style="stroke:#181818;stroke-width:0.5;" x1="378.5" x2="569.5" y1="489" y2="489"/><text fill="#000000" font-family="sans-serif" font-size="14" lengthAdjust="spacing" textLength="82" x="383.5" y="505.9951">Chain string</text><line style="stroke:#181818;stroke-width:1.0;" x1="378.5" x2="569.5" y1="513.2969" y2="513.2969"/><text fill="#000000" font-family="sans-serif" font-size="14" lengthAdjust="spacing" textLength="88" x="383.5" y="530.292">Target string</text><line style="stroke:#181818;stroke-width:1.0;" x1="378.5" x2="569.5" y1="537.5938" y2="537.5938"/><text fill="#000000" font-family="sans-serif" font-size="14" lengthAdjust="spacing" textLength="92" x="383.5" y="554.5889">Source string</text><line style="stroke:#181818;stroke-width:1.0;" x1="378.5" x2="569.5" y1="561.8906" y2="561.8906"/><text fill="#000000" font-family="sans-serif" font-size="14" lengthAdjust="spacing" textLength="122" x="383.5" y="578.8857">Destination string</text></g><!--MD5=[58987b0398bdf5010f5174b6a6feac3c]
class HostNetworkConfig--><g id="elem_HostNetworkConfig"><rect codeLine="8" fill="#F1F1F1" height="129.1875" id="HostNetworkConfig" rx="2.5" ry="2.5" style="stroke:#181818;stroke-width:0.5;" width="231" x="772.5" y="45"/><ellipse cx="817.25" cy="61" fill="#ADD1B2" rx="11" ry="11" style="stroke:#181818;stroke-width:1.0;"/><path d="M820.2188,66.6406 Q819.6406,66.9375 819,67.0781 Q818.3594,67.2344 817.6563,67.2344 Q815.1563,67.2344 813.8281,65.5938 Q812.5156,63.9375 812.5156,60.8125 Q812.5156,57.6875 813.8281,56.0313 Q815.1563,54.375 817.6563,54.375 Q818.3594,54.375 819,54.5313 Q819.6563,54.6875 820.2188,54.9844 L820.2188,57.7031 Q819.5938,57.125 819,56.8594 Q818.4063,56.5781 817.7813,56.5781 Q816.4375,56.5781 815.75,57.6563 Q815.0625,58.7188 815.0625,60.8125 Q815.0625,62.9063 815.75,63.9844 Q816.4375,65.0469 817.7813,65.0469 Q818.4063,65.0469 819,64.7813 Q819.5938,64.5 820.2188,63.9219 L820.2188,66.6406 Z " fill="#000000"/><text fill="#000000" font-family="sans-serif" font-size="14" lengthAdjust="spacing" textLength="133" x="837.75" y="65.8467">HostNetworkConfig</text><line style="stroke:#181818;stroke-width:0.5;" x1="773.5" x2="1002.5" y1="77" y2="77"/><ellipse cx="783.5" cy="90.6484" fill="none" rx="3" ry="3" style="stroke:#038048;stroke-width:1.0;"/><text fill="#000000" font-family="sans-serif" font-size="14" lengthAdjust="spacing" textLength="205" x="792.5" y="93.9951">Devices []HostNetworkDevice</text><line style="stroke:#181818;stroke-width:1.0;" x1="773.5" x2="1002.5" y1="101.2969" y2="101.2969"/><ellipse cx="783.5" cy="114.9453" fill="none" rx="3" ry="3" style="stroke:#038048;stroke-width:1.0;"/><text fill="#000000" font-family="sans-serif" font-size="14" lengthAdjust="spacing" textLength="177" x="792.5" y="118.292">Vlans   []HostNetworkVlan</text><line style="stroke:#181818;stroke-width:1.0;" x1="773.5" x2="1002.5" y1="125.5938" y2="125.5938"/><ellipse cx="783.5" cy="139.2422" fill="none" rx="3" ry="3" style="stroke:#038048;stroke-width:1.0;"/><text fill="#000000" font-family="sans-serif" font-size="14" lengthAdjust="spacing" textLength="201" x="792.5" y="142.5889">Bridges []HostNetworkBridge</text><line style="stroke:#181818;stroke-width:1.0;" x1="773.5" x2="1002.5" y1="149.8906" y2="149.8906"/><ellipse cx="783.5" cy="163.5391" fill="none" rx="3" ry="3" style="stroke:#038048;stroke-width:1.0;"/><text fill="#000000" font-family="sans-serif" font-size="14" lengthAdjust="spacing" textLength="164" x="792.5" y="166.8857">TrafficRules TrafficRules</text></g><!--MD5=[1abd5d28a97ba974f492516d1fdb0ac6]
class TrafficRules--><g id="elem_TrafficRules"><rect codeLine="18" fill="#F1F1F1" height="153.4844" id="TrafficRules" rx="2.5" ry="2.5" style="stroke:#181818;stroke-width:0.5;" width="256" x="30" y="241"/><ellipse cx="113.75" cy="257" fill="#ADD1B2" rx="11" ry="11" style="stroke:#181818;stroke-width:1.0;"/><path d="M116.7188,262.6406 Q116.1406,262.9375 115.5,263.0781 Q114.8594,263.2344 114.1563,263.2344 Q111.6563,263.2344 110.3281,261.5938 Q109.0156,259.9375 109.0156,256.8125 Q109.0156,253.6875 110.3281,252.0313 Q111.6563,250.375 114.1563,250.375 Q114.8594,250.375 115.5,250.5313 Q116.1563,250.6875 116.7188,250.9844 L116.7188,253.7031 Q116.0938,253.125 115.5,252.8594 Q114.9063,252.5781 114.2813,252.5781 Q112.9375,252.5781 112.25,253.6563 Q111.5625,254.7188 111.5625,256.8125 Q111.5625,258.9063 112.25,259.9844 Q112.9375,261.0469 114.2813,261.0469 Q114.9063,261.0469 115.5,260.7813 Q116.0938,260.5 116.7188,259.9219 L116.7188,262.6406 Z " fill="#000000"/><text fill="#000000" font-family="sans-serif" font-size="14" lengthAdjust="spacing" textLength="80" x="134.25" y="261.8467">TrafficRules</text><line style="stroke:#181818;stroke-width:0.5;" x1="31" x2="285" y1="273" y2="273"/><ellipse cx="41" cy="286.6484" fill="none" rx="3" ry="3" style="stroke:#038048;stroke-width:1.0;"/><text fill="#000000" font-family="sans-serif" font-size="14" lengthAdjust="spacing" textLength="208" x="50" y="289.9951">Filter []HostNetworkTrafficRule</text><line style="stroke:#181818;stroke-width:1.0;" x1="31" x2="285" y1="297.2969" y2="297.2969"/><ellipse cx="41" cy="310.9453" fill="none" rx="3" ry="3" style="stroke:#038048;stroke-width:1.0;"/><text fill="#000000" font-family="sans-serif" font-size="14" lengthAdjust="spacing" textLength="203" x="50" y="314.292">NAT []HostNetworkTrafficRule</text><line style="stroke:#181818;stroke-width:1.0;" x1="31" x2="285" y1="321.5938" y2="321.5938"/><ellipse cx="41" cy="335.2422" fill="none" rx="3" ry="3" style="stroke:#038048;stroke-width:1.0;"/><text fill="#000000" font-family="sans-serif" font-size="14" lengthAdjust="spacing" textLength="225" x="50" y="338.5889">Mangle []HostNetworkTrafficRule</text><line style="stroke:#181818;stroke-width:1.0;" x1="31" x2="285" y1="345.8906" y2="345.8906"/><ellipse cx="41" cy="359.5391" fill="none" rx="3" ry="3" style="stroke:#038048;stroke-width:1.0;"/><text fill="#000000" font-family="sans-serif" font-size="14" lengthAdjust="spacing" textLength="204" x="50" y="362.8857">Raw []HostNetworkTrafficRule</text><line style="stroke:#181818;stroke-width:1.0;" x1="31" x2="285" y1="370.1875" y2="370.1875"/><ellipse cx="41" cy="383.8359" fill="none" rx="3" ry="3" style="stroke:#038048;stroke-width:1.0;"/><text fill="#000000" font-family="sans-serif" font-size="14" lengthAdjust="spacing" textLength="230" x="50" y="387.1826">Security []HostNetworkTrafficRule</text></g><g id="elem_NetworkTrafficRuleNote"><path d="M329,297 L329,337.2656 L669,337.2656 L669,307 L659,297 L329,297 " fill="#FEFFDD" style="stroke:#181818;stroke-width:0.5;"/><path d="M659,297 L659,307 L669,307 L659,297 " fill="#FEFFDD" style="stroke:#181818;stroke-width:1.0;"/><text fill="#000000" font-family="sans-serif" font-size="13" lengthAdjust="spacing" textLength="301" x="335" y="314.0669">Since traffic rules are stored in the .yaml config</text><text fill="#000000" font-family="sans-serif" font-size="13" lengthAdjust="spacing" textLength="315" x="339" y="329.1997">we need to split all netfilter tables into class fields</text></g><!--MD5=[c7ae537b1fb1fd62da54845b02126a57]
link HostNetworkLink to IHostNetworkLink--><g id="link_HostNetworkLink_IHostNetworkLink"><path codeLine="21" d="M1014,574.17 C1014,594.67 1014,618.61 1014,640.75 " fill="none" id="HostNetworkLink-to-IHostNetworkLink" style="stroke:#181818;stroke-width:1.0;"/><polygon fill="none" points="1021,640.84,1014,660.84,1007,640.84,1021,640.84" style="stroke:#181818;stroke-width:1.0;"/></g><!--MD5=[7c0130aaa2dc79170695f96da00ebff9]
link HostNetworkDevice to HostNetworkLink--><g id="link_HostNetworkDevice_HostNetworkLink"><path codeLine="7" d="M813.93,341.23 C846.05,370.01 901.99,420.13 946.56,460.08 " fill="none" id="HostNetworkDevice-to-HostNetworkLink" style="stroke:#181818;stroke-width:1.0;"/><polygon fill="#181818" points="956.47,468.95,954.673,461.9664,947.5354,460.9392,949.3324,467.9228,956.47,468.95" style="stroke:#181818;stroke-width:1.0;"/></g><!--MD5=[f741d5613818e7c6a8b6721c8e9fb611]
link HostNetworkVlan to HostNetworkLink--><g id="link_HostNetworkVlan_HostNetworkLink"><path codeLine="11" d="M1150.01,357.52 C1125.99,386.31 1092.98,425.87 1065.49,458.8 " fill="none" id="HostNetworkVlan-to-HostNetworkLink" style="stroke:#181818;stroke-width:1.0;"/><polygon fill="#181818" points="1057.15,468.79,1064.0666,466.7502,1064.8439,459.5811,1057.9273,461.6209,1057.15,468.79" style="stroke:#181818;stroke-width:1.0;"/></g><!--MD5=[dba085063a1d972b71adca959eac56ab]
link HostNetworkBridge to HostNetworkLink--><g id="link_HostNetworkBridge_HostNetworkLink"><path codeLine="11" d="M994.68,357.52 C997.99,385.45 1002.5,423.49 1006.33,455.8 " fill="none" id="HostNetworkBridge-to-HostNetworkLink" style="stroke:#181818;stroke-width:1.0;"/><polygon fill="#181818" points="1007.87,468.79,1011.137,462.3614,1006.4595,456.8732,1003.1925,463.3018,1007.87,468.79" style="stroke:#181818;stroke-width:1.0;"/></g><!--MD5=[22922eb5c98d6328bffadf0fffe1f4a9]
link HostNetworkConfig to HostNetworkDevice--><g id="link_HostNetworkConfig_HostNetworkDevice"><path codeLine="30" d="M772,89 C690.81,89 750.28,235.27 776.9,292.98 " fill="none" id="HostNetworkConfig-HostNetworkDevice" style="stroke:#181818;stroke-width:1.0;"/></g><!--MD5=[3939eded06239bcaaa875b04c4955c10]
link HostNetworkConfig to HostNetworkVlan--><g id="link_HostNetworkConfig_HostNetworkVlan"><path codeLine="31" d="M1005,113 C1091.01,113 1145.17,217.3 1168.95,276.38 " fill="none" id="HostNetworkConfig-HostNetworkVlan" style="stroke:#181818;stroke-width:1.0;"/></g><!--MD5=[9daca89a698ab2c397b62c91a9aa8944]
link HostNetworkConfig to HostNetworkBridge--><g id="link_HostNetworkConfig_HostNetworkBridge"><path codeLine="32" d="M1005,137 C1060.51,137 1031.57,223.54 1008.79,276.27 " fill="none" id="HostNetworkConfig-HostNetworkBridge" style="stroke:#181818;stroke-width:1.0;"/></g><!--MD5=[5a0fd3ba2c81e532df98bfffdf79ed38]
link HostNetworkConfig to TrafficRules--><g id="link_HostNetworkConfig_TrafficRules"><path codeLine="33" d="M772,161 C564.78,161 508.77,172.04 312,237 C306.15,238.93 300.25,241.06 294.35,243.34 " fill="none" id="HostNetworkConfig-TrafficRules" style="stroke:#181818;stroke-width:1.0;"/></g><!--MD5=[f6f72487f3d250d8769ac80e8ccb2105]
link NetworkTrafficRuleNote to TrafficRules--><!--MD5=[5a18eaea5e24513923bf7f5ea5ee84f8]
link TrafficRules to NetworkTrafficRuleNote--><g id="link_TrafficRules_NetworkTrafficRuleNote"><path codeLine="43" d="M287,285 C303.49,287.96 320.63,291.37 337.69,294.89 " fill="none" id="TrafficRules-NetworkTrafficRuleNote" style="stroke:#181818;stroke-width:1.0;stroke-dasharray:7.0,7.0;"/><line style="stroke:#181818;stroke-width:1.0;" x1="337.69" x2="347.72" y1="294.89" y2="296.98"/></g><!--MD5=[5a18eaea5e24513923bf7f5ea5ee84f8]
link TrafficRules to NetworkTrafficRuleNote--><g id="link_TrafficRules_NetworkTrafficRuleNote"><path codeLine="44" d="M287,309 C297.28,309 307.84,309.1 318.49,309.27 " fill="none" id="TrafficRules-NetworkTrafficRuleNote-1" style="stroke:#181818;stroke-width:1.0;stroke-dasharray:7.0,7.0;"/><line style="stroke:#181818;stroke-width:1.0;" x1="318.49" x2="328.73" y1="309.27" y2="309.45"/></g><!--MD5=[5a18eaea5e24513923bf7f5ea5ee84f8]
link TrafficRules to NetworkTrafficRuleNote--><g id="link_TrafficRules_NetworkTrafficRuleNote"><path codeLine="45" d="M287,333 C297.3,333 307.88,332.81 318.54,332.47 " fill="none" id="TrafficRules-NetworkTrafficRuleNote-2" style="stroke:#181818;stroke-width:1.0;stroke-dasharray:7.0,7.0;"/><line style="stroke:#181818;stroke-width:1.0;" x1="318.54" x2="328.79" y1="332.47" y2="332.09"/></g><!--MD5=[5a18eaea5e24513923bf7f5ea5ee84f8]
link TrafficRules to NetworkTrafficRuleNote--><g id="link_TrafficRules_NetworkTrafficRuleNote"><path codeLine="46" d="M287,357 C330.82,357 378.89,348.57 418.06,339.45 " fill="none" id="TrafficRules-NetworkTrafficRuleNote-3" style="stroke:#181818;stroke-width:1.0;stroke-dasharray:7.0,7.0;"/><line style="stroke:#181818;stroke-width:1.0;" x1="418.06" x2="427.81" y1="339.45" y2="337.12"/></g><!--MD5=[5a18eaea5e24513923bf7f5ea5ee84f8]
link TrafficRules to NetworkTrafficRuleNote--><g id="link_TrafficRules_NetworkTrafficRuleNote"><path codeLine="47" d="M287,381 C344.12,381 406.34,359.26 448.3,341.12 " fill="none" id="TrafficRules-NetworkTrafficRuleNote-4" style="stroke:#181818;stroke-width:1.0;stroke-dasharray:7.0,7.0;"/><line style="stroke:#181818;stroke-width:1.0;" x1="448.3" x2="457.47" y1="341.12" y2="337.07"/></g><!--MD5=[11cf39667170caf120925c445fb13f55]
link NetworkTrafficRuleNote to HostNetworkTrafficRule--><g id="link_NetworkTrafficRuleNote_HostNetworkTrafficRule"><path codeLine="49" d="M496.65,337.05 C493.44,363.06 487.51,411.06 482.53,451.43 " fill="none" id="NetworkTrafficRuleNote-to-HostNetworkTrafficRule" style="stroke:#181818;stroke-width:1.0;stroke-dasharray:7.0,7.0;"/><polygon fill="#181818" points="481.86,456.82,486.9125,448.3659,482.4608,451.8562,478.9704,447.4046,481.86,456.82" style="stroke:#181818;stroke-width:1.0;"/></g><!--MD5=[13d44b21d0f3ea7f5cec8ed366525a1e]
@startuml

!include HostNetworkDevice.puml
!include HostNetworkVlan.puml
!include HostNetworkBridge.puml
!include HostNetworkTrafficRule.puml

package domain {
    class HostNetworkConfig {
        +Devices []HostNetworkDevice
        - -
        +Vlans   []HostNetworkVlan
        - -
        +Bridges []HostNetworkBridge
        - -
        +TrafficRules TrafficRules
    }

    class TrafficRules {
        +Filter []HostNetworkTrafficRule
        - -
        +NAT []HostNetworkTrafficRule
        - -
        +Mangle []HostNetworkTrafficRule
        - -
        +Raw []HostNetworkTrafficRule
        - -
        +Security []HostNetworkTrafficRule
    }

    HostNetworkConfig::Devices - - HostNetworkDevice
    HostNetworkConfig::Vlans - - HostNetworkVlan
    HostNetworkConfig::Bridges - - HostNetworkBridge
    HostNetworkConfig::TrafficRules - - TrafficRules

    note as NetworkTrafficRuleNote
        Since traffic rules are stored in the .yaml config
         we need to split all netfilter tables into class fields
    end note

    TrafficRules .l[hidden]. NetworkTrafficRuleNote


    TrafficRules::Filter .. NetworkTrafficRuleNote
    TrafficRules::NAT .. NetworkTrafficRuleNote
    TrafficRules::Mangle .. NetworkTrafficRuleNote
    TrafficRules::Raw .. NetworkTrafficRuleNote
    TrafficRules::Security .. NetworkTrafficRuleNote

    NetworkTrafficRuleNote ..> HostNetworkTrafficRule
}

@enduml

@startuml




package app {
    interface IHostNetworkLink {
        +GetName() string
        - -
        +GetType() string
        - -
        +GetAddresses() []net.IPNet
    }

    note left of IHostNetworkLink::GetName
    Gets host interface name
    end note

    note left of IHostNetworkLink::GetType
    Gets host interface type
    end note

    note left of IHostNetworkLink::GetAddresses
    Gets host interface addresses
    end note
}


package domain {
    class HostNetworkLink {
        +Name string
        - -
        +Addresses []net.IPNet
        - -
        +Type string
    }
    note left of HostNetworkLink::Name
    Unique name of the network interface
    end note

    note left of HostNetworkLink::Type
    Default value is "none"
    because HostNetworkLink is a basic class
    end note

    HostNetworkLink - -|> IHostNetworkLink
}


package domain {
    class HostNetworkDevice

    HostNetworkDevice - -* HostNetworkLink
}



package domain {
    class HostNetworkVlan {
        +VlanID int
        - -
        +Parent string
    }

    HostNetworkVlan - -* HostNetworkLink
}



package domain {
    class HostNetworkBridge {
        +Slaves []string
        - -
        +GetSlaves() []string
    }

    HostNetworkBridge - -* HostNetworkLink

    note right of HostNetworkBridge::GetSlaves
        Get an array of bridge slaves
    end note
}




package domain {
    class HostNetworkTrafficRule {
        Chain string
        - -
        Target string
        - -
        Source string
        - -
        Destination string
    }
}


package domain {
    class HostNetworkConfig {
        +Devices []HostNetworkDevice
        - -
        +Vlans   []HostNetworkVlan
        - -
        +Bridges []HostNetworkBridge
        - -
        +TrafficRules TrafficRules
    }

    class TrafficRules {
        +Filter []HostNetworkTrafficRule
        - -
        +NAT []HostNetworkTrafficRule
        - -
        +Mangle []HostNetworkTrafficRule
        - -
        +Raw []HostNetworkTrafficRule
        - -
        +Security []HostNetworkTrafficRule
    }

    HostNetworkConfig::Devices - - HostNetworkDevice
    HostNetworkConfig::Vlans - - HostNetworkVlan
    HostNetworkConfig::Bridges - - HostNetworkBridge
    HostNetworkConfig::TrafficRules - - TrafficRules

    note as NetworkTrafficRuleNote
        Since traffic rules are stored in the .yaml config
         we need to split all netfilter tables into class fields
    end note

    TrafficRules .l[hidden]. NetworkTrafficRuleNote


    TrafficRules::Filter .. NetworkTrafficRuleNote
    TrafficRules::NAT .. NetworkTrafficRuleNote
    TrafficRules::Mangle .. NetworkTrafficRuleNote
    TrafficRules::Raw .. NetworkTrafficRuleNote
    TrafficRules::Security .. NetworkTrafficRuleNote

    NetworkTrafficRuleNote ..> HostNetworkTrafficRule
}

@enduml

PlantUML version 1.2022.12(Sun Oct 23 18:12:26 EGST 2022)
(GPL source distribution)
Java Runtime: OpenJDK Runtime Environment
JVM: OpenJDK 64-Bit Server VM
Default Encoding: UTF-8
Language: en
Country: US
--></g></svg>