<?xml version="1.0" encoding="UTF-8" standalone="no"?><svg xmlns="http://www.w3.org/2000/svg" xmlns:xlink="http://www.w3.org/1999/xlink" contentStyleType="text/css" height="677px" preserveAspectRatio="none" style="width:780px;height:677px;background:#FFFFFF;" version="1.1" viewBox="0 0 780 677" width="780px" zoomAndPan="magnify"><defs/><g><!--MD5=[d5ac3844f66b12d9e08170e47495e096]
cluster app--><g id="cluster_app"><path d="M165.5,509 L192.5,509 A3.75,3.75 0 0 1 195,511.5 L202,532.6094 L618.5,532.6094 A2.5,2.5 0 0 1 621,535.1094 L621,667.5 A2.5,2.5 0 0 1 618.5,670 L165.5,670 A2.5,2.5 0 0 1 163,667.5 L163,511.5 A2.5,2.5 0 0 1 165.5,509 " style="stroke:#000000;stroke-width:1.5;fill:none;"/><line style="stroke:#000000;stroke-width:1.5;fill:none;" x1="163" x2="202" y1="532.6094" y2="532.6094"/><text fill="#000000" font-family="sans-serif" font-size="14" font-weight="bold" lengthAdjust="spacing" textLength="26" x="167" y="525.5332">app</text></g><!--MD5=[27f772719433d509ddbc20ff768eba08]
cluster domain--><g id="cluster_domain"><path d="M8.5,6 L60.5,6 A3.75,3.75 0 0 1 63,8.5 L70,29.6094 L770.5,29.6094 A2.5,2.5 0 0 1 773,32.1094 L773,482.5 A2.5,2.5 0 0 1 770.5,485 L8.5,485 A2.5,2.5 0 0 1 6,482.5 L6,8.5 A2.5,2.5 0 0 1 8.5,6 " style="stroke:#000000;stroke-width:1.5;fill:none;"/><line style="stroke:#000000;stroke-width:1.5;fill:none;" x1="6" x2="70" y1="29.6094" y2="29.6094"/><text fill="#000000" font-family="sans-serif" font-size="14" font-weight="bold" lengthAdjust="spacing" textLength="51" x="10" y="22.5332">domain</text></g><!--MD5=[7d972e8a870a7d3102e7596738050350]
class IHostNetworkLink--><g id="elem_IHostNetworkLink"><rect codeLine="3" fill="#F1F1F1" height="108.8281" id="IHostNetworkLink" rx="2.5" ry="2.5" style="stroke:#181818;stroke-width:0.5;" width="195" x="409.5" y="545"/><ellipse cx="447.45" cy="561" fill="#B4A7E5" rx="11" ry="11" style="stroke:#181818;stroke-width:1.0;"/><path d="M448.4031,557.6406 L448.4031,564.2969 L450.1219,564.2969 Q450.7313,564.2969 450.9969,564.5313 Q451.2625,564.7656 451.2625,565.1563 Q451.2625,565.5313 450.9969,565.7656 Q450.7313,566 450.1219,566 L444.9813,566 Q444.3719,566 444.1063,565.7656 Q443.8406,565.5313 443.8406,565.1406 Q443.8406,564.7656 444.1063,564.5313 Q444.3719,564.2969 444.9813,564.2969 L446.7,564.2969 L446.7,557.6406 L444.9813,557.6406 Q444.3719,557.6406 444.1063,557.4063 Q443.8406,557.1719 443.8406,556.7813 Q443.8406,556.4063 444.1063,556.1719 Q444.3719,555.9375 444.9813,555.9375 L450.1219,555.9375 Q450.7313,555.9375 450.9969,556.1719 Q451.2625,556.4063 451.2625,556.7813 Q451.2625,557.1719 450.9969,557.4063 Q450.7313,557.6406 450.1219,557.6406 L448.4031,557.6406 Z " fill="#000000"/><text fill="#000000" font-family="sans-serif" font-size="14" font-style="italic" lengthAdjust="spacing" textLength="112" x="466.55" y="566.7285">IHostNetworkLink</text><line style="stroke:#181818;stroke-width:0.5;" x1="410.5" x2="603.5" y1="577" y2="577"/><ellipse cx="420.5" cy="588" fill="#84BE84" rx="3" ry="3" style="stroke:#038048;stroke-width:1.0;"/><text fill="#000000" font-family="sans-serif" font-size="14" lengthAdjust="spacing" textLength="108" x="429.5" y="595.5332">GetName() string</text><line style="stroke:#181818;stroke-width:1.0;" x1="410.5" x2="603.5" y1="602.6094" y2="602.6094"/><ellipse cx="420.5" cy="613.6094" fill="#84BE84" rx="3" ry="3" style="stroke:#038048;stroke-width:1.0;"/><text fill="#000000" font-family="sans-serif" font-size="14" lengthAdjust="spacing" textLength="104" x="429.5" y="621.1426">GetType() string</text><line style="stroke:#181818;stroke-width:1.0;" x1="410.5" x2="603.5" y1="628.2188" y2="628.2188"/><ellipse cx="420.5" cy="639.2188" fill="#84BE84" rx="3" ry="3" style="stroke:#038048;stroke-width:1.0;"/><text fill="#000000" font-family="sans-serif" font-size="14" lengthAdjust="spacing" textLength="169" x="429.5" y="646.752">GetAddresses() []net.IPNet</text></g><path d="M179.5,545 L179.5,571.3516 A0,0 0 0 0 179.5,571.3516 L346.5,571.3516 A0,0 0 0 0 346.5,571.3516 L346.5,563 L413.5,589.8047 L346.5,555 L346.5,555 L336.5,545 L179.5,545 A0,0 0 0 0 179.5,545 " fill="#FEFFDD" style="stroke:#181818;stroke-width:0.5;"/><path d="M336.5,545 L336.5,555 L346.5,555 L336.5,545 " fill="#FEFFDD" style="stroke:#181818;stroke-width:0.5;"/><text fill="#000000" font-family="sans-serif" font-size="13" lengthAdjust="spacing" textLength="146" x="185.5" y="563.4951">Gets host interface name</text><path d="M179.5,581.3516 L179.5,607.7031 A0,0 0 0 0 179.5,607.7031 L339.5,607.7031 A0,0 0 0 0 339.5,607.7031 L339.5,599.3516 L413.5,615.4141 L339.5,591.3516 L339.5,591.3516 L329.5,581.3516 L179.5,581.3516 A0,0 0 0 0 179.5,581.3516 " fill="#FEFFDD" style="stroke:#181818;stroke-width:0.5;"/><path d="M329.5,581.3516 L329.5,591.3516 L339.5,591.3516 L329.5,581.3516 " fill="#FEFFDD" style="stroke:#181818;stroke-width:0.5;"/><text fill="#000000" font-family="sans-serif" font-size="13" lengthAdjust="spacing" textLength="139" x="185.5" y="599.8467">Gets host interface type</text><path d="M179.5,617.7031 L179.5,644.0547 A0,0 0 0 0 179.5,644.0547 L374.5,644.0547 A0,0 0 0 0 374.5,644.0547 L374.5,635.7031 L413.5,641.0234 L374.5,627.7031 L374.5,627.7031 L364.5,617.7031 L179.5,617.7031 A0,0 0 0 0 179.5,617.7031 " fill="#FEFFDD" style="stroke:#181818;stroke-width:0.5;"/><path d="M364.5,617.7031 L364.5,627.7031 L374.5,627.7031 L364.5,617.7031 " fill="#FEFFDD" style="stroke:#181818;stroke-width:0.5;"/><text fill="#000000" font-family="sans-serif" font-size="13" lengthAdjust="spacing" textLength="174" x="185.5" y="636.1982">Gets host interface addresses</text><!--MD5=[e5fff6262f684687265fbe09f1b48075]
class HostNetworkLink--><g id="elem_HostNetworkLink"><rect codeLine="5" fill="#F1F1F1" height="108.8281" id="HostNetworkLink" rx="2.5" ry="2.5" style="stroke:#181818;stroke-width:0.5;" width="162" x="426" y="360"/><ellipse cx="452.7" cy="376" fill="#ADD1B2" rx="11" ry="11" style="stroke:#181818;stroke-width:1.0;"/><path d="M455.4656,371.875 Q455.6219,371.6563 455.8094,371.5469 Q455.9969,371.4375 456.2156,371.4375 Q456.5906,371.4375 456.825,371.7031 Q457.0594,371.9531 457.0594,372.5625 L457.0594,374.0156 Q457.0594,374.625 456.825,374.8906 Q456.5906,375.1563 456.2156,375.1563 Q455.8719,375.1563 455.6688,374.9531 Q455.4656,374.7656 455.3563,374.25 Q455.3094,373.8906 455.1219,373.7031 Q454.7938,373.3281 454.1844,373.1094 Q453.575,372.8906 452.95,372.8906 Q452.1844,372.8906 451.5438,373.2188 Q450.9188,373.5469 450.4188,374.2969 Q449.9344,375.0469 449.9344,376.0781 L449.9344,377.1719 Q449.9344,378.4063 450.825,379.2344 Q451.7156,380.0469 453.3094,380.0469 Q454.2469,380.0469 454.9031,379.7969 Q455.2938,379.6406 455.7156,379.2031 Q455.9813,378.9375 456.1219,378.8594 Q456.2781,378.7813 456.4813,378.7813 Q456.8094,378.7813 457.0594,379.0469 Q457.325,379.2969 457.325,379.6406 Q457.325,379.9844 456.9813,380.3906 Q456.4813,380.9688 455.6844,381.2969 Q454.6063,381.75 453.3094,381.75 Q451.7938,381.75 450.5906,381.125 Q449.6063,380.625 448.9188,379.5625 Q448.2313,378.4844 448.2313,377.2031 L448.2313,376.0469 Q448.2313,374.7188 448.8406,373.5781 Q449.4656,372.4219 450.5594,371.8125 Q451.6531,371.1875 452.8875,371.1875 Q453.6219,371.1875 454.2625,371.3594 Q454.9188,371.5156 455.4656,371.875 Z " fill="#000000"/><text fill="#000000" font-family="sans-serif" font-size="14" lengthAdjust="spacing" textLength="104" x="469.3" y="381.7285">HostNetworkLink</text><line style="stroke:#181818;stroke-width:0.5;" x1="427" x2="587" y1="392" y2="392"/><ellipse cx="437" cy="403" fill="none" rx="3" ry="3" style="stroke:#038048;stroke-width:1.0;"/><text fill="#000000" font-family="sans-serif" font-size="14" lengthAdjust="spacing" textLength="75" x="446" y="410.5332">Name string</text><line style="stroke:#181818;stroke-width:1.0;" x1="427" x2="587" y1="417.6094" y2="417.6094"/><ellipse cx="437" cy="428.6094" fill="none" rx="3" ry="3" style="stroke:#038048;stroke-width:1.0;"/><text fill="#000000" font-family="sans-serif" font-size="14" lengthAdjust="spacing" textLength="136" x="446" y="436.1426">Addresses []net.IPNet</text><line style="stroke:#181818;stroke-width:1.0;" x1="427" x2="587" y1="443.2188" y2="443.2188"/><ellipse cx="437" cy="454.2188" fill="none" rx="3" ry="3" style="stroke:#038048;stroke-width:1.0;"/><text fill="#000000" font-family="sans-serif" font-size="14" lengthAdjust="spacing" textLength="71" x="446" y="461.752">Type string</text></g><path d="M123.5,370 L123.5,396.3516 A0,0 0 0 0 123.5,396.3516 L358.5,396.3516 A0,0 0 0 0 358.5,396.3516 L358.5,388 L430,404.8047 L358.5,380 L358.5,380 L348.5,370 L123.5,370 A0,0 0 0 0 123.5,370 " fill="#FEFFDD" style="stroke:#181818;stroke-width:0.5;"/><path d="M348.5,370 L348.5,380 L358.5,380 L348.5,370 " fill="#FEFFDD" style="stroke:#181818;stroke-width:0.5;"/><text fill="#000000" font-family="sans-serif" font-size="13" lengthAdjust="spacing" textLength="214" x="129.5" y="388.4951">Unique name of the network interface</text><path d="M123.5,406.3516 L123.5,449.0547 A0,0 0 0 0 123.5,449.0547 L390.5,449.0547 A0,0 0 0 0 390.5,449.0547 L390.5,431.7031 L430,456.0234 L390.5,423.7031 L390.5,416.3516 L380.5,406.3516 L123.5,406.3516 A0,0 0 0 0 123.5,406.3516 " fill="#FEFFDD" style="stroke:#181818;stroke-width:0.5;"/><path d="M380.5,406.3516 L380.5,416.3516 L390.5,416.3516 L380.5,406.3516 " fill="#FEFFDD" style="stroke:#181818;stroke-width:0.5;"/><text fill="#000000" font-family="sans-serif" font-size="13" lengthAdjust="spacing" textLength="129" x="129.5" y="424.8467">Default value is "none"</text><text fill="#000000" font-family="sans-serif" font-size="13" lengthAdjust="spacing" textLength="246" x="129.5" y="441.1982">because HostNetworkLink is a basic class</text><!--MD5=[b17b81604319b97b33af23212dfcf2f4]
class HostNetworkDevice--><g id="elem_HostNetworkDevice"><rect codeLine="5" fill="#F1F1F1" height="48" id="HostNetworkDevice" rx="2.5" ry="2.5" style="stroke:#181818;stroke-width:0.5;" width="153" x="430.5" y="234.5"/><ellipse cx="445.5" cy="250.5" fill="#ADD1B2" rx="11" ry="11" style="stroke:#181818;stroke-width:1.0;"/><path d="M448.2656,246.375 Q448.4219,246.1563 448.6094,246.0469 Q448.7969,245.9375 449.0156,245.9375 Q449.3906,245.9375 449.625,246.2031 Q449.8594,246.4531 449.8594,247.0625 L449.8594,248.5156 Q449.8594,249.125 449.625,249.3906 Q449.3906,249.6563 449.0156,249.6563 Q448.6719,249.6563 448.4688,249.4531 Q448.2656,249.2656 448.1563,248.75 Q448.1094,248.3906 447.9219,248.2031 Q447.5938,247.8281 446.9844,247.6094 Q446.375,247.3906 445.75,247.3906 Q444.9844,247.3906 444.3438,247.7188 Q443.7188,248.0469 443.2188,248.7969 Q442.7344,249.5469 442.7344,250.5781 L442.7344,251.6719 Q442.7344,252.9063 443.625,253.7344 Q444.5156,254.5469 446.1094,254.5469 Q447.0469,254.5469 447.7031,254.2969 Q448.0938,254.1406 448.5156,253.7031 Q448.7813,253.4375 448.9219,253.3594 Q449.0781,253.2813 449.2813,253.2813 Q449.6094,253.2813 449.8594,253.5469 Q450.125,253.7969 450.125,254.1406 Q450.125,254.4844 449.7813,254.8906 Q449.2813,255.4688 448.4844,255.7969 Q447.4063,256.25 446.1094,256.25 Q444.5938,256.25 443.3906,255.625 Q442.4063,255.125 441.7188,254.0625 Q441.0313,252.9844 441.0313,251.7031 L441.0313,250.5469 Q441.0313,249.2188 441.6406,248.0781 Q442.2656,246.9219 443.3594,246.3125 Q444.4531,245.6875 445.6875,245.6875 Q446.4219,245.6875 447.0625,245.8594 Q447.7188,246.0156 448.2656,246.375 Z " fill="#000000"/><text fill="#000000" font-family="sans-serif" font-size="14" lengthAdjust="spacing" textLength="121" x="459.5" y="256.2285">HostNetworkDevice</text><line style="stroke:#181818;stroke-width:0.5;" x1="431.5" x2="582.5" y1="266.5" y2="266.5"/><line style="stroke:#181818;stroke-width:0.5;" x1="431.5" x2="582.5" y1="274.5" y2="274.5"/></g><!--MD5=[7708bf2b3811a61fdbad496487474248]
class HostNetworkVlan--><g id="elem_HostNetworkVlan"><rect codeLine="5" fill="#F1F1F1" height="83.2188" id="HostNetworkVlan" rx="2.5" ry="2.5" style="stroke:#181818;stroke-width:0.5;" width="138" x="619" y="217"/><ellipse cx="634" cy="233" fill="#ADD1B2" rx="11" ry="11" style="stroke:#181818;stroke-width:1.0;"/><path d="M636.7656,228.875 Q636.9219,228.6563 637.1094,228.5469 Q637.2969,228.4375 637.5156,228.4375 Q637.8906,228.4375 638.125,228.7031 Q638.3594,228.9531 638.3594,229.5625 L638.3594,231.0156 Q638.3594,231.625 638.125,231.8906 Q637.8906,232.1563 637.5156,232.1563 Q637.1719,232.1563 636.9688,231.9531 Q636.7656,231.7656 636.6563,231.25 Q636.6094,230.8906 636.4219,230.7031 Q636.0938,230.3281 635.4844,230.1094 Q634.875,229.8906 634.25,229.8906 Q633.4844,229.8906 632.8438,230.2188 Q632.2188,230.5469 631.7188,231.2969 Q631.2344,232.0469 631.2344,233.0781 L631.2344,234.1719 Q631.2344,235.4063 632.125,236.2344 Q633.0156,237.0469 634.6094,237.0469 Q635.5469,237.0469 636.2031,236.7969 Q636.5938,236.6406 637.0156,236.2031 Q637.2813,235.9375 637.4219,235.8594 Q637.5781,235.7813 637.7813,235.7813 Q638.1094,235.7813 638.3594,236.0469 Q638.625,236.2969 638.625,236.6406 Q638.625,236.9844 638.2813,237.3906 Q637.7813,237.9688 636.9844,238.2969 Q635.9063,238.75 634.6094,238.75 Q633.0938,238.75 631.8906,238.125 Q630.9063,237.625 630.2188,236.5625 Q629.5313,235.4844 629.5313,234.2031 L629.5313,233.0469 Q629.5313,231.7188 630.1406,230.5781 Q630.7656,229.4219 631.8594,228.8125 Q632.9531,228.1875 634.1875,228.1875 Q634.9219,228.1875 635.5625,228.3594 Q636.2188,228.5156 636.7656,228.875 Z " fill="#000000"/><text fill="#000000" font-family="sans-serif" font-size="14" lengthAdjust="spacing" textLength="106" x="648" y="238.7285">HostNetworkVlan</text><line style="stroke:#181818;stroke-width:0.5;" x1="620" x2="756" y1="249" y2="249"/><ellipse cx="630" cy="260" fill="none" rx="3" ry="3" style="stroke:#038048;stroke-width:1.0;"/><text fill="#000000" font-family="sans-serif" font-size="14" lengthAdjust="spacing" textLength="60" x="639" y="267.5332">VlanID int</text><line style="stroke:#181818;stroke-width:1.0;" x1="620" x2="756" y1="274.6094" y2="274.6094"/><ellipse cx="630" cy="285.6094" fill="none" rx="3" ry="3" style="stroke:#038048;stroke-width:1.0;"/><text fill="#000000" font-family="sans-serif" font-size="14" lengthAdjust="spacing" textLength="81" x="639" y="293.1426">Parent string</text></g><!--MD5=[bd56b3e5eb0134b68fc9951038656522]
class HostNetworkBridge--><g id="elem_HostNetworkBridge"><rect codeLine="5" fill="#F1F1F1" height="83.2188" id="HostNetworkBridge" rx="2.5" ry="2.5" style="stroke:#181818;stroke-width:0.5;" width="151" x="22.5" y="217"/><ellipse cx="37.5" cy="233" fill="#ADD1B2" rx="11" ry="11" style="stroke:#181818;stroke-width:1.0;"/><path d="M40.2656,228.875 Q40.4219,228.6563 40.6094,228.5469 Q40.7969,228.4375 41.0156,228.4375 Q41.3906,228.4375 41.625,228.7031 Q41.8594,228.9531 41.8594,229.5625 L41.8594,231.0156 Q41.8594,231.625 41.625,231.8906 Q41.3906,232.1563 41.0156,232.1563 Q40.6719,232.1563 40.4688,231.9531 Q40.2656,231.7656 40.1563,231.25 Q40.1094,230.8906 39.9219,230.7031 Q39.5938,230.3281 38.9844,230.1094 Q38.375,229.8906 37.75,229.8906 Q36.9844,229.8906 36.3438,230.2188 Q35.7188,230.5469 35.2188,231.2969 Q34.7344,232.0469 34.7344,233.0781 L34.7344,234.1719 Q34.7344,235.4063 35.625,236.2344 Q36.5156,237.0469 38.1094,237.0469 Q39.0469,237.0469 39.7031,236.7969 Q40.0938,236.6406 40.5156,236.2031 Q40.7813,235.9375 40.9219,235.8594 Q41.0781,235.7813 41.2813,235.7813 Q41.6094,235.7813 41.8594,236.0469 Q42.125,236.2969 42.125,236.6406 Q42.125,236.9844 41.7813,237.3906 Q41.2813,237.9688 40.4844,238.2969 Q39.4063,238.75 38.1094,238.75 Q36.5938,238.75 35.3906,238.125 Q34.4063,237.625 33.7188,236.5625 Q33.0313,235.4844 33.0313,234.2031 L33.0313,233.0469 Q33.0313,231.7188 33.6406,230.5781 Q34.2656,229.4219 35.3594,228.8125 Q36.4531,228.1875 37.6875,228.1875 Q38.4219,228.1875 39.0625,228.3594 Q39.7188,228.5156 40.2656,228.875 Z " fill="#000000"/><text fill="#000000" font-family="sans-serif" font-size="14" lengthAdjust="spacing" textLength="119" x="51.5" y="238.7285">HostNetworkBridge</text><line style="stroke:#181818;stroke-width:0.5;" x1="23.5" x2="172.5" y1="249" y2="249"/><ellipse cx="33.5" cy="260" fill="none" rx="3" ry="3" style="stroke:#038048;stroke-width:1.0;"/><text fill="#000000" font-family="sans-serif" font-size="14" lengthAdjust="spacing" textLength="89" x="42.5" y="267.5332">Slaves []string</text><line style="stroke:#181818;stroke-width:1.0;" x1="23.5" x2="172.5" y1="274.6094" y2="274.6094"/><ellipse cx="33.5" cy="285.6094" fill="#84BE84" rx="3" ry="3" style="stroke:#038048;stroke-width:1.0;"/><text fill="#000000" font-family="sans-serif" font-size="14" lengthAdjust="spacing" textLength="122" x="42.5" y="293.1426">GetSlaves() []string</text></g><path d="M209,240.5 L209,249.6758 L164.5,287.4141 L209,257.6758 L209,266.8516 A0,0 0 0 0 209,266.8516 L395,266.8516 A0,0 0 0 0 395,266.8516 L395,250.5 L385,240.5 L209,240.5 A0,0 0 0 0 209,240.5 " fill="#FEFFDD" style="stroke:#181818;stroke-width:0.5;"/><path d="M385,240.5 L385,250.5 L395,250.5 L385,240.5 " fill="#FEFFDD" style="stroke:#181818;stroke-width:0.5;"/><text fill="#000000" font-family="sans-serif" font-size="13" lengthAdjust="spacing" textLength="165" x="215" y="258.9951">Get an array of bridge slaves</text><!--MD5=[58987b0398bdf5010f5174b6a6feac3c]
class HostNetworkConfig--><g id="elem_HostNetworkConfig"><rect codeLine="7" fill="#F1F1F1" height="108.8281" id="HostNetworkConfig" rx="2.5" ry="2.5" style="stroke:#181818;stroke-width:0.5;" width="209" x="401.5" y="46"/><ellipse cx="442.6" cy="62" fill="#ADD1B2" rx="11" ry="11" style="stroke:#181818;stroke-width:1.0;"/><path d="M445.3656,57.875 Q445.5219,57.6563 445.7094,57.5469 Q445.8969,57.4375 446.1156,57.4375 Q446.4906,57.4375 446.725,57.7031 Q446.9594,57.9531 446.9594,58.5625 L446.9594,60.0156 Q446.9594,60.625 446.725,60.8906 Q446.4906,61.1563 446.1156,61.1563 Q445.7719,61.1563 445.5688,60.9531 Q445.3656,60.7656 445.2563,60.25 Q445.2094,59.8906 445.0219,59.7031 Q444.6938,59.3281 444.0844,59.1094 Q443.475,58.8906 442.85,58.8906 Q442.0844,58.8906 441.4438,59.2188 Q440.8188,59.5469 440.3188,60.2969 Q439.8344,61.0469 439.8344,62.0781 L439.8344,63.1719 Q439.8344,64.4063 440.725,65.2344 Q441.6156,66.0469 443.2094,66.0469 Q444.1469,66.0469 444.8031,65.7969 Q445.1938,65.6406 445.6156,65.2031 Q445.8813,64.9375 446.0219,64.8594 Q446.1781,64.7813 446.3813,64.7813 Q446.7094,64.7813 446.9594,65.0469 Q447.225,65.2969 447.225,65.6406 Q447.225,65.9844 446.8813,66.3906 Q446.3813,66.9688 445.5844,67.2969 Q444.5063,67.75 443.2094,67.75 Q441.6938,67.75 440.4906,67.125 Q439.5063,66.625 438.8188,65.5625 Q438.1313,64.4844 438.1313,63.2031 L438.1313,62.0469 Q438.1313,60.7188 438.7406,59.5781 Q439.3656,58.4219 440.4594,57.8125 Q441.5531,57.1875 442.7875,57.1875 Q443.5219,57.1875 444.1625,57.3594 Q444.8188,57.5156 445.3656,57.875 Z " fill="#000000"/><text fill="#000000" font-family="sans-serif" font-size="14" lengthAdjust="spacing" textLength="119" x="462.4" y="67.7285">HostNetworkConfig</text><line style="stroke:#181818;stroke-width:0.5;" x1="402.5" x2="609.5" y1="78" y2="78"/><ellipse cx="412.5" cy="89" fill="none" rx="3" ry="3" style="stroke:#038048;stroke-width:1.0;"/><text fill="#000000" font-family="sans-serif" font-size="14" lengthAdjust="spacing" textLength="183" x="421.5" y="96.5332">Devices []HostNetworkDevice</text><line style="stroke:#181818;stroke-width:1.0;" x1="402.5" x2="609.5" y1="103.6094" y2="103.6094"/><ellipse cx="412.5" cy="114.6094" fill="none" rx="3" ry="3" style="stroke:#038048;stroke-width:1.0;"/><text fill="#000000" font-family="sans-serif" font-size="14" lengthAdjust="spacing" textLength="161" x="421.5" y="122.1426">Vlans   []HostNetworkVlan</text><line style="stroke:#181818;stroke-width:1.0;" x1="402.5" x2="609.5" y1="129.2188" y2="129.2188"/><ellipse cx="412.5" cy="140.2188" fill="none" rx="3" ry="3" style="stroke:#038048;stroke-width:1.0;"/><text fill="#000000" font-family="sans-serif" font-size="14" lengthAdjust="spacing" textLength="179" x="421.5" y="147.752">Bridges []HostNetworkBridge</text></g><!--MD5=[c7ae537b1fb1fd62da54845b02126a57]
link HostNetworkLink to IHostNetworkLink--><g id="link_HostNetworkLink_IHostNetworkLink"><path codeLine="21" d="M507,469.42 C507,486.73 507,506.21 507,524.7 " fill="none" id="HostNetworkLink-to-IHostNetworkLink" style="stroke:#181818;stroke-width:1.0;"/><polygon fill="none" points="514,524.97,507,544.97,500,524.97,514,524.97" style="stroke:#181818;stroke-width:1.0;"/></g><!--MD5=[7c0130aaa2dc79170695f96da00ebff9]
link HostNetworkDevice to HostNetworkLink--><g id="link_HostNetworkDevice_HostNetworkLink"><path codeLine="7" d="M507,282.56 C507,299.6 507,323.73 507,346.64 " fill="none" id="HostNetworkDevice-to-HostNetworkLink" style="stroke:#181818;stroke-width:1.0;"/><polygon fill="#181818" points="507,359.93,511,353.93,507,347.93,503,353.93,507,359.93" style="stroke:#181818;stroke-width:1.0;"/></g><!--MD5=[f741d5613818e7c6a8b6721c8e9fb611]
link HostNetworkVlan to HostNetworkLink--><g id="link_HostNetworkVlan_HostNetworkLink"><path codeLine="11" d="M639.97,300.36 C621.6,315.99 600.22,334.19 580.04,351.36 " fill="none" id="HostNetworkVlan-to-HostNetworkLink" style="stroke:#181818;stroke-width:1.0;"/><polygon fill="#181818" points="569.93,359.95,577.0923,359.1122,579.0736,352.1786,571.9113,353.0164,569.93,359.95" style="stroke:#181818;stroke-width:1.0;"/></g><!--MD5=[dba085063a1d972b71adca959eac56ab]
link HostNetworkBridge to HostNetworkLink--><g id="link_HostNetworkBridge_HostNetworkLink"><path codeLine="11" d="M173.58,293.11 C179.77,295.54 185.97,297.87 192,300 C285.97,333.12 315.59,322.75 408,360 C409.93,360.78 411.88,361.59 413.83,362.42 " fill="none" id="HostNetworkBridge-to-HostNetworkLink" style="stroke:#181818;stroke-width:1.0;"/><polygon fill="#181818" points="425.85,367.8,422.008,361.6976,414.8973,362.897,418.7393,368.9994,425.85,367.8" style="stroke:#181818;stroke-width:1.0;"/></g><!--MD5=[22922eb5c98d6328bffadf0fffe1f4a9]
link HostNetworkConfig to HostNetworkDevice--><g id="link_HostNetworkConfig_HostNetworkDevice"><path codeLine="15" d="M612,90.5 C641.56,90.5 622.75,129.88 611,157 C596.98,189.37 567.02,216.48 542.84,234.36 " fill="none" id="HostNetworkConfig-HostNetworkDevice" style="stroke:#181818;stroke-width:1.0;"/></g><!--MD5=[3939eded06239bcaaa875b04c4955c10]
link HostNetworkConfig to HostNetworkVlan--><g id="link_HostNetworkConfig_HostNetworkVlan"><path codeLine="16" d="M612,116.5 C657.88,116.5 676.19,175.07 683.41,216.72 " fill="none" id="HostNetworkConfig-HostNetworkVlan" style="stroke:#181818;stroke-width:1.0;"/></g><!--MD5=[9daca89a698ab2c397b62c91a9aa8944]
link HostNetworkConfig to HostNetworkBridge--><g id="link_HostNetworkConfig_HostNetworkBridge"><path codeLine="17" d="M401,141.5 C314.26,141.5 222.23,183.48 162.66,216.93 " fill="none" id="HostNetworkConfig-HostNetworkBridge" style="stroke:#181818;stroke-width:1.0;"/></g><!--MD5=[b6bb9803a78f712fad65154179cfb9ee]
@startuml

!include HostNetworkDevice.puml
!include HostNetworkVlan.puml
!include HostNetworkBridge.puml

package domain {
    class HostNetworkConfig {
        +Devices []HostNetworkDevice
        - -
        +Vlans   []HostNetworkVlan
        - -
        +Bridges []HostNetworkBridge
    }

    HostNetworkConfig::Devices - - HostNetworkDevice
    HostNetworkConfig::Vlans - - HostNetworkVlan
    HostNetworkConfig::Bridges - - HostNetworkBridge
}

@enduml

@startuml




package app {
    interface IHostNetworkLink {
        +GetName() string
        - -
        +GetType() string
        - -
        +GetAddresses() []net.IPNet
    }

    note left of IHostNetworkLink::GetName
    Gets host interface name
    end note

    note left of IHostNetworkLink::GetType
    Gets host interface type
    end note

    note left of IHostNetworkLink::GetAddresses
    Gets host interface addresses
    end note
}


package domain {
    class HostNetworkLink {
        +Name string
        - -
        +Addresses []net.IPNet
        - -
        +Type string
    }
    note left of HostNetworkLink::Name
    Unique name of the network interface
    end note

    note left of HostNetworkLink::Type
    Default value is "none"
    because HostNetworkLink is a basic class
    end note

    HostNetworkLink - -|> IHostNetworkLink
}


package domain {
    class HostNetworkDevice

    HostNetworkDevice - -* HostNetworkLink
}



package domain {
    class HostNetworkVlan {
        +VlanID int
        - -
        +Parent string
    }

    HostNetworkVlan - -* HostNetworkLink
}



package domain {
    class HostNetworkBridge {
        +Slaves []string
        - -
        +GetSlaves() []string
    }

    HostNetworkBridge - -* HostNetworkLink

    note right of HostNetworkBridge::GetSlaves
        Get an array of bridge slaves
    end note
}




package domain {
    class HostNetworkConfig {
        +Devices []HostNetworkDevice
        - -
        +Vlans   []HostNetworkVlan
        - -
        +Bridges []HostNetworkBridge
    }

    HostNetworkConfig::Devices - - HostNetworkDevice
    HostNetworkConfig::Vlans - - HostNetworkVlan
    HostNetworkConfig::Bridges - - HostNetworkBridge
}

@enduml

PlantUML version 1.2022.6(Tue Jun 21 20:34:49 MSK 2022)
(GPL source distribution)
Java Runtime: OpenJDK Runtime Environment
JVM: OpenJDK 64-Bit Server VM
Default Encoding: Cp1251
Language: ru
Country: RU
--></g></svg>