<?xml version="1.0" encoding="UTF-8" standalone="no"?><svg xmlns="http://www.w3.org/2000/svg" xmlns:xlink="http://www.w3.org/1999/xlink" contentStyleType="text/css" height="502px" preserveAspectRatio="none" style="width:527px;height:502px;background:#FFFFFF;" version="1.1" viewBox="0 0 527 502" width="527px" zoomAndPan="magnify"><defs/><g><!--MD5=[d5ac3844f66b12d9e08170e47495e096]
cluster app--><g id="cluster_app"><path d="M64.5,334 L91.5,334 A3.75,3.75 0 0 1 94,336.5 L101,357.6094 L517.5,357.6094 A2.5,2.5 0 0 1 520,360.1094 L520,492.5 A2.5,2.5 0 0 1 517.5,495 L64.5,495 A2.5,2.5 0 0 1 62,492.5 L62,336.5 A2.5,2.5 0 0 1 64.5,334 " style="stroke:#000000;stroke-width:1.5;fill:none;"/><line style="stroke:#000000;stroke-width:1.5;fill:none;" x1="62" x2="101" y1="357.6094" y2="357.6094"/><text fill="#000000" font-family="sans-serif" font-size="14" font-weight="bold" lengthAdjust="spacing" textLength="26" x="66" y="350.5332">app</text></g><!--MD5=[27f772719433d509ddbc20ff768eba08]
cluster domain--><g id="cluster_domain"><path d="M8.5,6 L60.5,6 A3.75,3.75 0 0 1 63,8.5 L70,29.6094 L500.5,29.6094 A2.5,2.5 0 0 1 503,32.1094 L503,307.5 A2.5,2.5 0 0 1 500.5,310 L8.5,310 A2.5,2.5 0 0 1 6,307.5 L6,8.5 A2.5,2.5 0 0 1 8.5,6 " style="stroke:#000000;stroke-width:1.5;fill:none;"/><line style="stroke:#000000;stroke-width:1.5;fill:none;" x1="6" x2="70" y1="29.6094" y2="29.6094"/><text fill="#000000" font-family="sans-serif" font-size="14" font-weight="bold" lengthAdjust="spacing" textLength="51" x="10" y="22.5332">domain</text></g><!--MD5=[7d972e8a870a7d3102e7596738050350]
class IHostNetworkLink--><g id="elem_IHostNetworkLink"><rect codeLine="3" fill="#F1F1F1" height="108.8281" id="IHostNetworkLink" rx="2.5" ry="2.5" style="stroke:#181818;stroke-width:0.5;" width="195" x="308.5" y="370"/><ellipse cx="346.45" cy="386" fill="#B4A7E5" rx="11" ry="11" style="stroke:#181818;stroke-width:1.0;"/><path d="M347.4031,382.6406 L347.4031,389.2969 L349.1219,389.2969 Q349.7313,389.2969 349.9969,389.5313 Q350.2625,389.7656 350.2625,390.1563 Q350.2625,390.5313 349.9969,390.7656 Q349.7313,391 349.1219,391 L343.9813,391 Q343.3719,391 343.1063,390.7656 Q342.8406,390.5313 342.8406,390.1406 Q342.8406,389.7656 343.1063,389.5313 Q343.3719,389.2969 343.9813,389.2969 L345.7,389.2969 L345.7,382.6406 L343.9813,382.6406 Q343.3719,382.6406 343.1063,382.4063 Q342.8406,382.1719 342.8406,381.7813 Q342.8406,381.4063 343.1063,381.1719 Q343.3719,380.9375 343.9813,380.9375 L349.1219,380.9375 Q349.7313,380.9375 349.9969,381.1719 Q350.2625,381.4063 350.2625,381.7813 Q350.2625,382.1719 349.9969,382.4063 Q349.7313,382.6406 349.1219,382.6406 L347.4031,382.6406 Z " fill="#000000"/><text fill="#000000" font-family="sans-serif" font-size="14" font-style="italic" lengthAdjust="spacing" textLength="112" x="365.55" y="391.7285">IHostNetworkLink</text><line style="stroke:#181818;stroke-width:0.5;" x1="309.5" x2="502.5" y1="402" y2="402"/><ellipse cx="319.5" cy="413" fill="#84BE84" rx="3" ry="3" style="stroke:#038048;stroke-width:1.0;"/><text fill="#000000" font-family="sans-serif" font-size="14" lengthAdjust="spacing" textLength="108" x="328.5" y="420.5332">GetName() string</text><line style="stroke:#181818;stroke-width:1.0;" x1="309.5" x2="502.5" y1="427.6094" y2="427.6094"/><ellipse cx="319.5" cy="438.6094" fill="#84BE84" rx="3" ry="3" style="stroke:#038048;stroke-width:1.0;"/><text fill="#000000" font-family="sans-serif" font-size="14" lengthAdjust="spacing" textLength="104" x="328.5" y="446.1426">GetType() string</text><line style="stroke:#181818;stroke-width:1.0;" x1="309.5" x2="502.5" y1="453.2188" y2="453.2188"/><ellipse cx="319.5" cy="464.2188" fill="#84BE84" rx="3" ry="3" style="stroke:#038048;stroke-width:1.0;"/><text fill="#000000" font-family="sans-serif" font-size="14" lengthAdjust="spacing" textLength="169" x="328.5" y="471.752">GetAddresses() []net.IPNet</text></g><path d="M78.5,370 L78.5,396.3516 A0,0 0 0 0 78.5,396.3516 L245.5,396.3516 A0,0 0 0 0 245.5,396.3516 L245.5,388 L312.5,414.8047 L245.5,380 L245.5,380 L235.5,370 L78.5,370 A0,0 0 0 0 78.5,370 " fill="#FEFFDD" style="stroke:#181818;stroke-width:0.5;"/><path d="M235.5,370 L235.5,380 L245.5,380 L235.5,370 " fill="#FEFFDD" style="stroke:#181818;stroke-width:0.5;"/><text fill="#000000" font-family="sans-serif" font-size="13" lengthAdjust="spacing" textLength="146" x="84.5" y="388.4951">Gets host interface name</text><path d="M78.5,406.3516 L78.5,432.7031 A0,0 0 0 0 78.5,432.7031 L238.5,432.7031 A0,0 0 0 0 238.5,432.7031 L238.5,424.3516 L312.5,440.4141 L238.5,416.3516 L238.5,416.3516 L228.5,406.3516 L78.5,406.3516 A0,0 0 0 0 78.5,406.3516 " fill="#FEFFDD" style="stroke:#181818;stroke-width:0.5;"/><path d="M228.5,406.3516 L228.5,416.3516 L238.5,416.3516 L228.5,406.3516 " fill="#FEFFDD" style="stroke:#181818;stroke-width:0.5;"/><text fill="#000000" font-family="sans-serif" font-size="13" lengthAdjust="spacing" textLength="139" x="84.5" y="424.8467">Gets host interface type</text><path d="M78.5,442.7031 L78.5,469.0547 A0,0 0 0 0 78.5,469.0547 L273.5,469.0547 A0,0 0 0 0 273.5,469.0547 L273.5,460.7031 L312.5,466.0234 L273.5,452.7031 L273.5,452.7031 L263.5,442.7031 L78.5,442.7031 A0,0 0 0 0 78.5,442.7031 " fill="#FEFFDD" style="stroke:#181818;stroke-width:0.5;"/><path d="M263.5,442.7031 L263.5,452.7031 L273.5,452.7031 L263.5,442.7031 " fill="#FEFFDD" style="stroke:#181818;stroke-width:0.5;"/><text fill="#000000" font-family="sans-serif" font-size="13" lengthAdjust="spacing" textLength="174" x="84.5" y="461.1982">Gets host interface addresses</text><!--MD5=[e5fff6262f684687265fbe09f1b48075]
class HostNetworkLink--><g id="elem_HostNetworkLink"><rect codeLine="5" fill="#F1F1F1" height="108.8281" id="HostNetworkLink" rx="2.5" ry="2.5" style="stroke:#181818;stroke-width:0.5;" width="162" x="325" y="185"/><ellipse cx="351.7" cy="201" fill="#ADD1B2" rx="11" ry="11" style="stroke:#181818;stroke-width:1.0;"/><path d="M354.4656,196.875 Q354.6219,196.6563 354.8094,196.5469 Q354.9969,196.4375 355.2156,196.4375 Q355.5906,196.4375 355.825,196.7031 Q356.0594,196.9531 356.0594,197.5625 L356.0594,199.0156 Q356.0594,199.625 355.825,199.8906 Q355.5906,200.1563 355.2156,200.1563 Q354.8719,200.1563 354.6688,199.9531 Q354.4656,199.7656 354.3563,199.25 Q354.3094,198.8906 354.1219,198.7031 Q353.7938,198.3281 353.1844,198.1094 Q352.575,197.8906 351.95,197.8906 Q351.1844,197.8906 350.5438,198.2188 Q349.9188,198.5469 349.4188,199.2969 Q348.9344,200.0469 348.9344,201.0781 L348.9344,202.1719 Q348.9344,203.4063 349.825,204.2344 Q350.7156,205.0469 352.3094,205.0469 Q353.2469,205.0469 353.9031,204.7969 Q354.2938,204.6406 354.7156,204.2031 Q354.9813,203.9375 355.1219,203.8594 Q355.2781,203.7813 355.4813,203.7813 Q355.8094,203.7813 356.0594,204.0469 Q356.325,204.2969 356.325,204.6406 Q356.325,204.9844 355.9813,205.3906 Q355.4813,205.9688 354.6844,206.2969 Q353.6063,206.75 352.3094,206.75 Q350.7938,206.75 349.5906,206.125 Q348.6063,205.625 347.9188,204.5625 Q347.2313,203.4844 347.2313,202.2031 L347.2313,201.0469 Q347.2313,199.7188 347.8406,198.5781 Q348.4656,197.4219 349.5594,196.8125 Q350.6531,196.1875 351.8875,196.1875 Q352.6219,196.1875 353.2625,196.3594 Q353.9188,196.5156 354.4656,196.875 Z " fill="#000000"/><text fill="#000000" font-family="sans-serif" font-size="14" lengthAdjust="spacing" textLength="104" x="368.3" y="206.7285">HostNetworkLink</text><line style="stroke:#181818;stroke-width:0.5;" x1="326" x2="486" y1="217" y2="217"/><ellipse cx="336" cy="228" fill="none" rx="3" ry="3" style="stroke:#038048;stroke-width:1.0;"/><text fill="#000000" font-family="sans-serif" font-size="14" lengthAdjust="spacing" textLength="75" x="345" y="235.5332">Name string</text><line style="stroke:#181818;stroke-width:1.0;" x1="326" x2="486" y1="242.6094" y2="242.6094"/><ellipse cx="336" cy="253.6094" fill="none" rx="3" ry="3" style="stroke:#038048;stroke-width:1.0;"/><text fill="#000000" font-family="sans-serif" font-size="14" lengthAdjust="spacing" textLength="136" x="345" y="261.1426">Addresses []net.IPNet</text><line style="stroke:#181818;stroke-width:1.0;" x1="326" x2="486" y1="268.2188" y2="268.2188"/><ellipse cx="336" cy="279.2188" fill="none" rx="3" ry="3" style="stroke:#038048;stroke-width:1.0;"/><text fill="#000000" font-family="sans-serif" font-size="14" lengthAdjust="spacing" textLength="71" x="345" y="286.752">Type string</text></g><path d="M22.5,195 L22.5,221.3516 A0,0 0 0 0 22.5,221.3516 L257.5,221.3516 A0,0 0 0 0 257.5,221.3516 L257.5,213 L329,229.8047 L257.5,205 L257.5,205 L247.5,195 L22.5,195 A0,0 0 0 0 22.5,195 " fill="#FEFFDD" style="stroke:#181818;stroke-width:0.5;"/><path d="M247.5,195 L247.5,205 L257.5,205 L247.5,195 " fill="#FEFFDD" style="stroke:#181818;stroke-width:0.5;"/><text fill="#000000" font-family="sans-serif" font-size="13" lengthAdjust="spacing" textLength="214" x="28.5" y="213.4951">Unique name of the network interface</text><path d="M22.5,231.3516 L22.5,274.0547 A0,0 0 0 0 22.5,274.0547 L289.5,274.0547 A0,0 0 0 0 289.5,274.0547 L289.5,256.7031 L329,281.0234 L289.5,248.7031 L289.5,241.3516 L279.5,231.3516 L22.5,231.3516 A0,0 0 0 0 22.5,231.3516 " fill="#FEFFDD" style="stroke:#181818;stroke-width:0.5;"/><path d="M279.5,231.3516 L279.5,241.3516 L289.5,241.3516 L279.5,231.3516 " fill="#FEFFDD" style="stroke:#181818;stroke-width:0.5;"/><text fill="#000000" font-family="sans-serif" font-size="13" lengthAdjust="spacing" textLength="129" x="28.5" y="249.8467">Default value is "none"</text><text fill="#000000" font-family="sans-serif" font-size="13" lengthAdjust="spacing" textLength="246" x="28.5" y="266.1982">because HostNetworkLink is a basic class</text><!--MD5=[7708bf2b3811a61fdbad496487474248]
class HostNetworkVlan--><g id="elem_HostNetworkVlan"><rect codeLine="5" fill="#F1F1F1" height="83.2188" id="HostNetworkVlan" rx="2.5" ry="2.5" style="stroke:#181818;stroke-width:0.5;" width="138" x="337" y="42"/><ellipse cx="352" cy="58" fill="#ADD1B2" rx="11" ry="11" style="stroke:#181818;stroke-width:1.0;"/><path d="M354.7656,53.875 Q354.9219,53.6563 355.1094,53.5469 Q355.2969,53.4375 355.5156,53.4375 Q355.8906,53.4375 356.125,53.7031 Q356.3594,53.9531 356.3594,54.5625 L356.3594,56.0156 Q356.3594,56.625 356.125,56.8906 Q355.8906,57.1563 355.5156,57.1563 Q355.1719,57.1563 354.9688,56.9531 Q354.7656,56.7656 354.6563,56.25 Q354.6094,55.8906 354.4219,55.7031 Q354.0938,55.3281 353.4844,55.1094 Q352.875,54.8906 352.25,54.8906 Q351.4844,54.8906 350.8438,55.2188 Q350.2188,55.5469 349.7188,56.2969 Q349.2344,57.0469 349.2344,58.0781 L349.2344,59.1719 Q349.2344,60.4063 350.125,61.2344 Q351.0156,62.0469 352.6094,62.0469 Q353.5469,62.0469 354.2031,61.7969 Q354.5938,61.6406 355.0156,61.2031 Q355.2813,60.9375 355.4219,60.8594 Q355.5781,60.7813 355.7813,60.7813 Q356.1094,60.7813 356.3594,61.0469 Q356.625,61.2969 356.625,61.6406 Q356.625,61.9844 356.2813,62.3906 Q355.7813,62.9688 354.9844,63.2969 Q353.9063,63.75 352.6094,63.75 Q351.0938,63.75 349.8906,63.125 Q348.9063,62.625 348.2188,61.5625 Q347.5313,60.4844 347.5313,59.2031 L347.5313,58.0469 Q347.5313,56.7188 348.1406,55.5781 Q348.7656,54.4219 349.8594,53.8125 Q350.9531,53.1875 352.1875,53.1875 Q352.9219,53.1875 353.5625,53.3594 Q354.2188,53.5156 354.7656,53.875 Z " fill="#000000"/><text fill="#000000" font-family="sans-serif" font-size="14" lengthAdjust="spacing" textLength="106" x="366" y="63.7285">HostNetworkVlan</text><line style="stroke:#181818;stroke-width:0.5;" x1="338" x2="474" y1="74" y2="74"/><ellipse cx="348" cy="85" fill="none" rx="3" ry="3" style="stroke:#038048;stroke-width:1.0;"/><text fill="#000000" font-family="sans-serif" font-size="14" lengthAdjust="spacing" textLength="60" x="357" y="92.5332">VlanID int</text><line style="stroke:#181818;stroke-width:1.0;" x1="338" x2="474" y1="99.6094" y2="99.6094"/><ellipse cx="348" cy="110.6094" fill="none" rx="3" ry="3" style="stroke:#038048;stroke-width:1.0;"/><text fill="#000000" font-family="sans-serif" font-size="14" lengthAdjust="spacing" textLength="81" x="357" y="118.1426">Parent string</text></g><!--MD5=[c7ae537b1fb1fd62da54845b02126a57]
link HostNetworkLink to IHostNetworkLink--><g id="link_HostNetworkLink_IHostNetworkLink"><path codeLine="21" d="M406,294.42 C406,311.73 406,331.21 406,349.7 " fill="none" id="HostNetworkLink-to-IHostNetworkLink" style="stroke:#181818;stroke-width:1.0;"/><polygon fill="none" points="413,349.97,406,369.97,399,349.97,413,349.97" style="stroke:#181818;stroke-width:1.0;"/></g><!--MD5=[f741d5613818e7c6a8b6721c8e9fb611]
link HostNetworkVlan to HostNetworkLink--><g id="link_HostNetworkVlan_HostNetworkLink"><path codeLine="11" d="M406,125.36 C406,139.64 406,156.05 406,171.87 " fill="none" id="HostNetworkVlan-to-HostNetworkLink" style="stroke:#181818;stroke-width:1.0;"/><polygon fill="#181818" points="406,184.95,410,178.95,406,172.95,402,178.95,406,184.95" style="stroke:#181818;stroke-width:1.0;"/></g><!--MD5=[f3786c637c1fe475bf5fa906b0b2b35b]
@startuml

!include HostNetworkLink.puml

package domain {
    class HostNetworkVlan {
        +VlanID int
        - -
        +Parent string
    }

    HostNetworkVlan - -* HostNetworkLink
}

@enduml

@startuml



package app {
    interface IHostNetworkLink {
        +GetName() string
        - -
        +GetType() string
        - -
        +GetAddresses() []net.IPNet
    }

    note left of IHostNetworkLink::GetName
    Gets host interface name
    end note

    note left of IHostNetworkLink::GetType
    Gets host interface type
    end note

    note left of IHostNetworkLink::GetAddresses
    Gets host interface addresses
    end note
}


package domain {
    class HostNetworkLink {
        +Name string
        - -
        +Addresses []net.IPNet
        - -
        +Type string
    }
    note left of HostNetworkLink::Name
    Unique name of the network interface
    end note

    note left of HostNetworkLink::Type
    Default value is "none"
    because HostNetworkLink is a basic class
    end note

    HostNetworkLink - -|> IHostNetworkLink
}


package domain {
    class HostNetworkVlan {
        +VlanID int
        - -
        +Parent string
    }

    HostNetworkVlan - -* HostNetworkLink
}

@enduml

PlantUML version 1.2022.6(Tue Jun 21 20:34:49 MSK 2022)
(GPL source distribution)
Java Runtime: OpenJDK Runtime Environment
JVM: OpenJDK 64-Bit Server VM
Default Encoding: Cp1251
Language: ru
Country: RU
--></g></svg>