<?xml version="1.0" encoding="UTF-8" standalone="no"?><svg xmlns="http://www.w3.org/2000/svg" xmlns:xlink="http://www.w3.org/1999/xlink" contentStyleType="text/css" height="359px" preserveAspectRatio="none" style="width:527px;height:359px;background:#FFFFFF;" version="1.1" viewBox="0 0 527 359" width="527px" zoomAndPan="magnify"><defs/><g><!--MD5=[d5ac3844f66b12d9e08170e47495e096]
cluster app--><g id="cluster_app"><path d="M64.5,191 L91.5,191 A3.75,3.75 0 0 1 94,193.5 L101,214.6094 L517.5,214.6094 A2.5,2.5 0 0 1 520,217.1094 L520,349.5 A2.5,2.5 0 0 1 517.5,352 L64.5,352 A2.5,2.5 0 0 1 62,349.5 L62,193.5 A2.5,2.5 0 0 1 64.5,191 " style="stroke:#000000;stroke-width:1.5;fill:none;"/><line style="stroke:#000000;stroke-width:1.5;fill:none;" x1="62" x2="101" y1="214.6094" y2="214.6094"/><text fill="#000000" font-family="sans-serif" font-size="14" font-weight="bold" lengthAdjust="spacing" textLength="26" x="66" y="207.5332">app</text></g><!--MD5=[27f772719433d509ddbc20ff768eba08]
cluster domain--><g id="cluster_domain"><path d="M8.5,6 L60.5,6 A3.75,3.75 0 0 1 63,8.5 L70,29.6094 L500.5,29.6094 A2.5,2.5 0 0 1 503,32.1094 L503,164.5 A2.5,2.5 0 0 1 500.5,167 L8.5,167 A2.5,2.5 0 0 1 6,164.5 L6,8.5 A2.5,2.5 0 0 1 8.5,6 " style="stroke:#000000;stroke-width:1.5;fill:none;"/><line style="stroke:#000000;stroke-width:1.5;fill:none;" x1="6" x2="70" y1="29.6094" y2="29.6094"/><text fill="#000000" font-family="sans-serif" font-size="14" font-weight="bold" lengthAdjust="spacing" textLength="51" x="10" y="22.5332">domain</text></g><!--MD5=[7d972e8a870a7d3102e7596738050350]
class IHostNetworkLink--><g id="elem_IHostNetworkLink"><rect codeLine="3" fill="#F1F1F1" height="108.8281" id="IHostNetworkLink" rx="2.5" ry="2.5" style="stroke:#181818;stroke-width:0.5;" width="195" x="308.5" y="227"/><ellipse cx="346.45" cy="243" fill="#B4A7E5" rx="11" ry="11" style="stroke:#181818;stroke-width:1.0;"/><path d="M347.4031,239.6406 L347.4031,246.2969 L349.1219,246.2969 Q349.7313,246.2969 349.9969,246.5313 Q350.2625,246.7656 350.2625,247.1563 Q350.2625,247.5313 349.9969,247.7656 Q349.7313,248 349.1219,248 L343.9813,248 Q343.3719,248 343.1063,247.7656 Q342.8406,247.5313 342.8406,247.1406 Q342.8406,246.7656 343.1063,246.5313 Q343.3719,246.2969 343.9813,246.2969 L345.7,246.2969 L345.7,239.6406 L343.9813,239.6406 Q343.3719,239.6406 343.1063,239.4063 Q342.8406,239.1719 342.8406,238.7813 Q342.8406,238.4063 343.1063,238.1719 Q343.3719,237.9375 343.9813,237.9375 L349.1219,237.9375 Q349.7313,237.9375 349.9969,238.1719 Q350.2625,238.4063 350.2625,238.7813 Q350.2625,239.1719 349.9969,239.4063 Q349.7313,239.6406 349.1219,239.6406 L347.4031,239.6406 Z " fill="#000000"/><text fill="#000000" font-family="sans-serif" font-size="14" font-style="italic" lengthAdjust="spacing" textLength="112" x="365.55" y="248.7285">IHostNetworkLink</text><line style="stroke:#181818;stroke-width:0.5;" x1="309.5" x2="502.5" y1="259" y2="259"/><ellipse cx="319.5" cy="270" fill="#84BE84" rx="3" ry="3" style="stroke:#038048;stroke-width:1.0;"/><text fill="#000000" font-family="sans-serif" font-size="14" lengthAdjust="spacing" textLength="108" x="328.5" y="277.5332">GetName() string</text><line style="stroke:#181818;stroke-width:1.0;" x1="309.5" x2="502.5" y1="284.6094" y2="284.6094"/><ellipse cx="319.5" cy="295.6094" fill="#84BE84" rx="3" ry="3" style="stroke:#038048;stroke-width:1.0;"/><text fill="#000000" font-family="sans-serif" font-size="14" lengthAdjust="spacing" textLength="104" x="328.5" y="303.1426">GetType() string</text><line style="stroke:#181818;stroke-width:1.0;" x1="309.5" x2="502.5" y1="310.2188" y2="310.2188"/><ellipse cx="319.5" cy="321.2188" fill="#84BE84" rx="3" ry="3" style="stroke:#038048;stroke-width:1.0;"/><text fill="#000000" font-family="sans-serif" font-size="14" lengthAdjust="spacing" textLength="169" x="328.5" y="328.752">GetAddresses() []net.IPNet</text></g><path d="M78.5,227 L78.5,253.3516 A0,0 0 0 0 78.5,253.3516 L245.5,253.3516 A0,0 0 0 0 245.5,253.3516 L245.5,245 L312.5,271.8047 L245.5,237 L245.5,237 L235.5,227 L78.5,227 A0,0 0 0 0 78.5,227 " fill="#FEFFDD" style="stroke:#181818;stroke-width:0.5;"/><path d="M235.5,227 L235.5,237 L245.5,237 L235.5,227 " fill="#FEFFDD" style="stroke:#181818;stroke-width:0.5;"/><text fill="#000000" font-family="sans-serif" font-size="13" lengthAdjust="spacing" textLength="146" x="84.5" y="245.4951">Gets host interface name</text><path d="M78.5,263.3516 L78.5,289.7031 A0,0 0 0 0 78.5,289.7031 L238.5,289.7031 A0,0 0 0 0 238.5,289.7031 L238.5,281.3516 L312.5,297.4141 L238.5,273.3516 L238.5,273.3516 L228.5,263.3516 L78.5,263.3516 A0,0 0 0 0 78.5,263.3516 " fill="#FEFFDD" style="stroke:#181818;stroke-width:0.5;"/><path d="M228.5,263.3516 L228.5,273.3516 L238.5,273.3516 L228.5,263.3516 " fill="#FEFFDD" style="stroke:#181818;stroke-width:0.5;"/><text fill="#000000" font-family="sans-serif" font-size="13" lengthAdjust="spacing" textLength="139" x="84.5" y="281.8467">Gets host interface type</text><path d="M78.5,299.7031 L78.5,326.0547 A0,0 0 0 0 78.5,326.0547 L273.5,326.0547 A0,0 0 0 0 273.5,326.0547 L273.5,317.7031 L312.5,323.0234 L273.5,309.7031 L273.5,309.7031 L263.5,299.7031 L78.5,299.7031 A0,0 0 0 0 78.5,299.7031 " fill="#FEFFDD" style="stroke:#181818;stroke-width:0.5;"/><path d="M263.5,299.7031 L263.5,309.7031 L273.5,309.7031 L263.5,299.7031 " fill="#FEFFDD" style="stroke:#181818;stroke-width:0.5;"/><text fill="#000000" font-family="sans-serif" font-size="13" lengthAdjust="spacing" textLength="174" x="84.5" y="318.1982">Gets host interface addresses</text><!--MD5=[e5fff6262f684687265fbe09f1b48075]
class HostNetworkLink--><g id="elem_HostNetworkLink"><rect codeLine="5" fill="#F1F1F1" height="108.8281" id="HostNetworkLink" rx="2.5" ry="2.5" style="stroke:#181818;stroke-width:0.5;" width="162" x="325" y="42"/><ellipse cx="351.7" cy="58" fill="#ADD1B2" rx="11" ry="11" style="stroke:#181818;stroke-width:1.0;"/><path d="M354.4656,53.875 Q354.6219,53.6563 354.8094,53.5469 Q354.9969,53.4375 355.2156,53.4375 Q355.5906,53.4375 355.825,53.7031 Q356.0594,53.9531 356.0594,54.5625 L356.0594,56.0156 Q356.0594,56.625 355.825,56.8906 Q355.5906,57.1563 355.2156,57.1563 Q354.8719,57.1563 354.6688,56.9531 Q354.4656,56.7656 354.3563,56.25 Q354.3094,55.8906 354.1219,55.7031 Q353.7938,55.3281 353.1844,55.1094 Q352.575,54.8906 351.95,54.8906 Q351.1844,54.8906 350.5438,55.2188 Q349.9188,55.5469 349.4188,56.2969 Q348.9344,57.0469 348.9344,58.0781 L348.9344,59.1719 Q348.9344,60.4063 349.825,61.2344 Q350.7156,62.0469 352.3094,62.0469 Q353.2469,62.0469 353.9031,61.7969 Q354.2938,61.6406 354.7156,61.2031 Q354.9813,60.9375 355.1219,60.8594 Q355.2781,60.7813 355.4813,60.7813 Q355.8094,60.7813 356.0594,61.0469 Q356.325,61.2969 356.325,61.6406 Q356.325,61.9844 355.9813,62.3906 Q355.4813,62.9688 354.6844,63.2969 Q353.6063,63.75 352.3094,63.75 Q350.7938,63.75 349.5906,63.125 Q348.6063,62.625 347.9188,61.5625 Q347.2313,60.4844 347.2313,59.2031 L347.2313,58.0469 Q347.2313,56.7188 347.8406,55.5781 Q348.4656,54.4219 349.5594,53.8125 Q350.6531,53.1875 351.8875,53.1875 Q352.6219,53.1875 353.2625,53.3594 Q353.9188,53.5156 354.4656,53.875 Z " fill="#000000"/><text fill="#000000" font-family="sans-serif" font-size="14" lengthAdjust="spacing" textLength="104" x="368.3" y="63.7285">HostNetworkLink</text><line style="stroke:#181818;stroke-width:0.5;" x1="326" x2="486" y1="74" y2="74"/><ellipse cx="336" cy="85" fill="none" rx="3" ry="3" style="stroke:#038048;stroke-width:1.0;"/><text fill="#000000" font-family="sans-serif" font-size="14" lengthAdjust="spacing" textLength="75" x="345" y="92.5332">Name string</text><line style="stroke:#181818;stroke-width:1.0;" x1="326" x2="486" y1="99.6094" y2="99.6094"/><ellipse cx="336" cy="110.6094" fill="none" rx="3" ry="3" style="stroke:#038048;stroke-width:1.0;"/><text fill="#000000" font-family="sans-serif" font-size="14" lengthAdjust="spacing" textLength="136" x="345" y="118.1426">Addresses []net.IPNet</text><line style="stroke:#181818;stroke-width:1.0;" x1="326" x2="486" y1="125.2188" y2="125.2188"/><ellipse cx="336" cy="136.2188" fill="none" rx="3" ry="3" style="stroke:#038048;stroke-width:1.0;"/><text fill="#000000" font-family="sans-serif" font-size="14" lengthAdjust="spacing" textLength="71" x="345" y="143.752">Type string</text></g><path d="M22.5,52 L22.5,78.3516 A0,0 0 0 0 22.5,78.3516 L257.5,78.3516 A0,0 0 0 0 257.5,78.3516 L257.5,70 L329,86.8047 L257.5,62 L257.5,62 L247.5,52 L22.5,52 A0,0 0 0 0 22.5,52 " fill="#FEFFDD" style="stroke:#181818;stroke-width:0.5;"/><path d="M247.5,52 L247.5,62 L257.5,62 L247.5,52 " fill="#FEFFDD" style="stroke:#181818;stroke-width:0.5;"/><text fill="#000000" font-family="sans-serif" font-size="13" lengthAdjust="spacing" textLength="214" x="28.5" y="70.4951">Unique name of the network interface</text><path d="M22.5,88.3516 L22.5,131.0547 A0,0 0 0 0 22.5,131.0547 L289.5,131.0547 A0,0 0 0 0 289.5,131.0547 L289.5,113.7031 L329,138.0234 L289.5,105.7031 L289.5,98.3516 L279.5,88.3516 L22.5,88.3516 A0,0 0 0 0 22.5,88.3516 " fill="#FEFFDD" style="stroke:#181818;stroke-width:0.5;"/><path d="M279.5,88.3516 L279.5,98.3516 L289.5,98.3516 L279.5,88.3516 " fill="#FEFFDD" style="stroke:#181818;stroke-width:0.5;"/><text fill="#000000" font-family="sans-serif" font-size="13" lengthAdjust="spacing" textLength="129" x="28.5" y="106.8467">Default value is "none"</text><text fill="#000000" font-family="sans-serif" font-size="13" lengthAdjust="spacing" textLength="246" x="28.5" y="123.1982">because HostNetworkLink is a basic class</text><!--MD5=[c7ae537b1fb1fd62da54845b02126a57]
link HostNetworkLink to IHostNetworkLink--><g id="link_HostNetworkLink_IHostNetworkLink"><path codeLine="21" d="M406,151.42 C406,168.73 406,188.21 406,206.7 " fill="none" id="HostNetworkLink-to-IHostNetworkLink" style="stroke:#181818;stroke-width:1.0;"/><polygon fill="none" points="413,206.97,406,226.97,399,206.97,413,206.97" style="stroke:#181818;stroke-width:1.0;"/></g><!--MD5=[9fa6e4e0909a24bd66395479a055b67e]
@startuml

!include ../interfaces/IHostNetworkLink.puml

package domain {
    class HostNetworkLink {
        +Name string
        - -
        +Addresses []net.IPNet
        - -
        +Type string
    }
    note left of HostNetworkLink::Name
    Unique name of the network interface
    end note

    note left of HostNetworkLink::Type
    Default value is "none"
    because HostNetworkLink is a basic class
    end note

    HostNetworkLink - -|> IHostNetworkLink
}

@enduml

@startuml


package app {
    interface IHostNetworkLink {
        +GetName() string
        - -
        +GetType() string
        - -
        +GetAddresses() []net.IPNet
    }

    note left of IHostNetworkLink::GetName
    Gets host interface name
    end note

    note left of IHostNetworkLink::GetType
    Gets host interface type
    end note

    note left of IHostNetworkLink::GetAddresses
    Gets host interface addresses
    end note
}


package domain {
    class HostNetworkLink {
        +Name string
        - -
        +Addresses []net.IPNet
        - -
        +Type string
    }
    note left of HostNetworkLink::Name
    Unique name of the network interface
    end note

    note left of HostNetworkLink::Type
    Default value is "none"
    because HostNetworkLink is a basic class
    end note

    HostNetworkLink - -|> IHostNetworkLink
}

@enduml

PlantUML version 1.2022.6(Tue Jun 21 20:34:49 MSK 2022)
(GPL source distribution)
Java Runtime: OpenJDK Runtime Environment
JVM: OpenJDK 64-Bit Server VM
Default Encoding: Cp1251
Language: ru
Country: RU
--></g></svg>