<?xml version="1.0" encoding="UTF-8" standalone="no"?><svg xmlns="http://www.w3.org/2000/svg" xmlns:xlink="http://www.w3.org/1999/xlink" contentStyleType="text/css" height="638px" preserveAspectRatio="none" style="width:390px;height:638px;background:#FFFFFF;" version="1.1" viewBox="0 0 390 638" width="390px" zoomAndPan="magnify"><defs/><g><!--MD5=[d5ac3844f66b12d9e08170e47495e096]
cluster app--><g id="cluster_app"><path d="M8.5,410 L35.5,410 A3.75,3.75 0 0 1 38,412.5 L45,433.6094 L380.5,433.6094 A2.5,2.5 0 0 1 383,436.1094 L383,628.5 A2.5,2.5 0 0 1 380.5,631 L8.5,631 A2.5,2.5 0 0 1 6,628.5 L6,412.5 A2.5,2.5 0 0 1 8.5,410 " style="stroke:#000000;stroke-width:1.5;fill:none;"/><line style="stroke:#000000;stroke-width:1.5;fill:none;" x1="6" x2="45" y1="433.6094" y2="433.6094"/><text fill="#000000" font-family="sans-serif" font-size="14" font-weight="bold" lengthAdjust="spacing" textLength="26" x="10" y="426.5332">app</text></g><!--MD5=[27f772719433d509ddbc20ff768eba08]
cluster domain--><g id="cluster_domain"><path d="M46.5,6 L98.5,6 A3.75,3.75 0 0 1 101,8.5 L108,29.6094 L323.5,29.6094 A2.5,2.5 0 0 1 326,32.1094 L326,383.5 A2.5,2.5 0 0 1 323.5,386 L46.5,386 A2.5,2.5 0 0 1 44,383.5 L44,8.5 A2.5,2.5 0 0 1 46.5,6 " style="stroke:#000000;stroke-width:1.5;fill:none;"/><line style="stroke:#000000;stroke-width:1.5;fill:none;" x1="44" x2="108" y1="29.6094" y2="29.6094"/><text fill="#000000" font-family="sans-serif" font-size="14" font-weight="bold" lengthAdjust="spacing" textLength="51" x="48" y="22.5332">domain</text></g><!--MD5=[2a39a5be1cc24ddddd6e6286e4ece992]
class IEntityModel--><g id="elem_IEntityModel"><rect codeLine="3" fill="#F1F1F1" height="65.6094" id="IEntityModel" rx="2.5" ry="2.5" style="stroke:#181818;stroke-width:0.5;" width="138" x="229" y="446"/><ellipse cx="256.6" cy="462" fill="#B4A7E5" rx="11" ry="11" style="stroke:#181818;stroke-width:1.0;"/><path d="M257.5531,458.6406 L257.5531,465.2969 L259.2719,465.2969 Q259.8813,465.2969 260.1469,465.5313 Q260.4125,465.7656 260.4125,466.1563 Q260.4125,466.5313 260.1469,466.7656 Q259.8813,467 259.2719,467 L254.1313,467 Q253.5219,467 253.2563,466.7656 Q252.9906,466.5313 252.9906,466.1406 Q252.9906,465.7656 253.2563,465.5313 Q253.5219,465.2969 254.1313,465.2969 L255.85,465.2969 L255.85,458.6406 L254.1313,458.6406 Q253.5219,458.6406 253.2563,458.4063 Q252.9906,458.1719 252.9906,457.7813 Q252.9906,457.4063 253.2563,457.1719 Q253.5219,456.9375 254.1313,456.9375 L259.2719,456.9375 Q259.8813,456.9375 260.1469,457.1719 Q260.4125,457.4063 260.4125,457.7813 Q260.4125,458.1719 260.1469,458.4063 Q259.8813,458.6406 259.2719,458.6406 L257.5531,458.6406 Z " fill="#000000"/><text fill="#000000" font-family="sans-serif" font-size="14" font-style="italic" lengthAdjust="spacing" textLength="78" x="273.4" y="467.7285">IEntityModel</text><line style="stroke:#181818;stroke-width:0.5;" x1="230" x2="366" y1="478" y2="478"/><line style="stroke:#181818;stroke-width:0.5;" x1="230" x2="366" y1="486" y2="486"/><ellipse cx="240" cy="497" fill="#84BE84" rx="3" ry="3" style="stroke:#038048;stroke-width:1.0;"/><text fill="#000000" font-family="sans-serif" font-size="14" lengthAdjust="spacing" textLength="112" x="249" y="504.5332">GetID() uuid.UUID</text></g><!--MD5=[01906ac0e62f22b4e38e996248db568e]
class IEntityModelDeletedAt--><g id="elem_IEntityModelDeletedAt"><rect codeLine="3" fill="#F1F1F1" height="65.6094" id="IEntityModelDeletedAt" rx="2.5" ry="2.5" style="stroke:#181818;stroke-width:0.5;" width="172" x="22" y="446"/><ellipse cx="37" cy="462" fill="#B4A7E5" rx="11" ry="11" style="stroke:#181818;stroke-width:1.0;"/><path d="M37.9531,458.6406 L37.9531,465.2969 L39.6719,465.2969 Q40.2813,465.2969 40.5469,465.5313 Q40.8125,465.7656 40.8125,466.1563 Q40.8125,466.5313 40.5469,466.7656 Q40.2813,467 39.6719,467 L34.5313,467 Q33.9219,467 33.6563,466.7656 Q33.3906,466.5313 33.3906,466.1406 Q33.3906,465.7656 33.6563,465.5313 Q33.9219,465.2969 34.5313,465.2969 L36.25,465.2969 L36.25,458.6406 L34.5313,458.6406 Q33.9219,458.6406 33.6563,458.4063 Q33.3906,458.1719 33.3906,457.7813 Q33.3906,457.4063 33.6563,457.1719 Q33.9219,456.9375 34.5313,456.9375 L39.6719,456.9375 Q40.2813,456.9375 40.5469,457.1719 Q40.8125,457.4063 40.8125,457.7813 Q40.8125,458.1719 40.5469,458.4063 Q40.2813,458.6406 39.6719,458.6406 L37.9531,458.6406 Z " fill="#000000"/><text fill="#000000" font-family="sans-serif" font-size="14" font-style="italic" lengthAdjust="spacing" textLength="140" x="51" y="467.7285">IEntityModelDeletedAt</text><line style="stroke:#181818;stroke-width:0.5;" x1="23" x2="193" y1="478" y2="478"/><line style="stroke:#181818;stroke-width:0.5;" x1="23" x2="193" y1="486" y2="486"/><ellipse cx="33" cy="497" fill="#84BE84" rx="3" ry="3" style="stroke:#038048;stroke-width:1.0;"/><text fill="#000000" font-family="sans-serif" font-size="14" lengthAdjust="spacing" textLength="80" x="42" y="504.5332">SetDeleted()</text></g><g id="elem_GMN325"><path d="M22.5,572 L22.5,614.7031 A0,0 0 0 0 22.5,614.7031 L341.5,614.7031 A0,0 0 0 0 341.5,614.7031 L341.5,582 L331.5,572 L172.49,572 L129.21,512.24 L164.49,572 L22.5,572 A0,0 0 0 0 22.5,572 " fill="#FEFFDD" style="stroke:#181818;stroke-width:0.5;"/><path d="M331.5,572 L331.5,582 L341.5,582 L331.5,572 " fill="#FEFFDD" style="stroke:#181818;stroke-width:0.5;"/><text fill="#000000" font-family="sans-serif" font-size="13" lengthAdjust="spacing" textLength="98" x="28.5" y="590.4951">Set deletion time</text><text fill="#000000" font-family="sans-serif" font-size="13" lengthAdjust="spacing" textLength="298" x="28.5" y="606.8467">This method marks that the entity has been deleted</text></g><!--MD5=[be996cdb8e6bf2fc7cb89c555f2cd144]
class Entity--><g id="elem_Entity"><rect codeLine="6" fill="#F1F1F1" height="134.4375" id="Entity" rx="2.5" ry="2.5" style="stroke:#181818;stroke-width:0.5;" width="250" x="60" y="236"/><ellipse cx="163.25" cy="252" fill="#ADD1B2" rx="11" ry="11" style="stroke:#181818;stroke-width:1.0;"/><path d="M166.0156,247.875 Q166.1719,247.6563 166.3594,247.5469 Q166.5469,247.4375 166.7656,247.4375 Q167.1406,247.4375 167.375,247.7031 Q167.6094,247.9531 167.6094,248.5625 L167.6094,250.0156 Q167.6094,250.625 167.375,250.8906 Q167.1406,251.1563 166.7656,251.1563 Q166.4219,251.1563 166.2188,250.9531 Q166.0156,250.7656 165.9063,250.25 Q165.8594,249.8906 165.6719,249.7031 Q165.3438,249.3281 164.7344,249.1094 Q164.125,248.8906 163.5,248.8906 Q162.7344,248.8906 162.0938,249.2188 Q161.4688,249.5469 160.9688,250.2969 Q160.4844,251.0469 160.4844,252.0781 L160.4844,253.1719 Q160.4844,254.4063 161.375,255.2344 Q162.2656,256.0469 163.8594,256.0469 Q164.7969,256.0469 165.4531,255.7969 Q165.8438,255.6406 166.2656,255.2031 Q166.5313,254.9375 166.6719,254.8594 Q166.8281,254.7813 167.0313,254.7813 Q167.3594,254.7813 167.6094,255.0469 Q167.875,255.2969 167.875,255.6406 Q167.875,255.9844 167.5313,256.3906 Q167.0313,256.9688 166.2344,257.2969 Q165.1563,257.75 163.8594,257.75 Q162.3438,257.75 161.1406,257.125 Q160.1563,256.625 159.4688,255.5625 Q158.7813,254.4844 158.7813,253.2031 L158.7813,252.0469 Q158.7813,250.7188 159.3906,249.5781 Q160.0156,248.4219 161.1094,247.8125 Q162.2031,247.1875 163.4375,247.1875 Q164.1719,247.1875 164.8125,247.3594 Q165.4688,247.5156 166.0156,247.875 Z " fill="#000000"/><text fill="#000000" font-family="sans-serif" font-size="14" lengthAdjust="spacing" textLength="35" x="183.75" y="257.7285">Entity</text><line style="stroke:#181818;stroke-width:0.5;" x1="61" x2="309" y1="268" y2="268"/><ellipse cx="71" cy="279" fill="none" rx="3" ry="3" style="stroke:#038048;stroke-width:1.0;"/><text fill="#000000" font-family="sans-serif" font-size="14" lengthAdjust="spacing" textLength="208" x="80" y="286.5332">ID uuid.UUID `gorm:"primarykey"`</text><line style="stroke:#181818;stroke-width:1.0;" x1="61" x2="309" y1="293.6094" y2="293.6094"/><ellipse cx="71" cy="304.6094" fill="none" rx="3" ry="3" style="stroke:#038048;stroke-width:1.0;"/><text fill="#000000" font-family="sans-serif" font-size="14" lengthAdjust="spacing" textLength="222" x="80" y="312.1426">CreatedAt time.Time `gorm:"index"`</text><line style="stroke:#181818;stroke-width:1.0;" x1="61" x2="309" y1="319.2188" y2="319.2188"/><ellipse cx="71" cy="330.2188" fill="none" rx="3" ry="3" style="stroke:#038048;stroke-width:1.0;"/><text fill="#000000" font-family="sans-serif" font-size="14" lengthAdjust="spacing" textLength="224" x="80" y="337.752">UpdatedAt time.Time `gorm:"index"`</text><line style="stroke:#181818;stroke-width:1.0;" x1="61" x2="309" y1="344.8281" y2="344.8281"/><ellipse cx="71" cy="355.8281" fill="none" rx="3" ry="3" style="stroke:#038048;stroke-width:1.0;"/><text fill="#000000" font-family="sans-serif" font-size="14" lengthAdjust="spacing" textLength="220" x="80" y="363.3613">DeletedAt time.Time `gorm:"index"`</text></g><!--MD5=[063d74e43144aaa0d0cf3aecd3794497]
class Log--><g id="elem_Log"><rect codeLine="5" fill="#F1F1F1" height="134.4375" id="Log" rx="2.5" ry="2.5" style="stroke:#181818;stroke-width:0.5;" width="237" x="66.5" y="42"/><ellipse cx="168.75" cy="58" fill="#ADD1B2" rx="11" ry="11" style="stroke:#181818;stroke-width:1.0;"/><path d="M171.5156,53.875 Q171.6719,53.6563 171.8594,53.5469 Q172.0469,53.4375 172.2656,53.4375 Q172.6406,53.4375 172.875,53.7031 Q173.1094,53.9531 173.1094,54.5625 L173.1094,56.0156 Q173.1094,56.625 172.875,56.8906 Q172.6406,57.1563 172.2656,57.1563 Q171.9219,57.1563 171.7188,56.9531 Q171.5156,56.7656 171.4063,56.25 Q171.3594,55.8906 171.1719,55.7031 Q170.8438,55.3281 170.2344,55.1094 Q169.625,54.8906 169,54.8906 Q168.2344,54.8906 167.5938,55.2188 Q166.9688,55.5469 166.4688,56.2969 Q165.9844,57.0469 165.9844,58.0781 L165.9844,59.1719 Q165.9844,60.4063 166.875,61.2344 Q167.7656,62.0469 169.3594,62.0469 Q170.2969,62.0469 170.9531,61.7969 Q171.3438,61.6406 171.7656,61.2031 Q172.0313,60.9375 172.1719,60.8594 Q172.3281,60.7813 172.5313,60.7813 Q172.8594,60.7813 173.1094,61.0469 Q173.375,61.2969 173.375,61.6406 Q173.375,61.9844 173.0313,62.3906 Q172.5313,62.9688 171.7344,63.2969 Q170.6563,63.75 169.3594,63.75 Q167.8438,63.75 166.6406,63.125 Q165.6563,62.625 164.9688,61.5625 Q164.2813,60.4844 164.2813,59.2031 L164.2813,58.0469 Q164.2813,56.7188 164.8906,55.5781 Q165.5156,54.4219 166.6094,53.8125 Q167.7031,53.1875 168.9375,53.1875 Q169.6719,53.1875 170.3125,53.3594 Q170.9688,53.5156 171.5156,53.875 Z " fill="#000000"/><text fill="#000000" font-family="sans-serif" font-size="14" lengthAdjust="spacing" textLength="24" x="189.25" y="63.7285">Log</text><line style="stroke:#181818;stroke-width:0.5;" x1="67.5" x2="302.5" y1="74" y2="74"/><ellipse cx="77.5" cy="85" fill="none" rx="3" ry="3" style="stroke:#038048;stroke-width:1.0;"/><text fill="#000000" font-family="sans-serif" font-size="14" lengthAdjust="spacing" textLength="211" x="86.5" y="92.5332">ActionID uuid.UUID `gorm:"index"`</text><line style="stroke:#181818;stroke-width:1.0;" x1="67.5" x2="302.5" y1="99.6094" y2="99.6094"/><ellipse cx="77.5" cy="110.6094" fill="none" rx="3" ry="3" style="stroke:#038048;stroke-width:1.0;"/><text fill="#000000" font-family="sans-serif" font-size="14" lengthAdjust="spacing" textLength="73" x="86.5" y="118.1426">Level string</text><line style="stroke:#181818;stroke-width:1.0;" x1="67.5" x2="302.5" y1="125.2188" y2="125.2188"/><ellipse cx="77.5" cy="136.2188" fill="none" rx="3" ry="3" style="stroke:#038048;stroke-width:1.0;"/><text fill="#000000" font-family="sans-serif" font-size="14" lengthAdjust="spacing" textLength="84" x="86.5" y="143.752">Source string</text><line style="stroke:#181818;stroke-width:1.0;" x1="67.5" x2="302.5" y1="150.8281" y2="150.8281"/><ellipse cx="77.5" cy="161.8281" fill="none" rx="3" ry="3" style="stroke:#038048;stroke-width:1.0;"/><text fill="#000000" font-family="sans-serif" font-size="14" lengthAdjust="spacing" textLength="96" x="86.5" y="169.3613">Message string</text></g><!--MD5=[2557b70de049790e1c1a4cc262bbdad6]
link Entity to IEntityModelDeletedAt--><g id="link_Entity_IEntityModelDeletedAt"><path codeLine="15" d="M155.67,370.28 C147.29,389.22 138.29,409.55 130.39,427.39 " fill="none" id="Entity-to-IEntityModelDeletedAt" style="stroke:#181818;stroke-width:1.0;stroke-dasharray:7.0,7.0;"/><polygon fill="none" points="136.69,430.48,122.19,445.93,123.88,424.81,136.69,430.48" style="stroke:#181818;stroke-width:1.0;"/></g><!--MD5=[a6c7a0eda5b041e127f539f1664bb96a]
link Entity to IEntityModel--><g id="link_Entity_IEntityModel"><path codeLine="16" d="M228.04,370.28 C240.74,389.83 254.4,410.86 266.25,429.1 " fill="none" id="Entity-to-IEntityModel" style="stroke:#181818;stroke-width:1.0;stroke-dasharray:7.0,7.0;"/><polygon fill="none" points="272.15,425.35,277.17,445.93,260.41,432.97,272.15,425.35" style="stroke:#181818;stroke-width:1.0;"/></g><!--MD5=[9772157d24c033f2fd4659808d74f7d7]
link IEntityModelDeletedAt to IEntityModel--><!--MD5=[7ee9f8375b9805f735e207131896076f]
link Log to Entity--><g id="link_Log_Entity"><path codeLine="14" d="M185,176.08 C185,191.01 185,207.02 185,222.44 " fill="none" id="Log-to-Entity" style="stroke:#181818;stroke-width:1.0;"/><polygon fill="#181818" points="185,235.8,189,229.8,185,223.8,181,229.8,185,235.8" style="stroke:#181818;stroke-width:1.0;"/></g><!--MD5=[fb9d393418009a436117b8e4aefe47c3]
@startuml

!include Entity.puml

package domain {
    class Log {
        +ActionID uuid.UUID `gorm:"index"`
        - -
        +Level string
        - -
        +Source string
        - -
        +Message string
    }
    Log -down-* Entity
}

@enduml

@startuml



package app {
    interface IEntityModel {
        +GetID() uuid.UUID
    }
}


package app {
    interface IEntityModelDeletedAt {
        +SetDeleted()
    }
    note bottom of IEntityModelDeletedAt
        Set deletion time
        This method marks that the entity has been deleted
    end note
}


package domain {
    class Entity {
        +ID uuid.UUID `gorm:"primarykey"`
        - -
        +CreatedAt time.Time `gorm:"index"`
        - -
        +UpdatedAt time.Time `gorm:"index"`
        - -
        +DeletedAt time.Time `gorm:"index"`
    }
    Entity .down.|> IEntityModelDeletedAt
    Entity .down.|> IEntityModel

    IEntityModel .left[hidden]. IEntityModelDeletedAt
}


package domain {
    class Log {
        +ActionID uuid.UUID `gorm:"index"`
        - -
        +Level string
        - -
        +Source string
        - -
        +Message string
    }
    Log -down-* Entity
}

@enduml

PlantUML version 1.2022.6(Tue Jun 21 20:34:49 MSK 2022)
(GPL source distribution)
Java Runtime: OpenJDK Runtime Environment
JVM: OpenJDK 64-Bit Server VM
Default Encoding: Cp1251
Language: ru
Country: RU
--></g></svg>