<?xml version="1.0" encoding="UTF-8" standalone="no"?><svg xmlns="http://www.w3.org/2000/svg" xmlns:xlink="http://www.w3.org/1999/xlink" contentStyleType="text/css" height="217px" preserveAspectRatio="none" style="width:197px;height:217px;background:#FFFFFF;" version="1.1" viewBox="0 0 197 217" width="197px" zoomAndPan="magnify"><defs/><g><!--MD5=[27f772719433d509ddbc20ff768eba08]
cluster domain--><g id="cluster_domain"><path d="M8.5,6 L66.5,6 A3.75,3.75 0 0 1 69,8.5 L76,28.2969 L187.5,28.2969 A2.5,2.5 0 0 1 190,30.7969 L190,207.5 A2.5,2.5 0 0 1 187.5,210 L8.5,210 A2.5,2.5 0 0 1 6,207.5 L6,8.5 A2.5,2.5 0 0 1 8.5,6 " style="stroke:#000000;stroke-width:1.5;fill:none;"/><line style="stroke:#000000;stroke-width:1.5;fill:none;" x1="6" x2="76" y1="28.2969" y2="28.2969"/><text fill="#000000" font-family="sans-serif" font-size="14" font-weight="bold" lengthAdjust="spacing" textLength="57" x="10" y="20.9951">domain</text></g><!--MD5=[2198d3bfd14eba6d7379688992ec094c]
class TFTPServerState--><g id="elem_TFTPServerState"><rect codeLine="3" fill="#F1F1F1" height="153.4844" id="TFTPServerState" rx="2.5" ry="2.5" style="stroke:#181818;stroke-width:0.5;" width="151" x="22.5" y="41"/><ellipse cx="39.3" cy="57" fill="#EB937F" rx="11" ry="11" style="stroke:#181818;stroke-width:1.0;"/><path d="M43.4094,63 L35.6906,63 L35.6906,50.6094 L43.4094,50.6094 L43.4094,52.7656 L38.1438,52.7656 L38.1438,55.4375 L42.9094,55.4375 L42.9094,57.5938 L38.1438,57.5938 L38.1438,60.8438 L43.4094,60.8438 L43.4094,63 Z " fill="#000000"/><text fill="#000000" font-family="sans-serif" font-size="14" lengthAdjust="spacing" textLength="115" x="53.7" y="61.8467">TFTPServerState</text><line style="stroke:#181818;stroke-width:0.5;" x1="23.5" x2="172.5" y1="73" y2="73"/><text fill="#000000" font-family="sans-serif" font-size="14" lengthAdjust="spacing" textLength="139" x="28.5" y="89.9951">TFTPStateLaunched</text><line style="stroke:#181818;stroke-width:1.0;" x1="23.5" x2="172.5" y1="97.2969" y2="97.2969"/><text fill="#000000" font-family="sans-serif" font-size="14" lengthAdjust="spacing" textLength="130" x="28.5" y="114.292">TFTPStateStopped</text><line style="stroke:#181818;stroke-width:1.0;" x1="23.5" x2="172.5" y1="121.5938" y2="121.5938"/><text fill="#000000" font-family="sans-serif" font-size="14" lengthAdjust="spacing" textLength="104" x="28.5" y="138.5889">TFTPStateError</text><line style="stroke:#181818;stroke-width:1.0;" x1="23.5" x2="172.5" y1="145.8906" y2="145.8906"/><text fill="#000000" font-family="sans-serif" font-size="14" lengthAdjust="spacing" textLength="108" x="28.5" y="162.8857">TFTPStateNone</text><line style="stroke:#181818;stroke-width:1.0;" x1="23.5" x2="172.5" y1="170.1875" y2="170.1875"/><ellipse cx="33.5" cy="181.1875" fill="#84BE84" rx="3" ry="3" style="stroke:#038048;stroke-width:1.0;"/><text fill="#000000" font-family="sans-serif" font-size="14" lengthAdjust="spacing" textLength="68" x="42.5" y="187.1826">ToString()</text></g><!--MD5=[cb4846ecda08af8fd088250e0b98aee4]
@startuml

package domain {
    enum TFTPServerState {
            TFTPStateLaunched
            - -
            TFTPStateStopped
            - -
            TFTPStateError
            - -
            TFTPStateNone
            - -
            +ToString()
    }
}

@enduml

PlantUML version 1.2022.6(Tue Jun 21 17:34:49 EGST 2022)
(GPL source distribution)
Java Runtime: OpenJDK Runtime Environment
JVM: OpenJDK 64-Bit Server VM
Default Encoding: UTF-8
Language: en
Country: US
--></g></svg>